<svg width="48" height="48" viewBox="0 0 48 48" fill="none" xmlns="http://www.w3.org/2000/svg">
<path fill-rule="evenodd" clip-rule="evenodd" d="M27.5361 31.4204C26.3868 31.743 25.176 31.9153 23.9254 31.9153C22.6748 31.9153 21.4639 31.7429 20.3146 31.4204L19.2939 34.177C19.1304 34.6186 19.3513 35.1107 19.7873 35.2763C19.882 35.3123 19.9822 35.3307 20.0833 35.3307H22.2432C22.3568 39.1767 24.1446 41.7922 27.7674 43.0151C28.6508 43.3134 29.6058 42.8298 29.9003 41.9351C30.1948 41.0404 29.7173 40.0733 28.8338 39.7751C26.5883 39.0171 25.7233 37.6518 25.6116 35.2763L27.7674 35.3307C28.233 35.3307 28.6105 34.9484 28.6105 34.4768C28.6105 34.3745 28.5923 34.2729 28.5568 34.177L27.5361 31.4204Z" fill="black"/>
<path opacity="0.3" fill-rule="evenodd" clip-rule="evenodd" d="M38 18C38 25.732 31.732 32 24 32C16.268 32 10 25.732 10 18C10 10.268 16.268 4 24 4C31.732 4 38 10.268 38 18ZM16.2311 16.3838C16.9542 16.3332 17.5814 16.8784 17.632 17.6016C17.8066 20.099 18.912 21.9708 21.0148 23.3295C21.6236 23.7229 21.7982 24.5354 21.4048 25.1442C21.0114 25.7531 20.1989 25.9277 19.5901 25.5343C16.7934 23.7271 15.2456 21.1063 15.0133 17.7847C14.9628 17.0616 15.508 16.4344 16.2311 16.3838Z" fill="black"/>
</svg>
