<svg width="48" height="48" viewBox="0 0 48 48" fill="none" xmlns="http://www.w3.org/2000/svg">
<path opacity="0.3" d="M12 20C12 21.1046 11.1046 22 10 22C8.89543 22 8 21.1046 8 20V12C8 8.68629 10.6863 6 14 6C17.3137 6 20 8.68629 20 12C20 13.1046 19.1046 14 18 14C16.8954 14 16 13.1046 16 12C16 10.8954 15.1046 10 14 10C12.8954 10 12 10.8954 12 12V20Z" fill="black"/>
<path opacity="0.3" d="M12 40H8C8 34.4772 12.4772 32 18 32H30C35.5228 32 40 34.4772 40 40H36C36 36.6863 33.3137 36 30 36H18C14.6863 36 12 36.6863 12 40Z" fill="black"/>
<path fill-rule="evenodd" clip-rule="evenodd" d="M46 18H4V31C4 33.7614 6.23858 36 9 36H41C43.7614 36 46 33.7614 46 31V18ZM40 21.5C39.1716 21.5 38.5 22.1716 38.5 23C38.5 25.8612 37.389 28.0833 35.1 29.8C34.4373 30.2971 34.303 31.2373 34.8 31.9C35.2971 32.5627 36.2373 32.6971 36.9 32.2C39.9444 29.9167 41.5 26.8055 41.5 23C41.5 22.1716 40.8285 21.5 40 21.5Z" fill="black"/>
</svg>
