<svg width="48" height="48" viewBox="0 0 48 48" fill="none" xmlns="http://www.w3.org/2000/svg">
<path opacity="0.3" fill-rule="evenodd" clip-rule="evenodd" d="M12.8261 43.9688C12.6832 44.5023 12.9998 45.0506 13.5332 45.1935L15.4651 45.7112C15.9986 45.8541 16.5469 45.5375 16.6898 45.0041L20.4038 31.1434C20.5467 30.6099 20.2301 30.0616 19.6967 29.9187L17.7648 29.401C17.2314 29.2581 16.683 29.5747 16.5401 30.1081L12.8261 43.9688ZM35.1581 43.9081C35.301 44.4416 34.9844 44.9899 34.451 45.1328L32.5191 45.6505C31.9856 45.7934 31.4373 45.4768 31.2944 44.9434L28.1709 33.2866C28.028 32.7532 28.3446 32.2048 28.8781 32.0619L30.8099 31.5443C31.3434 31.4013 31.8917 31.7179 32.0346 32.2514L35.1581 43.9081Z" fill="black"/>
<path fill-rule="evenodd" clip-rule="evenodd" d="M14 2C12.8954 2 12 2.89543 12 4V25.5C12 25.7761 12.2239 26 12.5 26H35.5C35.7761 26 36 25.7761 36 25.5V4C36 2.89543 35.1046 2 34 2H14ZM9.5 28C8.67157 28 8 28.6716 8 29.5V32.5C8 33.3284 8.67157 34 9.5 34H38.5C39.3284 34 40 33.3284 40 32.5V29.5C40 28.6716 39.3284 28 38.5 28H9.5Z" fill="black"/>
</svg>
