<svg width="48" height="48" viewBox="0 0 48 48" fill="none" xmlns="http://www.w3.org/2000/svg">
<path opacity="0.3" fill-rule="evenodd" clip-rule="evenodd" d="M9.5 8C8.67157 8 8 8.67157 8 9.5V20.5C8 21.3284 8.67157 22 9.5 22H38.5C39.3284 22 40 21.3284 40 20.5V9.5C40 8.67157 39.3284 8 38.5 8H9.5ZM21.5 12C20.6716 12 20 12.6716 20 13.5V14.5C20 15.3284 20.6716 16 21.5 16H26.5C27.3284 16 28 15.3284 28 14.5V13.5C28 12.6716 27.3284 12 26.5 12H21.5Z" fill="black"/>
<path fill-rule="evenodd" clip-rule="evenodd" d="M9.5 26C8.67157 26 8 26.6716 8 27.5V38.5C8 39.3284 8.67157 40 9.5 40H38.5C39.3284 40 40 39.3284 40 38.5V27.5C40 26.6716 39.3284 26 38.5 26H9.5ZM21.5 30C20.6716 30 20 30.6716 20 31.5V32.5C20 33.3284 20.6716 34 21.5 34H26.5C27.3284 34 28 33.3284 28 32.5V31.5C28 30.6716 27.3284 30 26.5 30H21.5Z" fill="black"/>
</svg>
