<svg width="48" height="48" viewBox="0 0 48 48" fill="none" xmlns="http://www.w3.org/2000/svg">
<path opacity="0.3" fill-rule="evenodd" clip-rule="evenodd" d="M6 7C6 6.44772 6.44772 6 7 6H22V10C22 18.8366 14.8366 26 6 26V7ZM42 7C42 6.44772 41.5523 6 41 6H26V10C26 18.8366 33.1634 26 42 26V7Z" fill="black"/>
<path fill-rule="evenodd" clip-rule="evenodd" d="M7 42C6.44772 42 6 41.5523 6 41V26C12.6274 26 18 31.3726 18 38V42H7ZM41 42C41.5523 42 42 41.5523 42 41V26C35.3726 26 30 31.3726 30 38V42H41Z" fill="black"/>
</svg>
