<svg width="48" height="48" viewBox="0 0 48 48" fill="none" xmlns="http://www.w3.org/2000/svg">
<path opacity="0.3" fill-rule="evenodd" clip-rule="evenodd" d="M42.0388 5.60767C42.2554 4.52455 43.3091 3.82211 44.3922 4.03874L41.272 9.44149L42.0388 5.60767ZM40.173 11.3445L41.272 9.44149L40.7717 11.9432L40.173 11.3445ZM38.1021 14.9304L32.5858 9.4141C31.8047 8.63305 31.8047 7.36672 32.5858 6.58567C33.3668 5.80463 34.6331 5.80463 35.4142 6.58567L40.173 11.3445L38.1021 14.9304ZM37.1514 16.5767L38.1021 14.9304L38.7745 15.6028L37.1514 16.5767ZM37.0336 16.7806L37.1514 16.5767L36.9124 16.72L31.8944 14.2111C30.9065 13.7171 29.7051 14.1175 29.2112 15.1055C28.7172 16.0935 29.1176 17.2948 30.1056 17.7888L32.8469 19.1594L31.446 19.9999H16.5539L16.554 19.9999H31.446L32.8469 19.1594L36.9124 16.72L37.0336 16.7806ZM15.4176 23.9132C15.6055 23.9704 15.8017 23.9999 16 23.9999H32C32.0137 23.9999 32.0275 23.9998 32.0413 23.9995C32.0501 23.9993 32.059 23.999 32.0678 23.9987C32.4067 23.9872 32.7375 23.8897 33.0289 23.7149L33.029 23.7149L37.0336 16.7806L37.8944 17.2111C39.306 17.9169 39.3823 19.9029 38.029 20.7149L33.029 23.7149C32.7182 23.9014 32.3625 23.9999 32 23.9999H16C15.8018 23.9999 15.6055 23.9704 15.4176 23.9132ZM15.0896 23.7807C15.0808 23.7762 15.072 23.7716 15.0633 23.767C15.0321 23.7505 15.0014 23.7331 14.971 23.7149L14.971 23.7149C15.0013 23.7331 15.0321 23.7505 15.0633 23.767C15.072 23.7716 15.0808 23.7762 15.0896 23.7807ZM9.97102 20.7149C8.67634 19.9381 8.67634 18.0617 9.97102 17.2849L11 16.6675L14.8873 18.9999L17.029 17.7149C17.9762 17.1466 18.2833 15.9181 17.715 14.9709C17.1467 14.0238 15.9182 13.7166 14.971 14.2849L11 16.6675L9.22548 15.6028L15.4142 9.4141C16.1952 8.63305 16.1952 7.36672 15.4142 6.58567C14.6331 5.80463 13.3668 5.80463 12.5858 6.58567L7.22823 11.9432L5.96112 5.60767C5.7445 4.52455 4.69085 3.82211 3.60773 4.03874C2.52461 4.25536 1.82217 5.30901 2.0388 6.39213L4.03634 16.3798C4.13655 16.8999 4.44157 17.3827 4.93468 17.6926C4.94668 17.7001 4.95878 17.7076 4.97097 17.7149L9.97102 20.7149ZM44.3922 4.03874L43.9641 16.377L45.9611 6.39213C46.1777 5.30901 45.4753 4.25536 44.3922 4.03874Z" fill="black"/>
<rect x="15.7097" y="20" width="16.5795" height="22" rx="2" fill="black"/>
</svg>
