<svg width="48" height="49" viewBox="0 0 48 49" fill="none" xmlns="http://www.w3.org/2000/svg">
<path opacity="0.3" d="M14 9.99342V42.875H10V6.125H22V9.99342H14Z" fill="black"/>
<path fill-rule="evenodd" clip-rule="evenodd" d="M19 4.76514C18.4477 4.76514 18 5.21285 18 5.76514V43.2352C18 43.7874 18.4477 44.2352 19 44.2352H37C37.5523 44.2352 38 43.7874 38 43.2352V5.76514C38 5.21285 37.5523 4.76514 37 4.76514H19ZM26.3333 23.575C26.3333 25.1074 25.214 26.3497 23.8333 26.3497C22.4526 26.3497 21.3333 25.1074 21.3333 23.575C21.3333 22.0426 22.4526 20.8004 23.8333 20.8004C25.214 20.8004 26.3333 22.0426 26.3333 23.575Z" fill="black"/>
</svg>
