<svg width="48" height="48" viewBox="0 0 48 48" fill="none" xmlns="http://www.w3.org/2000/svg">
<path opacity="0.3" fill-rule="evenodd" clip-rule="evenodd" d="M24 42C33.9411 42 42 33.9411 42 24C42 14.0589 33.9411 6 24 6C14.0589 6 6 14.0589 6 24C6 33.9411 14.0589 42 24 42Z" fill="black"/>
<path opacity="0.3" fill-rule="evenodd" clip-rule="evenodd" d="M23.4715 41.9924C13.7748 41.7128 6 33.7644 6 24C6 23.8337 6.00226 23.6679 6.00674 23.5027C7.32466 23.6287 9.71274 23.9148 9.82526 24.8408C9.98099 26.1219 9.82526 27.7232 10.9161 28.2036C12.0069 28.6839 12.3186 26.2819 13.2535 26.9225C14.1884 27.5632 16.6817 28.1799 16.6817 29.3125C16.6817 30.4448 16.2143 32.2069 16.6817 32.5273C17.1492 32.8476 19.0179 35.0893 19.0184 35.4096C19.0191 35.73 19.6771 37.3587 19.4808 37.9813C19.3181 38.4975 18.4972 40.1003 17.7012 40.8291C19.5063 41.5242 21.4472 41.9316 23.4715 41.9921L23.4715 41.9924ZM16.5655 7.60224C18.8317 6.57313 21.3489 6 24 6C31.0229 6 37.1064 10.0219 40.0729 15.8882C40.1393 17.4482 40.1277 18.7827 40.4723 19.2655C42.2264 21.7201 36.199 23.4086 37.1147 27.1211C37.5179 28.759 33.1056 28.2394 32.028 29.7728C30.9496 31.3055 28.3149 30.2756 27.704 29.981C27.0931 29.6864 24.7533 30.6683 24.9578 28.999C25.1611 27.3293 26.5846 27.2312 28.1111 26.5439C29.637 25.8573 31.8379 23.5744 30.7564 23.276C25.6646 21.8725 23.9276 16.957 23.9276 16.957C23.6221 16.898 23.6988 13.4822 22.3767 13.3841C21.0535 13.2856 20.3409 13.7768 18.4087 13.3841C16.4753 12.9915 16.8829 11.7149 16.5774 8.96512C16.5091 8.34831 16.5124 7.91434 16.5655 7.60224ZM41.9983 23.7541C41.9994 23.8359 42 23.9179 42 24C42 33.8814 34.0377 41.9031 24.179 41.9991C33.9404 41.9006 41.8674 33.7769 41.9983 23.7541Z" fill="black"/>
</svg>
