<svg width="48" height="48" viewBox="0 0 48 48" fill="none" xmlns="http://www.w3.org/2000/svg">
<path fill-rule="evenodd" clip-rule="evenodd" d="M36 12H12V20C12 20 18 23 18 28V34V40V42C18 43.1046 18.8954 44 20 44H28C29.1046 44 30 43.1046 30 42V40V34V28C30 24.5594 36 20 36 20V12ZM20 24C20 22.8954 20.8954 22 22 22H26C27.1046 22 28 22.8954 28 24V32C28 33.1046 27.1046 34 26 34H22C20.8954 34 20 33.1046 20 32V24ZM26 26C26 27.1046 25.1046 28 24 28C22.8954 28 22 27.1046 22 26C22 24.8954 22.8954 24 24 24C25.1046 24 26 24.8954 26 26Z" fill="black"/>
<path opacity="0.3" d="M12 5C12 4.44772 12.4477 4 13 4H35C35.5523 4 36 4.44772 36 5V8H12V5Z" fill="black"/>
</svg>
