<svg width="48" height="48" viewBox="0 0 48 48" fill="none" xmlns="http://www.w3.org/2000/svg">
<path fill-rule="evenodd" clip-rule="evenodd" d="M9.47713 35.3485L11.5875 33.0367C14.4166 35.7329 18.0575 37.4525 22 37.8898V40.0001H18C16.8954 40.0001 16 40.8956 16 42.0001V44.0001H23H25H32V42.0001C32 40.8956 31.1046 40.0001 30 40.0001H26V37.8903C34.9999 36.8954 42 29.2652 42 20.0001C42 14.1783 39.2143 8.81817 34.6008 5.45147C33.7085 4.80035 32.4574 4.99582 31.8063 5.88807C31.1551 6.78032 31.3506 8.03147 32.2429 8.6826C35.8352 11.3041 38 15.4695 38 20.0001C38 27.7321 31.732 34.0001 24 34.0001C19.7264 34.0001 15.7725 32.0759 13.1281 28.8215C12.3572 27.8727 10.923 27.8315 10.0988 28.7344L6.52288 32.6517C5.7782 33.4675 5.83584 34.7326 6.65163 35.4772C7.46742 36.2219 8.73244 36.1643 9.47713 35.3485Z" fill="black"/>
<path opacity="0.3" fill-rule="evenodd" clip-rule="evenodd" d="M24 32C30.6274 32 36 26.6274 36 20C36 13.3726 30.6274 8 24 8C17.3726 8 12 13.3726 12 20C12 26.6274 17.3726 32 24 32Z" fill="black"/>
</svg>
