<svg width="48" height="48" viewBox="0 0 48 48" fill="none" xmlns="http://www.w3.org/2000/svg">
<path opacity="0.3" fill-rule="evenodd" clip-rule="evenodd" d="M22.7319 21.6451L10 33.9999L10 39.9999L16 39.9999L16 35.9999H19.8836L19.8836 31.9999L24 31.9999L28.3689 27.282L22.7319 21.6451Z" fill="black"/>
<path fill-rule="evenodd" clip-rule="evenodd" d="M40.4558 26.4558C35.7695 31.1421 28.1715 31.1421 23.4852 26.4558C18.7989 21.7696 18.7989 14.1716 23.4852 9.48528C28.1715 4.79899 35.7695 4.79899 40.4558 9.48528C45.1421 14.1716 45.1421 21.7696 40.4558 26.4558ZM36.3639 18.364C35.1923 19.5355 33.2928 19.5355 32.1212 18.364C30.9497 17.1924 30.9497 15.2929 32.1212 14.1213C33.2928 12.9497 35.1923 12.9497 36.3639 14.1213C37.5354 15.2929 37.5354 17.1924 36.3639 18.364Z" fill="black"/>
</svg>
