<svg width="48" height="48" viewBox="0 0 48 48" fill="none" xmlns="http://www.w3.org/2000/svg">
<path opacity="0.3" fill-rule="evenodd" clip-rule="evenodd" d="M13 10C12.4477 10 12 10.4477 12 11V13C12 13.5523 12.4477 14 13 14H35C35.5523 14 36 13.5523 36 13V11C36 10.4477 35.5523 10 35 10H13ZM13 18C12.4477 18 12 18.4477 12 19V21C12 21.5523 12.4477 22 13 22H35C35.5523 22 36 21.5523 36 21V19C36 18.4477 35.5523 18 35 18H13ZM12 27C12 26.4477 12.4477 26 13 26H35C35.5523 26 36 26.4477 36 27V29C36 29.5523 35.5523 30 35 30H13C12.4477 30 12 29.5523 12 29V27ZM13 34C12.4477 34 12 34.4477 12 35V37C12 37.5523 12.4477 38 13 38H35C35.5523 38 36 37.5523 36 37V35C36 34.4477 35.5523 34 35 34H13Z" fill="black"/>
<path fill-rule="evenodd" clip-rule="evenodd" d="M9.5 4C8.67157 4 8 4.67157 8 5.5V42.5C8 43.3284 8.67157 44 9.5 44H12.5C13.3284 44 14 43.3284 14 42.5V5.5C14 4.67157 13.3284 4 12.5 4H9.5ZM35.5 4C34.6716 4 34 4.67157 34 5.5V42.5C34 43.3284 34.6716 44 35.5 44H38.5C39.3284 44 40 43.3284 40 42.5V5.5C40 4.67157 39.3284 4 38.5 4H35.5Z" fill="black"/>
</svg>
