<svg width="48" height="48" viewBox="0 0 48 48" fill="none" xmlns="http://www.w3.org/2000/svg">
<path fill-rule="evenodd" clip-rule="evenodd" d="M9 6C8.44772 6 8 6.44772 8 7V41C8 41.5523 8.44772 42 9 42H13C13.5523 42 14 41.5523 14 41V7C14 6.44772 13.5523 6 13 6H9ZM19 6C18.4477 6 18 6.44772 18 7V41C18 41.5523 18.4477 42 19 42H23C23.5523 42 24 41.5523 24 41V7C24 6.44772 23.5523 6 23 6H19Z" fill="black"/>
<rect opacity="0.3" x="26.9543" y="7.84863" width="6" height="36" rx="1" transform="rotate(-19 26.9543 7.84863)" fill="black"/>
</svg>
