<svg width="48" height="48" viewBox="0 0 48 48" fill="none" xmlns="http://www.w3.org/2000/svg">
<path fill-rule="evenodd" clip-rule="evenodd" d="M11.5 6C10.6716 6 10 6.67157 10 7.5V12H5.5C4.67157 12 4 12.6716 4 13.5V16.5C4 17.3284 4.67157 18 5.5 18H10V40.5C10 41.3284 10.6716 42 11.5 42H14.5C15.3284 42 16 41.3284 16 40.5V18H42.5C43.3284 18 44 17.3284 44 16.5V13.5C44 12.6716 43.3284 12 42.5 12H16V7.5C16 6.67157 15.3284 6 14.5 6H11.5Z" fill="black"/>
<path opacity="0.3" fill-rule="evenodd" clip-rule="evenodd" d="M42.5 22H20V36.5C20 37.3284 20.6716 38 21.5 38H37.5C41.0899 38 44 35.0899 44 31.5V23.5C44 22.6716 43.3284 22 42.5 22ZM39 24C38.4477 24 38 24.4477 38 25V33C38 33.5523 38.4477 34 39 34H41C41.5523 34 42 33.5523 42 33V25C42 24.4477 41.5523 24 41 24H39Z" fill="black"/>
</svg>
