<svg width="48" height="48" viewBox="0 0 48 48" fill="none" xmlns="http://www.w3.org/2000/svg">
<rect opacity="0.3" x="12" y="2" width="24" height="8" rx="1" fill="black"/>
<path fill-rule="evenodd" clip-rule="evenodd" d="M12.1328 14C12.1328 12.8954 13.0282 12 14.1328 12H35.3673C35.6435 12 35.8673 12.2239 35.8673 12.5V26.762C35.9547 27.4921 36 28.2395 36 29C36 37.2843 30.6274 44 24 44C17.3726 44 12 37.2843 12 29C12 28.1201 12.0606 27.2579 12.1769 26.4196C12.148 26.2843 12.1328 26.1439 12.1328 26V14ZM32 30C32 35.5228 28.4183 40 24 40C19.5817 40 16 35.5228 16 30C16 24.4772 19.5817 20 24 20C28.4183 20 32 24.4772 32 30Z" fill="black"/>
<path opacity="0.3" d="M21 28.5C21 28.2239 21.2239 28 21.5 28H26.5C26.7761 28 27 28.2239 27 28.5V32.5C27 33.3284 26.3284 34 25.5 34H22.5C21.6716 34 21 33.3284 21 32.5V28.5Z" fill="black"/>
</svg>
