<svg width="48" height="48" viewBox="0 0 48 48" fill="none" xmlns="http://www.w3.org/2000/svg">
<path fill-rule="evenodd" clip-rule="evenodd" d="M36 32H18C16.8954 32 16 31.1046 16 30C16 28.8954 16.8954 28 18 28H34C35.1046 28 36 27.1046 36 26C36 24.8954 35.1046 24 34 24H18C14.6863 24 12 26.6863 12 30C12 33.3137 14.6863 36 18 36H39C42 36 42 37 42 38C42 39 42 40 39 40H14C9.58172 40 6 36.4183 6 32V16C6 11.5817 9.58172 8 14 8H34C38.4183 8 42 11.5817 42 16V26C42 29.3137 39.3137 32 36 32Z" fill="black"/>
</svg>
