<svg width="48" height="48" viewBox="0 0 48 48" fill="none" xmlns="http://www.w3.org/2000/svg">
<path fill-rule="evenodd" clip-rule="evenodd" d="M13.8935 40.615L12 16H36L34.1065 40.615C34.0464 41.3965 33.3948 42 32.611 42H15.389C14.6052 42 13.9536 41.3965 13.8935 40.615ZM16.9088 28.1789L16 20H32L31.1036 28.0678L16.9088 28.1789Z" fill="black"/>
<path opacity="0.3" fill-rule="evenodd" clip-rule="evenodd" d="M28 9V6.5C28 6.22386 27.7761 6 27.5 6H20.5C20.2239 6 20 6.22386 20 6.5V9H10.5C10.2239 9 10 9.22386 10 9.5V11.5C10 11.7761 10.2239 12 10.5 12H37.5C37.7761 12 38 11.7761 38 11.5V9.5C38 9.22386 37.7761 9 37.5 9H28Z" fill="black"/>
</svg>
