<svg width="48" height="48" viewBox="0 0 48 48" fill="none" xmlns="http://www.w3.org/2000/svg">
<path opacity="0.3" d="M8 41C8 38.2386 10.2386 36 13 36H19C21.7614 36 24 38.2386 24 41V44H8V41Z" fill="black"/>
<path fill-rule="evenodd" clip-rule="evenodd" d="M18 24.252C21.4505 25.1401 24 28.2723 24 32C24 36.4183 20.4183 40 16 40C11.5817 40 8 36.4183 8 32C8 28.2723 10.5495 25.1401 14 24.252V16C14 9.37258 19.3726 4 26 4C32.6274 4 38 9.37258 38 16V18H34V16C34 11.5817 30.4183 8 26 8C21.5817 8 18 11.5817 18 16V24.252ZM16 36C18.2091 36 20 34.2091 20 32C20 29.7909 18.2091 28 16 28C13.7909 28 12 29.7909 12 32C12 34.2091 13.7909 36 16 36Z" fill="black"/>
<path opacity="0.3" fill-rule="evenodd" clip-rule="evenodd" d="M36 34C38.2091 34 40 32.2091 40 30C40 27.7909 36 24 36 24C36 24 32 27.7909 32 30C32 32.2091 33.7909 34 36 34Z" fill="black"/>
</svg>
