<svg width="48" height="48" viewBox="0 0 48 48" fill="none" xmlns="http://www.w3.org/2000/svg">
<path opacity="0.3" fill-rule="evenodd" clip-rule="evenodd" d="M29.6219 13C28.2898 7.82432 23.5915 4 18 4C11.3726 4 6 9.37258 6 16C6 19.1438 7.20895 22.0053 9.1873 24.1448C9.79822 26.3673 11.8334 28 14.25 28H18H36.75C39.6495 28 42 25.6495 42 22.75V18.25C42 15.3505 39.6495 13 36.75 13H29.6219Z" fill="black"/>
<path d="M31.2351 36.4844C31.5102 36.1595 31.2793 35.6613 30.8535 35.6613H25.8621V31.146C25.8621 30.8699 25.6382 30.646 25.3621 30.646H22.3155C22.0394 30.646 21.8155 30.8699 21.8155 31.146V35.6613H16.8241C16.3983 35.6613 16.1674 36.1595 16.4425 36.4844L23.4572 44.7695C23.6569 45.0054 24.0207 45.0054 24.2204 44.7695L31.2351 36.4844Z" fill="black"/>
</svg>
