<svg width="48" height="48" viewBox="0 0 48 48" fill="none" xmlns="http://www.w3.org/2000/svg">
<path opacity="0.3" d="M11.7143 4H28.0221C28.3768 4 28.72 4.12568 28.9908 4.35474L39.4687 13.2173C39.8057 13.5023 40 13.9212 40 14.3625V40.1667C40 43.7478 39.9591 44 36.2857 44H11.7143C8.0409 44 8 43.7478 8 40.1667V7.83333C8 4.25225 8.0409 4 11.7143 4Z" fill="black"/>
<rect opacity="0.3" x="13.5239" y="24.2542" width="6.28571" height="6.28571" rx="0.75" transform="rotate(-45 13.5239 24.2542)" fill="black"/>
<rect opacity="0.3" x="26.0952" y="24.2542" width="6.28571" height="6.28571" rx="0.75" transform="rotate(-45 26.0952 24.2542)" fill="black"/>
<rect x="19.8095" y="30.5398" width="6.28571" height="6.28571" rx="0.75" transform="rotate(-45 19.8095 30.5398)" fill="black"/>
<rect x="19.8095" y="17.9685" width="6.28571" height="6.28571" rx="0.75" transform="rotate(-45 19.8095 17.9685)" fill="black"/>
</svg>
