<svg width="48" height="48" viewBox="0 0 48 48" fill="none" xmlns="http://www.w3.org/2000/svg">
<path opacity="0.3" fill-rule="evenodd" clip-rule="evenodd" d="M4 40.5C4 41.3284 4.67157 42 5.5 42H42.5C43.3284 42 44 41.3284 44 40.5V15.5C44 14.6716 43.3284 14 42.5 14H20L14.4393 8.43934C14.158 8.15804 13.7765 8 13.3787 8H5.5C4.67157 8 4 8.67157 4 9.5V40.5Z" fill="black"/>
<path fill-rule="evenodd" clip-rule="evenodd" d="M17.6361 31.5356C17.2455 31.9262 17.2455 32.5593 17.6361 32.9499L19.0503 34.3641C19.4408 34.7546 20.074 34.7546 20.4645 34.3641L24 30.8285L27.5356 34.3641C27.9261 34.7546 28.5593 34.7546 28.9498 34.3641L30.364 32.9499C30.7545 32.5593 30.7545 31.9262 30.364 31.5357L26.8285 28.0001L30.364 24.4646C30.7545 24.0741 30.7545 23.4409 30.364 23.0504L28.9498 21.6362C28.5592 21.2456 27.9261 21.2456 27.5356 21.6362L24 25.1717L20.4645 21.6362C20.074 21.2456 19.4408 21.2456 19.0503 21.6362L17.6361 23.0504C17.2455 23.4409 17.2455 24.0741 17.6361 24.4646L21.1716 28.0001L17.6361 31.5356Z" fill="black"/>
</svg>
