<svg width="48" height="48" viewBox="0 0 48 48" fill="none" xmlns="http://www.w3.org/2000/svg">
<path opacity="0.3" d="M11.7143 4H28.0221C28.3768 4 28.72 4.12568 28.9908 4.35474L39.4687 13.2173C39.8057 13.5023 40 13.9212 40 14.3625V40.1667C40 43.7478 39.9591 44 36.2857 44H11.7143C8.0409 44 8 43.7478 8 40.1667V7.83333C8 4.25225 8.0409 4 11.7143 4Z" fill="black"/>
<path fill-rule="evenodd" clip-rule="evenodd" d="M31.2351 24.4844C31.5102 24.1595 31.2793 23.6613 30.8535 23.6613H25.8621V19.146C25.8621 18.8699 25.6382 18.646 25.3621 18.646H22.3155C22.0394 18.646 21.8155 18.8699 21.8155 19.146V23.6613L16.8241 23.6613C16.3983 23.6613 16.1674 24.1595 16.4425 24.4844L23.4572 32.7695C23.6569 33.0054 24.0207 33.0054 24.2204 32.7695L31.2351 24.4844Z" fill="black"/>
</svg>
