<svg width="48" height="48" viewBox="0 0 48 48" fill="none" xmlns="http://www.w3.org/2000/svg">
<path opacity="0.3" d="M11.7143 4H28.0221C28.3768 4 28.72 4.12568 28.9908 4.35474L39.4687 13.2173C39.8057 13.5023 40 13.9212 40 14.3625V40.1667C40 43.7478 39.9591 44 36.2857 44H11.7143C8.0409 44 8 43.7478 8 40.1667V7.83333C8 4.25225 8.0409 4 11.7143 4Z" fill="black"/>
<path fill-rule="evenodd" clip-rule="evenodd" d="M22.0001 28L18.0001 28C16.8955 28 16.0001 27.1046 16.0001 26C16.0001 24.8954 16.8955 24 18.0001 24L22.0001 24L22.0001 20C22.0001 18.8954 22.8955 18 24.0001 18C25.1046 18 26.0001 18.8954 26.0001 20L26.0001 24H30.0001C31.1046 24 32.0001 24.8954 32.0001 26C32.0001 27.1046 31.1046 28 30.0001 28H26.0001L26.0001 32C26.0001 33.1046 25.1046 34 24.0001 34C22.8955 34 22.0001 33.1046 22.0001 32L22.0001 28Z" fill="black"/>
</svg>
