<svg width="48" height="48" viewBox="0 0 48 48" fill="none" xmlns="http://www.w3.org/2000/svg">
<path opacity="0.3" fill-rule="evenodd" clip-rule="evenodd" d="M4 40.5C4 41.3284 4.67157 42 5.5 42H42.5C43.3284 42 44 41.3284 44 40.5V15.5C44 14.6716 43.3284 14 42.5 14H20L14.4393 8.43934C14.158 8.15804 13.7765 8 13.3787 8H5.5C4.67157 8 4 8.67157 4 9.5V40.5Z" fill="black"/>
<path fill-rule="evenodd" clip-rule="evenodd" d="M27.9291 26C27.4439 22.6077 24.5265 20 21 20C17.134 20 14 23.134 14 27C14 29.4962 15.3066 31.6872 17.2731 32.9265C17.9876 33.5925 18.9462 34 20 34H21H30C32.2091 34 34 32.2091 34 30C34 27.7909 32.2091 26 30 26H27.9291Z" fill="black"/>
</svg>
