<svg width="48" height="48" viewBox="0 0 48 48" fill="none" xmlns="http://www.w3.org/2000/svg">
<path opacity="0.3" fill-rule="evenodd" clip-rule="evenodd" d="M4 40.5C4 41.3284 4.67157 42 5.5 42H42.5C43.3284 42 44 41.3284 44 40.5V15.5C44 14.6716 43.3284 14 42.5 14H20L14.4393 8.43934C14.158 8.15804 13.7765 8 13.3787 8H5.5C4.67157 8 4 8.67157 4 9.5V40.5Z" fill="black"/>
<path opacity="0.3" fill-rule="evenodd" clip-rule="evenodd" d="M23.9999 34.4553L19.6037 36.8706C19.0776 37.1596 18.4268 36.9482 18.1502 36.3984C18.04 36.1794 18.002 35.9287 18.042 35.6848L18.8816 30.5693L15.325 26.9464C14.8994 26.5128 14.8907 25.8007 15.3056 25.3559C15.4708 25.1787 15.6873 25.0635 15.9216 25.0279L20.8366 24.2815L23.0347 19.6272C23.2978 19.0702 23.9432 18.8415 24.4763 19.1164C24.6885 19.2259 24.8604 19.4054 24.9651 19.6272L27.1632 24.2815L32.0783 25.0279C32.6666 25.1172 33.0742 25.688 32.9887 26.3027C32.9546 26.5475 32.8443 26.7738 32.6748 26.9464L29.1182 30.5693L29.9578 35.6848C30.0583 36.2971 29.6648 36.8786 29.0789 36.9836C28.8456 37.0254 28.6056 36.9857 28.3961 36.8706L23.9999 34.4553Z" fill="black"/>
</svg>
