<svg width="48" height="48" viewBox="0 0 48 48" fill="none" xmlns="http://www.w3.org/2000/svg">
<path opacity="0.3" fill-rule="evenodd" clip-rule="evenodd" d="M4 40.5C4 41.3284 4.67157 42 5.5 42H42.5C43.3284 42 44 41.3284 44 40.5V15.5C44 14.6716 43.3284 14 42.5 14H20L14.4393 8.43934C14.158 8.15804 13.7765 8 13.3787 8H5.5C4.67157 8 4 8.67157 4 9.5V40.5Z" fill="black"/>
<path opacity="0.3" d="M28.6999 21C27.0904 21 25.2082 22.8246 24.2 24C23.1917 22.8246 21.3095 21 19.7 21C16.851 21 15.2 23.2222 15.2 26.0504C15.2 30.75 24.2 36 24.2 36C24.2 36 33.1999 30.75 33.1999 26.25C33.1999 23.4218 31.5489 21 28.6999 21Z" fill="black"/>
</svg>
