<svg width="48" height="48" viewBox="0 0 48 48" fill="none" xmlns="http://www.w3.org/2000/svg">
<path opacity="0.3" fill-rule="evenodd" clip-rule="evenodd" d="M4 40.5C4 41.3284 4.67157 42 5.5 42H42.5C43.3284 42 44 41.3284 44 40.5V15.5C44 14.6716 43.3284 14 42.5 14H20L14.4393 8.43934C14.158 8.15804 13.7765 8 13.3787 8H5.5C4.67157 8 4 8.67157 4 9.5V40.5Z" fill="black"/>
<path opacity="0.3" fill-rule="evenodd" clip-rule="evenodd" d="M22.5932 39.2213C22.5932 39.9634 23.5556 40.2548 23.9672 39.6373L32.7169 26.5129C33.0492 26.0144 32.6919 25.3468 32.0928 25.3468H25.3185V16.9229C25.3185 16.1808 24.356 15.8894 23.9444 16.5069L15.1948 29.6313C14.8625 30.1297 15.2198 30.7973 15.8188 30.7973H22.5932V39.2213Z" fill="black"/>
</svg>
