<svg width="48" height="48" viewBox="0 0 48 48" fill="none" xmlns="http://www.w3.org/2000/svg">
<path opacity="0.3" fill-rule="evenodd" clip-rule="evenodd" d="M4 40.5C4 41.3284 4.67157 42 5.5 42H42.5C43.3284 42 44 41.3284 44 40.5V15.5C44 14.6716 43.3284 14 42.5 14H20L14.4393 8.43934C14.158 8.15804 13.7765 8 13.3787 8H5.5C4.67157 8 4 8.67157 4 9.5V40.5Z" fill="black"/>
<path fill-rule="evenodd" clip-rule="evenodd" d="M21.75 33.5C21.2708 33.5 20.7917 33.3083 20.4083 32.925L16.575 29.0917C15.8083 28.325 15.8083 27.175 16.575 26.4083C17.3417 25.6417 18.5875 25.6417 19.2583 26.4083L21.75 28.9L28.075 22.575C28.8417 21.8083 29.9917 21.8083 30.7583 22.575C31.525 23.3417 31.525 24.4917 30.7583 25.2583L23.0917 32.925C22.7083 33.3083 22.2292 33.5 21.75 33.5Z" fill="black"/>
</svg>
