<svg width="48" height="48" viewBox="0 0 48 48" fill="none" xmlns="http://www.w3.org/2000/svg">
<path opacity="0.3" fill-rule="evenodd" clip-rule="evenodd" d="M6 40.5C6 41.3284 6.67157 42 7.5 42H44.5C45.3284 42 46 41.3284 46 40.5V15.5C46 14.6716 45.3284 14 44.5 14H22L16.4393 8.43934C16.158 8.15804 15.7765 8 15.3787 8H7.5C6.67157 8 6 8.67157 6 9.5V40.5Z" fill="black"/>
<path fill-rule="evenodd" clip-rule="evenodd" d="M2 36.5C2 37.3284 2.67157 38 3.5 38H40.5C41.3284 38 42 37.3284 42 36.5V11.5C42 10.6716 41.3284 10 40.5 10H18L12.4393 4.43934C12.158 4.15804 11.7765 4 11.3787 4H3.5C2.67157 4 2 4.67157 2 5.5V36.5Z" fill="black"/>
</svg>
