<svg width="48" height="48" viewBox="0 0 48 48" fill="none" xmlns="http://www.w3.org/2000/svg">
<path opacity="0.3" fill-rule="evenodd" clip-rule="evenodd" d="M4 40.5C4 41.3284 4.67157 42 5.5 42H42.5C43.3284 42 44 41.3284 44 40.5V15.5C44 14.6716 43.3284 14 42.5 14H20L14.4393 8.43934C14.158 8.15804 13.7765 8 13.3787 8H5.5C4.67157 8 4 8.67157 4 9.5V40.5Z" fill="black"/>
<path fill-rule="evenodd" clip-rule="evenodd" d="M20 35.1419C20 35.5439 20.4503 35.7815 20.7822 35.5547L30.9732 28.5885C31.2631 28.3903 31.2638 27.9628 30.9744 27.7638L20.7834 20.7537C20.4516 20.5255 20 20.763 20 21.1657V35.1419Z" fill="black"/>
</svg>
