<svg width="48" height="48" viewBox="0 0 48 48" fill="none" xmlns="http://www.w3.org/2000/svg">
<path opacity="0.3" d="M11.7143 4H28.0221C28.3768 4 28.72 4.12568 28.9908 4.35474L39.4687 13.2173C39.8057 13.5023 40 13.9212 40 14.3625V40.1667C40 43.7478 39.9591 44 36.2857 44H11.7143C8.0409 44 8 43.7478 8 40.1667V7.83333C8 4.25225 8.0409 4 11.7143 4Z" fill="black"/>
<path fill-rule="evenodd" clip-rule="evenodd" d="M19.6667 34C17.6416 34 16 32.632 16 30.9444C16 29.2569 17.6416 27.8889 19.6667 27.8889C20.0952 27.8889 20.5066 27.9502 20.8889 28.0628V19.5832C20.8889 18.9565 21.2797 18.4025 21.8538 18.2155L28.8815 16.0662C29.7669 15.7779 30.6667 16.4672 30.6667 17.4339V19.5832C30.6667 20.2996 29.9959 20.7572 29.4444 20.8889C28.6511 21.0784 26.614 21.4858 23.3333 22.1111V31.007C23.3333 31.1168 23.3244 31.2184 23.3071 31.312C23.0892 32.8262 21.5424 34 19.6667 34Z" fill="black"/>
</svg>
