<svg width="48" height="48" viewBox="0 0 48 48" fill="none" xmlns="http://www.w3.org/2000/svg">
<path opacity="0.3" d="M11.7143 4H28.0221C28.3768 4 28.72 4.12568 28.9908 4.35474L39.4687 13.2173C39.8057 13.5023 40 13.9212 40 14.3625V40.1667C40 43.7478 39.9591 44 36.2857 44H11.7143C8.0409 44 8 43.7478 8 40.1667V7.83333C8 4.25225 8.0409 4 11.7143 4Z" fill="black"/>
<path fill-rule="evenodd" clip-rule="evenodd" d="M19 20.5C19 19.1193 20.1193 18 21.5 18H26.5C27.8807 18 29 19.1193 29 20.5V24H30C30.5523 24 31 24.4477 31 25V33C31 33.5523 30.5523 34 30 34H18C17.4477 34 17 33.5523 17 33V25C17 24.4477 17.4477 24 18 24H19V20.5ZM22.5 20C21.6716 20 21 20.6716 21 21.5V24H27V21.5C27 20.6716 26.3284 20 25.5 20H22.5Z" fill="black"/>
</svg>
