<svg width="48" height="48" viewBox="0 0 48 48" fill="none" xmlns="http://www.w3.org/2000/svg">
<path fill-rule="evenodd" clip-rule="evenodd" d="M30.155 9.57495C30.4338 10.9715 31.0763 12.2369 31.9794 13.2682L17.73 21.9314C17.3443 20.4862 16.564 19.2022 15.5117 18.2016L30.155 9.57495ZM15.6757 29.6378C16.6398 28.6673 17.3567 27.4508 17.724 26.0908L32.1962 34.4939C31.2706 35.4693 30.5882 36.6778 30.2463 38.0223L15.6757 29.6378Z" fill="black"/>
<path opacity="0.3" fill-rule="evenodd" clip-rule="evenodd" d="M38 14C41.3137 14 44 11.3137 44 8C44 4.68629 41.3137 2 38 2C34.6863 2 32 4.68629 32 8C32 11.3137 34.6863 14 38 14Z" fill="black"/>
<path opacity="0.3" fill-rule="evenodd" clip-rule="evenodd" d="M38 46C41.3137 46 44 43.3137 44 40C44 36.6863 41.3137 34 38 34C34.6863 34 32 36.6863 32 40C32 43.3137 34.6863 46 38 46Z" fill="black"/>
<path opacity="0.3" fill-rule="evenodd" clip-rule="evenodd" d="M10 30C13.3137 30 16 27.3137 16 24C16 20.6863 13.3137 18 10 18C6.68629 18 4 20.6863 4 24C4 27.3137 6.68629 30 10 30Z" fill="black"/>
</svg>
