<svg width="48" height="48" viewBox="0 0 48 48" fill="none" xmlns="http://www.w3.org/2000/svg">
<path opacity="0.3" d="M11.7143 4H28.0221C28.3768 4 28.72 4.12568 28.9908 4.35474L39.4687 13.2173C39.8057 13.5023 40 13.9212 40 14.3625V40.1667C40 43.7478 39.9591 44 36.2857 44H11.7143C8.0409 44 8 43.7478 8 40.1667V7.83333C8 4.25225 8.0409 4 11.7143 4Z" fill="black"/>
<path fill-rule="evenodd" clip-rule="evenodd" d="M16.4425 26.8076C16.1674 27.1325 16.3984 27.6307 16.8241 27.6307H21.8155V32.146C21.8155 32.4221 22.0394 32.646 22.3155 32.646H25.3621C25.6383 32.646 25.8621 32.4221 25.8621 32.146V27.6307H30.8536C31.2793 27.6307 31.5103 27.1325 31.2352 26.8076L24.2204 18.5225C24.0207 18.2866 23.657 18.2866 23.4572 18.5225L16.4425 26.8076Z" fill="black"/>
</svg>
