<svg width="48" height="48" viewBox="0 0 48 48" fill="none" xmlns="http://www.w3.org/2000/svg">
<path opacity="0.3" fill-rule="evenodd" clip-rule="evenodd" d="M4 40.5C4 41.3284 4.67157 42 5.5 42H42.5C43.3284 42 44 41.3284 44 40.5V15.5C44 14.6716 43.3284 14 42.5 14H20L14.4393 8.43934C14.158 8.15804 13.7765 8 13.3787 8H5.5C4.67157 8 4 8.67157 4 9.5V40.5Z" fill="black"/>
<path fill-rule="evenodd" clip-rule="evenodd" d="M15.5871 28.1487C15.2956 28.47 15.5236 28.9847 15.9574 28.9847H21.3322V33.5C21.3322 33.7761 21.5561 34 21.8322 34H25.1678C25.444 34 25.6678 33.7761 25.6678 33.5V28.9847H31.0427C31.4765 28.9847 31.7045 28.47 31.413 28.1487L23.8703 19.834C23.6719 19.6152 23.3281 19.6152 23.1297 19.834L15.5871 28.1487Z" fill="black"/>
</svg>
