<svg width="48" height="48" viewBox="0 0 48 48" fill="none" xmlns="http://www.w3.org/2000/svg">
<path opacity="0.3" d="M32 14V18H38C39.1046 18 40 18.8954 40 20V26C40 27.1046 39.1046 28 38 28H32V32H38C41.3137 32 44 29.3137 44 26V20C44 16.6863 41.3137 14 38 14H32Z" fill="black"/>
<path opacity="0.3" fill-rule="evenodd" clip-rule="evenodd" d="M24.4845 10C22.87 7.58803 20.1205 6 17 6C13.8796 6 11.1301 7.58803 9.51559 10H24.4845Z" fill="black"/>
<path opacity="0.3" fill-rule="evenodd" clip-rule="evenodd" d="M14 10H30C30 5.58172 26.4183 2 22 2C17.5817 2 14 5.58172 14 10Z" fill="black"/>
<path opacity="0.3" fill-rule="evenodd" clip-rule="evenodd" d="M24.1001 10H33.9C33.4367 7.71776 31.419 6 29 6C26.5811 6 24.5633 7.71776 24.1001 10Z" fill="black"/>
<path fill-rule="evenodd" clip-rule="evenodd" d="M7.12106 10C6.56878 10 6.12106 10.4477 6.12106 11V42C6.12106 43.1046 7.01649 44 8.12106 44H33.8789C34.9835 44 35.8789 43.1046 35.8789 42V11C35.8789 10.4477 35.4312 10 34.8789 10H7.12106ZM14 17C14 16.4477 14.4477 16 15 16H17C17.5523 16 18 16.4477 18 17V37C18 37.5523 17.5523 38 17 38H15C14.4477 38 14 37.5523 14 37V17ZM24 17C24 16.4477 24.4477 16 25 16H27C27.5523 16 28 16.4477 28 17V37C28 37.5523 27.5523 38 27 38H25C24.4477 38 24 37.5523 24 37V17Z" fill="black"/>
</svg>
