<svg width="48" height="48" viewBox="0 0 48 48" fill="none" xmlns="http://www.w3.org/2000/svg">
<path fill-rule="evenodd" clip-rule="evenodd" d="M16 36V45C16 45.5523 16.4477 46 17 46H31C31.5523 46 32 45.5523 32 45V20.4142C32 20.149 31.8946 19.8946 31.7071 19.7071L28.2929 16.2929C28.1054 16.1054 28 15.851 28 15.5858V9C28 8.44772 27.5523 8 27 8H21C20.4477 8 20 8.44772 20 9V15.5858C20 15.851 19.8946 16.1054 19.7071 16.2929L16.2929 19.7071C16.1054 19.8946 16 20.149 16 20.4142V26H24V36H16Z" fill="black"/>
<rect opacity="0.3" x="20" y="2" width="8" height="4" rx="1" fill="black"/>
</svg>
