<svg width="48" height="48" viewBox="0 0 48 48" fill="none" xmlns="http://www.w3.org/2000/svg">
<path opacity="0.3" fill-rule="evenodd" clip-rule="evenodd" d="M24 41.32L18.9288 41.2709L14.6361 38.5705L10.3965 35.7875L8.24519 31.195L6.18321 26.5617L6.85631 21.5351L7.62662 16.5225L10.9104 12.6578L14.2685 8.85744L19.1204 7.3816L24 6L28.8796 7.3816L33.7315 8.85744L37.0896 12.6578L40.3734 16.5225L41.1437 21.5351L41.8168 26.5617L39.7548 31.195L37.6035 35.7875L33.3639 38.5705L29.0712 41.2709L24 41.32Z" fill="black"/>
<path opacity="0.3" fill-rule="evenodd" clip-rule="evenodd" d="M17 30C18.6569 30 20 28.6569 20 27C20 25.3431 18.6569 24 17 24C15.3431 24 14 25.3431 14 27C14 28.6569 15.3431 30 17 30Z" fill="black"/>
<path opacity="0.3" fill-rule="evenodd" clip-rule="evenodd" d="M27 18C28.6569 18 30 16.6569 30 15C30 13.3431 28.6569 12 27 12C25.3431 12 24 13.3431 24 15C24 16.6569 25.3431 18 27 18Z" fill="black"/>
<path opacity="0.3" fill-rule="evenodd" clip-rule="evenodd" d="M29 34C30.6569 34 32 32.6569 32 31C32 29.3431 30.6569 28 29 28C27.3431 28 26 29.3431 26 31C26 32.6569 27.3431 34 29 34Z" fill="black"/>
</svg>
