<svg width="48" height="48" viewBox="0 0 48 48" fill="none" xmlns="http://www.w3.org/2000/svg">
<path opacity="0.3" fill-rule="evenodd" clip-rule="evenodd" d="M12.4779 18.3639C9.90351 15.7896 6.41455 14.6872 3.05694 15.0569C2.68997 18.3899 3.77344 21.8522 6.30736 24.4209C3.77344 26.9896 2.68997 30.4519 3.05694 33.7849C6.41455 34.1546 9.90351 33.0522 12.4779 30.4779C13.275 29.6807 13.9311 28.7958 14.4459 27.8543C14.8929 27.857 15.3401 27.8338 15.7849 27.7849C15.9081 26.6652 15.8677 25.531 15.6636 24.4209C15.8677 23.3108 15.9081 22.1766 15.7849 21.0569C15.3401 21.008 14.8929 20.9848 14.4459 20.9875C13.9311 20.046 13.275 19.1611 12.4779 18.3639Z" fill="black"/>
<path fill-rule="evenodd" clip-rule="evenodd" d="M46.8185 25.1905C42.4225 18.2986 35.6267 12 28 12C20.3733 12 13.5775 18.2986 9.1814 25.1905C13.5775 31.7014 20.3733 38 28 38C35.6267 38 42.4225 31.7014 46.8185 25.1905ZM42 24C42 25.1046 41.1046 26 40 26C38.8954 26 38 25.1046 38 24C38 22.8954 38.8954 22 40 22C41.1046 22 42 22.8954 42 24Z" fill="black"/>
</svg>
