<svg width="48" height="48" viewBox="0 0 48 48" fill="none" xmlns="http://www.w3.org/2000/svg">
<path fill-rule="evenodd" clip-rule="evenodd" d="M22.3909 12.3846C22.5883 12.5318 22.8164 12.6448 23.0688 12.7124L29.6061 14.464C30.6731 14.7499 31.7697 14.1168 32.0556 13.0498C32.3415 11.9829 31.7083 10.8862 30.6414 10.6003L26.4552 9.47864C32.9909 5.32375 38.9758 4.03475 41.6777 6.73664C45.583 10.6419 41.1508 21.4057 31.7782 30.7783C22.4056 40.1508 11.6418 44.583 7.73659 40.6778C5.25102 38.1922 6.14288 32.9283 9.53633 27.013C9.57958 27.0278 9.62363 27.0413 9.66844 27.0533L15.464 28.6062C16.5309 28.8921 17.6276 28.2589 17.9135 27.192C18.1994 26.125 17.5662 25.0284 16.4993 24.7425L11.8067 23.4851C12.7501 22.1611 13.8036 20.826 14.9582 19.5017C14.9938 19.5133 15.0299 19.5241 15.0665 19.5339L22.5351 21.5351C23.602 21.821 24.6987 21.1878 24.9846 20.1209C25.2704 19.054 24.6373 17.9573 23.5703 17.6714L18.0773 16.1996C19.4959 14.8106 20.9432 13.5351 22.3909 12.3846Z" fill="black"/>
</svg>
