<svg width="48" height="48" viewBox="0 0 48 48" fill="none" xmlns="http://www.w3.org/2000/svg">
<path opacity="0.3" d="M22 27H42V43C42 43.5523 41.5523 44 41 44H23C22.4477 44 22 43.5523 22 43V27Z" fill="black"/>
<path fill-rule="evenodd" clip-rule="evenodd" d="M20.8765 27.2972C22.2565 29.0223 24.7737 29.302 26.4988 27.9219C26.7294 27.7374 26.9389 27.5279 27.1234 27.2972L40.262 10.8741C41.297 9.5803 41.0872 7.69242 39.7934 6.65739C39.2615 6.23184 38.6006 6 37.9193 6H10.0806C8.42374 6 7.0806 7.34315 7.0806 9C7.0806 9.68121 7.31244 10.3421 7.73799 10.8741L20.8765 27.2972ZM16.9999 16.0246L12.1612 10H35.8387L30.9999 16.0246H16.9999Z" fill="black"/>
</svg>
