<svg width="48" height="48" viewBox="0 0 48 48" fill="none" xmlns="http://www.w3.org/2000/svg">
<path opacity="0.3" fill-rule="evenodd" clip-rule="evenodd" d="M23.0484 45.0492C23.2292 45.4298 23.7708 45.4298 23.9516 45.0492L33 26H14L23.0484 45.0492Z" fill="black"/>
<path fill-rule="evenodd" clip-rule="evenodd" d="M24 2C29.5228 2 34 6.47715 34 12H35H37.5C38.8807 12 40 13.1193 40 14.5V17V19.5C40 20.8807 38.8807 22 37.5 22H35H24H13H10.5C9.11929 22 8 20.8807 8 19.5V17V14.5C8 13.1193 9.11929 12 10.5 12H13H14C14 6.47715 18.4772 2 24 2Z" fill="black"/>
</svg>
