<svg width="48" height="48" viewBox="0 0 48 48" fill="none" xmlns="http://www.w3.org/2000/svg">
<path d="M4 28H44C44 37.9411 35.9411 46 26 46H22C12.0589 46 4 37.9411 4 28Z" fill="black"/>
<path opacity="0.3" fill-rule="evenodd" clip-rule="evenodd" d="M18.4875 24.8395C18.2114 25.3178 18.3752 25.9294 18.8535 26.2055L20.5041 27.1585C20.9824 27.4346 21.594 27.2708 21.8701 26.7925L22.4463 25.7946C22.4884 25.9224 22.5571 26.0437 22.653 26.1501L23.9283 27.5665C24.2978 27.9769 24.9301 28.0101 25.3405 27.6405L44.3174 10.5537C44.7278 10.1841 44.761 9.55183 44.3914 9.1414L43.1161 7.72503C42.7466 7.31461 42.1143 7.28147 41.7038 7.65102L23.4129 24.1202L34.6381 4.67773C34.9142 4.19944 34.7503 3.58785 34.272 3.3117L32.6215 2.35875C32.1432 2.08261 31.5316 2.24648 31.2555 2.72478L18.4875 24.8395Z" fill="black"/>
</svg>
