<svg width="48" height="48" viewBox="0 0 48 48" fill="none" xmlns="http://www.w3.org/2000/svg">
<path fill-rule="evenodd" clip-rule="evenodd" d="M6 24C6 33.9411 14.0589 42 24 42C33.9411 42 42 33.9411 42 24C42 14.0589 33.9411 6 24 6C14.0589 6 6 14.0589 6 24ZM38 24C38 31.732 31.732 38 24 38C16.268 38 10 31.732 10 24C10 16.268 16.268 10 24 10C31.732 10 38 16.268 38 24Z" fill="black"/>
<path opacity="0.3" fill-rule="evenodd" clip-rule="evenodd" d="M24 19.3333C22.6666 17.2903 22 15.7625 22 14.75C22 13.2312 22.8954 12 24 12C25.1045 12 26 13.2312 26 14.75C26 15.7625 25.3333 17.2903 24 19.3333ZM24 28C25.3333 30.043 26 31.5708 26 32.5833C26 34.1021 25.1045 35.3333 24 35.3333C22.8954 35.3333 22 34.1021 22 32.5833C22 31.5708 22.6666 30.043 24 28ZM28.6667 24C30.7097 22.6667 32.2375 22 33.25 22C34.7688 22 36 22.8954 36 24C36 25.1046 34.7688 26 33.25 26C32.2375 26 30.7097 25.3333 28.6667 24ZM20 24C17.957 25.3333 16.4292 26 15.4167 26C13.8979 26 12.6667 25.1046 12.6667 24C12.6667 22.8954 13.8979 22 15.4167 22C16.4292 22 17.957 22.6667 20 24ZM27.2998 20.7002C27.8016 18.3127 28.4105 16.761 29.1265 16.0451C30.2004 14.9711 31.7042 14.7337 32.4852 15.5147C33.2663 16.2958 33.0289 17.7995 31.9549 18.8735C31.239 19.5894 29.6872 20.1983 27.2998 20.7002ZM21.1716 26.8284C20.6697 29.2158 20.0608 30.7676 19.3449 31.4835C18.2709 32.5575 16.7672 32.7949 15.9861 32.0138C15.2051 31.2328 15.4425 29.729 16.5165 28.6551C17.2324 27.9391 18.7841 27.3302 21.1716 26.8284ZM27.2998 27.2998C29.6872 27.8017 31.239 28.4105 31.9549 29.1265C33.0289 30.2005 33.2663 31.7042 32.4852 32.4853C31.7042 33.2663 30.2004 33.0289 29.1265 31.9549C28.4105 31.239 27.8016 29.6873 27.2998 27.2998ZM21.1716 21.1716C18.7841 20.6698 17.2324 20.0609 16.5165 19.3449C15.4425 18.271 15.2051 16.7672 15.9861 15.9861C16.7672 15.2051 18.2709 15.4425 19.3449 16.5165C20.0608 17.2324 20.6697 18.7841 21.1716 21.1716Z" fill="black"/>
</svg>
