<svg width="48" height="48" viewBox="0 0 48 48" fill="none" xmlns="http://www.w3.org/2000/svg">
<path opacity="0.3" fill-rule="evenodd" clip-rule="evenodd" d="M42.0594 11.3318C36.8284 7.95791 30.598 6 23.9104 6C17.2228 6 10.9925 7.9579 5.76144 11.3318L23.9104 44L42.0594 11.3318Z" fill="black"/>
<path opacity="0.3" fill-rule="evenodd" clip-rule="evenodd" d="M19 22C20.6569 22 22 20.6569 22 19C22 17.3431 20.6569 16 19 16C17.3431 16 16 17.3431 16 19C16 20.6569 17.3431 22 19 22Z" fill="black"/>
<path opacity="0.3" fill-rule="evenodd" clip-rule="evenodd" d="M31 18C32.6569 18 34 16.6569 34 15C34 13.3431 32.6569 12 31 12C29.3431 12 28 13.3431 28 15C28 16.6569 29.3431 18 31 18Z" fill="black"/>
<path opacity="0.3" fill-rule="evenodd" clip-rule="evenodd" d="M25 34C26.6569 34 28 32.6569 28 31C28 29.3431 26.6569 28 25 28C23.3431 28 22 29.3431 22 31C22 32.6569 23.3431 34 25 34Z" fill="black"/>
</svg>
