<svg width="48" height="48" viewBox="0 0 48 48" fill="none" xmlns="http://www.w3.org/2000/svg">
<path fill-rule="evenodd" clip-rule="evenodd" d="M7 16C5.34315 16 4 17.3431 4 19V24H22V19C22 17.3431 20.6569 16 19 16H7ZM22 28H4V41C4 41.5523 4.44772 42 5 42H21C21.5523 42 22 41.5523 22 41V28Z" fill="black"/>
<path opacity="0.3" fill-rule="evenodd" clip-rule="evenodd" d="M9 6C8.44772 6 8 6.44772 8 7V11C8 11.5523 8.44772 12 9 12H17C17.5523 12 18 11.5523 18 11V7C18 6.44772 17.5523 6 17 6H9ZM31 6C30.4477 6 30 6.44772 30 7V11C30 11.5523 30.4477 12 31 12H39C39.5523 12 40 11.5523 40 11V7C40 6.44772 39.5523 6 39 6H31ZM26 19C26 17.3431 27.3431 16 29 16H41C42.6569 16 44 17.3431 44 19V24H26V19ZM26 28V41C26 41.5523 26.4477 42 27 42H43C43.5523 42 44 41.5523 44 41V28H26Z" fill="black"/>
</svg>
