<svg id="SECONDARY_LOGO" data-name="SECONDARY LOGO" xmlns="http://www.w3.org/2000/svg" viewBox="0 0 127.04 126.06"><defs><style>.cls-1{fill:#383e3f;}.cls-2{fill:#86c3d0;}</style></defs><title>GRAVITEE</title><g id="LOGORD"><circle class="cls-1" cx="64.84" cy="62.28" r="58.37"/><path class="cls-2" d="M90.57,62.69a.26.26,0,0,0-.26-.28L78.17,62a1,1,0,0,0-1.06,1.16c.37,2.58,1.19,8.52,1.16,8.55A15.6,15.6,0,0,1,58,74.44,13.64,13.64,0,0,1,53.55,70,15.6,15.6,0,0,1,66.47,45.86a16.52,16.52,0,0,1,10.34,3.79.6.6,0,0,0,1.06-.45l0-7.56c-.07-1.31-.25-1.54-.79-1.82a24.92,24.92,0,0,0-19.68-.45A22.12,22.12,0,0,0,44.87,51.93c-6.57,17,5.82,33.14,22,33.14A23.76,23.76,0,0,0,90.57,62.69Z"/><path class="cls-2" d="M27.18,33.49a25.75,25.75,0,0,1,5.67-.56,48,48,0,0,1,6.75.53,76,76,0,0,1,8.92,1.89c.42-.27.86-.53,1.3-.78a78.8,78.8,0,0,0-10.07-2.2c-10.53-1.53-17.73.2-20.26,4.88-1.49,2.75-1.23,6.3.65,10.37a4,4,0,0,0,2.47,7.05,4,4,0,0,0,1.74-.34c.66.84,1.36,1.69,2.12,2.56,1.79,2,6.18,6.29,8.42,8.31l-.11-1.6c-2.23-2-5.71-5.42-7.48-7.44-.72-.81-1.38-1.62-2-2.41a4,4,0,0,0-2.38-7.11,3.81,3.81,0,0,0-1.84.39c-.2-.43-.37-.86-.53-1.28-1.2-3.18-1.22-5.87-.08-8S23.86,34.22,27.18,33.49Z"/><path class="cls-2" d="M103.19,67.67a55,55,0,0,0-5-5.06l0,1.45a40.46,40.46,0,0,1,4.21,4.34,35.13,35.13,0,0,1,6.76,10.41c1.19,3.18,1.22,5.87.08,8s-3.41,3.55-6.73,4.29a35.27,35.27,0,0,1-12.41,0,57.12,57.12,0,0,1-8.31-1.7l-1.4.7a62.58,62.58,0,0,0,9.55,2.09,48.84,48.84,0,0,0,6.92.54c6.77,0,11.41-1.85,13.34-5.42C112.71,82.63,110.23,75.66,103.19,67.67Z"/></g></svg>