<svg width="48" height="48" viewBox="0 0 48 48" fill="none" xmlns="http://www.w3.org/2000/svg">
<path fill-rule="evenodd" clip-rule="evenodd" d="M6 7C6 5.34315 7.34315 4 9 4H39C40.6569 4 42 5.34315 42 7V41C42 42.6569 40.6569 44 39 44H9C7.34315 44 6 42.6569 6 41V7ZM24 22C21.7909 22 20 20.2091 20 18C20 15.7909 21.7909 14 24 14C26.2091 14 28 15.7909 28 18C28 20.2091 26.2091 22 24 22ZM23.9815 24C18.7355 24 14.4314 27.0331 14.0007 32.999C13.9773 33.324 14.5297 34 14.8083 34H33.163C33.9977 34 34.0107 33.2443 33.9977 33C33.6721 26.8665 29.3014 24 23.9815 24Z" fill="black"/>
</svg>
