<svg width="48" height="48" viewBox="0 0 48 48" fill="none" xmlns="http://www.w3.org/2000/svg">
<path opacity="0.3" fill-rule="evenodd" clip-rule="evenodd" d="M10 30L6 43L19 39L10 30Z" fill="black"/>
<path fill-rule="evenodd" clip-rule="evenodd" d="M27 42C37.4934 42 46 33.4934 46 23C46 12.5066 37.4934 4 27 4C16.5066 4 8 12.5066 8 23C8 33.4934 16.5066 42 27 42ZM16 17C16 16.4477 16.4477 16 17 16H37C37.5523 16 38 16.4477 38 17V19C38 19.5523 37.5523 20 37 20H17C16.4477 20 16 19.5523 16 19V17ZM17 24C16.4477 24 16 24.4477 16 25V27C16 27.5523 16.4477 28 17 28H29C29.5523 28 30 27.5523 30 27V25C30 24.4477 29.5523 24 29 24H17Z" fill="black"/>
</svg>
