<svg width="48" height="48" viewBox="0 0 48 48" fill="none" xmlns="http://www.w3.org/2000/svg">
<path opacity="0.3" fill-rule="evenodd" clip-rule="evenodd" d="M10 30L6 43L19 39L10 30Z" fill="black"/>
<path fill-rule="evenodd" clip-rule="evenodd" d="M46 23C46 33.4934 37.4934 42 27 42C16.5066 42 8 33.4934 8 23C8 12.5066 16.5066 4 27 4C37.4934 4 46 12.5066 46 23ZM21 20C20.4477 20 20 20.4477 20 21V29C20 29.5523 20.4477 30 21 30H33C33.5523 30 34 29.5523 34 29V21C34 20.4477 33.5523 20 33 20H32V16.5C32 15.1193 30.8807 14 29.5 14H24.5C23.1193 14 22 15.1193 22 16.5V20H21ZM25.5 16C24.6716 16 24 16.6716 24 17.5V20H30V17.5C30 16.6716 29.3284 16 28.5 16H25.5Z" fill="black"/>
</svg>
