<svg width="48" height="48" viewBox="0 0 48 48" fill="none" xmlns="http://www.w3.org/2000/svg">
<path fill-rule="evenodd" clip-rule="evenodd" d="M4 9C4 7.34315 5.34315 6 7 6H41C42.6569 6 44 7.34315 44 9V30.0196L44.0498 30V41.5858C44.0498 42.4767 42.9727 42.9229 42.3427 42.2929L36.0498 36H7C5.34315 36 4 34.6569 4 33V9ZM12.8906 18.3359C11.9715 18.9486 11.7232 20.1903 12.3359 21.1094C15.3551 25.6383 19.2913 28 24 28C28.7086 28 32.6448 25.6383 35.6641 21.1094C36.2768 20.1903 36.0284 18.9486 35.1094 18.3359C34.1903 17.7232 32.9486 17.9715 32.3359 18.8906C30.0218 22.3617 27.2913 24 24 24C20.7086 24 17.9782 22.3617 15.6641 18.8906C15.0514 17.9715 13.8096 17.7232 12.8906 18.3359Z" fill="black"/>
</svg>
