<svg width="48" height="48" viewBox="0 0 48 48" fill="none" xmlns="http://www.w3.org/2000/svg">
<path opacity="0.3" fill-rule="evenodd" clip-rule="evenodd" d="M24 44C35.0457 44 44 35.0457 44 24C44 12.9543 35.0457 4 24 4C12.9543 4 4 12.9543 4 24C4 35.0457 12.9543 44 24 44Z" fill="black"/>
<path opacity="0.3" fill-rule="evenodd" clip-rule="evenodd" d="M24 22C21.7909 22 20 20.2091 20 18C20 15.7909 21.7909 14 24 14C26.2091 14 28 15.7909 28 18C28 20.2091 26.2091 22 24 22ZM14.0007 32.999C14.4314 27.0331 18.7355 24 23.9815 24C29.3014 24 33.6721 26.8665 33.9977 33C34.0107 33.2443 33.9977 34 33.163 34H14.8083C14.5297 34 13.9773 33.324 14.0007 32.999Z" fill="black"/>
</svg>
