<svg width="48" height="48" viewBox="0 0 48 48" fill="none" xmlns="http://www.w3.org/2000/svg">
<path fill-rule="evenodd" clip-rule="evenodd" d="M45.192 37.1421C45.5076 37.4577 46.0471 37.2331 46.0456 36.7868L46.0079 26.2105V11.0526C46.0079 8.26214 43.7457 6 40.9552 6H17.3763C14.5858 6 12.3237 8.26214 12.3237 11.0526V18H29C30.6568 18 32 19.3431 32 21V31.2632H39.313L45.192 37.1421Z" fill="black"/>
<path opacity="0.3" fill-rule="evenodd" clip-rule="evenodd" d="M3.97015 36V26C3.97015 23.7909 5.76101 22 7.97015 22H23.9702C26.1793 22 27.9702 23.7909 27.9702 26V36C27.9702 38.2091 26.1793 40 23.9702 40H8.20161L4.86818 43.1905C4.55018 43.4949 4.02246 43.2695 4.02246 42.8293V36.6485C3.98805 36.4374 3.97015 36.2208 3.97015 36ZM12 28.5C12 28.2239 12.2238 28 12.5 28H23.5C23.7761 28 24 28.2239 24 28.5V29.5C24 29.7761 23.7761 30 23.5 30H12.5C12.2238 30 12 29.7761 12 29.5V28.5ZM18.5 32C18.2238 32 18 32.2239 18 32.5V33.5C18 33.7761 18.2238 34 18.5 34H23.5C23.7761 34 24 33.7761 24 33.5V32.5C24 32.2239 23.7761 32 23.5 32H18.5Z" fill="black"/>
</svg>
