<svg width="48" height="48" viewBox="0 0 48 48" fill="none" xmlns="http://www.w3.org/2000/svg">
<path fill-rule="evenodd" clip-rule="evenodd" d="M8 18C6.89543 18 6 18.8954 6 20V42C6 43.1046 6.89543 44 8 44H40C41.1046 44 42 43.1046 42 42V20C42 18.8954 41.1046 18 40 18H8ZM38.3207 22.2889C37.928 21.5594 37.0183 21.2865 36.2889 21.6793L24 28.2964L11.7112 21.6793C10.9818 21.2865 10.0721 21.5594 9.67932 22.2889C9.28656 23.0183 9.55947 23.9279 10.2889 24.3207L23.2889 31.3207C23.7328 31.5598 24.2672 31.5598 24.7112 31.3207L37.7112 24.3207C38.4406 23.9279 38.7135 23.0183 38.3207 22.2889Z" fill="black"/>
<path opacity="0.3" d="M31.2351 6.48448C31.5102 6.15955 31.2793 5.6614 30.8535 5.6614L25.8621 5.6614V1.14606C25.8621 0.869914 25.6382 0.646057 25.3621 0.646057L22.3155 0.646057C22.0393 0.646057 21.8155 0.869915 21.8155 1.14606V5.6614L16.8241 5.6614C16.3983 5.6614 16.1674 6.15955 16.4425 6.48448L23.4572 14.7696C23.6569 15.0055 24.0207 15.0055 24.2204 14.7696L31.2351 6.48448Z" fill="black"/>
</svg>
