<svg width="48" height="48" viewBox="0 0 48 48" fill="none" xmlns="http://www.w3.org/2000/svg">
<path opacity="0.3" d="M19.7209 12.0232C19.8815 11.8627 20.0919 11.7615 20.3176 11.7365C20.8665 11.6755 21.3609 12.071 21.4219 12.6199L22.4683 22.0376C22.4764 22.111 22.4764 22.1851 22.4683 22.2584C22.4073 22.8074 21.9129 23.2029 21.364 23.1419L11.9463 22.0955C11.7206 22.0704 11.5102 21.9693 11.3496 21.8087C10.9591 21.4182 10.9591 20.785 11.3496 20.3945L14.121 17.6231L11.1181 14.6202C10.7276 14.2296 10.7276 13.5965 11.1181 13.2059L12.5323 11.7917C12.9229 11.4012 13.556 11.4012 13.9465 11.7917L16.9495 14.7947L19.7209 12.0232Z" fill="black"/>
<path fill-rule="evenodd" clip-rule="evenodd" d="M24.1599 29.568L28.568 25.1599C29.7854 23.9425 30.0872 22.0826 29.3172 20.5427L29.0675 20.0431C28.2975 18.5032 28.5993 16.6433 29.8168 15.4259L35.2824 9.96025C35.6729 9.56973 36.3061 9.56973 36.6966 9.96025C36.7726 10.0363 36.8358 10.124 36.8839 10.2201L39.0918 14.636C40.781 18.0143 40.1189 22.0943 37.4481 24.765L25.4505 36.7627C22.5434 39.6698 18.2434 40.6849 14.3431 39.3848L9.51415 37.7751C8.99021 37.6005 8.70705 37.0342 8.8817 36.5102C8.93079 36.3629 9.0135 36.2291 9.12327 36.1193L14.4258 30.8168C15.6433 29.5994 17.5031 29.2975 19.0431 30.0675L19.5426 30.3173C21.0826 31.0873 22.9425 30.7854 24.1599 29.568Z" fill="black"/>
</svg>
