<svg width="48" height="48" viewBox="0 0 48 48" fill="none" xmlns="http://www.w3.org/2000/svg">
<path fill-rule="evenodd" clip-rule="evenodd" d="M44 34V42C44 44.2091 42.2091 46 40 46H8C5.79086 46 4 44.2091 4 42L4 34H12.5585L13.6468 37.2649C14.1912 38.8983 15.7198 40 17.4415 40H30.7639C32.279 40 33.6641 39.144 34.3416 37.7889L36.2361 34L44 34Z" fill="black"/>
<path opacity="0.3" fill-rule="evenodd" clip-rule="evenodd" d="M5.125 30L11.8531 18.039C12.5616 16.7794 13.8943 16 15.3394 16H32.6606C34.1057 16 35.4384 16.7794 36.1469 18.039L42.875 30H36.2361C34.721 30 33.3359 30.856 32.6584 32.2111L30.7639 36H17.4415L16.3532 32.7351C15.8088 31.1017 14.2802 30 12.5585 30H5.125Z" fill="black"/>
<path d="M31.2351 6.48445C31.5102 6.15952 31.2793 5.66137 30.8535 5.66137L25.8621 5.66137V1.14603C25.8621 0.869884 25.6382 0.646027 25.3621 0.646027L22.3155 0.646027C22.0393 0.646027 21.8155 0.869884 21.8155 1.14603V5.66137L16.8241 5.66137C16.3983 5.66137 16.1674 6.15952 16.4425 6.48445L23.4572 14.7696C23.6569 15.0055 24.0207 15.0055 24.2204 14.7696L31.2351 6.48445Z" fill="black"/>
</svg>
