<svg width="48" height="48" viewBox="0 0 48 48" fill="none" xmlns="http://www.w3.org/2000/svg">
<path opacity="0.3" fill-rule="evenodd" clip-rule="evenodd" d="M6 32V34H5C4.44772 34 4 34.4477 4 35V43C4 43.5523 4.44772 44 5 44H17C17.5523 44 18 43.5523 18 43V35C18 34.4477 17.5523 34 17 34H8V32C8 29.7909 6.20914 28 4 28C1.79086 28 0 29.7909 0 32H2C2 30.8954 2.89543 30 4 30C5.10457 30 6 30.8954 6 32Z" fill="black"/>
<path fill-rule="evenodd" clip-rule="evenodd" d="M8 12C8 10.8954 8.89543 10 10 10H42C43.1046 10 44 10.8954 44 12V34C44 35.1046 43.1046 36 42 36H25.9672C25.4526 28.182 18.9482 22 11 22C9.9726 22 8.96933 22.1033 8 22.3001V12ZM38.2889 13.6793C39.0183 13.2865 39.928 13.5594 40.3207 14.2889C40.7135 15.0183 40.4406 15.9279 39.7112 16.3207L26.7112 23.3207C26.2672 23.5598 25.7328 23.5598 25.2889 23.3207L12.2889 16.3207C11.5595 15.9279 11.2866 15.0183 11.6793 14.2889C12.0721 13.5594 12.9818 13.2865 13.7112 13.6793L26 20.2964L38.2889 13.6793Z" fill="black"/>
</svg>
