<svg width="48" height="48" viewBox="0 0 48 48" fill="none" xmlns="http://www.w3.org/2000/svg">
<path fill-rule="evenodd" clip-rule="evenodd" d="M8 12C8 10.8954 8.89543 10 10 10H42C43.1046 10 44 10.8954 44 12V34C44 35.1046 43.1046 36 42 36H25.9672C25.4526 28.182 18.9482 22 11 22C9.9726 22 8.96933 22.1033 8 22.3001V12ZM38.2889 13.6793C39.0183 13.2865 39.928 13.5594 40.3207 14.2889C40.7135 15.0183 40.4406 15.9279 39.7112 16.3207L26.7112 23.3207C26.2672 23.5598 25.7328 23.5598 25.2889 23.3207L12.2889 16.3207C11.5595 15.9279 11.2866 15.0183 11.6793 14.2889C12.0721 13.5594 12.9818 13.2865 13.7112 13.6793L26 20.2964L38.2889 13.6793Z" fill="black"/>
<path opacity="0.3" fill-rule="evenodd" clip-rule="evenodd" d="M6 30.5C6 29.1193 7.11929 28 8.5 28H13.5C14.8807 28 16 29.1193 16 30.5V34H17C17.5523 34 18 34.4477 18 35V43C18 43.5523 17.5523 44 17 44H5C4.44772 44 4 43.5523 4 43V35C4 34.4477 4.44772 34 5 34H6V30.5ZM9.5 30C8.67157 30 8 30.6716 8 31.5V34H14V31.5C14 30.6716 13.3284 30 12.5 30H9.5Z" fill="black"/>
</svg>
