<svg width="48" height="48" viewBox="0 0 48 48" fill="none" xmlns="http://www.w3.org/2000/svg">
<path fill-rule="evenodd" clip-rule="evenodd" d="M44 30V38C44 40.2091 42.2091 42 40 42H8C5.79086 42 4 40.2091 4 38L4 30H12.5585L13.6468 33.2649C14.1912 34.8983 15.7198 36 17.4415 36H30.7639C32.279 36 33.6641 35.144 34.3416 33.7889L36.2361 30L44 30Z" fill="black"/>
<path opacity="0.3" fill-rule="evenodd" clip-rule="evenodd" d="M5.125 26L11.8531 14.039C12.5616 12.7794 13.8943 12 15.3394 12L32.6606 12C34.1057 12 35.4384 12.7794 36.1469 14.039L42.875 26H36.2361C34.721 26 33.3359 26.856 32.6584 28.2111L30.7639 32H17.4415L16.3532 28.7351C15.8088 27.1017 14.2802 26 12.5585 26H5.125Z" fill="black"/>
</svg>
