<svg width="48" height="48" viewBox="0 0 48 48" fill="none" xmlns="http://www.w3.org/2000/svg">
<path opacity="0.3" fill-rule="evenodd" clip-rule="evenodd" d="M11 4C10.4477 4 10 4.44772 10 5V25C10 25.5523 10.4477 26 11 26H18.2857C18.1002 25.4447 18 24.8526 18 24.2381V19C18 16.975 19.7095 15.3333 21.8182 15.3333C23.9269 15.3333 25.6364 16.975 25.6364 19V22.6667H23.4545V19C23.4545 18.1321 22.7219 17.4286 21.8182 17.4286C20.9144 17.4286 20.1818 18.1321 20.1818 19V24.2381C20.1818 24.8767 20.3518 25.4771 20.6507 26H27.3493C27.6482 25.4771 27.8182 24.8767 27.8182 24.2381V13.7619C27.8182 11.7369 26.1087 10.0952 24 10.0952H23.4545C21.6471 10.0952 20.1818 11.5023 20.1818 13.2381H18C18 10.3452 20.4421 8 23.4545 8H24C27.3137 8 30 10.5797 30 13.7619V24.2381C30 24.8526 29.8998 25.4447 29.7143 26H37C37.5523 26 38 25.5523 38 25V5C38 4.44772 37.5523 4 37 4H11Z" fill="black"/>
<path fill-rule="evenodd" clip-rule="evenodd" d="M25.6364 22.6667H23.4545V19C23.4545 18.1321 22.7219 17.4286 21.8182 17.4286C20.9144 17.4286 20.1818 18.1321 20.1818 19V24.2381C20.1818 26.2631 21.8913 27.9048 24 27.9048C26.1087 27.9048 27.8182 26.2631 27.8182 24.2381V13.7619C27.8182 11.7369 26.1087 10.0952 24 10.0952H23.4545C21.6471 10.0952 20.1818 11.5023 20.1818 13.2381H18C18 10.3452 20.4421 8 23.4545 8H24C27.3137 8 30 10.5797 30 13.7619V24.2381C30 27.4203 27.3137 30 24 30C20.6863 30 18 27.4203 18 24.2381L18 19C18 16.975 19.7095 15.3333 21.8182 15.3333C23.9269 15.3333 25.6364 16.975 25.6364 19V22.6667Z" fill="black"/>
</svg>
