<svg width="48" height="48" viewBox="0 0 48 48" fill="none" xmlns="http://www.w3.org/2000/svg">
<path fill-rule="evenodd" clip-rule="evenodd" d="M8 12C8 10.8954 8.89543 10 10 10H42C43.1046 10 44 10.8954 44 12V34C44 35.1046 43.1046 36 42 36H25.9672C25.4526 28.182 18.9482 22 11 22C9.9726 22 8.96933 22.1033 8 22.3001V12ZM38.2889 13.6793C39.0183 13.2865 39.928 13.5594 40.3207 14.2889C40.7135 15.0183 40.4406 15.9279 39.7112 16.3207L26.7112 23.3207C26.2672 23.5598 25.7328 23.5598 25.2889 23.3207L12.2889 16.3207C11.5595 15.9279 11.2866 15.0183 11.6793 14.2889C12.0721 13.5594 12.9818 13.2865 13.7112 13.6793L26 20.2964L38.2889 13.6793Z" fill="black"/>
<path opacity="0.3" fill-rule="evenodd" clip-rule="evenodd" d="M12 28C11.4477 28 11 28.4477 11 29V35C11 35.5523 11.4477 36 12 36H14C14.5523 36 15 35.5523 15 35V29C15 28.4477 14.5523 28 14 28H12ZM15 40C15 41.1046 14.1046 42 13 42C11.8954 42 11 41.1046 11 40C11 38.8954 11.8954 38 13 38C14.1046 38 15 38.8954 15 40Z" fill="black"/>
</svg>
