<svg width="48" height="49" viewBox="0 0 48 49" fill="none" xmlns="http://www.w3.org/2000/svg">
<path fill-rule="evenodd" clip-rule="evenodd" d="M8 19C6.89543 19 6 19.8954 6 21V43C6 44.1046 6.89543 45 8 45H40C41.1046 45 42 44.1046 42 43V21C42 19.8954 41.1046 19 40 19H8ZM38.3207 23.2889C37.928 22.5594 37.0183 22.2865 36.2889 22.6793L24 29.2964L11.7112 22.6793C10.9818 22.2865 10.0721 22.5594 9.67932 23.2889C9.28656 24.0183 9.55947 24.9279 10.2889 25.3207L23.2889 32.3207C23.7328 32.5598 24.2672 32.5598 24.7112 32.3207L37.7112 25.3207C38.4406 24.9279 38.7135 24.0183 38.3207 23.2889Z" fill="black"/>
<path opacity="0.3" d="M16.6037 9.16157C16.3286 9.4865 16.5595 9.98466 16.9853 9.98466H21.9767V14.5C21.9767 14.7761 22.2006 15 22.4767 15H25.5233C25.7995 15 26.0233 14.7761 26.0233 14.5V9.98466H31.0147C31.4405 9.98466 31.6714 9.4865 31.3963 9.16157L24.3816 0.87646C24.1819 0.640574 23.8181 0.640574 23.6184 0.87646L16.6037 9.16157Z" fill="black"/>
</svg>
