<svg width="48" height="48" viewBox="0 0 48 48" fill="none" xmlns="http://www.w3.org/2000/svg">
<path opacity="0.3" d="M19.1 7.69306C19.1 7.04232 18.328 6.70035 17.8461 7.13759L1.706 21.7803C1.38018 22.0759 1.37756 22.5871 1.70032 22.886L17.8404 37.8335C18.3205 38.2781 19.1 37.9376 19.1 37.2832V7.69306Z" fill="black"/>
<path d="M46.5903 35.582C46.5903 33.9414 46.9418 27.4668 41.8344 22.3301C38.3969 18.873 33.2524 18.2734 27.1 18V7.69308C27.1 7.04233 26.3281 6.70036 25.8461 7.13761L9.70603 21.7803C9.38022 22.0759 9.3776 22.5871 9.70036 22.886L25.8404 37.8335C26.3206 38.2781 27.1 37.9376 27.1 37.2832V27C31.0063 27.1074 33.7888 27.3559 36.3168 28.1602C41.2745 29.7374 44.1869 36.5766 44.9173 38.4969C45.0321 38.7986 45.3178 39 45.6406 39H45.85C46.2643 39 46.5999 38.6644 46.5987 38.2502C46.5961 37.3369 46.5903 36.2529 46.5903 35.582Z" fill="black"/>
</svg>
