<svg width="48" height="48" viewBox="0 0 48 48" fill="none" xmlns="http://www.w3.org/2000/svg">
<path opacity="0.3" fill-rule="evenodd" clip-rule="evenodd" d="M6 30.5C6 29.1193 7.11929 28 8.5 28H13.5C14.8807 28 16 29.1193 16 30.5V34H17C17.5523 34 18 34.4477 18 35V43C18 43.5523 17.5523 44 17 44H5C4.44772 44 4 43.5523 4 43V35C4 34.4477 4.44772 34 5 34H6V30.5ZM9.5 30C8.67157 30 8 30.6716 8 31.5V34H14V31.5C14 30.6716 13.3284 30 12.5 30H9.5Z" fill="black"/>
<path fill-rule="evenodd" clip-rule="evenodd" d="M7 6C5.34315 6 4 7.34315 4 9V23.7301C6.08972 22.6255 8.47182 22 11 22C18.9482 22 25.4526 28.182 25.9672 36H36.0498L42.3427 42.2929C42.9727 42.9229 44.0498 42.4767 44.0498 41.5858V30L44 30.0196V9C44 7.34315 42.6569 6 41 6H7ZM11 14C10.4477 14 10 14.4477 10 15V17C10 17.5523 10.4477 18 11 18H31C31.5523 18 32 17.5523 32 17V15C32 14.4477 31.5523 14 31 14H11Z" fill="black"/>
</svg>
