<svg width="48" height="48" viewBox="0 0 48 48" fill="none" xmlns="http://www.w3.org/2000/svg">
<path opacity="0.3" fill-rule="evenodd" clip-rule="evenodd" d="M5.5 12C4.67157 12 4 12.6716 4 13.5V14.5C4 15.3284 4.67157 16 5.5 16H10.5C11.3284 16 12 15.3284 12 14.5V13.5C12 12.6716 11.3284 12 10.5 12H5.5ZM0 23.5C0 22.6716 0.671573 22 1.5 22H10.5C11.3284 22 12 22.6716 12 23.5V24.5C12 25.3284 11.3284 26 10.5 26H1.5C0.671573 26 0 25.3284 0 24.5V23.5ZM6 33.5C6 32.6716 6.67157 32 7.5 32H10.5C11.3284 32 12 32.6716 12 33.5V34.5C12 35.3284 11.3284 36 10.5 36H7.5C6.67157 36 6 35.3284 6 34.5V33.5Z" fill="black"/>
<path fill-rule="evenodd" clip-rule="evenodd" d="M18 12C16.8954 12 16 12.8954 16 14V34C16 35.1046 16.8954 36 18 36H46C47.1046 36 48 35.1046 48 34V14C48 12.8954 47.1046 12 46 12H18ZM43.8514 16.6313C43.5263 16.0478 42.7735 15.8295 42.1699 16.1437L32 21.4372L21.8301 16.1437C21.2265 15.8295 20.4737 16.0478 20.1486 16.6313C19.8236 17.2148 20.0494 17.9425 20.6531 18.2567L31.4115 23.8566C31.7789 24.0478 32.2211 24.0478 32.5885 23.8566L43.3469 18.2567C43.9506 17.9425 44.1764 17.2148 43.8514 16.6313Z" fill="black"/>
</svg>
