<svg width="48" height="48" viewBox="0 0 48 48" fill="none" xmlns="http://www.w3.org/2000/svg">
<path fill-rule="evenodd" clip-rule="evenodd" d="M16 10.7703C16 10.4075 16.3743 10.1655 16.7052 10.3144L46.1043 23.544C46.4974 23.7209 46.4974 24.279 46.1043 24.4559L16.7052 37.6856C16.3743 37.8344 16 37.5924 16 37.2296V26.3338L40.8941 24L16 21.6662V10.7703Z" fill="black"/>
<path opacity="0.3" fill-rule="evenodd" clip-rule="evenodd" d="M7.5 12C6.67157 12 6 12.6716 6 13.5V14.5C6 15.3284 6.67157 16 7.5 16H10.5C11.3284 16 12 15.3284 12 14.5V13.5C12 12.6716 11.3284 12 10.5 12H7.5ZM0 23.5C0 22.6716 0.671573 22 1.5 22H10.5C11.3284 22 12 22.6716 12 23.5V24.5C12 25.3284 11.3284 26 10.5 26H1.5C0.671573 26 0 25.3284 0 24.5V23.5ZM6 33.5C6 32.6716 6.67157 32 7.5 32H10.5C11.3284 32 12 32.6716 12 33.5V34.5C12 35.3284 11.3284 36 10.5 36H7.5C6.67157 36 6 35.3284 6 34.5V33.5Z" fill="black"/>
</svg>
