<svg width="49" height="48" viewBox="0 0 49 48" fill="none" xmlns="http://www.w3.org/2000/svg">
<path opacity="0.3" d="M21.8 4C22.9046 4 23.8 4.89543 23.8 6C23.8 7.10457 22.9046 8 21.8 8H12C9.79086 8 8 9.79086 8 12V36C8 38.2091 9.79086 40 12 40H36C38.2091 40 40 38.2091 40 36V32C40 30.8954 40.8954 30 42 30C43.1046 30 44 30.8954 44 32V36C44 40.4183 40.4183 44 36 44H12C7.58172 44 4 40.4183 4 36V12C4 7.58172 7.58172 4 12 4H21.8Z" fill="black"/>
<path d="M14.009 27.7947C14.009 26.2693 13.6822 20.2492 18.431 15.4732C21.6271 12.2589 26.4104 11.7014 32.1308 11.4471V1.98275C32.1308 1.332 32.9028 0.990033 33.3848 1.42728L48.261 14.9234C48.5868 15.219 48.5894 15.7302 48.2667 16.0291L33.3904 29.8061C32.9103 30.2508 32.1308 29.9103 32.1308 29.2559V19.8152C28.4988 19.9151 25.9117 20.1461 23.5612 20.8939C18.9825 22.3506 16.2801 28.6343 15.5785 30.4683C15.4632 30.7698 15.1769 30.9727 14.8541 30.9727H14.75C14.3357 30.9727 14.0001 30.637 14.0013 30.2228C14.0038 29.385 14.009 28.4056 14.009 27.7947Z" fill="black"/>
</svg>
