<svg width="48" height="48" viewBox="0 0 48 48" fill="none" xmlns="http://www.w3.org/2000/svg">
<path fill-rule="evenodd" clip-rule="evenodd" d="M5 6C4.44772 6 4 6.44772 4 7V23C4 23.5523 4.44771 24 5 24H43C43.5523 24 44 23.5523 44 23V7C44 6.44772 43.5523 6 43 6H5ZM9 16C8.44772 16 8 16.4477 8 17V19C8 19.5523 8.44772 20 9 20H39C39.5523 20 40 19.5523 40 19V17C40 16.4477 39.5523 16 39 16H9Z" fill="black"/>
<path opacity="0.3" fill-rule="evenodd" clip-rule="evenodd" d="M13.4171 31.4112L10.5828 28.5886C6.92921 32.2574 6.94152 38.1934 10.6103 41.847C10.9245 42.1599 11.2605 42.4501 11.6157 42.7154L12.8032 43.6023L15.1968 40.3975L14.0093 39.5106C13.8056 39.3585 13.613 39.1921 13.4329 39.0127C11.3294 36.918 11.3224 33.5146 13.4171 31.4112ZM34.5828 28.5886L37.4171 31.4112C35.3224 33.5146 35.3294 36.918 37.4329 39.0127C37.613 39.1921 37.8056 39.3585 38.0093 39.5106L39.1968 40.3975L36.8032 43.6023L35.6157 42.7154C35.2605 42.4501 34.9245 42.1599 34.6103 41.847C30.9415 38.1934 30.9292 32.2574 34.5828 28.5886ZM22.5828 30.5886L25.4171 33.4112C23.3224 35.5146 23.3294 38.918 25.4329 41.0127C25.613 41.1921 25.8056 41.3585 26.0093 41.5106L27.1968 42.3975L24.8032 45.6023L23.6157 44.7154C23.2605 44.4501 22.9245 44.1599 22.6103 43.847C18.9415 40.1934 18.9292 34.2574 22.5828 30.5886Z" fill="black"/>
</svg>
