<svg width="48" height="48" viewBox="0 0 48 48" fill="none" xmlns="http://www.w3.org/2000/svg">
<path fill-rule="evenodd" clip-rule="evenodd" d="M11.9061 6.03283C11.954 6.03283 12.0018 6.03389 12.0495 6.03601C12.2011 5.99033 20.6411 5.98811 37.3692 6.02934C37.55 6.02979 37.7299 6.05475 37.904 6.10354C38.9676 6.40162 39.5882 7.50546 39.2901 8.56904L38.889 10H29C28.4477 10 28 10.4477 28 11V13C28 13.5523 28.4477 14 29 14H37.768L36.6469 18H29C28.4477 18 28 18.4477 28 19V21C28 21.5523 28.4477 22 29 22H35.5259L34.4049 26H29C28.4477 26 28 26.4477 28 27V29C28 29.5523 28.4477 30 29 30H33.2838L32.0023 34.5726C31.7603 35.436 30.9732 36.0328 30.0765 36.0328L15.9374 36.0328C14 36.0328 11.9374 27.4069 11.9374 27.4069C9.64349 25.8968 6 21.8223 6 17.0328C6 10.9577 8.64425 6.03283 11.9061 6.03283ZM12.8905 10.0328C10.9218 11.0328 9.93745 12.297 9.93745 16.0328C9.93745 20.1924 12.4468 22.0328 12.8905 22.0328V10.0328Z" fill="black"/>
<path opacity="0.3" fill-rule="evenodd" clip-rule="evenodd" d="M10 38C8.89543 38 8 38.8954 8 40V45.5C8 45.7761 8.22386 46 8.5 46H35.5C35.7761 46 36 45.7761 36 45.5V40C36 38.8954 35.1046 38 34 38H10ZM24 42C24 43.1046 23.1046 44 22 44C20.8954 44 20 43.1046 20 42C20 40.8954 20.8954 40 22 40C23.1046 40 24 40.8954 24 42Z" fill="black"/>
</svg>
