<svg width="48" height="48" viewBox="0 0 48 48" fill="none" xmlns="http://www.w3.org/2000/svg">
<path fill-rule="evenodd" clip-rule="evenodd" d="M36.0001 3.99993C39.3138 3.99993 42.0001 8.9248 42.0001 14.9999C42.0001 19.7894 40.3304 23.8639 38 25.374L38.0001 37.9999H12.0001V18.4141C12.0001 18.1489 11.8947 17.8946 11.7072 17.707L8.74633 14.7462C8.33908 14.2907 8.37621 13.6586 8.78901 13.2916C13.8534 8.78928 17.9237 6.02537 21.0001 4.99993C23.8322 4.05589 35.6114 3.93109 35.8544 4.00311C35.9028 4.00099 35.9514 3.99993 36.0001 3.99993ZM35 22C35.4507 22 38 18.1596 38 14C38 10.2642 37 8.99997 35 7.99997C35 7.99997 35 24 35 22ZM22 30H24C25.1046 30 26 29.1045 26 28C26 26.8954 25.1046 26 24 26H22V24H24C25.1046 24 26 23.1045 26 22C26 20.8954 25.1046 20 24 20H22V18H24C25.1046 18 26 17.1045 26 16C26 14.8954 25.1046 14 24 14H22C22 11.7908 23.7909 9.99997 26 9.99997C28.2091 9.99997 30 11.7908 30 14V30C30 32.2091 28.2091 34 26 34C23.7909 34 22 32.2091 22 30Z" fill="black"/>
<path opacity="0.3" d="M10 41C10 40.4477 10.4477 40 11 40H39C39.5523 40 40 40.4477 40 41V44H10V41Z" fill="black"/>
</svg>
