<svg width="48" height="48" viewBox="0 0 48 48" fill="none" xmlns="http://www.w3.org/2000/svg">
<path fill-rule="evenodd" clip-rule="evenodd" d="M9 8C8.44772 8 8 8.44772 8 9V39C8 39.5523 8.44772 40 9 40H39C39.5523 40 40 39.5523 40 39V9C40 8.44772 39.5523 8 39 8H9ZM17.5 14C16.6716 14 16 14.6716 16 15.5V22.5C16 23.3284 16.6716 24 17.5 24H18.5C19.3284 24 20 23.3284 20 22.5V15.5C20 14.6716 19.3284 14 18.5 14H17.5ZM21 33C21 31.3431 22.3431 30 24 30C25.6569 30 27 31.3431 27 33V36H21V33ZM29.5 14C28.6716 14 28 14.6716 28 15.5V22.5C28 23.3284 28.6716 24 29.5 24H30.5C31.3284 24 32 23.3284 32 22.5V15.5C32 14.6716 31.3284 14 30.5 14H29.5Z" fill="black"/>
</svg>
