<svg width="48" height="48" viewBox="0 0 48 48" fill="none" xmlns="http://www.w3.org/2000/svg">
<path opacity="0.3" fill-rule="evenodd" clip-rule="evenodd" d="M36.6 6H14.9C12.1938 6 10 8.35051 10 11.25V36.75C10 39.6495 12.1938 42 14.9 42H36.6C37.3732 42 38 41.3284 38 40.5V14H17.5C16.6716 14 16 13.3284 16 12.5V11.5C16 10.6716 16.6716 10 17.5 10H38V7.5C38 6.67157 37.3732 6 36.6 6Z" fill="black"/>
<mask id="mask0" mask-type="alpha" maskUnits="userSpaceOnUse" x="10" y="6" width="28" height="36">
<path fill-rule="evenodd" clip-rule="evenodd" d="M36.6 6H14.9C12.1938 6 10 8.35051 10 11.25V36.75C10 39.6495 12.1938 42 14.9 42H36.6C37.3732 42 38 41.3284 38 40.5V14H17.5C16.6716 14 16 13.3284 16 12.5V11.5C16 10.6716 16.6716 10 17.5 10H38V7.5C38 6.67157 37.3732 6 36.6 6Z" fill="white"/>
</mask>
<g mask="url(#mask0)">
<path fill-rule="evenodd" clip-rule="evenodd" d="M21.6667 38C19.6416 38 18 36.632 18 34.9444C18 33.2569 19.6416 31.8889 21.6667 31.8889C22.0952 31.8889 22.5066 31.9502 22.8889 32.0628V23.5832C22.8889 22.9565 23.2797 22.4025 23.8538 22.2155L30.8815 20.0662C31.7669 19.7779 32.6667 20.4672 32.6667 21.4339V23.5832C32.6667 24.2996 31.9959 24.7572 31.4444 24.8889C30.6511 25.0784 28.614 25.4858 25.3333 26.1111V35.007C25.3333 35.1168 25.3244 35.2184 25.3071 35.312C25.0892 36.8262 23.5424 38 21.6667 38Z" fill="black"/>
</g>
</svg>
