<svg width="48" height="48" viewBox="0 0 48 48" fill="none" xmlns="http://www.w3.org/2000/svg">
<path opacity="0.3" fill-rule="evenodd" clip-rule="evenodd" d="M42 24C42 33.9411 33.9411 42 24 42C14.0589 42 6 33.9411 6 24C6 14.0589 14.0589 6 24 6C33.9411 6 42 14.0589 42 24ZM25.5505 24.5858C25.5505 25.6904 24.6551 26.5858 23.5505 26.5858C22.446 26.5858 21.5505 25.6904 21.5505 24.5858C21.5505 23.4812 22.446 22.5858 23.5505 22.5858C24.6551 22.5858 25.5505 23.4812 25.5505 24.5858ZM22.4471 18.2045C24.5809 17.6327 25.8473 15.4393 25.2755 13.3055C24.7037 11.1716 22.5104 9.90528 20.3765 10.477C18.2427 11.0488 16.9763 13.2422 17.5481 15.376C18.1199 17.5099 20.3132 18.7762 22.4471 18.2045ZM30.4519 32.624C31.0237 34.7578 29.7573 36.9512 27.6235 37.523C25.4896 38.0947 23.2963 36.8284 22.7245 34.6945C22.1527 32.5607 23.419 30.3673 25.5529 29.7955C27.6868 29.2238 29.8801 30.4901 30.4519 32.624ZM15.376 30.4519C17.5099 29.8801 18.7762 27.6868 18.2044 25.5529C17.6327 23.4191 15.4393 22.1527 13.3055 22.7245C11.1716 23.2963 9.90528 25.4896 10.477 27.6235C11.0488 29.7573 13.2422 31.0237 15.376 30.4519ZM37.5229 20.3765C38.0947 22.5104 36.8284 24.7037 34.6945 25.2755C32.5607 25.8473 30.3673 24.5809 29.7955 22.4471C29.2238 20.3132 30.4901 18.1199 32.624 17.5481C34.7578 16.9763 36.9512 18.2427 37.5229 20.3765Z" fill="black"/>
<path fill-rule="evenodd" clip-rule="evenodd" d="M35.3147 38C32.2232 40.5016 28.2866 42 24 42C23.5622 42 23.1281 41.9844 22.6982 41.9536C22.7934 41.9838 22.8948 42 23 42H24H43C43.5523 42 44 41.5523 44 41V39C44 38.4477 43.5523 38 43 38H35.3147Z" fill="black"/>
</svg>
