<svg width="48" height="48" viewBox="0 0 48 48" fill="none" xmlns="http://www.w3.org/2000/svg">
<path opacity="0.3" fill-rule="evenodd" clip-rule="evenodd" d="M29.8595 18C27.093 13.2176 21.9223 10 16 10C7.16344 10 0 17.1634 0 26C0 31.6745 2.95398 36.659 7.40807 39.4997C8.60985 41.0226 10.472 42 12.5625 42H16H41.4375C45.0619 42 48 39.0619 48 35.4375V24.5625C48 20.9381 45.0619 18 41.4375 18H29.8595Z" fill="black"/>
<path fill-rule="evenodd" clip-rule="evenodd" d="M21.1667 37C19.4178 37 18 35.784 18 34.284C18 32.7839 19.4178 31.5679 21.1667 31.5679C21.5368 31.5679 21.8921 31.6224 22.2222 31.7224V24.1851C22.2222 23.628 22.5598 23.1355 23.0555 22.9694L29.125 21.0589C29.8896 20.8026 30.6667 21.4153 30.6667 22.2746V24.1851C30.6667 24.8219 30.0873 25.2286 29.6111 25.3457C28.9259 25.5141 27.1667 25.8762 24.3333 26.4321V34.3396C24.3333 34.4371 24.3256 34.5274 24.3107 34.6106C24.1225 35.9566 22.7867 37 21.1667 37Z" fill="black"/>
</svg>
