<svg width="48" height="48" viewBox="0 0 48 48" fill="none" xmlns="http://www.w3.org/2000/svg">
<path fill-rule="evenodd" clip-rule="evenodd" d="M20 38V19.7501L34 16.0001V30.08C33.6769 30.0276 33.3425 30 33 30C30.2386 30 28 31.7909 28 34C28 35.007 28.4651 35.927 29.2328 36.6302C30.1494 37.4697 31.4973 38 33 38C35.7614 38 38 36.2092 38 34V11.0001C38 9.65077 36.6913 8.68864 35.4035 9.09109L17.4035 14.0911C16.5685 14.352 16 15.1253 16 16.0001V34.08C15.6769 34.0276 15.3425 34 15 34C12.2386 34 10 35.7909 10 38C10 40.2092 12.2386 42 15 42C17.0933 42 18.8861 40.971 19.6311 39.5107C19.8689 39.0446 20 38.5346 20 38Z" fill="black"/>
</svg>
