<svg width="48" height="48" viewBox="0 0 48 48" fill="none" xmlns="http://www.w3.org/2000/svg">
<path fill-rule="evenodd" clip-rule="evenodd" d="M17.957 37.6014C17.9854 37.4482 18 37.282 18 37.1024V37V16C18 16 26.0526 14.4651 28 14C28.9023 13.7845 30 13.0358 30 11.8634V8.34635C30 6.76451 28.5277 5.63654 27.0789 6.10837L15.5789 9.62544C14.6396 9.93133 14 10.8379 14 11.8634V32.2845C13.3744 32.1003 12.7013 32 12 32C8.68629 32 6 34.2386 6 37C6 39.7614 8.68629 42 12 42C15.0695 42 17.6006 40.0793 17.957 37.6014Z" fill="black"/>
<path opacity="0.3" fill-rule="evenodd" clip-rule="evenodd" d="M30 19C30 18.4477 30.4477 18 31 18H41C41.5523 18 42 18.4477 42 19V21C42 21.5523 41.5523 22 41 22H31C30.4477 22 30 21.5523 30 21V19ZM26 27C26 26.4477 26.4477 26 27 26H41C41.5523 26 42 26.4477 42 27V29C42 29.5523 41.5523 30 41 30H27C26.4477 30 26 29.5523 26 29V27ZM27 34C26.4477 34 26 34.4477 26 35V37C26 37.5523 26.4477 38 27 38H41C41.5523 38 42 37.5523 42 37V35C42 34.4477 41.5523 34 41 34H27Z" fill="black"/>
</svg>
