<svg width="48" height="48" viewBox="0 0 48 48" fill="none" xmlns="http://www.w3.org/2000/svg">
<path opacity="0.3" fill-rule="evenodd" clip-rule="evenodd" d="M20 11.5C20 10.6716 20.6716 10 21.5 10H38.5C39.3284 10 40 10.6716 40 11.5V14.5C40 15.3284 39.3284 16 38.5 16H21.5C20.6716 16 20 15.3284 20 14.5V11.5ZM8 35.5C8 34.6716 8.67157 34 9.5 34H38.5C39.3284 34 40 34.6716 40 35.5V38.5C40 39.3284 39.3284 40 38.5 40H9.5C8.67157 40 8 39.3284 8 38.5V35.5ZM9.5 22C8.67157 22 8 22.6716 8 23.5V26.5C8 27.3284 8.67157 28 9.5 28H38.5C39.3284 28 40 27.3284 40 26.5V23.5C40 22.6716 39.3284 22 38.5 22H9.5Z" fill="black"/>
<path fill-rule="evenodd" clip-rule="evenodd" d="M8 19.1611C8 19.5903 8.50521 19.82 8.82867 19.5379L15.8373 13.4246C16.0653 13.2257 16.0659 12.8716 15.8385 12.672L8.82984 6.52013C8.50671 6.23651 8 6.46596 8 6.89591V19.1611Z" fill="black"/>
</svg>
