<svg width="48" height="48" viewBox="0 0 48 48" fill="none" xmlns="http://www.w3.org/2000/svg">
<path opacity="0.3" fill-rule="evenodd" clip-rule="evenodd" d="M39.3029 27.271C41.0728 26.6504 42.6678 25.6577 43.9939 24.3867C43.7897 30.8352 38.498 36 32 36H24.1166V38.9589C24.1166 39.3698 23.6485 39.6053 23.3186 39.3604L16.2673 34.1267C15.9985 33.9271 15.9979 33.5249 16.2661 33.3246L23.3174 28.0579C23.6471 27.8116 24.1166 28.0469 24.1166 28.4585V32H32C35.253 32 38.0525 30.0585 39.3029 27.271Z" fill="black"/>
<path fill-rule="evenodd" clip-rule="evenodd" d="M34 24C39.5228 24 44 19.5228 44 14C44 8.47715 39.5228 4 34 4C29.1621 4 25.1266 7.43552 24.2 12H16C9.37258 12 4 17.3726 4 24V26C4 31.5228 8.47715 36 14 36V32C10.6863 32 8 29.3137 8 26V24C8 19.5817 11.5817 16 16 16H24.2C25.1266 20.5645 29.1621 24 34 24ZM31.22 13.176L33.46 11.336V19H35.38V9H33.636L30.1 11.848L31.22 13.176Z" fill="black"/>
</svg>
