<svg width="48" height="48" viewBox="0 0 48 48" fill="none" xmlns="http://www.w3.org/2000/svg">
<path opacity="0.3" fill-rule="evenodd" clip-rule="evenodd" d="M4 12V16H9.10916C11.5779 16 13.9083 17.1398 15.424 19.0885L23.4186 29.3673C25.6921 32.2903 29.1878 34 32.8908 34H36V38.3268C36 38.756 36.5052 38.9857 36.8287 38.7036L43.9579 32.4851C44.1859 32.2863 44.1864 31.9321 43.9591 31.7326L36.8298 25.4749C36.5067 25.1913 36 25.4207 36 25.8507V30H32.8908C30.4221 30 28.0917 28.8602 26.576 26.9115L18.5814 16.6327C16.3079 13.7097 12.8122 12 9.10916 12H4Z" fill="black"/>
<path fill-rule="evenodd" clip-rule="evenodd" d="M36.8287 20.7036C36.5052 20.9857 36 20.756 36 20.3268V16H32.8908C30.4221 16 28.0917 17.1398 26.576 19.0885L18.5814 29.3673C16.3079 32.2903 12.8122 34 9.10916 34H4V30H9.10916C11.5779 30 13.9083 28.8602 15.424 26.9115L23.4186 16.6327C25.6921 13.7097 29.1878 12 32.8908 12H36V7.85064C36 7.4207 36.5067 7.19124 36.8298 7.47487L43.9591 13.7325C44.1864 13.9321 44.1859 14.2863 43.9579 14.4851L36.8287 20.7036Z" fill="black"/>
</svg>
