<svg width="48" height="48" viewBox="0 0 48 48" fill="none" xmlns="http://www.w3.org/2000/svg">
<path opacity="0.3" d="M32.6311 32.2964C31.908 32.7008 30.9941 32.4424 30.5898 31.7193C30.1854 30.9963 30.4438 30.0824 31.1668 29.678C33.209 28.536 34.5 26.3819 34.5 24C34.5 21.6357 33.2282 19.4952 31.2097 18.3462C30.4898 17.9364 30.2383 17.0205 30.6482 16.3006C31.058 15.5806 31.9738 15.3292 32.6938 15.739C35.6402 17.4161 37.5 20.5463 37.5 24C37.5 27.4794 35.6123 30.6293 32.6311 32.2964Z" fill="black"/>
<path fill-rule="evenodd" clip-rule="evenodd" d="M24 8.41424C24 7.52333 22.9229 7.07716 22.2929 7.70713L14 16H6C4.89543 16 4 16.8955 4 18V30C4 31.1046 4.89543 32 6 32H14L22.2929 40.2929C22.9229 40.9229 24 40.4767 24 39.5858V8.41424Z" fill="black"/>
</svg>
