<svg width="48" height="48" viewBox="0 0 48 48" fill="none" xmlns="http://www.w3.org/2000/svg">
<path opacity="0.3" fill-rule="evenodd" clip-rule="evenodd" d="M31.5755 39.0769C31.9346 39.8235 32.831 40.1375 33.5775 39.7784C39.5923 36.885 43.4999 30.7942 43.4999 24C43.4999 17.2709 39.667 11.2283 33.7407 8.30108C32.998 7.9342 32.0984 8.23891 31.7316 8.98167C31.3647 9.72443 31.6694 10.624 32.4122 10.9908C37.3244 13.4172 40.4999 18.4234 40.4999 24C40.4999 29.6304 37.2624 34.6767 32.277 37.075C31.5305 37.4341 31.2164 38.3304 31.5755 39.0769ZM30.5898 31.7193C30.9941 32.4424 31.908 32.7007 32.6311 32.2964C35.6123 30.6293 37.5 27.4794 37.5 24C37.5 20.5463 35.6402 17.4161 32.6938 15.739C31.9738 15.3292 31.058 15.5806 30.6482 16.3005C30.2383 17.0205 30.4898 17.9364 31.2097 18.3462C33.2282 19.4951 34.5 21.6357 34.5 24C34.5 26.3819 33.209 28.536 31.1668 29.678C30.4438 30.0823 30.1854 30.9963 30.5898 31.7193Z" fill="black"/>
<path fill-rule="evenodd" clip-rule="evenodd" d="M24 8.41424C24 7.52333 22.9229 7.07716 22.2929 7.70713L14 16H6C4.89543 16 4 16.8955 4 18V30C4 31.1046 4.89543 32 6 32H14L22.2929 40.2929C22.9229 40.9229 24 40.4767 24 39.5858V8.41424Z" fill="black"/>
</svg>
