<svg height="48" viewBox="0 0 24 24" width="48" xmlns="http://www.w3.org/2000/svg"><path d="m12 6c3.87 0 7 3.13 7 7 0 .84-.16 1.65-.43 2.4l1.52 1.52c.58-1.19.91-2.51.91-3.92a9 9 0 0 0 -9-9c-1.41 0-2.73.33-3.92.91l1.52 1.52c.75-.27 1.56-.43 2.4-.43z"/><path d="m22 5.72-4.6-3.86-1.29 1.53 4.6 3.86z"/><path d="m16.47 18.39c-1.21 1-2.77 1.61-4.47 1.61-3.87 0-7-3.13-7-7 0-1.7.61-3.26 1.61-4.47zm-13.55-16.1-1.27 1.28 1.33 1.33-1.11.93 1.42 1.42 1.11-.94.8.8a8.964 8.964 0 0 0 -2.2 5.89c0 4.97 4.02 9 9 9 2.25 0 4.31-.83 5.89-2.2l2.2 2.2 1.27-1.27-17.47-17.46z"/><path d="m8.02 3.28-1.42-1.42-.86.71 1.42 1.42z"/></svg>