<svg xmlns="http://www.w3.org/2000/svg" viewBox="0 0 24 24" width="48" height="48"><path d="M14.69 17.1c-.74.58-1.7.9-2.69.9s-1.95-.32-2.69-.9c-.22-.17-.53-.13-.7.09-.17.22-.13.53.09.7.91.72 2.09 1.11 3.3 1.11s2.39-.39 3.31-1.1c.22-.17.26-.48.09-.7-.17-.23-.49-.26-.71-.1z"/><path d="M19.96 14.82c-1.09 3.74-4.27 6.46-8.04 6.46-3.78 0-6.96-2.72-8.04-6.47-1.19-.11-2.13-1.18-2.13-2.52 0-1.27.85-2.31 1.97-2.5 2.09-1.46 3.8-3.49 4.09-5.05v-.01c1.35 2.63 6.3 5.19 11.83 5.06l.3-.03c1.28 0 2.31 1.14 2.31 2.54 0 1.38-1.02 2.51-2.29 2.52zM12 0C5.37 0 0 5.37 0 12s5.37 12 12 12 12-5.37 12-12S18.63 0 12 0z"/><path d="M16.5 12.5c0 .552-.448 1-1 1s-1-.448-1-1 .448-1 1-1 1 .448 1 1zm-7 0c0 .552-.448 1-1 1s-1-.448-1-1 .448-1 1-1 1 .448 1 1z"/></svg>