<svg height="48" viewBox="0 0 24 24" width="48" xmlns="http://www.w3.org/2000/svg"><path d="m1 9h2v-2h-2z"/><path d="m1 13h2v-2h-2z"/><path d="m1 5h2v-2c-1.1 0-2 .9-2 2z"/><path d="m9 21h2v-2h-2z"/><path d="m1 17h2v-2h-2z"/><path d="m3 21v-2h-2c0 1.1.9 2 2 2z"/><path d="m21 3h-8v6h10v-4c0-1.1-.9-2-2-2z"/><path d="m21 17h2v-2h-2z"/><path d="m9 5h2v-2h-2z"/><path d="m5 21h2v-2h-2z"/><path d="m5 5h2v-2h-2z"/><path d="m21 21c1.1 0 2-.9 2-2h-2z"/><path d="m21 13h2v-2h-2z"/><path d="m13 21h2v-2h-2z"/><path d="m17 21h2v-2h-2z"/></svg>