<svg width="48" height="48" viewBox="0 0 48 48" fill="none" xmlns="http://www.w3.org/2000/svg">
<path opacity="0.3" fill-rule="evenodd" clip-rule="evenodd" d="M19.2353 10H5.5C4.67157 10 4 10.6716 4 11.5V12.5C4 13.3284 4.67157 14 5.5 14H17.4706L19.2353 10ZM15.7059 18H5.5C4.67157 18 4 18.6716 4 19.5V20.5C4 21.3284 4.67157 22 5.5 22H13.9412L15.7059 18ZM34.0588 22L32.2941 18H42.5C43.3284 18 44 18.6716 44 19.5V20.5C44 21.3284 43.3284 22 42.5 22H34.0588ZM12.1765 26H5.5C4.67157 26 4 26.6716 4 27.5V28.5C4 29.3284 4.67157 30 5.5 30H10.4118L12.1765 26ZM37.5882 30L35.8235 26H42.5C43.3284 26 44 26.6716 44 27.5V28.5C44 29.3284 43.3284 30 42.5 30H37.5882ZM8.64706 34H5.5C4.67157 34 4 34.6716 4 35.5V36.5C4 37.3284 4.67157 38 5.5 38H6.88235L8.64706 34ZM41.1176 38L39.3529 34H42.5C43.3284 34 44 34.6716 44 35.5V36.5C44 37.3284 43.3284 38 42.5 38H41.1176ZM30.5294 14L28.7647 10H42.5C43.3284 10 44 10.6716 44 11.5V12.5C44 13.3284 43.3284 14 42.5 14H30.5294Z" fill="black"/>
<path fill-rule="evenodd" clip-rule="evenodd" d="M22.088 10.512H26.012L37 38H32L29.432 30.168H18.38L15 38H10L22.088 10.512ZM27.848 26.28L23.924 15.912L19.928 26.28H27.848Z" fill="black"/>
</svg>
