<svg width="48" height="48" viewBox="0 0 48 48" fill="none" xmlns="http://www.w3.org/2000/svg">
<path fill-rule="evenodd" clip-rule="evenodd" d="M14.68 38V9.6H25.36C30 9.6 33.8 13.4 33.8 18.04C33.8 20.04 33.04 21.68 31.8 22.92C34.2 24.2 35.8 26.52 35.8 29.56C35.8 34.24 32 38 27.2 38H14.68ZM21.0799 32.12H26.5999C28.3199 32.12 29.5599 30.88 29.5599 29.32C29.5599 27.76 28.3199 26.48 26.5999 26.48H21.0799V32.12ZM21.0799 21.08H24.6399C26.3599 21.08 27.5999 19.84 27.5999 18.28C27.5999 16.72 26.3599 15.44 24.6399 15.44H21.0799V21.08Z" fill="black"/>
</svg>
