<svg width="48" height="48" viewBox="0 0 48 48" fill="none" xmlns="http://www.w3.org/2000/svg">
<path fill-rule="evenodd" clip-rule="evenodd" d="M0.360046 38L14.2 9.28L28.04 38H24.12L20.6 30.56H7.80005L4.28005 38H0.360046ZM14.2001 17.04L9.40007 27.2H19.0001L14.2001 17.04Z" fill="black"/>
<path opacity="0.3" fill-rule="evenodd" clip-rule="evenodd" d="M42.6801 36V38H46.1201V18H42.6801V20C41.0001 18.48 38.7601 17.68 36.3201 17.68C30.4401 17.68 26.1201 22.2 26.1201 28C26.1201 33.8 30.4401 38.32 36.3201 38.32C38.7601 38.32 41.0001 37.52 42.6801 36ZM42.6801 31.84C41.5201 33.72 39.2801 35.08 36.4001 35.08C32.4801 35.08 29.6801 31.96 29.6801 28C29.6801 24.04 32.4801 20.92 36.4001 20.92C39.2801 20.92 41.5201 22.28 42.6801 24.16V31.84Z" fill="black"/>
</svg>
