<svg width="48" height="48" viewBox="0 0 48 48" fill="none" xmlns="http://www.w3.org/2000/svg">
<path fill-rule="evenodd" clip-rule="evenodd" d="M3.26801 38V11.02H6.72601V22.534H21.622V11.02H25.08V38H21.622V25.878H6.72601V38H3.26801Z" fill="black"/>
<path opacity="0.3" fill-rule="evenodd" clip-rule="evenodd" d="M39.748 26.638L29.298 38H47.044V34.96H36.138L42.37 28.044C45.638 24.51 47.044 22.002 47.044 18.81C47.044 14.25 43.434 10.716 38.836 10.716C34.238 10.716 30.666 14.25 30.666 18.81C30.666 23.104 33.896 26.638 38.494 26.752C38.95 26.752 39.292 26.714 39.748 26.638ZM43.814 18.81C43.814 21.736 41.724 23.902 38.836 23.902C35.91 23.902 33.896 21.736 33.896 18.81C33.896 15.922 35.91 13.718 38.836 13.718C41.724 13.718 43.814 15.922 43.814 18.81Z" fill="black"/>
</svg>
