<svg width="48" height="48" viewBox="0 0 48 48" fill="none" xmlns="http://www.w3.org/2000/svg">
<path opacity="0.3" fill-rule="evenodd" clip-rule="evenodd" d="M17 16V37C17 37.5523 16.5523 38 16 38H12C11.4477 38 11 37.5523 11 37V16H3C2.44772 16 2 15.5523 2 15V11C2 10.4477 2.44772 10 3 10L25 10C25.5523 10 26 10.4477 26 11V15C26 15.5523 25.5523 16 25 16H17Z" fill="black"/>
<path fill-rule="evenodd" clip-rule="evenodd" d="M40 9C40 8.44772 39.5523 8 39 8H37C36.4477 8 36 8.44772 36 9V9.17157L30.5858 14.5858C29.8047 15.3668 29.8047 16.6332 30.5858 17.4142C31.3668 18.1953 32.6332 18.1953 33.4142 17.4142L36 14.8284V33.1716L33.4142 30.5858C32.6332 29.8047 31.3668 29.8047 30.5858 30.5858C29.8047 31.3668 29.8047 32.6332 30.5858 33.4142L36 38.8284V39C36 39.5523 36.4477 40 37 40H37.9986C37.9995 40 38.0005 40 38.0014 40H39C39.5523 40 40 39.5523 40 39V38.8284L45.4142 33.4142C46.1953 32.6332 46.1953 31.3668 45.4142 30.5858C44.6332 29.8047 43.3668 29.8047 42.5858 30.5858L40 33.1716V14.8284L42.5858 17.4142C43.3668 18.1953 44.6332 18.1953 45.4142 17.4142C46.1953 16.6332 46.1953 15.3668 45.4142 14.5858L40 9.17157V9Z" fill="black"/>
</svg>
