<svg width="48" height="48" viewBox="0 0 48 48" fill="none" xmlns="http://www.w3.org/2000/svg">
<path opacity="0.3" fill-rule="evenodd" clip-rule="evenodd" d="M27 8V29C27 29.5523 26.5523 30 26 30H22C21.4477 30 21 29.5523 21 29V8H13C12.4477 8 12 7.55228 12 7V3C12 2.44772 12.4477 2 13 2L35 2C35.5523 2 36 2.44772 36 3V7C36 7.55228 35.5523 8 35 8H27Z" fill="black"/>
<path fill-rule="evenodd" clip-rule="evenodd" d="M15.4142 45.4142C16.1953 44.6332 16.1953 43.3668 15.4142 42.5858L12.8284 40H35.1716L32.5858 42.5858C31.8047 43.3668 31.8047 44.6332 32.5858 45.4142C33.3668 46.1953 34.6332 46.1953 35.4142 45.4142L41.4142 39.4142C42.1953 38.6332 42.1953 37.3668 41.4142 36.5858L35.4142 30.5858C34.6332 29.8047 33.3668 29.8047 32.5858 30.5858C31.8047 31.3668 31.8047 32.6332 32.5858 33.4142L35.1716 36H12.8284L15.4142 33.4142C16.1953 32.6332 16.1953 31.3668 15.4142 30.5858C14.6332 29.8047 13.3668 29.8047 12.5858 30.5858L6.58579 36.5858C5.80474 37.3668 5.80474 38.6332 6.58579 39.4142L12.5858 45.4142C13.3668 46.1953 14.6332 46.1953 15.4142 45.4142Z" fill="black"/>
</svg>
