<svg height="48" viewBox="0 0 24 24" width="48" xmlns="http://www.w3.org/2000/svg"><path d="m3 21h2v-2h-2z"/><path d="m5 7h-2v2h2z"/><path d="m3 17h2v-2h-2z"/><path d="m7 21h2v-2h-2z"/><path d="m5 3h-2v2h2z"/><path d="m9 3h-2v2h2z"/><path d="m17 3h-2v2h2z"/><path d="m13 7h-2v2h2z"/><path d="m13 3h-2v2h2z"/><path d="m19 17h2v-2h-2z"/><path d="m11 21h2v-2h-2z"/><path d="m3 13h18v-2h-18z"/><path d="m19 3v2h2v-2z"/><path d="m19 9h2v-2h-2z"/><path d="m11 17h2v-2h-2z"/><path d="m15 21h2v-2h-2z"/><path d="m19 21h2v-2h-2z"/></svg>