<svg height="48" viewBox="0 0 24 24" width="48" xmlns="http://www.w3.org/2000/svg"><path d="m9 11h-2v2h2z"/><path d="m13 15h-2v2h2z"/><path d="m9 3h-2v2h2z"/><path d="m13 11h-2v2h2z"/><path d="m5 3h-2v2h2z"/><path d="m13 7h-2v2h2z"/><path d="m17 11h-2v2h2z"/><path d="m13 3h-2v2h2z"/><path d="m17 3h-2v2h2z"/><path d="m19 13h2v-2h-2z"/><path d="m19 17h2v-2h-2z"/><path d="m5 7h-2v2h2z"/><path d="m19 3v2h2v-2z"/><path d="m19 9h2v-2h-2z"/><path d="m5 11h-2v2h2z"/><path d="m3 21h18v-2h-18z"/><path d="m5 15h-2v2h2z"/></svg>