<svg height="48" viewBox="0 0 24 24" width="48" xmlns="http://www.w3.org/2000/svg"><path d="m7 21h2v-2h-2z"/><path d="m7 13h2v-2h-2z"/><path d="m11 13h2v-2h-2z"/><path d="m11 21h2v-2h-2z"/><path d="m3 17h2v-2h-2z"/><path d="m3 21h2v-2h-2z"/><path d="m3 13h2v-2h-2z"/><path d="m3 9h2v-2h-2z"/><path d="m11 17h2v-2h-2z"/><path d="m19 9h2v-2h-2z"/><path d="m19 13h2v-2h-2z"/><path d="m3 3v2h18v-2z"/><path d="m19 17h2v-2h-2z"/><path d="m15 21h2v-2h-2z"/><path d="m11 9h2v-2h-2z"/><path d="m19 21h2v-2h-2z"/><path d="m15 13h2v-2h-2z"/></svg>