<svg width="48" height="48" viewBox="0 0 48 48" fill="none" xmlns="http://www.w3.org/2000/svg">
<path opacity="0.3" fill-rule="evenodd" clip-rule="evenodd" d="M29.6219 13C28.2898 7.82432 23.5915 4 18 4C11.3726 4 6 9.37258 6 16C6 19.1438 7.20895 22.0053 9.1873 24.1448C9.79822 26.3673 11.8334 28 14.25 28H18H36.75C39.6495 28 42 25.6495 42 22.75V18.25C42 15.3505 39.6495 13 36.75 13H29.6219Z" fill="black"/>
<path d="M16.6037 38.1616C16.3286 38.4865 16.5595 38.9847 16.9853 38.9847H21.9767V43.5C21.9767 43.7761 22.2006 44 22.4767 44H25.5233C25.7995 44 26.0233 43.7761 26.0233 43.5V38.9847H31.0147C31.4405 38.9847 31.6714 38.4865 31.3963 38.1616L24.3816 29.8765C24.1819 29.6406 23.8181 29.6406 23.6184 29.8765L16.6037 38.1616Z" fill="black"/>
</svg>
