<svg width="48" height="48" viewBox="0 0 48 48" fill="none" xmlns="http://www.w3.org/2000/svg">
<path opacity="0.3" d="M11.7143 4H28.0221C28.3768 4 28.72 4.12568 28.9908 4.35474L39.4687 13.2173C39.8057 13.5023 40 13.9212 40 14.3625V40.1667C40 43.7478 39.9591 44 36.2857 44H11.7143C8.0409 44 8 43.7478 8 40.1667V7.83333C8 4.25225 8.0409 4 11.7143 4Z" fill="black"/>
<path fill-rule="evenodd" clip-rule="evenodd" d="M21.1716 26L18.3431 23.1715C17.5621 22.3905 17.5621 21.1242 18.3431 20.3431C19.1242 19.5621 20.3905 19.5621 21.1716 20.3431L24 23.1715L26.8284 20.3431C27.6095 19.5621 28.8758 19.5621 29.6568 20.3431C30.4379 21.1242 30.4379 22.3905 29.6568 23.1715L26.8284 26L29.6568 28.8284C30.4379 29.6094 30.4379 30.8758 29.6568 31.6568C28.8758 32.4379 27.6095 32.4379 26.8284 31.6568L24 28.8284L21.1716 31.6568C20.3905 32.4379 19.1242 32.4379 18.3431 31.6568C17.5621 30.8758 17.5621 29.6094 18.3431 28.8284L21.1716 26Z" fill="black"/>
</svg>
