<svg width="48" height="48" viewBox="0 0 48 48" fill="none" xmlns="http://www.w3.org/2000/svg">
<path opacity="0.3" fill-rule="evenodd" clip-rule="evenodd" d="M4 40.5C4 41.3284 4.67157 42 5.5 42H42.5C43.3284 42 44 41.3284 44 40.5V15.5C44 14.6716 43.3284 14 42.5 14H20L14.4393 8.43934C14.158 8.15804 13.7765 8 13.3787 8H5.5C4.67157 8 4 8.67157 4 9.5V40.5Z" fill="black"/>
<path fill-rule="evenodd" clip-rule="evenodd" d="M31.2351 26.4844C31.5102 26.1595 31.2793 25.6613 30.8535 25.6613H25.8621V21.146C25.8621 20.8699 25.6382 20.646 25.3621 20.646H22.3155C22.0394 20.646 21.8155 20.8699 21.8155 21.146V25.6613L16.8241 25.6613C16.3983 25.6613 16.1674 26.1595 16.4425 26.4844L23.4572 34.7695C23.6569 35.0054 24.0207 35.0054 24.2204 34.7695L31.2351 26.4844Z" fill="black"/>
</svg>
