<svg width="48" height="48" viewBox="0 0 48 48" fill="none" xmlns="http://www.w3.org/2000/svg">
<path opacity="0.3" d="M4 26C4 25 5 24 6 24C7 24 8 25 8 26C8 27 8 36 8 36C8 38.2091 9.79086 40 12 40H36C38.2091 40 40 38.2091 40 36V26C40 24.8954 40.8954 24 42 24C43.1046 24 44 24.8954 44 26V36C44 40.4183 40.4183 44 36 44H12C7.58172 44 4 40.4183 4 36C4 36 4 27 4 26Z" fill="black"/>
<rect opacity="0.3" x="26" y="30" width="4" height="28" rx="1" transform="rotate(-180 26 30)" fill="black"/>
<path d="M32.5858 18.5858C33.3668 17.8047 34.6332 17.8047 35.4142 18.5858C36.1953 19.3668 36.1953 20.6332 35.4142 21.4142L25.4142 31.4142C24.6621 32.1664 23.4527 32.1982 22.6621 31.4866L12.6621 22.4866C11.8411 21.7477 11.7745 20.4831 12.5134 19.6621C13.2523 18.841 14.5169 18.7745 15.3379 19.5134L23.9275 27.244L32.5858 18.5858Z" fill="black"/>
</svg>
