<svg width="48" height="48" viewBox="0 0 48 48" fill="none" xmlns="http://www.w3.org/2000/svg">
<path opacity="0.3" d="M11.7143 4H28.0221C28.3768 4 28.72 4.12568 28.9908 4.35474L39.4687 13.2173C39.8057 13.5023 40 13.9212 40 14.3625V40.1667C40 43.7478 39.9591 44 36.2857 44H11.7143C8.0409 44 8 43.7478 8 40.1667V7.83333C8 4.25225 8.0409 4 11.7143 4Z" fill="black"/>
<path fill-rule="evenodd" clip-rule="evenodd" d="M17.2731 30.9265C15.3066 29.6872 14 27.4962 14 25C14 21.134 17.134 18 21 18C24.5265 18 27.4439 20.6077 27.9291 24H30C32.2091 24 34 25.7909 34 28C34 30.2091 32.2091 32 30 32H20C18.9462 32 17.9876 31.5925 17.2731 30.9265Z" fill="black"/>
</svg>
