<svg width="48" height="48" viewBox="0 0 48 48" fill="none" xmlns="http://www.w3.org/2000/svg">
<path opacity="0.3" fill-rule="evenodd" clip-rule="evenodd" d="M28.0221 4H11.7143C8.0409 4 8 4.25225 8 7.83333V40.1667C8 43.7478 8.0409 44 11.7143 44H36.2857C39.9591 44 40 43.7478 40 40.1667V14.3625C40 13.9212 39.8057 13.5023 39.4687 13.2173L28.9908 4.35474C28.72 4.12568 28.3768 4 28.0221 4ZM20.4083 30.925C20.7917 31.3083 21.2708 31.5 21.75 31.5C22.2292 31.5 22.7083 31.3083 23.0917 30.925L30.7583 23.2583C31.525 22.4917 31.525 21.3417 30.7583 20.575C29.9917 19.8083 28.8417 19.8083 28.075 20.575L21.75 26.9L19.2583 24.4083C18.5875 23.6417 17.3417 23.6417 16.575 24.4083C15.8083 25.175 15.8083 26.325 16.575 27.0917L20.4083 30.925Z" fill="black"/>
<path fill-rule="evenodd" clip-rule="evenodd" d="M21.75 31.5C21.2708 31.5 20.7917 31.3083 20.4083 30.925L16.575 27.0917C15.8083 26.325 15.8083 25.175 16.575 24.4083C17.3417 23.6417 18.5875 23.6417 19.2583 24.4083L21.75 26.9L28.075 20.575C28.8417 19.8083 29.9917 19.8083 30.7583 20.575C31.525 21.3417 31.525 22.4917 30.7583 23.2583L23.0917 30.925C22.7083 31.3083 22.2292 31.5 21.75 31.5Z" fill="black"/>
</svg>
