<svg width="48" height="48" viewBox="0 0 48 48" fill="none" xmlns="http://www.w3.org/2000/svg">
<path opacity="0.3" fill-rule="evenodd" clip-rule="evenodd" d="M4 40.5C4 41.3284 4.67157 42 5.5 42H42.5C43.3284 42 44 41.3284 44 40.5V15.5C44 14.6716 43.3284 14 42.5 14H20L14.4393 8.43934C14.158 8.15804 13.7765 8 13.3787 8H5.5C4.67157 8 4 8.67157 4 9.5V40.5Z" fill="black"/>
<path fill-rule="evenodd" clip-rule="evenodd" d="M22 26V22C22 20.8954 22.8954 20 24 20C25.1046 20 26 20.8954 26 22V26H30C31.1046 26 32 26.8954 32 28C32 29.1046 31.1046 30 30 30H26V34C26 35.1046 25.1046 36 24 36C22.8954 36 22 35.1046 22 34V30H18C16.8954 30 16 29.1046 16 28C16 26.8954 16.8954 26 18 26H22Z" fill="black"/>
</svg>
