<svg width="48" height="48" viewBox="0 0 48 48" fill="none" xmlns="http://www.w3.org/2000/svg">
<path fill-rule="evenodd" clip-rule="evenodd" d="M21.9672 42H42.5C43.3284 42 44 41.3284 44 40.5V15.5C44 14.6716 43.3284 14 42.5 14H20L14.4393 8.43934C14.158 8.15804 13.7765 8 13.3787 8H5.5C4.67157 8 4 8.67157 4 9.5V26.3001C4.96933 26.1033 5.9726 26 7 26C15.2843 26 22 32.7157 22 41C22 41.336 21.989 41.6695 21.9672 42Z" fill="black"/>
<path opacity="0.3" d="M5.75 45.5C5.27083 45.5 4.79167 45.3083 4.40833 44.925L0.575 41.0917C-0.191667 40.325 -0.191667 39.175 0.575 38.4083C1.34167 37.6417 2.5875 37.6417 3.25833 38.4083L5.75 40.9L12.075 34.575C12.8417 33.8083 13.9917 33.8083 14.7583 34.575C15.525 35.3417 15.525 36.4917 14.7583 37.2583L7.09167 44.925C6.70833 45.3083 6.22917 45.5 5.75 45.5Z" fill="black"/>
</svg>
