<svg width="48" height="48" viewBox="0 0 48 48" fill="none" xmlns="http://www.w3.org/2000/svg">
<path fill-rule="evenodd" clip-rule="evenodd" d="M21.9672 42H42.5C43.3284 42 44 41.3284 44 40.5V15.5C44 14.6716 43.3284 14 42.5 14H20L14.4393 8.43934C14.158 8.15804 13.7765 8 13.3787 8H5.5C4.67157 8 4 8.67157 4 9.5V26.3001C4.96933 26.1033 5.9726 26 7 26C15.2843 26 22 32.7157 22 41C22 41.336 21.989 41.6695 21.9672 42Z" fill="black"/>
<path opacity="0.3" fill-rule="evenodd" clip-rule="evenodd" d="M8 32C7.44772 32 7 32.4477 7 33V39C7 39.5523 7.44772 40 8 40H10C10.5523 40 11 39.5523 11 39V33C11 32.4477 10.5523 32 10 32H8ZM11 44C11 45.1046 10.1046 46 9 46C7.89543 46 7 45.1046 7 44C7 42.8954 7.89543 42 9 42C10.1046 42 11 42.8954 11 44Z" fill="black"/>
</svg>
