<svg width="48" height="48" viewBox="0 0 48 48" fill="none" xmlns="http://www.w3.org/2000/svg">
<rect opacity="0.3" x="26" y="26" width="4" height="24" rx="1" transform="rotate(-180 26 26)" fill="black"/>
<path opacity="0.3" d="M34 16C32.8954 16 32 15.1045 32 14C32 12.8954 32.8954 12 34 12H36C40.4183 12 44 15.5817 44 20V36C44 40.4182 40.4183 44 36 44H12C7.58172 44 4 40.4182 4 36L4 19.9861C4 15.5678 7.58172 11.9861 12 11.9861H14C15.1046 11.9861 16 12.8815 16 13.9861C16 15.0907 15.1046 15.9861 14 15.9861H12C9.79086 15.9861 8 17.7769 8 19.9861V36C8 38.2091 9.79086 40 12 40H36C38.2091 40 40 38.2091 40 36V20C40 17.7908 38.2091 16 36 16H34Z" fill="black"/>
<path d="M28.5858 20.5858C29.3668 19.8047 30.6332 19.8047 31.4142 20.5858C32.1953 21.3668 32.1953 22.6332 31.4142 23.4142L25.4142 29.4142C24.6332 30.1953 23.3668 30.1953 22.5858 29.4142L16.5858 23.4142C15.8047 22.6332 15.8047 21.3668 16.5858 20.5858C17.3668 19.8047 18.6332 19.8047 19.4142 20.5858L24 25.1716L28.5858 20.5858Z" fill="black"/>
</svg>
