<svg width="48" height="48" viewBox="0 0 48 48" fill="none" xmlns="http://www.w3.org/2000/svg">
<path fill-rule="evenodd" clip-rule="evenodd" d="M21.9672 42H42.5C43.3284 42 44 41.3284 44 40.5V15.5C44 14.6716 43.3284 14 42.5 14H20L14.4393 8.43934C14.158 8.15804 13.7765 8 13.3787 8H5.5C4.67157 8 4 8.67157 4 9.5V26.3001C4.96933 26.1033 5.9726 26 7 26C15.2843 26 22 32.7157 22 41C22 41.336 21.989 41.6695 21.9672 42Z" fill="black"/>
<path opacity="0.3" fill-rule="evenodd" clip-rule="evenodd" d="M4 34.5C4 33.1193 5.11929 32 6.5 32H11.5C12.8807 32 14 33.1193 14 34.5V38H15C15.5523 38 16 38.4477 16 39V47C16 47.5523 15.5523 48 15 48H3C2.44772 48 2 47.5523 2 47V39C2 38.4477 2.44772 38 3 38H4V34.5ZM7.5 34C6.67157 34 6 34.6716 6 35.5V38H12V35.5C12 34.6716 11.3284 34 10.5 34H7.5Z" fill="black"/>
</svg>
