<svg width="48" height="48" viewBox="0 0 48 48" fill="none" xmlns="http://www.w3.org/2000/svg">
<path opacity="0.3" fill-rule="evenodd" clip-rule="evenodd" d="M4 40.5C4 41.3284 4.67157 42 5.5 42H42.5C43.3284 42 44 41.3284 44 40.5V15.5C44 14.6716 43.3284 14 42.5 14H20L14.4393 8.43934C14.158 8.15804 13.7765 8 13.3787 8H5.5C4.67157 8 4 8.67157 4 9.5V40.5Z" fill="black"/>
<path fill-rule="evenodd" clip-rule="evenodd" d="M19 22.5C19 21.1193 20.1193 20 21.5 20H26.5C27.8807 20 29 21.1193 29 22.5V26H30C30.5523 26 31 26.4477 31 27V35C31 35.5523 30.5523 36 30 36H18C17.4477 36 17 35.5523 17 35V27C17 26.4477 17.4477 26 18 26H19V22.5ZM22.5 22C21.6716 22 21 22.6716 21 23.5V26H27V23.5C27 22.6716 26.3284 22 25.5 22H22.5Z" fill="black"/>
</svg>
