<svg width="48" height="48" viewBox="0 0 48 48" fill="none" xmlns="http://www.w3.org/2000/svg">
<path opacity="0.3" d="M11.7143 4H28.0221C28.3768 4 28.72 4.12568 28.9908 4.35474L39.4687 13.2173C39.8057 13.5023 40 13.9212 40 14.3625V40.1667C40 43.7478 39.9591 44 36.2857 44H11.7143C8.0409 44 8 43.7478 8 40.1667V7.83333C8 4.25225 8.0409 4 11.7143 4Z" fill="black"/>
<path fill-rule="evenodd" clip-rule="evenodd" d="M20 31.7325C20 32.1344 20.4503 32.3721 20.7822 32.1452L30.9732 25.1791C31.2631 24.9809 31.2638 24.5534 30.9744 24.3544L20.7834 17.3443C20.4516 17.1161 20 17.3536 20 17.7562V31.7325Z" fill="black"/>
</svg>
