<svg width="48" height="48" viewBox="0 0 48 48" fill="none" xmlns="http://www.w3.org/2000/svg">
<path opacity="0.3" fill-rule="evenodd" clip-rule="evenodd" d="M4 40.5C4 41.3284 4.67157 42 5.5 42H42.5C43.3284 42 44 41.3284 44 40.5V15.5C44 14.6716 43.3284 14 42.5 14H20L14.4393 8.43934C14.158 8.15804 13.7765 8 13.3787 8H5.5C4.67157 8 4 8.67157 4 9.5V40.5Z" fill="black"/>
<path opacity="0.3" fill-rule="evenodd" clip-rule="evenodd" d="M8 38L20 22L32 38H8Z" fill="black"/>
<path fill-rule="evenodd" clip-rule="evenodd" d="M22 38L30 28L38 38H22Z" fill="black"/>
<path opacity="0.3" fill-rule="evenodd" clip-rule="evenodd" d="M36 24C37.6569 24 39 22.6569 39 21C39 19.3431 37.6569 18 36 18C34.3431 18 33 19.3431 33 21C33 22.6569 34.3431 24 36 24Z" fill="black"/>
</svg>
