<svg width="48" height="48" viewBox="0 0 48 48" fill="none" xmlns="http://www.w3.org/2000/svg">
<path opacity="0.3" fill-rule="evenodd" clip-rule="evenodd" d="M4 40.5C4 41.3284 4.67157 42 5.5 42H42.5C43.3284 42 44 41.3284 44 40.5V15.5C44 14.6716 43.3284 14 42.5 14H20L14.4393 8.43934C14.158 8.15804 13.7765 8 13.3787 8H5.5C4.67157 8 4 8.67157 4 9.5V40.5Z" fill="black"/>
<path opacity="0.3" fill-rule="evenodd" clip-rule="evenodd" d="M27 38C29.7614 38 32 35.7614 32 33C32 30.2386 29.7614 28 27 28C24.2386 28 22 30.2386 22 33C22 35.7614 24.2386 38 27 38Z" fill="black"/>
<path opacity="0.3" fill-rule="evenodd" clip-rule="evenodd" d="M21 38C23.7614 38 26 35.7614 26 33C26 30.2386 23.7614 28 21 28C18.2386 28 16 30.2386 16 33C16 35.7614 18.2386 38 21 38Z" fill="black"/>
<path opacity="0.3" fill-rule="evenodd" clip-rule="evenodd" d="M19 32C21.7614 32 24 29.7614 24 27C24 24.2386 21.7614 22 19 22C16.2386 22 14 24.2386 14 27C14 29.7614 16.2386 32 19 32Z" fill="black"/>
<path opacity="0.3" fill-rule="evenodd" clip-rule="evenodd" d="M29 32C31.7614 32 34 29.7614 34 27C34 24.2386 31.7614 22 29 22C26.2386 22 24 24.2386 24 27C24 29.7614 26.2386 32 29 32Z" fill="black"/>
<path opacity="0.3" fill-rule="evenodd" clip-rule="evenodd" d="M24 28C26.7614 28 29 25.7614 29 23C29 20.2386 26.7614 18 24 18C21.2386 18 19 20.2386 19 23C19 25.7614 21.2386 28 24 28Z" fill="black"/>
</svg>
