<svg width="48" height="48" viewBox="0 0 48 48" fill="none" xmlns="http://www.w3.org/2000/svg">
<path opacity="0.3" d="M4 26C4 25 5 24 6 24C7 24 8 25 8 26C8 27 8 36 8 36C8 38.2091 9.79086 40 12 40H36C38.2091 40 40 38.2091 40 36V26C40 24.8954 40.8954 24 42 24C43.1046 24 44 24.8954 44 26V36C44 40.4183 40.4183 44 36 44H12C7.58172 44 4 40.4183 4 36C4 36 4 27 4 26Z" fill="black"/>
<rect opacity="0.3" x="22" y="4" width="4" height="28" rx="1" fill="black"/>
<path d="M24.0725 6.75596L15.4142 15.4142C14.6332 16.1953 13.3668 16.1953 12.5858 15.4142C11.8047 14.6332 11.8047 13.3668 12.5858 12.5858L22.5858 2.58579C23.3379 1.83363 24.5473 1.80182 25.3379 2.51342L35.3379 11.5134C36.1589 12.2523 36.2255 13.5169 35.4866 14.3379C34.7477 15.159 33.4831 15.2255 32.6621 14.4866L24.0725 6.75596Z" fill="black"/>
</svg>
