<svg height="48" viewBox="0 0 24 24" width="48" xmlns="http://www.w3.org/2000/svg"><path d="m12 5v-4l-5 5 5 5v-4c3.3 0 6 2.7 6 6s-2.7 6-6 6-6-2.7-6-6h-2c0 4.4 3.6 8 8 8s8-3.6 8-8-3.6-8-8-8z"/><path d="m10.9 16h-.9v-3.3l-1 .3v-.7l1.8-.6h.1z"/><path d="m14.3 13.4v-.5s-.1-.2-.1-.3-.1-.1-.2-.2-.2-.1-.3-.1-.2 0-.3.1l-.2.2s-.1.2-.1.3v2s.1.2.1.3.1.1.2.2.2.1.3.1.2 0 .3-.1l.2-.2s.1-.2.1-.3zm.9.8c0 .3 0 .6-.1.8l-.3.6s-.3.3-.5.3-.4.1-.6.1-.4 0-.6-.1-.3-.2-.5-.3-.2-.3-.3-.6-.1-.5-.1-.8v-.7c0-.3 0-.6.1-.8l.3-.6s.3-.3.5-.3.4-.1.6-.1.4 0 .6.1.3.2.5.3.2.3.3.6.1.5.1.8z"/></svg>