<svg height="48" viewBox="0 0 24 24" width="48" xmlns="http://www.w3.org/2000/svg"><path d="m9.4 10.5 4.77-8.26c-.7-.15-1.42-.24-2.17-.24-2.4 0-4.6.85-6.32 2.25l3.66 6.35z"/><path d="m21.54 9c-.92-2.92-3.15-5.26-6-6.34l-3.66 6.34z"/><path d="m21.8 10h-7.49l.29.5 4.76 8.25c1.64-1.78 2.64-4.14 2.64-6.75 0-.69-.07-1.35-.2-2z"/><path d="m8.54 12-3.9-6.75c-1.63 1.78-2.64 4.14-2.64 6.75 0 .69.07 1.35.2 2h7.49z"/><path d="m2.46 15c.92 2.92 3.15 5.26 6 6.34l3.66-6.34z"/><path d="m13.73 15-3.9 6.76c.7.15 1.42.24 2.17.24 2.4 0 4.6-.85 6.32-2.25l-3.66-6.35z"/></svg>