<svg height="48" viewBox="0 0 24 24" width="48" xmlns="http://www.w3.org/2000/svg"><path d="m11 4.07v-2.02c-2.01.2-3.84 1-5.32 2.21l1.42 1.43a7.941 7.941 0 0 1 3.9-1.62z"/><path d="m18.32 4.26a9.949 9.949 0 0 0 -5.32-2.21v2.02c1.46.18 2.79.76 3.9 1.62z"/><path d="m19.93 11h2.02c-.2-2.01-1-3.84-2.21-5.32l-1.43 1.42a7.941 7.941 0 0 1 1.62 3.9z"/><path d="m5.69 7.1-1.43-1.42a9.949 9.949 0 0 0 -2.21 5.32h2.02c.18-1.46.76-2.79 1.62-3.9z"/><path d="m4.07 13h-2.02c.2 2.01 1 3.84 2.21 5.32l1.43-1.43a7.868 7.868 0 0 1 -1.62-3.89z"/><path d="m15 12c0-1.66-1.34-3-3-3s-3 1.34-3 3 1.34 3 3 3 3-1.34 3-3z"/><path d="m18.31 16.9 1.43 1.43a9.981 9.981 0 0 0 2.21-5.32h-2.02a7.945 7.945 0 0 1 -1.62 3.89z"/><path d="m13 19.93v2.02c2.01-.2 3.84-1 5.32-2.21l-1.43-1.43c-1.1.86-2.43 1.44-3.89 1.62z"/><path d="m5.68 19.74a9.981 9.981 0 0 0 5.32 2.21v-2.02a7.941 7.941 0 0 1 -3.9-1.62z"/></svg>