<svg height="48" viewBox="0 0 24 24" width="48" xmlns="http://www.w3.org/2000/svg"><path d="m23 15h-2v2h2z"/><path d="m23 11h-2v2h2z"/><path d="m23 19h-2v2c1 0 2-1 2-2z"/><path d="m15 3h-2v2h2z"/><path d="m23 7h-2v2h2z"/><path d="m21 3v2h2c0-1-1-2-2-2z"/><path d="m3 21h8v-6h-10v4c0 1.1.9 2 2 2z"/><path d="m3 7h-2v2h2z"/><path d="m15 19h-2v2h2z"/><path d="m19 3h-2v2h2z"/><path d="m19 19h-2v2h2z"/><path d="m3 3c-1 0-2 1-2 2h2z"/><path d="m3 11h-2v2h2z"/><path d="m11 3h-2v2h2z"/><path d="m7 3h-2v2h2z"/></svg>