<svg height="48" viewBox="0 0 24 24" width="48" xmlns="http://www.w3.org/2000/svg"><path d="m21 15h2v2h-2z"/><path d="m21 11h2v2h-2z"/><path d="m23 19h-2v2c1 0 2-1 2-2z"/><path d="m13 3h2v2h-2z"/><path d="m21 7h2v2h-2z"/><path d="m21 3v2h2c0-1-1-2-2-2z"/><path d="m1 7h2v2h-2z"/><path d="m17 3h2v2h-2z"/><path d="m17 19h2v2h-2z"/><path d="m3 3c-1 0-2 1-2 2h2z"/><path d="m9 3h2v2h-2z"/><path d="m5 3h2v2h-2z"/><path d="m3 19 2.5-3.21 1.79 2.15 2.5-3.22 3.21 4.28zm-2-8v8c0 1.1.9 2 2 2h12v-10z"/></svg>