<svg height="48" viewBox="0 0 24 24" width="48" xmlns="http://www.w3.org/2000/svg"><path d="m19.04 4.55-1.42 1.42a9.012 9.012 0 0 0 -10.57-.49l1.46 1.46c1.02-.59 2.22-.94 3.49-.94 3.87 0 7 3.13 7 7 0 1.27-.35 2.47-.94 3.49l1.45 1.45a8.878 8.878 0 0 0 1.49-4.94c0-2.12-.74-4.07-1.97-5.61l1.42-1.42z"/><path d="m15 1h-6v2h6z"/><path d="m11 9.44 2 2v-3.44h-2z"/><path d="m12 20c-3.87 0-7-3.13-7-7 0-1.28.35-2.48.95-3.52l9.56 9.56c-1.03.61-2.23.96-3.51.96zm-8.98-16-1.27 1.27 2.75 2.76a8.905 8.905 0 0 0 -1.5 4.97c0 4.97 4.02 9 9 9 1.84 0 3.55-.55 4.98-1.5l2.5 2.5 1.27-1.27-7.71-7.71z"/></svg>