<svg width="48" height="48" viewBox="0 0 48 48" fill="none" xmlns="http://www.w3.org/2000/svg">
<rect opacity="0.3" x="22" y="4" width="4" height="10" rx="1" fill="black"/>
<rect opacity="0.3" x="22" y="32" width="4" height="10" rx="1" fill="black"/>
<path fill-rule="evenodd" clip-rule="evenodd" d="M35.75 28.1719C35.75 29.6413 35.4587 30.8763 34.876 31.8769C34.2933 32.8776 33.5207 33.6819 32.558 34.2899C31.5953 34.898 30.4997 35.3349 29.271 35.6009C28.0423 35.8669 26.782 35.9999 25.49 35.9999H14V9.09595H25.49C26.5287 9.09595 27.5927 9.20361 28.682 9.41895C29.7713 9.63428 30.7593 10.0016 31.646 10.5209C32.5327 11.0403 33.2547 11.7433 33.812 12.6299C34.3693 13.5166 34.648 14.6439 34.648 16.0119C34.648 17.5066 34.2427 18.7416 33.432 19.7169C32.6213 20.6923 31.5573 21.3953 30.24 21.8259C31 22.0286 31.7157 22.2629 32.387 22.6049C33.0583 22.9469 33.641 23.3839 34.135 23.9159C34.629 24.4479 35.0217 25.0686 35.313 25.7779C35.6043 26.4873 35.75 27.2853 35.75 28.1719ZM28.378 16.8859C28.378 15.9739 28.0296 15.3089 27.333 14.8909C26.6363 14.4729 25.604 14.2639 24.236 14.2639H21.044V19.8119H24.54C25.756 19.8119 26.6996 19.5649 27.371 19.0709C28.0423 18.5769 28.378 17.8486 28.378 16.8859ZM29.252 27.5639C29.252 26.4492 28.834 25.6766 27.998 25.2459C27.162 24.8152 26.0473 24.5999 24.654 24.5999H21.044V30.7559H24.692C25.1986 30.7559 25.7243 30.7116 26.269 30.6229C26.8136 30.5342 27.3076 30.3759 27.751 30.1479C28.1943 29.9199 28.5553 29.5969 28.834 29.1789C29.1126 28.7609 29.252 28.2226 29.252 27.5639Z" fill="black"/>
</svg>
