<svg width="48" height="48" viewBox="0 0 48 48" fill="none" xmlns="http://www.w3.org/2000/svg">
<path fill-rule="evenodd" clip-rule="evenodd" d="M8 19.3494L21.7605 27.294C21.9087 27.3796 22.0641 27.4414 22.2222 27.4806V42.8888L8.9814 35.0529C8.3731 34.6929 8 34.0385 8 33.3317V19.3494ZM40 19.1382V33.3317C40 34.0386 39.6269 34.6929 39.0186 35.0529L25.7778 42.8888V27.3456C25.8101 27.3295 25.842 27.3123 25.8737 27.294L40 19.1382Z" fill="black"/>
<path opacity="0.3" fill-rule="evenodd" clip-rule="evenodd" d="M8.43225 15.4934C8.60033 15.2812 8.81248 15.1018 9.05982 14.97L23.0598 7.51334C23.6475 7.20031 24.3525 7.20031 24.9402 7.51334L38.9402 14.97C39.1309 15.0716 39.3006 15.2015 39.4454 15.3529L24.0959 24.2149C23.995 24.2732 23.9019 24.3399 23.8171 24.4135C23.7323 24.3399 23.6392 24.2732 23.5383 24.2149L8.43225 15.4934Z" fill="black"/>
</svg>
