<svg width="48" height="48" viewBox="0 0 48 48" fill="none" xmlns="http://www.w3.org/2000/svg">
<rect opacity="0.3" x="14" y="8" width="20" height="8" fill="black"/>
<path fill-rule="evenodd" clip-rule="evenodd" d="M12 4C10.8954 4 10 4.89543 10 6V42C10 43.1046 10.8954 44 12 44H36C37.1046 44 38 43.1046 38 42V6C38 4.89543 37.1046 4 36 4H12ZM18 22C18 23.1046 17.1046 24 16 24C14.8954 24 14 23.1046 14 22C14 20.8954 14.8954 20 16 20C17.1046 20 18 20.8954 18 22ZM16 32C17.1046 32 18 31.1046 18 30C18 28.8954 17.1046 28 16 28C14.8954 28 14 28.8954 14 30C14 31.1046 14.8954 32 16 32ZM26 22C26 23.1046 25.1046 24 24 24C22.8954 24 22 23.1046 22 22C22 20.8954 22.8954 20 24 20C25.1046 20 26 20.8954 26 22ZM24 32C25.1046 32 26 31.1046 26 30C26 28.8954 25.1046 28 24 28C22.8954 28 22 28.8954 22 30C22 31.1046 22.8954 32 24 32ZM34 22C34 23.1046 33.1046 24 32 24C30.8954 24 30 23.1046 30 22C30 20.8954 30.8954 20 32 20C33.1046 20 34 20.8954 34 22ZM32 32C33.1046 32 34 31.1046 34 30C34 28.8954 33.1046 28 32 28C30.8954 28 30 28.8954 30 30C30 31.1046 30.8954 32 32 32ZM34 38C34 39.1046 33.1046 40 32 40C30.8954 40 30 39.1046 30 38C30 36.8954 30.8954 36 32 36C33.1046 36 34 36.8954 34 38ZM14 38C14 36.8954 14.8954 36 16 36H24C25.1046 36 26 36.8954 26 38C26 39.1046 25.1046 40 24 40H16C14.8954 40 14 39.1046 14 38ZM34 8H14V16H34V8Z" fill="black"/>
</svg>
