<svg width="48" height="48" viewBox="0 0 48 48" fill="none" xmlns="http://www.w3.org/2000/svg">
<path d="M10 38H40C41.1046 38 42 38.8954 42 40C42 41.1046 41.1046 42 40 42H8C6.89543 42 6 41.1046 6 40V8C6 6.89543 6.89543 6 8 6C9.10457 6 10 6.89543 10 8V38Z" fill="black"/>
<path opacity="0.3" d="M17.4591 29.368C16.7036 30.1738 15.4379 30.2146 14.6321 29.4592C13.8263 28.7037 13.7855 27.438 14.5409 26.6322L22.0409 18.6322C22.7716 17.8529 23.9856 17.7853 24.7982 18.4787L30.7177 23.53L38.4302 13.7608C39.1147 12.8938 40.3723 12.7459 41.2393 13.4303C42.1063 14.1148 42.2542 15.3724 41.5698 16.2394L32.5698 27.6394C31.8668 28.5298 30.5647 28.6579 29.7018 27.9215L23.6537 22.7604L17.4591 29.368Z" fill="black"/>
</svg>
