<svg width="49" height="49" viewBox="0 0 49 49" fill="none" xmlns="http://www.w3.org/2000/svg">
<path opacity="0.3" fill-rule="evenodd" clip-rule="evenodd" d="M24.8174 8.261C29.7987 5.1415 36.4468 5.74822 40.7798 10.0812C45.1139 14.4153 45.1139 21.4423 40.7798 25.7765L19.6533 46.9029C19.2532 47.303 18.6046 47.303 18.2046 46.9029L2.58361 31.282C2.2383 30.9367 2.2383 30.3768 2.58361 30.0315L21.7573 10.8578L26.2414 15.3418C25.176 17.5721 25.5669 20.3242 27.4142 22.1715C29.7574 24.5146 33.5564 24.5146 35.8995 22.1715C38.2426 19.8283 38.2426 16.0294 35.8995 13.6862C34.0522 11.8389 31.3001 11.448 29.0698 12.5134L24.8174 8.261Z" fill="black"/>
<rect opacity="0.3" x="16.1006" y="22.1715" width="16" height="4" rx="1" transform="rotate(45 16.1006 22.1715)" fill="black"/>
<rect opacity="0.3" x="11.8579" y="29.2426" width="12" height="4" rx="1" transform="rotate(45 11.8579 29.2426)" fill="black"/>
</svg>
