<svg width="48" height="48" viewBox="0 0 48 48" fill="none" xmlns="http://www.w3.org/2000/svg">
<path opacity="0.3" fill-rule="evenodd" clip-rule="evenodd" d="M10.809 34C10.4373 34 10.1956 33.6088 10.3618 33.2764L11.8618 30.2764C11.9465 30.107 12.1196 30 12.309 30H33.191C33.5627 30 33.8044 30.3912 33.6382 30.7236L32.1382 33.7236C32.0535 33.893 31.8804 34 31.691 34H10.809Z" fill="black"/>
<path fill-rule="evenodd" clip-rule="evenodd" d="M16 7.43188H26.214C28.0847 7.43188 29.7713 7.60055 31.274 7.93788C32.7767 8.27522 34.0647 8.82721 35.138 9.59388C36.2113 10.3606 37.0393 11.3419 37.622 12.5379C38.2047 13.7339 38.496 15.1752 38.496 16.8619C38.496 18.6712 38.1587 20.1892 37.484 21.4159C36.8093 22.6426 35.897 23.6315 34.747 24.3829C33.597 25.1342 32.2553 25.6785 30.722 26.0159C29.1887 26.3532 27.5633 26.5219 25.846 26.5219H21.384V39.9999H16V7.43188ZM25.432 21.6459C26.3827 21.6459 27.2873 21.5769 28.146 21.4389C29.0047 21.3009 29.7713 21.0555 30.446 20.7029C31.1207 20.3502 31.6573 19.8672 32.056 19.2539C32.4547 18.6405 32.654 17.8432 32.654 16.8619C32.654 15.9112 32.4547 15.1369 32.056 14.5389C31.6573 13.9409 31.1284 13.4732 30.469 13.1359C29.8097 12.7985 29.0584 12.5762 28.215 12.4689C27.3717 12.3615 26.5054 12.3079 25.616 12.3079H21.384V21.6459H25.432Z" fill="black"/>
</svg>
