<svg width="48" height="48" viewBox="0 0 48 48" fill="none" xmlns="http://www.w3.org/2000/svg">
<path opacity="0.3" fill-rule="evenodd" clip-rule="evenodd" d="M11.5 32C10.6716 32 10 32.6716 10 33.5V40.5C10 41.3284 10.6716 42 11.5 42H16.5C17.3284 42 18 41.3284 18 40.5V33.5C18 32.6716 17.3284 32 16.5 32H11.5ZM31.5 32C30.6716 32 30 32.6716 30 33.5V40.5C30 41.3284 30.6716 42 31.5 42H36.5C37.3284 42 38 41.3284 38 40.5V33.5C38 32.6716 37.3284 32 36.5 32H31.5Z" fill="black"/>
<path fill-rule="evenodd" clip-rule="evenodd" d="M8 8C6.89543 8 6 8.89543 6 10V36C6 37.1046 6.89543 38 8 38H40C41.1046 38 42 37.1046 42 36V10C42 8.89543 41.1046 8 40 8H8ZM38 23C38 26.866 34.866 30 31 30C27.134 30 24 26.866 24 23C24 19.134 27.134 16 31 16C34.866 16 38 19.134 38 23ZM31 26C32.6569 26 34 24.6569 34 23C34 21.3431 32.6569 20 31 20C29.3431 20 28 21.3431 28 23C28 24.6569 29.3431 26 31 26ZM13 16C12.4477 16 12 16.4477 12 17V23C12 23.5523 12.4477 24 13 24H15C15.5523 24 16 23.5523 16 23V17C16 16.4477 15.5523 16 15 16H13Z" fill="black"/>
</svg>
