<svg width="48" height="48" viewBox="0 0 48 48" fill="none" xmlns="http://www.w3.org/2000/svg">
<path fill-rule="evenodd" clip-rule="evenodd" d="M34 14C34 12.8954 34.8954 12 36 12H38C39.1046 12 40 12.8954 40 14V38C40 39.1046 39.1046 40 38 40H36C34.8954 40 34 39.1046 34 38V14ZM22 24C22 22.8954 22.8954 22 24 22H26C27.1046 22 28 22.8954 28 24V38C28 39.1046 27.1046 40 26 40H24C22.8954 40 22 39.1046 22 38V24ZM12 30C10.8954 30 10 30.8954 10 32V38C10 39.1046 10.8954 40 12 40H14C15.1046 40 16 39.1046 16 38V32C16 30.8954 15.1046 30 14 30H12Z" fill="black"/>
</svg>
