<svg width="48" height="48" viewBox="0 0 48 48" fill="none" xmlns="http://www.w3.org/2000/svg">
<path opacity="0.3" fill-rule="evenodd" clip-rule="evenodd" d="M19.9336 40.9456L7.04541 28.0574C5.65153 26.6552 5.65153 24.3906 7.04541 22.9884L23.2255 7.08101C23.8979 6.41998 24.803 6.04956 25.7459 6.04956H38.6548C40.6403 6.04956 42.2499 7.65912 42.2499 9.6446V22.5166C42.2499 23.4813 41.8621 24.4056 41.1739 25.0815L25.0206 40.9456C24.3463 41.6207 23.4313 42 22.4771 42C21.523 42 20.608 41.6207 19.9336 40.9456ZM37.4565 14.438C37.4565 16.4235 35.8469 18.0331 33.8615 18.0331C31.876 18.0331 30.2664 16.4235 30.2664 14.438C30.2664 12.4525 31.876 10.843 33.8615 10.843C35.8469 10.843 37.4565 12.4525 37.4565 14.438Z" fill="black"/>
</svg>
