<svg width="48" height="48" viewBox="0 0 48 48" fill="none" xmlns="http://www.w3.org/2000/svg">
<path opacity="0.3" fill-rule="evenodd" clip-rule="evenodd" d="M12.2721 22.1715L4.49388 29.9496C4.10336 30.3402 4.10336 30.9733 4.49388 31.3638L8.10016 34.9701C10.0415 33.6839 12.6829 33.8961 14.3934 35.6065C16.1038 37.317 16.316 39.9584 15.0298 41.8997L18.636 45.506C19.0265 45.8965 19.6597 45.8965 20.0502 45.506L27.8284 37.7278L24.2929 34.1922C23.9023 33.8017 23.9023 33.1686 24.2928 32.778L25.7071 31.3638C26.0976 30.9733 26.7308 30.9733 27.1213 31.3638L30.6568 34.8994L45.5061 20.0501C45.8966 19.6596 45.8966 19.0264 45.5061 18.6359L41.8998 15.0296C39.9584 16.3158 37.317 16.1037 35.6066 14.3932C33.8961 12.6828 33.684 10.0414 34.9702 8.10004L31.3639 4.49379C30.9734 4.10326 30.3402 4.10326 29.9497 4.49379L15.1005 19.343L18.636 22.8786C19.0265 23.2691 19.0265 23.9022 18.636 24.2928L17.2218 25.707C16.8313 26.0975 16.1981 26.0975 15.8076 25.707L12.2721 22.1715ZM18.636 28.5354C18.2455 28.1449 18.2455 27.5118 18.636 27.1212L20.0502 25.707C20.4407 25.3165 21.0739 25.3165 21.4644 25.707L24.2928 28.5354C24.6834 28.926 24.6834 29.5591 24.2928 29.9497L22.8786 31.3639C22.4881 31.7544 21.8549 31.7544 21.4644 31.3639L18.636 28.5354Z" fill="black"/>
</svg>
