<svg width="48" height="48" viewBox="0 0 48 48" fill="none" xmlns="http://www.w3.org/2000/svg">
<path opacity="0.3" d="M16 34H32V39C32 39.5523 31.5523 40 31 40H17C16.4477 40 16 39.5523 16 39V34Z" fill="black"/>
<path fill-rule="evenodd" clip-rule="evenodd" d="M44 14H4V16C4 27.0457 12.9543 36 24 36C35.0457 36 44 27.0457 44 16V14ZM37.7878 18.1617C36.7726 17.7266 35.5968 18.1969 35.1617 19.2122C33.342 23.4581 30.6669 26.4305 27.1055 28.2112C26.1176 28.7051 25.7171 29.9065 26.2111 30.8944C26.7051 31.8824 27.9064 32.2828 28.8944 31.7889C33.3331 29.5695 36.658 25.8752 38.8383 20.7879C39.2734 19.7726 38.8031 18.5968 37.7878 18.1617Z" fill="black"/>
</svg>
