<svg width="48" height="48" viewBox="0 0 48 48" fill="none" xmlns="http://www.w3.org/2000/svg">
<rect opacity="0.3" x="10" y="40" width="28" height="4" rx="1" fill="black"/>
<path fill-rule="evenodd" clip-rule="evenodd" d="M10 25.748C6.54955 24.8599 4 21.7277 4 18C4 13.5817 7.58172 10 12 10C12.2267 10 12.4511 10.0094 12.673 10.0279C14.3124 5.35257 18.7647 2 24 2C29.2353 2 33.6876 5.35257 35.327 10.0279C35.5489 10.0094 35.7733 10 36 10C40.4183 10 44 13.5817 44 18C44 21.7277 41.4505 24.8599 38 25.748V34C38 35.1046 37.1046 36 36 36H12C10.8954 36 10 35.1046 10 34V25.748Z" fill="black"/>
</svg>
