<svg width="48" height="48" viewBox="0 0 48 48" fill="none" xmlns="http://www.w3.org/2000/svg">
<path opacity="0.3" fill-rule="evenodd" clip-rule="evenodd" d="M38 4H14C10.5072 4 8 6.61167 8 10V38C8 41.3883 10.5072 44 14 44H38C39.2837 44 40 43.2538 40 42V40H15.6667C14.7462 40 14 39.2538 14 38.3333V37.6667C14 36.7462 14.7462 36 15.6667 36H40V6C40 4.74619 39.2837 4 38 4Z" fill="black"/>
<mask id="mask0" mask-type="alpha" maskUnits="userSpaceOnUse" x="8" y="4" width="32" height="40">
<path fill-rule="evenodd" clip-rule="evenodd" d="M38 4H14C10.5072 4 8 6.61167 8 10V38C8 41.3883 10.5072 44 14 44H38C39.2837 44 40 43.2538 40 42V40H15.6667C14.7462 40 14 39.2538 14 38.3333V37.6667C14 36.7462 14.7462 36 15.6667 36H40V6C40 4.74619 39.2837 4 38 4Z" fill="white"/>
</mask>
<g mask="url(#mask0)">
<path opacity="0.3" fill-rule="evenodd" clip-rule="evenodd" d="M18.7 23.1755C17.1473 22.7576 16 21.2836 16 19.5294C16 17.4502 17.6118 15.7647 19.6 15.7647C19.702 15.7647 19.803 15.7691 19.9028 15.7778C20.6406 13.5777 22.6441 12 25 12C27.3559 12 29.3594 13.5777 30.0972 15.7778C30.197 15.7691 30.298 15.7647 30.4 15.7647C32.3882 15.7647 34 17.4502 34 19.5294C34 21.2836 32.8527 22.7576 31.3 23.1755V27.0588C31.3 27.5786 30.8971 28 30.4 28H19.6C19.1029 28 18.7 27.5786 18.7 27.0588V23.1755Z" fill="black"/>
</g>
</svg>
