<svg width="48" height="48" viewBox="0 0 48 48" fill="none" xmlns="http://www.w3.org/2000/svg">
<path opacity="0.3" fill-rule="evenodd" clip-rule="evenodd" d="M25 38C32.1797 38 38 32.1797 38 25C38 17.8203 32.1797 12 25 12C17.8203 12 12 17.8203 12 25C12 32.1797 17.8203 38 25 38ZM25 32.8C20.6922 32.8 17.2 29.3078 17.2 25C17.2 20.6922 20.6922 17.2 25 17.2C29.3078 17.2 32.8 20.6922 32.8 25C32.8 29.3078 29.3078 32.8 25 32.8ZM30.2 25C30.2 27.8719 27.8719 30.2 25 30.2C22.1281 30.2 19.8 27.8719 19.8 25C19.8 22.1281 22.1281 19.8 25 19.8C27.8719 19.8 30.2 22.1281 30.2 25Z" fill="black"/>
<rect opacity="0.3" x="42.1953" y="27" width="4.01897" height="11" rx="1.125" fill="black"/>
<path fill-rule="evenodd" clip-rule="evenodd" d="M42 10V24H48V16C48 12.6863 45.3137 10 42 10Z" fill="black"/>
<path fill-rule="evenodd" clip-rule="evenodd" d="M1.42852 10H0V18.7895C0 20.4463 1.34315 21.7895 3 21.7895H7C8.65685 21.7895 10 20.4463 10 18.7895V10H8.57138L7.92278 16.6908C7.88552 17.0752 7.56246 17.3684 7.17628 17.3684H7.10933C6.72315 17.3684 6.40009 17.0752 6.36283 16.6908L5.71423 10H4.28566L3.63707 16.6908C3.5998 17.0752 3.27675 17.3684 2.89056 17.3684H2.82362C2.43743 17.3684 2.11438 17.0752 2.07712 16.6908L1.42852 10Z" fill="black"/>
<rect opacity="0.3" x="2.9729" y="24.7368" width="4.05428" height="13.2632" rx="1.125" fill="black"/>
</svg>
