<svg width="48" height="48" viewBox="0 0 48 48" fill="none" xmlns="http://www.w3.org/2000/svg">
<path fill-rule="evenodd" clip-rule="evenodd" d="M30 6H28V18C28 20.2091 29.7909 22 32 22H38C40.2091 22 42 20.2091 42 18V6H40L39.09 15.0995C39.0389 15.6107 38.6088 16 38.095 16H37.905C37.3912 16 36.9611 15.6107 36.91 15.0995L36 6H34L33.09 15.0995C33.0389 15.6107 32.6088 16 32.095 16H31.905C31.3912 16 30.9611 15.6107 30.91 15.0995L30 6Z" fill="black"/>
<rect opacity="0.3" x="32.1621" y="26" width="5.676" height="18" rx="1.5" fill="black"/>
<rect opacity="0.3" x="12.1816" y="28" width="5.6368" height="16" rx="1.5" fill="black"/>
<path fill-rule="evenodd" clip-rule="evenodd" d="M22 15C22 18.866 18.866 24 15 24C11.134 24 8 18.866 8 15C8 11.134 11.134 6 15 6C18.866 6 22 11.134 22 15ZM18.955 15.7899C18.9946 13.5221 17.2655 9.40946 15.0191 9.20211L15.1214 19.8952C17.2378 19.7158 18.9171 17.9597 18.955 15.7899Z" fill="black"/>
</svg>
