<svg width="48" height="48" viewBox="0 0 48 48" fill="none" xmlns="http://www.w3.org/2000/svg">
<path opacity="0.3" fill-rule="evenodd" clip-rule="evenodd" d="M18.7573 27.8285L20.1715 29.2427C20.9526 30.0237 20.9526 31.2901 20.1715 32.0711L10.272 41.9706C9.49098 42.7516 8.22465 42.7516 7.4436 41.9706L6.02939 40.5564C5.24834 39.7753 5.24834 38.509 6.02939 37.728L15.9289 27.8285C16.7099 27.0474 17.9763 27.0474 18.7573 27.8285Z" fill="black"/>
<path fill-rule="evenodd" clip-rule="evenodd" d="M31.1213 5.97915L24.4945 14.3564C23.9994 14.9824 24.0516 15.88 24.6159 16.4443C25.1803 17.0087 26.0779 17.0609 26.7039 16.5657L35.0811 9.93895L37.061 11.9189L30.4342 20.2961C29.9391 20.9221 29.9912 21.8197 30.5556 22.384C31.12 22.9484 32.0176 23.0006 32.6436 22.5054L41.0208 15.8786L42.435 17.2929L33.9497 25.7781C30.8255 28.9023 25.7602 28.9023 22.636 25.7781L21.2218 24.3639C18.0976 21.2397 18.0976 16.1744 21.2218 13.0502L29.7071 4.56494L31.1213 5.97915Z" fill="black"/>
</svg>
