<svg width="48" height="48" viewBox="0 0 48 48" fill="none" xmlns="http://www.w3.org/2000/svg">
<path opacity="0.3" d="M15.857 16.7428L12.1431 15.2572L13.9147 10.8281C15.5643 6.70415 19.5584 4 24 4C28.4416 4 32.4357 6.70415 34.0853 10.8281L35.857 15.2572L32.1431 16.7428L30.3714 12.3136C29.3293 9.70835 26.806 8 24 8C21.194 8 18.6707 9.70835 17.6286 12.3136L15.857 16.7428Z" fill="black"/>
<path fill-rule="evenodd" clip-rule="evenodd" d="M8.72188 14C7.61731 14 6.72188 14.8954 6.72188 16V40C6.72188 41.1046 7.61732 42 8.72188 42H39.2788C40.3834 42 41.2788 41.1046 41.2788 40V16C41.2788 14.8954 40.3834 14 39.2788 14H8.72188ZM14 36C14 37.1046 13.1046 38 12 38C10.8954 38 10 37.1046 10 36C10 34.8954 10.8954 34 12 34C13.1046 34 14 34.8954 14 36ZM16 30C17.1046 30 18 29.1046 18 28C18 26.8954 17.1046 26 16 26C14.8954 26 14 26.8954 14 28C14 29.1046 14.8954 30 16 30ZM22 20C22 21.1046 21.1046 22 20 22C18.8954 22 18 21.1046 18 20C18 18.8954 18.8954 18 20 18C21.1046 18 22 18.8954 22 20ZM28 22C29.1046 22 30 21.1046 30 20C30 18.8954 29.1046 18 28 18C26.8954 18 26 18.8954 26 20C26 21.1046 26.8954 22 28 22ZM26 28C26 29.1046 25.1046 30 24 30C22.8954 30 22 29.1046 22 28C22 26.8954 22.8954 26 24 26C25.1046 26 26 26.8954 26 28ZM32 30C33.1046 30 34 29.1046 34 28C34 26.8954 33.1046 26 32 26C30.8954 26 30 26.8954 30 28C30 29.1046 30.8954 30 32 30ZM22 36C22 37.1046 21.1046 38 20 38C18.8954 38 18 37.1046 18 36C18 34.8954 18.8954 34 20 34C21.1046 34 22 34.8954 22 36ZM28 38C29.1046 38 30 37.1046 30 36C30 34.8954 29.1046 34 28 34C26.8954 34 26 34.8954 26 36C26 37.1046 26.8954 38 28 38ZM38 36C38 37.1046 37.1046 38 36 38C34.8954 38 34 37.1046 34 36C34 34.8954 34.8954 34 36 34C37.1046 34 38 34.8954 38 36Z" fill="black"/>
</svg>
