<svg width="48" height="48" viewBox="0 0 48 48" fill="none" xmlns="http://www.w3.org/2000/svg">
<path fill-rule="evenodd" clip-rule="evenodd" d="M7.97689 6.12012L22.119 20.2623L16.4622 25.9191L7.97689 17.4338C4.85269 14.3096 4.85269 9.24431 7.97689 6.12012Z" fill="black"/>
<path fill-rule="evenodd" clip-rule="evenodd" d="M35.5079 7.81412L29.7772 14.8183C29.4177 15.2577 29.4496 15.898 29.851 16.2994C30.2525 16.7008 30.8927 16.7327 31.3321 16.3733L38.3363 10.6425L39.7505 12.0568L34.0198 19.061C33.6603 19.5003 33.6923 20.1406 34.0937 20.542C34.4951 20.9435 35.1354 20.9754 35.5748 20.6159L42.579 14.8852L43.9932 16.2994L37.6292 22.6634C34.8956 25.397 30.4634 25.397 27.7297 22.6634C24.9961 19.9297 24.9961 15.4975 27.7297 12.7639L34.0937 6.3999L35.5079 7.81412Z" fill="black"/>
<path opacity="0.3" fill-rule="evenodd" clip-rule="evenodd" d="M22.1508 27.8493C22.9431 28.6416 22.9753 29.916 22.2239 30.7472L12.2837 41.745C11.2275 42.9136 9.42377 43.0047 8.25511 41.9484C8.21951 41.9163 8.18473 41.8832 8.1508 41.8493C7.03691 40.7354 7.03691 38.9294 8.1508 37.8155C8.18473 37.7816 8.21951 37.7485 8.25511 37.7163L19.2528 27.7761C20.0841 27.0248 21.3585 27.0569 22.1508 27.8493Z" fill="black"/>
<path opacity="0.3" fill-rule="evenodd" clip-rule="evenodd" d="M26.1508 27.8493C26.9431 27.0569 28.2175 27.0248 29.0488 27.7761L40.0465 37.7163C40.0821 37.7485 40.1169 37.7816 40.1508 37.8155C41.2647 38.9294 41.2647 40.7354 40.1508 41.8493C40.1169 41.8832 40.0821 41.9163 40.0465 41.9484C38.8778 43.0047 37.0741 42.9136 36.0179 41.745L26.0777 30.7472C25.3263 29.916 25.3585 28.6416 26.1508 27.8493Z" fill="black"/>
</svg>
