<svg width="48" height="48" viewBox="0 0 48 48" fill="none" xmlns="http://www.w3.org/2000/svg">
<path opacity="0.3" fill-rule="evenodd" clip-rule="evenodd" d="M46.7487 15.2218C47.5298 16.0029 47.5298 17.2692 46.7487 18.0503L34.0208 30.7782C33.2397 31.5592 31.9734 31.5592 31.1924 30.7782L28.3639 27.9498C27.5829 27.1687 27.5829 25.9024 28.3639 25.1213L41.0918 12.3934C41.8729 11.6124 43.1392 11.6124 43.9203 12.3934L46.7487 15.2218Z" fill="black"/>
<path fill-rule="evenodd" clip-rule="evenodd" d="M18.4645 37.8493L25.5356 30.7782L28.364 33.6067L21.2929 40.6777L21.2555 40.6403C16.8689 44.1824 9.8246 43.3515 5.02948 38.5564C0.234363 33.7613 0.0342612 27.3478 3.64645 23.0312L18.4645 37.8493Z" fill="black"/>
</svg>
