<svg width="48" height="48" viewBox="0 0 48 48" fill="none" xmlns="http://www.w3.org/2000/svg">
<path fill-rule="evenodd" clip-rule="evenodd" d="M10.565 28.9497L28.9497 10.565C30.1213 9.39339 32.0208 9.39339 33.1924 10.565L37.435 14.8076C38.6066 15.9792 38.6066 17.8787 37.435 19.0502L19.0502 37.435C17.8787 38.6066 15.9792 38.6066 14.8076 37.435L10.565 33.1924C9.39339 32.0208 9.39339 30.1213 10.565 28.9497Z" fill="black"/>
<path opacity="0.3" fill-rule="evenodd" clip-rule="evenodd" d="M7.0295 36.7281L8.44371 35.3139C8.83424 34.9233 9.4674 34.9233 9.85793 35.3139L12.6864 38.1423C13.0769 38.5328 13.0769 39.166 12.6864 39.5565L11.2721 40.9707C10.1006 42.1423 8.20107 42.1423 7.0295 40.9707C5.85792 39.7991 5.85792 37.8996 7.0295 36.7281ZM36.728 7.02956C37.8996 5.85799 39.7991 5.85799 40.9707 7.02956C42.1422 8.20113 42.1422 10.1006 40.9707 11.2722L39.5564 12.6864C39.1659 13.0769 38.5327 13.0769 38.1422 12.6864L35.3138 9.85799C34.9233 9.46746 34.9233 8.8343 35.3138 8.44377L36.728 7.02956Z" fill="black"/>
</svg>
