<svg width="48" height="48" viewBox="0 0 48 48" fill="none" xmlns="http://www.w3.org/2000/svg">
<path opacity="0.3" d="M16 36H30.4508V41C30.4508 41.5523 30.0031 42 29.4508 42H17C16.4477 42 16 41.5523 16 41V36Z" fill="black"/>
<path fill-rule="evenodd" clip-rule="evenodd" d="M42 20V18H44C45.1046 18 46 17.1046 46 16C46 14.8954 45.1046 14 44 14H4C2.89543 14 2 14.8954 2 16C2 17.1046 2.89543 18 4 18H6V20C6 29.9411 14.0589 38 24 38C33.9411 38 42 29.9411 42 20ZM14 20C14 21.1046 13.1046 22 12 22C10.8954 22 10 21.1046 10 20C10 18.8954 10.8954 18 12 18C13.1046 18 14 18.8954 14 20ZM16 28C17.1046 28 18 27.1046 18 26C18 24.8954 17.1046 24 16 24C14.8954 24 14 24.8954 14 26C14 27.1046 14.8954 28 16 28ZM22 32C22 33.1046 21.1046 34 20 34C18.8954 34 18 33.1046 18 32C18 30.8954 18.8954 30 20 30C21.1046 30 22 30.8954 22 32ZM28 34C29.1046 34 30 33.1046 30 32C30 30.8954 29.1046 30 28 30C26.8954 30 26 30.8954 26 32C26 33.1046 26.8954 34 28 34ZM26 26C26 27.1046 25.1046 28 24 28C22.8954 28 22 27.1046 22 26C22 24.8954 22.8954 24 24 24C25.1046 24 26 24.8954 26 26ZM32 28C33.1046 28 34 27.1046 34 26C34 24.8954 33.1046 24 32 24C30.8954 24 30 24.8954 30 26C30 27.1046 30.8954 28 32 28ZM22 20C22 21.1046 21.1046 22 20 22C18.8954 22 18 21.1046 18 20C18 18.8954 18.8954 18 20 18C21.1046 18 22 18.8954 22 20ZM28 22C29.1046 22 30 21.1046 30 20C30 18.8954 29.1046 18 28 18C26.8954 18 26 18.8954 26 20C26 21.1046 26.8954 22 28 22ZM38 20C38 21.1046 37.1046 22 36 22C34.8954 22 34 21.1046 34 20C34 18.8954 34.8954 18 36 18C37.1046 18 38 18.8954 38 20Z" fill="black"/>
</svg>
