<svg width="48" height="48" viewBox="0 0 48 48" fill="none" xmlns="http://www.w3.org/2000/svg">
<path opacity="0.3" fill-rule="evenodd" clip-rule="evenodd" d="M18.7573 25.8285L20.1716 27.2427C20.9526 28.0237 20.9526 29.2901 20.1716 30.0711L10.2721 39.9706C9.49101 40.7516 8.22468 40.7516 7.44363 39.9706L6.02942 38.5564C5.24837 37.7753 5.24837 36.509 6.02942 35.728L15.9289 25.8285C16.71 25.0474 17.9763 25.0474 18.7573 25.8285Z" fill="black"/>
<path fill-rule="evenodd" clip-rule="evenodd" d="M22.2929 23.707C25.8076 27.2217 31.5061 27.2217 35.0208 23.707C38.5355 20.1923 42.0711 10.9583 38.5563 7.44355C35.0416 3.92883 25.8076 7.46437 22.2929 10.9791C18.7782 14.4938 18.7782 20.1923 22.2929 23.707Z" fill="black"/>
<path fill-rule="evenodd" clip-rule="evenodd" d="M25.6777 21.1179L35.2506 11.0132C37.1665 13.2385 35.0669 18.6528 32.9793 20.7403C30.9819 22.7377 27.8216 22.8636 25.6777 21.1179Z" fill="white"/>
</svg>
