<svg xmlns="http://www.w3.org/2000/svg" viewBox="0 0 24 24" width="48" height="48"><path d="M4 2h16a2 2 0 0 1 2 2v16a2 2 0 0 1-2 2h-5.15c-.35-.08-.35-.76-.35-1v-2.74c0-.93-.33-1.54-.69-1.85 2.23-.25 4.57-1.09 4.57-4.91 0-1.11-.38-2-1.03-2.71.1-.25.45-1.29-.1-2.64 0 0-.84-.27-2.75 1.02-.79-.22-1.65-.33-2.5-.33-.85 0-1.71.11-2.5.33-1.91-1.29-2.75-1.02-2.75-1.02-.55 1.35-.2 2.39-.1 2.64-.65.71-1.03 1.6-1.03 2.71 0 3.81 2.33 4.67 4.55 4.92-.28.25-.54.69-.63 1.34-.57.24-2.04.69-2.91-.83 0 0-.53-.96-1.53-1.03 0 0-.98-.02-.1.6 0 0 .68.31 1.14 1.47 0 0 .59 1.94 3.36 1.34V21c0 .24 0 .92-.36 1H4a2 2 0 0 1-2-2V4a2 2 0 0 1 2-2z"/></svg>