<svg xmlns="http://www.w3.org/2000/svg" viewBox="0 0 24 24" width="48" height="48"><path d="M20 2H4a2 2 0 0 0-2 2v16a2 2 0 0 0 2 2h16a2 2 0 0 0 2-2V4c0-1.11-.9-2-2-2M9.07 19.2C6.27 19.2 5 17.64 5 16.18c0-.45.14-1.59 1.5-2.38.75-.47 1.83-.8 3.12-.91-.19-.25-.34-.55-.34-.99 0-.15.02-.31.06-.46h-.39C7 11.44 5.8 9.89 5.8 8.39c0-1.73 1.29-3.59 4.11-3.59h4.22l-.34.34-.71.71-.08.06h-.7c.41.42.9 1.09.9 2.16 0 1.4-.74 2.09-1.56 2.73-.14.12-.42.38-.42.7 0 .32.24.5.39.64.13.11.29.22.47.36.81.55 1.92 1.33 1.92 2.86 0 1.77-1.29 3.84-4.93 3.84M19 12h-2v2h-1v-2h-2v-1h2V9h1v2h2"/><path d="M10.57 13.81c-.11-.01-.19-.01-.32-.01h-.02c-.26 0-1.15.05-1.82.27-.64.24-1.41.72-1.41 1.7C7 16.85 8.04 18 9.96 18c1.54 0 2.44-1 2.44-2 0-.75-.46-1.21-1.83-2.19"/><path d="M11.2 8.87c0-1.02-.63-3.02-2.08-3.02-.62 0-1.32.44-1.32 1.65 0 1.2.62 2.95 1.97 2.95.06 0 1.43-.01 1.43-1.58z"/></svg>