<svg height="48" viewBox="0 0 24 24" width="48" xmlns="http://www.w3.org/2000/svg"><path d="m16.75 13.96c.25.13.41.2.46.3.06.11.04.61-.21 1.18-.2.56-1.24 1.1-1.7 1.12s-.47.36-2.96-.73-3.99-3.75-4.11-3.92-.96-1.38-.92-2.61c.05-1.22.69-1.8.95-2.04.24-.26.51-.29.68-.26h.47c.15 0 .36-.06.55.45l.69 1.87c.06.13.1.28.01.44l-.27.41-.39.42c-.12.12-.26.25-.12.5.12.26.62 1.09 1.32 1.78.91.88 1.71 1.17 1.95 1.3.24.14.39.12.54-.04l.81-.94c.19-.25.35-.19.58-.11z"/><path d="m12 4a8 8 0 0 0 -8 8c0 1.72.54 3.31 1.46 4.61l-.96 2.89 2.89-.96c1.3.92 2.89 1.46 4.61 1.46a8 8 0 0 0 8-8 8 8 0 0 0 -8-8zm0-2a10 10 0 0 1 10 10 10 10 0 0 1 -10 10c-1.97 0-3.8-.57-5.35-1.55l-4.65 1.55 1.55-4.65c-.98-1.55-1.55-3.38-1.55-5.35a10 10 0 0 1 10-10"/></svg>