<svg width="56" height="57" viewBox="0 0 56 57" fill="none" xmlns="http://www.w3.org/2000/svg">
<path opacity="0.3" fill-rule="evenodd" clip-rule="evenodd" d="M37.5564 18.4437C41.8522 22.7395 41.8522 29.7043 37.5564 34.0001C33.2606 38.2959 26.2958 38.2959 22 34.0001C17.7043 29.7043 17.7043 22.7395 22 18.4437C26.2958 14.148 33.2606 14.148 37.5564 18.4437ZM26.9497 29.0503C28.5118 30.6124 31.0445 30.6124 32.6066 29.0503C34.1687 27.4883 34.1687 24.9556 32.6066 23.3935C31.0445 21.8314 28.5118 21.8314 26.9497 23.3935C25.3876 24.9556 25.3876 27.4883 26.9497 29.0503ZM31.1925 27.6361C31.9735 26.8551 31.9735 25.5888 31.1925 24.8077C30.4114 24.0267 29.1451 24.0267 28.3641 24.8077C27.583 25.5888 27.583 26.8551 28.3641 27.6361C29.1451 28.4172 30.4114 28.4172 31.1925 27.6361Z" fill="black"/>
<rect opacity="0.3" x="2.90814" y="46.0208" width="32" height="12" rx="4" transform="rotate(-45 2.90814 46.0208)" fill="black"/>
<path fill-rule="evenodd" clip-rule="evenodd" d="M20.0909 15.1203C15.4254 21.7513 15.4545 30.2828 20.5858 35.4142C25.7172 40.5456 34.2487 40.5746 40.8797 35.9092L20.0909 15.1203ZM45.362 10.693C45.3529 10.6838 45.3437 10.6746 45.3346 10.6655C45.3254 10.6563 45.3162 10.6472 45.3071 10.638L45.362 10.693Z" fill="black"/>
</svg>
