<svg width="48" height="48" viewBox="0 0 48 48" fill="none" xmlns="http://www.w3.org/2000/svg">
<path opacity="0.3" fill-rule="evenodd" clip-rule="evenodd" d="M31.1924 6.90813C30.8019 6.5176 30.1687 6.5176 29.7782 6.90813L26.9498 9.73655C26.5592 10.1271 26.5592 10.7602 26.9498 11.1508L31.1924 15.3934C31.5829 15.7839 32.2161 15.7839 32.6066 15.3934L35.4351 12.565C35.8256 12.1745 35.8256 11.5413 35.4351 11.1508L31.1924 6.90813ZM2.90819 35.1924C2.51766 34.8018 2.51766 34.1687 2.90819 33.7781L24.1214 12.5649C24.5119 12.1744 25.1451 12.1744 25.5356 12.5649L29.7782 16.8076C30.1688 17.1981 30.1688 17.8313 29.7782 18.2218L8.56504 39.435C8.17452 39.8255 7.54135 39.8255 7.15083 39.435L2.90819 35.1924ZM30.4853 31.6568L43.2132 18.9289L46.0417 21.7574L33.3137 34.4853L30.4853 31.6568Z" fill="black"/>
<path fill-rule="evenodd" clip-rule="evenodd" d="M41.799 17.5146C41.799 17.5146 34.0209 15.3933 31.8995 13.272C29.7782 11.1506 23.4142 4.78668 23.4142 4.78668L16.3432 11.8577C16.3432 11.8577 22 17.5146 24.8285 20.343C27.6569 23.1715 29.0711 30.2425 29.0711 30.2425L41.799 17.5146Z" fill="black"/>
</svg>
