<svg width="48" height="48" viewBox="0 0 48 48" fill="none" xmlns="http://www.w3.org/2000/svg">
<path opacity="0.3" fill-rule="evenodd" clip-rule="evenodd" d="M32.1153 10.2311L36.3579 14.4737L31.4082 23.6661L40.6006 18.7164L44.1361 22.2519C44.5266 22.6424 44.5266 23.2756 44.1361 23.6661L33.5295 34.2727L13.7305 14.4737L24.3371 3.86711C24.7276 3.47659 25.3608 3.47659 25.7513 3.86711L29.2869 7.40265L27.8727 11.6453L32.1153 10.2311Z" fill="black"/>
<path fill-rule="evenodd" clip-rule="evenodd" d="M20.3199 32.3767L13.7368 41.7811C12.4699 43.5909 9.97578 44.031 8.16598 42.7641C7.97507 42.6305 7.7962 42.4804 7.63142 42.3157L5.71547 40.3997C4.15338 38.8376 4.15338 36.305 5.71547 34.7429C5.88791 34.5704 6.07576 34.4141 6.27667 34.2759L15.7212 27.7781L9.48797 21.5448C8.70692 20.7637 8.70692 19.4974 9.48797 18.7164L12.3164 15.8879L32.1154 35.6869L29.287 38.5154C28.5059 39.2964 27.2396 39.2964 26.4585 38.5154L20.3199 32.3767ZM9.48803 38.5153C10.2691 39.2964 11.5354 39.2964 12.3165 38.5153C13.0975 37.7343 13.0975 36.4679 12.3165 35.6869C11.5354 34.9058 10.2691 34.9058 9.48803 35.6869C8.70698 36.4679 8.70698 37.7343 9.48803 38.5153Z" fill="black"/>
</svg>
