<svg width="48" height="48" viewBox="0 0 48 48" fill="none" xmlns="http://www.w3.org/2000/svg">
<path opacity="0.3" fill-rule="evenodd" clip-rule="evenodd" d="M27 3C27 1.34315 25.6569 0 24 0C22.3431 0 21 1.34315 21 3V8H27V3ZM18.9362 28.216C17.0809 27.3841 15.4489 26.1432 14.1549 24.6081L9 36L10 46L18.9362 28.216ZM34.1228 25.2388C32.7508 26.6732 31.0639 27.8037 29.1731 28.5195L38 45.9999L39 35.9999L34.1228 25.2388Z" fill="black"/>
<path fill-rule="evenodd" clip-rule="evenodd" d="M14 16C14 21.5228 18.4772 26 24 26C29.5228 26 34 21.5228 34 16C34 10.4772 29.5228 6 24 6C18.4772 6 14 10.4772 14 16ZM28 16C28 18.2091 26.2091 20 24 20C21.7909 20 20 18.2091 20 16C20 13.7909 21.7909 12 24 12C26.2091 12 28 13.7909 28 16Z" fill="black"/>
</svg>
