<svg width="48" height="48" viewBox="0 0 48 48" fill="none" xmlns="http://www.w3.org/2000/svg">
<path opacity="0.3" fill-rule="evenodd" clip-rule="evenodd" d="M36.8493 25.2928L42.5061 19.6359C42.8966 19.2454 43.5298 19.2454 43.9203 19.6359L45.3345 21.0502C45.7251 21.4407 45.7251 22.0738 45.3345 22.4644L39.6777 28.1212C39.2872 28.5117 38.654 28.5117 38.2635 28.1212L36.8493 26.707C36.4587 26.3165 36.4587 25.6833 36.8493 25.2928ZM6.44367 35.8994L26.2427 16.1004C27.0237 15.3194 28.29 15.3194 29.0711 16.1004L31.8995 18.9289C32.6806 19.7099 32.6806 20.9762 31.8995 21.7573L12.1005 41.5563C11.3195 42.3373 10.0531 42.3373 9.27209 41.5563L6.44367 38.7278C5.66262 37.9468 5.66262 36.6805 6.44367 35.8994Z" fill="black"/>
<path d="M19.1716 9.02954C23.0768 5.1243 29.4085 5.1243 33.3137 9.02954L40.3208 16.0366C40.3562 16.072 40.3562 16.1293 40.3208 16.1646L33.6673 22.8181C33.472 23.0134 33.1554 23.0134 32.9602 22.8181L19.1716 9.02954Z" fill="black"/>
</svg>
