<svg width="48" height="48" viewBox="0 0 48 48" fill="none" xmlns="http://www.w3.org/2000/svg">
<path opacity="0.3" fill-rule="evenodd" clip-rule="evenodd" d="M7.02942 37.3137L26.8284 17.5147C27.6095 16.7337 28.8758 16.7337 29.6568 17.5147L32.4853 20.3432C33.2663 21.1242 33.2663 22.3905 32.4853 23.1716L12.6863 42.9706C11.9052 43.7516 10.6389 43.7516 9.85785 42.9706L7.02942 40.1422C6.24837 39.3611 6.24837 38.0948 7.02942 37.3137Z" fill="black"/>
<path fill-rule="evenodd" clip-rule="evenodd" d="M19.7574 13.2721L26.8285 6.20102C27.6095 5.41997 28.8758 5.41997 29.6569 6.20102L43.799 20.3432C44.5801 21.1242 44.5801 22.3905 43.799 23.1716L36.7279 30.2427C35.9469 31.0237 34.6806 31.0237 33.8995 30.2427L19.7574 16.1005C18.9763 15.3195 18.9763 14.0531 19.7574 13.2721Z" fill="black"/>
<path opacity="0.3" fill-rule="evenodd" clip-rule="evenodd" d="M34.6066 9.73665L36.0208 8.32243C36.4114 7.93191 37.0445 7.93191 37.435 8.32243L41.6777 12.5651C42.0682 12.9556 42.0682 13.5888 41.6777 13.9793L40.2635 15.3935C39.8729 15.784 39.2398 15.784 38.8493 15.3935L34.6066 11.1509C34.2161 10.7603 34.2161 10.1272 34.6066 9.73665Z" fill="black"/>
</svg>
