<svg width="48" height="48" viewBox="0 0 48 48" fill="none" xmlns="http://www.w3.org/2000/svg">
<path opacity="0.3" fill-rule="evenodd" clip-rule="evenodd" d="M11.8327 2.22609C12.1477 1.91111 12.6863 2.13419 12.6863 2.57964L12.6863 9.85785L26.8284 24L24 26.8284L9.85783 12.6862L2.57969 12.6862C2.13423 12.6862 1.91115 12.1477 2.22613 11.8327L6.32231 7.73651L7.73652 6.3223L11.8327 2.22609Z" fill="black"/>
<path fill-rule="evenodd" clip-rule="evenodd" d="M33.8995 19.7573L39.5498 26.2769C41.7842 28.8551 42.7003 32.3218 42.0312 35.6672L41.232 39.6631C41.0737 40.4548 40.4548 41.0737 39.6631 41.232L35.6672 42.0312C32.3218 42.7003 28.8551 41.7842 26.2769 39.5498L19.7573 33.8995L33.8995 19.7573ZM27.0902 32.0473C25.5634 30.7554 23.6256 33.0455 25.1524 34.3374L29.7486 38.2265C31.2754 39.5184 33.2132 37.2282 31.6864 35.9363L27.0902 32.0473Z" fill="black"/>
</svg>
