<svg width="48" height="48" viewBox="0 0 48 48" fill="none" xmlns="http://www.w3.org/2000/svg">
<path opacity="0.3" d="M28.0104 2.01908C28.2057 1.82382 28.5223 1.82382 28.7175 2.01908L44.981 18.2825C45.1763 18.4778 45.1763 18.7944 44.981 18.9896L31.8995 32.0711C29.9469 34.0237 26.7811 34.0237 24.8285 32.0711L14.929 22.1716C12.9763 20.219 12.9763 17.0532 14.929 15.1006L28.0104 2.01908Z" fill="black"/>
<path fill-rule="evenodd" clip-rule="evenodd" d="M22.7629 32.834L14.1668 24.2378L6.38859 32.016C4.43597 33.9686 4.43597 37.1344 6.38859 39.087L7.9137 40.6121C9.86632 42.5648 13.0321 42.5648 14.9848 40.6121L22.7629 32.834ZM13.2303 37.8475C12.1145 38.9633 10.297 38.9549 9.17086 37.8287C8.0447 36.7026 8.03629 34.8851 9.15208 33.7693C10.2679 32.6535 12.0853 32.6619 13.2115 33.7881C14.3376 34.9143 14.346 36.7317 13.2303 37.8475Z" fill="black"/>
</svg>
