<svg width="48" height="48" viewBox="0 0 48 48" fill="none" xmlns="http://www.w3.org/2000/svg">
<path fill-rule="evenodd" clip-rule="evenodd" d="M31.8995 7.61517L26.0492 13.4654C24.4871 15.0275 24.4871 17.5602 26.0492 19.1223L28.8776 21.9507C30.4397 23.5128 32.9724 23.5128 34.5345 21.9507L40.3848 16.1005C41.4682 20.0895 40.4592 24.5113 37.3491 27.6214C33.6907 31.2798 28.2171 32.031 23.768 29.8888L13.5147 40.1421C11.9526 41.7042 9.41996 41.7042 7.85786 40.1421C6.29576 38.58 6.29576 36.0473 7.85786 34.4852L18.1111 24.232C15.9689 19.7828 16.7201 14.3093 20.3786 10.6508C23.4886 7.54076 27.9104 6.53173 31.8995 7.61517Z" fill="black"/>
<path opacity="0.3" fill-rule="evenodd" clip-rule="evenodd" d="M33.3137 11.8578L36.1421 14.6862C36.9232 15.4672 36.9232 16.7336 36.1421 17.5146L33.3828 20.274C32.6017 21.055 31.3354 21.055 30.5543 20.274L27.7259 17.4455C26.9449 16.6645 26.9449 15.3982 27.7259 14.6171L30.4853 11.8578C31.2663 11.0767 32.5327 11.0767 33.3137 11.8578Z" fill="black"/>
</svg>
