<svg width="48" height="48" viewBox="0 0 48 48" fill="none" xmlns="http://www.w3.org/2000/svg">
<path fill-rule="evenodd" clip-rule="evenodd" d="M8.34718 16C7.24261 16 6.34718 16.8954 6.34718 18V38C6.34718 39.1046 7.24262 40 8.34719 40H39.653C40.7576 40 41.653 39.1046 41.653 38V18C41.653 16.8954 40.7576 16 39.653 16H8.34718ZM20.5 20C20.2239 20 20 20.2239 20 20.5V23.5C20 23.7761 20.2239 24 20.5 24H27.5C27.7761 24 28 23.7761 28 23.5V20.5C28 20.2239 27.7761 20 27.5 20H20.5Z" fill="black"/>
<path opacity="0.3" d="M20 16H16V14C16 10.6863 18.6863 8 22 8H26C29.3137 8 32 10.6863 32 14V16H28V14C28 12.8954 27.1046 12 26 12H22C20.8954 12 20 12.8954 20 14V16Z" fill="black"/>
</svg>
