<svg width="48" height="48" viewBox="0 0 48 48" fill="none" xmlns="http://www.w3.org/2000/svg">
<path d="M36.5282 36L19.8188 21.9014C16.4896 19.0923 16.0679 14.1162 18.8769 10.787C20.2535 9.15544 22.2327 8.15158 24.3624 8.0047C28.3401 7.73038 31.787 10.7326 32.0613 14.7102C32.2097 16.8609 31.3891 18.9653 29.8242 20.4479L27.0732 17.544C27.7711 16.8829 28.137 15.9445 28.0708 14.9854C27.9485 13.2117 26.4114 11.8729 24.6376 11.9952C23.588 12.0676 22.6126 12.5624 21.9341 13.3665C20.5496 15.0073 20.7575 17.4598 22.3983 18.8442L41.1987 34.7071C41.8743 35.2771 42.2641 36.116 42.2641 37C42.2641 38.6568 40.921 40 39.2641 40H8.05465C7.09901 40 6.20056 39.5447 5.63543 38.7741C4.65563 37.438 4.94446 35.5606 6.28055 34.5807L18.8173 25.3872L21.1827 28.6128L11.1093 36H36.5282Z" fill="black"/>
</svg>
