<svg width="48" height="48" viewBox="0 0 48 48" fill="none" xmlns="http://www.w3.org/2000/svg">
<path opacity="0.3" fill-rule="evenodd" clip-rule="evenodd" d="M11.0001 8.97217C11.0151 7.32813 12.3524 6 14 6H34C35.6472 6 36.9843 7.32749 36.9999 8.97097L46.046 14.1937C46.5243 14.4699 46.6881 15.0815 46.412 15.5598L42.0995 23.0292C41.8233 23.5075 41.2118 23.6714 40.7335 23.3953L37 21.2397V39C37 39.5523 36.5523 40 36 40H12C11.4477 40 11 39.5523 11 39V21.2409L7.2686 23.3953C6.79031 23.6714 6.17872 23.5075 5.90257 23.0292L1.59007 15.5598C1.31393 15.0815 1.47781 14.4699 1.9561 14.1937L11.0001 8.97217Z" fill="black"/>
<path fill-rule="evenodd" clip-rule="evenodd" d="M20.2676 6C20.1004 6 19.9443 6.08355 19.8515 6.22265L18.2623 8.60645C18.1151 8.82724 18.1661 9.12458 18.3784 9.2838L22 12L20.0353 25.7525C20.0131 25.9083 20.0655 26.0655 20.1767 26.1768L23.6464 29.6464C23.8417 29.8417 24.1583 29.8417 24.3535 29.6464L27.8232 26.1768C27.9345 26.0655 27.9869 25.9083 27.9646 25.7525L26 12L29.6216 9.2838C29.8339 9.12458 29.8848 8.82724 29.7376 8.60645L28.1484 6.22265C28.0557 6.08355 27.8996 6 27.7324 6H20.2676Z" fill="black"/>
</svg>
