<svg width="48" height="48" viewBox="0 0 48 48" fill="none" xmlns="http://www.w3.org/2000/svg">
<path fill-rule="evenodd" clip-rule="evenodd" d="M6.67553 6.89226C6.84505 6.42608 7.38802 6.2276 7.80554 6.49542C9.70397 7.71317 14.4174 11.0435 16 15C17.464 18.66 21.607 24.4632 23.7226 27.311C24.4811 28.332 25.8069 28.7311 27.0136 28.3288L33.5029 26.1657C33.8142 26.062 34.1566 26.1175 34.4191 26.3144L45.0098 34.2574C45.3696 34.5272 45.218 35.0978 44.7718 35.1536L24.4069 37.6992C22.9277 37.8841 21.4697 37.2325 20.6106 36.0141C18.511 33.0364 14.6044 27.5936 13 26C11.7168 24.7256 9.93035 23.0907 8.22183 21.5648C5.11043 18.786 3.94484 14.4016 5.37048 10.4811L6.67553 6.89226Z" fill="black"/>
<path opacity="0.3" fill-rule="evenodd" clip-rule="evenodd" d="M5 17C5 17 7 27 7 30C7 33 7 38 7 38H10C10 38 10 30 10 27.5C10 25 13 26 13 26L5 17Z" fill="black"/>
</svg>
