<svg width="48" height="48" viewBox="0 0 48 48" fill="none" xmlns="http://www.w3.org/2000/svg">
<path opacity="0.3" fill-rule="evenodd" clip-rule="evenodd" d="M4.06068 22.4249C3.47489 23.0107 3.47489 23.9604 4.06068 24.5462L10.4246 30.9102C11.0104 31.4959 11.9602 31.4959 12.546 30.9102L18.9099 24.5462C19.4957 23.9604 19.4957 23.0107 18.9099 22.4249L12.546 16.0609C11.9602 15.4751 11.0104 15.4751 10.4246 16.0609L4.06068 22.4249ZM28.0607 22.4249C27.4749 23.0107 27.4749 23.9604 28.0607 24.5462L34.4246 30.9102C35.0104 31.4959 35.9602 31.4959 36.546 30.9102L42.9099 24.5462C43.4957 23.9604 43.4957 23.0107 42.9099 22.4249L36.546 16.0609C35.9602 15.4751 35.0104 15.4751 34.4246 16.0609L28.0607 22.4249Z" fill="black"/>
<path fill-rule="evenodd" clip-rule="evenodd" d="M16.0607 10.4249C15.4749 11.0107 15.4749 11.9604 16.0607 12.5462L22.4246 18.9102C23.0104 19.496 23.9602 19.496 24.546 18.9102L30.9099 12.5462C31.4957 11.9604 31.4957 11.0107 30.9099 10.4249L24.546 4.06092C23.9602 3.47514 23.0104 3.47514 22.4246 4.06092L16.0607 10.4249ZM16.0607 34.4249C15.4749 35.0107 15.4749 35.9604 16.0607 36.5462L22.4246 42.9102C23.0104 43.496 23.9602 43.496 24.546 42.9102L30.9099 36.5462C31.4957 35.9604 31.4957 35.0107 30.9099 34.4249L24.546 28.0609C23.9602 27.4751 23.0104 27.4751 22.4246 28.0609L16.0607 34.4249Z" fill="black"/>
</svg>
