<svg width="48" height="48" viewBox="0 0 48 48" fill="none" xmlns="http://www.w3.org/2000/svg">
<rect opacity="0.3" x="22" y="16" width="4" height="18" rx="1" fill="black"/>
<path fill-rule="evenodd" clip-rule="evenodd" d="M16 38C16 42.4183 19.5817 46 24 46C28.4183 46 32 42.4183 32 38C32 33.5817 28.4183 30 24 30C19.5817 30 16 33.5817 16 38ZM28 38C28 40.2091 26.2091 42 24 42C21.7909 42 20 40.2091 20 38C20 35.7909 21.7909 34 24 34C26.2091 34 28 35.7909 28 38Z" fill="black"/>
<path fill-rule="evenodd" clip-rule="evenodd" d="M16 10C16 14.4183 19.5817 18 24 18C28.4183 18 32 14.4183 32 10C32 5.58172 28.4183 2 24 2C19.5817 2 16 5.58172 16 10ZM28 10C28 12.2091 26.2091 14 24 14C21.7909 14 20 12.2091 20 10C20 7.79086 21.7909 6 24 6C26.2091 6 28 7.79086 28 10Z" fill="black"/>
</svg>
