<svg width="48" height="48" viewBox="0 0 48 48" fill="none" xmlns="http://www.w3.org/2000/svg">
<path opacity="0.3" fill-rule="evenodd" clip-rule="evenodd" d="M11 16C10.4477 16 10 16.4477 10 17V31C10 31.5523 10.4477 32 11 32H13C13.5523 32 14 31.5523 14 31V26H30C34.4183 26 38 22.4183 38 18V16H34V18C34 20.2091 32.2091 22 30 22H14V17C14 16.4477 13.5523 16 13 16H11Z" fill="black"/>
<path fill-rule="evenodd" clip-rule="evenodd" d="M4 38C4 42.4183 7.58172 46 12 46C16.4183 46 20 42.4183 20 38C20 33.5817 16.4183 30 12 30C7.58172 30 4 33.5817 4 38ZM16 38C16 40.2091 14.2091 42 12 42C9.79086 42 8 40.2091 8 38C8 35.7909 9.79086 34 12 34C14.2091 34 16 35.7909 16 38Z" fill="black"/>
<path fill-rule="evenodd" clip-rule="evenodd" d="M28 10C28 14.4183 31.5817 18 36 18C40.4183 18 44 14.4183 44 10C44 5.58172 40.4183 2 36 2C31.5817 2 28 5.58172 28 10ZM40 10C40 12.2091 38.2091 14 36 14C33.7909 14 32 12.2091 32 10C32 7.79086 33.7909 6 36 6C38.2091 6 40 7.79086 40 10Z" fill="black"/>
<path fill-rule="evenodd" clip-rule="evenodd" d="M4 10C4 14.4183 7.58172 18 12 18C16.4183 18 20 14.4183 20 10C20 5.58172 16.4183 2 12 2C7.58172 2 4 5.58172 4 10ZM16 10C16 12.2091 14.2091 14 12 14C9.79086 14 8 12.2091 8 10C8 7.79086 9.79086 6 12 6C14.2091 6 16 7.79086 16 10Z" fill="black"/>
</svg>
