<svg width="48" height="48" viewBox="0 0 48 48" fill="none" xmlns="http://www.w3.org/2000/svg">
<path opacity="0.3" fill-rule="evenodd" clip-rule="evenodd" d="M24 44C35.0457 44 44 35.0457 44 24C44 12.9543 35.0457 4 24 4C12.9543 4 4 12.9543 4 24C4 35.0457 12.9543 44 24 44Z" fill="black"/>
<path d="M29.355 14.9265C30.0245 14.257 30.0245 13.1716 29.355 12.5021C28.6855 11.8326 27.6001 11.8326 26.9307 12.5021L16.6449 22.7878C15.996 23.4368 15.9732 24.4818 16.5934 25.1584L26.022 35.4441C26.6618 36.142 27.7462 36.1892 28.4441 35.5494C29.142 34.9096 29.1891 33.8252 28.5494 33.1273L20.2299 24.0516L29.355 14.9265Z" fill="black"/>
</svg>
