<svg width="48" height="48" viewBox="0 0 48 48" fill="none" xmlns="http://www.w3.org/2000/svg">
<path opacity="0.3" fill-rule="evenodd" clip-rule="evenodd" d="M24 44C35.0457 44 44 35.0457 44 24C44 12.9543 35.0457 4 24 4C12.9543 4 4 12.9543 4 24C4 35.0457 12.9543 44 24 44Z" fill="black"/>
<path fill-rule="evenodd" clip-rule="evenodd" d="M19 18.5C19 17.1193 20.1193 16 21.5 16H26.5C27.8807 16 29 17.1193 29 18.5V22H30C30.5523 22 31 22.4477 31 23V31C31 31.5523 30.5523 32 30 32H18C17.4477 32 17 31.5523 17 31V23C17 22.4477 17.4477 22 18 22H19V18.5ZM22.5 18C21.6716 18 21 18.6716 21 19.5V22H27V19.5C27 18.6716 26.3284 18 25.5 18H22.5Z" fill="black"/>
</svg>
