<svg width="48" height="48" viewBox="0 0 48 48" fill="none" xmlns="http://www.w3.org/2000/svg">
<path opacity="0.3" fill-rule="evenodd" clip-rule="evenodd" d="M24 44C35.0457 44 44 35.0457 44 24C44 12.9543 35.0457 4 24 4C12.9543 4 4 12.9543 4 24C4 35.0457 12.9543 44 24 44Z" fill="black"/>
<path fill-rule="evenodd" clip-rule="evenodd" d="M26 13C26 12.4477 25.5523 12 25 12H23C22.4477 12 22 12.4477 22 13V22H13C12.4477 22 12 22.4477 12 23V25C12 25.5523 12.4477 26 13 26H22V35C22 35.5523 22.4477 36 23 36H25C25.5523 36 26 35.5523 26 35V26H35C35.5523 26 36 25.5523 36 25V23C36 22.4477 35.5523 22 35 22H26V13Z" fill="black"/>
</svg>
