<svg width="48" height="48" viewBox="0 0 48 48" fill="none" xmlns="http://www.w3.org/2000/svg">
<path opacity="0.3" fill-rule="evenodd" clip-rule="evenodd" d="M16 7C16 5.34315 17.3431 4 19 4H25C26.6569 4 28 5.34315 28 7V12H36C37.1046 12 38 12.8954 38 14V22H43C44.6569 22 46 23.3431 46 25V31C46 32.6569 44.6569 34 43 34H38V42C38 43.1046 37.1046 44 36 44H8C6.89543 44 6 43.1046 6 42V34H13C14.6569 34 16 32.6569 16 31V25C16 23.3431 14.6569 22 13 22H6V14C6 12.8954 6.89543 12 8 12H16V7Z" fill="black"/>
</svg>
