<svg width="48" height="48" viewBox="0 0 48 48" fill="none" xmlns="http://www.w3.org/2000/svg">
<path opacity="0.3" fill-rule="evenodd" clip-rule="evenodd" d="M24 44C35.0457 44 44 35.0457 44 24C44 12.9543 35.0457 4 24 4C12.9543 4 4 12.9543 4 24C4 35.0457 12.9543 44 24 44Z" fill="black"/>
<path d="M18.645 14.9265C17.9755 14.257 17.9755 13.1716 18.645 12.5021C19.3144 11.8326 20.3999 11.8326 21.0693 12.5021L31.3551 22.7878C32.004 23.4368 32.0268 24.4818 31.4066 25.1584L21.978 35.4441C21.3382 36.142 20.2538 36.1892 19.5559 35.5494C18.858 34.9096 18.8109 33.8252 19.4506 33.1273L27.7701 24.0516L18.645 14.9265Z" fill="black"/>
</svg>
