<svg width="48" height="48" viewBox="0 0 48 48" fill="none" xmlns="http://www.w3.org/2000/svg">
<path fill-rule="evenodd" clip-rule="evenodd" d="M13.9999 37.9998L13.9999 27.9998L4.61926 27.9998C3.79084 27.9998 3.11926 27.3282 3.11926 26.4998C3.11926 26.1022 3.27714 25.7208 3.55819 25.4395L22.9217 6.06085C23.5073 5.47483 24.457 5.47446 25.043 6.06002L44.4369 25.4387C45.0229 26.0243 45.0233 26.974 44.4377 27.56C44.1564 27.8416 43.7747 27.9998 43.3766 27.9998H33.9999L33.9999 37.9998C33.9999 39.1043 33.1045 39.9998 31.9999 39.9998L15.9999 39.9998C14.8954 39.9998 13.9999 39.1043 13.9999 37.9998ZM30 23.9998L37.3378 23.9998L23.9842 10.6567L10.6515 23.9998L18 23.9998L18 35.9998H30L30 23.9998Z" fill="black"/>
</svg>
