<svg width="48" height="48" viewBox="0 0 48 48" fill="none" xmlns="http://www.w3.org/2000/svg">
<path opacity="0.3" fill-rule="evenodd" clip-rule="evenodd" d="M24 44C35.0457 44 44 35.0457 44 24C44 12.9543 35.0457 4 24 4C12.9543 4 4 12.9543 4 24C4 35.0457 12.9543 44 24 44Z" fill="black"/>
<path fill-rule="evenodd" clip-rule="evenodd" d="M22 36.8229C22 37.6144 23.0669 37.8662 23.4208 37.1584L31.4573 21.0854C31.7066 20.5867 31.344 20 30.7865 20H24V11.1771C24 10.3856 22.9331 10.1338 22.5792 10.8416L14.5427 26.9146C14.2934 27.4133 14.656 28 15.2135 28H22V36.8229Z" fill="black"/>
</svg>
