<svg width="48" height="48" viewBox="0 0 48 48" fill="none" xmlns="http://www.w3.org/2000/svg">
<path opacity="0.3" d="M8.2422 9C8.2422 8.44772 8.68992 8 9.2422 8H38.7579C39.3102 8 39.7579 8.44772 39.7579 9V40C39.7579 41.1046 38.8625 42 37.7579 42H10.2422C9.13763 42 8.2422 41.1046 8.2422 40V9Z" fill="black"/>
<path fill-rule="evenodd" clip-rule="evenodd" d="M14 14H18C18 17.3137 20.6863 20 24 20C27.3137 20 30 17.3137 30 14H34C34 19.5228 29.5228 24 24 24C18.4772 24 14 19.5228 14 14Z" fill="black"/>
</svg>
