<svg width="48" height="48" viewBox="0 0 48 48" fill="none" xmlns="http://www.w3.org/2000/svg">
<rect opacity="0.3" x="8" y="8" width="16" height="32" fill="black"/>
<path fill-rule="evenodd" clip-rule="evenodd" d="M36 12H30C30 12 28 11.6569 28 10C28 8.34315 30 8 30 8H40V18C40 18 40 20 38 20C36 20 36 18 36 18V12ZM18 36H12V30C12 30 12 28 10 28C8 28 8 30 8 30V40H18C18 40 20 39.6569 20 38C20 36.3431 18 36 18 36ZM36 30V36H30C30 36 28 36 28 38C28 40 30 40 30 40H40V30C40 30 39.6569 28 38 28C36.3431 28 36 30 36 30ZM12 18V12H18C18 12 20 12 20 10C20 8 18 8 18 8H8V18C8 18 8.34315 20 10 20C11.6569 20 12 18 12 18Z" fill="black"/>
</svg>
