<svg width="48" height="48" viewBox="0 0 48 48" fill="none" xmlns="http://www.w3.org/2000/svg">
<path opacity="0.3" fill-rule="evenodd" clip-rule="evenodd" d="M40.8123 13.4722C41.5345 13.7932 42 14.5095 42 15.2998V32.8233C42 33.5496 41.6062 34.2189 40.9713 34.5716L24.9713 43.4605C24.3672 43.7961 23.6328 43.7961 23.0287 43.4605L7.02871 34.5716C6.39378 34.2189 6 33.5496 6 32.8233L6 15.2998C6 14.5095 6.46547 13.7932 7.18772 13.4722L23.1877 6.3611C23.7049 6.13126 24.2951 6.13126 24.8123 6.3611L40.8123 13.4722Z" fill="black"/>
<path fill-rule="evenodd" clip-rule="evenodd" d="M29.9343 8.44873L15.2 16.6345V25.8113L19.2 27.8113V18.9881L34.5101 10.4824L29.9343 8.44873Z" fill="black"/>
</svg>
