<svg width="48" height="48" viewBox="0 0 48 48" fill="none" xmlns="http://www.w3.org/2000/svg">
<path opacity="0.3" fill-rule="evenodd" clip-rule="evenodd" d="M33.986 12.821L35.2124 7.56507C35.4616 6.49703 36.4137 5.74146 37.5105 5.74146H41.6402C42.9435 5.74146 44 6.79799 44 8.10129C44 9.40459 42.9435 10.4611 41.6402 10.4611H39.3831L36.2892 23.688L34.7275 33.0585C34.6357 33.609 34.1112 33.9778 33.5622 33.878L9.21426 29.4511C8.83965 29.383 8.53622 29.108 8.43162 28.7419L4.24699 14.0957C4.06447 13.4569 4.54413 12.821 5.20851 12.821H33.986Z" fill="black"/>
<path fill-rule="evenodd" clip-rule="evenodd" d="M16 39C16 40.6569 14.6569 42 13 42C11.3431 42 10 40.6569 10 39C10 37.3431 11.3431 36 13 36C14.6569 36 16 37.3431 16 39ZM34 39C34 40.6569 32.6569 42 31 42C29.3431 42 28 40.6569 28 39C28 37.3431 29.3431 36 31 36C32.6569 36 34 37.3431 34 39Z" fill="black"/>
</svg>
