<svg width="48" height="48" viewBox="0 0 48 48" fill="none" xmlns="http://www.w3.org/2000/svg">
<path opacity="0.3" d="M24.0001 9.1241L15.5365 19.2804C14.8294 20.1289 13.5682 20.2436 12.7197 19.5364C11.8711 18.8293 11.7565 17.5682 12.4636 16.7196L22.4636 4.71963C23.2632 3.76012 24.7369 3.76012 25.5365 4.71963L35.5365 16.7196C36.2436 17.5682 36.129 18.8293 35.2804 19.5364C34.4319 20.2436 33.1707 20.1289 32.4636 19.2804L24.0001 9.1241Z" fill="black"/>
<path fill-rule="evenodd" clip-rule="evenodd" d="M7.99841 18C7.44613 18 6.99841 18.4477 6.99841 19V39C6.99841 40.6569 8.34156 42 9.99841 42H38C39.6568 42 41 40.6569 41 39V19C41 18.4477 40.5523 18 40 18H7.99841ZM28 30C28 32.2091 26.2091 34 24 34C21.7909 34 20 32.2091 20 30C20 27.7909 21.7909 26 24 26C26.2091 26 28 27.7909 28 30Z" fill="black"/>
</svg>
