<svg width="48" height="48" viewBox="0 0 48 48" fill="none" xmlns="http://www.w3.org/2000/svg">
<path d="M10 38H40C41.1046 38 42 38.8954 42 40C42 41.1046 41.1046 42 40 42H8C6.89543 42 6 41.1046 6 40V8C6 6.89543 6.89543 6 8 6C9.10457 6 10 6.89543 10 8V38Z" fill="black"/>
<path opacity="0.3" d="M17.4591 13.632C16.7036 12.8262 15.4379 12.7854 14.6321 13.5408C13.8263 14.2963 13.7855 15.562 14.5409 16.3678L22.0409 24.3678C22.7716 25.1471 23.9856 25.2147 24.7982 24.5213L30.7177 19.47L38.4302 29.2392C39.1147 30.1062 40.3723 30.2541 41.2393 29.5697C42.1063 28.8852 42.2542 27.6276 41.5698 26.7606L32.5698 15.3606C31.8668 14.4702 30.5647 14.3421 29.7018 15.0785L23.6537 20.2396L17.4591 13.632Z" fill="black"/>
</svg>
