<svg width="48" height="48" viewBox="0 0 48 48" fill="none" xmlns="http://www.w3.org/2000/svg">
<rect opacity="0.3" x="23" y="4" width="4" height="8" rx="1" fill="black"/>
<rect opacity="0.3" x="23" y="32" width="4" height="10" rx="1" fill="black"/>
<path fill-rule="evenodd" clip-rule="evenodd" d="M30.986 16.0881C30.4286 15.3788 29.7003 14.8151 28.801 14.3971C27.9016 13.9791 27.034 13.7701 26.198 13.7701C25.7673 13.7701 25.3303 13.8081 24.887 13.8841C24.4436 13.9601 24.0446 14.1058 23.69 14.3211C23.3353 14.5364 23.0376 14.8151 22.797 15.1571C22.5563 15.4991 22.436 15.9361 22.436 16.4681C22.436 16.9241 22.531 17.3041 22.721 17.6081C22.911 17.9121 23.1896 18.1781 23.557 18.4061C23.9243 18.6341 24.3613 18.8431 24.868 19.0331C25.3746 19.2231 25.9446 19.4194 26.578 19.6221C27.49 19.9261 28.44 20.2618 29.428 20.6291C30.416 20.9964 31.3153 21.4841 32.126 22.0921C32.9366 22.7001 33.608 23.4538 34.14 24.3531C34.672 25.2524 34.938 26.3734 34.938 27.7161C34.938 29.2615 34.653 30.5978 34.083 31.7251C33.513 32.8525 32.7466 33.7834 31.784 34.5181C30.8213 35.2528 29.7193 35.7974 28.478 36.1521C27.2366 36.5068 25.9573 36.6841 24.64 36.6841C22.7146 36.6841 20.8526 36.3484 19.054 35.6771C17.2553 35.0058 15.7606 34.0495 14.57 32.8081L18.826 28.4761C19.4846 29.2868 20.3523 29.9644 21.429 30.5091C22.5056 31.0538 23.576 31.3261 24.64 31.3261C25.1213 31.3261 25.59 31.2754 26.046 31.1741C26.502 31.0728 26.901 30.9081 27.243 30.6801C27.585 30.4521 27.8573 30.1481 28.06 29.7681C28.2626 29.3881 28.364 28.9321 28.364 28.4001C28.364 27.8934 28.2373 27.4628 27.984 27.1081C27.7306 26.7534 27.3696 26.4304 26.901 26.1391C26.4323 25.8478 25.8496 25.5818 25.153 25.3411C24.4563 25.1004 23.6646 24.8408 22.778 24.5621C21.9166 24.2834 21.0743 23.9541 20.251 23.5741C19.4276 23.1941 18.693 22.7064 18.047 22.1111C17.401 21.5158 16.8816 20.7938 16.489 19.9451C16.0963 19.0964 15.9 18.0641 15.9 16.8481C15.9 15.3534 16.204 14.0741 16.812 13.0101C17.42 11.9461 18.218 11.0721 19.206 10.3881C20.194 9.70411 21.3086 9.20378 22.55 8.88711C23.7913 8.57044 25.0453 8.41211 26.312 8.41211C27.832 8.41211 29.3836 8.69077 30.967 9.24811C32.5503 9.80545 33.9373 10.6288 35.128 11.7181L30.986 16.0881Z" fill="black"/>
</svg>
