<svg width="48" height="48" viewBox="0 0 48 48" fill="none" xmlns="http://www.w3.org/2000/svg">
<path opacity="0.3" fill-rule="evenodd" clip-rule="evenodd" d="M8.80901 22C8.43732 22 8.19557 21.6088 8.3618 21.2764L9.8618 18.2764C9.94649 18.107 10.1196 18 10.309 18H31.191C31.5627 18 31.8044 18.3912 31.6382 18.7236L30.1382 21.7236C30.0535 21.893 29.8804 22 29.691 22H8.80901ZM29.191 26C29.5627 26 29.8044 26.3912 29.6382 26.7236L28.1382 29.7236C28.0535 29.893 27.8804 30 27.691 30H8.80901C8.43732 30 8.19557 29.6088 8.3618 29.2764L9.8618 26.2764C9.94649 26.107 10.1196 26 10.309 26H29.191Z" fill="black"/>
<path fill-rule="evenodd" clip-rule="evenodd" d="M34.738 15.2361C33.954 14.1721 32.932 13.3951 31.672 12.9051C30.412 12.4151 29.18 12.1701 27.976 12.1701C26.436 12.1701 25.036 12.4501 23.776 13.0101C22.516 13.5701 21.431 14.3401 20.521 15.3201C19.611 16.3001 18.911 17.448 18.421 18.7641C17.931 20.0801 17.686 21.508 17.686 23.0481C17.686 24.6721 17.924 26.156 18.4 27.5001C18.876 28.8441 19.555 29.9991 20.437 30.9651C21.319 31.9311 22.376 32.6801 23.608 33.2121C24.84 33.7441 26.226 34.0101 27.766 34.0101C29.362 34.0101 30.776 33.6951 32.008 33.0651C33.24 32.4351 34.234 31.6021 34.99 30.5661L39.232 33.5481C37.916 35.2001 36.306 36.4811 34.402 37.3911C32.498 38.3011 30.272 38.7561 27.724 38.7561C25.4 38.7561 23.265 38.3711 21.319 37.6011C19.373 36.8311 17.7 35.7531 16.3 34.3671C14.9 32.981 13.808 31.3291 13.024 29.4111C12.24 27.493 11.848 25.3721 11.848 23.0481C11.848 20.668 12.261 18.5191 13.087 16.6011C13.913 14.683 15.047 13.0521 16.489 11.7081C17.931 10.364 19.632 9.32806 21.592 8.60006C23.552 7.87205 25.68 7.50806 27.976 7.50806C28.928 7.50806 29.922 7.59906 30.958 7.78106C31.994 7.96306 32.988 8.24305 33.94 8.62106C34.892 8.99906 35.788 9.46805 36.628 10.0281C37.468 10.5881 38.182 11.2601 38.77 12.0441L34.738 15.2361Z" fill="black"/>
</svg>
