<svg width="48" height="48" viewBox="0 0 48 48" fill="none" xmlns="http://www.w3.org/2000/svg">
<path fill-rule="evenodd" clip-rule="evenodd" d="M6 13C6 12.4477 6.44772 12 7 12H41C41.5523 12 42 12.4477 42 13V17C42 17.5523 41.5523 18 41 18H7C6.44772 18 6 17.5523 6 17V13ZM8 23C8 22.4477 8.44772 22 9 22H21C21.5523 22 22 22.4477 22 23V39C22 39.5523 21.5523 40 21 40H9C8.44772 40 8 39.5523 8 39V23ZM27 22C26.4477 22 26 22.4477 26 23V39C26 39.5523 26.4477 40 27 40H39C39.5523 40 40 39.5523 40 39V23C40 22.4477 39.5523 22 39 22H27Z" fill="black"/>
<path opacity="0.3" d="M28.8906 4.33587C29.8096 3.72316 31.0514 3.97151 31.6641 4.89057C32.2768 5.80963 32.0284 7.05136 31.1094 7.66407L24 12.4037L16.8906 7.66407C15.9715 7.05136 15.7232 5.80963 16.3359 4.89057C16.9486 3.97151 18.1903 3.72316 19.1094 4.33587L24 7.59627L28.8906 4.33587Z" fill="black"/>
</svg>
