<svg width="48" height="48" viewBox="0 0 48 48" fill="none" xmlns="http://www.w3.org/2000/svg">
<path opacity="0.3" d="M21.6454 16.7388L25.4649 19.646C26.8225 17.8623 28.9186 16.8 31.2 16.8C35.1765 16.8 38.4 20.0236 38.4 24C38.4 27.9764 35.1765 31.2 31.2 31.2C29.163 31.2 27.2727 30.3561 25.9148 28.8895L22.3927 32.1506C24.5846 34.518 27.7192 36 31.2 36C37.8274 36 43.2 30.6274 43.2 24C43.2 17.3726 37.8274 12 31.2 12C27.3016 12 23.8373 13.859 21.6454 16.7388Z" fill="black"/>
<path fill-rule="evenodd" clip-rule="evenodd" d="M16.8 36C10.1726 36 4.80005 30.6274 4.80005 24C4.80005 17.3726 10.1726 12 16.8 12C23.4275 12 28.8 17.3726 28.8 24C28.8 30.6274 23.4275 36 16.8 36Z" fill="black"/>
</svg>
