<svg width="49" height="48" viewBox="0 0 49 48" fill="none" xmlns="http://www.w3.org/2000/svg">
<path opacity="0.3" fill-rule="evenodd" clip-rule="evenodd" d="M7.78734 7.23245C7.25387 7.08951 6.70553 7.40609 6.56259 7.93956L0.868573 29.1899C0.725631 29.7234 1.04221 30.2717 1.57568 30.4147L40.2127 40.7674C40.7462 40.9104 41.2945 40.5938 41.4375 40.0603L47.1315 18.81C47.2744 18.2765 46.9578 17.7282 46.4244 17.5852L7.78734 7.23245ZM31.7274 26.0705C30.5839 30.3382 26.1972 32.8708 21.9295 31.7273C17.6617 30.5838 15.1291 26.1971 16.2726 21.9294C17.4161 17.6616 21.8028 15.129 26.0706 16.2725C30.3383 17.416 32.8709 21.8027 31.7274 26.0705Z" fill="black"/>
<path fill-rule="evenodd" clip-rule="evenodd" d="M4 12C3.44772 12 3 12.4477 3 13V35C3 35.5523 3.44772 36 4 36H44C44.5523 36 45 35.5523 45 35V13C45 12.4477 44.5523 12 44 12H4ZM32 24C32 28.4183 28.4183 32 24 32C19.5817 32 16 28.4183 16 24C16 19.5817 19.5817 16 24 16C28.4183 16 32 19.5817 32 24ZM24 28C26.2091 28 28 26.2091 28 24C28 21.7909 26.2091 20 24 20C21.7909 20 20 21.7909 20 24C20 26.2091 21.7909 28 24 28Z" fill="black"/>
</svg>
