<svg width="48" height="48" viewBox="0 0 48 48" fill="none" xmlns="http://www.w3.org/2000/svg">
<path fill-rule="evenodd" clip-rule="evenodd" d="M15.65 20.4501C14.4 18.9501 13.7 16.8001 13.7 14.7501C13.7 9.1001 18.3 4.1001 24.7 4.1001C30.721 4.1001 35.3273 8.62693 35.7257 14.3377C35.7453 14.6181 35.5183 14.8501 35.2372 14.8501H30.65C30.3738 14.8501 30.1521 14.6255 30.1313 14.3502C29.9115 11.4396 27.776 9.2001 24.7 9.2001C21.5 9.2001 19.2 11.5501 19.2 14.7501C19.2 16.5326 20.0326 18.123 21.3353 19.1679C21.4715 19.2772 21.4 34.8501 21.4 34.8501H35.8194C36.171 34.8501 36.4128 35.2034 36.2855 35.5311L34.6739 39.6811C34.5992 39.8734 34.4141 40.0001 34.2078 40.0001H12.1C11.8238 40.0001 11.6 39.7762 11.6 39.5001V35.3501C11.6 35.074 11.8238 34.8501 12.1 34.8501H15.85V24.9501L15.65 20.4501Z" fill="black"/>
<path opacity="0.3" fill-rule="evenodd" clip-rule="evenodd" d="M8.80902 24C8.43733 24 8.19558 23.6088 8.3618 23.2764L9.8618 20.2764C9.9465 20.107 10.1196 20 10.309 20H31.191C31.5627 20 31.8044 20.3912 31.6382 20.7236L30.1382 23.7236C30.0535 23.893 29.8804 24 29.691 24H8.80902Z" fill="black"/>
</svg>
