<svg width="48" height="48" viewBox="0 0 48 48" fill="none" xmlns="http://www.w3.org/2000/svg">
<path d="M36.4716 11.2101C35.3007 10.0392 33.4024 10.0384 32.2306 11.2085L10.6255 32.7804C9.84339 33.5613 9.8429 34.8285 10.6244 35.61L12.4038 37.3894C13.1853 38.1709 14.4525 38.1704 15.2333 37.3883L36.8053 15.7832C37.9753 14.6113 37.9746 12.7131 36.8037 11.5421L36.4716 11.2101Z" fill="black"/>
<path opacity="0.3" fill-rule="evenodd" clip-rule="evenodd" d="M13.8601 19.7143C17.0939 19.7143 19.7143 17.0946 19.7143 13.8571C19.7143 10.6197 17.0939 8 13.8601 8C10.6263 8 8 10.6197 8 13.8571C8 17.0946 10.6263 19.7143 13.8601 19.7143ZM34.1459 40C37.3796 40 40 37.3803 40 34.1428C40 30.8994 37.3796 28.2857 34.1459 28.2857C30.9121 28.2857 28.2857 30.8994 28.2857 34.1428C28.2857 37.3803 30.9121 40 34.1459 40Z" fill="black"/>
</svg>
