<svg width="48" height="48" viewBox="0 0 48 48" fill="none" xmlns="http://www.w3.org/2000/svg">
<path opacity="0.3" fill-rule="evenodd" clip-rule="evenodd" d="M24 40.0438L16.9469 43.4573L13.7381 36.3087L6.14097 34.39L8.27788 26.8513L3.69147 20.4982L10.1742 16.0968L10.7445 8.28187L18.5398 9.07723L24 3.45728L29.4602 9.07723L37.2555 8.28187L37.8258 16.0968L44.3085 20.4982L39.7221 26.8513L41.859 34.39L34.2619 36.3087L31.0531 43.4573L24 40.0438Z" fill="black"/>
<path fill-rule="evenodd" clip-rule="evenodd" d="M28.1781 17.2051L16.7216 29.4028L19.4173 32.0986L30.8739 19.9009L28.1781 17.2051Z" fill="black"/>
<path opacity="0.3" fill-rule="evenodd" clip-rule="evenodd" d="M21.7087 18.3508C21.7087 20.2505 20.171 21.7878 18.2717 21.7878C16.3758 21.7878 14.8347 20.2505 14.8347 18.3508C14.8347 16.451 16.3758 14.9138 18.2717 14.9138C20.171 14.9138 21.7087 16.451 21.7087 18.3508Z" fill="black"/>
<path opacity="0.3" fill-rule="evenodd" clip-rule="evenodd" d="M29.7282 33.2443C27.8324 33.2443 26.2913 31.7071 26.2913 29.8073C26.2913 27.9041 27.8324 26.3704 29.7282 26.3704C31.6276 26.3704 33.1652 27.9041 33.1652 29.8073C33.1652 31.7071 31.6276 33.2443 29.7282 33.2443Z" fill="black"/>
</svg>
