<svg width="48" height="48" viewBox="0 0 48 48" fill="none" xmlns="http://www.w3.org/2000/svg">
<path opacity="0.3" fill-rule="evenodd" clip-rule="evenodd" d="M8.25 14C7.00736 14 6 15.0074 6 16.25V17.75C6 18.9926 7.00736 20 8.25 20H19.75C20.9926 20 22 18.9926 22 17.75V16.25C22 15.0074 20.9926 14 19.75 14H8.25ZM26.25 30C25.0074 30 24 31.0074 24 32.25V33.75C24 34.9926 25.0074 36 26.25 36H37.75C38.9926 36 40 34.9926 40 33.75V32.25C40 31.0074 38.9926 30 37.75 30H26.25Z" fill="black"/>
<path fill-rule="evenodd" clip-rule="evenodd" d="M40 16C40 19.3137 37.3137 22 34 22C30.6863 22 28 19.3137 28 16C28 12.6863 30.6863 10 34 10C37.3137 10 40 12.6863 40 16ZM18 32C18 35.3137 15.3137 38 12 38C8.68629 38 6 35.3137 6 32C6 28.6863 8.68629 26 12 26C15.3137 26 18 28.6863 18 32Z" fill="black"/>
</svg>
