<svg width="48" height="48" viewBox="0 0 48 48" fill="none" xmlns="http://www.w3.org/2000/svg">
<path fill-rule="evenodd" clip-rule="evenodd" d="M8 14C8 12.8954 8.89543 12 10 12H12C13.1046 12 14 12.8954 14 14V38C14 39.1046 13.1046 40 12 40H10C8.89543 40 8 39.1046 8 38V14ZM20 24C20 22.8954 20.8954 22 22 22H24C25.1046 22 26 22.8954 26 24V38C26 39.1046 25.1046 40 24 40H22C20.8954 40 20 39.1046 20 38V24ZM34 30C32.8954 30 32 30.8954 32 32V38C32 39.1046 32.8954 40 34 40H36C37.1046 40 38 39.1046 38 38V32C38 30.8954 37.1046 30 36 30H34Z" fill="black"/>
</svg>
