<svg width="48" height="48" viewBox="0 0 48 48" fill="none" xmlns="http://www.w3.org/2000/svg">
<rect x="8" y="10" width="32" height="6" rx="1.5" fill="black"/>
<path opacity="0.3" fill-rule="evenodd" clip-rule="evenodd" d="M13.5 22C12.6716 22 12 22.6716 12 23.5V26.5C12 27.3284 12.6716 28 13.5 28H34.5C35.3284 28 36 27.3284 36 26.5V23.5C36 22.6716 35.3284 22 34.5 22H13.5ZM19.5 34C18.6716 34 18 34.6716 18 35.5V38.5C18 39.3284 18.6716 40 19.5 40H28.5C29.3284 40 30 39.3284 30 38.5V35.5C30 34.6716 29.3284 34 28.5 34H19.5Z" fill="black"/>
</svg>
