<svg width="48" height="48" viewBox="0 0 48 48" fill="none" xmlns="http://www.w3.org/2000/svg">
<path opacity="0.3" fill-rule="evenodd" clip-rule="evenodd" d="M8 8H40C42.2091 8 44 9.79086 44 12V36C44 38.2091 42.2091 40 40 40H8C5.79086 40 4 38.2091 4 36V12C4 9.79086 5.79086 8 8 8Z" fill="black"/>
<path fill-rule="evenodd" clip-rule="evenodd" d="M37 22H11C9.34315 22 8 23.3431 8 25V26H17.1716C17.702 26 18.2107 26.2107 18.5858 26.5858L20.5858 28.5858C21.4913 29.4913 22.7194 30 24 30C25.2806 30 26.5087 29.4913 27.4142 28.5858L29.4142 26.5858C29.7893 26.2107 30.298 26 30.8284 26H40V25C40 23.3431 38.6569 22 37 22Z" fill="black"/>
<path fill-rule="evenodd" clip-rule="evenodd" d="M11 12C9.34315 12 8 13.3431 8 15V16H40V15C40 13.3431 38.6569 12 37 12H11Z" fill="black"/>
</svg>
