<svg width="48" height="48" viewBox="0 0 48 48" fill="none" xmlns="http://www.w3.org/2000/svg">
<path opacity="0.3" fill-rule="evenodd" clip-rule="evenodd" d="M16 6H10C8.89543 6 8 6.89543 8 8V44C8 45.1046 8.89543 46 10 46H38C39.1046 46 40 45.1046 40 44V8C40 6.89543 39.1046 6 38 6H32V7C32 8.65685 30.6569 10 29 10H19C17.3431 10 16 8.65685 16 7V6Z" fill="black"/>
<path fill-rule="evenodd" clip-rule="evenodd" d="M26 4H29.5C29.7761 4 30 4.22386 30 4.5V7.5C30 7.77614 29.7761 8 29.5 8H18.5C18.2239 8 18 7.77614 18 7.5V4.5C18 4.22386 18.2239 4 18.5 4H22C22 2.89543 22.8954 2 24 2C25.1046 2 26 2.89543 26 4Z" fill="black"/>
<rect opacity="0.3" x="14" y="20" width="10" height="4" rx="2" fill="black"/>
<rect opacity="0.3" x="14" y="28" width="18" height="4" rx="2" fill="black"/>
</svg>
