<svg width="48" height="48" viewBox="0 0 48 48" fill="none" xmlns="http://www.w3.org/2000/svg">
<path d="M22.1716 32.071L19.3431 29.2426L24.2929 24.2929C25.4644 23.1213 25.4644 21.2218 24.2929 20.0502C23.1213 18.8787 21.2218 18.8787 20.0502 20.0502L12.9792 27.1213C10.2455 29.855 10.2455 34.2871 12.9792 37.0208C15.7128 39.7545 20.145 39.7545 22.8787 37.0208L37.0208 22.8787C39.7545 20.145 39.7545 15.7128 37.0208 12.9792L36.3137 12.2721C33.9705 9.92891 30.1715 9.92891 27.8284 12.2721L25 9.44363C28.9052 5.53838 35.2369 5.53838 39.1421 9.44363L39.8492 10.1507C44.145 14.4465 44.145 21.4113 39.8492 25.7071L25.7071 39.8492C21.4113 44.145 14.4465 44.145 10.1507 39.8492C5.85497 35.5535 5.85497 28.5886 10.1507 24.2929L17.2218 17.2218C19.9555 14.4881 24.3876 14.4881 27.1213 17.2218C29.855 19.9555 29.855 24.3876 27.1213 27.1213L22.1716 32.071Z" fill="black"/>
</svg>
