<svg width="48" height="48" viewBox="0 0 48 48" fill="none" xmlns="http://www.w3.org/2000/svg">
<path opacity="0.3" fill-rule="evenodd" clip-rule="evenodd" d="M27.6364 8H12.3636C9.53502 8 8 9.53502 8 12.3636V27.6364C8 30.3413 9.40371 31.8633 12 31.9912V15C12 13.3431 13.3431 12 15 12H31.9912C31.8633 9.40371 30.3413 8 27.6364 8Z" fill="black"/>
<path fill-rule="evenodd" clip-rule="evenodd" d="M20.3636 16H35.6364C38.465 16 40 17.535 40 20.3636V35.6364C40 38.465 38.465 40 35.6364 40H20.3636C17.535 40 16 38.465 16 35.6364V20.3636C16 17.535 17.535 16 20.3636 16Z" fill="black"/>
</svg>
