<svg width="48" height="48" viewBox="0 0 48 48" fill="none" xmlns="http://www.w3.org/2000/svg">
<path opacity="0.3" fill-rule="evenodd" clip-rule="evenodd" d="M10.2218 34.9496C9.83132 35.3401 9.83132 35.9733 10.2218 36.3638L11.6361 37.778C12.0266 38.1685 12.6597 38.1685 13.0503 37.778L24 26.8283L37.0919 39.9201C37.4824 40.3107 38.1156 40.3107 38.5061 39.9201L39.9203 38.5059C40.3108 38.1154 40.3108 37.4822 39.9203 37.0917L26.8284 23.9998L39.9203 10.9079C40.3109 10.5174 40.3109 9.88425 39.9203 9.49373L38.5061 8.07951C38.1156 7.68899 37.4824 7.68899 37.0919 8.07951L24 21.1714L13.0502 10.2217C12.6597 9.83113 12.0266 9.83113 11.636 10.2217L10.2218 11.6359C9.83129 12.0264 9.83129 12.6596 10.2218 13.0501L21.1716 23.9998L10.2218 34.9496Z" fill="black"/>
<path fill-rule="evenodd" clip-rule="evenodd" d="M36 12H30C30 12 28 11.6569 28 10C28 8.34315 30 8 30 8H40V18C40 18 40 20 38 20C36 20 36 18 36 18V12ZM18 36H12V30C12 30 12 28 10 28C8 28 8 30 8 30V40H18C18 40 20 39.6569 20 38C20 36.3431 18 36 18 36ZM36 30V36H30C30 36 28 36 28 38C28 40 30 40 30 40H40V30C40 30 39.6569 28 38 28C36.3431 28 36 30 36 30ZM12 18V12H18C18 12 20 12 20 10C20 8 18 8 18 8H8V18C8 18 8.34315 20 10 20C11.6569 20 12 18 12 18Z" fill="black"/>
</svg>
