<svg width="48" height="48" viewBox="0 0 48 48" fill="none" xmlns="http://www.w3.org/2000/svg">
<path opacity="0.3" fill-rule="evenodd" clip-rule="evenodd" d="M24 35.9999L32.1688 40.2945C32.5581 40.4991 33.004 40.5698 33.4375 40.4954C34.5262 40.3087 35.2574 39.2748 35.0707 38.1861L33.5106 29.0901L40.1192 22.6482C40.4342 22.3412 40.6392 21.9389 40.7024 21.5036C40.8613 20.4105 40.1039 19.3957 39.0108 19.2368L29.8779 17.9097L25.7935 9.63387C25.5988 9.23944 25.2796 8.92019 24.8851 8.72553C24.6001 8.58484 24.2977 8.51833 24 8.51856L24 35.9999Z" fill="black"/>
<path fill-rule="evenodd" clip-rule="evenodd" d="M24 8.51855C23.2632 8.51911 22.5547 8.92842 22.2065 9.63387L18.1222 17.9097L8.9892 19.2368C8.55392 19.3001 8.15164 19.505 7.84462 19.82C7.07362 20.611 7.0898 21.8772 7.88077 22.6482L14.4894 29.0901L12.9293 38.1861C12.855 38.6196 12.9256 39.0656 13.1303 39.4549C13.6443 40.4326 14.8536 40.8085 15.8312 40.2945L24 35.9999L24 8.51855Z" fill="black"/>
</svg>
