<svg width="48" height="48" viewBox="0 0 48 48" fill="none" xmlns="http://www.w3.org/2000/svg">
<path fill-rule="evenodd" clip-rule="evenodd" d="M22.191 35.9215C22.7758 35.973 23.3787 36 24 36C33.8182 36 42 24 42 24C42 24 40.6608 22.0358 38.4158 19.6968L22.191 35.9215Z" fill="black"/>
<path fill-rule="evenodd" clip-rule="evenodd" d="M29.0103 12.9897C27.4152 12.3739 25.7331 12 24 12C10.9091 12 6 24 6 24C6 24 7.50013 27.667 11.0532 30.9468L18 24C18 20.6863 20.6863 18 24 18L29.0103 12.9897Z" fill="black"/>
<rect opacity="0.3" x="10.2" y="36.8701" width="38" height="4" transform="rotate(-45 10.2 36.8701)" fill="black"/>
</svg>
