<svg width="48" height="48" viewBox="0 0 48 48" fill="none" xmlns="http://www.w3.org/2000/svg">
<path fill-rule="evenodd" clip-rule="evenodd" d="M30 41.5229C30 42.265 30.9624 42.5564 31.374 41.9389L45.2226 21.166C45.5549 20.6676 45.1976 20 44.5986 20H34V6.47708C34 5.73503 33.0376 5.44363 32.626 6.06106L18.7774 26.834C18.4451 27.3324 18.8024 28 19.4014 28H30V41.5229Z" fill="black"/>
<path opacity="0.3" fill-rule="evenodd" clip-rule="evenodd" d="M6 11.5C6 10.6716 6.67157 10 7.5 10H20.5C21.3284 10 22 10.6716 22 11.5V14.5C22 15.3284 21.3284 16 20.5 16H7.5C6.67157 16 6 15.3284 6 14.5V11.5ZM6 35.5C6 34.6716 6.67157 34 7.5 34H20.5C21.3284 34 22 34.6716 22 35.5V38.5C22 39.3284 21.3284 40 20.5 40H7.5C6.67157 40 6 39.3284 6 38.5V35.5ZM3.5 22C2.67157 22 2 22.6716 2 23.5V26.5C2 27.3284 2.67157 28 3.5 28H14.5C15.3284 28 16 27.3284 16 26.5V23.5C16 22.6716 15.3284 22 14.5 22H3.5Z" fill="black"/>
</svg>
