<svg width="48" height="48" viewBox="0 0 48 48" fill="none" xmlns="http://www.w3.org/2000/svg">
<path fill-rule="evenodd" clip-rule="evenodd" d="M12 24H8C8 32.8366 15.1634 40 24 40C32.8366 40 40 32.8366 40 24C40 15.1634 32.8366 8 24 8C20.048 8 16.3309 9.44365 13.4582 11.9625L11.0313 10.2631C10.6947 10.0275 10.2334 10.2758 10.2447 10.6865L10.4875 19.4646C10.4967 19.7992 10.8258 20.0304 11.1438 19.9256L19.5025 17.1704C19.8934 17.0415 19.9699 16.522 19.6328 16.2859L16.8659 14.3486C18.8953 12.8456 21.3771 12 24 12C30.6274 12 36 17.3726 36 24C36 30.6274 30.6274 36 24 36C17.3726 36 12 30.6274 12 24Z" fill="black"/>
</svg>
