<svg width="48" height="48" viewBox="0 0 48 48" fill="none" xmlns="http://www.w3.org/2000/svg">
<path opacity="0.3" fill-rule="evenodd" clip-rule="evenodd" d="M15.7251 39.7103C15.9124 39.8959 16.1654 40 16.429 40H43.9999C45.1045 40 45.9999 39.1046 45.9999 38V10C45.9999 8.89543 45.1045 8 43.9999 8H16.429C16.1654 8 15.9124 8.10413 15.7251 8.28972L0.589737 23.2897C0.194968 23.681 0.194968 24.319 0.589737 24.7103L15.7251 39.7103Z" fill="black"/>
<path fill-rule="evenodd" clip-rule="evenodd" d="M31.5355 30.3641C31.926 30.7546 32.5592 30.7546 32.9497 30.3641L34.3639 28.9499C34.7544 28.5593 34.7544 27.9262 34.3639 27.5357L30.8284 24.0002L34.3639 20.4646C34.7545 20.0741 34.7545 19.4409 34.3639 19.0504L32.9497 17.6362C32.5592 17.2457 31.926 17.2457 31.5355 17.6362L28 21.1717L24.4644 17.6362C24.0739 17.2456 23.4407 17.2456 23.0502 17.6362L21.636 19.0504C21.2454 19.4409 21.2454 20.0741 21.636 20.4646L25.1715 24.0002L21.636 27.5357C21.2455 27.9262 21.2455 28.5594 21.636 28.9499L23.0502 30.3641C23.4408 30.7546 24.0739 30.7546 24.4645 30.3641L28 26.8286L31.5355 30.3641Z" fill="black"/>
</svg>
