<svg width="48" height="48" viewBox="0 0 48 48" fill="none" xmlns="http://www.w3.org/2000/svg">
<path fill-rule="evenodd" clip-rule="evenodd" d="M26 22V18H30V22H26ZM26 26V22H22V18H26V15C26 11.134 29.134 8 33 8C36.866 8 40 11.134 40 15C40 18.866 36.866 22 33 22H30V26H26ZM26 30V26H22V22H18V18H22V15C22 11.134 18.866 8 15 8C11.134 8 8 11.134 8 15C8 18.866 11.134 22 15 22H18V26H15C11.134 26 8 29.134 8 33C8 36.866 11.134 40 15 40C18.866 40 22 36.866 22 33V30H26ZM30 30H26V33C26 36.866 29.134 40 33 40C36.866 40 40 36.866 40 33C40 29.134 36.866 26 33 26H30V30ZM30 30H33C34.6569 30 36 31.3431 36 33C36 34.6569 34.6569 36 33 36C31.3431 36 30 34.6569 30 33V30ZM18 30V26H22V30H18ZM18 30H15C13.3431 30 12 31.3431 12 33C12 34.6569 13.3431 36 15 36C16.6569 36 18 34.6569 18 33V30ZM18 18V15C18 13.3431 16.6569 12 15 12C13.3431 12 12 13.3431 12 15C12 16.6569 13.3431 18 15 18H18ZM30 18H33C34.6569 18 36 16.6569 36 15C36 13.3431 34.6569 12 33 12C31.3431 12 30 13.3431 30 15V18Z" fill="black"/>
</svg>
