<svg width="48" height="48" viewBox="0 0 48 48" fill="none" xmlns="http://www.w3.org/2000/svg">
<path fill-rule="evenodd" clip-rule="evenodd" d="M13.3707 14.5436C14.1751 15.3006 14.2134 16.5664 13.4564 17.3707L6.7465 24.5L13.4564 31.6293C14.2134 32.4336 14.1751 33.6994 13.3707 34.4564C12.5664 35.2134 11.3006 35.1751 10.5436 34.3707L2.5436 25.8707C1.8188 25.1006 1.8188 23.8994 2.5436 23.1293L10.5436 14.6293C11.3006 13.8249 12.5664 13.7866 13.3707 14.5436ZM34.6293 14.5436C33.8249 15.3006 33.7866 16.5664 34.5436 17.3707L41.2535 24.5L34.5436 31.6293C33.7866 32.4336 33.8249 33.6994 34.6293 34.4564C35.4336 35.2134 36.6994 35.1751 37.4564 34.3707L45.4564 25.8707C46.1812 25.1006 46.1812 23.8994 45.4564 23.1293L37.4564 14.6293C36.6994 13.8249 35.4336 13.7866 34.6293 14.5436Z" fill="black"/>
<rect opacity="0.3" x="26.2092" y="8.02734" width="4" height="32" rx="1" transform="rotate(15 26.2092 8.02734)" fill="black"/>
</svg>
