<svg width="48" height="48" viewBox="0 0 48 48" fill="none" xmlns="http://www.w3.org/2000/svg">
<path opacity="0.3" fill-rule="evenodd" clip-rule="evenodd" d="M1.5 22C0.671573 22 0 22.6716 0 23.5V26.5C0 27.3284 0.671573 28 1.5 28H8.5C9.32843 28 10 27.3284 10 26.5V23.5C10 22.6716 9.32843 22 8.5 22H1.5ZM39.5 22C38.6716 22 38 22.6716 38 23.5V26.5C38 27.3284 38.6716 28 39.5 28H46.5C47.3284 28 48 27.3284 48 26.5V23.5C48 22.6716 47.3284 22 46.5 22H39.5Z" fill="black"/>
<path fill-rule="evenodd" clip-rule="evenodd" d="M14 26C14 31.5228 18.4772 36 24 36C29.5228 36 34 31.5228 34 26C34 20.4772 29.5228 16 24 16C18.4772 16 14 20.4772 14 26ZM30 26C30 29.3137 27.3137 32 24 32C20.6863 32 18 29.3137 18 26C18 22.6863 20.6863 20 24 20C27.3137 20 30 22.6863 30 26Z" fill="black"/>
</svg>
