<svg width="48" height="48" viewBox="0 0 48 48" fill="none" xmlns="http://www.w3.org/2000/svg">
<path opacity="0.3" fill-rule="evenodd" clip-rule="evenodd" d="M24 44C35.0457 44 44 35.0457 44 24C44 12.9543 35.0457 4 24 4C12.9543 4 4 12.9543 4 24C4 35.0457 12.9543 44 24 44Z" fill="black"/>
<path fill-rule="evenodd" clip-rule="evenodd" d="M14.8787 16.293C14.4882 16.6836 14.4882 17.3167 14.8787 17.7073L21.2426 24.0712L14.8786 30.4352C14.4881 30.8257 14.4881 31.4589 14.8786 31.8494L16.2929 33.2636C16.6834 33.6542 17.3166 33.6542 17.7071 33.2636L24.0711 26.8996L30.4351 33.2636C30.8256 33.6541 31.4587 33.6541 31.8493 33.2636L33.2635 31.8494C33.654 31.4589 33.654 30.8257 33.2635 30.4352L26.8995 24.0712L33.2634 17.7073C33.6539 17.3168 33.6539 16.6836 33.2634 16.2931L31.8492 14.8789C31.4587 14.4883 30.8255 14.4883 30.435 14.8789L24.0711 21.2428L17.7071 14.8788C17.3166 14.4883 16.6834 14.4883 16.2929 14.8788L14.8787 16.293Z" fill="black"/>
</svg>
