<svg width="48" height="48" viewBox="0 0 48 48" fill="none" xmlns="http://www.w3.org/2000/svg">
<path fill-rule="evenodd" clip-rule="evenodd" d="M33.0858 34.9142L22 23.8284V8C22 6.89543 22.8954 6 24 6C25.1046 6 26 6.89543 26 8V22.1716L35.9142 32.0858L41.1464 26.8536C41.4614 26.5386 42 26.7617 42 27.2071V39.5C42 39.7761 41.7761 40 41.5 40H29.2071C28.7617 40 28.5386 39.4614 28.8536 39.1464L33.0858 34.9142Z" fill="black"/>
<path opacity="0.3" fill-rule="evenodd" clip-rule="evenodd" d="M17.7081 26.3262L20.2919 29.3797L14.4896 34.2894L19.3464 39.1462C19.6614 39.4612 19.4383 39.9998 18.9929 39.9998H6.55786C6.28172 39.9998 6.05786 39.7759 6.05786 39.4998V27.0647C6.05786 26.6193 6.59643 26.3962 6.91142 26.7112L11.6514 31.4511L17.7081 26.3262Z" fill="black"/>
</svg>
