<svg width="48" height="48" viewBox="0 0 48 48" fill="none" xmlns="http://www.w3.org/2000/svg">
<path fill-rule="evenodd" clip-rule="evenodd" d="M4 10C4 14.4183 7.58172 18 12 18C16.4183 18 20 14.4183 20 10C20 5.58172 16.4183 2 12 2C7.58172 2 4 5.58172 4 10ZM16 10C16 12.2091 14.2091 14 12 14C9.79086 14 8 12.2091 8 10C8 7.79086 9.79086 6 12 6C14.2091 6 16 7.79086 16 10Z" fill="black"/>
<path opacity="0.3" fill-rule="evenodd" clip-rule="evenodd" d="M30 20V24H18C16.5429 24 15.1767 23.6104 14 22.9297V34C14 36.2091 15.7909 38 18 38H30V42H18C13.5817 42 10 38.4183 10 34V16V15V14H14V15V16C14 18.2091 15.7909 20 18 20H30Z" fill="black"/>
<path fill-rule="evenodd" clip-rule="evenodd" d="M28 40C28 44.4183 31.5817 48 36 48C40.4183 48 44 44.4183 44 40C44 35.5817 40.4183 32 36 32C31.5817 32 28 35.5817 28 40ZM40 40C40 42.2091 38.2091 44 36 44C33.7909 44 32 42.2091 32 40C32 37.7909 33.7909 36 36 36C38.2091 36 40 37.7909 40 40Z" fill="black"/>
<path fill-rule="evenodd" clip-rule="evenodd" d="M28 22C28 26.4183 31.5817 30 36 30C40.4183 30 44 26.4183 44 22C44 17.5817 40.4183 14 36 14C31.5817 14 28 17.5817 28 22ZM40 22C40 24.2091 38.2091 26 36 26C33.7909 26 32 24.2091 32 22C32 19.7909 33.7909 18 36 18C38.2091 18 40 19.7909 40 22Z" fill="black"/>
</svg>
