<svg width="48" height="48" viewBox="0 0 48 48" fill="none" xmlns="http://www.w3.org/2000/svg">
<path opacity="0.3" fill-rule="evenodd" clip-rule="evenodd" d="M24 44C35.0457 44 44 35.0457 44 24C44 12.9543 35.0457 4 24 4C12.9543 4 4 12.9543 4 24C4 35.0457 12.9543 44 24 44Z" fill="black"/>
<path fill-rule="evenodd" clip-rule="evenodd" d="M21.182 26.4182V29.7362H23.702C28.784 29.7362 32.774 25.8302 32.774 20.7902C32.774 15.7502 28.784 11.8442 23.702 11.8442C18.62 11.8442 14.672 15.7502 14.672 20.7902H18.242C18.242 17.5982 20.468 15.1622 23.702 15.1622C26.894 15.1622 29.204 17.5982 29.204 20.7902C29.204 23.9822 26.894 26.4182 23.702 26.4182H21.182ZM23 32.0002C22.4477 32.0002 22 32.448 22 33.0002V35.0002C22 35.5525 22.4477 36.0002 23 36.0002H25C25.5523 36.0002 26 35.5525 26 35.0002V33.0002C26 32.448 25.5523 32.0002 25 32.0002H23Z" fill="black"/>
</svg>
