<svg width="48" height="48" viewBox="0 0 48 48" fill="none" xmlns="http://www.w3.org/2000/svg">
<path opacity="0.3" d="M37.245 19.5H37.5C39.9853 19.5 42 21.5147 42 24C42 26.4853 39.9853 28.5 37.5 28.5L37.371 28.5C36.9824 28.5015 36.6318 28.7337 36.4787 29.0909C36.3114 29.4703 36.3886 29.8962 36.6557 30.1693L36.7451 30.2588C37.5901 31.1028 38.0649 32.2482 38.0649 33.4425C38.0649 34.6368 37.5901 35.7822 36.7463 36.6251C35.9022 37.4701 34.7568 37.9449 33.5625 37.9449C32.3682 37.9449 31.2228 37.4701 30.3793 36.6257L30.3011 36.5473C30.0162 36.2686 29.5903 36.1914 29.2109 36.3587C28.8537 36.5118 28.6215 36.8624 28.62 37.245V37.5C28.62 39.9853 26.6053 42 24.12 42C21.6347 42 19.62 39.9853 19.62 37.5C19.611 36.9998 19.358 36.646 18.8944 36.4723C18.5297 36.3114 18.1038 36.3886 17.8307 36.6557L17.7413 36.7451C16.8972 37.5901 15.7518 38.0649 14.5575 38.0649C13.3632 38.0649 12.2178 37.5901 11.3749 36.7463C10.5299 35.9022 10.0551 34.7568 10.0551 33.5625C10.0551 32.3682 10.5299 31.2228 11.3743 30.3793L11.4527 30.3011C11.7314 30.0162 11.8086 29.5903 11.6413 29.2109C11.4882 28.8537 11.1376 28.6215 10.755 28.62H10.5C8.01472 28.62 6 26.6053 6 24.12C6 21.6347 8.01472 19.62 10.5 19.62C11.0002 19.611 11.354 19.358 11.5277 18.8944C11.6886 18.5297 11.6114 18.1038 11.3443 17.8307L11.2549 17.7413C10.4099 16.8972 9.93514 15.7518 9.93514 14.5575C9.93514 13.3632 10.4099 12.2178 11.2537 11.3749C12.0978 10.5299 13.2432 10.0551 14.4375 10.0551C15.6318 10.0551 16.7772 10.5299 17.6207 11.3743L17.6989 11.4527C17.9838 11.7314 18.4097 11.8086 18.7744 11.6477L18.9897 11.6023C19.3008 11.4338 19.4986 11.108 19.5 10.755V10.5C19.5 8.01472 21.5147 6 24 6C26.4853 6 28.5 8.01472 28.5 10.5L28.5 10.629C28.5015 11.0176 28.7337 11.3682 29.1056 11.5277C29.4703 11.6886 29.8962 11.6114 30.1693 11.3443L30.2588 11.2549C31.1028 10.4099 32.2482 9.93514 33.4425 9.93514C34.6368 9.93514 35.7822 10.4099 36.6251 11.2537C37.4701 12.0978 37.9449 13.2432 37.9449 14.4375C37.9449 15.6318 37.4701 16.7772 36.6257 17.6207L36.5473 17.6989C36.2686 17.9838 36.1914 18.4097 36.3523 18.7744L36.3977 18.9897C36.5662 19.3008 36.892 19.4986 37.245 19.5Z" fill="black"/>
<path fill-rule="evenodd" clip-rule="evenodd" d="M24 30C27.3137 30 30 27.3137 30 24C30 20.6863 27.3137 18 24 18C20.6863 18 18 20.6863 18 24C18 27.3137 20.6863 30 24 30Z" fill="black"/>
</svg>
