<svg width="48" height="48" viewBox="0 0 48 48" fill="none" xmlns="http://www.w3.org/2000/svg">
<path fill-rule="evenodd" clip-rule="evenodd" d="M16 6C11.5817 6 8 9.58172 8 14V43C8 43.5523 8.44772 44 9 44H39C39.5523 44 40 43.5523 40 43V14C40 9.58172 36.4183 6 32 6H16ZM15 20C13.3431 20 12 21.3431 12 23V29C12 30.6569 13.3431 32 15 32H33C34.6569 32 36 30.6569 36 29V23C36 21.3431 34.6569 20 33 20H15Z" fill="black"/>
<path opacity="0.3" fill-rule="evenodd" clip-rule="evenodd" d="M20 26C20 27.1046 19.1046 28 18 28C16.8954 28 16 27.1046 16 26C16 24.8954 16.8954 24 18 24C19.1046 24 20 24.8954 20 26ZM32 26C32 27.1046 31.1046 28 30 28C28.8954 28 28 27.1046 28 26C28 24.8954 28.8954 24 30 24C31.1046 24 32 24.8954 32 26Z" fill="black"/>
</svg>
