<svg width="48" height="48" viewBox="0 0 48 48" fill="none" xmlns="http://www.w3.org/2000/svg">
<path opacity="0.3" fill-rule="evenodd" clip-rule="evenodd" d="M8.97867 37.2049C5.87955 33.6823 4 29.0606 4 24C4 12.9543 12.9543 4 24 4C29.0606 4 33.6822 5.87953 37.2048 8.9786C36.8257 8.77273 36.3414 8.8301 36.0208 9.15073L33.8113 11.3603C31.1019 9.25416 27.6974 8 24 8C15.1634 8 8 15.1634 8 24C8 27.6974 9.25416 31.1019 11.3603 33.8113L9.15075 36.0208C8.83009 36.3415 8.77273 36.8257 8.97867 37.2049ZM9.84345 38.1277L9.15075 37.435C9.08089 37.3651 9.02353 37.2875 8.97867 37.2049C9.25723 37.5215 9.54565 37.8293 9.84345 38.1277ZM9.87228 38.1565L10.565 38.8492C10.6348 38.9191 10.7124 38.9764 10.795 39.0213C14.3177 42.1204 18.9394 44 24 44C35.0457 44 44 35.0457 44 24C44 18.9394 42.1205 14.3178 39.0214 10.7951C38.9765 10.7125 38.9191 10.6348 38.8492 10.5649L37.435 9.15073C37.3651 9.08085 37.2875 9.02348 37.2048 8.9786C37.8484 9.54475 38.4552 10.1516 39.0214 10.7951C39.2272 11.1743 39.1699 11.6585 38.8492 11.9792L36.6397 14.1887C35.8185 13.1322 34.8677 12.1815 33.8113 11.3603L11.3603 33.8113C12.1815 34.8677 13.1322 35.8185 14.1887 36.6397L11.9792 38.8492C11.6585 39.1699 11.1742 39.2272 10.795 39.0213C10.4784 38.7427 10.1707 38.4543 9.87228 38.1565ZM36.6397 14.1887C38.7458 16.8981 40 20.3026 40 24C40 32.8366 32.8366 40 24 40C20.3026 40 16.8981 38.7458 14.1887 36.6397L36.6397 14.1887Z" fill="black"/>
</svg>
