<svg width="48" height="48" viewBox="0 0 48 48" fill="none" xmlns="http://www.w3.org/2000/svg">
<path fill-rule="evenodd" clip-rule="evenodd" d="M20.9645 15.4617C20.9845 15.2012 21.2018 15 21.463 15H22.5475C22.8044 15 23.0195 15.1946 23.045 15.4502L24 25L30.7481 28.856C30.9039 28.9451 31 29.1107 31 29.2902V30.3454C31 30.6751 30.6865 30.9145 30.3684 30.8278L20.3987 28.1087C20.1673 28.0456 20.0133 27.8271 20.0317 27.588L20.9645 15.4617Z" fill="black"/>
<path opacity="0.3" fill-rule="evenodd" clip-rule="evenodd" d="M11.7632 2.07541C11.4991 1.76066 10.9892 1.88113 10.8939 2.28079L8.25048 13.3629C8.1728 13.6886 8.43088 13.9971 8.76513 13.9781L20.1655 13.3321C20.5764 13.3088 20.7847 12.8268 20.5202 12.5115L17.4974 8.90915C19.2447 8.31208 21.0975 8.00023 23 8.00023C32.3888 8.00023 40 15.6114 40 25.0002C40 34.3891 32.3888 42.0002 23 42.0002C13.6112 42.0002 6 34.3891 6 25.0002C6 23.4241 6.21344 21.8804 6.62962 20.3966L2.77827 19.3163C2.27119 21.1241 2 23.0305 2 25.0002C2 36.5982 11.402 46.0002 23 46.0002C34.598 46.0002 44 36.5982 44 25.0002C44 13.4022 34.598 4.00023 23 4.00023C20.0827 4.00023 17.3043 4.59509 14.7796 5.67014L11.7632 2.07541Z" fill="black"/>
</svg>
