<svg width="48" height="48" viewBox="0 0 48 48" fill="none" xmlns="http://www.w3.org/2000/svg">
<path fill-rule="evenodd" clip-rule="evenodd" d="M12 10C8.68629 10 6 12.6863 6 16V40C6 41.1046 6.89543 42 8 42H32C35.3137 42 38 39.3137 38 36V18H43C43.5523 18 44 17.5523 44 17V16V15V12H42V14H38V12C38 10.8954 37.1046 10 36 10H12ZM30 26C30 30.4183 26.4183 34 22 34C17.5817 34 14 30.4183 14 26C14 21.5817 17.5817 18 22 18C26.4183 18 30 21.5817 30 26Z" fill="black"/>
<path opacity="0.3" d="M22 7C22 6.44772 22.4477 6 23 6H31C31.5523 6 32 6.44772 32 7V10H22V7Z" fill="black"/>
</svg>
