<svg width="48" height="48" viewBox="0 0 48 48" fill="none" xmlns="http://www.w3.org/2000/svg">
<path opacity="0.3" fill-rule="evenodd" clip-rule="evenodd" d="M16.9289 22.5859L14.8076 20.4646C14.417 20.0741 14.417 19.4409 14.8076 19.0504L16.2218 17.6362C16.6123 17.2456 17.2455 17.2456 17.636 17.6362L30.3639 30.3641C30.7544 30.7546 30.7544 31.3878 30.3639 31.7783L28.9497 33.1925C28.5592 33.583 27.926 33.583 27.5355 33.1925L25.4142 31.0712L14.1005 42.3849C12.5384 43.947 10.0057 43.947 8.4436 42.3849L5.61518 39.5565C4.05308 37.9944 4.05308 35.4617 5.61518 33.8996L16.9289 22.5859ZM9.15076 36.0209C8.76023 36.4114 8.76023 37.0446 9.15076 37.4351C9.54128 37.8256 10.1744 37.8256 10.565 37.4351L19.0503 28.9498C19.4408 28.5593 19.4408 27.9261 19.0503 27.5356C18.6597 27.1451 18.0266 27.1451 17.636 27.5356L9.15076 36.0209Z" fill="black"/>
<path fill-rule="evenodd" clip-rule="evenodd" d="M33.8995 11.2722L33.5576 10.9303C33.1671 10.5398 33.1671 9.90663 33.5576 9.51611C33.6534 9.42035 33.7676 9.34503 33.8933 9.29474L38.9441 7.27443C39.3155 7.12587 39.7397 7.21294 40.0226 7.4958L40.5043 7.97749C40.7871 8.26035 40.8742 8.68457 40.7256 9.05599L38.7053 14.1068C38.5002 14.6195 37.9182 14.8689 37.4055 14.6638C37.2797 14.6135 37.1655 14.5382 37.0697 14.4425L36.7279 14.1006L25.4142 25.4143L22.5858 22.5859L33.8995 11.2722Z" fill="black"/>
</svg>
