<svg width="48" height="48" viewBox="0 0 48 48" fill="none" xmlns="http://www.w3.org/2000/svg">
<path opacity="0.3" fill-rule="evenodd" clip-rule="evenodd" d="M31.5685 28H40V4C33.3726 4 28 9.37258 28 16V24.3431L15.6569 11.9999C12.5327 15.1241 12.5327 20.1895 15.6569 23.3137L25.9559 33.6126L31.5685 28Z" fill="black"/>
<path fill-rule="evenodd" clip-rule="evenodd" d="M7 24C4.23858 24 2 26.2386 2 29V37C2 39.7614 4.23858 42 7 42H41C43.7614 42 46 39.7614 46 37V29C46 26.2386 43.7614 24 41 24H7ZM42 33C42 34.6569 40.6569 36 39 36C37.3431 36 36 34.6569 36 33C36 31.3431 37.3431 30 39 30C40.6569 30 42 31.3431 42 33Z" fill="black"/>
</svg>
