<svg width="48" height="48" viewBox="0 0 48 48" fill="none" xmlns="http://www.w3.org/2000/svg">
<path fill-rule="evenodd" clip-rule="evenodd" d="M9.5 8C8.67157 8 8 8.67157 8 9.5V14.5C8 15.3284 8.67157 16 9.5 16H20.5C21.3284 16 22 15.3284 22 14.5V9.5C22 8.67157 21.3284 8 20.5 8H9.5ZM27.5 32C26.6716 32 26 32.6716 26 33.5V38.5C26 39.3284 26.6716 40 27.5 40H38.5C39.3284 40 40 39.3284 40 38.5V33.5C40 32.6716 39.3284 32 38.5 32H27.5Z" fill="black"/>
<path opacity="0.3" fill-rule="evenodd" clip-rule="evenodd" d="M27.5 8C26.6716 8 26 8.67157 26 9.5V26.5C26 27.3284 26.6716 28 27.5 28H38.5C39.3284 28 40 27.3284 40 26.5V9.5C40 8.67157 39.3284 8 38.5 8H27.5ZM9.5 20C8.67157 20 8 20.6716 8 21.5V38.5C8 39.3284 8.67157 40 9.5 40H20.5C21.3284 40 22 39.3284 22 38.5V21.5C22 20.6716 21.3284 20 20.5 20H9.5Z" fill="black"/>
</svg>
