<svg width="48" height="48" viewBox="0 0 48 48" fill="none" xmlns="http://www.w3.org/2000/svg">
<rect opacity="0.3" x="8" y="8" width="8" height="8" rx="1" fill="black"/>
<path fill-rule="evenodd" clip-rule="evenodd" d="M21 8C20.4477 8 20 8.44772 20 9V15C20 15.5523 20.4477 16 21 16H27C27.5523 16 28 15.5523 28 15V9C28 8.44772 27.5523 8 27 8H21ZM9 20C8.44772 20 8 20.4477 8 21V27C8 27.5523 8.44772 28 9 28H15C15.5523 28 16 27.5523 16 27V21C16 20.4477 15.5523 20 15 20H9ZM20 21C20 20.4477 20.4477 20 21 20H27C27.5523 20 28 20.4477 28 21V27C28 27.5523 27.5523 28 27 28H21C20.4477 28 20 27.5523 20 27V21ZM33 8C32.4477 8 32 8.44772 32 9V15C32 15.5523 32.4477 16 33 16H39C39.5523 16 40 15.5523 40 15V9C40 8.44772 39.5523 8 39 8H33ZM32 21C32 20.4477 32.4477 20 33 20H39C39.5523 20 40 20.4477 40 21V27C40 27.5523 39.5523 28 39 28H33C32.4477 28 32 27.5523 32 27V21ZM9 32C8.44772 32 8 32.4477 8 33V39C8 39.5523 8.44772 40 9 40H15C15.5523 40 16 39.5523 16 39V33C16 32.4477 15.5523 32 15 32H9ZM20 33C20 32.4477 20.4477 32 21 32H27C27.5523 32 28 32.4477 28 33V39C28 39.5523 27.5523 40 27 40H21C20.4477 40 20 39.5523 20 39V33ZM33 32C32.4477 32 32 32.4477 32 33V39C32 39.5523 32.4477 40 33 40H39C39.5523 40 40 39.5523 40 39V33C40 32.4477 39.5523 32 39 32H33Z" fill="black"/>
</svg>
