<svg width="48" height="48" viewBox="0 0 48 48" fill="none" xmlns="http://www.w3.org/2000/svg">
<rect x="8" y="8" width="14" height="14" rx="1.5" fill="black"/>
<path opacity="0.3" fill-rule="evenodd" clip-rule="evenodd" d="M26 9.5C26 8.67157 26.6716 8 27.5 8H38.5C39.3284 8 40 8.67157 40 9.5V20.5C40 21.3284 39.3284 22 38.5 22H27.5C26.6716 22 26 21.3284 26 20.5V9.5ZM8 27.5C8 26.6716 8.67157 26 9.5 26H20.5C21.3284 26 22 26.6716 22 27.5V38.5C22 39.3284 21.3284 40 20.5 40H9.5C8.67157 40 8 39.3284 8 38.5V27.5ZM27.5 26C26.6716 26 26 26.6716 26 27.5V38.5C26 39.3284 26.6716 40 27.5 40H38.5C39.3284 40 40 39.3284 40 38.5V27.5C40 26.6716 39.3284 26 38.5 26H27.5Z" fill="black"/>
</svg>
