<svg width="48" height="48" viewBox="0 0 48 48" fill="none" xmlns="http://www.w3.org/2000/svg">
<path fill-rule="evenodd" clip-rule="evenodd" d="M18 9C18 8.44772 18.4477 8 19 8H43C43.5523 8 44 8.44772 44 9V15C44 15.5523 43.5523 16 43 16H19C18.4477 16 18 15.5523 18 15V9ZM18 21C18 20.4477 18.4477 20 19 20H43C43.5523 20 44 20.4477 44 21V27C44 27.5523 43.5523 28 43 28H19C18.4477 28 18 27.5523 18 27V21ZM19 32C18.4477 32 18 32.4477 18 33V39C18 39.5523 18.4477 40 19 40H43C43.5523 40 44 39.5523 44 39V33C44 32.4477 43.5523 32 43 32H19Z" fill="black"/>
<rect opacity="0.3" x="4" y="8" width="10" height="32" rx="1" fill="black"/>
</svg>
