<svg width="48" height="48" viewBox="0 0 48 48" fill="none" xmlns="http://www.w3.org/2000/svg">
<path fill-rule="evenodd" clip-rule="evenodd" d="M1.5 10C0.671573 10 0 10.6716 0 11.5V36.5C0 37.3284 0.671573 38 1.5 38H10.5C11.3284 38 12 37.3284 12 36.5V11.5C12 10.6716 11.3284 10 10.5 10H1.5ZM35.5 10C34.6716 10 34 10.6716 34 11.5V36.5C34 37.3284 34.6716 38 35.5 38H46.5C47.3284 38 48 37.3284 48 36.5V11.5C48 10.6716 47.3284 10 46.5 10H35.5Z" fill="black"/>
<rect opacity="0.3" x="16" y="10" width="14" height="28" rx="1.5" fill="black"/>
</svg>
