<svg width="48" height="48" viewBox="0 0 48 48" fill="none" xmlns="http://www.w3.org/2000/svg">
<path opacity="0.3" fill-rule="evenodd" clip-rule="evenodd" d="M38 16C41.3137 16 44 13.3137 44 10C44 6.68629 41.3137 4 38 4C34.6863 4 32 6.68629 32 10C32 13.3137 34.6863 16 38 16Z" fill="black"/>
<path fill-rule="evenodd" clip-rule="evenodd" d="M22 22V37C22 37.5523 21.5523 38 21 38H19C18.4477 38 18 37.5523 18 37V22H13C12.4477 22 12 21.5523 12 21V19C12 18.4477 12.4477 18 13 18L27 18C27.5523 18 28 18.4477 28 19V21C28 21.5523 27.5523 22 27 22H22Z" fill="black"/>
</svg>
