<svg width="48" height="48" viewBox="0 0 48 48" fill="none" xmlns="http://www.w3.org/2000/svg">
<path opacity="0.3" fill-rule="evenodd" clip-rule="evenodd" d="M24 16C27.3137 16 30 13.3137 30 10C30 6.68629 27.3137 4 24 4C20.6863 4 18 6.68629 18 10C18 13.3137 20.6863 16 24 16Z" fill="black"/>
<path fill-rule="evenodd" clip-rule="evenodd" d="M26 22V37C26 37.5523 25.5523 38 25 38H23C22.4477 38 22 37.5523 22 37V22H17C16.4477 22 16 21.5523 16 21V19C16 18.4477 16.4477 18 17 18L31 18C31.5523 18 32 18.4477 32 19V21C32 21.5523 31.5523 22 31 22H26Z" fill="black"/>
</svg>
