<svg width="48" height="48" viewBox="0 0 48 48" fill="none" xmlns="http://www.w3.org/2000/svg">
<path opacity="0.3" fill-rule="evenodd" clip-rule="evenodd" d="M10 44C13.3137 44 16 41.3137 16 38C16 34.6863 13.3137 32 10 32C6.68629 32 4 34.6863 4 38C4 41.3137 6.68629 44 10 44Z" fill="black"/>
<path fill-rule="evenodd" clip-rule="evenodd" d="M30 14V29C30 29.5523 29.5523 30 29 30H27C26.4477 30 26 29.5523 26 29V14H21C20.4477 14 20 13.5523 20 13V11C20 10.4477 20.4477 10 21 10L35 10C35.5523 10 36 10.4477 36 11V13C36 13.5523 35.5523 14 35 14H30Z" fill="black"/>
</svg>
