<svg width="48" height="48" viewBox="0 0 48 48" fill="none" xmlns="http://www.w3.org/2000/svg">
<path opacity="0.3" fill-rule="evenodd" clip-rule="evenodd" d="M10 16C13.3137 16 16 13.3137 16 10C16 6.68629 13.3137 4 10 4C6.68629 4 4 6.68629 4 10C4 13.3137 6.68629 16 10 16Z" fill="black"/>
<path fill-rule="evenodd" clip-rule="evenodd" d="M30 22V37C30 37.5523 29.5523 38 29 38H27C26.4477 38 26 37.5523 26 37V22H21C20.4477 22 20 21.5523 20 21V19C20 18.4477 20.4477 18 21 18L35 18C35.5523 18 36 18.4477 36 19V21C36 21.5523 35.5523 22 35 22H30Z" fill="black"/>
</svg>
