<svg width="48" height="48" viewBox="0 0 48 48" fill="none" xmlns="http://www.w3.org/2000/svg">
<path opacity="0.3" fill-rule="evenodd" clip-rule="evenodd" d="M24 18C26.2091 18 28 16.2091 28 14C28 11.7909 26.2091 10 24 10C21.7909 10 20 11.7909 20 14C20 16.2091 21.7909 18 24 18Z" fill="black"/>
<path fill-rule="evenodd" clip-rule="evenodd" d="M26 23.82C30.5645 22.9861 34 19.3541 34 15C34 14.662 33.9793 14.3283 33.939 14H40V38H26V23.82ZM22 23.82C17.4355 22.9861 14 19.3541 14 15C14 14.662 14.0207 14.3283 14.061 14H8V38H22V23.82Z" fill="black"/>
</svg>
