<svg width="48" height="48" viewBox="0 0 48 48" fill="none" xmlns="http://www.w3.org/2000/svg">
<path opacity="0.3" fill-rule="evenodd" clip-rule="evenodd" d="M16 12H8C6.89543 12 6 12.8954 6 14C6 15.1046 6.89543 16 8 16H16V12ZM20 16H29C31.2091 16 32 16.7909 32 19V28H36V19C36 14.5817 33.4183 12 29 12H20V16ZM32 32H36V40C36 41.1046 35.1046 42 34 42C32.8954 42 32 41.1046 32 40V32Z" fill="black"/>
<path d="M40 32C41.1046 32 42 32.8954 42 34C42 35.1046 41.1046 36 40 36L19 36C14.5817 36 12 33.4183 12 29L12 8C12 6.89543 12.8954 6 14 6C15.1046 6 16 6.89543 16 8L16 29C16 31.2091 16.7909 32 19 32L40 32Z" fill="black"/>
</svg>
