<svg width="48" height="48" viewBox="0 0 48 48" fill="none" xmlns="http://www.w3.org/2000/svg">
<path fill-rule="evenodd" clip-rule="evenodd" d="M18 42C24.6274 42 30 36.6274 30 30C30 23.3726 24.6274 18 18 18C11.3726 18 6 23.3726 6 30C6 36.6274 11.3726 42 18 42Z" fill="black"/>
<path opacity="0.3" fill-rule="evenodd" clip-rule="evenodd" d="M17.6025 14.0048C17.7346 14.0016 17.8671 14 18 14C26.8365 14 34 21.1634 34 30C34 30.1329 33.9983 30.2653 33.9951 30.3974C37.5846 28.3232 40 24.4437 40 20C40 13.3726 34.6274 8 28 8C23.5563 8 19.6767 10.4154 17.6025 14.0048Z" fill="black"/>
</svg>
