<svg width="48" height="48" viewBox="0 0 48 48" fill="none" xmlns="http://www.w3.org/2000/svg">
<path opacity="0.3" fill-rule="evenodd" clip-rule="evenodd" d="M10.6856 6.27432C10.3572 6.14294 9.99996 6.38482 9.99996 6.73856L9.99996 17.5C9.99996 17.7762 10.2238 18 10.5 18L37.4037 18C37.9542 18 38.1005 17.2403 37.5894 17.0358L10.6856 6.27432Z" fill="black"/>
<path fill-rule="evenodd" clip-rule="evenodd" d="M10.6857 41.7257C10.3573 41.8571 10 41.6152 10 41.2615L10 30.5C10 30.2239 10.2239 30 10.5 30L37.4037 30C37.9542 30 38.1006 30.7598 37.5894 30.9642L10.6857 41.7257Z" fill="black"/>
<rect opacity="0.3" x="44" y="22" width="4" height="40" rx="1" transform="rotate(90 44 22)" fill="black"/>
</svg>
