<svg width="48" height="48" viewBox="0 0 48 48" fill="none" xmlns="http://www.w3.org/2000/svg">
<path opacity="0.3" fill-rule="evenodd" clip-rule="evenodd" d="M40 24C40 32.8366 32.8365 40 24 40C20.8133 40 17.8443 39.0684 15.3503 37.4627C19.3607 34.7703 22 30.1934 22 25C22 19.1774 18.6824 14.1296 13.8344 11.6439C16.5984 9.36722 20.1395 8 24 8C32.8365 8 40 15.1634 40 24Z" fill="black"/>
<path fill-rule="evenodd" clip-rule="evenodd" d="M12.7854 35.4119C15.9512 33.0409 18 29.2597 18 25C18 20.2502 15.4527 16.0954 11.6498 13.8271C9.36959 16.5922 8 20.1362 8 24C8 28.4684 9.83177 32.5091 12.7854 35.4119Z" fill="black"/>
</svg>
