<svg width="48" height="48" viewBox="0 0 48 48" fill="none" xmlns="http://www.w3.org/2000/svg">
<path fill-rule="evenodd" clip-rule="evenodd" d="M22.5858 11.272L36.7279 25.4141L24 38.142L9.85789 23.9999L22.5858 11.272ZM16.9289 22.5857C16.1479 23.3667 16.1479 24.6331 16.9289 25.4141C17.71 26.1951 18.9763 26.1951 19.7574 25.4141C20.5384 24.6331 20.5384 23.3667 19.7574 22.5857C18.9763 21.8046 17.71 21.8046 16.9289 22.5857ZM22.5858 16.9288C21.8047 17.7099 21.8047 18.9762 22.5858 19.7572C23.3668 20.5383 24.6332 20.5383 25.4142 19.7572C26.1953 18.9762 26.1953 17.7099 25.4142 16.9288C24.6332 16.1478 23.3668 16.1478 22.5858 16.9288ZM22.5858 28.2425C21.8047 29.0236 21.8047 30.2899 22.5858 31.071C23.3668 31.852 24.6332 31.852 25.4142 31.071C26.1953 30.2899 26.1953 29.0236 25.4142 28.2425C24.6332 27.4615 23.3668 27.4615 22.5858 28.2425ZM28.2426 22.5857C27.4616 23.3667 27.4616 24.6331 28.2426 25.4141C29.0237 26.1951 30.29 26.1951 31.0711 25.4141C31.8521 24.6331 31.8521 23.3667 31.0711 22.5857C30.29 21.8046 29.0237 21.8046 28.2426 22.5857Z" fill="black"/>
<path opacity="0.3" fill-rule="evenodd" clip-rule="evenodd" d="M21.0302 40.8292C17.1474 43.4016 11.8646 42.9774 8.44368 39.5564C5.02276 36.1355 4.5985 30.8527 7.17091 26.97L21.0302 40.8292Z" fill="black"/>
<path opacity="0.3" fill-rule="evenodd" clip-rule="evenodd" d="M25.5557 8.58512C29.4384 6.01271 34.7212 6.43696 38.1421 9.85789C41.5631 13.2788 41.9873 18.5616 39.4149 22.4444L25.5557 8.58512H25.5557Z" fill="black"/>
</svg>
