<svg width="48" height="48" viewBox="0 0 48 48" fill="none" xmlns="http://www.w3.org/2000/svg">
<path opacity="0.3" fill-rule="evenodd" clip-rule="evenodd" d="M7 6C6.44772 6 6 6.44772 6 7V12H11C11.5523 12 12 12.4477 12 13V15C12 15.5523 11.5523 16 11 16H6V20H11C11.5523 20 12 20.4477 12 21V23C12 23.5523 11.5523 24 11 24H6V28H11C11.5523 28 12 28.4477 12 29V31C12 31.5523 11.5523 32 11 32H6V39C6 39.5523 6.44772 40 7 40H21C21.5523 40 22 39.5523 22 39V7C22 6.44772 21.5523 6 21 6H7Z" fill="black"/>
</svg>
