<svg width="48" height="48" viewBox="0 0 48 48" fill="none" xmlns="http://www.w3.org/2000/svg">
<path opacity="0.3" fill-rule="evenodd" clip-rule="evenodd" d="M37 16C39.7614 16 42 13.7614 42 11C42 8.23858 39.7614 6 37 6C34.2386 6 32 8.23858 32 11C32 13.7614 34.2386 16 37 16ZM37 42C39.7614 42 42 39.7614 42 37C42 34.2386 39.7614 32 37 32C34.2386 32 32 34.2386 32 37C32 39.7614 34.2386 42 37 42ZM16 37C16 39.7614 13.7614 42 11 42C8.23858 42 6 39.7614 6 37C6 34.2386 8.23858 32 11 32C13.7614 32 16 34.2386 16 37Z" fill="black"/>
<path fill-rule="evenodd" clip-rule="evenodd" d="M11 16C13.7614 16 16 13.7614 16 11C16 8.23858 13.7614 6 11 6C8.23858 6 6 8.23858 6 11C6 13.7614 8.23858 16 11 16ZM20 9C20 8.44772 20.4477 8 21 8H27C27.5523 8 28 8.44772 28 9V11C28 11.5523 27.5523 12 27 12H21C20.4477 12 20 11.5523 20 11V9ZM21 36C20.4477 36 20 36.4477 20 37V39C20 39.5523 20.4477 40 21 40H27C27.5523 40 28 39.5523 28 39V37C28 36.4477 27.5523 36 27 36H21ZM8 21C8 20.4477 8.44772 20 9 20H11C11.5523 20 12 20.4477 12 21V27C12 27.5523 11.5523 28 11 28H9C8.44772 28 8 27.5523 8 27V21ZM37 20C36.4477 20 36 20.4477 36 21V27C36 27.5523 36.4477 28 37 28H39C39.5523 28 40 27.5523 40 27V21C40 20.4477 39.5523 20 39 20H37Z" fill="black"/>
</svg>
