<svg width="48" height="48" viewBox="0 0 48 48" fill="none" xmlns="http://www.w3.org/2000/svg">
<path fill-rule="evenodd" clip-rule="evenodd" d="M23 6C22.4477 6 22 6.44772 22 7V11C22 11.5523 22.4477 12 23 12H25C25.5523 12 26 11.5523 26 11V7C26 6.44772 25.5523 6 25 6H23ZM23 16C22.4477 16 22 16.4477 22 17V21C22 21.5523 22.4477 22 23 22H25C25.5523 22 26 21.5523 26 21V17C26 16.4477 25.5523 16 25 16H23ZM22 27C22 26.4477 22.4477 26 23 26H25C25.5523 26 26 26.4477 26 27V31C26 31.5523 25.5523 32 25 32H23C22.4477 32 22 31.5523 22 31V27ZM23 36C22.4477 36 22 36.4477 22 37V41C22 41.5523 22.4477 42 23 42H25C25.5523 42 26 41.5523 26 41V37C26 36.4477 25.5523 36 25 36H23Z" fill="black"/>
<path opacity="0.3" fill-rule="evenodd" clip-rule="evenodd" d="M42 17.0402C42 16.621 41.515 16.3879 41.1877 16.6498L32.488 23.6095C32.2378 23.8097 32.2378 24.1902 32.488 24.3904L41.1877 31.3501C41.515 31.612 42 31.3789 42 30.9596V17.0402ZM6 30.9596C6 31.3789 6.48497 31.612 6.81235 31.3501L15.512 24.3904C15.7622 24.1902 15.7622 23.8097 15.512 23.6095L6.81235 16.6498C6.48497 16.3879 6 16.621 6 17.0402V30.9596Z" fill="black"/>
</svg>
