<svg width="48" height="48" viewBox="0 0 48 48" fill="none" xmlns="http://www.w3.org/2000/svg">
<rect opacity="0.3" x="22" y="34" width="20" height="4" rx="1" transform="rotate(-90 22 34)" fill="black"/>
<path d="M13.4142 17.4142C12.6332 18.1953 11.3668 18.1953 10.5858 17.4142C9.80474 16.6332 9.80474 15.3668 10.5858 14.5858L22.5858 2.58579C23.3429 1.82863 24.5621 1.80214 25.3514 2.52569L37.3514 13.5257C38.1657 14.2721 38.2207 15.5372 37.4743 16.3515C36.7279 17.1657 35.4628 17.2207 34.6486 16.4743L24.0602 6.76828L13.4142 17.4142Z" fill="black"/>
<path d="M34.5858 30.5858C35.3668 29.8047 36.6332 29.8047 37.4142 30.5858C38.1953 31.3668 38.1953 32.6332 37.4142 33.4142L25.4142 45.4142C24.6571 46.1714 23.4379 46.1979 22.6485 45.4743L10.6485 34.4743C9.83431 33.7279 9.7793 32.4628 10.5257 31.6485C11.2721 30.8343 12.5372 30.7793 13.3514 31.5257L23.9398 41.2317L34.5858 30.5858Z" fill="black"/>
</svg>
