<svg width="48" height="48" viewBox="0 0 48 48" fill="none" xmlns="http://www.w3.org/2000/svg">
<path opacity="0.3" d="M41.4761 10.7047C42.1915 9.86305 43.4537 9.76071 44.2953 10.4761C45.1369 11.1915 45.2392 12.4536 44.5238 13.2953L27.5238 33.2953C26.7972 34.1501 25.5098 34.2401 24.6712 33.4948L15.6712 25.4948C14.8457 24.7609 14.7713 23.4968 15.5052 22.6712C16.239 21.8457 17.5031 21.7713 18.3287 22.5051L25.8004 29.1467L41.4761 10.7047Z" fill="black"/>
<path d="M31.4761 12.7047C32.1915 11.8631 33.4537 11.7607 34.2953 12.4761C35.1369 13.1915 35.2392 14.4536 34.5238 15.2953L17.5238 35.2953C16.7972 36.1501 15.5098 36.2401 14.6712 35.4948L5.67124 27.4948C4.84568 26.7609 4.77132 25.4968 5.50515 24.6712C6.23899 23.8457 7.50313 23.7713 8.3287 24.5051L15.8004 31.1467L31.4761 12.7047Z" fill="black"/>
</svg>
