<svg width="48" height="48" viewBox="0 0 48 48" fill="none" xmlns="http://www.w3.org/2000/svg">
<rect opacity="0.3" x="14" y="14" width="4" height="24" rx="1" transform="rotate(-90 14 14)" fill="black"/>
<path d="M19.4142 16.5858C20.1953 17.3668 20.1953 18.6332 19.4142 19.4142C18.6332 20.1953 17.3668 20.1953 16.5858 19.4142L10.5858 13.4142C9.80474 12.6332 9.80474 11.3668 10.5858 10.5858L16.5858 4.58579C17.3668 3.80474 18.6332 3.80474 19.4142 4.58579C20.1953 5.36684 20.1953 6.63317 19.4142 7.41421L14.8284 12L19.4142 16.5858Z" fill="black"/>
<rect opacity="0.3" width="4" height="24" rx="1" transform="matrix(0 -1 -1 0 34 38)" fill="black"/>
<path d="M28.5858 40.5858C27.8047 41.3668 27.8047 42.6332 28.5858 43.4142C29.3668 44.1953 30.6332 44.1953 31.4142 43.4142L37.4142 37.4142C38.1953 36.6332 38.1953 35.3668 37.4142 34.5858L31.4142 28.5858C30.6332 27.8047 29.3668 27.8047 28.5858 28.5858C27.8047 29.3668 27.8047 30.6332 28.5858 31.4142L33.1716 36L28.5858 40.5858Z" fill="black"/>
</svg>
