<svg width="48" height="48" viewBox="0 0 48 48" fill="none" xmlns="http://www.w3.org/2000/svg">
<path opacity="0.3" d="M28.0018 14C28.0018 15.1046 28.8968 16 30.0009 16C31.105 16 32 15.1046 32 14V12C32 7.58172 28.4199 4 24.0035 4H12.0104C7.59407 4 4.0139 7.58172 4.0139 12L4.0139 36C4.0139 40.4183 7.59407 44 12.0104 44H24.0174C28.4337 44 32.0139 40.4183 32.0139 36V34C32.0139 32.8954 31.1189 32 30.0148 32C28.9107 32 28.0156 32.8954 28.0156 34V36C28.0156 38.2091 26.2256 40 24.0174 40H12.0104C9.80225 40 8.01217 38.2091 8.01217 36L8.01217 12C8.01217 9.79086 9.80225 8 12.0104 8H24.0035C26.2117 8 28.0018 9.79086 28.0018 12V14Z" fill="black"/>
<rect opacity="0.3" x="40" y="22" width="4" height="24" rx="1" transform="rotate(90 40 22)" fill="black"/>
<path d="M34.5858 19.4142C33.8047 18.6332 33.8047 17.3668 34.5858 16.5858C35.3668 15.8047 36.6332 15.8047 37.4142 16.5858L43.4142 22.5858C44.1953 23.3668 44.1953 24.6332 43.4142 25.4142L37.4142 31.4142C36.6332 32.1953 35.3668 32.1953 34.5858 31.4142C33.8047 30.6332 33.8047 29.3668 34.5858 28.5858L39.1716 24L34.5858 19.4142Z" fill="black"/>
</svg>
