<svg width="48" height="48" viewBox="0 0 48 48" fill="none" xmlns="http://www.w3.org/2000/svg">
<rect opacity="0.3" x="14" y="34" width="4" height="24" rx="1" transform="rotate(-180 14 34)" fill="black"/>
<path d="M16.5858 28.5858C17.3668 27.8047 18.6332 27.8047 19.4142 28.5858C20.1953 29.3668 20.1953 30.6332 19.4142 31.4142L13.4142 37.4142C12.6332 38.1953 11.3668 38.1953 10.5858 37.4142L4.58579 31.4142C3.80474 30.6332 3.80474 29.3668 4.58579 28.5858C5.36684 27.8047 6.63317 27.8047 7.41421 28.5858L12 33.1716L16.5858 28.5858Z" fill="black"/>
<rect opacity="0.3" width="4" height="24" rx="1" transform="matrix(-1 0 0 1 38 14)" fill="black"/>
<path d="M40.5858 19.4142C41.3668 20.1953 42.6332 20.1953 43.4142 19.4142C44.1953 18.6332 44.1953 17.3668 43.4142 16.5858L37.4142 10.5858C36.6332 9.80474 35.3668 9.80474 34.5858 10.5858L28.5858 16.5858C27.8047 17.3668 27.8047 18.6332 28.5858 19.4142C29.3668 20.1953 30.6332 20.1953 31.4142 19.4142L36 14.8284L40.5858 19.4142Z" fill="black"/>
</svg>
