<svg width="48" height="48" viewBox="0 0 48 48" fill="none" xmlns="http://www.w3.org/2000/svg">
<path fill-rule="evenodd" clip-rule="evenodd" d="M20 4C16.6863 4 14 6.68629 14 10V24.8347L8.31194 20.998C7.16728 20.226 5.61345 20.528 4.84137 21.6727L3.16379 24.1598C2.3917 25.3044 2.69374 26.8583 3.8384 27.6303L14 34.4844V35C14 35.5523 14.4477 36 15 36H16.2469L16.274 36.0182C17.1538 36.6117 18.2753 36.5706 19.0978 36H37C37.5523 36 38 35.5523 38 35V10C38 6.68629 35.3137 4 32 4H20Z" fill="black"/>
<rect opacity="0.3" x="12" y="40" width="28" height="4" rx="1" fill="black"/>
</svg>
