<svg width="48" height="48" viewBox="0 0 48 48" fill="none" xmlns="http://www.w3.org/2000/svg">
<path opacity="0.3" fill-rule="evenodd" clip-rule="evenodd" d="M21 8C20.4477 8 20 8.44772 20 9V12H9.9801C7.78195 12 6 13.782 6 15.9801C6 15.9911 6.00891 16 6.0199 16H41.9802C41.9911 16 42.0001 15.9911 42.0001 15.9801C42.0001 13.782 40.2181 12 38.02 12H28V9C28 8.44772 27.5523 8 27 8H21ZM38 23C38 22.4477 38.4477 22 39 22H45C45.5523 22 46 22.4477 46 23V25C46 25.5523 45.5523 26 45 26H39C38.4477 26 38 25.5523 38 25V23ZM3 22C2.44772 22 2 22.4477 2 23V25C2 25.5523 2.44772 26 3 26H9C9.55228 26 10 25.5523 10 25V23C10 22.4477 9.55228 22 9 22H3Z" fill="black"/>
<path d="M8 19C8 18.4477 8.44772 18 9 18H39C39.5523 18 40 18.4477 40 19V38C40 40.2091 38.2091 42 36 42H12C9.79086 42 8 40.2091 8 38V19Z" fill="black"/>
</svg>
