<svg width="48" height="48" viewBox="0 0 48 48" fill="none" xmlns="http://www.w3.org/2000/svg">
<path opacity="0.3" fill-rule="evenodd" clip-rule="evenodd" d="M16.7574 30.2425C18.71 32.1952 18.71 35.361 16.7574 37.3136L12.5147 41.5562C10.5621 43.5089 7.39627 43.5089 5.44365 41.5562C3.49103 39.6036 3.49103 36.4378 5.44365 34.4852L9.68629 30.2425C11.6389 28.2899 14.8047 28.2899 16.7574 30.2425ZM7.63571 39.5056C8.61202 40.4819 10.1949 40.4819 11.1712 39.5056C12.1476 38.5293 12.1476 36.9464 11.1712 35.9701C10.1949 34.9938 8.61202 34.9938 7.63571 35.9701C6.6594 36.9464 6.6594 38.5293 7.63571 39.5056Z" fill="black"/>
<path fill-rule="evenodd" clip-rule="evenodd" d="M28.7781 2.66547L44.3345 18.2218C45.8966 19.7839 45.8966 22.3166 44.3345 23.8787L25.9497 42.2635C24.3876 43.8255 21.855 43.8255 20.2929 42.2635L4.73651 26.7071C3.17442 25.145 3.17442 22.6123 4.73651 21.0502L23.1213 2.66547C24.6834 1.10337 27.216 1.10337 28.7781 2.66547Z" fill="black"/>
</svg>
