<svg width="48" height="48" viewBox="0 0 48 48" fill="none" xmlns="http://www.w3.org/2000/svg">
<path opacity="0.3" fill-rule="evenodd" clip-rule="evenodd" d="M17.3644 25.5109L25.7851 17.3792L15.485 6.71312C13.5668 4.72672 10.4014 4.67147 8.41504 6.58971L7.18775 7.77489C5.20135 9.69314 5.1461 12.8585 7.06434 14.8449L17.3644 25.5109ZM9.72363 13.2698C8.62749 12.1347 8.66762 10.3177 9.81326 9.21133C10.9589 8.105 12.7762 8.12831 13.8724 9.2634C14.9685 10.3985 14.9284 12.2155 13.7827 13.3218C12.6371 14.4282 10.8198 14.4049 9.72363 13.2698Z" fill="black"/>
<path fill-rule="evenodd" clip-rule="evenodd" d="M19.8786 39.8492C14.4113 34.3819 14.4113 25.5176 19.8786 20.0502C25.346 14.5829 34.2103 14.5829 39.6776 20.0502C45.145 25.5176 45.145 34.3819 39.6776 39.8492C34.2103 45.3165 25.346 45.3165 19.8786 39.8492ZM30 41C36.0751 41 41 36.0751 41 30C41 23.9248 36.0751 19 30 19C23.9249 19 19 23.9248 19 30C19 36.0751 23.9249 41 30 41ZM30 39C25.0294 39 21 34.9705 21 30C21 25.0294 25.0294 21 30 21C34.9706 21 39 25.0294 39 30C39 34.9705 34.9706 39 30 39Z" fill="black"/>
</svg>
