<svg width="48" height="48" viewBox="0 0 48 48" fill="none" xmlns="http://www.w3.org/2000/svg">
<path fill-rule="evenodd" clip-rule="evenodd" d="M8 16C6.89543 16 6 16.8954 6 18V42C6 43.1046 6.89543 44 8 44H40C41.1046 44 42 43.1046 42 42V18C42 16.8954 41.1046 16 40 16H8ZM34 30C34 35.5228 29.5228 40 24 40C18.4772 40 14 35.5228 14 30C14 24.4772 18.4772 20 24 20C29.5228 20 34 24.4772 34 30ZM23.1461 27.1233L24 22L24.8539 27.1233C26.0948 27.491 27 28.6398 27 30C27 31.6569 25.6569 33 24 33C22.3431 33 21 31.6569 21 30C21 28.6398 21.9052 27.491 23.1461 27.1233Z" fill="black"/>
<path opacity="0.3" fill-rule="evenodd" clip-rule="evenodd" d="M28 12V16H20V12H15.6055C13.353 12 11.2495 10.8742 10 9L9.03646 7.5547C8.73011 7.09517 8.85429 6.4743 9.31381 6.16795C9.47808 6.05844 9.67109 6 9.86851 6L38.1315 6C38.6838 6 39.1315 6.44772 39.1315 7C39.1315 7.19743 39.073 7.39043 38.9635 7.5547L38 9C36.7505 10.8742 34.647 12 32.3944 12H28Z" fill="black"/>
</svg>
