<svg width="48" height="48" viewBox="0 0 48 48" fill="none" xmlns="http://www.w3.org/2000/svg">
<path opacity="0.3" fill-rule="evenodd" clip-rule="evenodd" d="M11.565 29.2928L12.9792 30.707C13.7602 31.4881 13.7602 32.7544 12.9792 33.5355L7.32232 39.1923C6.54128 39.9734 5.27495 39.9734 4.4939 39.1923L3.07968 37.7781C2.29863 36.9971 2.29863 35.7307 3.07968 34.9497L8.73654 29.2928C9.51759 28.5118 10.7839 28.5118 11.565 29.2928Z" fill="black"/>
<path fill-rule="evenodd" clip-rule="evenodd" d="M12.9792 25.0504L34.1924 3.83716L44.0919 13.7367C46.435 16.0798 46.435 19.8788 44.0919 22.2219L31.364 34.9499C29.0208 37.293 25.2218 37.293 22.8787 34.9499L12.9792 25.0504ZM34.3137 15.0295C35.4852 13.858 35.4852 11.9585 34.3137 10.7869C33.1421 9.61532 31.2426 9.61532 30.071 10.7869C28.8995 11.9585 28.8995 13.858 30.071 15.0295C31.2426 16.2011 33.1421 16.2011 34.3137 15.0295Z" fill="black"/>
</svg>
