<svg width="48" height="48" viewBox="0 0 48 48" fill="none" xmlns="http://www.w3.org/2000/svg">
<path opacity="0.3" fill-rule="evenodd" clip-rule="evenodd" d="M17.0503 29.1214L19.8787 31.9499C20.6598 32.7309 20.6598 33.9972 19.8787 34.7783L9.97921 44.6778C9.19816 45.4588 7.93183 45.4588 7.15079 44.6778L4.32236 41.8494C3.54131 41.0683 3.54131 39.802 4.32236 39.0209L14.2219 29.1214C15.0029 28.3404 16.2692 28.3404 17.0503 29.1214Z" fill="black"/>
<path fill-rule="evenodd" clip-rule="evenodd" d="M22.7071 23.4646L18.4645 19.2219C16.9024 17.6598 16.9024 15.1272 18.4645 13.5651L26.9498 5.07978C28.5119 3.51768 31.0445 3.51768 32.6066 5.07978L43.9203 16.3935C45.4824 17.9556 45.4824 20.4882 43.9203 22.0503L35.435 30.5356C33.8729 32.0977 31.3403 32.0977 29.7782 30.5356L25.5355 26.293L21.2929 30.5356L18.4645 27.7072L22.7071 23.4646ZM30.4853 8.61527L22 17.1006L23.4142 18.5148L31.8995 10.0295L30.4853 8.61527ZM34.7279 12.8579L26.2426 21.3432L27.6568 22.7574L36.1421 14.2721L34.7279 12.8579ZM38.9706 17.1006L30.4853 25.5859L31.8995 27.0001L40.3848 18.5148L38.9706 17.1006Z" fill="black"/>
</svg>
