<svg height="48" viewBox="0 0 24 24" width="48" xmlns="http://www.w3.org/2000/svg"><path d="m3 5h2v-2c-1.1 0-2 .9-2 2z"/><path d="m3 13h2v-2h-2z"/><path d="m7 21h2v-2h-2z"/><path d="m3 9h2v-2h-2z"/><path d="m13 3h-2v2h2z"/><path d="m19 3v2h2c0-1.1-.9-2-2-2z"/><path d="m5 21v-2h-2c0 1.1.9 2 2 2z"/><path d="m3 17h2v-2h-2z"/><path d="m9 3h-2v2h2z"/><path d="m11 21h2v-2h-2z"/><path d="m19 13h2v-2h-2z"/><path d="m19 21c1.1 0 2-.9 2-2h-2z"/><path d="m19 9h2v-2h-2z"/><path d="m19 17h2v-2h-2z"/><path d="m15 21h2v-2h-2z"/><path d="m15 5h2v-2h-2z"/><path d="m9 9h6v6h-6zm-2 8h10v-10h-10z"/></svg>