<svg width="48" height="48" viewBox="0 0 48 48" fill="none" xmlns="http://www.w3.org/2000/svg">
<path d="M25.4142 13.4142C26.1953 12.6332 26.1953 11.3668 25.4142 10.5858C24.6332 9.80474 23.3668 9.80474 22.5858 10.5858L10.5858 22.5858C9.82863 23.3429 9.80214 24.5621 10.5257 25.3514L21.5257 37.3514C22.2721 38.1657 23.5372 38.2207 24.3514 37.4743C25.1657 36.7279 25.2207 35.4628 24.4743 34.6486L14.7683 24.0602L25.4142 13.4142Z" fill="black"/>
<path opacity="0.3" d="M39.4142 13.4142C40.1953 12.6332 40.1953 11.3668 39.4142 10.5858C38.6332 9.80474 37.3668 9.80474 36.5858 10.5858L24.5858 22.5858C23.8286 23.3429 23.8021 24.5621 24.5257 25.3514L35.5257 37.3514C36.2721 38.1657 37.5372 38.2207 38.3514 37.4743C39.1657 36.7279 39.2207 35.4628 38.4743 34.6486L28.7683 24.0602L39.4142 13.4142Z" fill="black"/>
</svg>
