<svg width="48" height="48" viewBox="0 0 48 48" fill="none" xmlns="http://www.w3.org/2000/svg">
<path d="M24.5858 13.4142C23.8047 12.6332 23.8047 11.3668 24.5858 10.5858C25.3668 9.80474 26.6332 9.80474 27.4142 10.5858L39.4142 22.5858C40.1714 23.3429 40.1979 24.5621 39.4743 25.3514L28.4743 37.3514C27.7279 38.1657 26.4628 38.2207 25.6486 37.4743C24.8343 36.7279 24.7793 35.4628 25.5257 34.6486L35.2317 24.0602L24.5858 13.4142Z" fill="black"/>
<path opacity="0.3" d="M10.5858 13.4142C9.80474 12.6332 9.80474 11.3668 10.5858 10.5858C11.3668 9.80474 12.6332 9.80474 13.4142 10.5858L25.4142 22.5858C26.1714 23.3429 26.1979 24.5621 25.4743 25.3514L14.4743 37.3514C13.7279 38.1657 12.4628 38.2207 11.6485 37.4743C10.8343 36.7279 10.7793 35.4628 11.5257 34.6486L21.2317 24.0602L10.5858 13.4142Z" fill="black"/>
</svg>
