<svg width="48" height="48" viewBox="0 0 48 48" fill="none" xmlns="http://www.w3.org/2000/svg">
<path d="M34.5858 38.4142C35.3668 39.1953 36.6332 39.1953 37.4142 38.4142C38.1953 37.6332 38.1953 36.3668 37.4142 35.5858L25.4142 23.5858C24.6571 22.8286 23.4379 22.8021 22.6485 23.5257L10.6485 34.5257C9.83431 35.2721 9.7793 36.5372 10.5257 37.3514C11.2721 38.1657 12.5372 38.2207 13.3514 37.4743L23.9398 27.7683L34.5858 38.4142Z" fill="black"/>
<path opacity="0.3" d="M34.5858 24.4142C35.3668 25.1953 36.6332 25.1953 37.4142 24.4142C38.1953 23.6332 38.1953 22.3668 37.4142 21.5858L25.4142 9.58579C24.6571 8.82863 23.4379 8.80214 22.6485 9.52569L10.6485 20.5257C9.83431 21.2721 9.7793 22.5372 10.5257 23.3515C11.2721 24.1657 12.5372 24.2207 13.3514 23.4743L23.9398 13.7683L34.5858 24.4142Z" fill="black"/>
</svg>
