<svg width="48" height="48" viewBox="0 0 48 48" fill="none" xmlns="http://www.w3.org/2000/svg">
<path d="M34.5858 9.58579C35.3668 8.80474 36.6332 8.80474 37.4142 9.58579C38.1953 10.3668 38.1953 11.6332 37.4142 12.4142L25.4142 24.4142C24.6571 25.1714 23.4379 25.1979 22.6485 24.4743L10.6485 13.4743C9.83431 12.7279 9.7793 11.4628 10.5257 10.6486C11.2721 9.83431 12.5372 9.77931 13.3514 10.5257L23.9398 20.2317L34.5858 9.58579Z" fill="black"/>
<path opacity="0.3" d="M34.5858 23.5858C35.3668 22.8047 36.6332 22.8047 37.4142 23.5858C38.1953 24.3668 38.1953 25.6332 37.4142 26.4142L25.4142 38.4142C24.6571 39.1714 23.4379 39.1979 22.6485 38.4743L10.6485 27.4743C9.83431 26.7279 9.7793 25.4628 10.5257 24.6485C11.2721 23.8343 12.5372 23.7793 13.3514 24.5257L23.9398 34.2317L34.5858 23.5858Z" fill="black"/>
</svg>
