<svg width="48" height="48" viewBox="0 0 48 48" fill="none" xmlns="http://www.w3.org/2000/svg">
<rect opacity="0.3" x="14" y="22" width="20" height="4" rx="1" fill="black"/>
<path d="M30.5858 13.4142C29.8047 12.6332 29.8047 11.3668 30.5858 10.5858C31.3668 9.80474 32.6332 9.80474 33.4142 10.5858L45.4142 22.5858C46.1714 23.3429 46.1979 24.5621 45.4743 25.3514L34.4743 37.3514C33.7279 38.1657 32.4628 38.2207 31.6486 37.4743C30.8343 36.7279 30.7793 35.4628 31.5257 34.6486L41.2317 24.0602L30.5858 13.4142Z" fill="black"/>
<path d="M17.4142 34.5858C18.1953 35.3668 18.1953 36.6332 17.4142 37.4142C16.6332 38.1953 15.3668 38.1953 14.5858 37.4142L2.58579 25.4142C1.82863 24.6571 1.80214 23.4379 2.52569 22.6485L13.5257 10.6485C14.2721 9.83431 15.5372 9.7793 16.3515 10.5257C17.1657 11.2721 17.2207 12.5372 16.4743 13.3514L6.76828 23.9398L17.4142 34.5858Z" fill="black"/>
</svg>
