<svg width="48" height="48" viewBox="0 0 48 48" fill="none" xmlns="http://www.w3.org/2000/svg">
<path d="M27.4142 28.5858C28.1953 29.3668 28.1953 30.6332 27.4142 31.4142C26.6332 32.1953 25.3668 32.1953 24.5858 31.4142L12.5858 19.4142C11.8286 18.6571 11.8021 17.4379 12.5257 16.6486L23.5257 4.64855C24.2721 3.83431 25.5372 3.77931 26.3515 4.52569C27.1657 5.27208 27.2207 6.53721 26.4743 7.35145L16.7683 17.9398L27.4142 28.5858Z" fill="black"/>
<path opacity="0.3" d="M23 16C21.8954 16 21 16.8954 21 18C21 19.1046 21.8954 20 23 20H36C37.1046 20 38 20.8954 38 22V42.0832C38 43.1878 38.8954 44.0832 40 44.0832C41.1046 44.0832 42 43.1878 42 42.0832V22C42 18.6863 39.3137 16 36 16H23Z" fill="black"/>
</svg>
