<svg width="48" height="48" viewBox="0 0 48 48" fill="none" xmlns="http://www.w3.org/2000/svg">
<path d="M26.5858 28.5858C25.8047 29.3668 25.8047 30.6332 26.5858 31.4142C27.3668 32.1953 28.6332 32.1953 29.4142 31.4142L41.4142 19.4142C42.1714 18.6571 42.1979 17.4379 41.4743 16.6486L30.4743 4.64855C29.7279 3.83431 28.4628 3.77931 27.6485 4.52569C26.8343 5.27208 26.7793 6.53721 27.5257 7.35145L37.2317 17.9398L26.5858 28.5858Z" fill="black"/>
<path opacity="0.3" d="M31 16C32.1046 16 33 16.8954 33 18C33 19.1046 32.1046 20 31 20H18C16.8954 20 16 20.8954 16 22V42.0832C16 43.1878 15.1046 44.0832 14 44.0832C12.8954 44.0832 12 43.1878 12 42.0832V22C12 18.6863 14.6863 16 18 16H31Z" fill="black"/>
</svg>
