<svg width="48" height="48" viewBox="0 0 48 48" fill="none" xmlns="http://www.w3.org/2000/svg">
<path fill-rule="evenodd" clip-rule="evenodd" d="M42 24C42 33.9411 33.9411 42 24 42C14.0589 42 6 33.9411 6 24C6 14.0589 14.0589 6 24 6C33.9411 6 42 14.0589 42 24ZM29.1655 14.1587C29.5093 13.9317 29.9648 14.1946 29.9401 14.6059L29.2111 26.7504C29.2017 26.9075 29.1189 27.051 28.9875 27.1377L18.8345 33.8413C18.4907 34.0683 18.0352 33.8054 18.0599 33.3941L18.7889 21.2495C18.7983 21.0924 18.8811 20.949 19.0125 20.8622L29.1655 14.1587Z" fill="black"/>
</svg>
