<svg height="48" viewBox="0 0 24 24" width="48" xmlns="http://www.w3.org/2000/svg"><path d="m16 4.8c.99 0 1.8-.81 1.8-1.8s-.81-1.8-1.8-1.8c-1 0-1.8.81-1.8 1.8s.8 1.8 1.8 1.8z"/><path d="m19 20.5c-1.93 0-3.5-1.57-3.5-3.5s1.57-3.5 3.5-3.5 3.5 1.57 3.5 3.5-1.57 3.5-3.5 3.5zm0-8.5c-2.76 0-5 2.24-5 5s2.24 5 5 5 5-2.24 5-5-2.24-5-5-5z"/><path d="m14.8 10h4.2v-1.8h-3.2l-1.93-3.27c-.3-.5-.84-.83-1.46-.83-.47 0-.89.19-1.2.5l-3.7 3.7c-.32.3-.51.73-.51 1.2 0 .63.33 1.16.85 1.47l3.35 2.03v5h1.8v-6.48l-2.25-1.67 2.32-2.33z"/><path d="m5 20.5c-1.93 0-3.5-1.57-3.5-3.5s1.57-3.5 3.5-3.5 3.5 1.57 3.5 3.5-1.57 3.5-3.5 3.5zm0-8.5c-2.76 0-5 2.24-5 5s2.24 5 5 5 5-2.24 5-5-2.24-5-5-5z"/></svg>