<svg xmlns="http://www.w3.org/2000/svg" viewBox="0 0 24 24" width="48" height="48"><path d="M17 5c.83 0 1.5-.67 1.5-1.5 0-1-1.5-2.7-1.5-2.7s-1.5 1.7-1.5 2.7c0 .83.67 1.5 1.5 1.5z"/><path d="M12 5c.83 0 1.5-.67 1.5-1.5 0-1-1.5-2.7-1.5-2.7s-1.5 1.7-1.5 2.7c0 .83.67 1.5 1.5 1.5z"/><path d="M7 5c.83 0 1.5-.67 1.5-1.5C8.5 2.5 7 .8 7 .8S5.5 2.5 5.5 3.5C5.5 4.33 6.17 5 7 5z"/><path d="M5 13l1.5-4.5h11L19 13H5zm12.5 5c-.83 0-1.5-.67-1.5-1.5s.67-1.5 1.5-1.5 1.5.67 1.5 1.5-.67 1.5-1.5 1.5zm-11 0c-.83 0-1.5-.67-1.5-1.5S5.67 15 6.5 15s1.5.67 1.5 1.5S7.33 18 6.5 18zm12.42-9.99C18.72 7.42 18.16 7 17.5 7h-11c-.66 0-1.21.42-1.42 1.01L3 14v8c0 .55.45 1 1 1h1c.55 0 1-.45 1-1v-1h12v1c0 .55.45 1 1 1h1c.55 0 1-.45 1-1v-8l-2.08-5.99z"/></svg>