<svg width="48" height="48" viewBox="0 0 48 48" fill="none" xmlns="http://www.w3.org/2000/svg">
<path opacity="0.3" fill-rule="evenodd" clip-rule="evenodd" d="M32 30C37.5228 30 42 25.5228 42 20C42 14.4772 37.5228 10 32 10C26.4772 10 22 14.4772 22 20C22 25.5228 26.4772 30 32 30Z" fill="black"/>
<path fill-rule="evenodd" clip-rule="evenodd" d="M29.6219 23C28.2898 17.8243 23.5915 14 18 14C11.3726 14 6 19.3726 6 26C6 29.1438 7.20895 32.0053 9.1873 34.1448C9.79822 36.3673 11.8334 38 14.25 38H18H36.75C39.6495 38 42 35.6495 42 32.75V28.25C42 25.3505 39.6495 23 36.75 23H29.6219Z" fill="black"/>
</svg>
