<svg width="48" height="48" viewBox="0 0 48 48" fill="none" xmlns="http://www.w3.org/2000/svg">
<path fill-rule="evenodd" clip-rule="evenodd" d="M29.6219 15C28.2898 9.82432 23.5915 6 18 6C11.3726 6 6 11.3726 6 18C6 21.1438 7.20895 24.0053 9.1873 26.1448C9.79822 28.3673 11.8334 30 14.25 30H18H36.75C39.6495 30 42 27.6495 42 24.75V20.25C42 17.3505 39.6495 15 36.75 15H29.6219Z" fill="black"/>
<path opacity="0.3" fill-rule="evenodd" clip-rule="evenodd" d="M8 35C8 34.4477 8.44772 34 9 34H41C41.5523 34 42 34.4477 42 35C42 35.5523 41.5523 36 41 36H9C8.44772 36 8 35.5523 8 35ZM8 39C8 38.4477 8.44772 38 9 38H17C17.5523 38 18 38.4477 18 39C18 39.5523 17.5523 40 17 40H9C8.44772 40 8 39.5523 8 39ZM33 42C32.4477 42 32 42.4477 32 43C32 43.5523 32.4477 44 33 44H41C41.5523 44 42 43.5523 42 43C42 42.4477 41.5523 42 41 42H33ZM22 39C22 38.4477 22.4477 38 23 38H41C41.5523 38 42 38.4477 42 39C42 39.5523 41.5523 40 41 40H23C22.4477 40 22 39.5523 22 39ZM9 42C8.44772 42 8 42.4477 8 43C8 43.5523 8.44772 44 9 44H27C27.5523 44 28 43.5523 28 43C28 42.4477 27.5523 42 27 42H9Z" fill="black"/>
</svg>
