<svg width="48" height="48" viewBox="0 0 48 48" fill="none" xmlns="http://www.w3.org/2000/svg">
<path fill-rule="evenodd" clip-rule="evenodd" d="M29.6219 9C28.2898 3.82432 23.5915 0 18 0C11.3726 0 6 5.37258 6 12C6 15.1438 7.20895 18.0053 9.1873 20.1448C9.79822 22.3673 11.8334 24 14.25 24H18H36.75C39.6495 24 42 21.6495 42 18.75V14.25C42 11.3505 39.6495 9 36.75 9H29.6219Z" fill="black"/>
<path opacity="0.3" d="M8 28V32H35C36.6569 32 38 33.3431 38 35V36C38 37.1046 37.1046 38 36 38C34.8954 38 34 37.1046 34 36V34H30V36C30 39.3137 32.6863 42 36 42C39.3137 42 42 39.3137 42 36V35C42 31.134 38.866 28 35 28H8Z" fill="black"/>
<path opacity="0.3" d="M8 34V38H21C22.6569 38 24 39.3431 24 41V42C24 43.1046 23.1046 44 22 44C20.8954 44 20 43.1046 20 42V40H16V42C16 45.3137 18.6863 48 22 48C25.3137 48 28 45.3137 28 42V41C28 37.134 24.866 34 21 34H8Z" fill="black"/>
</svg>
