<svg width="48" height="48" viewBox="0 0 48 48" fill="none" xmlns="http://www.w3.org/2000/svg">
<path opacity="0.3" fill-rule="evenodd" clip-rule="evenodd" d="M23.7339 3.5C23.7339 2.67157 24.4055 2 25.2339 2H27.4839C28.3123 2 28.9839 2.67157 28.9839 3.5V8.375C28.9839 9.20343 28.3123 9.875 27.4839 9.875H25.2339C24.4055 9.875 23.7339 9.20343 23.7339 8.375V3.5ZM32.6696 10.4453C32.0838 11.031 32.0838 11.9808 32.6696 12.5666L34.2606 14.1576C34.8463 14.7434 35.7961 14.7434 36.3819 14.1576L39.829 10.7104C40.4148 10.1246 40.4148 9.17488 39.829 8.5891L38.238 6.99811C37.6522 6.41232 36.7025 6.41232 36.1167 6.99811L32.6696 10.4453ZM20 19C20 22.866 23.134 26 27 26C30.866 26 34 22.866 34 19C34 15.134 30.866 12 27 12C23.134 12 20 15.134 20 19ZM16 45C16 46.6569 14.6569 48 13 48C11.3431 48 10 46.6569 10 45C10 43.3431 13 40 13 40C13 40 16 43.3431 16 45ZM26 45C26 46.6569 24.6569 48 23 48C21.3431 48 20 46.6569 20 45C20 43.3431 23 40 23 40C23 40 26 43.3431 26 45ZM33 48C34.6569 48 36 46.6569 36 45C36 43.3431 33 40 33 40C33 40 30 43.3431 30 45C30 46.6569 31.3431 48 33 48ZM36.8589 19.25C36.8589 18.4216 37.5305 17.75 38.3589 17.75H43.2339C44.0623 17.75 44.7339 18.4216 44.7339 19.25V21.5C44.7339 22.3284 44.0623 23 43.2339 23H38.3589C37.5305 23 36.8589 22.3284 36.8589 21.5V19.25ZM12.9821 8.5892C12.3963 9.17498 12.3963 10.1247 12.9821 10.7105L16.4292 14.1577C17.015 14.7434 17.9647 14.7434 18.5505 14.1577L20.1415 12.5667C20.7273 11.9809 20.7273 11.0311 20.1415 10.4454L16.6944 6.99821C16.1086 6.41242 15.1588 6.41242 14.5731 6.99821L12.9821 8.5892Z" fill="black"/>
<path fill-rule="evenodd" clip-rule="evenodd" d="M27.6219 23C26.2898 17.8243 21.5915 14 16 14C9.37258 14 4 19.3726 4 26C4 29.1438 5.20895 32.0053 7.1873 34.1448C7.79822 36.3673 9.83344 38 12.25 38H16H34.75C37.6495 38 40 35.6495 40 32.75V28.25C40 25.3505 37.6495 23 34.75 23H27.6219Z" fill="black"/>
</svg>
