<svg width="48" height="48" viewBox="0 0 48 48" fill="none" xmlns="http://www.w3.org/2000/svg">
<path fill-rule="evenodd" clip-rule="evenodd" d="M23.208 12H40V16H28V23.456H38.976V27.272H28V38H23.208V12Z" fill="black"/>
<path opacity="0.3" fill-rule="evenodd" clip-rule="evenodd" d="M7.88994 15.6081C7.58994 16.3041 7.43994 17.0481 7.43994 17.8401C7.43994 18.6321 7.58994 19.3761 7.88994 20.0721C8.18994 20.7681 8.60394 21.3801 9.13194 21.9081C9.65994 22.4361 10.2719 22.8501 10.9679 23.1501C11.6639 23.4501 12.4079 23.6001 13.1999 23.6001C13.9919 23.6001 14.7359 23.4501 15.4319 23.1501C16.1279 22.8501 16.7399 22.4361 17.2679 21.9081C17.7959 21.3801 18.2099 20.7681 18.5099 20.0721C18.8099 19.3761 18.9599 18.6321 18.9599 17.8401C18.9599 17.0481 18.8099 16.3041 18.5099 15.6081C18.2099 14.9121 17.7959 14.3001 17.2679 13.7721C16.7399 13.2441 16.1279 12.8301 15.4319 12.5301C14.7359 12.2301 13.9919 12.0801 13.1999 12.0801C12.4079 12.0801 11.6639 12.2301 10.9679 12.5301C10.2719 12.8301 9.65994 13.2441 9.13194 13.7721C8.60394 14.3001 8.18994 14.9121 7.88994 15.6081ZM11.1119 19.9281C10.5359 19.3521 10.2479 18.6561 10.2479 17.8401C10.2479 17.0241 10.5359 16.3281 11.1119 15.7521C11.6879 15.1761 12.3839 14.8881 13.1999 14.8881C14.0159 14.8881 14.7119 15.1761 15.2879 15.7521C15.8639 16.3281 16.1519 17.0241 16.1519 17.8401C16.1519 18.6561 15.8639 19.3521 15.2879 19.9281C14.7119 20.5041 14.0159 20.7921 13.1999 20.7921C12.3839 20.7921 11.6879 20.5041 11.1119 19.9281Z" fill="black"/>
</svg>
