<svg width="48" height="48" viewBox="0 0 48 48" fill="none" xmlns="http://www.w3.org/2000/svg">
<path opacity="0.3" fill-rule="evenodd" clip-rule="evenodd" d="M47.8373 15.3392C47.2944 18.7495 44.9979 21.7853 41.5422 23.1118C36.3862 25.091 30.6019 22.5157 28.6227 17.3597C26.6435 12.2037 29.2188 6.41942 34.3748 4.44021C34.4021 4.42974 34.4294 4.4194 34.4567 4.40918C34.1896 6.08713 34.347 7.85574 34.9997 9.55603C36.9684 14.6848 42.702 17.26 47.8373 15.3392ZM13 44C14.6569 44 16 42.6568 16 41C16 39.3431 13 36 13 36C13 36 10 39.3431 10 41C10 42.6568 11.3431 44 13 44ZM23 44C24.6569 44 26 42.6568 26 41C26 39.3431 23 36 23 36C23 36 20 39.3431 20 41C20 42.6568 21.3431 44 23 44ZM36 41C36 42.6568 34.6569 44 33 44C31.3431 44 30 42.6568 30 41C30 39.3431 33 36 33 36C33 36 36 39.3431 36 41Z" fill="black"/>
<path fill-rule="evenodd" clip-rule="evenodd" d="M29.6219 19C28.2898 13.8243 23.5915 10 18 10C11.3726 10 6 15.3726 6 22C6 25.1438 7.20895 28.0053 9.1873 30.1448C9.79822 32.3673 11.8334 34 14.25 34H18H36.75C39.6495 34 42 31.6495 42 28.75V24.25C42 21.3505 39.6495 19 36.75 19H29.6219Z" fill="black"/>
</svg>
