<svg width="48" height="48" viewBox="0 0 48 48" fill="none" xmlns="http://www.w3.org/2000/svg">
<path fill-rule="evenodd" clip-rule="evenodd" d="M25.762 6.00041C24.8262 7.61827 24.2906 9.49659 24.2906 11.5C24.2906 17.543 29.1635 22.4478 35.1943 22.4996C33.2924 25.7877 29.7374 28 25.6656 28C19.5905 28 14.6656 23.0751 14.6656 17C14.6656 10.9249 19.5905 6 25.6656 6C25.6978 6 25.7299 6.00014 25.762 6.00041Z" fill="black"/>
<path opacity="0.3" fill-rule="evenodd" clip-rule="evenodd" d="M4 33C4 32.4477 4.44772 32 5 32H43C43.5523 32 44 32.4477 44 33C44 33.5523 43.5523 34 43 34H5C4.44771 34 4 33.5523 4 33ZM4 37C4 36.4477 4.44772 36 5 36H15C15.5523 36 16 36.4477 16 37C16 37.5523 15.5523 38 15 38H5C4.44772 38 4 37.5523 4 37ZM29 40C28.4477 40 28 40.4477 28 41C28 41.5523 28.4477 42 29 42H43C43.5523 42 44 41.5523 44 41C44 40.4477 43.5523 40 43 40H29ZM18 37C18 36.4477 18.4477 36 19 36H43C43.5523 36 44 36.4477 44 37C44 37.5523 43.5523 38 43 38H19C18.4477 38 18 37.5523 18 37ZM5 40C4.44772 40 4 40.4477 4 41C4 41.5523 4.44772 42 5 42H25C25.5523 42 26 41.5523 26 41C26 40.4477 25.5523 40 25 40H5Z" fill="black"/>
</svg>
