<svg width="48" height="48" viewBox="0 0 48 48" fill="none" xmlns="http://www.w3.org/2000/svg">
<path fill-rule="evenodd" clip-rule="evenodd" d="M29.6219 15C28.2898 9.82432 23.5915 6 18 6C11.3726 6 6 11.3726 6 18C6 21.1438 7.20895 24.0053 9.1873 26.1448C9.79822 28.3673 11.8334 30 14.25 30H18H36.75C39.6495 30 42 27.6495 42 24.75V20.25C42 17.3505 39.6495 15 36.75 15H29.6219Z" fill="black"/>
<path opacity="0.3" fill-rule="evenodd" clip-rule="evenodd" d="M31.621 32.6867C31.764 32.1533 32.3123 31.8367 32.8458 31.9796L34.7776 32.4973C35.3111 32.6402 35.6277 33.1886 35.4848 33.722L32.8966 43.3813C32.7536 43.9147 32.2053 44.2313 31.6718 44.0884L29.74 43.5707C29.2065 43.4278 28.8899 42.8795 29.0329 42.346L31.621 32.6867ZM15.621 32.6867C15.764 32.1533 16.3123 31.8367 16.8458 31.9796L18.7776 32.4973C19.3111 32.6402 19.6277 33.1886 19.4848 33.722L16.8966 43.3813C16.7536 43.9147 16.2053 44.2313 15.6718 44.0884L13.74 43.5707C13.2065 43.4278 12.8899 42.8795 13.0329 42.346L15.621 32.6867ZM24.8458 31.9796C24.3123 31.8367 23.764 32.1533 23.621 32.6867L21.0329 42.346C20.8899 42.8795 21.2065 43.4278 21.74 43.5707L23.6718 44.0884C24.2053 44.2313 24.7536 43.9147 24.8966 43.3813L27.4848 33.722C27.6277 33.1886 27.3111 32.6402 26.7776 32.4973L24.8458 31.9796Z" fill="black"/>
</svg>
