<svg width="48" height="48" viewBox="0 0 48 48" fill="none" xmlns="http://www.w3.org/2000/svg">
<path fill-rule="evenodd" clip-rule="evenodd" d="M29.6219 15C28.2898 9.82432 23.5915 6 18 6C11.3726 6 6 11.3726 6 18C6 21.1438 7.20895 24.0053 9.1873 26.1448C9.79822 28.3673 11.8334 30 14.25 30H18H36.75C39.6495 30 42 27.6495 42 24.75V20.25C42 17.3505 39.6495 15 36.75 15H29.6219Z" fill="black"/>
<path opacity="0.3" fill-rule="evenodd" clip-rule="evenodd" d="M13 42C14.6569 42 16 40.6569 16 39C16 37.3431 13 34 13 34C13 34 10 37.3431 10 39C10 40.6569 11.3431 42 13 42ZM23 42C24.6569 42 26 40.6569 26 39C26 37.3431 23 34 23 34C23 34 20 37.3431 20 39C20 40.6569 21.3431 42 23 42ZM36 39C36 40.6569 34.6569 42 33 42C31.3431 42 30 40.6569 30 39C30 37.3431 33 34 33 34C33 34 36 37.3431 36 39Z" fill="black"/>
</svg>
