<svg width="48" height="49" viewBox="0 0 48 49" fill="none" xmlns="http://www.w3.org/2000/svg">
<path opacity="0.3" fill-rule="evenodd" clip-rule="evenodd" d="M23 2.5C23 1.67157 23.6716 1 24.5 1H27.5C28.3284 1 29 1.67157 29 2.5V8.5C29 9.32843 28.3284 10 27.5 10H24.5C23.6716 10 23 9.32843 23 8.5V2.5ZM33.0606 10.8033C32.4749 11.3891 32.4749 12.3389 33.0606 12.9246L35.182 15.046C35.7678 15.6318 36.7175 15.6318 37.3033 15.046L41.5459 10.8033C42.1317 10.2175 42.1317 9.26779 41.5459 8.68201L39.4246 6.56069C38.8388 5.9749 37.8891 5.9749 37.3033 6.56069L33.0606 10.8033ZM18 22C18 26.4183 21.5817 30 26 30C30.4183 30 34 26.4183 34 22C34 17.5817 30.4183 14 26 14C21.5817 14 18 17.5817 18 22ZM13.621 44.6868C13.764 44.1534 14.3123 43.8368 14.8458 43.9797L16.7776 44.4974C17.3111 44.6403 17.6277 45.1887 17.4848 45.7221L16.9671 47.654C16.8242 48.1874 16.2758 48.504 15.7424 48.3611L13.8105 47.8434C13.2771 47.7005 12.9605 47.1522 13.1034 46.6187L13.621 44.6868ZM22.8458 43.9797C22.3123 43.8368 21.764 44.1534 21.6211 44.6868L21.1034 46.6187C20.9605 47.1522 21.2771 47.7005 21.8105 47.8434L23.7424 48.3611C24.2758 48.504 24.8242 48.1874 24.9671 47.654L25.4848 45.7221C25.6277 45.1887 25.3111 44.6403 24.7776 44.4974L22.8458 43.9797ZM30.8458 43.9797C30.3123 43.8368 29.764 44.1534 29.621 44.6868L29.1034 46.6187C28.9605 47.1522 29.2771 47.7005 29.8105 47.8434L31.7424 48.3611C32.2758 48.504 32.8242 48.1874 32.9671 47.654L33.4848 45.7221C33.6277 45.1887 33.3111 44.6403 32.7776 44.4974L30.8458 43.9797ZM38 20.5C38 19.6716 38.6716 19 39.5 19H45.5C46.3284 19 47 19.6716 47 20.5V23.5C47 24.3284 46.3284 25 45.5 25H39.5C38.6716 25 38 24.3284 38 23.5V20.5ZM10.5606 8.682C9.97486 9.26779 9.97486 10.2175 10.5606 10.8033L14.8033 15.046C15.3891 15.6317 16.3388 15.6317 16.9246 15.046L19.0459 12.9246C19.6317 12.3389 19.6317 11.3891 19.0459 10.8033L14.8033 6.56068C14.2175 5.97489 13.2678 5.97489 12.682 6.56068L10.5606 8.682Z" fill="black"/>
<path fill-rule="evenodd" clip-rule="evenodd" d="M27.6219 25C26.2898 19.8243 21.5915 16 16 16C9.37258 16 4 21.3726 4 28C4 31.1438 5.20895 34.0053 7.1873 36.1448C7.79822 38.3673 9.83344 40 12.25 40H16H34.75C37.6495 40 40 37.6495 40 34.75V30.25C40 27.3505 37.6495 25 34.75 25H27.6219Z" fill="black"/>
</svg>
