<svg width="48" height="48" viewBox="0 0 48 48" fill="none" xmlns="http://www.w3.org/2000/svg">
<path d="M16 28C16 23.5817 19.5817 20 24 20C28.4183 20 32 23.5817 32 28H16Z" fill="black"/>
<path opacity="0.3" fill-rule="evenodd" clip-rule="evenodd" d="M22.5 5C21.6716 5 21 5.67157 21 6.5V12.5C21 13.3284 21.6716 14 22.5 14H25.5C26.3284 14 27 13.3284 27 12.5V6.5C27 5.67157 26.3284 5 25.5 5H22.5ZM31.0607 14.8033C30.4749 15.3891 30.4749 16.3389 31.0607 16.9246L33.182 19.046C33.7678 19.6318 34.7175 19.6318 35.3033 19.046L39.5459 14.8033C40.1317 14.2175 40.1317 13.2678 39.5459 12.682L37.4246 10.5607C36.8388 9.9749 35.8891 9.9749 35.3033 10.5607L31.0607 14.8033ZM37.5 22C36.6716 22 36 22.6716 36 23.5V26.5C36 27.3284 36.6716 28 37.5 28H43.5C44.3284 28 45 27.3284 45 26.5V23.5C45 22.6716 44.3284 22 43.5 22H37.5ZM3 23.5C3 22.6716 3.67157 22 4.5 22H10.5C11.3284 22 12 22.6716 12 23.5V26.5C12 27.3284 11.3284 28 10.5 28H4.5C3.67157 28 3 27.3284 3 26.5V23.5ZM8.56066 14.8033C7.97487 14.2175 7.97487 13.2678 8.56066 12.682L10.682 10.5607C11.2678 9.97489 12.2175 9.97489 12.8033 10.5607L17.0459 14.8033C17.6317 15.3891 17.6317 16.3389 17.0459 16.9246L14.9246 19.046C14.3388 19.6317 13.3891 19.6317 12.8033 19.046L8.56066 14.8033ZM5 32C4.44772 32 4 32.4477 4 33C4 33.5523 4.44771 34 5 34H43C43.5523 34 44 33.5523 44 33C44 32.4477 43.5523 32 43 32H5ZM4 37C4 36.4477 4.44772 36 5 36H15C15.5523 36 16 36.4477 16 37C16 37.5523 15.5523 38 15 38H5C4.44772 38 4 37.5523 4 37ZM29 40C28.4477 40 28 40.4477 28 41C28 41.5523 28.4477 42 29 42H43C43.5523 42 44 41.5523 44 41C44 40.4477 43.5523 40 43 40H29ZM18 37C18 36.4477 18.4477 36 19 36H43C43.5523 36 44 36.4477 44 37C44 37.5523 43.5523 38 43 38H19C18.4477 38 18 37.5523 18 37ZM5 40C4.44772 40 4 40.4477 4 41C4 41.5523 4.44772 42 5 42H25C25.5523 42 26 41.5523 26 41C26 40.4477 25.5523 40 25 40H5Z" fill="black"/>
</svg>
