<svg width="48" height="48" viewBox="0 0 48 48" fill="none" xmlns="http://www.w3.org/2000/svg">
<path d="M24 30C20.6863 30 18 27.3137 18 24C18 20.6863 20.6863 18 24 18C27.3137 18 30 20.6863 30 24C30 27.3137 27.3137 30 24 30Z" fill="black"/>
<path opacity="0.3" fill-rule="evenodd" clip-rule="evenodd" d="M21 4.5C21 3.67157 21.6716 3 22.5 3H25.5C26.3284 3 27 3.67157 27 4.5V10.5C27 11.3284 26.3284 12 25.5 12H22.5C21.6716 12 21 11.3284 21 10.5V4.5ZM31.0607 12.8033C30.4749 13.3891 30.4749 14.3389 31.0607 14.9246L33.182 17.046C33.7678 17.6318 34.7175 17.6318 35.3033 17.046L39.5459 12.8033C40.1317 12.2175 40.1317 11.2678 39.5459 10.682L37.4246 8.56069C36.8388 7.9749 35.8891 7.9749 35.3033 8.56069L31.0607 12.8033ZM37.5 21C36.6716 21 36 21.6716 36 22.5V25.5C36 26.3284 36.6716 27 37.5 27H43.5C44.3284 27 45 26.3284 45 25.5V22.5C45 21.6716 44.3284 21 43.5 21H37.5ZM31.0607 33.182C30.4749 33.7678 30.4749 34.7175 31.0607 35.3033L35.3033 39.546C35.8891 40.1317 36.8388 40.1317 37.4246 39.546L39.5459 37.4246C40.1317 36.8389 40.1317 35.8891 39.5459 35.3033L35.3033 31.0607C34.7175 30.4749 33.7678 30.4749 33.182 31.0607L31.0607 33.182ZM4.5 21C3.67157 21 3 21.6716 3 22.5V25.5C3 26.3284 3.67157 27 4.5 27H10.5C11.3284 27 12 26.3284 12 25.5V22.5C12 21.6716 11.3284 21 10.5 21H4.5ZM22.5 36C21.6716 36 21 36.6716 21 37.5V43.5C21 44.3284 21.6716 45 22.5 45H25.5C26.3284 45 27 44.3284 27 43.5V37.5C27 36.6716 26.3284 36 25.5 36H22.5ZM8.56066 12.8033C7.97487 12.2175 7.97487 11.2678 8.56066 10.682L10.682 8.56068C11.2678 7.97489 12.2175 7.97489 12.8033 8.56068L17.0459 12.8033C17.6317 13.3891 17.6317 14.3389 17.0459 14.9246L14.9246 17.046C14.3388 17.6317 13.3891 17.6317 12.8033 17.046L8.56066 12.8033ZM8.56066 37.4246C7.97487 36.8389 7.97487 35.8891 8.56066 35.3033L12.8033 31.0607C13.3891 30.4749 14.3388 30.4749 14.9246 31.0607L17.0459 33.182C17.6317 33.7678 17.6317 34.7175 17.0459 35.3033L12.8033 39.546C12.2175 40.1317 11.2678 40.1317 10.682 39.546L8.56066 37.4246Z" fill="black"/>
</svg>
