<svg width="48" height="48" viewBox="0 0 48 48" fill="none" xmlns="http://www.w3.org/2000/svg">
<path fill-rule="evenodd" clip-rule="evenodd" d="M17.0703 28C18.4535 25.6088 21.0389 24 24 24C26.9611 24 29.5465 25.6088 30.9297 28H17.0703ZM7.5 32C6.67157 32 6 32.6716 6 33.5V34.5C6 35.3284 6.67157 36 7.5 36H40.5C41.3284 36 42 35.3284 42 34.5V33.5C42 32.6716 41.3284 32 40.5 32H7.5Z" fill="black"/>
<path opacity="0.3" fill-rule="evenodd" clip-rule="evenodd" d="M21 10.5C21 9.67157 21.6716 9 22.5 9H25.5C26.3284 9 27 9.67157 27 10.5V16.5C27 17.3284 26.3284 18 25.5 18H22.5C21.6716 18 21 17.3284 21 16.5V10.5ZM31.0607 20.9246C30.4749 20.3389 30.4749 19.3891 31.0607 18.8033L35.3033 14.5607C35.8891 13.9749 36.8389 13.9749 37.4246 14.5607L39.546 16.682C40.1317 17.2678 40.1317 18.2175 39.546 18.8033L35.3033 23.046C34.7175 23.6318 33.7678 23.6318 33.182 23.046L31.0607 20.9246ZM8.56068 16.682C7.97489 17.2678 7.97489 18.2175 8.56068 18.8033L12.8033 23.046C13.3891 23.6317 14.3389 23.6317 14.9246 23.046L17.046 20.9246C17.6317 20.3389 17.6317 19.3891 17.046 18.8033L12.8033 14.5607C12.2175 13.9749 11.2678 13.9749 10.682 14.5607L8.56068 16.682Z" fill="black"/>
</svg>
