<svg width="48" height="48" viewBox="0 0 48 48" fill="none" xmlns="http://www.w3.org/2000/svg">
<path d="M6 26V22H35C36.6569 22 38 20.6569 38 19V18C38 16.8954 37.1046 16 36 16C34.8954 16 34 16.8954 34 18V20H30V18C30 14.6863 32.6863 12 36 12C39.3137 12 42 14.6863 42 18V19C42 22.866 38.866 26 35 26H6Z" fill="black"/>
<path opacity="0.3" fill-rule="evenodd" clip-rule="evenodd" d="M6 14V18H19C22.866 18 26 14.866 26 11V10C26 6.68629 23.3137 4 20 4C16.6863 4 14 6.68629 14 10V12H18V10C18 8.89543 18.8954 8 20 8C21.1046 8 22 8.89543 22 10V11C22 12.6569 20.6569 14 19 14H6ZM6 34V30H19C22.866 30 26 33.134 26 37V38C26 41.3137 23.3137 44 20 44C16.6863 44 14 41.3137 14 38V36H18V38C18 39.1046 18.8954 40 20 40C21.1046 40 22 39.1046 22 38V37C22 35.3431 20.6569 34 19 34H6Z" fill="black"/>
</svg>
