<svg width="48" height="48" viewBox="0 0 48 48" fill="none" xmlns="http://www.w3.org/2000/svg">
<path fill-rule="evenodd" clip-rule="evenodd" d="M26.1599 29.568L30.568 25.1599C31.7854 23.9425 32.0872 22.0826 31.3172 20.5427L31.0675 20.0431C30.2975 18.5032 30.5993 16.6433 31.8168 15.4259L37.2824 9.96025C37.6729 9.56973 38.3061 9.56973 38.6966 9.96025C38.7726 10.0363 38.8358 10.124 38.8839 10.2201L41.0918 14.636C42.781 18.0143 42.1189 22.0943 39.4481 24.765L27.4505 36.7627C24.5434 39.6698 20.2434 40.6849 16.3431 39.3848L11.5142 37.7751C10.9902 37.6005 10.707 37.0342 10.8817 36.5102C10.9308 36.3629 11.0135 36.2291 11.1233 36.1193L16.4258 30.8168C17.6433 29.5994 19.5031 29.2975 21.0431 30.0675L21.5426 30.3173C23.0826 31.0873 24.9425 30.7854 26.1599 29.568Z" fill="black"/>
<path opacity="0.3" fill-rule="evenodd" clip-rule="evenodd" d="M28.6261 8.02745L28.9962 4.04461C22.5212 3.44295 16.082 5.70476 11.3934 10.3934C6.71122 15.0755 4.44899 21.5035 5.04217 27.9702L9.02545 27.6048C8.53968 22.3092 10.3889 17.0547 14.2218 13.2218C18.06 9.38364 23.3236 7.53474 28.6261 8.02745ZM27.9134 15.996L28.2962 12.0143C24.1625 11.6169 20.0447 13.0559 17.0503 16.0503C14.0657 19.0348 12.6261 23.1357 13.0106 27.2568L16.9933 26.8853C16.7182 23.9371 17.7449 21.0124 19.8787 18.8787C22.0194 16.7379 24.9563 15.7117 27.9134 15.996Z" fill="black"/>
</svg>
