<svg width="48" height="48" viewBox="0 0 48 48" fill="none" xmlns="http://www.w3.org/2000/svg">
<path opacity="0.3" fill-rule="evenodd" clip-rule="evenodd" d="M18 22C13.5817 22 10 18.4183 10 14C10 9.58172 13.5817 6 18 6C22.4183 6 26 9.58172 26 14C26 18.4183 22.4183 22 18 22ZM37 22C36.4477 22 36 21.5523 36 21V16H31C30.4477 16 30 15.5523 30 15V13C30 12.4477 30.4477 12 31 12H36V7C36 6.44772 36.4477 6 37 6H39C39.5523 6 40 6.44772 40 7V12H45C45.5523 12 46 12.4477 46 13V15C46 15.5523 45.5523 16 45 16H40V21C40 21.5523 39.5523 22 39 22H37Z" fill="black"/>
<path d="M0.00130337 40.3984C0.776517 30.853 8.52382 26 17.9667 26C27.5424 26 35.4098 30.5864 35.9958 40.4C36.0192 40.7909 35.9958 42 34.4934 42C27.0822 42 16.0694 42 1.455 42C0.953424 42 -0.0409235 40.9184 0.00130337 40.3984Z" fill="black"/>
</svg>
