<svg width="48" height="48" viewBox="0 0 48 48" fill="none" xmlns="http://www.w3.org/2000/svg">
<path opacity="0.3" d="M34 4H41C42.6569 4 44 5.34315 44 7V41C44 42.6569 42.6569 44 41 44H34V4Z" fill="black"/>
<path fill-rule="evenodd" clip-rule="evenodd" d="M7 4C6.44772 4 6 4.44771 6 5V43C6 43.5523 6.44772 44 7 44H35C36.6569 44 38 42.6569 38 41V7C38 5.34315 36.6569 4 35 4H7ZM21.7639 27.8906C21.1551 28.4993 20.2252 28.6502 19.4552 28.2652L18.2626 27.6689C17.4927 27.2839 16.5627 27.4349 15.954 28.0436L11.8885 32.1091C11.6257 32.3719 11.7313 32.8194 12.084 32.937L16.2838 34.3369C18.4398 35.0556 20.8168 34.4944 22.4238 32.8875L30.886 24.4253C32.7121 22.5992 33.1648 19.8093 32.0099 17.4994L30.4829 14.4454C30.3303 14.1402 29.9234 14.0742 29.6821 14.3155L25.5351 18.4625C24.9264 19.0712 24.7755 20.0012 25.1605 20.7711L25.7567 21.9637C26.1417 22.7337 25.9908 23.6636 25.3821 24.2723L21.7639 27.8906Z" fill="black"/>
</svg>
