<svg width="48" height="48" viewBox="0 0 48 48" fill="none" xmlns="http://www.w3.org/2000/svg">
<path opacity="0.3" d="M36 4H43C44.6569 4 46 5.34315 46 7V41C46 42.6569 44.6569 44 43 44H36V4Z" fill="black"/>
<path fill-rule="evenodd" clip-rule="evenodd" d="M8 5C8 4.44771 8.44772 4 9 4H37C38.6569 4 40 5.34315 40 7V41C40 42.6569 38.6569 44 37 44H9C8.44772 44 8 43.5523 8 43V5ZM24 22C21.7909 22 20 20.2091 20 18C20 15.7909 21.7909 14 24 14C26.2091 14 28 15.7909 28 18C28 20.2091 26.2091 22 24 22ZM23.9815 24C18.7355 24 14.4314 27.0331 14.0007 32.999C13.9773 33.324 14.5297 34 14.8083 34H33.163C33.9977 34 34.0107 33.2443 33.9977 33C33.6721 26.8665 29.3014 24 23.9815 24Z" fill="black"/>
</svg>
