<svg width="48" height="48" viewBox="0 0 48 48" fill="none" xmlns="http://www.w3.org/2000/svg">
<path fill-rule="evenodd" clip-rule="evenodd" d="M23.8298 28.2855L28.2378 23.8774C29.4552 22.66 29.7571 20.8001 28.9871 19.2601L28.7373 18.7606C27.9674 17.2207 28.2692 15.3608 29.4866 14.1433L34.9522 8.67772C35.3427 8.2872 35.9759 8.2872 36.3664 8.67772C36.4424 8.75372 36.5057 8.84148 36.5538 8.93761L38.7617 13.3535C40.4508 16.7317 39.7887 20.8118 37.118 23.4825L25.1203 35.4802C22.2133 38.3872 17.9132 39.4023 14.013 38.1023L9.18401 36.4926C8.66006 36.318 8.3769 35.7516 8.55155 35.2277C8.60064 35.0804 8.68335 34.9466 8.79313 34.8368L14.0957 29.5343C15.3131 28.3168 17.173 28.015 18.713 28.785L19.2125 29.0347C20.7524 29.8047 22.6123 29.5029 23.8298 28.2855Z" fill="black"/>
</svg>
