<svg width="48" height="48" viewBox="0 0 48 48" fill="none" xmlns="http://www.w3.org/2000/svg">
<path fill-rule="evenodd" clip-rule="evenodd" d="M44 24C44 35.0457 35.0457 44 24 44C12.9543 44 4 35.0457 4 24C4 12.9543 12.9543 4 24 4C35.0457 4 44 12.9543 44 24ZM22.7565 26.8975C22.1477 27.5062 21.2178 27.6571 20.4478 27.2721L19.2553 26.6758C18.4853 26.2908 17.5553 26.4418 16.9466 27.0505L12.8811 31.116C12.6183 31.3788 12.724 31.8263 13.0766 31.9439L17.2764 33.3438C19.4325 34.0625 21.8095 33.5013 23.4165 31.8944L31.8786 23.4322C33.7047 21.6061 34.1575 18.8162 33.0025 16.5063L31.4755 13.4523C31.3229 13.1471 30.916 13.0811 30.6747 13.3224L26.5277 17.4694C25.919 18.0781 25.7681 19.0081 26.1531 19.778L26.7493 20.9706C27.1343 21.7406 26.9834 22.6705 26.3747 23.2792L22.7565 26.8975Z" fill="black"/>
</svg>
