<svg width="48" height="48" viewBox="0 0 48 48" fill="none" xmlns="http://www.w3.org/2000/svg">
<path opacity="0.3" fill-rule="evenodd" clip-rule="evenodd" d="M10 30L6 43L19 39L10 30Z" fill="black"/>
<path fill-rule="evenodd" clip-rule="evenodd" d="M46 23C46 33.4934 37.4934 42 27 42C16.5066 42 8 33.4934 8 23C8 12.5066 16.5066 4 27 4C37.4934 4 46 12.5066 46 23ZM20 23C20 24.6569 18.6569 26 17 26C15.3431 26 14 24.6569 14 23C14 21.3431 15.3431 20 17 20C18.6569 20 20 21.3431 20 23ZM27 26C28.6569 26 30 24.6569 30 23C30 21.3431 28.6569 20 27 20C25.3431 20 24 21.3431 24 23C24 24.6569 25.3431 26 27 26ZM40 23C40 24.6569 38.6569 26 37 26C35.3431 26 34 24.6569 34 23C34 21.3431 35.3431 20 37 20C38.6569 20 40 21.3431 40 23Z" fill="black"/>
</svg>
