<svg width="48" height="48" viewBox="0 0 48 48" fill="none" xmlns="http://www.w3.org/2000/svg">
<path opacity="0.3" fill-rule="evenodd" clip-rule="evenodd" d="M7 6C5.34315 6 4 7.34315 4 9V33C4 34.6569 5.34315 36 7 36H18.0331L23.0887 43.6255C23.5036 44.2513 24.4344 44.2137 24.7975 43.5566L28.9724 36H41C42.6569 36 44 34.6569 44 33V9C44 7.34315 42.6569 6 41 6H7Z" fill="black"/>
<path opacity="0.3" fill-rule="evenodd" clip-rule="evenodd" d="M12 14H30C31.1046 14 32 14.8954 32 16C32 17.1046 31.1046 18 30 18H12C10.8954 18 10 17.1046 10 16C10 14.8954 10.8954 14 12 14ZM12 22H22C23.1046 22 24 22.8954 24 24C24 25.1046 23.1046 26 22 26H12C10.8954 26 10 25.1046 10 24C10 22.8954 10.8954 22 12 22Z" fill="black"/>
</svg>
