<svg width="48" height="48" viewBox="0 0 48 48" fill="none" xmlns="http://www.w3.org/2000/svg">
<path opacity="0.3" fill-rule="evenodd" clip-rule="evenodd" d="M10 30L6 43L19 39L10 30Z" fill="black"/>
<path fill-rule="evenodd" clip-rule="evenodd" d="M16 4C10.4772 4 6 8.47715 6 14V34C6 39.5228 10.4772 44 16 44H36C41.5228 44 46 39.5228 46 34V14C46 8.47715 41.5228 4 36 4H16ZM14.8906 24.3359C13.9715 24.9486 13.7232 26.1903 14.3359 27.1094C17.3551 31.6383 21.2913 34 26 34C30.7086 34 34.6448 31.6383 37.6641 27.1094C38.2768 26.1903 38.0284 24.9486 37.1094 24.3359C36.1903 23.7232 34.9486 23.9715 34.3359 24.8906C32.0218 28.3617 29.2913 30 26 30C22.7086 30 19.9782 28.3617 17.6641 24.8906C17.0514 23.9715 15.8096 23.7232 14.8906 24.3359Z" fill="black"/>
</svg>
