<svg width="48" height="48" viewBox="0 0 48 48" fill="none" xmlns="http://www.w3.org/2000/svg">
<path fill-rule="evenodd" clip-rule="evenodd" d="M7 6C5.34315 6 4 7.34315 4 9V23.7301C6.08972 22.6255 8.47182 22 11 22C18.9482 22 25.4526 28.182 25.9672 36H36.0498L42.3427 42.2929C42.9727 42.9229 44.0498 42.4767 44.0498 41.5858V30L44 30.0196V9C44 7.34315 42.6569 6 41 6H7ZM11 14C10.4477 14 10 14.4477 10 15V17C10 17.5523 10.4477 18 11 18H31C31.5523 18 32 17.5523 32 17V15C32 14.4477 31.5523 14 31 14H11Z" fill="black"/>
<path opacity="0.3" fill-rule="evenodd" clip-rule="evenodd" d="M11 28C10.4477 28 10 28.4477 10 29V35C10 35.5523 10.4477 36 11 36H13C13.5523 36 14 35.5523 14 35V29C14 28.4477 13.5523 28 13 28H11ZM14 40C14 41.1046 13.1046 42 12 42C10.8954 42 10 41.1046 10 40C10 38.8954 10.8954 38 12 38C13.1046 38 14 38.8954 14 40Z" fill="black"/>
</svg>
