<svg width="48" height="48" viewBox="0 0 48 48" fill="none" xmlns="http://www.w3.org/2000/svg">
<path opacity="0.3" fill-rule="evenodd" clip-rule="evenodd" d="M9 6C7.34315 6 6 7.34315 6 9V33C6 34.6569 7.34315 36 9 36H36.0498L42.3427 42.2929C42.9727 42.9229 44.0498 42.4767 44.0498 41.5858V30L44 30.0196V9C44 7.34315 42.6569 6 41 6H9Z" fill="black"/>
<path opacity="0.3" fill-rule="evenodd" clip-rule="evenodd" d="M15 24C13.3431 24 12 22.6569 12 21C12 19.3431 13.3431 18 15 18C16.6569 18 18 19.3431 18 21C18 22.6569 16.6569 24 15 24ZM25 24C23.3431 24 22 22.6569 22 21C22 19.3431 23.3431 18 25 18C26.6569 18 28 19.3431 28 21C28 22.6569 26.6569 24 25 24ZM35 24C33.3431 24 32 22.6569 32 21C32 19.3431 33.3431 18 35 18C36.6569 18 38 19.3431 38 21C38 22.6569 36.6569 24 35 24Z" fill="black"/>
</svg>
