<svg width="48" height="48" viewBox="0 0 48 48" fill="none" xmlns="http://www.w3.org/2000/svg">
<path opacity="0.3" d="M9.75 41.5C9.27083 41.5 8.79167 41.3083 8.40833 40.925L4.575 37.0917C3.80833 36.325 3.80833 35.175 4.575 34.4083C5.34167 33.6417 6.5875 33.6417 7.25833 34.4083L9.75 36.9L16.075 30.575C16.8417 29.8083 17.9917 29.8083 18.7583 30.575C19.525 31.3417 19.525 32.4917 18.7583 33.2583L11.0917 40.925C10.7083 41.3083 10.2292 41.5 9.75 41.5Z" fill="black"/>
<path fill-rule="evenodd" clip-rule="evenodd" d="M7 6C5.34315 6 4 7.34315 4 9V23.7301C6.08972 22.6255 8.47182 22 11 22C18.9482 22 25.4526 28.182 25.9672 36H36.0498L42.3427 42.2929C42.9727 42.9229 44.0498 42.4767 44.0498 41.5858V30L44 30.0196V9C44 7.34315 42.6569 6 41 6H7ZM11 14C10.4477 14 10 14.4477 10 15V17C10 17.5523 10.4477 18 11 18H31C31.5523 18 32 17.5523 32 17V15C32 14.4477 31.5523 14 31 14H11Z" fill="black"/>
</svg>
