<svg width="48" height="48" viewBox="0 0 48 48" fill="none" xmlns="http://www.w3.org/2000/svg">
<path opacity="0.3" fill-rule="evenodd" clip-rule="evenodd" d="M16 6H10C8.89543 6 8 6.89543 8 8V44C8 45.1046 8.89543 46 10 46H38C39.1046 46 40 45.1046 40 44V8C40 6.89543 39.1046 6 38 6H32V7C32 8.65685 30.6569 10 29 10H19C17.3431 10 16 8.65685 16 7V6Z" fill="black"/>
<path fill-rule="evenodd" clip-rule="evenodd" d="M21.75 31.5C21.2708 31.5 20.7917 31.3083 20.4083 30.925L16.575 27.0917C15.8083 26.325 15.8083 25.175 16.575 24.4083C17.3417 23.6417 18.5875 23.6417 19.2583 24.4083L21.75 26.9L28.075 20.575C28.8417 19.8083 29.9917 19.8083 30.7583 20.575C31.525 21.3417 31.525 22.4917 30.7583 23.2583L23.0917 30.925C22.7083 31.3083 22.2292 31.5 21.75 31.5Z" fill="black"/>
<path fill-rule="evenodd" clip-rule="evenodd" d="M26 4H29.5C29.7761 4 30 4.22386 30 4.5V7.5C30 7.77614 29.7761 8 29.5 8H18.5C18.2239 8 18 7.77614 18 7.5V4.5C18 4.22386 18.2239 4 18.5 4H22C22 2.89543 22.8954 2 24 2C25.1046 2 26 2.89543 26 4Z" fill="black"/>
</svg>
