<svg width="48" height="48" viewBox="0 0 48 48" fill="none" xmlns="http://www.w3.org/2000/svg">
<path opacity="0.3" fill-rule="evenodd" clip-rule="evenodd" d="M10 14C10 18.4183 13.5817 22 18 22C22.4183 22 26 18.4183 26 14C26 9.58172 22.4183 6 18 6C13.5817 6 10 9.58172 10 14ZM43 16C43.5523 16 44 15.5523 44 15V13C44 12.4477 43.5523 12 43 12H33C32.4477 12 32 12.4477 32 13V15C32 15.5523 32.4477 16 33 16H43Z" fill="black"/>
<path d="M0.00130337 40.3984C0.776517 30.853 8.52382 26 17.9667 26C27.5424 26 35.4098 30.5864 35.9958 40.4C36.0192 40.7909 35.9958 42 34.4934 42C27.0822 42 16.0694 42 1.455 42C0.953424 42 -0.0409235 40.9184 0.00130337 40.3984Z" fill="black"/>
</svg>
