<svg width="48" height="48" viewBox="0 0 48 48" fill="none" xmlns="http://www.w3.org/2000/svg">
<path fill-rule="evenodd" clip-rule="evenodd" d="M23.15 42.4C12.35 42.4 5.69997 34.8 5.69997 25.15C5.69997 13.75 14.75 6.09998 25.05 6.09998C34.9 6.09998 42.25 12.15 42.25 21.7C42.25 30.4 37.65 33.85 33.05 33.85C30.8 33.85 28.95 32.8 28.15 31.3C26.6 32.8 24.25 33.75 22 33.75C16.5 33.75 13.7 29.85 13.7 25.15C13.7 19.1 18.1 14.2 24.55 14.2C26.4 14.2 27.9 14.7 29.05 15.55L29.25 14.7H34L31.65 25.7C31.2 27.9 31.7 29.65 33.85 29.65C36.5 29.65 38.05 27.45 38.05 21.6C38.05 13.8 31.9 10.15 25 10.15C17.25 10.15 10.1 15.5 10.1 25.15C10.1 33.05 15.15 38.2 23.15 38.2C26.15 38.2 29.25 37.55 31.95 36.15L33.6 40.2C30.5 41.6 26.4 42.4 23.15 42.4ZM22.7999 29.05C24.1 29.05 25.4 28.7 26.4499 27.65L28.0499 20.25C27.15 19.3 25.8499 18.85 24.5999 18.85C21.3 18.85 18.9 21.4 18.9 24.75C18.9 27.35 20.15 29.05 22.7999 29.05Z" fill="black"/>
</svg>
