<svg width="48" height="48" viewBox="0 0 48 48" fill="none" xmlns="http://www.w3.org/2000/svg">
<path fill-rule="evenodd" clip-rule="evenodd" d="M6 14C6 12.8954 6.89543 12 8 12H40C41.1046 12 42 12.8954 42 14V24.1659C41.3496 24.0568 40.6814 24 40 24C33.3726 24 28 29.3726 28 36C28 36.6814 28.0568 37.3496 28.1659 38H8C6.89543 38 6 37.1046 6 36V14ZM36.2889 15.6793C37.0183 15.2865 37.928 15.5594 38.3207 16.2889C38.7135 17.0183 38.4406 17.9279 37.7112 18.3207L24.7112 25.3207C24.2672 25.5598 23.7328 25.5598 23.2889 25.3207L10.2889 18.3207C9.55947 17.9279 9.28656 17.0183 9.67932 16.2889C10.0721 15.5594 10.9818 15.2865 11.7112 15.6793L24 22.2964L36.2889 15.6793Z" fill="black"/>
<path opacity="0.3" fill-rule="evenodd" clip-rule="evenodd" d="M39 40C41.7614 40 44 37.7614 44 35C44 32.2386 41.7614 30 39 30C36.2386 30 34 32.2386 34 35C34 37.7614 36.2386 40 39 40Z" fill="black"/>
</svg>
