<svg width="48" height="48" viewBox="0 0 48 48" fill="none" xmlns="http://www.w3.org/2000/svg">
<path opacity="0.3" fill-rule="evenodd" clip-rule="evenodd" d="M13.1716 16L10.3431 13.1716C9.56208 12.3906 9.56208 11.1242 10.3431 10.3432C11.1242 9.56212 12.3905 9.56212 13.1716 10.3432L16 13.1716L18.8284 10.3432C19.6095 9.56212 20.8758 9.56212 21.6568 10.3432C22.4379 11.1242 22.4379 12.3906 21.6568 13.1716L18.8284 16L21.6568 18.8285C22.4379 19.6095 22.4379 20.8758 21.6568 21.6569C20.8758 22.4379 19.6095 22.4379 18.8284 21.6569L16 18.8285L13.1716 21.6569C12.3905 22.4379 11.1242 22.4379 10.3431 21.6569C9.56208 20.8758 9.56208 19.6095 10.3431 18.8285L13.1716 16Z" fill="black"/>
<path fill-rule="evenodd" clip-rule="evenodd" d="M26.1599 29.568L30.568 25.1599C31.7854 23.9425 32.0872 22.0826 31.3172 20.5427L31.0675 20.0431C30.2975 18.5032 30.5993 16.6433 31.8168 15.4259L37.2824 9.96025C37.6729 9.56973 38.3061 9.56973 38.6966 9.96025C38.7726 10.0363 38.8358 10.124 38.8839 10.2201L41.0918 14.636C42.781 18.0143 42.1189 22.0943 39.4481 24.765L27.4505 36.7627C24.5434 39.6698 20.2434 40.6849 16.3431 39.3848L11.5142 37.7751C10.9902 37.6005 10.707 37.0342 10.8817 36.5102C10.9308 36.3629 11.0135 36.2291 11.1233 36.1193L16.4258 30.8168C17.6433 29.5994 19.5031 29.2975 21.0431 30.0675L21.5426 30.3173C23.0826 31.0873 24.9425 30.7854 26.1599 29.568Z" fill="black"/>
</svg>
