<svg width="48" height="48" viewBox="0 0 48 48" fill="none" xmlns="http://www.w3.org/2000/svg">
<path opacity="0.3" d="M14.286 23.3307C14.1254 23.4913 13.915 23.5924 13.6893 23.6175C13.1404 23.6785 12.646 23.283 12.585 22.7341L11.5386 13.3164C11.5304 13.243 11.5304 13.1689 11.5386 13.0955C11.5995 12.5466 12.094 12.1511 12.6429 12.2121L22.0605 13.2585C22.2862 13.2836 22.4967 13.3847 22.6572 13.5453C23.0477 13.9358 23.0477 14.569 22.6572 14.9595L19.8858 17.7309L22.8887 20.7338C23.2792 21.1243 23.2792 21.7575 22.8887 22.148L21.4745 23.5622C21.084 23.9528 20.4508 23.9528 20.0603 23.5622L17.0574 20.5593L14.286 23.3307Z" fill="black"/>
<path fill-rule="evenodd" clip-rule="evenodd" d="M24.1599 29.568L28.568 25.1599C29.7854 23.9425 30.0872 22.0826 29.3172 20.5427L29.0675 20.0431C28.2975 18.5032 28.5993 16.6433 29.8168 15.4259L35.2824 9.96025C35.6729 9.56973 36.3061 9.56973 36.6966 9.96025C36.7726 10.0363 36.8358 10.124 36.8839 10.2201L39.0918 14.636C40.781 18.0143 40.1189 22.0943 37.4481 24.765L25.4505 36.7627C22.5434 39.6698 18.2434 40.6849 14.3431 39.3848L9.51415 37.7751C8.99021 37.6005 8.70705 37.0342 8.8817 36.5102C8.93079 36.3629 9.0135 36.2291 9.12327 36.1193L14.4258 30.8168C15.6433 29.5994 17.5031 29.2975 19.0431 30.0675L19.5426 30.3173C21.0826 31.0873 22.9425 30.7854 24.1599 29.568Z" fill="black"/>
</svg>
