<svg width="48" height="49" viewBox="0 0 48 49" fill="none" xmlns="http://www.w3.org/2000/svg">
<path fill-rule="evenodd" clip-rule="evenodd" d="M44 35V43C44 45.2091 42.2091 47 40 47H8C5.79086 47 4 45.2091 4 43L4 35H12.5585L13.6468 38.2649C14.1912 39.8983 15.7198 41 17.4415 41H30.7639C32.279 41 33.6641 40.144 34.3416 38.7889L36.2361 35L44 35Z" fill="black"/>
<path opacity="0.3" fill-rule="evenodd" clip-rule="evenodd" d="M5.125 31L11.8531 19.039C12.5616 17.7794 13.8943 17 15.3394 17H32.6606C34.1057 17 35.4384 17.7794 36.1469 19.039L42.875 31H36.2361C34.721 31 33.3359 31.856 32.6584 33.2111L30.7639 37H17.4415L16.3532 33.7351C15.8088 32.1017 14.2802 31 12.5585 31H5.125Z" fill="black"/>
<path d="M16.6037 9.16157C16.3286 9.4865 16.5595 9.98466 16.9853 9.98466H21.9767V14.5C21.9767 14.7761 22.2006 15 22.4767 15H25.5233C25.7995 15 26.0233 14.7761 26.0233 14.5V9.98466H31.0147C31.4405 9.98466 31.6714 9.4865 31.3963 9.16157L24.3816 0.87646C24.1819 0.640574 23.8181 0.640574 23.6184 0.87646L16.6037 9.16157Z" fill="black"/>
</svg>
