<svg width="48" height="48" viewBox="0 0 48 48" fill="none" xmlns="http://www.w3.org/2000/svg">
<path opacity="0.3" d="M9.75 41.5C9.27083 41.5 8.79167 41.3083 8.40833 40.925L4.575 37.0917C3.80833 36.325 3.80833 35.175 4.575 34.4083C5.34167 33.6417 6.5875 33.6417 7.25833 34.4083L9.75 36.9L16.075 30.575C16.8417 29.8083 17.9917 29.8083 18.7583 30.575C19.525 31.3417 19.525 32.4917 18.7583 33.2583L11.0917 40.925C10.7083 41.3083 10.2292 41.5 9.75 41.5Z" fill="black"/>
<path fill-rule="evenodd" clip-rule="evenodd" d="M8 12C8 10.8954 8.89543 10 10 10H42C43.1046 10 44 10.8954 44 12V34C44 35.1046 43.1046 36 42 36H25.9672C25.4526 28.182 18.9482 22 11 22C9.9726 22 8.96933 22.1033 8 22.3001V12ZM38.2889 13.6793C39.0183 13.2865 39.928 13.5594 40.3207 14.2889C40.7135 15.0183 40.4406 15.9279 39.7112 16.3207L26.7112 23.3207C26.2672 23.5598 25.7328 23.5598 25.2889 23.3207L12.2889 16.3207C11.5595 15.9279 11.2866 15.0183 11.6793 14.2889C12.0721 13.5594 12.9818 13.2865 13.7112 13.6793L26 20.2964L38.2889 13.6793Z" fill="black"/>
</svg>
