<svg width="48" height="48" viewBox="0 0 48 48" fill="none" xmlns="http://www.w3.org/2000/svg">
<path d="M42.8902 35.582C42.8902 33.9414 43.2418 27.4668 38.1343 22.3301C34.6968 18.873 29.5523 18.2734 23.4 18V7.69308C23.4 7.04233 22.628 6.70036 22.146 7.13761L6.00596 21.7803C5.68015 22.0759 5.67752 22.5871 6.00029 22.886L22.1404 37.8335C22.6205 38.2781 23.4 37.9376 23.4 37.2832V27C27.3062 27.1074 30.0887 27.3559 32.6168 28.1602C37.5745 29.7374 40.4868 36.5766 41.2172 38.4969C41.332 38.7986 41.6177 39 41.9405 39H42.15C42.5642 39 42.8999 38.6644 42.8987 38.2502C42.896 37.3369 42.8902 36.2529 42.8902 35.582Z" fill="black"/>
</svg>
