<svg width="48" height="48" viewBox="0 0 48 48" fill="none" xmlns="http://www.w3.org/2000/svg">
<path opacity="0.3" fill-rule="evenodd" clip-rule="evenodd" d="M8 8L23.6314 5.06911C23.875 5.02343 24.125 5.02343 24.3686 5.06911L40 8V29.9033C40 33.696 38.0462 37.2211 34.83 39.2313L24.53 45.6687C24.2057 45.8714 23.7943 45.8714 23.47 45.6687L13.17 39.2313C9.95382 37.2211 8 33.696 8 29.9033L8 8Z" fill="black"/>
<path opacity="0.3" fill-rule="evenodd" clip-rule="evenodd" d="M24 22C21.7909 22 20 20.2091 20 18C20 15.7909 21.7909 14 24 14C26.2091 14 28 15.7909 28 18C28 20.2091 26.2091 22 24 22Z" fill="black"/>
<path opacity="0.3" fill-rule="evenodd" clip-rule="evenodd" d="M14.0007 32.999C14.4314 27.0331 18.7355 24 23.9815 24C29.3014 24 33.6721 26.8665 33.9977 33C34.0107 33.2443 33.9977 34 33.163 34C29.0457 34 22.9275 34 14.8083 34C14.5297 34 13.9773 33.324 14.0007 32.999Z" fill="black"/>
</svg>
