<svg width="48" height="48" viewBox="0 0 48 48" fill="none" xmlns="http://www.w3.org/2000/svg">
<path fill-rule="evenodd" clip-rule="evenodd" d="M6 7.5C6 6.67157 6.67157 6 7.5 6H40.5C41.3284 6 42 6.67157 42 7.5V40.5C42 41.3284 41.3284 42 40.5 42H7.5C6.67157 42 6 41.3284 6 40.5V7.5ZM14 11.5C14 10.6716 14.6716 10 15.5 10H32.5C33.3284 10 34 10.6716 34 11.5V12.5C34 13.3284 33.3284 14 32.5 14H15.5C14.6716 14 14 13.3284 14 12.5V11.5ZM18.3431 25.1716L21.1716 28L18.3431 30.8284C17.5621 31.6095 17.5621 32.8758 18.3431 33.6569C19.1242 34.4379 20.3905 34.4379 21.1716 33.6569L24 30.8284L26.8284 33.6569C27.6095 34.4379 28.8758 34.4379 29.6568 33.6569C30.4379 32.8758 30.4379 31.6095 29.6568 30.8284L26.8284 28L29.6568 25.1716C30.4379 24.3905 30.4379 23.1242 29.6568 22.3431C28.8758 21.5621 27.6095 21.5621 26.8284 22.3431L24 25.1716L21.1716 22.3431C20.3905 21.5621 19.1242 21.5621 18.3431 22.3431C17.5621 23.1242 17.5621 24.3905 18.3431 25.1716Z" fill="black"/>
</svg>
