<svg width="48" height="48" viewBox="0 0 48 48" fill="none" xmlns="http://www.w3.org/2000/svg">
<path fill-rule="evenodd" clip-rule="evenodd" d="M23.347 16.6615L29.9987 12.1996L28.2427 10.4436C27.4617 9.66258 27.4617 8.39625 28.2427 7.6152L31.0711 4.78678C31.8522 4.00573 33.1185 4.00573 33.8996 4.78678L45.2133 16.1005C45.9943 16.8815 45.9943 18.1479 45.2133 18.9289L42.3848 21.7573C41.6038 22.5384 40.3375 22.5384 39.5564 21.7573L37.8005 20.0014L33.3385 26.6531C33.8529 28.5047 33.997 30.4641 33.7329 32.4185L32.869 38.8116C32.7211 39.9062 31.7138 40.6737 30.6192 40.5258C30.1852 40.4671 29.7825 40.2677 29.4728 39.958L10.0421 20.5272C9.26101 19.7462 9.26101 18.4799 10.0421 17.6988C10.3517 17.3892 10.7545 17.1897 11.1884 17.131L17.5815 16.2671C19.536 16.003 21.4955 16.1472 23.347 16.6615Z" fill="black"/>
<path opacity="0.3" fill-rule="evenodd" clip-rule="evenodd" d="M17.636 28.1213L9.5548 36.2025L8.44363 41.5563L13.7974 40.4452L21.8787 32.3639L17.636 28.1213Z" fill="black"/>
</svg>
