<svg width="48" height="48" viewBox="0 0 48 48" fill="none" xmlns="http://www.w3.org/2000/svg">
<path d="M44.4932 11.0373C45.0706 11.6147 45.0801 12.5479 44.5145 13.1369L25.3678 33.0761C25.0925 33.3628 24.7147 33.5285 24.3173 33.5368L16.2502 33.7061L16.4198 25.6237C16.4279 25.2354 16.5864 24.8654 16.8618 24.5915L36.453 5.11234C37.0392 4.52942 37.9866 4.53077 38.5712 5.11537L44.4932 11.0373Z" fill="black"/>
<path opacity="0.3" d="M25.8 4C26.9046 4 27.8 4.89543 27.8 6C27.8 7.10457 26.9046 8 25.8 8H12C9.79086 8 8 9.79086 8 12V36C8 38.2091 9.79086 40 12 40H36C38.2091 40 40 38.2091 40 36V26C40 24.8954 40.8954 24 42 24C43.1046 24 44 24.8954 44 26V36C44 40.4183 40.4183 44 36 44H12C7.58172 44 4 40.4183 4 36V12C4 7.58172 7.58172 4 12 4H25.8Z" fill="black"/>
</svg>
