<svg width="48" height="48" viewBox="0 0 48 48" fill="none" xmlns="http://www.w3.org/2000/svg">
<path opacity="0.3" fill-rule="evenodd" clip-rule="evenodd" d="M22 6C22 4.89543 22.8954 4 24 4C25.1046 4 26 4.89543 26 6V10C26 11.1046 25.1046 12 24 12C22.8954 12 22 11.1046 22 10V6ZM6 22C4.89543 22 4 22.8954 4 24C4 25.1046 4.89543 26 6 26H10C11.1046 26 12 25.1046 12 24C12 22.8954 11.1046 22 10 22H6ZM38 22C36.8954 22 36 22.8954 36 24C36 25.1046 36.8954 26 38 26H42C43.1046 26 44 25.1046 44 24C44 22.8954 43.1046 22 42 22H38ZM24 36C22.8954 36 22 36.8954 22 38V42C22 43.1046 22.8954 44 24 44C25.1046 44 26 43.1046 26 42V38C26 36.8954 25.1046 36 24 36Z" fill="black"/>
<path opacity="0.3" fill-rule="evenodd" clip-rule="evenodd" d="M24 28C26.2091 28 28 26.2091 28 24C28 21.7909 26.2091 20 24 20C21.7909 20 20 21.7909 20 24C20 26.2091 21.7909 28 24 28Z" fill="black"/>
<path fill-rule="evenodd" clip-rule="evenodd" d="M10 24C10 31.732 16.268 38 24 38C31.732 38 38 31.732 38 24C38 16.268 31.732 10 24 10C16.268 10 10 16.268 10 24ZM34 24C34 29.5228 29.5228 34 24 34C18.4772 34 14 29.5228 14 24C14 18.4772 18.4772 14 24 14C29.5228 14 34 18.4772 34 24Z" fill="black"/>
</svg>
