<svg fill="none" height="48" viewBox="0 0 48 48" width="48" xmlns="http://www.w3.org/2000/svg"><g clip-rule="evenodd" fill="#000" fill-rule="evenodd"><path d="m28 22.9445c1.6523 1.4788 3.7169 2.5066 6 2.8896v16.1659c0 1.1046-.8954 2-2 2h-2c-1.1046 0-2-.8954-2-2z" opacity=".3"/><path d="m14 25.8341c2.2831-.383 4.3477-1.4108 6-2.8896v19.0555c0 1.1046-.8954 2-2 2h-2c-1.1046 0-2-.8954-2-2z" opacity=".3"/><path d="m36 24c5.5228 0 10-4.4772 10-10 0-5.52285-4.4772-10-10-10s-10 4.47715-10 10c0 5.5228 4.4772 10 10 10zm-8-10c0-.5523.4477-1 1-1h2c.5523 0 1 .4477 1 1v1c0 .5523-.4477 1-1 1h-2c-.5523 0-1-.4477-1-1zm13-4c-.5523 0-1 .4477-1 1v6c0 .5523.4477 1 1 1h2c.5523 0 1-.4477 1-1v-6c0-.5523-.4477-1-1-1z"/><path d="m12 24c5.5228 0 10-4.4772 10-10 0-5.52285-4.4772-10-10-10-5.52285 0-10 4.47715-10 10 0 5.5228 4.47715 10 10 10zm4-10c0-.5523.4477-1 1-1h2c.5523 0 1 .4477 1 1v1c0 .5523-.4477 1-1 1h-2c-.5523 0-1-.4477-1-1zm-11-4c-.55228 0-1 .4477-1 1v6c0 .5523.44772 1 1 1h2c.55228 0 1-.4477 1-1v-6c0-.5523-.44772-1-1-1z"/></g></svg>