<svg fill="none" height="48" viewBox="0 0 48 48" width="48" xmlns="http://www.w3.org/2000/svg"><g fill="#000"><path d="m32.901 8.35163c.9597.54691 1.2943 1.76827.7474 2.72787-.547.9597-1.7683 1.2943-2.728.7474-2.0908-1.1916-4.457-1.8269-6.9204-1.8269-7.732 0-14 6.268-14 14s6.268 14 14 14c2.4387 0 4.7823-.6226 6.8581-1.7916.9625-.5419 2.182-.2011 2.724.7614.542.9624.2012 2.182-.7613 2.724-2.6711 1.5042-5.69 2.3062-8.8208 2.3062-9.9411 0-18-8.0589-18-18s8.0589-18 18-18c3.1625 0 6.2106.81837 8.901 2.35163z" opacity=".3"/><path clip-rule="evenodd" d="m35 12c-1.6569 0-3 1.3431-3 3v18c0 1.6569 1.3431 3 3 3h4c1.6569 0 3-1.3431 3-3v-18c0-1.6569-1.3431-3-3-3zm5 9c0 1.6569-1.3431 3-3 3s-3-1.3431-3-3 1.3431-3 3-3 3 1.3431 3 3z" fill-rule="evenodd"/></g></svg>