<svg fill="none" height="48" viewBox="0 0 48 48" width="48" xmlns="http://www.w3.org/2000/svg"><g fill="#000"><path clip-rule="evenodd" d="m34 14h-26c-2.20914 0-4 1.7909-4 4v12c0 2.2091 1.79086 4 4 4h26c2.2091 0 4-1.7909 4-4v-12c0-2.2091-1.7909-4-4-4zm-26 16v-12h26v12z" fill-rule="evenodd"/><path clip-rule="evenodd" d="m20 28.4298c0 .1891.2381.2726.3562.125l3.3838-4.2299c.1048-.1309.0116-.3249-.1561-.3249h-1.5839v-4.3394c0-.1979-.2566-.2756-.3664-.111l-3.4263 5.1395c-.0886.1329.0067.3109.1664.3109h1.6263z" fill-rule="evenodd" opacity=".3"/><path d="m40 20h3c.5523 0 1 .4477 1 1v6c0 .5523-.4477 1-1 1h-3z" opacity=".3"/></g></svg>