<svg width="48" height="48" viewBox="0 0 48 48" fill="none" xmlns="http://www.w3.org/2000/svg">
<path fill-rule="evenodd" clip-rule="evenodd" d="M34 14H8C5.79086 14 4 15.7909 4 18V30C4 32.2091 5.79086 34 8 34H34C36.2091 34 38 32.2091 38 30V18C38 15.7909 36.2091 14 34 14ZM8 30V18H34V30H8Z" fill="black"/>
<path opacity="0.3" fill-rule="evenodd" clip-rule="evenodd" d="M20 28.4298C20 28.6189 20.2381 28.7024 20.3562 28.5548L23.74 24.3249C23.8448 24.194 23.7516 24 23.5839 24H22V19.6606C22 19.4627 21.7434 19.385 21.6336 19.5496L18.2073 24.6891C18.1187 24.822 18.214 25 18.3737 25H20V28.4298Z" fill="black"/>
<path opacity="0.3" d="M40 20H43C43.5523 20 44 20.4477 44 21V27C44 27.5523 43.5523 28 43 28H40V20Z" fill="black"/>
</svg>
