<svg fill="none" height="48" viewBox="0 0 48 48" width="48" xmlns="http://www.w3.org/2000/svg"><g clip-rule="evenodd" fill="#000" fill-rule="evenodd"><path d="m12.6621 17.4866 7.3379 6.6041v16.9093c0 1.5436 1.6744 2.5053 3.0077 1.7276l12-7c1.1706-.6829 1.3375-2.3076.3302-3.2142l-20-18c-.821-.7389-2.0856-.6723-2.8245.1487s-.6723 2.0856.1487 2.8245zm11.3379 20.0314v-9.8272l6.6251 5.9625z" opacity=".3"/><path d="m23.2 4.39997c-1.3184-.98886-3.2-.04809-3.2 1.6v18.27513l-7.2953 6.201c-.8416.7154-.9439 1.9776-.2286 2.8192.7154.8416 1.9776.9439 2.8192.2286l20-17.0001c.9775-.8308.931-2.3541-.0953-3.1238zm7.597 10.69773-6.797 5.7774v-10.87512z"/></g></svg>