<svg fill="none" height="48" viewBox="0 0 48 48" width="48" xmlns="http://www.w3.org/2000/svg"><g fill="#000"><path clip-rule="evenodd" d="m8 14c-1.10457 0-2 .8954-2 2v20c0 1.1046.89543 2 2 2h32c1.1046 0 2-.8954 2-2v-20c0-1.1046-.8954-2-2-2zm8 12c0 4.4183 3.5817 8 8 8s8-3.5817 8-8-3.5817-8-8-8-8 3.5817-8 8z" fill-rule="evenodd"/><rect height="4" opacity=".3" rx="1.5" width="12" x="18" y="8"/><path clip-rule="evenodd" d="m24 30c2.2091 0 4-1.7909 4-4s-1.7909-4-4-4-4 1.7909-4 4 1.7909 4 4 4z" fill-rule="evenodd" opacity=".3"/></g></svg>