<svg fill="none" height="48" viewBox="0 0 48 48" width="48" xmlns="http://www.w3.org/2000/svg"><g fill="#000"><rect height="4" opacity=".3" rx="1" width="28" x="10" y="30"/><g clip-rule="evenodd" fill-rule="evenodd"><path d="m4 25c0 4.9706 4.02944 9 9 9 4.9706 0 9-4.0294 9-9s-4.0294-9-9-9c-4.97056 0-9 4.0294-9 9zm14 0c0 2.7614-2.2386 5-5 5s-5-2.2386-5-5 2.2386-5 5-5 5 2.2386 5 5z"/><path d="m26 25c0 4.9706 4.0294 9 9 9s9-4.0294 9-9-4.0294-9-9-9-9 4.0294-9 9zm14 0c0 2.7614-2.2386 5-5 5s-5-2.2386-5-5 2.2386-5 5-5 5 2.2386 5 5z"/></g></g></svg>