<svg width="48" height="48" viewBox="0 0 48 48" fill="none" xmlns="http://www.w3.org/2000/svg">
<rect opacity="0.3" x="6" y="6" width="36" height="36" rx="1" fill="black"/>
<path opacity="0.3" fill-rule="evenodd" clip-rule="evenodd" d="M28 18H20C18.8954 18 18 18.8954 18 20V28C18 29.1046 18.8954 30 20 30H28C29.1046 30 30 29.1046 30 28V20C30 18.8954 29.1046 18 28 18ZM22 26V22H26V26H22Z" fill="black"/>
<rect opacity="0.3" x="10" y="10" width="4" height="4" rx="0.5" fill="black"/>
<rect opacity="0.3" x="10" y="18" width="4" height="4" rx="0.5" fill="black"/>
<rect opacity="0.3" x="10" y="26" width="4" height="4" rx="0.5" fill="black"/>
<rect opacity="0.3" x="18" y="10" width="4" height="4" rx="0.5" fill="black"/>
<rect opacity="0.3" x="26" y="10" width="4" height="4" rx="0.5" fill="black"/>
<rect opacity="0.3" x="34" y="10" width="4" height="4" rx="0.5" fill="black"/>
<rect opacity="0.3" x="34" y="18" width="4" height="4" rx="0.5" fill="black"/>
<rect opacity="0.3" x="34" y="26" width="4" height="4" rx="0.5" fill="black"/>
<rect opacity="0.3" x="10" y="34" width="4" height="4" rx="0.5" fill="black"/>
<rect opacity="0.3" x="18" y="34" width="4" height="4" rx="0.5" fill="black"/>
<rect opacity="0.3" x="26" y="34" width="4" height="4" rx="0.5" fill="black"/>
<rect opacity="0.3" x="34" y="34" width="4" height="4" rx="0.5" fill="black"/>
</svg>
