<svg fill="none" height="48" viewBox="0 0 48 48" width="48" xmlns="http://www.w3.org/2000/svg"><g fill="#000"><rect height="32" opacity=".3" rx="2" width="32" x="8" y="8"/><path d="m18 18h12v12h-12z" opacity=".3"/><path d="m40 14h3c.5523 0 1 .4477 1 1v2c0 .5523-.4477 1-1 1h-3z"/><path d="m40 22h3c.5523 0 1 .4477 1 1v2c0 .5523-.4477 1-1 1h-3z"/><path d="m40 30h3c.5523 0 1 .4477 1 1v2c0 .5523-.4477 1-1 1h-3z"/><path d="m4 15c0-.5523.44772-1 1-1h3v4h-3c-.55228 0-1-.4477-1-1z"/><path d="m4 23c0-.5523.44772-1 1-1h3v4h-3c-.55228 0-1-.4477-1-1z"/><path d="m4 31c0-.5523.44772-1 1-1h3v4h-3c-.55228 0-1-.4477-1-1z"/></g></svg>