<svg fill="none" height="48" viewBox="0 0 48 48" width="48" xmlns="http://www.w3.org/2000/svg"><g fill="#000"><rect height="36" opacity=".3" rx="2" width="40" x="4" y="6"/><path d="m19.8974 26.6324c-.2723.8167-1.0365 1.3676-1.8974 1.3676h-8c-1.10457 0-2-.8955-2-2 0-1.1046.89543-2 2-2h6.5585l3.5441-10.6325c.6328-1.8982 3.3524-1.7938 3.8377.1474l3.6887 14.7549 1.5821-3.1643c.3388-.6775 1.0314-1.1055 1.7889-1.1055h7c1.1046 0 2 .8954 2 2 0 1.1045-.8954 2-2 2h-5.7639l-3.4472 6.8944c-.8304 1.6608-3.2788 1.392-3.7292-.4094l-3.3342-13.3369z"/><path clip-rule="evenodd" d="m38 14c1.1046 0 2-.8954 2-2s-.8954-2-2-2-2 .8954-2 2 .8954 2 2 2z" fill-rule="evenodd" opacity=".3"/></g></svg>