<svg fill="none" height="48" viewBox="0 0 48 48" width="48" xmlns="http://www.w3.org/2000/svg"><g clip-rule="evenodd" fill="#000" fill-rule="evenodd"><path d="m23 32c-.5523 0-1 .4477-1 1v7h-5.5c-.2761 0-.5.2239-.5.5v1c0 .2761.2239.5.5.5h6.5 2 6.5c.2761 0 .5-.2239.5-.5v-1c0-.2761-.2239-.5-.5-.5h-5.5v-7c0-.5523-.4477-1-1-1z" opacity=".3"/><path d="m4 11c0-.5523.44772-1 1-1h38c.5523 0 1 .4477 1 1v22c0 .5523-.4477 1-1 1h-38c-.55229 0-1-.4477-1-1zm4 6c0-.5523.44772-1 1-1h18c.5523 0 1 .4477 1 1s-.4477 1-1 1h-18c-.55228 0-1-.4477-1-1zm1 3c-.55228 0-1 .4477-1 1s.44772 1 1 1h6c.5523 0 1-.4477 1-1s-.4477-1-1-1z"/></g></svg>