<svg fill="none" height="48" viewBox="0 0 48 48" width="48" xmlns="http://www.w3.org/2000/svg"><g clip-rule="evenodd" fill="#000" fill-rule="evenodd"><path d="m12 14v16h24v-16z" opacity=".3"/><path d="m23 30c-.5523 0-1 .4477-1 1v7h-3c-.5523 0-1 .4477-1 1s.4477 1 1 1h4 2 4c.5523 0 1-.4477 1-1s-.4477-1-1-1h-3v-7c0-.5523-.4477-1-1-1z" opacity=".3"/><path d="m36 10h-24c-2.20914 0-4 1.7909-4 4v16c0 2.2091 1.79086 4 4 4h24c2.2091 0 4-1.7909 4-4v-16c0-2.2091-1.7909-4-4-4zm-24 20v-16h24v16z"/></g></svg>