<svg fill="none" height="48" viewBox="0 0 48 48" width="48" xmlns="http://www.w3.org/2000/svg"><g clip-rule="evenodd" fill="#000" fill-rule="evenodd"><path d="m10 14v16h28v-16z" opacity=".3"/><path d="m23 30c-.5523 0-1 .4477-1 1v7h-3c-.5523 0-1 .4477-1 1s.4477 1 1 1h4 2 4c.5523 0 1-.4477 1-1s-.4477-1-1-1h-3v-7c0-.5523-.4477-1-1-1z" opacity=".3"/><path d="m37.5 10h-27c-2.48528 0-4.5 1.7909-4.5 4v16c0 2.2091 2.01472 4 4.5 4h27c2.4853 0 4.5-1.7909 4.5-4v-16c0-2.2091-2.0147-4-4.5-4zm-27.5 20v-16h28v16z"/></g></svg>