<svg fill="none" height="48" viewBox="0 0 52 48" width="52" xmlns="http://www.w3.org/2000/svg"><g fill="#000"><path d="m27.8974 16.6325-3.7948-1.265c1.5295-4.5882 3.9828-7.45039 7.4123-8.30779 1.7857-.44641 4.4851-3.32069 4.4851-5.05971h4c0 3.59431-3.9672 8.0534-7.5149 8.9403-1.9038.4759-3.4505 2.2804-4.5877 5.6922z" opacity=".3"/><path clip-rule="evenodd" d="m17.4966 12.0415c-1.4349-.8285-3.2697-.3368-4.0981 1.098l-12.0755 20.9154c-.828432 1.4349-.336807 3.2697 1.09807 4.0981l10.63803 6.1419c1.4349.8284 3.2697.3368 4.0981-1.0981l5.3098-9.1969h7.3795l5.3135 9.2032c.8284 1.4349 2.6632 1.9265 4.0981 1.0981l10.4072-6.0087c1.4349-.8284 1.9265-2.6632 1.0981-4.0981l-12.1053-20.9669c-.8284-1.4349-2.6632-1.9266-4.0981-1.0981l-3.2399 1.8705h-10.4313zm4.5034 11.9584c0 2.2092-1.7909 4-4 4s-4-1.7908-4-4c0-2.2091 1.7909-4 4-4s4 1.7909 4 4zm14 0c1.1046 0 2-.8954 2-2 0-1.1045-.8954-2-2-2s-2 .8955-2 2c0 1.1046.8954 2 2 2zm-2 2c0 1.1046-.8954 2-2 2s-2-.8954-2-2c0-1.1045.8954-2 2-2s2 .8955 2 2z" fill-rule="evenodd"/></g></svg>