<svg fill="none" height="48" viewBox="0 0 48 48" width="48" xmlns="http://www.w3.org/2000/svg"><g fill="#000"><path d="m25.8974 18.6325-3.7948-1.265c1.5295-4.5882 3.9828-7.45039 7.4123-8.30779 1.7857-.44641 4.4851-3.32069 4.4851-5.05971h4c0 3.59431-3.9672 8.0534-7.5149 8.9403-1.9038.4759-3.4505 2.2804-4.5877 5.6922z" opacity=".3"/><path clip-rule="evenodd" d="m26.5143 34h-5.0286c-2.0176 2.443-5.0698 4-8.4857 4-6.07513 0-11-4.9249-11-11 0-4.918 3.22742-9.0821 7.6798-10.4901.5303-.3235 1.1535-.5099 1.8202-.5099h1.5 22 1.5c.6667 0 1.2898.1864 1.8202.5099 4.4524 1.408 7.6798 5.5721 7.6798 10.4901 0 6.0751-4.9249 11-11 11-3.4159 0-6.4681-1.557-8.4857-4zm-16.5143-13.5c0-.2761.2239-.5.5-.5h3c.2761 0 .5.2239.5.5v3c0 .2761-.2239.5-.5.5h-3c-.2761 0-.5-.2239-.5-.5zm4.5 3.5c-.2761 0-.5.2239-.5.5v3c0 .2761.2239.5.5.5h3c.2761 0 .5-.2239.5-.5v-3c0-.2761-.2239-.5-.5-.5zm23.5 0c1.1046 0 2-.8954 2-2s-.8954-2-2-2-2 .8954-2 2 .8954 2 2 2zm0 4c0 1.1046-.8954 2-2 2s-2-.8954-2-2 .8954-2 2-2 2 .8954 2 2zm-28 .5c0-.2761.2239-.5.5-.5h3c.2761 0 .5.2239.5.5v3c0 .2761-.2239.5-.5.5h-3c-.2761 0-.5-.2239-.5-.5zm-3.5-4.5c-.27614 0-.5.2239-.5.5v3c0 .2761.22386.5.5.5h3c.27614 0 .5-.2239.5-.5v-3c0-.2761-.22386-.5-.5-.5z" fill-rule="evenodd"/></g></svg>