<svg fill="none" height="48" viewBox="0 0 48 48" width="48" xmlns="http://www.w3.org/2000/svg"><g fill="#000"><rect height="28" opacity=".3" rx="2" width="40" x="4" y="12"/><path clip-rule="evenodd" d="m9 8c-.55228 0-1 .44772-1 1v3h8v-3c0-.55228-.4477-1-1-1zm24 0c-.5523 0-1 .44772-1 1v3h8v-3c0-.55228-.4477-1-1-1z" fill-rule="evenodd"/><path clip-rule="evenodd" d="m14 31c0 .5523.4477 1 1 1h2c.5523 0 1-.4477 1-1v-3h3c.5523 0 1-.4477 1-1v-2c0-.5523-.4477-1-1-1h-3v-3c0-.5523-.4477-1-1-1h-2c-.5523 0-1 .4477-1 1v3h-3c-.5523 0-1 .4477-1 1v2c0 .5523.4477 1 1 1h3z" fill-rule="evenodd"/><rect height="4" rx="1" width="8" x="28" y="24"/></g></svg>