<svg fill="none" height="48" viewBox="0 0 48 48" width="48" xmlns="http://www.w3.org/2000/svg"><g clip-rule="evenodd" fill="#000" fill-rule="evenodd"><path d="m12 8.00004c0 3.31366 5.3726 5.99996 12 5.99996s12-2.6863 12-5.99996c0-.63736-.1988-1.25151-.567-1.8278 2.6218.64248 4.567 3.00797 4.567 5.82776v26c0 3.3137-2.6863 6-6 6h-20c-3.3137 0-6-2.6863-6-6v-26c0-2.81979 1.94522-5.18528 4.567-5.82776-.3682.57629-.567 1.19044-.567 1.8278z" opacity=".3"/><path d="m30.6964 7.33507c-1.6492-.82461-4.0629-1.33507-6.6964-1.33507s-5.0472.51046-6.6964 1.33507c-.4513.22562-.8052.45579-1.0532.66493.248.20914.6019.43931 1.0532.66493 1.6492.82461 4.0629 1.33507 6.6964 1.33507s5.0472-.51046 6.6964-1.33507c.4512-.22562.8052-.45579 1.0532-.66493-.248-.20914-.602-.43931-1.0532-.66493z"/></g></svg>