<svg fill="none" height="48" viewBox="0 0 48 48" width="48" xmlns="http://www.w3.org/2000/svg"><g fill="#000"><path clip-rule="evenodd" d="m10 6h28c2.8403 0 4 1.43269 4 3.2v25.6c0 1.7673-1.1597 3.2-4 3.2h-28c-2.84032 0-4-1.4327-4-3.2v-25.6c0-1.76731 1.15968-3.2 4-3.2zm0 4v22h28v-22zm15 25c0 .5523-.4477 1-1 1s-1-.4477-1-1 .4477-1 1-1 1 .4477 1 1z" fill-rule="evenodd"/><path clip-rule="evenodd" d="m10 10v22h28v-22z" fill-rule="evenodd" opacity=".3"/><rect height="2" opacity=".3" rx=".5" width="8" x="20" y="40"/></g></svg>