<svg fill="none" height="48" viewBox="0 0 48 48" width="48" xmlns="http://www.w3.org/2000/svg"><g clip-rule="evenodd" fill="#000" fill-rule="evenodd"><path d="m16 5c-1.3807 0-2.5 1.11929-2.5 2.5v33c0 1.3807 1.1193 2.5 2.5 2.5h16c1.3807 0 2.5-1.1193 2.5-2.5v-33c0-1.38071-1.1193-2.5-2.5-2.5z" opacity=".3"/><path d="m16 2h16c3.0376 0 5.5 2.46243 5.5 5.5v33c0 3.0376-2.4624 5.5-5.5 5.5h-16c-3.0376 0-5.5-2.4624-5.5-5.5v-33c0-3.03757 2.4624-5.5 5.5-5.5zm0 3c-1.3807 0-2.5 1.11929-2.5 2.5v33c0 1.3807 1.1193 2.5 2.5 2.5h16c1.3807 0 2.5-1.1193 2.5-2.5v-33c0-1.38071-1.1193-2.5-2.5-2.5h-2v-1c0-.27614-.2239-.5-.5-.5h-11c-.2761 0-.5.22386-.5.5v1zm2 0v2c0 .27614.2239.5.5.5h11c.2761 0 .5-.22386.5-.5v-2z"/></g></svg>