<svg fill="none" height="48" viewBox="0 0 48 48" width="48" xmlns="http://www.w3.org/2000/svg"><g fill="#000"><path d="m23.8974 16.6325-3.7947-1.265c1.5294-4.5882 3.9827-7.45039 7.4123-8.30779 1.7856-.44641 4.485-3.32069 4.485-5.05971h4c0 3.59431-3.9672 8.0534-7.5149 8.9403-1.9038.4759-3.4505 2.2804-4.5877 5.6922z" opacity=".3"/><path clip-rule="evenodd" d="m2 16c0-1.1046.89543-2 2-2h40c1.1046 0 2 .8954 2 2v24c0 1.1046-.8954 2-2 2h-40c-1.10457 0-2-.8954-2-2zm12 2.5c0-.2761.2239-.5.5-.5h3c.2761 0 .5.2239.5.5v3c0 .2761-.2239.5-.5.5h-3c-.2761 0-.5-.2239-.5-.5zm-7.5-.5c-.27614 0-.5.2239-.5.5v3c0 .2761.22386.5.5.5h3c.27614 0 .5-.2239.5-.5v-3c0-.2761-.22386-.5-.5-.5zm3.5 8.5c0-.2761.2239-.5.5-.5h3c.2761 0 .5.2239.5.5v3c0 .2761-.2239.5-.5.5h-3c-.2761 0-.5-.2239-.5-.5zm8.5-.5c-.2761 0-.5.2239-.5.5v3c0 .2761.2239.5.5.5h3c.2761 0 .5-.2239.5-.5v-3c0-.2761-.2239-.5-.5-.5zm7.5.5c0-.2761.2239-.5.5-.5h3c.2761 0 .5.2239.5.5v3c0 .2761-.2239.5-.5.5h-3c-.2761 0-.5-.2239-.5-.5zm8.5-.5c-.2761 0-.5.2239-.5.5v3c0 .2761.2239.5.5.5h3c.2761 0 .5-.2239.5-.5v-3c0-.2761-.2239-.5-.5-.5zm-12.5-7.5c0-.2761.2239-.5.5-.5h3c.2761 0 .5.2239.5.5v3c0 .2761-.2239.5-.5.5h-3c-.2761 0-.5-.2239-.5-.5zm-11.5 15.5c-.2761 0-.5.2239-.5.5v3c0 .2761.2239.5.5.5h27c.2761 0 .5-.2239.5-.5v-3c0-.2761-.2239-.5-.5-.5zm19.5-15.5c0-.2761.2239-.5.5-.5h3c.2761 0 .5.2239.5.5v3c0 .2761-.2239.5-.5.5h-3c-.2761 0-.5-.2239-.5-.5zm8.5-.5c-.2761 0-.5.2239-.5.5v3c0 .2761.2239.5.5.5h3c.2761 0 .5-.2239.5-.5v-3c0-.2761-.2239-.5-.5-.5z" fill-rule="evenodd"/></g></svg>