<svg fill="none" height="48" viewBox="0 0 48 48" width="48" xmlns="http://www.w3.org/2000/svg"><g clip-rule="evenodd" fill="#000" fill-rule="evenodd"><path d="m14.5124 37.8583-2.5546 3.078c-5.00395-4.1531-7.9578-10.3056-7.9578-16.9363 0-6.6216 2.94564-12.7665 7.9377-16.91968l2.5582 3.07498c-4.088 3.4011-6.4959 8.4241-6.4959 13.8447 0 5.428 2.4146 10.4573 6.5124 13.8583zm18.9752 0 2.5546 3.078c5.0039-4.1531 7.9578-10.3056 7.9578-16.9363 0-6.6216-2.9456-12.7665-7.9377-16.91968l-2.5582 3.07498c4.088 3.4011 6.4959 8.4241 6.4959 13.8447 0 5.428-2.4146 10.4573-6.5124 13.8583zm-5.1306-6.1385 2.5448 3.0861c3.2039-2.642 5.0982-6.5712 5.0982-10.8059 0-4.2209-1.8818-8.1386-5.0678-10.7808l-2.5534 3.079c2.2791 1.8901 3.6212 4.6842 3.6212 7.7018 0 3.0275-1.351 5.8298-3.643 7.7198zm-11.2588 3.0861 2.5448-3.0861c-2.292-1.89-3.643-4.6923-3.643-7.7198 0-3.0176 1.3421-5.8117 3.6212-7.7018l-2.5534-3.079c-3.186 2.6422-5.0678 6.5599-5.0678 10.7808 0 4.2347 1.8943 8.1639 5.0982 10.8059z" opacity=".3"/><path d="m24 28c2.2091 0 4-1.7909 4-4s-1.7909-4-4-4-4 1.7909-4 4 1.7909 4 4 4z"/></g></svg>