<svg fill="none" height="48" viewBox="0 0 48 48" width="48" xmlns="http://www.w3.org/2000/svg"><g fill="#000"><g clip-rule="evenodd" fill-rule="evenodd"><path d="m6 14c-1.10457 0-2 .8954-2 2v24c0 1.1046.89543 2 2 2h36c1.1046 0 2-.8954 2-2v-24c0-1.1046-.8954-2-2-2zm18 14c0 4.4183 3.5817 8 8 8s8-3.5817 8-8-3.5817-8-8-8-8 3.5817-8 8z" opacity=".3"/><path d="m41.2058 14c-.1155-.5454-.4572-1.0399-.9823-1.3329l-22.249-12.413647c-.9646-.538185-2.1829-.1925164-2.721.772077-.5382.96458-.1926 2.18282.772 2.72101l18.3773 10.25346z"/><path d="m32 32c2.2091 0 4-1.7909 4-4s-1.7909-4-4-4-4 1.7909-4 4 1.7909 4 4 4z"/></g><rect height="4" opacity=".3" rx="1" width="10" x="8" y="22"/><rect height="4" opacity=".3" rx="1" width="10" x="8" y="30"/></g></svg>