<svg fill="none" height="48" viewBox="0 0 48 48" width="48" xmlns="http://www.w3.org/2000/svg"><g clip-rule="evenodd" fill="#000" fill-rule="evenodd"><path d="m31 18c-.5523 0-1 .4477-1 1v11h-24c-1.10457 0-2 .8954-2 2v8c0 1.1046.89543 2 2 2h36c1.1046 0 2-.8954 2-2v-8c0-1.1046-.8954-2-2-2h-8v-11c0-.5523-.4477-1-1-1zm-23 17c0-.5523.44772-1 1-1h12c.5523 0 1 .4477 1 1v2c0 .5523-.4477 1-1 1h-12c-.55228 0-1-.4477-1-1z"/><path d="m44.2726 13.1429 2.7274-2.2218c-3.68-4.35207-9.1319-6.9211-15.0074-6.9211-5.8674 0-11.3124 2.56189-14.9926 6.9036l2.7248 2.225c3.0137-3.55553 7.4647-5.64971 12.2678-5.64971 4.8098 0 9.2663 2.10003 12.28 5.66401zm-5.8459 4.5714 2.5733-2.2831c-2.203-2.8745-5.4794-4.574-9.0105-4.574-3.5195 0-6.7863 1.6883-8.9895 4.5467l2.5674 2.2909c1.5761-2.0448 3.9059-3.2489 6.4221-3.2489 2.5245 0 4.8612 1.2121 6.4372 3.2684z" opacity=".3"/></g></svg>