<svg fill="none" height="48" viewBox="0 0 48 48" width="48" xmlns="http://www.w3.org/2000/svg"><g clip-rule="evenodd" fill="#000" fill-rule="evenodd"><path d="m6 6c0-1.10457.89543-2 2-2h32c1.1046 0 2 .89543 2 2v8c0 1.1046-.8954 2-2 2h-32c-1.10457 0-2-.8954-2-2zm14 3c0-.55228.4477-1 1-1h12c.5523 0 1 .44772 1 1v2c0 .5523-.4477 1-1 1h-12c-.5523 0-1-.4477-1-1zm-4 1c0 1.1046-.8954 2-2 2s-2-.8954-2-2c0-1.10457.8954-2 2-2s2 .89543 2 2z" opacity=".3"/><path d="m6 20c0-1.1046.89543-2 2-2h32c1.1046 0 2 .8954 2 2v8c0 1.1046-.8954 2-2 2h-32c-1.10457 0-2-.8954-2-2zm14 3c0-.5523.4477-1 1-1h12c.5523 0 1 .4477 1 1v2c0 .5523-.4477 1-1 1h-12c-.5523 0-1-.4477-1-1zm-4 1c0 1.1046-.8954 2-2 2s-2-.8954-2-2 .8954-2 2-2 2 .8954 2 2z"/><path d="m6 34c0-1.1046.89543-2 2-2h32c1.1046 0 2 .8954 2 2v8c0 1.1046-.8954 2-2 2h-32c-1.10457 0-2-.8954-2-2zm14 3c0-.5523.4477-1 1-1h12c.5523 0 1 .4477 1 1v2c0 .5523-.4477 1-1 1h-12c-.5523 0-1-.4477-1-1zm-4 1c0 1.1046-.8954 2-2 2s-2-.8954-2-2 .8954-2 2-2 2 .8954 2 2z"/></g></svg>