<svg width="48" height="48" viewBox="0 0 48 48" fill="none" xmlns="http://www.w3.org/2000/svg">
<path fill-rule="evenodd" clip-rule="evenodd" d="M4 11C4 10.4477 4.44772 10 5 10H43C43.5523 10 44 10.4477 44 11V35C44 35.5523 43.5523 36 43 36H5C4.44771 36 4 35.5523 4 35V11ZM19.264 20.132V28H16.87V20.132H14.07V18.088H22.064V20.132H19.264ZM27.476 28H29.87L33.692 18.088H31.046L28.764 25.116H28.708L26.412 18.088H23.724L27.476 28Z" fill="black"/>
<rect opacity="0.3" x="6" y="38" width="36" height="2" rx="1" fill="black"/>
</svg>
