<svg fill="none" height="48" viewBox="0 0 48 48" width="48" xmlns="http://www.w3.org/2000/svg"><g fill="#000"><path clip-rule="evenodd" d="m30 12h-12c-3.3137 0-6 2.6863-6 6v12c0 3.3137 2.6863 6 6 6h12c3.3137 0 6-2.6863 6-6v-12c0-3.3137-2.6863-6-6-6zm-14 6c0-1.1046.8954-2 2-2h12c1.1046 0 2 .8954 2 2v12c0 1.1046-.8954 2-2 2h-12c-1.1046 0-2-.8954-2-2z" fill-rule="evenodd"/><path clip-rule="evenodd" d="m18 16c-1.1046 0-2 .8954-2 2v12c0 1.1046.8954 2 2 2h12c1.1046 0 2-.8954 2-2v-12c0-1.1046-.8954-2-2-2z" fill-rule="evenodd" opacity=".3"/><path d="m18 36h12v6.5c0 .8284-.6716 1.5-1.5 1.5h-9c-.8284 0-1.5-.6716-1.5-1.5z" opacity=".3"/><path d="m18 5.5c0-.82843.6716-1.5 1.5-1.5h9c.8284 0 1.5.67157 1.5 1.5v6.5h-12z" opacity=".3"/></g></svg>