<svg fill="none" height="48" viewBox="0 0 48 48" width="48" xmlns="http://www.w3.org/2000/svg"><g fill="#000"><path d="m18 34h12v8.5c0 .8284-.6716 1.5-1.5 1.5h-9c-.8284 0-1.5-.6716-1.5-1.5z" opacity=".3"/><path clip-rule="evenodd" d="m24 34c5.5228 0 10-4.4772 10-10s-4.4772-10-10-10-10 4.4772-10 10 4.4772 10 10 10z" fill-rule="evenodd" opacity=".3"/><path d="m18 5.5c0-.82843.6716-1.5 1.5-1.5h9c.8284 0 1.5.67157 1.5 1.5v8.5h-12z" opacity=".3"/><path clip-rule="evenodd" d="m10 24c0 7.732 6.268 14 14 14s14-6.268 14-14-6.268-14-14-14-14 6.268-14 14zm24 0c0 5.5228-4.4772 10-10 10s-10-4.4772-10-10 4.4772-10 10-10 10 4.4772 10 10z" fill-rule="evenodd"/></g></svg>