<svg fill="none" height="48" viewBox="0 0 48 48" width="48" xmlns="http://www.w3.org/2000/svg"><g clip-rule="evenodd" fill="#000" fill-rule="evenodd"><path d="m42.8947 24.3351 4.1972-3.4836c-5.6632-6.8235-14.053-10.8515-23.095-10.8515-9.0293 0-17.40878 4.0168-23.072194 10.8241l4.193144 3.4885c4.63784-5.5746 11.48745-8.8581 18.87905-8.8581 7.4019 0 14.2601 3.2927 18.8978 8.8806zm-8.3708 6.9963 4.2084-3.4702c-3.6027-4.369-8.9608-6.9521-14.7354-6.9521-5.7556 0-11.0979 2.5661-14.70097 6.9106l4.19857 3.482c2.5775-3.108 6.3875-4.9381 10.5024-4.9381 4.1284 0 7.9498 1.8423 10.527 4.9678z" opacity=".3"/><path d="m30.2379 34.7091-4.1594 3.5286-2.1547 1.7624-2.0575-1.7029-4.2565-3.4108c1.5412-1.9234 3.8729-3.0682 6.3871-3.0682 2.4332 0 4.698 1.072 6.241 2.8909z"/></g></svg>