<svg width="48" height="48" viewBox="0 0 48 48" fill="none" xmlns="http://www.w3.org/2000/svg">
<path fill-rule="evenodd" clip-rule="evenodd" d="M19.5 10C18.6716 10 18 10.6716 18 11.5V20.5C18 21.3284 18.6716 22 19.5 22H42.5C43.3284 22 44 21.3284 44 20.5V11.5C44 10.6716 43.3284 10 42.5 10H19.5ZM19.5 26C18.6716 26 18 26.6716 18 27.5V36.5C18 37.3284 18.6716 38 19.5 38H42.5C43.3284 38 44 37.3284 44 36.5V27.5C44 26.6716 43.3284 26 42.5 26H19.5Z" fill="black"/>
<rect opacity="0.3" x="4" y="10" width="10" height="28" rx="1" fill="black"/>
</svg>
