<svg width="48" height="48" viewBox="0 0 48 48" fill="none" xmlns="http://www.w3.org/2000/svg">
<rect x="4" y="8" width="38" height="8" rx="1" fill="black"/>
<path opacity="0.3" fill-rule="evenodd" clip-rule="evenodd" d="M4 21C4 20.4477 4.44772 20 5 20H13C13.5523 20 14 20.4477 14 21V39C14 39.5523 13.5523 40 13 40H5C4.44772 40 4 39.5523 4 39V21ZM18 21C18 20.4477 18.4477 20 19 20H27C27.5523 20 28 20.4477 28 21V39C28 39.5523 27.5523 40 27 40H19C18.4477 40 18 39.5523 18 39V21ZM33 20C32.4477 20 32 20.4477 32 21V39C32 39.5523 32.4477 40 33 40H41C41.5523 40 42 39.5523 42 39V21C42 20.4477 41.5523 20 41 20H33Z" fill="black"/>
</svg>
