<svg width="48" height="48" viewBox="0 0 48 48" fill="none" xmlns="http://www.w3.org/2000/svg">
<path fill-rule="evenodd" clip-rule="evenodd" d="M4 9C4 8.44772 4.44772 8 5 8H41C41.5523 8 42 8.44772 42 9V15C42 15.5523 41.5523 16 41 16H5C4.44772 16 4 15.5523 4 15V9ZM4 21C4 20.4477 4.44772 20 5 20H27C27.5523 20 28 20.4477 28 21V27C28 27.5523 27.5523 28 27 28H5C4.44772 28 4 27.5523 4 27V21ZM5 32C4.44772 32 4 32.4477 4 33V39C4 39.5523 4.44772 40 5 40H27C27.5523 40 28 39.5523 28 39V33C28 32.4477 27.5523 32 27 32H5Z" fill="black"/>
<rect opacity="0.3" x="32" y="20" width="10" height="20" rx="1" fill="black"/>
</svg>
