<svg width="48" height="48" viewBox="0 0 48 48" fill="none" xmlns="http://www.w3.org/2000/svg">
<path fill-rule="evenodd" clip-rule="evenodd" d="M4 9C4 8.44772 4.44772 8 5 8H41C41.5523 8 42 8.44772 42 9V15C42 15.5523 41.5523 16 41 16H5C4.44772 16 4 15.5523 4 15V9ZM18 21C18 20.4477 18.4477 20 19 20H41C41.5523 20 42 20.4477 42 21V27C42 27.5523 41.5523 28 41 28H19C18.4477 28 18 27.5523 18 27V21ZM19 32C18.4477 32 18 32.4477 18 33V39C18 39.5523 18.4477 40 19 40H41C41.5523 40 42 39.5523 42 39V33C42 32.4477 41.5523 32 41 32H19Z" fill="black"/>
<rect opacity="0.3" x="4" y="20" width="10" height="20" rx="1" fill="black"/>
</svg>
