<svg width="48" height="48" viewBox="0 0 48 48" fill="none" xmlns="http://www.w3.org/2000/svg">
<rect opacity="0.3" x="28" y="9.3999" width="6" height="6" rx="1" fill="black"/>
<path fill-rule="evenodd" clip-rule="evenodd" d="M47.9809 30C47.9936 29.7289 48.0001 29.4561 48.0001 29.1818C48.0001 28.7846 47.9866 28.3905 47.96 28H42C42 24.6936 44.847 23.0953 46.6187 22.4209C43.9932 16.2929 37.9071 12 30.8182 12C21.329 12 13.6364 19.6926 13.6364 29.1818C13.6364 29.4561 13.6428 29.7289 13.6556 30H1C0.447715 30 0 30.4477 0 31V33C0 33.5523 0.447714 34 0.999999 34H47.5C47.7761 34 48 33.7761 48 33.5V30H47.9809Z" fill="black"/>
</svg>
