<svg width="48" height="48" viewBox="0 0 48 48" fill="none" xmlns="http://www.w3.org/2000/svg">
<path opacity="0.3" fill-rule="evenodd" clip-rule="evenodd" d="M31.919 6C31.3645 9.01538 28.0303 11.3333 24 11.3333C19.9698 11.3333 16.6356 9.01538 16.081 6H10.2356C9.68334 6 9.23563 6.44772 9.23563 7V21C9.23563 21.5523 9.68334 22 10.2356 22H37.7639C38.3162 22 38.7639 21.5523 38.7639 21V7C38.7639 6.44772 38.3162 6 37.7639 6H31.919Z" fill="black"/>
<path d="M8.95407 26C8.95407 24.8954 9.8495 24 10.9541 24H37.0465C38.151 24 39.0465 24.8954 39.0465 26V43C39.0465 43.5523 38.5988 44 38.0465 44H9.95407C9.40179 44 8.95407 43.5523 8.95407 43V26Z" fill="black"/>
</svg>
