<svg width="48" height="48" viewBox="0 0 48 48" fill="none" xmlns="http://www.w3.org/2000/svg">
<path fill-rule="evenodd" clip-rule="evenodd" d="M18 15.5C18 13.567 19.567 12 21.5 12H32.5C34.433 12 36 13.567 36 15.5V24.8592C34.5338 25.3408 32.8825 25.9912 31.0267 26.8153C26.013 24.5517 21.6828 22.8667 18 21.7308V15.5Z" fill="black"/>
<path opacity="0.3" fill-rule="evenodd" clip-rule="evenodd" d="M3.87651 30.7334C3.90243 30.8507 3.92717 30.9627 3.9501 31.0686C6.25938 42.6247 23.5613 33.8123 29.2327 30.9236C30.2279 30.4168 30.865 30.0923 31 30.0923C0.133438 13.7972 2.8797 26.2232 3.87651 30.7334ZM31 30.1166C44.9055 22.7757 44.1888 28.2814 43.7915 30.1166C42.7673 35.242 34.3513 31.5588 31.7514 30.421C31.3257 30.2347 31.0559 30.1166 31 30.1166Z" fill="black"/>
</svg>
