<svg width="48" height="48" viewBox="0 0 48 48" fill="none" xmlns="http://www.w3.org/2000/svg">
<rect opacity="0.3" x="4" y="6" width="14" height="28" rx="1" fill="black"/>
<path fill-rule="evenodd" clip-rule="evenodd" d="M2.5488 24.0892C2.24158 24.1225 2.00005 24.3781 2.00005 24.6871V37.1397C2.00005 37.4654 2.25791 37.7275 2.58347 37.7349C6.19627 37.817 25.6338 38.2258 33.9445 37.7213C39.9649 37.3557 44.1333 36.3022 46.2899 35.62C47.2727 35.3092 47.7451 34.2592 47.2948 33.3319C46.3936 31.4762 44.6287 28.6571 42 28C41.501 27.8752 40.9017 27.8001 40.1845 27.7103C38.5523 27.5058 36.3093 27.2249 33.2473 26.1076L31.0981 29.8301C30.822 30.3084 30.2104 30.4723 29.7321 30.1961L28 29.1961C27.5217 28.92 27.3579 28.3084 27.634 27.8301L29.5509 24.5099C29.3154 24.393 29.0763 24.2716 28.8334 24.1454C28.1229 23.7764 27.2311 23.1074 26.2876 22.3057L23.0981 27.8301C22.822 28.3084 22.2104 28.4723 21.7321 28.1961L20 27.1961C19.5217 26.92 19.3579 26.3084 19.634 25.8301L23.2784 19.5178C22.0957 18.3508 21.0579 17.2579 20.4519 16.609C20.1727 16.3102 19.6656 16.3547 19.4113 16.6749C18.0436 18.3968 13.4856 22.9008 2.5488 24.0892Z" fill="black"/>
</svg>
