<svg width="48" height="48" viewBox="0 0 48 48" fill="none" xmlns="http://www.w3.org/2000/svg">
<path opacity="0.3" fill-rule="evenodd" clip-rule="evenodd" d="M19.3721 9.28971C18.9642 9.21778 18.5752 9.49016 18.5033 9.89808L16.663 20.3346L6.37942 24.0775C4.82248 24.6442 4.01972 26.3657 4.5864 27.9227L6.33569 32.7288C6.90237 34.2857 8.6239 35.0885 10.1808 34.5218L20.1681 30.8867L23.5711 31.4868C24.387 31.6306 25.1649 31.0859 25.3088 30.27L25.6175 28.5191C26.3236 27.7218 26.5819 26.5728 26.1921 25.5017L26.1635 25.4231L28.5874 11.6762C28.6593 11.2683 28.387 10.8793 27.979 10.8073L19.3721 9.28971Z" fill="black"/>
<path fill-rule="evenodd" clip-rule="evenodd" d="M27.4345 8.68067C26.8907 8.58477 26.372 8.94794 26.2761 9.49183L23.8863 23.0452L10.1491 28.0451C8.07317 28.8007 7.00282 31.096 7.75839 33.1719L10.2196 39.9341C10.9752 42.01 13.2706 43.0804 15.3465 42.3248L28.9383 37.3778L33.4053 38.1654C34.4931 38.3572 35.5304 37.6309 35.7222 36.5431L36.2115 33.7684C36.6981 32.9479 36.8896 31.9596 36.7029 30.981L40.0634 11.9229C40.1593 11.379 39.7961 10.8604 39.2522 10.7645L27.4345 8.68067Z" fill="black"/>
</svg>
