<svg width="48" height="48" viewBox="0 0 48 48" fill="none" xmlns="http://www.w3.org/2000/svg">
<path opacity="0.3" fill-rule="evenodd" clip-rule="evenodd" d="M41.6211 16.6867C41.764 16.1533 42.3124 15.8367 42.8458 15.9796L44.7777 16.4973C45.3111 16.6402 45.6277 17.1886 45.4848 17.722L41.6727 31.9488C41.5298 32.4822 40.9815 32.7988 40.448 32.6559L38.5161 32.1382C37.9827 31.9953 37.6661 31.4469 37.809 30.9135L41.6211 16.6867ZM19.7888 33.8845L16.2111 32.0956C18.3619 27.7939 23.5927 26.0503 27.8943 28.2012C29.5796 29.0438 30.9461 30.4103 31.7888 32.0956L28.2111 33.8845C27.7555 32.9733 27.0167 32.2345 26.1055 31.7789C23.7797 30.616 20.9516 31.5587 19.7888 33.8845ZM3.22233 16.4973C2.68886 16.6402 2.37228 17.1886 2.51522 17.722L6.13868 31.245C6.28163 31.7784 6.82996 32.095 7.36343 31.9521L9.29528 31.4344C9.82875 31.2915 10.1453 30.7432 10.0024 30.2097L6.37892 16.6867C6.23598 16.1533 5.68764 15.8367 5.15418 15.9796L3.22233 16.4973Z" fill="black"/>
<path fill-rule="evenodd" clip-rule="evenodd" d="M22 31C22 35.9706 17.9706 40 13 40C8.02944 40 4 35.9706 4 31C4 26.0294 8.02944 22 13 22C17.9706 22 22 26.0294 22 31ZM44 31C44 35.9706 39.9706 40 35 40C30.0294 40 26 35.9706 26 31C26 26.0294 30.0294 22 35 22C39.9706 22 44 26.0294 44 31Z" fill="black"/>
</svg>
