<svg width="48" height="48" viewBox="0 0 48 48" fill="none" xmlns="http://www.w3.org/2000/svg">
<path fill-rule="evenodd" clip-rule="evenodd" d="M32.3298 7.99997C31.5422 10.4249 28.1121 12.25 23.9998 12.25C19.8876 12.25 16.4574 10.4249 15.6699 7.99997H14.3892C14.0862 7.61784 13.5411 7.50511 13.1062 7.75621L12.684 7.99997H12C11.4571 7.99997 11.0152 8.43265 11.0004 8.97199L1.9561 14.1937C1.47781 14.4699 1.31393 15.0814 1.59007 15.5597L5.90257 23.0292C6.17872 23.5075 6.79031 23.6714 7.2686 23.3952L11 21.2409V41C11 41.5523 11.4477 42 12 42H36C36.5523 42 37 41.5523 37 41V21.2397L40.7335 23.3952C41.2118 23.6714 41.8233 23.5075 42.0995 23.0292L46.412 15.5597C46.6881 15.0814 46.5243 14.4699 46.046 14.1937L36.9996 8.97078C36.9841 8.432 36.5425 7.99997 36 7.99997H35.3181L34.8959 7.75621C34.461 7.50511 33.9158 7.61784 33.6129 7.99997H32.3298Z" fill="black"/>
</svg>
