<svg width="48" height="48" viewBox="0 0 48 48" fill="none" xmlns="http://www.w3.org/2000/svg">
<path fill-rule="evenodd" clip-rule="evenodd" d="M28.2249 14.0125C28.1511 14.0042 28.0761 14 28 14H20C19.924 14 19.849 14.0042 19.7751 14.0125L14.6953 9.11598C13.9012 8.35062 13.8766 7.08694 14.6402 6.29122L16.839 4H31.1611L33.3598 6.29122C34.1234 7.08694 34.0988 8.35062 33.3048 9.11598L28.2249 14.0125Z" fill="black"/>
<path opacity="0.3" fill-rule="evenodd" clip-rule="evenodd" d="M27.5281 18L30.9707 36.2988C31.0901 36.9338 30.8955 37.5873 30.4482 38.0534L25.443 43.269C25.424 43.2888 25.4046 43.3083 25.3848 43.3273C24.5878 44.0921 23.3218 44.066 22.557 43.269L17.5518 38.0534C17.1045 37.5873 16.9099 36.9338 17.0293 36.2988L20.4719 18H27.5281Z" fill="black"/>
</svg>
