<svg width="48" height="48" viewBox="0 0 48 48" fill="none" xmlns="http://www.w3.org/2000/svg">
<path fill-rule="evenodd" clip-rule="evenodd" d="M39.604 18.488C38.932 17.576 38.056 16.91 36.976 16.49C35.896 16.07 34.84 15.86 33.808 15.86C32.488 15.86 31.288 16.1 30.208 16.58C29.128 17.06 28.198 17.72 27.418 18.56C26.638 19.4 26.038 20.384 25.618 21.512C25.198 22.64 24.988 23.864 24.988 25.184C24.988 26.576 25.192 27.848 25.6 29C26.008 30.152 26.59 31.142 27.346 31.97C28.102 32.798 29.008 33.44 30.064 33.896C31.12 34.352 32.308 34.58 33.628 34.58C34.996 34.58 36.208 34.31 37.264 33.77C38.32 33.23 39.172 32.516 39.82 31.628L43.456 34.184C42.328 35.6 40.948 36.698 39.316 37.478C37.684 38.258 35.776 38.648 33.592 38.648C31.6 38.648 29.77 38.318 28.102 37.658C26.434 36.998 25 36.074 23.8 34.886C22.6 33.698 21.664 32.282 20.992 30.638C20.32 28.994 19.984 27.176 19.984 25.184C19.984 23.144 20.338 21.302 21.046 19.658C21.754 18.014 22.726 16.616 23.962 15.464C25.198 14.312 26.656 13.424 28.336 12.8C30.016 12.176 31.84 11.864 33.808 11.864C34.624 11.864 35.476 11.942 36.364 12.098C37.252 12.254 38.104 12.494 38.92 12.818C39.736 13.142 40.504 13.544 41.224 14.024C41.944 14.504 42.556 15.08 43.06 15.752L39.604 18.488Z" fill="black"/>
<path opacity="0.3" fill-rule="evenodd" clip-rule="evenodd" d="M5.88994 15.6081C5.58994 16.3041 5.43994 17.0481 5.43994 17.8401C5.43994 18.6321 5.58994 19.3761 5.88994 20.0721C6.18994 20.7681 6.60394 21.3801 7.13194 21.9081C7.65994 22.4361 8.27194 22.8501 8.96794 23.1501C9.66394 23.4501 10.4079 23.6001 11.1999 23.6001C11.9919 23.6001 12.7359 23.4501 13.4319 23.1501C14.1279 22.8501 14.7399 22.4361 15.2679 21.9081C15.7959 21.3801 16.2099 20.7681 16.5099 20.0721C16.8099 19.3761 16.9599 18.6321 16.9599 17.8401C16.9599 17.0481 16.8099 16.3041 16.5099 15.6081C16.2099 14.9121 15.7959 14.3001 15.2679 13.7721C14.7399 13.2441 14.1279 12.8301 13.4319 12.5301C12.7359 12.2301 11.9919 12.0801 11.1999 12.0801C10.4079 12.0801 9.66394 12.2301 8.96794 12.5301C8.27194 12.8301 7.65994 13.2441 7.13194 13.7721C6.60394 14.3001 6.18994 14.9121 5.88994 15.6081ZM9.11193 19.9281C8.53593 19.3521 8.24793 18.6561 8.24793 17.8401C8.24793 17.0241 8.53593 16.3281 9.11193 15.7521C9.68794 15.1761 10.3839 14.8881 11.1999 14.8881C12.0159 14.8881 12.7119 15.1761 13.2879 15.7521C13.8639 16.3281 14.1519 17.0241 14.1519 17.8401C14.1519 18.6561 13.8639 19.3521 13.2879 19.9281C12.7119 20.5041 12.0159 20.7921 11.1999 20.7921C10.3839 20.7921 9.68794 20.5041 9.11193 19.9281Z" fill="black"/>
</svg>
