<svg width="48" height="48" viewBox="0 0 48 48" fill="none" xmlns="http://www.w3.org/2000/svg">
<path opacity="0.3" fill-rule="evenodd" clip-rule="evenodd" d="M32.4568 6.40921C32.1896 8.08716 32.347 9.85577 32.9997 11.5561C34.9685 16.6848 40.7021 19.2601 45.8373 17.3392C45.2944 20.7495 42.998 23.7853 39.5422 25.1119C34.3862 27.0911 28.602 24.5158 26.6227 19.3597C24.6435 14.2037 27.2188 8.41946 32.3749 6.44025C32.4021 6.42977 32.4294 6.41943 32.4568 6.40921Z" fill="black"/>
<path fill-rule="evenodd" clip-rule="evenodd" d="M29.6219 23C28.2898 17.8243 23.5915 14 18 14C11.3726 14 6 19.3726 6 26C6 29.1438 7.20895 32.0053 9.1873 34.1448C9.79822 36.3673 11.8334 38 14.25 38H18H36.75C39.6495 38 42 35.6495 42 32.75V28.25C42 25.3505 39.6495 23 36.75 23H29.6219Z" fill="black"/>
</svg>
