<svg width="48" height="48" viewBox="0 0 48 48" fill="none" xmlns="http://www.w3.org/2000/svg">
<path opacity="0.3" fill-rule="evenodd" clip-rule="evenodd" d="M33.6219 17C32.2898 11.8243 27.5915 8 22 8C15.3726 8 10 13.3726 10 20C10 23.1438 11.2089 26.0053 13.1873 28.1448C13.7982 30.3673 15.8334 32 18.25 32H22H40.75C43.6495 32 46 29.6495 46 26.75V22.25C46 19.3505 43.6495 17 40.75 17H33.6219Z" fill="black"/>
<path fill-rule="evenodd" clip-rule="evenodd" d="M25.6219 25C24.2898 19.8243 19.5915 16 14 16C7.37258 16 2 21.3726 2 28C2 31.1438 3.20895 34.0053 5.1873 36.1448C5.79822 38.3673 7.83344 40 10.25 40H14H32.75C35.6495 40 38 37.6495 38 34.75V30.25C38 27.3505 35.6495 25 32.75 25H25.6219Z" fill="black"/>
</svg>
