<svg width="48" height="48" viewBox="0 0 48 48" fill="none" xmlns="http://www.w3.org/2000/svg">
<path opacity="0.3" fill-rule="evenodd" clip-rule="evenodd" d="M23 4.5C23 3.67157 23.6716 3 24.5 3H27.5C28.3284 3 29 3.67157 29 4.5V10.5C29 11.3284 28.3284 12 27.5 12H24.5C23.6716 12 23 11.3284 23 10.5V4.5ZM33.0607 12.8033C32.4749 13.3891 32.4749 14.3389 33.0607 14.9246L35.182 17.046C35.7678 17.6318 36.7175 17.6318 37.3033 17.046L41.5459 12.8033C42.1317 12.2175 42.1317 11.2678 41.5459 10.682L39.4246 8.56069C38.8388 7.9749 37.8891 7.9749 37.3033 8.56069L33.0607 12.8033ZM26 32C21.5817 32 18 28.4183 18 24C18 19.5817 21.5817 16 26 16C30.4183 16 34 19.5817 34 24C34 28.4183 30.4183 32 26 32ZM38 22.5C38 21.6716 38.6716 21 39.5 21H45.5C46.3284 21 47 21.6716 47 22.5V25.5C47 26.3284 46.3284 27 45.5 27H39.5C38.6716 27 38 26.3284 38 25.5V22.5ZM10.5607 10.682C9.97488 11.2678 9.97488 12.2175 10.5607 12.8033L14.8033 17.046C15.3891 17.6317 16.3388 17.6317 16.9246 17.046L19.0459 14.9246C19.6317 14.3389 19.6317 13.3891 19.0459 12.8033L14.8033 8.56068C14.2175 7.97489 13.2678 7.97489 12.682 8.56068L10.5607 10.682Z" fill="black"/>
<path fill-rule="evenodd" clip-rule="evenodd" d="M27.6219 27C26.2898 21.8243 21.5915 18 16 18C9.37258 18 4 23.3726 4 30C4 33.1438 5.20895 36.0053 7.1873 38.1448C7.79822 40.3673 9.83344 42 12.25 42H16H34.75C37.6495 42 40 39.6495 40 36.75V32.25C40 29.3505 37.6495 27 34.75 27H27.6219Z" fill="black"/>
</svg>
