<svg width="48" height="48" viewBox="0 0 48 48" fill="none" xmlns="http://www.w3.org/2000/svg">
<path opacity="0.3" fill-rule="evenodd" clip-rule="evenodd" d="M13.2308 21.5C13.2308 23.9853 11.1644 26 8.61538 26C6.06638 26 4 23.9853 4 21.5C4 19.0147 8.61538 14 8.61538 14C8.61538 14 13.2308 19.0147 13.2308 21.5ZM44 21.5C44 23.9853 41.9336 26 39.3846 26C36.8356 26 34.7693 23.9853 34.7693 21.5C34.7693 19.0147 39.3846 14 39.3846 14C39.3846 14 44 19.0147 44 21.5ZM16.6154 40C19.1644 40 21.2308 37.9853 21.2308 35.5C21.2308 33.0147 16.6154 28 16.6154 28C16.6154 28 12 33.0147 12 35.5C12 37.9853 14.0664 40 16.6154 40ZM36.6154 35.5C36.6154 37.9853 34.549 40 32 40C29.451 40 27.3846 37.9853 27.3846 35.5C27.3846 33.0147 32 28 32 28C32 28 36.6154 33.0147 36.6154 35.5Z" fill="black"/>
<path fill-rule="evenodd" clip-rule="evenodd" d="M24 26C26.549 26 28.6154 23.9853 28.6154 21.5C28.6154 19.0147 24 14 24 14C24 14 19.3846 19.0147 19.3846 21.5C19.3846 23.9853 21.451 26 24 26Z" fill="black"/>
</svg>
