<svg width="48" height="48" viewBox="0 0 48 48" fill="none" xmlns="http://www.w3.org/2000/svg">
<path opacity="0.3" fill-rule="evenodd" clip-rule="evenodd" d="M24 20C17.0095 20 11.1175 25.1563 10.1412 32H14.2C15.1266 27.4355 19.1621 24 24 24C28.8379 24 32.8734 27.4355 33.7999 32H37.8587C36.8826 25.1568 30.991 20 24 20ZM24 28C21.4076 28 19.1669 29.6556 18.3399 32H29.66C28.8331 29.6558 26.5925 28 24 28Z" fill="black"/>
<path fill-rule="evenodd" clip-rule="evenodd" d="M24 12C35.4761 12 44.8999 20.787 45.9103 32H41.8902C41.8731 31.8453 41.854 31.6911 41.833 31.5376C40.6324 22.7615 33.1058 16 24 16C14.901 16 7.37886 22.7514 6.16975 31.5179C6.14768 31.678 6.12771 31.8387 6.10988 32H2.08969C3.10017 20.787 12.5239 12 24 12Z" fill="black"/>
<path fill-rule="evenodd" clip-rule="evenodd" d="M24 12C35.4761 12 44.8999 20.787 45.9103 32H41.8902C41.8731 31.8453 41.854 31.6911 41.833 31.5376C40.6324 22.7615 33.1058 16 24 16C14.901 16 7.37886 22.7514 6.16975 31.5179C6.14768 31.678 6.12771 31.8387 6.10988 32H2.08969C3.10017 20.787 12.5239 12 24 12Z" fill="black"/>
</svg>
