<svg width="48" height="48" viewBox="0 0 48 48" fill="none" xmlns="http://www.w3.org/2000/svg">
<path fill-rule="evenodd" clip-rule="evenodd" d="M29.6219 15C28.2898 9.82432 23.5915 6 18 6C11.3726 6 6 11.3726 6 18C6 21.1438 7.20895 24.0053 9.1873 26.1448C9.79822 28.3673 11.8334 30 14.25 30H18H36.75C39.6495 30 42 27.6495 42 24.75V20.25C42 17.3505 39.6495 15 36.75 15H29.6219Z" fill="black"/>
<path opacity="0.3" fill-rule="evenodd" clip-rule="evenodd" d="M31.621 32.6867C31.764 32.1533 32.3123 31.8367 32.8458 31.9796L34.7776 32.4973C35.3111 32.6402 35.6277 33.1886 35.4848 33.722L34.9671 35.6539C34.8242 36.1873 34.2758 36.5039 33.7424 36.361L31.8105 35.8433C31.2771 35.7004 30.9605 35.1521 31.1034 34.6186L31.621 32.6867ZM15.6211 32.6867C15.764 32.1533 16.3123 31.8367 16.8458 31.9796L18.7776 32.4973C19.3111 32.6402 19.6277 33.1886 19.4848 33.722L18.9671 35.6539C18.8242 36.1873 18.2758 36.5039 17.7424 36.361L15.8105 35.8433C15.2771 35.7004 14.9605 35.1521 15.1034 34.6186L15.6211 32.6867ZM24.8458 31.9796C24.3123 31.8367 23.764 32.1533 23.6211 32.6867L23.1034 34.6186C22.9605 35.1521 23.2771 35.7004 23.8105 35.8433L25.7424 36.361C26.2758 36.5039 26.8242 36.1873 26.9671 35.6539L27.4848 33.722C27.6277 33.1886 27.3111 32.6402 26.7776 32.4973L24.8458 31.9796ZM27.6211 38.6867C27.764 38.1533 28.3123 37.8367 28.8458 37.9796L30.7776 38.4973C31.3111 38.6402 31.6277 39.1886 31.4848 39.722L30.9671 41.6539C30.8242 42.1873 30.2758 42.5039 29.7424 42.361L27.8105 41.8433C27.2771 41.7004 26.9605 41.1521 27.1034 40.6186L27.6211 38.6867ZM20.8458 37.9796C20.3123 37.8367 19.764 38.1533 19.6211 38.6867L19.1034 40.6186C18.9605 41.1521 19.2771 41.7004 19.8105 41.8433L21.7424 42.361C22.2758 42.5039 22.8242 42.1873 22.9671 41.6539L23.4848 39.722C23.6277 39.1886 23.3111 38.6402 22.7776 38.4973L20.8458 37.9796Z" fill="black"/>
</svg>
