<svg width="48" height="48" viewBox="0 0 48 48" fill="none" xmlns="http://www.w3.org/2000/svg">
<path opacity="0.3" fill-rule="evenodd" clip-rule="evenodd" d="M22 7C22 6.44772 22.4477 6 23 6H25C25.5523 6 26 6.44772 26 7V20.6349L37.6367 13.9165C38.1149 13.6404 38.7265 13.8043 39.0027 14.2825L40.0027 16.0146C40.2788 16.4929 40.1149 17.1045 39.6367 17.3806L27.8284 24.1981L39.4651 30.9165C39.9433 31.1927 40.1072 31.8043 39.8311 32.2825L38.8311 34.0146C38.5549 34.4929 37.9433 34.6568 37.4651 34.3806L26 27.7613V41C26 41.5523 25.5523 42 25 42H23C22.4477 42 22 41.5523 22 41V27.5631L10.1918 34.3806C9.71349 34.6568 9.1019 34.4929 8.82576 34.0146L7.82576 32.2825C7.54962 31.8043 7.71349 31.1927 8.19179 30.9165L19.8284 24.1981L8.02019 17.3806C7.54189 17.1045 7.37802 16.4929 7.65416 16.0146L8.65416 14.2825C8.9303 13.8043 9.54189 13.6404 10.0202 13.9165L22 20.8331V7Z" fill="black"/>
<path opacity="0.3" fill-rule="evenodd" clip-rule="evenodd" d="M18.7071 8.7072C19.0976 8.31668 19.7308 8.31668 20.1213 8.7072L23.8284 12.4143L27.5355 8.7072C27.9261 8.31668 28.5592 8.31668 28.9498 8.7072L30.364 10.1214C30.7545 10.5119 30.7545 11.1451 30.364 11.5356L26.1213 15.7783C25.7308 16.1688 25.0976 16.1688 24.7071 15.7783L23.8284 14.8996L22.9497 15.7783C22.5592 16.1688 21.926 16.1688 21.5355 15.7783L17.2929 11.5356C16.9024 11.1451 16.9024 10.5119 17.2929 10.1214L18.7071 8.7072ZM18.7071 39.7782C19.0976 40.1687 19.7308 40.1687 20.1213 39.7782L23.8284 36.0711L27.5355 39.7782C27.9261 40.1687 28.5592 40.1687 28.9498 39.7782L30.364 38.364C30.7545 37.9734 30.7545 37.3403 30.364 36.9498L26.1213 32.7071C25.7308 32.3166 25.0976 32.3166 24.7071 32.7071L23.8284 33.5858L22.9497 32.7071C22.5592 32.3166 21.926 32.3166 21.5355 32.7071L17.2929 36.9498C16.9024 37.3403 16.9024 37.9734 17.2929 38.364L18.7071 39.7782ZM12.2278 35.2209C12.0849 35.7544 12.4015 36.3027 12.9349 36.4457L14.8668 36.9633C15.4002 37.1063 15.9486 36.7897 16.0915 36.2562L17.6444 30.4607C17.7874 29.9272 17.4708 29.3789 16.9373 29.2359L15.737 28.9143L16.0587 27.7139C16.2016 27.1805 15.885 26.6321 15.3516 26.4892L9.55599 24.9363C9.02253 24.7933 8.47419 25.1099 8.33125 25.6434L7.81361 27.5752C7.67067 28.1087 7.98725 28.657 8.52072 28.8L13.5847 30.1569L12.2278 35.2209ZM39.1361 19.6854C39.6696 19.8283 39.9862 20.3767 39.8432 20.9101L39.3256 22.842C39.1827 23.3755 38.6343 23.692 38.1009 23.5491L32.3053 21.9962C31.7718 21.8532 31.4553 21.3049 31.5982 20.7714L31.9198 19.5711L30.7196 19.2495C30.1861 19.1065 29.8695 18.5582 30.0125 18.0247L31.5654 12.2292C31.7083 11.6957 32.2566 11.3791 32.7901 11.5221L34.722 12.0397C35.2554 12.1826 35.572 12.731 35.4291 13.2644L34.0722 18.3285L39.1361 19.6854ZM39.1361 28.8C39.6696 28.657 39.9862 28.1087 39.8432 27.5752L39.3256 25.6434C39.1827 25.1099 38.6343 24.7933 38.1009 24.9363L32.3053 26.4892C31.7718 26.6321 31.4553 27.1805 31.5982 27.7139L31.9198 28.9143L30.7195 29.2359C30.1861 29.3789 29.8695 29.9272 30.0124 30.4607L31.5653 36.2562C31.7083 36.7897 32.2566 37.1063 32.7901 36.9633L34.7219 36.4457C35.2554 36.3027 35.572 35.7544 35.429 35.2209L34.0721 30.1569L39.1361 28.8ZM12.2278 13.2645C12.0849 12.731 12.4015 12.1827 12.9349 12.0398L14.8668 11.5221C15.4002 11.3792 15.9486 11.6958 16.0915 12.2292L17.6444 18.0248C17.7874 18.5582 17.4708 19.1066 16.9373 19.2495L15.737 19.5711L16.0587 20.7714C16.2016 21.3049 15.885 21.8532 15.3515 21.9962L9.55599 23.5491C9.02253 23.692 8.47419 23.3755 8.33125 22.842L7.81361 20.9101C7.67067 20.3767 7.98725 19.8283 8.52072 19.6854L13.5847 18.3285L12.2278 13.2645Z" fill="black"/>
</svg>
