<svg width="48" height="48" viewBox="0 0 48 48" fill="none" xmlns="http://www.w3.org/2000/svg">
<path fill-rule="evenodd" clip-rule="evenodd" d="M29.6219 15C28.2898 9.82432 23.5915 6 18 6C11.3726 6 6 11.3726 6 18C6 21.1438 7.20895 24.0053 9.1873 26.1448C9.79822 28.3673 11.8334 30 14.25 30H18H36.75C39.6495 30 42 27.6495 42 24.75V20.25C42 17.3505 39.6495 15 36.75 15H29.6219Z" fill="black"/>
<path opacity="0.3" fill-rule="evenodd" clip-rule="evenodd" d="M14.8458 35.9796C14.3123 35.8367 13.764 36.1533 13.6211 36.6867L13.1034 38.6186C12.9605 39.1521 13.2771 39.7004 13.8105 39.8433L15.7424 40.361C16.2758 40.5039 16.8242 40.1873 16.9671 39.6539L17.4848 37.722C17.6277 37.1886 17.3111 36.6402 16.7776 36.4973L14.8458 35.9796ZM21.6211 36.6867C21.764 36.1533 22.3123 35.8367 22.8458 35.9796L24.7776 36.4973C25.3111 36.6402 25.6277 37.1886 25.4848 37.722L24.9671 39.6539C24.8242 40.1873 24.2758 40.5039 23.7424 40.361L21.8105 39.8433C21.2771 39.7004 20.9605 39.1521 21.1034 38.6186L21.6211 36.6867ZM29.6211 36.6867C29.764 36.1533 30.3123 35.8367 30.8458 35.9796L32.7776 36.4973C33.3111 36.6402 33.6277 37.1886 33.4848 37.722L32.9671 39.6539C32.8242 40.1873 32.2758 40.5039 31.7424 40.361L29.8105 39.8433C29.2771 39.7004 28.9605 39.1521 29.1034 38.6186L29.6211 36.6867Z" fill="black"/>
</svg>
