<svg width="48" height="48" viewBox="0 0 48 48" fill="none" xmlns="http://www.w3.org/2000/svg">
<rect x="16" y="4" width="28" height="4" rx="1" fill="black"/>
<path opacity="0.3" fill-rule="evenodd" clip-rule="evenodd" d="M10 13C10 12.4477 10.4477 12 11 12H37C37.5523 12 38 12.4477 38 13V15C38 15.5523 37.5523 16 37 16H11C10.4477 16 10 15.5523 10 15V13ZM14 21C14 20.4477 14.4477 20 15 20H31C31.5523 20 32 20.4477 32 21V23C32 23.5523 31.5523 24 31 24H15C14.4477 24 14 23.5523 14 23V21ZM21 28C20.4477 28 20 28.4477 20 29V31C20 31.5523 20.4477 32 21 32H35C35.5523 32 36 31.5523 36 31V29C36 28.4477 35.5523 28 35 28H21ZM22 37C22 36.4477 22.4477 36 23 36H31C31.5523 36 32 36.4477 32 37V39C32 39.5523 31.5523 40 31 40H23C22.4477 40 22 39.5523 22 39V37ZM21 42C20.4477 42 20 42.4477 20 43V45C20 45.5523 20.4477 46 21 46H25C25.5523 46 26 45.5523 26 45V43C26 42.4477 25.5523 42 25 42H21Z" fill="black"/>
</svg>
