<svg width="48" height="48" viewBox="0 0 48 48" fill="none" xmlns="http://www.w3.org/2000/svg">
<path fill-rule="evenodd" clip-rule="evenodd" d="M24 24C19.5817 24 16 27.5817 16 32H32C32 27.5817 28.4183 24 24 24ZM7.5 36C6.67157 36 6 36.6716 6 37.5V38.5C6 39.3284 6.67157 40 7.5 40H40.5C41.3284 40 42 39.3284 42 38.5V37.5C42 36.6716 41.3284 36 40.5 36H7.5Z" fill="black"/>
<path opacity="0.3" fill-rule="evenodd" clip-rule="evenodd" d="M21 10.5C21 9.67157 21.6716 9 22.5 9H25.5C26.3284 9 27 9.67157 27 10.5V16.5C27 17.3284 26.3284 18 25.5 18H22.5C21.6716 18 21 17.3284 21 16.5V10.5ZM31.0607 20.9246C30.4749 20.3389 30.4749 19.3891 31.0607 18.8033L35.3033 14.5607C35.8891 13.9749 36.8388 13.9749 37.4246 14.5607L39.5459 16.682C40.1317 17.2678 40.1317 18.2175 39.5459 18.8033L35.3033 23.046C34.7175 23.6318 33.7678 23.6318 33.182 23.046L31.0607 20.9246ZM36 27.5C36 26.6716 36.6716 26 37.5 26H43.5C44.3284 26 45 26.6716 45 27.5V30.5C45 31.3284 44.3284 32 43.5 32H37.5C36.6716 32 36 31.3284 36 30.5V27.5ZM4.5 26C3.67157 26 3 26.6716 3 27.5V30.5C3 31.3284 3.67157 32 4.5 32H10.5C11.3284 32 12 31.3284 12 30.5V27.5C12 26.6716 11.3284 26 10.5 26H4.5ZM8.56066 16.682C7.97487 17.2678 7.97487 18.2175 8.56066 18.8033L12.8033 23.046C13.3891 23.6317 14.3388 23.6317 14.9246 23.046L17.0459 20.9246C17.6317 20.3389 17.6317 19.3891 17.0459 18.8033L12.8033 14.5607C12.2175 13.9749 11.2678 13.9749 10.682 14.5607L8.56066 16.682Z" fill="black"/>
</svg>
