<svg width="48" height="48" viewBox="0 0 48 48" fill="none" xmlns="http://www.w3.org/2000/svg">
<path fill-rule="evenodd" clip-rule="evenodd" d="M24 44C30.6274 44 36 38.6274 36 32C36 27.5583 33.5868 23.6802 30 21.6054V10C30 6.68629 27.3137 4 24 4C20.6863 4 18 6.68629 18 10V21.6054C14.4132 23.6802 12 27.5583 12 32C12 38.6274 17.3726 44 24 44ZM26 23.9125L27.9971 25.0678C30.4567 26.4906 32 29.1087 32 32C32 36.4182 28.4183 40 24 40C19.5817 40 16 36.4182 16 32C16 29.1087 17.5433 26.4906 20.0029 25.0678L22 23.9125V9.99997C22 9.42949 22.9682 7.98118 24 7.99997C24.966 8.01756 26 9.46587 26 9.99997V23.9125Z" fill="black"/>
</svg>
