<svg width="48" height="48" viewBox="0 0 48 48" fill="none" xmlns="http://www.w3.org/2000/svg">
<path opacity="0.3" fill-rule="evenodd" clip-rule="evenodd" d="M34.9996 5.55603C34.3469 3.85574 34.1896 2.08713 34.4567 0.40918C34.4294 0.419397 34.4021 0.429742 34.3748 0.440214C29.2188 2.41943 26.6434 8.20367 28.6227 13.3597C30.6019 18.5157 36.3861 21.091 41.5421 19.1118C44.9979 17.7853 47.2943 14.7495 47.8372 11.3392C42.702 13.26 36.9684 10.6848 34.9996 5.55603ZM29.0666 36L20.1778 48V40H15.7333L24.6222 28V36H29.0666Z" fill="black"/>
<path fill-rule="evenodd" clip-rule="evenodd" d="M29.6219 15C28.2898 9.82432 23.5915 6 18 6C11.3726 6 6 11.3726 6 18C6 21.1438 7.20895 24.0053 9.1873 26.1448C9.79822 28.3673 11.8334 30 14.25 30H18H36.75C39.6495 30 42 27.6495 42 24.75V20.25C42 17.3505 39.6495 15 36.75 15H29.6219Z" fill="black"/>
</svg>
