<svg width="48" height="48" viewBox="0 0 48 48" fill="none" xmlns="http://www.w3.org/2000/svg">
<path opacity="0.3" fill-rule="evenodd" clip-rule="evenodd" d="M7.02945 29.6571C6.2484 30.4381 6.2484 31.7045 7.02945 32.4855L15.5147 40.9708C16.2958 41.7518 17.5621 41.7518 18.3432 40.9708L26.8284 32.4855C27.6095 31.7045 27.6095 30.4381 26.8284 29.6571L24 26.8287L19.0503 31.7784C18.6598 32.1689 18.0266 32.1689 17.6361 31.7784L16.2219 30.3642C15.8313 29.9737 15.8313 29.3405 16.2219 28.95L21.1716 24.0002L18.3432 21.1718C17.5621 20.3907 16.2958 20.3907 15.5147 21.1718L7.02945 29.6571Z" fill="black"/>
<path fill-rule="evenodd" clip-rule="evenodd" d="M21.1716 15.5145C20.3905 16.2955 20.3905 17.5619 21.1716 18.3429L24 21.1713L28.9497 16.2216C29.3402 15.8311 29.9734 15.8311 30.3639 16.2216L31.7782 17.6358C32.1687 18.0263 32.1687 18.6595 31.7782 19.05L26.8284 23.9998L29.6568 26.8282C30.4379 27.6093 31.7042 27.6093 32.4853 26.8282L40.9706 18.3429C41.7516 17.5619 41.7516 16.2955 40.9706 15.5145L32.4853 7.02922C31.7042 6.24817 30.4379 6.24817 29.6568 7.02922L21.1716 15.5145Z" fill="black"/>
</svg>
