<svg width="48" height="48" viewBox="0 0 48 48" fill="none" xmlns="http://www.w3.org/2000/svg">
<path opacity="0.3" fill-rule="evenodd" clip-rule="evenodd" d="M19.7574 25.4143L15.5147 29.6569C14.7337 30.438 14.7337 31.7043 15.5147 32.4854C16.2958 33.2664 17.5621 33.2664 18.3432 32.4854L22.5858 28.2427L24 29.6569C25.5621 31.219 25.5621 33.7517 24 35.3138L18.3432 40.9706C16.7811 42.5327 14.2484 42.5327 12.6863 40.9706L7.02946 35.3138C5.46736 33.7517 5.46736 31.219 7.02946 29.6569L12.6863 24.0001C14.2484 22.438 16.7811 22.438 18.3432 24.0001L19.7574 25.4143Z" fill="black"/>
<path fill-rule="evenodd" clip-rule="evenodd" d="M28.2427 22.5857L32.4853 18.3431C33.2664 17.562 33.2664 16.2957 32.4853 15.5146C31.7043 14.7336 30.4379 14.7336 29.6569 15.5146L25.4142 19.7573L24 18.3431C22.4379 16.781 22.4379 14.2483 24 12.6862L29.6569 7.02937C31.219 5.46727 33.7516 5.46727 35.3137 7.02937L40.9706 12.6862C42.5327 14.2483 42.5327 16.781 40.9706 18.3431L35.3137 23.9999C33.7516 25.562 31.219 25.562 29.6569 23.9999L28.2427 22.5857Z" fill="black"/>
<path opacity="0.3" fill-rule="evenodd" clip-rule="evenodd" d="M7.73653 10.5652C7.34601 10.1746 7.34601 9.54147 7.73653 9.15095L9.15075 7.73673C9.54127 7.34621 10.1744 7.34621 10.565 7.73673L14.8076 11.9794C15.1981 12.3699 15.1981 13.0031 14.8076 13.3936L13.3934 14.8078C13.0029 15.1983 12.3697 15.1983 11.9792 14.8078L7.73653 10.5652ZM16.6863 4.02963C16.6863 3.47734 17.134 3.02963 17.6863 3.02963L19.6863 3.02963C20.2386 3.02963 20.6863 3.47734 20.6863 4.02963L20.6863 10.0296C20.6863 10.5819 20.2386 11.0296 19.6863 11.0296L17.6863 11.0296C17.134 11.0296 16.6863 10.5819 16.6863 10.0296L16.6863 4.02963ZM3.37257 17.3433C3.37257 16.7911 3.82028 16.3433 4.37257 16.3433H10.3726C10.9249 16.3433 11.3726 16.7911 11.3726 17.3433L11.3726 19.3433C11.3726 19.8956 10.9249 20.3433 10.3726 20.3433L4.37257 20.3433C3.82029 20.3433 3.37257 19.8956 3.37257 19.3433L3.37257 17.3433Z" fill="black"/>
<path opacity="0.3" fill-rule="evenodd" clip-rule="evenodd" d="M37.1923 40.0206C37.5829 40.4111 38.216 40.4111 38.6066 40.0206L40.0208 38.6064C40.4113 38.2159 40.4113 37.5827 40.0208 37.1922L35.7781 32.9495C35.3876 32.559 34.7544 32.559 34.3639 32.9495L32.9497 34.3637C32.5592 34.7543 32.5592 35.3874 32.9497 35.778L37.1923 40.0206ZM43.7279 31.0708C44.2802 31.0708 44.7279 30.6231 44.7279 30.0708L44.7279 28.0708C44.7279 27.5186 44.2802 27.0708 43.7279 27.0708L37.7279 27.0708C37.1756 27.0708 36.7279 27.5186 36.7279 28.0708V30.0708C36.7279 30.6231 37.1756 31.0708 37.7279 31.0708L43.7279 31.0708ZM30.4142 44.3846C30.9665 44.3846 31.4142 43.9368 31.4142 43.3846L31.4142 37.3846C31.4142 36.8323 30.9665 36.3846 30.4142 36.3846H28.4142C27.8619 36.3846 27.4142 36.8323 27.4142 37.3846L27.4142 43.3846C27.4142 43.9368 27.8619 44.3846 28.4142 44.3846H30.4142Z" fill="black"/>
</svg>
