<svg width="48" height="48" viewBox="0 0 48 48" fill="none" xmlns="http://www.w3.org/2000/svg">
<path fill-rule="evenodd" clip-rule="evenodd" d="M25.687 31.9999H22.313L21.9704 33.2785C20.6705 38.1298 15.684 41.0088 10.8327 39.7089C5.98141 38.409 3.10243 33.4225 4.40233 28.5712L7.84174 15.7352C9.14164 10.8839 14.1282 8.0049 18.9795 9.3048C21.0843 9.8688 22.8179 11.1268 24 12.7667C25.1821 11.1268 26.9157 9.8688 29.0205 9.3048C33.8718 8.0049 38.8584 10.8839 40.1583 15.7352L43.5977 28.5712C44.8976 33.4225 42.0186 38.409 37.1673 39.7089C32.316 41.0088 27.3295 38.1298 26.0296 33.2785L25.687 31.9999ZM34.9127 36.2103C37.9262 36.2103 40.3691 33.6755 40.3691 30.5487C40.3691 27.4219 37.9262 24.8871 34.9127 24.8871C31.8992 24.8871 29.4564 27.4219 29.4564 30.5487C29.4564 33.6755 31.8992 36.2103 34.9127 36.2103ZM13.0873 36.2103C16.1008 36.2103 18.5437 33.6755 18.5437 30.5487C18.5437 27.4219 16.1008 24.8871 13.0873 24.8871C10.0739 24.8871 7.63097 27.4219 7.63097 30.5487C7.63097 33.6755 10.0739 36.2103 13.0873 36.2103Z" fill="black"/>
</svg>
