<svg width="20" height="20" xmlns="http://www.w3.org/2000/svg">
    <path fill="black" d="m17.2425,3.235l-3.32063,0l0,-1.32c0,-0.09075 -0.07118,-0.165 -0.15813,-0.165l-1.10688,0c-0.08695,0 -0.15813,0.07425 -0.15813,0.165l0,1.32l-5.06,0l0,-1.32c0,-0.09075 -0.07115,-0.165 -0.15813,-0.165l-1.10688,0c-0.08697,0 -0.15813,0.07425 -0.15813,0.165l0,1.32l-3.32063,0c-0.34985,0 -0.6325,0.29494 -0.6325,0.66l0,13.695c0,0.36502 0.28265,0.66 0.6325,0.66l14.5475,0c0.34981,0 0.6325,-0.29498 0.6325,-0.66l0,-13.695c0,-0.36506 -0.28269,-0.66 -0.6325,-0.66zm-0.79063,13.53l-12.96625,0l0,-7.8375l12.96625,0l0,7.8375zm-12.96625,-9.24l0,-2.805l2.53,0l0,0.99c0,0.09075 0.07115,0.165 0.15813,0.165l1.10688,0c0.08697,0 0.15813,-0.07425 0.15813,-0.165l0,-0.99l5.06,0l0,0.99c0,0.09075 0.07118,0.165 0.15813,0.165l1.10688,0c0.08695,0 0.15813,-0.07425 0.15813,-0.165l0,-0.99l2.53,0l0,2.805l-12.96625,0z"/>
</svg>
