<svg width="48" height="48" viewBox="0 0 48 48" fill="none" xmlns="http://www.w3.org/2000/svg">
<path opacity="0.3" fill-rule="evenodd" clip-rule="evenodd" d="M24 35.9999L15.8312 40.2945C14.8535 40.8085 13.6443 40.4326 13.1303 39.4549C12.9256 39.0656 12.855 38.6196 12.9293 38.1861L14.4894 29.0901L7.88074 22.6482C7.08977 21.8772 7.07359 20.611 7.84459 19.82C8.15161 19.505 8.55389 19.3001 8.98917 19.2368L18.1221 17.9097L22.2065 9.63387C22.6953 8.64336 23.8946 8.23668 24.8851 8.72553C25.2795 8.92019 25.5988 9.23944 25.7934 9.63387L29.8778 17.9097L39.0108 19.2368C40.1039 19.3957 40.8612 20.4105 40.7024 21.5036C40.6391 21.9389 40.4342 22.3412 40.1192 22.6482L33.5105 29.0901L35.0706 38.1861C35.2574 39.2748 34.5262 40.3087 33.4375 40.4954C33.004 40.5698 32.5581 40.4991 32.1687 40.2945L24 35.9999Z" fill="black"/>
</svg>
