<svg width="48" height="48" viewBox="0 0 48 48" fill="none" xmlns="http://www.w3.org/2000/svg">
<path fill-rule="evenodd" clip-rule="evenodd" d="M40 21.5859C39.0463 21.8557 38.04 22 37 22C30.9249 22 26 17.0751 26 11C26 9.95998 26.1443 8.95366 26.4141 8H11C9.34315 8 8 9.34315 8 11V37C8 38.6569 9.34315 40 11 40H37C38.6569 40 40 38.6569 40 37V21.5859Z" fill="black"/>
<path opacity="0.3" fill-rule="evenodd" clip-rule="evenodd" d="M37 16C39.7614 16 42 13.7614 42 11C42 8.23858 39.7614 6 37 6C34.2386 6 32 8.23858 32 11C32 13.7614 34.2386 16 37 16Z" fill="black"/>
</svg>
