<svg width="48" height="48" viewBox="0 0 48 48" fill="none" xmlns="http://www.w3.org/2000/svg">
<path fill-rule="evenodd" clip-rule="evenodd" d="M10 28C12.2091 28 14 26.2091 14 24C14 21.7909 12.2091 20 10 20C7.79086 20 6 21.7909 6 24C6 26.2091 7.79086 28 10 28Z" fill="black"/>
<path fill-rule="evenodd" clip-rule="evenodd" d="M24 28C26.2091 28 28 26.2091 28 24C28 21.7909 26.2091 20 24 20C21.7909 20 20 21.7909 20 24C20 26.2091 21.7909 28 24 28Z" fill="black"/>
<path fill-rule="evenodd" clip-rule="evenodd" d="M38 28C40.2091 28 42 26.2091 42 24C42 21.7909 40.2091 20 38 20C35.7909 20 34 21.7909 34 24C34 26.2091 35.7909 28 38 28Z" fill="black"/>
</svg>
