<svg width="48" height="48" viewBox="0 0 48 48" fill="none" xmlns="http://www.w3.org/2000/svg">
<path fill-rule="evenodd" clip-rule="evenodd" d="M24 14C26.2091 14 28 12.2091 28 10C28 7.79086 26.2091 6 24 6C21.7909 6 20 7.79086 20 10C20 12.2091 21.7909 14 24 14Z" fill="black"/>
<path fill-rule="evenodd" clip-rule="evenodd" d="M24 28C26.2091 28 28 26.2091 28 24C28 21.7909 26.2091 20 24 20C21.7909 20 20 21.7909 20 24C20 26.2091 21.7909 28 24 28Z" fill="black"/>
<path fill-rule="evenodd" clip-rule="evenodd" d="M24 42C26.2091 42 28 40.2091 28 38C28 35.7909 26.2091 34 24 34C21.7909 34 20 35.7909 20 38C20 40.2091 21.7909 42 24 42Z" fill="black"/>
</svg>
