<svg width="48" height="48" viewBox="0 0 48 48" fill="none" xmlns="http://www.w3.org/2000/svg">
<path fill-rule="evenodd" clip-rule="evenodd" d="M40 18H30V8C30 8 30 6 28 6C26 6 26 8 26 8V22H40C40 22 42 21.6569 42 20C42 18.3431 40 18 40 18ZM10 28H20V38C20 38 20 40 22 40C24 40 24 38 24 38V24H10C10 24 8 24.3431 8 26C8 27.6569 10 28 10 28Z" fill="black"/>
<path opacity="0.3" fill-rule="evenodd" clip-rule="evenodd" d="M33.0503 12.1213C32.6598 12.5118 32.6598 13.145 33.0503 13.5355L34.4645 14.9497C34.855 15.3402 35.4882 15.3402 35.8787 14.9497L42.9498 7.87864C43.3403 7.48812 43.3403 6.85496 42.9498 6.46443L41.5356 5.05022C41.1451 4.65969 40.5119 4.65969 40.1214 5.05022L33.0503 12.1213ZM7.05031 38.1213C6.65978 38.5118 6.65978 39.145 7.05031 39.5355L8.46452 40.9497C8.85505 41.3402 9.48821 41.3402 9.87874 40.9497L16.9498 33.8786C17.3403 33.4881 17.3403 32.855 16.9498 32.4644L15.5356 31.0502C15.1451 30.6597 14.5119 30.6597 14.1214 31.0502L7.05031 38.1213Z" fill="black"/>
</svg>
