<svg width="48" height="48" viewBox="0 0 48 48" fill="none" xmlns="http://www.w3.org/2000/svg">
<path opacity="0.3" fill-rule="evenodd" clip-rule="evenodd" d="M15.4139 23.293L8.31321 19.506C7.92337 19.2981 7.77588 18.8135 7.9838 18.4236C8.16723 18.0797 8.57182 17.918 8.94175 18.0409L19.1441 21.4279L15.4139 23.293ZM25.4646 28.6534L32.7374 25.9408L37.2634 27.4434L37.2599 27.4451C40.017 28.385 42 30.9971 42 34.0723C42 37.9383 38.866 41.0723 35 41.0723C31.134 41.0723 28 37.9383 28 34.0723C28 32.7761 28.3523 31.5621 28.9664 30.521L25.4646 28.6534ZM32 34.0723C32 32.4154 33.3431 31.0723 35 31.0723C36.6569 31.0723 38 32.4154 38 34.0723C38 35.7291 36.6569 37.0723 35 37.0723C33.3431 37.0723 32 35.7291 32 34.0723Z" fill="black"/>
<path fill-rule="evenodd" clip-rule="evenodd" d="M28.9664 18.5512C28.3523 17.5101 28 16.2962 28 15C28 11.134 31.134 8 35 8C38.866 8 42 11.134 42 15C42 18.0752 40.017 20.6873 37.2599 21.6272L37.2634 21.6289L4.47086 32.5157C4.00585 32.6701 3.72427 32.0137 4.15659 31.7831L28.9664 18.5512ZM35 18C36.6568 18 38 16.6569 38 15C38 13.3431 36.6568 12 35 12C33.3431 12 32 13.3431 32 15C32 16.6569 33.3431 18 35 18Z" fill="black"/>
</svg>
