<svg width="48" height="48" viewBox="0 0 48 48" fill="none" xmlns="http://www.w3.org/2000/svg">
<path opacity="0.3" d="M28.5858 33.4142C27.8047 32.6332 27.8047 31.3668 28.5858 30.5858C29.3668 29.8047 30.6332 29.8047 31.4142 30.5858L39.4142 38.5858C40.1953 39.3668 40.1953 40.6332 39.4142 41.4142C38.6332 42.1953 37.3668 42.1953 36.5858 41.4142L28.5858 33.4142Z" fill="black"/>
<path fill-rule="evenodd" clip-rule="evenodd" d="M8 22C8 29.732 14.268 36 22 36C29.732 36 36 29.732 36 22C36 14.268 29.732 8 22 8C14.268 8 8 14.268 8 22ZM32 22C32 27.5228 27.5228 32 22 32C16.4772 32 12 27.5228 12 22C12 16.4772 16.4772 12 22 12C27.5228 12 32 16.4772 32 22Z" fill="black"/>
</svg>
