<svg width="48" height="48" viewBox="0 0 48 48" fill="none" xmlns="http://www.w3.org/2000/svg">
<path fill-rule="evenodd" clip-rule="evenodd" d="M10 6C7.79086 6 6 7.79086 6 10V18C6 20.2091 7.79086 22 10 22H38C40.2091 22 42 20.2091 42 18V10C42 7.79086 40.2091 6 38 6H10ZM18 14C18 16.2091 16.2091 18 14 18C11.7909 18 10 16.2091 10 14C10 11.7909 11.7909 10 14 10C16.2091 10 18 11.7909 18 14Z" fill="black"/>
<path opacity="0.3" fill-rule="evenodd" clip-rule="evenodd" d="M10 26C7.79086 26 6 27.7909 6 30V38C6 40.2091 7.79086 42 10 42H38C40.2091 42 42 40.2091 42 38V30C42 27.7909 40.2091 26 38 26H10ZM38 34C38 36.2091 36.2091 38 34 38C31.7909 38 30 36.2091 30 34C30 31.7909 31.7909 30 34 30C36.2091 30 38 31.7909 38 34Z" fill="black"/>
</svg>
