<svg width="48" height="48" viewBox="0 0 48 48" fill="none" xmlns="http://www.w3.org/2000/svg">
<path opacity="0.3" fill-rule="evenodd" clip-rule="evenodd" d="M8 8.00012L23.6314 5.06923C23.875 5.02355 24.125 5.02355 24.3686 5.06923L40 8.00012V29.9034C40 33.6961 38.0462 37.2213 34.83 39.2314L24.53 45.6689C24.2057 45.8715 23.7943 45.8715 23.47 45.6689L13.17 39.2314C9.95382 37.2213 8 33.6961 8 29.9034L8 8.00012Z" fill="black"/>
<path fill-rule="evenodd" clip-rule="evenodd" d="M21.1715 24L18.3431 21.1715C17.5621 20.3905 17.5621 19.1242 18.3431 18.3431C19.1242 17.5621 20.3905 17.5621 21.1715 18.3431L24 21.1715L26.8284 18.3431C27.6094 17.5621 28.8758 17.5621 29.6568 18.3431C30.4379 19.1242 30.4379 20.3905 29.6568 21.1715L26.8284 24L29.6568 26.8284C30.4379 27.6094 30.4379 28.8758 29.6568 29.6568C28.8758 30.4379 27.6094 30.4379 26.8284 29.6568L24 26.8284L21.1715 29.6568C20.3905 30.4379 19.1242 30.4379 18.3431 29.6568C17.5621 28.8758 17.5621 27.6094 18.3431 26.8284L21.1715 24Z" fill="black"/>
</svg>
