<svg width="24" height="22" viewBox="0 0 24 22" fill="none" xmlns="http://www.w3.org/2000/svg">
<path d="M11.8031 15.6562C11.8265 15.6861 11.8564 15.7103 11.8905 15.7269C11.9246 15.7435 11.9621 15.7522 12 15.7522C12.0379 15.7522 12.0754 15.7435 12.1095 15.7269C12.1436 15.7103 12.1735 15.6861 12.1969 15.6562L15.6969 11.2281C15.825 11.0656 15.7094 10.825 15.5 10.825H13.1844V0.25C13.1844 0.1125 13.0719 0 12.9344 0H11.0594C10.9219 0 10.8094 0.1125 10.8094 0.25V10.8219H8.5C8.29063 10.8219 8.175 11.0625 8.30313 11.225L11.8031 15.6562ZM23.4375 14.5625H21.5625C21.425 14.5625 21.3125 14.675 21.3125 14.8125V19.625H2.6875V14.8125C2.6875 14.675 2.575 14.5625 2.4375 14.5625H0.5625C0.425 14.5625 0.3125 14.675 0.3125 14.8125V21C0.3125 21.5531 0.759375 22 1.3125 22H22.6875C23.2406 22 23.6875 21.5531 23.6875 21V14.8125C23.6875 14.675 23.575 14.5625 23.4375 14.5625Z" fill="#000"/>
</svg>
