<svg width="48" height="48" viewBox="0 0 48 48" fill="none" xmlns="http://www.w3.org/2000/svg">
<path fill-rule="evenodd" clip-rule="evenodd" d="M17.957 37.6014C17.9854 37.4482 18 37.282 18 37.1024V37V16C18 16 26.0526 14.4651 28 14C28.9023 13.7845 30 13.0358 30 11.8634V8.34635C30 6.76451 28.5277 5.63654 27.0789 6.10837L15.5789 9.62544C14.6396 9.93133 14 10.8379 14 11.8634V32.2845C13.3744 32.1003 12.7013 32 12 32C8.68629 32 6 34.2386 6 37C6 39.7614 8.68629 42 12 42C15.0695 42 17.6006 40.0793 17.957 37.6014Z" fill="black"/>
<path opacity="0.3" fill-rule="evenodd" clip-rule="evenodd" d="M32 35C32 35.5523 32.4477 36 33 36H35C35.5523 36 36 35.5523 36 35V30H41C41.5523 30 42 29.5523 42 29V27C42 26.4477 41.5523 26 41 26H36V21C36 20.4477 35.5523 20 35 20H33C32.4477 20 32 20.4477 32 21V26H27C26.4477 26 26 26.4477 26 27V29C26 29.5523 26.4477 30 27 30H32V35Z" fill="black"/>
</svg>
