<svg width="48" height="48" viewBox="0 0 48 48" fill="none" xmlns="http://www.w3.org/2000/svg">
<path opacity="0.3" fill-rule="evenodd" clip-rule="evenodd" d="M16 42H32L24 32L16 42Z" fill="black"/>
<path fill-rule="evenodd" clip-rule="evenodd" d="M43.357 21.8088L46.5809 19.441C41.3386 12.3035 33.0266 8 24 8C14.8486 8 6.43545 12.4241 1.21178 19.727L4.46518 22.0541C8.94565 15.7902 16.1534 12 24 12C31.7397 12 38.8606 15.6868 43.357 21.8088ZM40.9363 23.9578L37.8583 26.5124C34.4573 22.4146 29.428 20 24 20C18.5795 20 13.5564 22.4079 10.1553 26.4959L7.08033 23.9377C11.2335 18.9456 17.3784 16 24 16C30.6307 16 36.7832 18.9539 40.9363 23.9578ZM34.8059 29.0982L31.7198 31.643C29.8298 29.351 27.0275 28 24 28C20.9824 28 18.1883 29.3421 16.2982 31.6212L13.2192 29.0678C15.8615 25.8818 19.7792 24 24 24C28.2347 24 32.1639 25.8943 34.8059 29.0982Z" fill="black"/>
</svg>
