<svg width="48" height="48" viewBox="0 0 48 48" fill="none" xmlns="http://www.w3.org/2000/svg">
<path d="M14 30C15.1046 30 16 30.8954 16 32C16 33.1046 15.1046 34 14 34H12C8.68629 34 6 31.3137 6 28V14C6 10.6863 8.68629 8 12 8H36C39.3137 8 42 10.6863 42 14V28C42 31.3137 39.3137 34 36 34H34C32.8954 34 32 33.1046 32 32C32 30.8954 32.8954 30 34 30H36C37.1046 30 38 29.1046 38 28V14C38 12.8954 37.1046 12 36 12H12C10.8954 12 10 12.8954 10 14V28C10 29.1046 10.8954 30 12 30H14Z" fill="black"/>
<path opacity="0.3" fill-rule="evenodd" clip-rule="evenodd" d="M16 40H32L24 30L16 40Z" fill="black"/>
</svg>
