<svg width="48" height="48" viewBox="0 0 48 48" fill="none" xmlns="http://www.w3.org/2000/svg">
<path opacity="0.3" fill-rule="evenodd" clip-rule="evenodd" d="M4 42.5C4 43.3284 4.67157 44 5.5 44H42.5C43.3284 44 44 43.3284 44 42.5V17.5C44 16.6716 43.3284 16 42.5 16H20L14.4393 10.4393C14.158 10.158 13.7765 10 13.3787 10H5.5C4.67157 10 4 10.6716 4 11.5V42.5Z" fill="black"/>
<path fill-rule="evenodd" clip-rule="evenodd" d="M21.6667 40C19.6416 40 18 38.632 18 36.9444C18 35.2569 19.6416 33.8889 21.6667 33.8889C22.0952 33.8889 22.5066 33.9502 22.8889 34.0628V25.5832C22.8889 24.9565 23.2797 24.4025 23.8538 24.2155L30.8815 22.0662C31.7669 21.7779 32.6667 22.4672 32.6667 23.4339V25.5832C32.6667 26.2996 31.9959 26.7572 31.4444 26.8889C30.6511 27.0784 28.614 27.4858 25.3333 28.1111V37.007C25.3333 37.1168 25.3244 37.2184 25.3071 37.312C25.0892 38.8262 23.5424 40 21.6667 40Z" fill="black"/>
</svg>
