<svg width="48" height="48" viewBox="0 0 48 48" fill="none" xmlns="http://www.w3.org/2000/svg">
<path opacity="0.3" fill-rule="evenodd" clip-rule="evenodd" d="M8 8C8 6.89543 8.89543 6 10 6H38C39.1046 6 40 6.89543 40 8V40C40 41.1046 39.1046 42 38 42H10C8.89543 42 8 41.1046 8 40V8ZM10 10.5C10 10.2239 10.2239 10 10.5 10H13.5C13.7761 10 14 10.2239 14 10.5V13.5C14 13.7761 13.7761 14 13.5 14H10.5C10.2239 14 10 13.7761 10 13.5V10.5ZM34.5 10C34.2239 10 34 10.2239 34 10.5V13.5C34 13.7761 34.2239 14 34.5 14H37.5C37.7761 14 38 13.7761 38 13.5V10.5C38 10.2239 37.7761 10 37.5 10H34.5ZM10 18.5C10 18.2239 10.2239 18 10.5 18H13.5C13.7761 18 14 18.2239 14 18.5V21.5C14 21.7761 13.7761 22 13.5 22H10.5C10.2239 22 10 21.7761 10 21.5V18.5ZM34.5 18C34.2239 18 34 18.2239 34 18.5V21.5C34 21.7761 34.2239 22 34.5 22H37.5C37.7761 22 38 21.7761 38 21.5V18.5C38 18.2239 37.7761 18 37.5 18H34.5ZM10 26.5C10 26.2239 10.2239 26 10.5 26H13.5C13.7761 26 14 26.2239 14 26.5V29.5C14 29.7761 13.7761 30 13.5 30H10.5C10.2239 30 10 29.7761 10 29.5V26.5ZM34.5 26C34.2239 26 34 26.2239 34 26.5V29.5C34 29.7761 34.2239 30 34.5 30H37.5C37.7761 30 38 29.7761 38 29.5V26.5C38 26.2239 37.7761 26 37.5 26H34.5ZM34 34.5C34 34.2239 34.2239 34 34.5 34H37.5C37.7761 34 38 34.2239 38 34.5V37.5C38 37.7761 37.7761 38 37.5 38H34.5C34.2239 38 34 37.7761 34 37.5V34.5ZM10.5 34C10.2239 34 10 34.2239 10 34.5V37.5C10 37.7761 10.2239 38 10.5 38H13.5C13.7761 38 14 37.7761 14 37.5V34.5C14 34.2239 13.7761 34 13.5 34H10.5Z" fill="black"/>
<path fill-rule="evenodd" clip-rule="evenodd" d="M21.14 29.2664C21.14 29.6684 21.5903 29.906 21.9222 29.6792L28.5157 25.1721C28.8056 24.9739 28.8062 24.5464 28.5169 24.3474L21.9234 19.812C21.5916 19.5838 21.14 19.8213 21.14 20.2239V29.2664Z" fill="black"/>
</svg>
