<svg width="48" height="48" viewBox="0 0 48 48" fill="none" xmlns="http://www.w3.org/2000/svg">
<path fill-rule="evenodd" clip-rule="evenodd" d="M23.957 37.6014C23.9854 37.4482 24 37.282 24 37.1024V37V16C24 16 32.0526 14.4651 34 14C34.9023 13.7845 36 13.0358 36 11.8634V8.34635C36 6.76451 34.5277 5.63654 33.0789 6.10837L21.5789 9.62544C20.6396 9.93133 20 10.8379 20 11.8634V32.2845C19.3744 32.1003 18.7013 32 18 32C14.6863 32 12 34.2386 12 37C12 39.7614 14.6863 42 18 42C21.0695 42 23.6006 40.0793 23.957 37.6014Z" fill="black"/>
</svg>
