<svg width="50" height="48" viewBox="0 0 50 48" fill="none" xmlns="http://www.w3.org/2000/svg">
<path opacity="0.3" fill-rule="evenodd" clip-rule="evenodd" d="M41.5355 30.3639C41.9261 30.7545 42.5592 30.7545 42.9498 30.3639L44.364 28.9497C44.7545 28.5592 44.7545 27.926 44.364 27.5355L40.8284 24L44.364 20.4645C44.7545 20.074 44.7545 19.4408 44.364 19.0503L42.9497 17.6361C42.5592 17.2455 41.9261 17.2455 41.5355 17.636L38 21.1716L34.4645 17.636C34.0739 17.2455 33.4408 17.2455 33.0503 17.636L31.636 19.0502C31.2455 19.4408 31.2455 20.0739 31.636 20.4644L35.1716 24L31.636 27.5355C31.2455 27.9261 31.2455 28.5592 31.636 28.9498L33.0503 30.364C33.4408 30.7545 34.0739 30.7545 34.4645 30.364L38 26.8284L41.5355 30.3639Z" fill="black"/>
<path fill-rule="evenodd" clip-rule="evenodd" d="M24 8.41424C24 7.52333 22.9229 7.07716 22.2929 7.70713L14 16H6C4.89543 16 4 16.8955 4 18V30C4 31.1046 4.89543 32 6 32H14L22.2929 40.2929C22.9229 40.9229 24 40.4767 24 39.5858V8.41424Z" fill="black"/>
</svg>
