<svg width="48" height="48" viewBox="0 0 48 48" fill="none" xmlns="http://www.w3.org/2000/svg">
<path fill-rule="evenodd" clip-rule="evenodd" d="M24.798 19.3604C24.4681 19.6053 24 19.3698 24 18.9589V16H16C11.5817 16 8 19.5817 8 24V26C8 29.3137 10.6863 32 14 32V36C8.47715 36 4 31.5229 4 26V24C4 17.3726 9.37258 12 16 12H24V8.45849C24 8.04692 24.4695 7.8116 24.7992 8.05789L31.8505 13.3246C32.1187 13.525 32.1181 13.9272 31.8493 14.1267L24.798 19.3604Z" fill="black"/>
<path opacity="0.3" fill-rule="evenodd" clip-rule="evenodd" d="M34 12V16C37.3137 16 40 18.6863 40 22V24C40 28.4183 36.4183 32 32 32H24.1166V28.4585C24.1166 28.0469 23.6471 27.8116 23.3174 28.0579L16.2661 33.3246C15.9979 33.5249 15.9985 33.9271 16.2673 34.1267L23.3186 39.3604C23.6485 39.6053 24.1166 39.3698 24.1166 38.9589V36H32C38.6274 36 44 30.6274 44 24V22C44 16.4772 39.5228 12 34 12Z" fill="black"/>
</svg>
