<svg width="48" height="48" viewBox="0 0 48 48" fill="none" xmlns="http://www.w3.org/2000/svg">
<path opacity="0.3" fill-rule="evenodd" clip-rule="evenodd" d="M36 31C36 31.5523 36.4477 32 37 32H39C39.5523 32 40 31.5523 40 31V26H45C45.5523 26 46 25.5523 46 25V23C46 22.4477 45.5523 22 45 22H40V17C40 16.4477 39.5523 16 39 16H37C36.4477 16 36 16.4477 36 17V22H31C30.4477 22 30 22.4477 30 23V25C30 25.5523 30.4477 26 31 26H36V31Z" fill="black"/>
<path fill-rule="evenodd" clip-rule="evenodd" d="M24 8.41424C24 7.52333 22.9229 7.07716 22.2929 7.70713L14 16H6C4.89543 16 4 16.8955 4 18V30C4 31.1046 4.89543 32 6 32H14L22.2929 40.2929C22.9229 40.9229 24 40.4767 24 39.5858V8.41424Z" fill="black"/>
</svg>
