<svg width="48" height="48" viewBox="0 0 48 48" fill="none" xmlns="http://www.w3.org/2000/svg">
<path opacity="0.3" fill-rule="evenodd" clip-rule="evenodd" d="M13.5 8C11.567 8 10 9.567 10 11.5V18.5C10 20.433 11.567 22 13.5 22H14V40C14 41.1046 14.8954 42 16 42H40C41.1046 42 42 41.1046 42 40V22H42.5C44.433 22 46 20.433 46 18.5V11.5C46 9.567 44.433 8 42.5 8H13.5Z" fill="black"/>
<path fill-rule="evenodd" clip-rule="evenodd" d="M5.5 8C3.567 8 2 9.567 2 11.5V18.5C2 20.433 3.567 22 5.5 22H6V40C6 41.1046 6.89543 42 8 42H32C33.1046 42 34 41.1046 34 40V22H34.5C36.433 22 38 20.433 38 18.5V11.5C38 9.567 36.433 8 34.5 8H5.5Z" fill="black"/>
</svg>
