<svg width="48" height="48" viewBox="0 0 48 48" fill="none" xmlns="http://www.w3.org/2000/svg">
<rect opacity="0.3" x="14" y="2" width="20" height="6" rx="1" fill="black"/>
<path fill-rule="evenodd" clip-rule="evenodd" d="M13.7263 12C10.9649 12 8.72632 14.2386 8.72632 17V42C8.72632 43.1046 9.62175 44 10.7263 44H37.2734C38.378 44 39.2734 43.1046 39.2734 42V17C39.2734 14.2386 37.0349 12 34.2734 12H13.7263ZM16 18C14.8955 18 14 18.8954 14 20V26C14 27.1046 14.8955 28 16 28H32C33.1046 28 34 27.1046 34 26V20C34 18.8954 33.1046 18 32 18H16Z" fill="black"/>
</svg>
