<svg width="48" height="48" viewBox="0 0 48 48" fill="none" xmlns="http://www.w3.org/2000/svg">
<path fill-rule="evenodd" clip-rule="evenodd" d="M26.0001 22H34.0001C38.1518 22 41.5648 25.1626 41.9616 29.2101L40.5858 30.5858C38.2656 32.906 36.0777 34 34.0001 34C33.0441 34 32.3762 33.7036 31.1298 32.804C31.0088 32.7167 30.8505 32.601 30.5514 32.3825C28.2724 30.7251 26.6108 30 24.0001 30C21.4356 30 19.7579 30.6746 17.1602 32.3064C16.8547 32.4987 16.7016 32.595 16.5628 32.6814C14.9984 33.6554 14.1307 34 13.0001 34C11.6545 34 10.363 33.4343 9.17084 32.4547C8.42257 31.8399 7.8945 31.2271 7.65079 30.8708C7.17052 30.2648 6.99549 30.0439 6.07593 28.8937C6.61468 24.999 9.95714 22 14.0001 22H22.0001V18H26.0001V22Z" fill="black"/>
<path opacity="0.3" fill-rule="evenodd" clip-rule="evenodd" d="M24 14C26.2091 14 28 12.2091 28 10C28 7.79086 24 4 24 4C24 4 20 7.79086 20 10C20 12.2091 21.7909 14 24 14Z" fill="black"/>
<path opacity="0.3" fill-rule="evenodd" clip-rule="evenodd" d="M42 34.7141V42C42 43.1046 41.1046 44 40 44H8C6.89543 44 6 43.1046 6 42V34.9953C6.19629 35.1765 6.40705 35.3609 6.63137 35.5453C8.48178 37.0657 10.6148 38 13 38C15.0522 38 16.5326 37.4121 18.6768 36.0772C18.8249 35.985 18.9875 35.8826 19.2877 35.6936C21.3023 34.4282 22.3671 34 24 34C25.5976 34 26.5401 34.4113 28.1987 35.6175C28.4863 35.8276 28.6565 35.9519 28.7886 36.0473C30.6546 37.3942 32.0199 38 34 38C36.7498 38 39.4209 36.8781 42 34.7141Z" fill="black"/>
</svg>
