<svg width="48" height="48" viewBox="0 0 48 48" fill="none" xmlns="http://www.w3.org/2000/svg">
<path opacity="0.3" fill-rule="evenodd" clip-rule="evenodd" d="M25.773 22.9562C25.773 22.9562 20.9686 5.44903 31.7106 0.796714C38.325 10.0997 25.773 22.9562 25.773 22.9562Z" fill="black"/>
<path opacity="0.3" fill-rule="evenodd" clip-rule="evenodd" d="M46.1192 15.3379C46.1192 15.3379 28.6121 10.5335 23.9598 21.2755C33.2627 27.89 46.1192 15.3379 46.1192 15.3379Z" fill="black"/>
<path opacity="0.3" fill-rule="evenodd" clip-rule="evenodd" d="M40.0104 6.9896C40.0104 6.9896 22.4465 11.5824 23.7885 23.2115C35.1524 24.2883 40.0104 6.9896 40.0104 6.9896Z" fill="black"/>
<path fill-rule="evenodd" clip-rule="evenodd" d="M5.15687 35.027L5.73653 35.6066C6.51758 36.3877 7.78391 36.3877 8.56496 35.6066C9.34601 34.8256 9.34601 33.5593 8.56496 32.7782L7.18264 31.3959L9.2084 27.7648L11.3934 29.9498C12.1744 30.7308 13.4408 30.7308 14.2218 29.9498C15.0029 29.1687 15.0029 27.9024 14.2218 27.1214L11.3934 24.2929C11.3404 24.2399 11.2852 24.1905 11.228 24.1447L13.2599 20.5026L17.0502 24.2929C17.8313 25.074 19.0976 25.074 19.8787 24.2929C20.6597 23.5119 20.6597 22.2456 19.8787 21.4645L15.636 17.2219C15.5193 17.1051 15.3917 17.0058 15.2564 16.9239L15.7455 16.0473C16.8218 14.1181 19.2583 13.4266 21.1875 14.5029C21.51 14.6828 21.806 14.9065 22.0671 15.1677L31.8325 24.933C33.3946 26.4951 33.3946 29.0278 31.8325 30.5899C31.5714 30.851 31.2754 31.0747 30.9529 31.2546L6.93749 44.6526C5.62009 45.3876 3.97488 45.1587 2.90817 44.092C1.84146 43.0253 1.61253 41.3801 2.34751 40.0627L5.15687 35.027Z" fill="black"/>
</svg>
