<svg width="48" height="48" viewBox="0 0 48 48" fill="none" xmlns="http://www.w3.org/2000/svg">
<path fill-rule="evenodd" clip-rule="evenodd" d="M44 14H4V40C4 41.1046 4.89543 42 6 42H10H20C20 39.7909 21.7909 38 24 38C26.2091 38 28 39.7909 28 42H42C43.1046 42 44 41.1046 44 40V27.8293C43.6872 27.9398 43.3506 28 43 28C41.3431 28 40 26.6569 40 25C40 23.3431 41.3431 22 43 22C43.3506 22 43.6872 22.0602 44 22.1707V14ZM10 42C8.89543 42 8 41.1046 8 40C8 38.8954 8.89543 38 10 38C11.1046 38 12 38.8954 12 40C12 41.1046 11.1046 42 10 42ZM26 26C26 30.4183 22.4183 34 18 34C13.5817 34 10 30.4183 10 26C10 21.5817 13.5817 18 18 18C22.4183 18 26 21.5817 26 26ZM36 36C37.1046 36 38 35.1046 38 34C38 32.8954 37.1046 32 36 32C34.8954 32 34 32.8954 34 34C34 35.1046 34.8954 36 36 36Z" fill="black"/>
<path opacity="0.3" fill-rule="evenodd" clip-rule="evenodd" d="M43.2276 13.2277C42.4326 12.4328 41.3927 11.9287 40.2761 11.7973L8.60884 8.07175C8.23525 8.0278 7.86861 8.19721 7.65995 8.5102L4 14.0001H44C44 14.0001 43.6413 13.6414 43.2276 13.2277Z" fill="black"/>
</svg>
