<svg width="50" height="49" viewBox="0 0 50 49" fill="none" xmlns="http://www.w3.org/2000/svg">
<path d="M22.7271 9.73573C27.5694 4.89346 35.4203 4.89346 40.2625 9.73574C45.1048 14.578 45.1048 22.4289 40.2626 27.2712L27.4803 40.0534C26.8853 40.6485 25.9204 40.6485 25.3254 40.0534L9.94491 24.6729C9.34983 24.0778 9.34983 23.113 9.94491 22.5179L22.7271 9.73573Z" fill="black"/>
<path opacity="0.3" fill-rule="evenodd" clip-rule="evenodd" d="M12.6864 33.0712L16.929 37.3139L13.9799 40.263C14.5126 41.3781 14.3171 42.7541 13.3935 43.6777C12.2219 44.8493 10.3224 44.8493 9.15083 43.6777C8.60752 43.1344 8.31617 42.4346 8.27677 41.7234C7.56557 41.684 6.86573 41.3926 6.32243 40.8493C5.15085 39.6778 5.15085 37.7783 6.32243 36.6067C7.24608 35.683 8.62218 35.4876 9.73732 36.0203L12.6864 33.0712Z" fill="black"/>
</svg>
