<svg width="48" height="48" viewBox="0 0 48 48" fill="none" xmlns="http://www.w3.org/2000/svg">
<path fill-rule="evenodd" clip-rule="evenodd" d="M42 16H12V20H10C6.68629 20 4 23.6863 4 27C4 30.3137 6.68629 34 10 34H16.8019C19.4781 36.4823 23.0618 38 27 38C35.2843 38 42 31.2843 42 23V16ZM13.7301 30C12.7723 28.188 12.1747 26.1562 12.0328 24H10C8.89543 24 8 25.8954 8 27C8 28.1046 8.89543 30 10 30H13.7301Z" fill="black"/>
<rect opacity="0.3" x="12" y="42" width="30" height="4" rx="1" fill="black"/>
<path opacity="0.3" d="M16.2315 0L18.5465 2.30534C16.8355 4.02336 16.8413 6.80306 18.5593 8.51397C18.7064 8.66048 18.8638 8.79637 19.0301 8.92061L20 9.645L18.045 12.2625L17.0751 11.5381C16.785 11.3214 16.5106 11.0844 16.254 10.8289C13.2575 7.84478 13.2474 2.99652 16.2315 0Z" fill="black"/>
<path opacity="0.3" d="M26.2315 2L28.5465 4.30534C26.8355 6.02336 26.8413 8.80306 28.5593 10.514C28.7064 10.6605 28.8638 10.7964 29.0301 10.9206L30 11.645L28.045 14.2625L27.0751 13.5381C26.785 13.3214 26.5106 13.0844 26.254 12.8289C23.2575 9.84478 23.2474 4.99652 26.2315 2Z" fill="black"/>
<path opacity="0.3" d="M36.2315 0L38.5465 2.30534C36.8355 4.02336 36.8413 6.80306 38.5593 8.51397C38.7064 8.66048 38.8638 8.79637 39.0301 8.92061L40 9.645L38.045 12.2625L37.0751 11.5381C36.785 11.3214 36.5106 11.0844 36.254 10.8289C33.2575 7.84478 33.2474 2.99652 36.2315 0Z" fill="black"/>
</svg>
