<svg width="48" height="48" viewBox="0 0 48 48" fill="none" xmlns="http://www.w3.org/2000/svg">
<path opacity="0.3" fill-rule="evenodd" clip-rule="evenodd" d="M28 12C28 14.2091 26.2091 16 24 16C21.7909 16 20 14.2091 20 12C20 9.79086 21.7909 8 24 8C26.2091 8 28 9.79086 28 12ZM5 36C4.44772 36 4 36.4477 4 37V39C4 39.5523 4.44771 40 5 40H43C43.5523 40 44 39.5523 44 39V37C44 36.4477 43.5523 36 43 36H5Z" fill="black"/>
<path fill-rule="evenodd" clip-rule="evenodd" d="M42 32C42 22.0589 33.9411 14 24 14C14.0589 14 6 22.0589 6 32H42Z" fill="black"/>
</svg>
