<svg width="48" height="48" viewBox="0 0 48 48" fill="none" xmlns="http://www.w3.org/2000/svg">
<path fill-rule="evenodd" clip-rule="evenodd" d="M4 30V40C4 43.3137 8.47715 46 14 46C17.9582 46 21.3793 44.6202 23 42.6185C24.6207 44.6202 28.0418 46 32 46C37.5228 46 42 43.3137 42 40V30C42 26.6863 37.5228 24 32 24C28.0418 24 24.6207 25.3798 23 27.3815C21.3793 25.3798 17.9582 24 14 24C8.47715 24 4 26.6863 4 30ZM32 34C36.562 34 40 31.9372 40 30C40 28.0628 36.562 26 32 26C27.438 26 24 28.0628 24 30C24 31.9372 27.438 34 32 34ZM22 30C22 28.0628 18.562 26 14 26C9.438 26 6 28.0628 6 30C6 31.9372 9.438 34 14 34C18.562 34 22 31.9372 22 30Z" fill="black"/>
<path opacity="0.3" fill-rule="evenodd" clip-rule="evenodd" d="M39.3216 4.04215C39.6719 5.05941 39.1312 6.16803 38.1139 6.5183C38.0978 6.52386 38.0816 6.52921 38.0653 6.53435L4.67127 17.0587C4.14051 17.2259 3.57312 16.9399 3.39194 16.4137C3.21077 15.8876 3.48178 15.3128 4.003 15.1179L36.7973 2.85177C37.805 2.47485 38.9274 2.98621 39.3043 3.99391C39.3103 4.00991 39.3161 4.02599 39.3216 4.04215ZM41.9429 13.1033C42.1298 14.1629 41.4223 15.1732 40.3628 15.3601C40.3459 15.363 40.3291 15.3658 40.3122 15.3683L5.68293 20.5391C5.13254 20.6213 4.61688 20.25 4.52024 19.7019C4.42361 19.1539 4.78119 18.6287 5.32649 18.5176L39.6358 11.5327C40.6901 11.3181 41.7187 11.9987 41.9334 13.053C41.9368 13.0697 41.94 13.0865 41.9429 13.1033ZM32 32C33.6569 32 35 31.1046 35 30C35 28.8954 33.6569 28 32 28C30.3432 28 29 28.8954 29 30C29 31.1046 30.3432 32 32 32ZM17 30C17 31.1046 15.6569 32 14 32C12.3432 32 11 31.1046 11 30C11 28.8954 12.3432 28 14 28C15.6569 28 17 28.8954 17 30Z" fill="black"/>
</svg>
