<svg width="48" height="48" viewBox="0 0 48 48" fill="none" xmlns="http://www.w3.org/2000/svg">
<path opacity="0.3" fill-rule="evenodd" clip-rule="evenodd" d="M26 31H22V42H20C17.7909 42 16 43.7909 16 46H32C32 43.7909 30.2091 42 28 42H26V31Z" fill="black"/>
<path fill-rule="evenodd" clip-rule="evenodd" d="M31.428 4H16.5719C14.1059 4 12.0556 5.8568 11.8665 8.2614L10.9169 20.3342C10.8914 20.6581 10.8787 20.9828 10.8787 21.3077C10.8787 28.3175 16.6892 34 23.8568 34H24.1431C24.4753 34 24.8073 33.9875 25.1385 33.9626C32.285 33.425 37.6328 27.3234 37.083 20.3342L36.1334 8.2614C35.9443 5.8568 33.894 4 31.428 4ZM15 16L16 8H32C32 8 32.8127 13.6184 33 16H15Z" fill="black"/>
</svg>
