<svg width="48" height="48" viewBox="0 0 48 48" fill="none" xmlns="http://www.w3.org/2000/svg">
<path fill-rule="evenodd" clip-rule="evenodd" d="M30.2734 40.7233L32.7 44.9262C32.9761 45.4045 33.5877 45.5684 34.066 45.2922L35.7981 44.2922C36.2764 44.0161 36.4402 43.4045 36.1641 42.9262L33.7269 38.7048C33.7201 38.71 33.7133 38.7153 33.7065 38.7205C32.7456 39.4548 31.6992 40.0827 30.5846 40.5866C30.4815 40.6332 30.3777 40.6788 30.2734 40.7233ZM14.2864 38.715C15.3425 39.523 16.5021 40.2024 17.742 40.7298L15.2842 44.9869C15.008 45.4652 14.3964 45.629 13.9181 45.3529L12.1861 44.3529C11.7078 44.0768 11.5439 43.4652 11.8201 42.9869L14.2864 38.715Z" fill="black"/>
<path opacity="0.3" fill-rule="evenodd" clip-rule="evenodd" d="M11.6579 4.7035C12.2436 4.11771 13.1934 4.11771 13.7792 4.7035L15.9005 6.82482C16.4863 7.41061 16.4863 8.36035 15.9005 8.94614L9.53653 15.3101C8.95075 15.8959 8.001 15.8959 7.41521 15.3101L5.29389 13.1888C4.70811 12.603 4.70811 11.6532 5.29389 11.0675L11.6579 4.7035ZM34.9556 5.44745C35.5414 4.86166 36.4912 4.86166 37.077 5.44745L42.6969 11.0674C43.2827 11.6532 43.2827 12.6029 42.6969 13.1887L40.5756 15.3101C39.9898 15.8958 39.0401 15.8958 38.4543 15.3101L32.8343 9.69009C32.2485 9.1043 32.2485 8.15455 32.8343 7.56877L34.9556 5.44745ZM24 42C15.1634 42 7.99997 34.8365 7.99997 26C7.99997 17.1634 15.1634 9.99995 24 9.99995C32.8365 9.99995 40 17.1634 40 26C40 34.8365 32.8365 42 24 42Z" fill="black"/>
<path fill-rule="evenodd" clip-rule="evenodd" d="M22.9644 15.4617C22.9845 15.2012 23.2017 15 23.463 15H24.5475C24.8043 15 25.0194 15.1946 25.045 15.4502L26 25L32.748 28.856C32.9038 28.9451 33 29.1107 33 29.2902V30.3454C33 30.6751 32.6865 30.9145 32.3684 30.8278L22.3986 28.1087C22.1672 28.0456 22.0133 27.8271 22.0316 27.588L22.9644 15.4617Z" fill="black"/>
</svg>
