<svg width="48" height="48" viewBox="0 0 48 48" fill="none" xmlns="http://www.w3.org/2000/svg">
<path opacity="0.3" fill-rule="evenodd" clip-rule="evenodd" d="M40 16H36.3478C34.1387 16 32.3478 17.7909 32.3478 20V24C32.3478 25.1046 31.4524 26 30.3478 26H17.7391C16.6346 26 15.7391 25.1046 15.7391 24V20C15.7391 17.7909 13.9483 16 11.7391 16H8V12C8 8.68629 10.6863 6 14 6H34C37.3137 6 40 8.68629 40 12V16Z" fill="black"/>
<path opacity="0.3" fill-rule="evenodd" clip-rule="evenodd" d="M36.1641 42.9265C36.4402 43.4048 36.2763 44.0164 35.798 44.2926L34.066 45.2926C33.5877 45.5687 32.9761 45.4048 32.7 44.9265L27.7 36.2663C27.4238 35.788 27.5877 35.1764 28.066 34.9003L29.798 33.9003C30.2763 33.6241 30.8879 33.788 31.1641 34.2663L36.1641 42.9265ZM11.82 42.9872C11.5439 43.4655 11.7078 44.0771 12.186 44.3532L13.9181 45.3532C14.3964 45.6294 15.008 45.4655 15.2841 44.9872L20.2841 36.327C20.5603 35.8487 20.3964 35.2371 19.9181 34.9609L18.186 33.9609C17.7078 33.6848 17.0962 33.8487 16.82 34.327L11.82 42.9872Z" fill="black"/>
<path fill-rule="evenodd" clip-rule="evenodd" d="M40 20V30C40 33.3137 37.3137 36 34 36H14C10.6863 36 8 33.3137 8 30V20H11.7391V24C11.7391 27.3137 14.4254 30 17.7391 30H30.3478C33.6615 30 36.3478 27.3137 36.3478 24V20H40Z" fill="black"/>
</svg>
