<svg width="48" height="48" viewBox="0 0 48 48" fill="none" xmlns="http://www.w3.org/2000/svg">
<path fill-rule="evenodd" clip-rule="evenodd" d="M38 4H14C10.5072 4 8 6.61167 8 10V38C8 41.3883 10.5072 44 14 44H38C39.2837 44 40 43.2538 40 42V40H15.6667C14.7462 40 14 39.2538 14 38.3333V37.6667C14 36.7462 14.7462 36 15.6667 36H40V6C40 4.74619 39.2837 4 38 4Z" fill="black"/>
<mask id="mask0" mask-type="alpha" maskUnits="userSpaceOnUse" x="8" y="4" width="32" height="40">
<path fill-rule="evenodd" clip-rule="evenodd" d="M38 4H14C10.5072 4 8 6.61167 8 10V38C8 41.3883 10.5072 44 14 44H38C39.2837 44 40 43.2538 40 42V40H15.6667C14.7462 40 14 39.2538 14 38.3333V37.6667C14 36.7462 14.7462 36 15.6667 36H40V6C40 4.74619 39.2837 4 38 4Z" fill="white"/>
</mask>
<g mask="url(#mask0)">
</g>
</svg>
