<svg width="48" height="48" viewBox="0 0 48 48" fill="none" xmlns="http://www.w3.org/2000/svg">
<path fill-rule="evenodd" clip-rule="evenodd" d="M26 37.2379C26 37.6013 26.3781 37.8364 26.7161 37.7028C28.725 36.9087 34.8406 34.7498 43.5349 34.0366C43.7956 34.0152 44 33.8124 44 33.5508C44 30.5596 44 13.5944 44 10.4884C44 10.2122 43.7817 10.0015 43.5057 10.0107C41.5319 10.076 33.9512 10.542 26.2985 13.8688C26.1173 13.9476 26 14.1221 26 14.3197C26 16.8386 26 33.4617 26 37.2379Z" fill="black"/>
<path opacity="0.3" fill-rule="evenodd" clip-rule="evenodd" d="M22 37.2379C22 37.6013 21.6219 37.8364 21.2839 37.7028C19.275 36.9087 13.1593 34.7498 4.46513 34.0366C4.20441 34.0152 3.99997 33.8124 3.99997 33.5508C3.99997 30.5596 3.99997 13.5944 3.99997 10.4884C3.99997 10.2122 4.21827 10.0015 4.49426 10.0107C6.46804 10.076 14.0488 10.542 21.7015 13.8688C21.8827 13.9476 22 14.1221 22 14.3197C22 16.8386 22 33.4617 22 37.2379Z" fill="black"/>
</svg>
