<svg width="48" height="48" viewBox="0 0 48 48" fill="none" xmlns="http://www.w3.org/2000/svg">
<path fill-rule="evenodd" clip-rule="evenodd" d="M10 6C10 4.89543 10.8954 4 12 4H36C37.1046 4 38 4.89543 38 6V42H27V35C27 34.4477 26.5523 34 26 34H22C21.4477 34 21 34.4477 21 35V42H10V6ZM16 9C16 8.44772 16.4477 8 17 8H21C21.5523 8 22 8.44772 22 9V13C22 13.5523 21.5523 14 21 14H17C16.4477 14 16 13.5523 16 13V9ZM27 8C26.4477 8 26 8.44772 26 9V13C26 13.5523 26.4477 14 27 14H31C31.5523 14 32 13.5523 32 13V9C32 8.44772 31.5523 8 31 8H27ZM16 17C16 16.4477 16.4477 16 17 16H21C21.5523 16 22 16.4477 22 17V21C22 21.5523 21.5523 22 21 22H17C16.4477 22 16 21.5523 16 21V17ZM17 24C16.4477 24 16 24.4477 16 25V29C16 29.5523 16.4477 30 17 30H21C21.5523 30 22 29.5523 22 29V25C22 24.4477 21.5523 24 21 24H17ZM26 25C26 24.4477 26.4477 24 27 24H31C31.5523 24 32 24.4477 32 25V29C32 29.5523 31.5523 30 31 30H27C26.4477 30 26 29.5523 26 29V25Z" fill="black"/>
<rect x="26" y="16" width="6" height="6" rx="1" fill="white"/>
<path opacity="0.3" d="M6 45.9761C6 43.7802 7.78018 42 9.97614 42H38.0239C40.2198 42 42 43.7802 42 45.9761C42 45.9893 41.9893 46 41.9761 46H6.02386C6.01068 46 6 45.9893 6 45.9761Z" fill="black"/>
</svg>
