<svg width="48" height="48" viewBox="0 0 48 48" fill="none" xmlns="http://www.w3.org/2000/svg">
<path opacity="0.3" d="M20 40H28V42C28 43.1046 27.1046 44 26 44H22C20.8954 44 20 43.1046 20 42V40Z" fill="black"/>
<path opacity="0.3" fill-rule="evenodd" clip-rule="evenodd" d="M21 18C20.4477 18 20 18.4477 20 19C20 19.5523 20.4477 20 21 20H22V37C22 37.5523 22.4477 38 23 38H25C25.5523 38 26 37.5523 26 37V20H27C27.5523 20 28 19.5523 28 19C28 18.4477 27.5523 18 27 18H25H23H21Z" fill="black"/>
<path fill-rule="evenodd" clip-rule="evenodd" d="M16 30C16 28.8954 16.8954 28 18 28H30C31.1046 28 32 28.8954 32 30C32 31.1046 31.1046 32 30 32C31.1046 32 32 32.8954 32 34C32 35.1046 31.1046 36 30 36C31.1046 36 32 36.8954 32 38C32 39.1046 31.1046 40 30 40H18C16.8954 40 16 39.1046 16 38C16 36.8954 16.8954 36 18 36C16.8954 36 16 35.1046 16 34C16 32.8954 16.8954 32 18 32C16.8954 32 16 31.1046 16 30Z" fill="black"/>
</svg>
