<svg width="48" height="48" viewBox="0 0 48 48" fill="none" xmlns="http://www.w3.org/2000/svg">
<path opacity="0.3" fill-rule="evenodd" clip-rule="evenodd" d="M24 34C32.8366 34 40 26.8366 40 18C40 9.16344 32.8366 2 24 2C15.1634 2 8 9.16344 8 18C8 26.8366 15.1634 34 24 34Z" fill="black"/>
<path opacity="0.3" fill-rule="evenodd" clip-rule="evenodd" d="M13.0764 18L21.136 38.7249L23.9519 37.6298L26.749 38.7349L34.9406 18H13.0764ZM18.9238 22H29.0595L23.9517 34.9291L18.9238 22Z" fill="black"/>
<path opacity="0.3" d="M20 44H28V46C28 47.1046 27.1046 48 26 48H22C20.8954 48 20 47.1046 20 46V44Z" fill="black"/>
<path fill-rule="evenodd" clip-rule="evenodd" d="M16 34C16 32.8954 16.8954 32 18 32H30C31.1046 32 32 32.8954 32 34C32 35.1046 31.1046 36 30 36C31.1046 36 32 36.8954 32 38C32 39.1046 31.1046 40 30 40C31.1046 40 32 40.8954 32 42C32 43.1046 31.1046 44 30 44H18C16.8954 44 16 43.1046 16 42C16 40.8954 16.8954 40 18 40C16.8954 40 16 39.1046 16 38C16 36.8954 16.8954 36 18 36C16.8954 36 16 35.1046 16 34Z" fill="black"/>
</svg>
