<svg width="48" height="48" viewBox="0 0 48 48" fill="none" xmlns="http://www.w3.org/2000/svg">
<path fill-rule="evenodd" clip-rule="evenodd" d="M15.8328 4C11.9668 4 8.83276 7.13401 8.83276 11V29C8.83276 32.866 11.9668 36 15.8328 36H32.1696C36.0355 36 39.1696 32.866 39.1696 29V11C39.1696 7.13401 36.0355 4 32.1696 4H15.8328ZM16.8999 24.8L15.0999 27.2C18.0126 29.3845 20.9872 30.5 23.9999 30.5C27.0126 30.5 29.9872 29.3845 32.8999 27.2L31.0999 24.8C28.6792 26.6155 26.3206 27.5 23.9999 27.5C21.6792 27.5 19.3206 26.6155 16.8999 24.8Z" fill="black"/>
<path opacity="0.3" fill-rule="evenodd" clip-rule="evenodd" d="M36.1641 42.9265C36.4402 43.4048 36.2764 44.0164 35.7981 44.2926L34.066 45.2926C33.5877 45.5687 32.9761 45.4048 32.7 44.9265L27.7 36.2663C27.4239 35.788 27.5877 35.1764 28.066 34.9003L29.7981 33.9003C30.2764 33.6241 30.888 33.788 31.1641 34.2663L36.1641 42.9265ZM11.8201 42.9872C11.5439 43.4655 11.7078 44.0771 12.1861 44.3532L13.9181 45.3532C14.3964 45.6294 15.008 45.4655 15.2842 44.9872L20.2842 36.327C20.5603 35.8487 20.3964 35.2371 19.9181 34.9609L18.1861 33.9609C17.7078 33.6848 17.0962 33.8487 16.8201 34.327L11.8201 42.9872Z" fill="black"/>
</svg>
