<svg width="48" height="48" viewBox="0 0 48 48" fill="none" xmlns="http://www.w3.org/2000/svg">
<path opacity="0.3" fill-rule="evenodd" clip-rule="evenodd" d="M24 44C14.0589 44 6 35.9411 6 26C6 16.0589 14.0589 8 24 8C33.9411 8 42 16.0589 42 26C42 35.9411 33.9411 44 24 44Z" fill="black"/>
<path fill-rule="evenodd" clip-rule="evenodd" d="M22.9644 15.4617C22.9845 15.2012 23.2017 15 23.463 15H24.5475C24.8043 15 25.0194 15.1946 25.045 15.4502L26 25L32.748 28.856C32.9038 28.9451 33 29.1107 33 29.2902V30.3454C33 30.6751 32.6865 30.9145 32.3684 30.8278L22.3986 28.1087C22.1672 28.0456 22.0133 27.8271 22.0316 27.588L22.9644 15.4617Z" fill="black"/>
</svg>
