<svg width="48" height="48" viewBox="0 0 48 48" fill="none" xmlns="http://www.w3.org/2000/svg">
<path opacity="0.3" fill-rule="evenodd" clip-rule="evenodd" d="M9.5 4C8.67157 4 8 4.67157 8 5.5V14.5C8 15.3284 8.67157 16 9.5 16H38.5C39.3284 16 40 15.3284 40 14.5V5.5C40 4.67157 39.3284 4 38.5 4H9.5ZM21.5 8C20.6716 8 20 8.67157 20 9.5V10.5C20 11.3284 20.6716 12 21.5 12H26.5C27.3284 12 28 11.3284 28 10.5V9.5C28 8.67157 27.3284 8 26.5 8H21.5Z" fill="black"/>
<path fill-rule="evenodd" clip-rule="evenodd" d="M9.5 18C8.67157 18 8 18.6716 8 19.5V28.5C8 29.3284 8.67157 30 9.5 30H38.5C39.3284 30 40 29.3284 40 28.5V19.5C40 18.6716 39.3284 18 38.5 18H9.5ZM21.5 22C20.6716 22 20 22.6716 20 23.5V24.5C20 25.3284 20.6716 26 21.5 26H26.5C27.3284 26 28 25.3284 28 24.5V23.5C28 22.6716 27.3284 22 26.5 22H21.5ZM8 33.5C8 32.6716 8.67157 32 9.5 32H38.5C39.3284 32 40 32.6716 40 33.5V42.5C40 43.3284 39.3284 44 38.5 44H9.5C8.67157 44 8 43.3284 8 42.5V33.5ZM21.5 36C20.6716 36 20 36.6716 20 37.5V38.5C20 39.3284 20.6716 40 21.5 40H26.5C27.3284 40 28 39.3284 28 38.5V37.5C28 36.6716 27.3284 36 26.5 36H21.5Z" fill="black"/>
</svg>
