<svg width="48" height="48" viewBox="0 0 48 48" fill="none" xmlns="http://www.w3.org/2000/svg">
<path opacity="0.3" d="M12 40H8C8 34.4772 12.4772 32 18 32H30C35.5228 32 40 34.4772 40 40H36C36 36.6863 33.3137 36 30 36H18C14.6863 36 12 36.6863 12 40Z" fill="black"/>
<path opacity="0.3" fill-rule="evenodd" clip-rule="evenodd" d="M46 16H42.3478C40.1387 16 38.3478 17.7909 38.3478 20V24C38.3478 25.1046 37.4524 26 36.3478 26H11.7391C10.6346 26 9.73913 25.1046 9.73913 24V20C9.73913 17.7909 7.94827 16 5.73913 16H2C2 12.6863 4.68629 10 8 10H40C43.3137 10 46 12.6863 46 16Z" fill="black"/>
<path fill-rule="evenodd" clip-rule="evenodd" d="M46 20V30C46 33.3137 43.3137 36 40 36H8C4.68629 36 2 33.3137 2 30V20H5.73913V24C5.73913 27.3137 8.42542 30 11.7391 30H36.3478C39.6615 30 42.3478 27.3137 42.3478 24V20L46 20Z" fill="black"/>
</svg>
