<svg width="48" height="48" viewBox="0 0 48 48" fill="none" xmlns="http://www.w3.org/2000/svg">
<path opacity="0.3" fill-rule="evenodd" clip-rule="evenodd" d="M5.5 6C4.67157 6 4 6.67157 4 7.5V38.5C4 39.3284 4.67157 40 5.5 40H20.5C21.3284 40 22 39.3284 22 38.5V7.5C22 6.67157 21.3284 6 20.5 6H5.5ZM17.5 18C16.6716 18 16 18.6716 16 19.5V24.5C16 25.3284 16.6716 26 17.5 26H18.5C19.3284 26 20 25.3284 20 24.5V19.5C20 18.6716 19.3284 18 18.5 18H17.5Z" fill="black"/>
<path fill-rule="evenodd" clip-rule="evenodd" d="M42.5 6C43.3284 6 44 6.67157 44 7.5V38.5C44 39.3284 43.3284 40 42.5 40H27.5C26.6716 40 26 39.3284 26 38.5V7.5C26 6.67157 26.6716 6 27.5 6H42.5ZM30.5 18C31.3284 18 32 18.6716 32 19.5V24.5C32 25.3284 31.3284 26 30.5 26H29.5C28.6716 26 28 25.3284 28 24.5V19.5C28 18.6716 28.6716 18 29.5 18H30.5Z" fill="black"/>
</svg>
