<svg width="48" height="48" viewBox="0 0 48 48" fill="none" xmlns="http://www.w3.org/2000/svg">
<path opacity="0.3" fill-rule="evenodd" clip-rule="evenodd" d="M8 8C6.89543 8 6 8.89543 6 10V38C6 39.1046 6.89543 40 8 40H14V19C14 16.2386 16.2386 14 19 14H29C31.7614 14 34 16.2386 34 19V40H40C41.1046 40 42 39.1046 42 38V10C42 8.89543 41.1046 8 40 8H8Z" fill="black"/>
<path fill-rule="evenodd" clip-rule="evenodd" d="M25.9435 23.4011C25.9435 23.4011 25.4576 28.2599 23.0282 28.6003C23.0282 28.6003 24.4859 22.9153 22.5424 20C22.5424 20 22.3363 23.1236 20.2539 26.872C19.2777 28.629 18.1695 29.8134 18.1695 32.1469C18.1695 35.4787 21.5817 37.2007 24.0055 37.2007C26.4294 37.2007 29.8305 36.0345 29.8305 31.953C29.8305 29.4356 25.9435 23.4011 25.9435 23.4011Z" fill="black"/>
</svg>
