<svg width="48" height="48" viewBox="0 0 48 48" fill="none" xmlns="http://www.w3.org/2000/svg">
<path opacity="0.3" fill-rule="evenodd" clip-rule="evenodd" d="M10.2667 4.07227C10.2667 4.07227 31.1014 15.7006 25.2667 30.053C10.3529 27.6798 10.2667 4.07227 10.2667 4.07227Z" fill="black"/>
<path opacity="0.3" fill-rule="evenodd" clip-rule="evenodd" d="M37.4833 4.07227C37.4833 4.07227 16.6486 15.7006 22.4833 30.053C37.3971 27.6798 37.4833 4.07227 37.4833 4.07227Z" fill="black"/>
<path opacity="0.3" fill-rule="evenodd" clip-rule="evenodd" d="M24 2C24 2 11.7708 22.4878 24 32C35.7292 22.4878 24 2 24 2Z" fill="black"/>
<path d="M11.236 27C11.236 26.4477 11.6837 26 12.236 26H35.763C36.3153 26 36.763 26.4477 36.763 27V44C36.763 45.1046 35.8676 46 34.763 46H13.236C12.1315 46 11.236 45.1046 11.236 44V27Z" fill="black"/>
</svg>
