<svg width="48" height="48" viewBox="0 0 48 48" fill="none" xmlns="http://www.w3.org/2000/svg">
<path opacity="0.3" fill-rule="evenodd" clip-rule="evenodd" d="M30 44C35.5228 44 40 39.5228 40 34C40 28.4772 35.5228 24 30 24C24.4772 24 20 28.4772 20 34C20 39.5228 24.4772 44 30 44Z" fill="black"/>
<path opacity="0.3" fill-rule="evenodd" clip-rule="evenodd" d="M18 44C23.5228 44 28 39.5228 28 34C28 28.4772 23.5228 24 18 24C12.4772 24 8 28.4772 8 34C8 39.5228 12.4772 44 18 44Z" fill="black"/>
<path opacity="0.3" fill-rule="evenodd" clip-rule="evenodd" d="M14 32C19.5228 32 24 27.5228 24 22C24 16.4772 19.5228 12 14 12C8.47715 12 4 16.4772 4 22C4 27.5228 8.47715 32 14 32Z" fill="black"/>
<path opacity="0.3" fill-rule="evenodd" clip-rule="evenodd" d="M34 32C39.5228 32 44 27.5228 44 22C44 16.4772 39.5228 12 34 12C28.4772 12 24 16.4772 24 22C24 27.5228 28.4772 32 34 32Z" fill="black"/>
<path opacity="0.3" fill-rule="evenodd" clip-rule="evenodd" d="M24 24C29.5228 24 34 19.5228 34 14C34 8.47715 29.5228 4 24 4C18.4772 4 14 8.47715 14 14C14 19.5228 18.4772 24 24 24Z" fill="black"/>
</svg>
