<svg width="48" height="48" viewBox="0 0 48 48" fill="none" xmlns="http://www.w3.org/2000/svg">
<path opacity="0.3" fill-rule="evenodd" clip-rule="evenodd" d="M24 4H25C25.5523 4 26 4.44772 26 5V6V13V22C26 23.1046 25.1046 24 24 24C22.8954 24 22 23.1046 22 22V13V6V5C22 4.44772 22.4477 4 23 4H24Z" fill="black"/>
<path opacity="0.3" fill-rule="evenodd" clip-rule="evenodd" d="M16.252 38C17.1401 41.4505 20.2723 44 24 44C27.7277 44 30.8599 41.4505 31.7479 38H16.252Z" fill="black"/>
<path d="M6 34C6 24.0589 14.0589 16 24 16C33.9411 16 42 24.0589 42 34H6Z" fill="black"/>
</svg>
