<svg width="48" height="48" viewBox="0 0 48 48" fill="none" xmlns="http://www.w3.org/2000/svg">
<path fill-rule="evenodd" clip-rule="evenodd" d="M7.8915 16.2114C6.79522 16.3465 6.01604 17.3447 6.15115 18.441C7.17376 26.7386 13.7969 33.1853 22 34.0967V36.0002H18C16.8954 36.0002 16 36.8957 16 38.0002V40.0002H23H25H32V38.0002C32 36.8957 31.1046 36.0002 30 36.0002H26V34.0971C34.2943 33.1774 40.9649 26.6004 41.8815 18.189C42.0011 17.0909 41.208 16.1038 40.1099 15.9841C39.0118 15.8645 38.0247 16.6576 37.905 17.7557C37.1364 24.8088 31.1553 30.2073 24.0017 30.2073C16.921 30.2073 10.9794 24.9158 10.1211 17.9517C9.98601 16.8555 8.98777 16.0763 7.8915 16.2114Z" fill="black"/>
<path opacity="0.3" fill-rule="evenodd" clip-rule="evenodd" d="M36 16C36 22.6274 30.6274 28 24 28C17.3726 28 12 22.6274 12 16C12 9.37258 17.3726 4 24 4C30.6274 4 36 9.37258 36 16ZM16.2311 14.3838C16.9542 14.3332 17.5814 14.8784 17.632 15.6016C17.8066 18.099 18.912 19.9708 21.0148 21.3295C21.6236 21.7229 21.7982 22.5354 21.4048 23.1442C21.0114 23.7531 20.1989 23.9277 19.5901 23.5343C16.7934 21.7271 15.2456 19.1063 15.0133 15.7847C14.9628 15.0616 15.508 14.4344 16.2311 14.3838Z" fill="black"/>
</svg>
