<svg width="48" height="48" viewBox="0 0 48 48" fill="none" xmlns="http://www.w3.org/2000/svg">
<path opacity="0.3" fill-rule="evenodd" clip-rule="evenodd" d="M24 42C15.1634 42 8 34.8366 8 26C8 17.1634 15.1634 10 24 10C32.8366 10 40 17.1634 40 26C40 34.8366 32.8366 42 24 42Z" fill="black"/>
<path fill-rule="evenodd" clip-rule="evenodd" d="M26 10.1238V8H28C29.1046 8 30 7.10457 30 6C30 4.89543 29.1046 4 28 4H20C18.8954 4 18 4.89543 18 6C18 7.10457 18.8954 8 20 8H22V10.1238C22.6552 10.0421 23.3227 10 24 10C24.6773 10 25.3448 10.0421 26 10.1238Z" fill="black"/>
<path fill-rule="evenodd" clip-rule="evenodd" d="M36.3342 15.808L38.6066 13.5356C38.9971 13.1451 38.9971 12.5119 38.6066 12.1214L37.1924 10.7072C36.8018 10.3167 36.1687 10.3167 35.7782 10.7072L33.4198 13.0656C34.5021 13.8551 35.4815 14.7772 36.3342 15.808Z" fill="black"/>
<path fill-rule="evenodd" clip-rule="evenodd" d="M22.9644 15.4617C22.9845 15.2012 23.2017 15 23.463 15H24.5369C24.7982 15 25.0154 15.2012 25.0355 15.4617L25.9585 27.4617C25.9809 27.752 25.7513 28 25.46 28H22.5399C22.2486 28 22.019 27.752 22.0414 27.4617L22.9644 15.4617Z" fill="black"/>
</svg>
