<svg width="48" height="48" viewBox="0 0 48 48" fill="none" xmlns="http://www.w3.org/2000/svg">
<path fill-rule="evenodd" clip-rule="evenodd" d="M12.9815 42.5192C12.9918 42.7876 13.2125 42.9999 13.4811 42.9999H15.6181C15.8436 42.9999 16.0411 42.849 16.1005 42.6315L18.8768 32.4515C18.9461 32.1974 19.2 32.0403 19.4585 32.0903C20.7289 32.3364 24.3113 32.9999 26 32.9999C27.7591 32.9999 33.0133 32.2799 34.5643 32.0618C34.8143 32.0267 35.0499 32.1829 35.1163 32.4264L37.8995 42.6315C37.9588 42.849 38.1564 42.9999 38.3819 42.9999H40.5384C40.7991 42.9999 41.016 42.7997 41.0368 42.5398L42.6545 22.3189C42.8407 19.9915 41.0021 17.9999 38.6672 17.9999H26C26 17.9999 23.0768 11.9037 21 9.99995C20.1309 9.20328 11.7348 6.02449 9.52874 5.19745C9.30281 5.11275 9.07947 5.31785 9.13799 5.55193L9.9293 8.71718C9.97299 8.89193 9.91981 9.0762 9.78973 9.2008C9.20351 9.76228 7.55746 11.3496 6.99999 11.9999C6.41242 12.6854 5.35562 15.892 5.07179 16.7746C5.02553 16.9184 5.04871 17.073 5.13254 17.1988L6.73553 19.6033C6.88358 19.8253 7.17994 19.892 7.40881 19.7547L10.5512 17.8692C11.2031 17.4781 12.0357 17.9286 12.0649 18.6883L12.9815 42.5192Z" fill="black"/>
</svg>
