<svg width="48" height="48" viewBox="0 0 48 48" fill="none" xmlns="http://www.w3.org/2000/svg">
<path opacity="0.3" fill-rule="evenodd" clip-rule="evenodd" d="M46.7487 37.7941C44.2634 42.0988 36.8204 42.4543 30.1243 38.5884C23.4282 34.7224 20.0147 28.0988 22.5 23.7941C24.9852 19.4895 32.4282 19.1339 39.1243 22.9999C45.8204 26.8659 49.234 33.4895 46.7487 37.7941Z" fill="black"/>
<path opacity="0.3" fill-rule="evenodd" clip-rule="evenodd" d="M25 4C20.0294 4 16 10.268 16 18C16 25.732 20.0294 32 25 32C29.9706 32 34 25.732 34 18C34 10.268 29.9706 4 25 4Z" fill="black"/>
<path opacity="0.3" fill-rule="evenodd" clip-rule="evenodd" d="M2.49997 37.7941C0.0146849 33.4895 3.42822 26.8659 10.1243 22.9999C16.8204 19.1339 24.2634 19.4895 26.7487 23.7941C29.234 28.0988 25.8204 34.7224 19.1243 38.5884C12.4282 42.4543 4.98525 42.0988 2.49997 37.7941Z" fill="black"/>
</svg>
