<svg width="48" height="48" viewBox="0 0 48 48" fill="none" xmlns="http://www.w3.org/2000/svg">
<path fill-rule="evenodd" clip-rule="evenodd" d="M42 20H6V10C6 8.89543 6.89543 8 8 8H40C41.1046 8 42 8.89543 42 10V20ZM32 12C30.8954 12 30 12.8954 30 14C30 15.1046 30.8954 16 32 16C33.1046 16 34 15.1046 34 14C34 12.8954 33.1046 12 32 12ZM16 12C14.8954 12 14 12.8954 14 14C14 15.1046 14.8954 16 16 16C17.1046 16 18 15.1046 18 14C18 12.8954 17.1046 12 16 12ZM42 22V42C42 43.1046 41.1046 44 40 44H8C6.89543 44 6 43.1046 6 42V22H42ZM14 28.3333C14 27.0447 14.8954 26 16 26H32C33.1046 26 34 27.0447 34 28.3333V37.6667C34 38.9553 33.1046 40 32 40H16C14.8954 40 14 38.9553 14 37.6667V28.3333Z" fill="black"/>
<path opacity="0.3" fill-rule="evenodd" clip-rule="evenodd" d="M11 6C10.4477 6 10 6.44772 10 7V8H22V7C22 6.44772 21.5523 6 21 6H11ZM31 6C30.4477 6 30 6.44772 30 7V8H38V7C38 6.44772 37.5523 6 37 6H31Z" fill="black"/>
</svg>
