<svg width="48" height="48" viewBox="0 0 48 48" fill="none" xmlns="http://www.w3.org/2000/svg">
<path opacity="0.3" fill-rule="evenodd" clip-rule="evenodd" d="M42 10H36V24H42V10ZM9.17067 25.5632L18.8299 22.975L23.3237 39.7459C23.681 41.0796 22.8896 42.4504 21.5559 42.8078L16.7263 44.1019C15.3926 44.4593 14.0218 43.6678 13.6644 42.3341L9.17067 25.5632ZM22.9974 31.885C22.6401 30.5514 23.4315 29.1805 24.7652 28.8232C26.0989 28.4658 27.4697 29.2573 27.8271 30.5909L28.0859 31.5569C28.4432 32.8905 27.6518 34.2614 26.3181 34.6187C24.9845 34.9761 23.6136 34.1846 23.2563 32.8509L22.9974 31.885Z" fill="black"/>
<path fill-rule="evenodd" clip-rule="evenodd" d="M14.9199 9.45972C9.99355 9.45972 6 13.4533 6 18.3796C6 23.3059 9.99355 27.2994 14.9198 27.2994H34V9.45972H14.9199ZM18 18C18 20.2091 16.2091 22 14 22C11.7909 22 10 20.2091 10 18C10 15.7908 11.7909 14 14 14C16.2091 14 18 15.7908 18 18Z" fill="black"/>
</svg>
