<svg width="48" height="48" viewBox="0 0 48 48" fill="none" xmlns="http://www.w3.org/2000/svg">
<path opacity="0.3" fill-rule="evenodd" clip-rule="evenodd" d="M46 14H34V18H46V14ZM38 40L40.2857 36H4.28356C4.09669 37.3064 4 38.6419 4 40H38Z" fill="black"/>
<path fill-rule="evenodd" clip-rule="evenodd" d="M42.5714 32H5.15947C8.60167 20.434 19.3159 10 32 10H35L46 26L42.5714 32ZM21.9799 17.7171C20.8438 17.8794 20 18.8524 20 20C20 21.1045 20.8954 22 22 22H31C32.6569 22 34 20.6568 34 19C34 18.8768 33.9913 18.7539 33.9739 18.632C33.7706 17.2095 32.4527 16.221 31.0302 16.4242L21.9799 17.7171ZM14 28C15.1046 28 16 27.1046 16 26C16 24.8954 15.1046 24 14 24C12.8954 24 12 24.8954 12 26C12 27.1046 12.8954 28 14 28Z" fill="black"/>
</svg>
