<svg width="48" height="48" viewBox="0 0 48 48" fill="none" xmlns="http://www.w3.org/2000/svg">
<path fill-rule="evenodd" clip-rule="evenodd" d="M16.8453 14.3917C16.5855 14.138 16.4836 13.7634 16.5792 13.4131L17.6857 9.35603C18.0196 8.13156 19.088 7.24973 20.3535 7.15394L35.599 6L37.7203 8.12132C39.8634 10.2644 42.7417 13.5209 46.3551 17.8908C47.3372 19.0785 47.5496 20.7249 46.9011 22.123L41.784 33.1542C41.641 33.4626 41.4465 33.7444 41.209 33.9876C40.0515 35.1731 38.1522 35.1958 36.9667 34.0383L16.8453 14.3917ZM41.0843 18.4416L35.599 11.1279C34.7368 9.97829 33.106 9.74531 31.9564 10.6075C31.8579 10.6814 31.7648 10.7621 31.6777 10.8492C30.5061 12.0208 30.5061 13.9203 31.6777 15.0918L38.0417 21.4558C38.8227 22.2368 40.0891 22.2368 40.8701 21.4558C41.6816 20.6443 41.7729 19.3597 41.0843 18.4416Z" fill="black"/>
<path opacity="0.3" fill-rule="evenodd" clip-rule="evenodd" d="M20.7533 28.4636L24.0803 31.7905C25.3052 33.0155 25.3052 35.0015 24.0803 36.2264L17.4264 42.8803C16.2015 44.1052 14.2154 44.1052 12.9905 42.8803L4.11868 34.0085C2.89374 32.7835 2.89374 30.7975 4.11868 29.5726L10.7725 22.9187C11.9975 21.6938 13.9835 21.6938 15.2084 22.9187L18.5354 26.2456L21.8623 22.9187L24.0803 25.1367L20.7533 28.4636ZM14.6539 40.1078L21.3078 33.454L20.1988 32.345L13.545 38.9988L14.6539 40.1078ZM11.327 36.7809L17.9809 30.127L16.8719 29.0181L10.218 35.6719L11.327 36.7809ZM8.00011 33.454L14.654 26.8001L13.545 25.6912L6.89113 32.345L8.00011 33.454Z" fill="black"/>
</svg>
