<svg width="48" height="48" viewBox="0 0 48 48" fill="none" xmlns="http://www.w3.org/2000/svg">
<path fill-rule="evenodd" clip-rule="evenodd" d="M6.55279 31.7236L18 26H30L41.4472 31.7236C41.786 31.893 42 32.2393 42 32.618V41C42 41.5523 41.5523 42 41 42H7C6.44772 42 6 41.5523 6 41V32.618C6 32.2393 6.214 31.893 6.55279 31.7236ZM38 36C38 37.1046 37.1046 38 36 38C34.8954 38 34 37.1046 34 36C34 34.8954 34.8954 34 36 34C37.1046 34 38 34.8954 38 36ZM30 38C31.1046 38 32 37.1046 32 36C32 34.8954 31.1046 34 30 34C28.8954 34 28 34.8954 28 36C28 37.1046 28.8954 38 30 38ZM26 36C26 37.1046 25.1046 38 24 38C22.8954 38 22 37.1046 22 36C22 34.8954 22.8954 34 24 34C25.1046 34 26 34.8954 26 36Z" fill="black"/>
<path opacity="0.3" fill-rule="evenodd" clip-rule="evenodd" d="M18 26H30V5C30 4.44772 29.5523 4 29 4H19C18.4477 4 18 4.44772 18 5V26Z" fill="black"/>
</svg>
