<svg width="48" height="48" viewBox="0 0 48 48" fill="none" xmlns="http://www.w3.org/2000/svg">
<path fill-rule="evenodd" clip-rule="evenodd" d="M22 6.10986C13.0001 7.10475 6 14.7349 6 24C6 33.2651 13.0001 40.8953 22 41.8901V37C22 36.4477 22.4477 36 23 36H25C25.5523 36 26 36.4477 26 37V41.8901C34.9999 40.8953 42 33.2651 42 24C42 14.7349 34.9999 7.10475 26 6.10986V11C26 11.5523 25.5523 12 25 12H23C22.4477 12 22 11.5523 22 11V6.10986ZM17 26C18.6569 26 20 24.6569 20 23C20 21.3432 18.6569 20 17 20C15.3431 20 14 21.3432 14 23C14 24.6569 15.3431 26 17 26ZM34 23C34 24.6569 32.6569 26 31 26C29.3431 26 28 24.6569 28 23C28 21.3432 29.3431 20 31 20C32.6569 20 34 21.3432 34 23Z" fill="black"/>
</svg>
