<svg width="48" height="48" viewBox="0 0 48 48" fill="none" xmlns="http://www.w3.org/2000/svg">
<path fill-rule="evenodd" clip-rule="evenodd" d="M12 4H36C39.3137 4 42 6.68629 42 10V40C42 43.3137 39.3137 46 36 46H12C8.68629 46 6 43.3137 6 40V10C6 6.68629 8.68629 4 12 4ZM12 8C10.8954 8 10 8.89543 10 10V16H38V10C38 8.89543 37.1046 8 36 8H12ZM12 31C12 37.6274 17.3726 43 24 43C30.6274 43 36 37.6274 36 31C36 24.3726 30.6274 19 24 19C17.3726 19 12 24.3726 12 31ZM14 14C15.1046 14 16 13.1046 16 12C16 10.8954 15.1046 10 14 10C12.8954 10 12 10.8954 12 12C12 13.1046 12.8954 14 14 14ZM22 12C22 13.1046 21.1046 14 20 14C18.8954 14 18 13.1046 18 12C18 10.8954 18.8954 10 20 10C21.1046 10 22 10.8954 22 12Z" fill="black"/>
<path opacity="0.3" fill-rule="evenodd" clip-rule="evenodd" d="M24 39C28.4183 39 32 35.4183 32 31C32 26.5817 28.4183 23 24 23C19.5817 23 16 26.5817 16 31C16 35.4183 19.5817 39 24 39Z" fill="black"/>
</svg>
