<svg width="48" height="48" viewBox="0 0 48 48" fill="none" xmlns="http://www.w3.org/2000/svg">
<path opacity="0.3" fill-rule="evenodd" clip-rule="evenodd" d="M38 44C41.3137 44 44 41.3137 44 38C44 34.6863 41.3137 32 38 32C34.6863 32 32 34.6863 32 38C32 41.3137 34.6863 44 38 44Z" fill="black"/>
<path fill-rule="evenodd" clip-rule="evenodd" d="M22 14V29C22 29.5523 21.5523 30 21 30H19C18.4477 30 18 29.5523 18 29V14H13C12.4477 14 12 13.5523 12 13V11C12 10.4477 12.4477 10 13 10L27 10C27.5523 10 28 10.4477 28 11V13C28 13.5523 27.5523 14 27 14H22Z" fill="black"/>
</svg>
