<svg width="48" height="48" viewBox="0 0 48 48" fill="none" xmlns="http://www.w3.org/2000/svg">
<path opacity="0.3" fill-rule="evenodd" clip-rule="evenodd" d="M24 44C27.3137 44 30 41.3137 30 38C30 34.6863 27.3137 32 24 32C20.6863 32 18 34.6863 18 38C18 41.3137 20.6863 44 24 44Z" fill="black"/>
<path fill-rule="evenodd" clip-rule="evenodd" d="M26 14V29C26 29.5523 25.5523 30 25 30H23C22.4477 30 22 29.5523 22 29V14H17C16.4477 14 16 13.5523 16 13V11C16 10.4477 16.4477 10 17 10L31 10C31.5523 10 32 10.4477 32 11V13C32 13.5523 31.5523 14 31 14H26Z" fill="black"/>
</svg>
