<svg width="48" height="48" viewBox="0 0 48 48" fill="none" xmlns="http://www.w3.org/2000/svg">
<path opacity="0.3" fill-rule="evenodd" clip-rule="evenodd" d="M10 30C13.3137 30 16 27.3137 16 24C16 20.6863 13.3137 18 10 18C6.68629 18 4 20.6863 4 24C4 27.3137 6.68629 30 10 30Z" fill="black"/>
<path fill-rule="evenodd" clip-rule="evenodd" d="M30 18V33C30 33.5523 29.5523 34 29 34H27C26.4477 34 26 33.5523 26 33V18H21C20.4477 18 20 17.5523 20 17V15C20 14.4477 20.4477 14 21 14L35 14C35.5523 14 36 14.4477 36 15V17C36 17.5523 35.5523 18 35 18H30Z" fill="black"/>
</svg>
