<svg width="48" height="48" viewBox="0 0 48 48" fill="none" xmlns="http://www.w3.org/2000/svg">
<path opacity="0.3" fill-rule="evenodd" clip-rule="evenodd" d="M38 30C41.3137 30 44 27.3137 44 24C44 20.6863 41.3137 18 38 18C34.6863 18 32 20.6863 32 24C32 27.3137 34.6863 30 38 30Z" fill="black"/>
<path fill-rule="evenodd" clip-rule="evenodd" d="M22 18V33C22 33.5523 21.5523 34 21 34H19C18.4477 34 18 33.5523 18 33V18H13C12.4477 18 12 17.5523 12 17V15C12 14.4477 12.4477 14 13 14L27 14C27.5523 14 28 14.4477 28 15V17C28 17.5523 27.5523 18 27 18H22Z" fill="black"/>
</svg>
