<svg width="48" height="48" viewBox="0 0 48 48" fill="none" xmlns="http://www.w3.org/2000/svg">
<path opacity="0.3" fill-rule="evenodd" clip-rule="evenodd" d="M6.51471 21.9999C5.96242 21.9999 5.51471 22.4476 5.51471 22.9999L5.51471 24.9999C5.51471 25.5522 5.96242 25.9999 6.51471 25.9999L22 25.9999V44.5146C22 45.0669 22.4477 45.5146 23 45.5146H25C25.5523 45.5146 26 45.0669 26 44.5146V25.9999L44.5147 25.9999C45.067 25.9999 45.5147 25.5522 45.5147 24.9999L45.5147 22.9999C45.5147 22.4476 45.067 21.9999 44.5147 21.9999L26 21.9999L26 6.51462C26 5.96234 25.5523 5.51462 25 5.51462L23 5.51462C22.4477 5.51462 22 5.96234 22 6.51462L22 21.9999L6.51471 21.9999Z" fill="black"/>
<path fill-rule="evenodd" clip-rule="evenodd" d="M19.7573 11.2721L24 7.02941L28.2426 11.2721C28.2426 11.2721 29.6568 12.6863 31.071 11.2721C32.4852 9.85784 31.071 8.44363 31.071 8.44363L24 1.37256L16.9289 8.44363C16.9289 8.44363 15.7573 10.1005 16.9289 11.2721C18.1005 12.4436 19.7573 11.2721 19.7573 11.2721ZM11.2721 28.2426L7.02941 24L11.2721 19.7573C11.2721 19.7573 12.6863 18.3431 11.2721 16.9289C9.85784 15.5147 8.44363 16.9289 8.44363 16.9289L1.37256 24L8.44363 31.0711C8.44363 31.0711 10.1005 32.2426 11.2721 31.0711C12.4436 29.8995 11.2721 28.2426 11.2721 28.2426ZM28.2426 36.7279L24 40.9705L19.7573 36.7279C19.7573 36.7279 18.3431 35.3137 16.9289 36.7279C15.5147 38.1421 16.9289 39.5563 16.9289 39.5563L24 46.6274L31.071 39.5563C31.071 39.5563 32.2426 37.8995 31.071 36.7279C29.8995 35.5563 28.2426 36.7279 28.2426 36.7279ZM40.9705 24L36.7279 19.7573C36.7279 19.7573 35.5563 18.1005 36.7279 16.9289C37.8995 15.7573 39.5563 16.9289 39.5563 16.9289L46.6274 24L39.5563 31.071C39.5563 31.071 38.1421 32.4852 36.7279 31.071C35.3137 29.6568 36.7279 28.2426 36.7279 28.2426L40.9705 24Z" fill="black"/>
</svg>
