<svg width="48" height="48" viewBox="0 0 48 48" fill="none" xmlns="http://www.w3.org/2000/svg">
<path opacity="0.3" fill-rule="evenodd" clip-rule="evenodd" d="M6.09375 27.3948L9.90625 28.6052C12.6239 20.0445 17.2462 16 24 16C22.8954 16 22 15.1046 22 14C22 12.8954 22.8954 12 24 12C25.1046 12 26 12.8954 26 14C26 15.1041 25.1053 15.9993 24.0013 16C30.7544 16.0005 35.3763 20.0451 38.0938 28.6052L41.9062 27.3948C38.698 17.2888 32.6536 12 24 12C15.3464 12 9.30202 17.2888 6.09375 27.3948Z" fill="black"/>
<path fill-rule="evenodd" clip-rule="evenodd" d="M24 20C26.6124 20 28.8349 18.3304 29.6586 16H36.5351C37.2267 17.1956 38.5194 18 40 18C42.2091 18 44 16.2091 44 14C44 11.7909 42.2091 10 40 10C38.5194 10 37.2267 10.8044 36.5351 12H29.6586C28.8349 9.66962 26.6124 8 24 8C21.3876 8 19.1651 9.66962 18.3414 12H11.4649C10.7733 10.8044 9.48056 10 8 10C5.79086 10 4 11.7909 4 14C4 16.2091 5.79086 18 8 18C9.48056 18 10.7733 17.1956 11.4649 16H18.3414C19.1651 18.3304 21.3876 20 24 20ZM26 14C26 15.1046 25.1046 16 24 16C22.8954 16 22 15.1046 22 14C22 12.8954 22.8954 12 24 12C25.1046 12 26 12.8954 26 14ZM8 38C11.3137 38 14 35.3137 14 32C14 28.6863 11.3137 26 8 26C4.68629 26 2 28.6863 2 32C2 35.3137 4.68629 38 8 38ZM10 32C10 33.1046 9.10457 34 8 34C6.89543 34 6 33.1046 6 32C6 30.8954 6.89543 30 8 30C9.10457 30 10 30.8954 10 32ZM40 38C43.3137 38 46 35.3137 46 32C46 28.6863 43.3137 26 40 26C36.6863 26 34 28.6863 34 32C34 35.3137 36.6863 38 40 38ZM42 32C42 33.1046 41.1046 34 40 34C38.8954 34 38 33.1046 38 32C38 30.8954 38.8954 30 40 30C41.1046 30 42 30.8954 42 32Z" fill="black"/>
</svg>
