<svg width="48" height="48" viewBox="0 0 48 48" fill="none" xmlns="http://www.w3.org/2000/svg">
<path fill-rule="evenodd" clip-rule="evenodd" d="M27 12C27 12 26.5123 18.8571 23.6552 21C23.6552 21 25 8 21.147 4C21.147 4 21.147 11.8571 17.5756 18.2857C15.9015 21.2991 14.0042 24.2837 14.0042 28.2857C14.0042 34 20.9395 36 24.0099 36C27.6051 36 34 34 34 27C34 22.6825 27 12 27 12Z" fill="black"/>
<path opacity="0.3" d="M16 41C16 40.4477 16.4477 40 17 40H31C31.5523 40 32 40.4477 32 41V46H16V41Z" fill="black"/>
</svg>
