<svg width="50" height="48" viewBox="0 0 50 48" fill="none" xmlns="http://www.w3.org/2000/svg">
<path fill-rule="evenodd" clip-rule="evenodd" d="M40.3847 17.7574L26.2426 3.61529C24.6805 2.0532 22.1479 2.0532 20.5858 3.61529L6.44362 17.7574C3.31943 20.8816 3.31943 25.9469 6.44362 29.0711L14.9289 37.5564C18.0531 40.6806 23.1184 40.6806 26.2426 37.5564L40.3847 23.4143C41.9468 21.8522 41.9468 19.3195 40.3847 17.7574ZM9.27205 20.5859L23.4142 6.44372L37.5563 20.5859L34.0848 24.0573C34.0848 24.0573 8.13472 24.0573 8.13472 24.0245C8.12361 23.9032 8.11497 23.7788 8.10744 23.6509C8.04258 22.5499 8.43079 21.4271 9.27205 20.5859Z" fill="black"/>
<path opacity="0.3" fill-rule="evenodd" clip-rule="evenodd" d="M42 44C45.3137 44 48 41.3137 48 38C48 34.6863 42 28 42 28C42 28 36 34.6863 36 38C36 41.3137 38.6863 44 42 44Z" fill="black"/>
</svg>
