<svg width="48" height="48" viewBox="0 0 48 48" fill="none" xmlns="http://www.w3.org/2000/svg">
<path fill-rule="evenodd" clip-rule="evenodd" d="M8 24C8 15.1634 15.1634 8 24 8C32.8366 8 40 15.1634 40 24V38H26V31.8C30.5645 30.8734 34 26.8379 34 22C34 16.4772 29.5228 12 24 12C18.4772 12 14 16.4772 14 22C14 26.8379 17.4355 30.8734 22 31.8V38H8V24Z" fill="black"/>
<path opacity="0.3" fill-rule="evenodd" clip-rule="evenodd" d="M24 26C26.2091 26 28 24.2091 28 22C28 19.7909 26.2091 18 24 18C21.7909 18 20 19.7909 20 22C20 24.2091 21.7909 26 24 26Z" fill="black"/>
</svg>
