<svg width="48" height="48" viewBox="0 0 48 48" fill="none" xmlns="http://www.w3.org/2000/svg">
<path opacity="0.3" fill-rule="evenodd" clip-rule="evenodd" d="M8 30C8 35.5228 12.4772 40 18 40C20.2512 40 22.3287 39.2561 24 38.0007C25.6713 39.2561 27.7488 40 30 40C35.5229 40 40 35.5228 40 30C40 24.4772 35.5229 20 30 20C27.7488 20 25.6713 20.7439 24 21.9993C22.3287 20.7439 20.2512 20 18 20C12.4772 20 8 24.4772 8 30ZM26.6672 25.0087C27.5149 26.4776 28 28.1822 28 30C28 31.8178 27.515 33.5223 26.6673 34.9911C27.6378 35.6413 28.7877 36 30 36C33.3137 36 36 33.3137 36 30C36 26.6863 33.3137 24 30 24C28.7861 24 27.6352 24.3609 26.6672 25.0087Z" fill="black"/>
<path fill-rule="evenodd" clip-rule="evenodd" d="M24 28C29.5228 28 34 23.5228 34 18C34 12.4772 29.5228 8 24 8C18.4772 8 14 12.4772 14 18C14 23.5228 18.4772 28 24 28Z" fill="black"/>
</svg>
