<svg width="48" height="48" viewBox="0 0 48 48" fill="none" xmlns="http://www.w3.org/2000/svg">
<path fill-rule="evenodd" clip-rule="evenodd" d="M24.7442 6.13245C24.2831 5.86894 23.717 5.86894 23.2558 6.13245L8.74957 14.4217C8.2822 14.6888 7.99377 15.1858 7.99377 15.7241V32.276C7.99377 32.8143 8.2822 33.3113 8.74957 33.5784L23.2558 41.8677C23.717 42.1312 24.2831 42.1312 24.7442 41.8677L39.2505 33.5784C39.7179 33.3113 40.0063 32.8143 40.0063 32.276V15.7241C40.0063 15.1858 39.7179 14.6888 39.2505 14.4217L24.7442 6.13245ZM29 24.0001C29 26.7615 26.7614 29.0001 24 29.0001C21.2386 29.0001 19 26.7615 19 24.0001C19 21.2386 21.2386 19.0001 24 19.0001C26.7614 19.0001 29 21.2386 29 24.0001Z" fill="black"/>
</svg>
