<svg width="28" height="29" viewBox="0 0 28 29" fill="none" xmlns="http://www.w3.org/2000/svg">
<path d="M27.5982 6.2011L25.8137 5.88881C25.7245 5.66575 25.6353 5.44269 25.546 5.21963L26.6167 3.74743C26.7506 3.56898 26.706 3.34592 26.5721 3.16747L24.8322 1.42759C24.6984 1.29375 24.4307 1.24914 24.2523 1.38298L22.7801 2.45367C22.557 2.36445 22.334 2.23061 22.1109 2.186L21.7986 0.40151C21.754 0.178449 21.5755 0 21.3525 0H18.8988C18.6758 0 18.4973 0.178449 18.4527 0.356898L18.1404 2.14139C17.9173 2.23061 17.6943 2.31983 17.4712 2.40906L15.999 1.33837C15.8206 1.20453 15.5975 1.24914 15.4191 1.38298L13.6792 3.12285C13.59 3.34592 13.5453 3.56898 13.6792 3.74743L14.7499 5.21963C14.6607 5.44269 14.5268 5.66575 14.4822 5.88881L12.6977 6.2011C12.4747 6.24571 12.3408 6.42416 12.3408 6.64722V9.10089C12.3408 9.32395 12.4747 9.5024 12.6977 9.54701L14.4822 9.8593C14.5714 10.0824 14.6607 10.3054 14.7499 10.5285L13.6792 12.0007C13.5453 12.1791 13.59 12.4022 13.7238 12.5806L15.4637 14.3205C15.5975 14.4544 15.8652 14.499 16.0436 14.3651L17.5158 13.2944C17.7389 13.3837 17.962 13.5175 18.185 13.5621L18.4973 15.3466C18.5419 15.5697 18.7204 15.7035 18.9434 15.7035H21.3971C21.6202 15.7035 21.7986 15.5697 21.8432 15.3466L22.1555 13.5621C22.3786 13.4729 22.6016 13.3837 22.8247 13.2944L24.2969 14.3651C24.4753 14.499 24.6984 14.4544 24.8769 14.3205L26.6167 12.5806C26.7506 12.4468 26.7952 12.1791 26.6613 12.0007L25.5906 10.5285C25.6799 10.3054 25.7691 10.0824 25.8583 9.8593L27.6428 9.54701C27.8659 9.5024 27.9997 9.32395 27.9997 9.10089V6.64722C27.9551 6.42416 27.8213 6.24571 27.5982 6.2011ZM20.148 10.4839C18.7204 10.4839 17.5158 9.32395 17.5158 7.85175C17.5158 6.42416 18.6758 5.21963 20.148 5.21963C21.5755 5.21963 22.7355 6.37955 22.7355 7.85175C22.7355 9.32395 21.5755 10.4839 20.148 10.4839Z" fill="#333333"/>
<path d="M8.37033 25.3397V25.9643C8.37033 27.3919 7.21041 28.5518 5.78282 28.5518C4.35523 28.5518 3.19531 27.3919 3.19531 25.9643V25.3397H8.37033Z" fill="#333333"/>
<path d="M6.45236 18.6033L6.00624 19.0494C5.82779 19.2278 5.56012 19.2278 5.38167 19.0494L4.93555 18.6033L5.29244 24.4475H6.09546L6.45236 18.6033Z" fill="#333333"/>
<path d="M10.9136 14.5882C8.68299 9.99316 2.03577 10.4393 0.340504 15.2574C-0.417903 17.3542 0.117443 19.6294 1.67887 21.1908C2.79418 22.3061 2.74956 23.466 2.74956 23.8676C2.74956 23.9568 2.74956 24.0014 2.74956 24.0906C2.79418 24.3137 2.97262 24.4475 3.19569 24.4475H4.44483L4.04332 17.488C3.9987 17.0865 4.48944 16.8634 4.80172 17.1311L5.73858 18.068L6.67544 17.1311C6.94311 16.8634 7.43385 17.0865 7.43385 17.488L7.03233 24.4475H8.41531C8.63838 24.4475 8.81682 24.3137 8.86144 24.0906C8.86144 24.046 8.86144 24.0014 8.86144 23.9122C8.86144 22.8861 9.21833 21.9046 9.97674 21.1016C11.6274 19.3617 11.9843 16.8188 10.9136 14.5882Z" fill="#333333"/>
<path d="M21.9779 16.328C21.7549 16.2834 21.5318 16.4619 21.4872 16.6849C21.0857 18.6925 19.9704 20.4324 18.3197 21.6369C16.8921 22.7076 15.1522 23.2429 13.3678 23.2429L13.9477 22.8414C14.1262 22.7076 14.1708 22.4399 14.0369 22.2169C13.9031 22.0384 13.6354 21.9938 13.4124 22.1276L11.9402 23.1983C11.8509 23.2876 11.7617 23.3768 11.7617 23.466C11.7617 23.5998 11.7617 23.6891 11.8509 23.7783L12.9662 25.2951C13.1001 25.4736 13.3678 25.5182 13.5908 25.3843C13.7693 25.2505 13.8139 24.9828 13.68 24.7598L13.1001 24.0906C13.2339 24.0906 13.3678 24.0906 13.457 24.0906C15.3753 24.0906 17.249 23.466 18.8104 22.3061C20.6395 20.9677 21.8887 19.0048 22.2902 16.8188C22.424 16.5957 22.2456 16.3727 21.9779 16.328Z" fill="#333333"/>
<path d="M9.97653 0.223097C9.79809 0.0446487 9.53041 0.0892609 9.35196 0.26771C9.17352 0.446159 9.21813 0.713832 9.39658 0.892281L9.97653 1.42763C5.64915 1.82914 2.1694 5.3535 1.8125 9.77011C1.8125 10.0378 1.99095 10.2162 2.25862 10.2162C2.48168 10.2162 2.70474 10.0378 2.70474 9.81472C3.01703 5.84424 6.13988 2.67677 10.0658 2.31987L9.4858 2.94444C9.30735 3.12289 9.35196 3.39056 9.53041 3.56901C9.70886 3.74746 9.97653 3.70285 10.155 3.5244L11.4487 2.14142C11.538 2.0522 11.5826 1.96297 11.5826 1.82914C11.5826 1.6953 11.538 1.60608 11.4487 1.51685L9.97653 0.223097Z" fill="#333333"/>
</svg>
