<svg width="48" height="48" viewBox="0 0 48 48" fill="none" xmlns="http://www.w3.org/2000/svg">
<path fill-rule="evenodd" clip-rule="evenodd" d="M34 20V32H35.6364C38.465 32 40 30.465 40 27.6364V12.3636C40 9.53502 38.465 8 35.6364 8H20.3636C17.535 8 16 9.53502 16 12.3636V14H28C31.3137 14 34 16.6863 34 20ZM12 30V18H10.3636C7.53502 18 6 19.535 6 22.3636V37.6364C6 40.465 7.53502 42 10.3636 42H25.6364C28.465 42 30 40.465 30 37.6364V36H18C14.6863 36 12 33.3137 12 30Z" fill="black"/>
<path opacity="0.3" fill-rule="evenodd" clip-rule="evenodd" d="M18.5455 18H27.4545C29.1046 18 30 18.8954 30 20.5455V29.4545C30 31.1046 29.1046 32 27.4545 32H18.5455C16.8954 32 16 31.1046 16 29.4545V20.5455C16 18.8954 16.8954 18 18.5455 18Z" fill="black"/>
</svg>
