<svg width="48" height="48" viewBox="0 0 48 48" fill="none" xmlns="http://www.w3.org/2000/svg">
<path fill-rule="evenodd" clip-rule="evenodd" d="M12 23C12 22.4477 11.5523 22 11 22H7C6.44772 22 6 22.4477 6 23V25C6 25.5523 6.44772 26 7 26H11C11.5523 26 12 25.5523 12 25V23ZM21 22C21.5523 22 22 22.4477 22 23V25C22 25.5523 21.5523 26 21 26H17C16.4477 26 16 25.5523 16 25V23C16 22.4477 16.4477 22 17 22H21ZM32 23C32 22.4477 31.5523 22 31 22H27C26.4477 22 26 22.4477 26 23V25C26 25.5523 26.4477 26 27 26H31C31.5523 26 32 25.5523 32 25V23ZM42 23C42 22.4477 41.5523 22 41 22H37C36.4477 22 36 22.4477 36 23V25C36 25.5523 36.4477 26 37 26H41C41.5523 26 42 25.5523 42 25V23Z" fill="black"/>
<path opacity="0.3" fill-rule="evenodd" clip-rule="evenodd" d="M17.0403 6C16.6211 6 16.388 6.48497 16.6499 6.81235L23.6096 15.512C23.8097 15.7622 24.1903 15.7622 24.3904 15.512L31.3501 6.81235C31.612 6.48497 31.3789 6 30.9597 6H17.0403ZM30.9597 42C31.3789 42 31.612 41.515 31.3501 41.1877L24.3904 32.488C24.1903 32.2378 23.8097 32.2378 23.6096 32.488L16.6499 41.1877C16.388 41.515 16.6211 42 17.0403 42H30.9597Z" fill="black"/>
</svg>
