<svg width="48" height="48" viewBox="0 0 48 48" fill="none" xmlns="http://www.w3.org/2000/svg">
<path d="M23.0659 32.8887C23.6127 33.3234 24.3871 33.3232 24.9336 32.8881L38.72 21.913L40.5182 20.4891C41.2755 19.8893 41.2768 18.7405 40.5207 18.1391L24.9337 5.74258C24.3871 5.30788 23.6129 5.30788 23.0663 5.74257L7.47483 18.1427C6.72015 18.7429 6.71966 19.889 7.47383 20.4899L9.26 21.913L23.0659 32.8887Z" fill="black"/>
<path opacity="0.3" fill-rule="evenodd" clip-rule="evenodd" d="M24.9135 38.0835C24.367 38.5182 23.5929 38.5182 23.0464 38.0837L10.4292 28.053C9.77492 27.5328 8.82162 27.6478 8.30981 28.3087L7.92398 28.807C7.41459 29.4647 7.53783 30.4114 8.19865 30.9168L23.0857 42.3032C23.6235 42.7145 24.3702 42.7146 24.908 42.3034L39.7999 30.9176C40.4613 30.4119 40.5844 29.4643 40.074 28.8065L39.6706 28.2866C39.1585 27.6265 38.2057 27.5121 37.5518 28.0321L24.9135 38.0835Z" fill="black"/>
</svg>
