<svg width="48" height="48" viewBox="0 0 48 48" fill="none" xmlns="http://www.w3.org/2000/svg">
<path opacity="0.3" d="M26 18V12C18.0913 14.9763 13.5773 17.987 10 26H16C17.4857 24.4 19.9771 20 26 18Z" fill="black"/>
<path fill-rule="evenodd" clip-rule="evenodd" d="M36 21C39.3137 21 42 18.3137 42 15C42 11.6863 39.3137 9 36 9C32.6863 9 30 11.6863 30 15C30 18.3137 32.6863 21 36 21Z" fill="black"/>
<path fill-rule="evenodd" clip-rule="evenodd" d="M12 42C15.3137 42 18 39.3137 18 36C18 32.6863 15.3137 30 12 30C8.68629 30 6 32.6863 6 36C6 39.3137 8.68629 42 12 42Z" fill="black"/>
</svg>
