<svg width="48" height="48" viewBox="0 0 48 48" fill="none" xmlns="http://www.w3.org/2000/svg">
<path fill-rule="evenodd" clip-rule="evenodd" d="M10.1005 44.3848L38.3847 16.1005C39.1658 15.3194 39.1658 14.0531 38.3847 13.2721L32.7279 7.61521C31.9468 6.83416 30.6805 6.83416 29.8995 7.61521L1.61518 35.8995C0.834137 36.6805 0.834136 37.9469 1.61518 38.7279L7.27204 44.3848C8.05309 45.1658 9.31942 45.1658 10.1005 44.3848ZM31.3137 11.8579L34.1421 14.6863L27.071 21.7573L24.2426 18.9289L31.3137 11.8579Z" fill="black"/>
<path opacity="0.3" fill-rule="evenodd" clip-rule="evenodd" d="M40 18.5C40 18.2239 40.2239 18 40.5 18H43.5C43.7761 18 44 18.2239 44 18.5V21.5C44 21.7761 43.7761 22 43.5 22H40.5C40.2239 22 40 21.7761 40 21.5V18.5ZM34 24.5C34 24.2239 34.2239 24 34.5 24H37.5C37.7761 24 38 24.2239 38 24.5V27.5C38 27.7761 37.7761 28 37.5 28H34.5C34.2239 28 34 27.7761 34 27.5V24.5ZM42.5 26C42.2239 26 42 26.2239 42 26.5V29.5C42 29.7761 42.2239 30 42.5 30H45.5C45.7761 30 46 29.7761 46 29.5V26.5C46 26.2239 45.7761 26 45.5 26H42.5Z" fill="black"/>
</svg>
