<svg width="48" height="48" viewBox="0 0 48 48" fill="none" xmlns="http://www.w3.org/2000/svg">
<path fill-rule="evenodd" clip-rule="evenodd" d="M12.2074 25.5852C12.0759 25.8483 12.0669 26.156 12.1827 26.4263L17.8701 39.697C17.9489 39.8809 18.1297 40 18.3297 40H29.6703C29.8703 40 30.0511 39.8809 30.1299 39.697L35.8173 26.4263C35.9332 26.156 35.9242 25.8483 35.7926 25.5852L26 6V22.5352C27.1956 23.2268 28 24.5195 28 26C28 28.2092 26.2091 30 24 30C21.7909 30 20 28.2092 20 26C20 24.5195 20.8044 23.2268 22 22.5352V6.0001L12.2074 25.5852Z" fill="black"/>
<path opacity="0.3" d="M18 43C18 42.4477 18.4477 42 19 42H29C29.5523 42 30 42.4477 30 43V46H18V43Z" fill="black"/>
</svg>
