<svg width="48" height="48" viewBox="0 0 48 48" fill="none" xmlns="http://www.w3.org/2000/svg">
<path fill-rule="evenodd" clip-rule="evenodd" d="M20.4645 20.4644L27.5356 27.5354L16.929 38.142C14.9763 40.0946 11.8105 40.0946 9.8579 38.142C7.90528 36.1894 7.90528 33.0236 9.8579 31.071L20.4645 20.4644Z" fill="black"/>
<path opacity="0.3" fill-rule="evenodd" clip-rule="evenodd" d="M27.5355 13.3933L31.071 9.85778C33.0236 7.90516 36.1895 7.90516 38.1421 9.85778C40.0947 11.8104 40.0947 14.9762 38.1421 16.9288L34.6066 20.4644L36.7279 22.5857C37.8994 23.7573 37.8994 25.6568 36.7279 26.8283C35.5563 27.9999 33.6568 27.9999 32.4852 26.8283L21.1715 15.5146C20 14.3431 20 12.4436 21.1715 11.272C22.3431 10.1004 24.2426 10.1004 25.4142 11.272L27.5355 13.3933Z" fill="black"/>
</svg>
