<svg width="48" height="48" viewBox="0 0 48 48" fill="none" xmlns="http://www.w3.org/2000/svg">
<path fill-rule="evenodd" clip-rule="evenodd" d="M25.4142 11.2722L24 9.85794L26.8284 7.02951L31.071 11.2722C31.8521 12.0532 33.1184 12.0532 33.8995 11.2722C34.6805 10.4911 34.6805 9.22477 33.8995 8.44372L29.6568 4.20108L31.0711 2.78688C31.8521 2.00584 33.1184 2.00583 33.8995 2.78688L45.2132 14.1006C45.9942 14.8816 45.9942 16.148 45.2132 16.929L16.9289 45.2133C16.1479 45.9943 14.8815 45.9943 14.1005 45.2133L2.78679 33.8996C2.00574 33.1185 2.00574 31.8522 2.78679 31.0712L4.20099 29.657L8.44361 33.8996C9.22466 34.6806 10.491 34.6806 11.272 33.8996C12.0531 33.1185 12.0531 31.8522 11.272 31.0712L7.02941 26.8285L9.85784 24.0001L11.272 25.4143C12.0531 26.1953 13.3194 26.1953 14.1005 25.4143C14.8815 24.6332 14.8815 23.3669 14.1005 22.5859L12.6863 21.1717L15.5147 18.3432L19.7573 22.5859C20.5384 23.3669 21.8047 23.3669 22.5858 22.5859C23.3668 21.8048 23.3668 20.5385 22.5858 19.7574L18.3431 15.5148L21.1715 12.6864L22.5858 14.1006C23.3668 14.8816 24.6331 14.8816 25.4142 14.1006C26.1952 13.3195 26.1952 12.0532 25.4142 11.2722Z" fill="black"/>
</svg>
