<svg width="48" height="48" viewBox="0 0 48 48" fill="none" xmlns="http://www.w3.org/2000/svg">
<path fill-rule="evenodd" clip-rule="evenodd" d="M10 28C10 35.732 16.268 42 24 42C31.732 42 38 35.732 38 28C38 22.8453 33.3333 16.1787 24 8C14.6667 16.1787 10 22.8453 10 28ZM24 38C18.4772 38 14 33.5229 14 28C14 24.7484 17.2594 19.7371 24 13.3985C30.7406 19.7371 34 24.7484 34 28C34 33.5229 29.5228 38 24 38Z" fill="black"/>
<path fill-rule="evenodd" clip-rule="evenodd" d="M24 42C31.732 42 38 35.732 38 28C38 20.268 24 8 24 8V42Z" fill="black"/>
</svg>
