<svg width="48" height="48" viewBox="0 0 48 48" fill="none" xmlns="http://www.w3.org/2000/svg">
<path fill-rule="evenodd" clip-rule="evenodd" d="M12 18H10.3636C7.53502 18 6 19.535 6 22.3636V37.6364C6 40.465 7.53502 42 10.3636 42H25.6364C28.465 42 30 40.465 30 37.6364V36H15C13.3431 36 12 34.6569 12 33V18Z" fill="black"/>
<path opacity="0.3" fill-rule="evenodd" clip-rule="evenodd" d="M20.3636 8H35.6364C38.465 8 40 9.53502 40 12.3636V27.6364C40 30.465 38.465 32 35.6364 32H20.3636C17.535 32 16 30.465 16 27.6364V12.3636C16 9.53502 17.535 8 20.3636 8Z" fill="black"/>
</svg>
