<svg width="48" height="48" viewBox="0 0 48 48" fill="none" xmlns="http://www.w3.org/2000/svg">
<path opacity="0.3" fill-rule="evenodd" clip-rule="evenodd" d="M22 6C22 4.89543 22.8954 4 24 4C25.1046 4 26 4.89543 26 6V10C26 11.1046 25.1046 12 24 12C22.8954 12 22 11.1046 22 10V6ZM6 22C4.89543 22 4 22.8954 4 24C4 25.1046 4.89543 26 6 26H10C11.1046 26 12 25.1046 12 24C12 22.8954 11.1046 22 10 22H6ZM38 22C36.8954 22 36 22.8954 36 24C36 25.1046 36.8954 26 38 26H42C43.1046 26 44 25.1046 44 24C44 22.8954 43.1046 22 42 22H38ZM24 36C22.8954 36 22 36.8954 22 38V42C22 43.1046 22.8954 44 24 44C25.1046 44 26 43.1046 26 42V38C26 36.8954 25.1046 36 24 36Z" fill="black"/>
<path fill-rule="evenodd" clip-rule="evenodd" d="M24 30C27.3137 30 30 27.3137 30 24C30 20.6863 27.3137 18 24 18C20.6863 18 18 20.6863 18 24C18 27.3137 20.6863 30 24 30Z" fill="black"/>
</svg>
