<svg width="48" height="48" viewBox="0 0 48 48" fill="none" xmlns="http://www.w3.org/2000/svg">
<path opacity="0.3" fill-rule="evenodd" clip-rule="evenodd" d="M23 18C22.4477 18 22 18.4477 22 19V32H8C6.89543 32 6 32.8954 6 34V40C6 41.1046 6.89543 42 8 42H40C41.1046 42 42 41.1046 42 40V34C42 32.8954 41.1046 32 40 32H26V19C26 18.4477 25.5523 18 25 18H23Z" fill="black"/>
<path fill-rule="evenodd" clip-rule="evenodd" d="M24 20C27.3137 20 30 17.3137 30 14C30 10.6863 27.3137 8 24 8C20.6863 8 18 10.6863 18 14C18 17.3137 20.6863 20 24 20Z" fill="black"/>
</svg>
