<svg width="48" height="48" viewBox="0 0 48 48" fill="none" xmlns="http://www.w3.org/2000/svg">
<path opacity="0.3" fill-rule="evenodd" clip-rule="evenodd" d="M16 5C14.6193 5 13.5 6.11929 13.5 7.5V40.5C13.5 41.8807 14.6193 43 16 43H32C33.3807 43 34.5 41.8807 34.5 40.5V7.5C34.5 6.11929 33.3807 5 32 5H16Z" fill="black"/>
<path fill-rule="evenodd" clip-rule="evenodd" d="M16 2H32C35.0376 2 37.5 4.46243 37.5 7.5V40.5C37.5 43.5376 35.0376 46 32 46H16C12.9624 46 10.5 43.5376 10.5 40.5V7.5C10.5 4.46243 12.9624 2 16 2ZM16 5C14.6193 5 13.5 6.11929 13.5 7.5V40.5C13.5 41.8807 14.6193 43 16 43H32C33.3807 43 34.5 41.8807 34.5 40.5V7.5C34.5 6.11929 33.3807 5 32 5H30V4C30 3.72386 29.7761 3.5 29.5 3.5H18.5C18.2239 3.5 18 3.72386 18 4V5H16ZM18 5V7C18 7.27614 18.2239 7.5 18.5 7.5H29.5C29.7761 7.5 30 7.27614 30 7V5H18Z" fill="black"/>
</svg>
