<svg width="48" height="48" viewBox="0 0 48 48" fill="none" xmlns="http://www.w3.org/2000/svg">
<rect x="6" y="26" width="36" height="14" rx="2" fill="black"/>
<path opacity="0.3" fill-rule="evenodd" clip-rule="evenodd" d="M37.8583 16.5124L40.9363 13.9578C36.7833 8.95385 30.6307 6 24 6C17.3784 6 11.2335 8.94564 7.08035 13.9377L10.1553 16.4959C13.5564 12.4079 18.5795 10 24 10C29.428 10 34.4573 12.4146 37.8583 16.5124ZM31.7198 21.643L34.8059 19.0982C32.1639 15.8943 28.2347 14 24 14C19.7792 14 15.8615 15.8818 13.2193 19.0678L16.2982 21.6212C18.1884 19.3421 20.9824 18 24 18C27.0275 18 29.8298 19.351 31.7198 21.643Z" fill="black"/>
</svg>
