<svg width="48" height="48" viewBox="0 0 48 48" fill="none" xmlns="http://www.w3.org/2000/svg">
<path opacity="0.3" fill-rule="evenodd" clip-rule="evenodd" d="M9.5 10C8.67157 10 8 10.6716 8 11.5V12.5C8 13.3284 8.67157 14 9.5 14H38.5C39.3284 14 40 13.3284 40 12.5V11.5C40 10.6716 39.3284 10 38.5 10H9.5ZM9.5 26C8.67157 26 8 26.6716 8 27.5V28.5C8 29.3284 8.67157 30 9.5 30H38.5C39.3284 30 40 29.3284 40 28.5V27.5C40 26.6716 39.3284 26 38.5 26H9.5Z" fill="black"/>
<path fill-rule="evenodd" clip-rule="evenodd" d="M9.5 18C8.67157 18 8 18.6716 8 19.5V20.5C8 21.3284 8.67157 22 9.5 22H38.5C39.3284 22 40 21.3284 40 20.5V19.5C40 18.6716 39.3284 18 38.5 18H9.5ZM9.5 34C8.67157 34 8 34.6716 8 35.5V36.5C8 37.3284 8.67157 38 9.5 38H38.5C39.3284 38 40 37.3284 40 36.5V35.5C40 34.6716 39.3284 34 38.5 34H9.5Z" fill="black"/>
</svg>
