<svg width="48" height="48" viewBox="0 0 48 48" fill="none" xmlns="http://www.w3.org/2000/svg">
<rect x="8" y="10" width="32" height="6" rx="1.5" fill="black"/>
<path opacity="0.3" fill-rule="evenodd" clip-rule="evenodd" d="M9.5 20C8.67157 20 8 20.6716 8 21.5V24.5C8 25.3284 8.67157 26 9.5 26H26.5C27.3284 26 28 25.3284 28 24.5V21.5C28 20.6716 27.3284 20 26.5 20H9.5ZM9.5 30C8.67157 30 8 30.6716 8 31.5V34.5C8 35.3284 8.67157 36 9.5 36H38.5C39.3284 36 40 35.3284 40 34.5V31.5C40 30.6716 39.3284 30 38.5 30H9.5Z" fill="black"/>
</svg>
