<svg width="48" height="48" viewBox="0 0 48 48" fill="none" xmlns="http://www.w3.org/2000/svg">
<path fill-rule="evenodd" clip-rule="evenodd" d="M18 11.5C18 10.6716 18.6716 10 19.5 10H40.5C41.3284 10 42 10.6716 42 11.5V14.5C42 15.3284 41.3284 16 40.5 16H19.5C18.6716 16 18 15.3284 18 14.5V11.5ZM18 21.5C18 20.6716 18.6716 20 19.5 20H40.5C41.3284 20 42 20.6716 42 21.5V24.5C42 25.3284 41.3284 26 40.5 26H19.5C18.6716 26 18 25.3284 18 24.5V21.5ZM19.5 30C18.6716 30 18 30.6716 18 31.5V34.5C18 35.3284 18.6716 36 19.5 36H40.5C41.3284 36 42 35.3284 42 34.5V31.5C42 30.6716 41.3284 30 40.5 30H19.5Z" fill="black"/>
<path opacity="0.3" fill-rule="evenodd" clip-rule="evenodd" d="M11 16C12.6569 16 14 14.6569 14 13C14 11.3431 12.6569 10 11 10C9.34315 10 8 11.3431 8 13C8 14.6569 9.34315 16 11 16ZM11 26C12.6569 26 14 24.6569 14 23C14 21.3431 12.6569 20 11 20C9.34315 20 8 21.3431 8 23C8 24.6569 9.34315 26 11 26ZM14 33C14 34.6569 12.6569 36 11 36C9.34315 36 8 34.6569 8 33C8 31.3431 9.34315 30 11 30C12.6569 30 14 31.3431 14 33Z" fill="black"/>
</svg>
