<svg width="48" height="48" viewBox="0 0 48 48" fill="none" xmlns="http://www.w3.org/2000/svg">
<path fill-rule="evenodd" clip-rule="evenodd" d="M17.3707 14.5436C18.1751 15.3006 18.2134 16.5664 17.4564 17.3707L10.7465 24.5L17.4564 31.6293C18.2134 32.4336 18.1751 33.6994 17.3707 34.4564C16.5664 35.2134 15.3006 35.1751 14.5436 34.3707L6.5436 25.8707C5.8188 25.1006 5.8188 23.8994 6.5436 23.1293L14.5436 14.6293C15.3006 13.8249 16.5664 13.7866 17.3707 14.5436ZM30.6293 14.5436C29.8249 15.3006 29.7866 16.5664 30.5436 17.3707L37.2535 24.5L30.5436 31.6293C29.7866 32.4336 29.8249 33.6994 30.6293 34.4564C31.4336 35.2134 32.6994 35.1751 33.4564 34.3707L41.4564 25.8707C42.1812 25.1006 42.1812 23.8994 41.4564 23.1293L33.4564 14.6293C32.6994 13.8249 31.4336 13.7866 30.6293 14.5436Z" fill="black"/>
</svg>
