<svg width="48" height="48" viewBox="0 0 48 48" fill="none" xmlns="http://www.w3.org/2000/svg">
<path d="M6.12964 35.582C6.12964 33.9414 5.77808 27.4668 10.8855 22.3301C14.323 18.873 19.4675 18.2734 25.6199 18V7.69308C25.6199 7.04233 26.3919 6.70036 26.8738 7.13761L43.0139 21.7803C43.3397 22.0759 43.3423 22.5871 43.0195 22.886L26.8795 37.8335C26.3994 38.2781 25.6199 37.9376 25.6199 37.2832V27C21.7136 27.1074 18.9311 27.3559 16.4031 28.1602C11.4454 29.7374 8.53301 36.5766 7.80261 38.4969C7.68785 38.7986 7.40213 39 7.0793 39H6.86987C6.45566 39 6.11996 38.6644 6.12117 38.2502C6.12382 37.3369 6.12964 36.2529 6.12964 35.582Z" fill="black"/>
</svg>
