<svg width="48" height="48" viewBox="0 0 48 48" fill="none" xmlns="http://www.w3.org/2000/svg">
<rect opacity="0.3" x="8" y="22" width="34" height="4" rx="1" fill="black"/>
<path fill-rule="evenodd" clip-rule="evenodd" d="M24.1199 38.32C19.9999 38.32 16.5599 36.32 14.8799 33.92L17.6399 31.52C18.9999 33.28 21.3199 34.84 24.0799 34.84C27.3599 34.84 29.4399 33.32 29.4399 30.84C29.4399 28.24 27.8399 26.88 24.7999 25.56L22.1999 24.44C17.8799 22.6 15.9999 19.96 15.9999 16.4C15.9999 12.08 20.0799 9.28 24.2799 9.28C27.5999 9.28 30.3199 10.6 32.2399 12.92L29.6799 15.48C28.1999 13.72 26.6399 12.76 24.1599 12.76C21.7599 12.76 19.6399 14.12 19.6399 16.48C19.6399 18.56 20.8399 19.96 23.8399 21.28L26.4399 22.4C30.2799 24.08 33.1199 26.44 33.1199 30.44C33.1199 35.08 29.6799 38.32 24.1199 38.32Z" fill="black"/>
</svg>
