<?xml version="1.0" encoding="UTF-8"?><!DOCTYPE svg PUBLIC "-//W3C//DTD SVG 1.1//EN" "http://www.w3.org/Graphics/SVG/1.1/DTD/svg11.dtd"><svg xmlns="http://www.w3.org/2000/svg" xmlns:xlink="http://www.w3.org/1999/xlink"><defs/><symbol id="air-conditioning" viewBox="0 0 48 48"><path fill-rule="evenodd" clip-rule="evenodd" d="M5 6a1 1 0 0 0-1 1v16a1 1 0 0 0 1 1h38a1 1 0 0 0 1-1V7a1 1 0 0 0-1-1H5Zm4 10a1 1 0 0 0-1 1v2a1 1 0 0 0 1 1h30a1 1 0 0 0 1-1v-2a1 1 0 0 0-1-1H9Z"/><path style="fill: var(--opacity, #fff)" opacity=".3" fill-rule="evenodd" clip-rule="evenodd" d="m13.417 31.411-2.834-2.822a9.375 9.375 0 0 0 1.033 14.126l1.187.887 2.394-3.204-1.188-.887a5.375 5.375 0 0 1-.592-8.1Zm21.166-2.822 2.834 2.822a5.375 5.375 0 0 0 .592 8.1l1.188.886-2.394 3.205-1.187-.887a9.376 9.376 0 0 1-1.033-14.126Zm-12 2 2.834 2.822a5.375 5.375 0 0 0 .592 8.1l1.188.886-2.394 3.205-1.187-.887a9.376 9.376 0 0 1-1.033-14.126Z"/></symbol><symbol id="blender" viewBox="0 0 48 48"><path fill-rule="evenodd" clip-rule="evenodd" d="M11.906 6.033c.048 0 .096 0 .143.003.152-.046 8.592-.048 25.32-.007a2 2 0 0 1 1.921 2.54L38.89 10H29a1 1 0 0 0-1 1v2a1 1 0 0 0 1 1h8.768l-1.121 4H29a1 1 0 0 0-1 1v2a1 1 0 0 0 1 1h6.526l-1.121 4H29a1 1 0 0 0-1 1v2a1 1 0 0 0 1 1h4.284l-1.282 4.573a2 2 0 0 1-1.926 1.46H15.938c-1.937 0-4-8.626-4-8.626C9.643 25.897 6 21.822 6 17.033c0-6.075 2.644-11 5.906-11Zm.984 4c-1.968 1-2.953 2.264-2.953 6 0 4.16 2.51 6 2.954 6v-12Z"/><path style="fill: var(--opacity, #fff)" opacity=".3" fill-rule="evenodd" clip-rule="evenodd" d="M10 38a2 2 0 0 0-2 2v5.5a.5.5 0 0 0 .5.5h27a.5.5 0 0 0 .5-.5V40a2 2 0 0 0-2-2H10Zm14 4a2 2 0 1 1-4 0 2 2 0 0 1 4 0Z"/></symbol><symbol id="fan" viewBox="0 0 48 48"><path style="fill: var(--opacity, #fff)" opacity=".3" fill-rule="evenodd" clip-rule="evenodd" d="M46.749 37.794c-2.486 4.305-9.929 4.66-16.625.794s-10.11-10.49-7.624-14.794c2.485-4.305 9.928-4.66 16.624-.794 6.696 3.866 10.11 10.49 7.625 14.794Z"/><path opacity=".3" fill-rule="evenodd" clip-rule="evenodd" d="M25 4c-4.97 0-9 6.268-9 14s4.03 14 9 14 9-6.268 9-14-4.03-14-9-14Z"/><path opacity=".3" fill-rule="evenodd" clip-rule="evenodd" d="M2.5 37.794C.015 33.49 3.428 26.866 10.124 23c6.696-3.866 14.14-3.51 16.625.794 2.485 4.305-.929 10.928-7.625 14.794-6.696 3.866-14.139 3.51-16.624-.794Z"/></symbol><symbol id="fridge" viewBox="0 0 48 48"><path fill-rule="evenodd" clip-rule="evenodd" d="M11 2a1 1 0 0 0-1 1v13h4V9a1 1 0 0 1 1-1h2a1 1 0 0 1 1 1v7h20V3a1 1 0 0 0-1-1H11Zm3 18h-4v25a1 1 0 0 0 1 1h26a1 1 0 0 0 1-1V20H18v13a1 1 0 0 1-1 1h-2a1 1 0 0 1-1-1V20Z"/></symbol><symbol id="gas-stove" viewBox="0 0 48 48"><path fill-rule="evenodd" clip-rule="evenodd" d="M42 20H6V10a2 2 0 0 1 2-2h32a2 2 0 0 1 2 2v10Zm-10-8a2 2 0 1 0 0 4 2 2 0 0 0 0-4Zm-16 0a2 2 0 1 0 0 4 2 2 0 0 0 0-4Zm26 10v20a2 2 0 0 1-2 2H8a2 2 0 0 1-2-2V22h36Zm-28 6.333c0-1.288.895-2.333 2-2.333h16c1.105 0 2 1.045 2 2.333v9.334C34 38.955 33.105 40 32 40H16c-1.105 0-2-1.045-2-2.333v-9.334Z"/><path style="fill: var(--opacity, #fff)" opacity=".3" fill-rule="evenodd" clip-rule="evenodd" d="M11 6a1 1 0 0 0-1 1v1h12V7a1 1 0 0 0-1-1H11Zm20 0a1 1 0 0 0-1 1v1h8V7a1 1 0 0 0-1-1h-6Z"/></symbol><symbol id="hair-dryer" viewBox="0 0 48 48"><path style="fill: var(--opacity, #fff)" opacity=".3" fill-rule="evenodd" clip-rule="evenodd" d="M42 10h-6v14h6V10ZM9.17 25.563l9.66-2.588 4.494 16.77a2.5 2.5 0 0 1-1.768 3.063l-4.83 1.294a2.5 2.5 0 0 1-3.062-1.768l-4.493-16.77Zm13.827 6.322a2.5 2.5 0 0 1 4.83-1.294l.259.966a2.5 2.5 0 0 1-4.83 1.294l-.259-.966Z"/><path fill-rule="evenodd" clip-rule="evenodd" d="M14.92 9.46a8.92 8.92 0 0 0 0 17.84H34V9.46H14.92ZM18 18a4 4 0 1 1-8 0 4 4 0 0 1 8 0Z"/></symbol><symbol id="highvoltage" viewBox="0 0 48 48"><path fill-rule="evenodd" clip-rule="evenodd" d="M3.805 40a1 1 0 0 1-.867-1.498L23.133 3.395a1 1 0 0 1 1.734 0l20.195 35.107A1 1 0 0 1 44.195 40H3.805ZM30 24l-8 12v-8h-4l7.889-12v8H30Z"/></symbol><symbol id="iron" viewBox="0 0 48 48"><path style="fill: var(--opacity, #fff)" opacity=".3" fill-rule="evenodd" clip-rule="evenodd" d="M46 14H34v4h12v-4Zm-8 26 2.286-4H4.284A28.237 28.237 0 0 0 4 40h34Z"/><path fill-rule="evenodd" clip-rule="evenodd" d="M42.571 32H5.16C8.602 20.434 19.316 10 32 10h3l11 16-3.429 6ZM21.98 17.717A2.306 2.306 0 0 0 20 20a2 2 0 0 0 2 2h9a3 3 0 0 0 3-3 2.603 2.603 0 0 0-2.97-2.576l-9.05 1.293ZM14 28a2 2 0 1 0 0-4 2 2 0 0 0 0 4Z"/></symbol><symbol id="kettle" viewBox="0 0 48 48"><path fill-rule="evenodd" clip-rule="evenodd" d="M36 4c3.314 0 6 4.925 6 11 0 4.79-1.67 8.864-4 10.374V38H12V18.414a1 1 0 0 0-.293-.707l-2.96-2.96c-.408-.456-.37-1.088.042-1.455C13.853 8.789 17.924 6.025 21 5c2.832-.944 14.611-1.069 14.854-.997A3.33 3.33 0 0 1 36 4Zm-1 18c.45 0 3-3.84 3-8 0-3.736-1-5-3-6v14Zm-13 8h2a2 2 0 0 0 0-4h-2v-2h2a2 2 0 0 0 0-4h-2v-2h2a2 2 0 0 0 0-4h-2a4 4 0 1 1 8 0v16a4 4 0 0 1-8 0Z"/><path style="fill: var(--opacity, #fff)" opacity=".3" d="M10 41a1 1 0 0 1 1-1h28a1 1 0 0 1 1 1v3H10v-3Z"/></symbol><symbol id="mixer" viewBox="0 0 48 48"><path fill-rule="evenodd" clip-rule="evenodd" d="M16.845 14.392a1 1 0 0 1-.266-.979l1.107-4.057a3 3 0 0 1 2.668-2.202L35.599 6l2.121 2.121c2.143 2.143 5.022 5.4 8.635 9.77a4 4 0 0 1 .546 4.232l-5.117 11.031a3 3 0 0 1-4.817.884L16.845 14.392Zm24.24 4.05-5.486-7.314a2.602 2.602 0 0 0-3.921-.279 3 3 0 0 0 0 4.243l6.364 6.364a2 2 0 0 0 2.828 0 2.306 2.306 0 0 0 .214-3.014Z"/><path style="fill: var(--opacity, #fff)" opacity=".3" fill-rule="evenodd" clip-rule="evenodd" d="m20.753 28.464 3.327 3.327a3.137 3.137 0 0 1 0 4.435l-6.654 6.654a3.137 3.137 0 0 1-4.435 0l-8.872-8.872a3.137 3.137 0 0 1 0-4.435l6.654-6.654a3.137 3.137 0 0 1 4.435 0l3.327 3.327 3.327-3.327 2.218 2.218-3.327 3.327Zm-6.1 11.644 6.655-6.654-1.11-1.109-6.653 6.654 1.109 1.109Zm-3.326-3.327 6.654-6.654-1.11-1.109-6.653 6.654 1.109 1.109ZM8 33.454l6.654-6.654-1.109-1.109-6.654 6.654 1.11 1.109Z"/></symbol><symbol id="outlet" viewBox="0 0 48 48"><path style="fill: var(--opacity, #fff)" opacity=".3" fill-rule="evenodd" clip-rule="evenodd" d="M17.5 8A1.5 1.5 0 0 0 16 9.5V18h4V9.5A1.5 1.5 0 0 0 18.5 8h-1Zm12 0A1.5 1.5 0 0 0 28 9.5V18h4V9.5A1.5 1.5 0 0 0 30.5 8h-1Z"/><path fill-rule="evenodd" clip-rule="evenodd" d="M38 18H10v8a8 8 0 0 0 8 8h4v10h4V34h4a8 8 0 0 0 8-8v-8Z"/></symbol><symbol id="range-hood" viewBox="0 0 48 48"><path fill-rule="evenodd" clip-rule="evenodd" d="M6.553 31.724 18 26h12l11.447 5.724a1 1 0 0 1 .553.894V41a1 1 0 0 1-1 1H7a1 1 0 0 1-1-1v-8.382a1 1 0 0 1 .553-.894ZM38 36a2 2 0 1 1-4 0 2 2 0 0 1 4 0Zm-8 2a2 2 0 1 0 0-4 2 2 0 0 0 0 4Zm-4-2a2 2 0 1 1-4 0 2 2 0 0 1 4 0Z"/><path style="fill: var(--opacity, #fff)" opacity=".3" fill-rule="evenodd" clip-rule="evenodd" d="M18 26h12V5a1 1 0 0 0-1-1H19a1 1 0 0 0-1 1v21Z"/></symbol><symbol id="shutdown" viewBox="0 0 48 48"><path d="M15.246 10.605a2 2 0 1 1 2.191 3.347A11.986 11.986 0 0 0 12 24c0 6.627 5.373 12 12 12s12-5.373 12-12c0-4.009-1.978-7.68-5.225-9.906a2 2 0 0 1 2.262-3.3A15.982 15.982 0 0 1 40 24c0 8.837-7.163 16-16 16S8 32.837 8 24a15.985 15.985 0 0 1 7.246-13.395Z"/><rect style="fill: var(--opacity, #fff)" opacity=".3" x="22" y="6" width="4" height="20" rx="1"/></symbol><symbol id="socket-eu" viewBox="0 0 48 48"><path fill-rule="evenodd" clip-rule="evenodd" d="M22 6.11C13 7.105 6 14.735 6 24s7 16.895 16 17.89V37a1 1 0 0 1 1-1h2a1 1 0 0 1 1 1v4.89c9-.995 16-8.625 16-17.89S35 7.105 26 6.11V11a1 1 0 0 1-1 1h-2a1 1 0 0 1-1-1V6.11ZM17 26a3 3 0 1 0 0-6 3 3 0 0 0 0 6Zm17-3a3 3 0 1 1-6 0 3 3 0 0 1 6 0Z"/></symbol><symbol id="socket-us" viewBox="0 0 48 48"><path fill-rule="evenodd" clip-rule="evenodd" d="M9 8a1 1 0 0 0-1 1v30a1 1 0 0 0 1 1h30a1 1 0 0 0 1-1V9a1 1 0 0 0-1-1H9Zm8.5 6a1.5 1.5 0 0 0-1.5 1.5v7a1.5 1.5 0 0 0 1.5 1.5h1a1.5 1.5 0 0 0 1.5-1.5v-7a1.5 1.5 0 0 0-1.5-1.5h-1ZM21 33a3 3 0 1 1 6 0v3h-6v-3Zm8.5-19a1.5 1.5 0 0 0-1.5 1.5v7a1.5 1.5 0 0 0 1.5 1.5h1a1.5 1.5 0 0 0 1.5-1.5v-7a1.5 1.5 0 0 0-1.5-1.5h-1Z"/></symbol><symbol id="washer" viewBox="0 0 48 48"><path fill-rule="evenodd" clip-rule="evenodd" d="M12 4h24a6 6 0 0 1 6 6v30a6 6 0 0 1-6 6H12a6 6 0 0 1-6-6V10a6 6 0 0 1 6-6Zm0 4a2 2 0 0 0-2 2v6h28v-6a2 2 0 0 0-2-2H12Zm0 23c0 6.627 5.373 12 12 12s12-5.373 12-12-5.373-12-12-12-12 5.373-12 12Zm2-17a2 2 0 1 0 0-4 2 2 0 0 0 0 4Zm8-2a2 2 0 1 1-4 0 2 2 0 0 1 4 0Z"/><path style="fill: var(--opacity, #fff)" opacity=".3" fill-rule="evenodd" clip-rule="evenodd" d="M24 39a8 8 0 1 0 0-16 8 8 0 0 0 0 16Z"/></symbol></svg>