<?xml version="1.0" encoding="UTF-8"?><!DOCTYPE svg PUBLIC "-//W3C//DTD SVG 1.1//EN" "http://www.w3.org/Graphics/SVG/1.1/DTD/svg11.dtd"><svg xmlns="http://www.w3.org/2000/svg" xmlns:xlink="http://www.w3.org/1999/xlink"><defs/><symbol id="air-conditioning" viewBox="0 0 48 48"><path fill-rule="evenodd" clip-rule="evenodd" d="M5 6a1 1 0 00-1 1v16a1 1 0 001 1h38a1 1 0 001-1V7a1 1 0 00-1-1H5zm4 10a1 1 0 00-1 1v2a1 1 0 001 1h30a1 1 0 001-1v-2a1 1 0 00-1-1H9z"/><path style="fill: var(--opacity, #fff)" opacity=".3" fill-rule="evenodd" clip-rule="evenodd" d="M13.417 31.411l-2.834-2.822a9.375 9.375 0 001.033 14.126l1.187.887 2.394-3.204-1.188-.887a5.375 5.375 0 01-.592-8.1zm21.166-2.822l2.834 2.822a5.375 5.375 0 00.592 8.1l1.188.886-2.394 3.205-1.187-.887a9.376 9.376 0 01-1.033-14.126zm-12 2l2.834 2.822a5.375 5.375 0 00.592 8.1l1.188.886-2.394 3.205-1.187-.887a9.376 9.376 0 01-1.033-14.126z"/></symbol><symbol id="blender" viewBox="0 0 48 48"><path fill-rule="evenodd" clip-rule="evenodd" d="M11.906 6.033c.048 0 .096 0 .143.003.152-.046 8.592-.048 25.32-.007a2 2 0 011.921 2.54L38.89 10H29a1 1 0 00-1 1v2a1 1 0 001 1h8.768l-1.121 4H29a1 1 0 00-1 1v2a1 1 0 001 1h6.526l-1.121 4H29a1 1 0 00-1 1v2a1 1 0 001 1h4.284l-1.282 4.573a2 2 0 01-1.926 1.46H15.938c-1.937 0-4-8.626-4-8.626C9.643 25.897 6 21.822 6 17.033c0-6.075 2.644-11 5.906-11zm.984 4c-1.968 1-2.953 2.264-2.953 6 0 4.16 2.51 6 2.954 6v-12z"/><path style="fill: var(--opacity, #fff)" opacity=".3" fill-rule="evenodd" clip-rule="evenodd" d="M10 38a2 2 0 00-2 2v5.5a.5.5 0 00.5.5h27a.5.5 0 00.5-.5V40a2 2 0 00-2-2H10zm14 4a2 2 0 11-4 0 2 2 0 014 0z"/></symbol><symbol id="fan" viewBox="0 0 48 48"><path style="fill: var(--opacity, #fff)" opacity=".3" fill-rule="evenodd" clip-rule="evenodd" d="M46.749 37.794c-2.486 4.305-9.929 4.66-16.625.794s-10.11-10.49-7.624-14.794c2.485-4.305 9.928-4.66 16.624-.794 6.696 3.866 10.11 10.49 7.625 14.794z"/><path opacity=".3" fill-rule="evenodd" clip-rule="evenodd" d="M25 4c-4.97 0-9 6.268-9 14s4.03 14 9 14 9-6.268 9-14-4.03-14-9-14z"/><path opacity=".3" fill-rule="evenodd" clip-rule="evenodd" d="M2.5 37.794C.015 33.49 3.428 26.866 10.124 23c6.696-3.866 14.14-3.51 16.625.794 2.485 4.305-.929 10.928-7.625 14.794-6.696 3.866-14.139 3.51-16.624-.794z"/></symbol><symbol id="fridge" viewBox="0 0 48 48"><path fill-rule="evenodd" clip-rule="evenodd" d="M11 2a1 1 0 00-1 1v13h4V9a1 1 0 011-1h2a1 1 0 011 1v7h20V3a1 1 0 00-1-1H11zm3 18h-4v25a1 1 0 001 1h26a1 1 0 001-1V20H18v13a1 1 0 01-1 1h-2a1 1 0 01-1-1V20z"/></symbol><symbol id="gas-stove" viewBox="0 0 48 48"><path fill-rule="evenodd" clip-rule="evenodd" d="M42 20H6V10a2 2 0 012-2h32a2 2 0 012 2v10zm-10-8a2 2 0 100 4 2 2 0 000-4zm-16 0a2 2 0 100 4 2 2 0 000-4zm26 10v20a2 2 0 01-2 2H8a2 2 0 01-2-2V22h36zm-28 6.333c0-1.288.895-2.333 2-2.333h16c1.105 0 2 1.045 2 2.333v9.334C34 38.955 33.105 40 32 40H16c-1.105 0-2-1.045-2-2.333v-9.334z"/><path style="fill: var(--opacity, #fff)" opacity=".3" fill-rule="evenodd" clip-rule="evenodd" d="M11 6a1 1 0 00-1 1v1h12V7a1 1 0 00-1-1H11zm20 0a1 1 0 00-1 1v1h8V7a1 1 0 00-1-1h-6z"/></symbol><symbol id="hair-dryer" viewBox="0 0 48 48"><path style="fill: var(--opacity, #fff)" opacity=".3" fill-rule="evenodd" clip-rule="evenodd" d="M42 10h-6v14h6V10zM9.17 25.563l9.66-2.588 4.494 16.77a2.5 2.5 0 01-1.768 3.063l-4.83 1.294a2.5 2.5 0 01-3.062-1.768l-4.493-16.77zm13.827 6.322a2.5 2.5 0 014.83-1.294l.259.966a2.5 2.5 0 01-4.83 1.294l-.259-.966z"/><path fill-rule="evenodd" clip-rule="evenodd" d="M14.92 9.46a8.92 8.92 0 000 17.84H34V9.46H14.92zM18 18a4 4 0 11-8 0 4 4 0 018 0z"/></symbol><symbol id="highvoltage" viewBox="0 0 48 48"><path fill-rule="evenodd" clip-rule="evenodd" d="M3.805 40a1 1 0 01-.867-1.498L23.133 3.395a1 1 0 011.734 0l20.195 35.107A1 1 0 0144.195 40H3.805zM30 24l-8 12v-8h-4l7.889-12v8H30z"/></symbol><symbol id="iron" viewBox="0 0 48 48"><path style="fill: var(--opacity, #fff)" opacity=".3" fill-rule="evenodd" clip-rule="evenodd" d="M46 14H34v4h12v-4zm-8 26l2.286-4H4.284A28.237 28.237 0 004 40h34z"/><path fill-rule="evenodd" clip-rule="evenodd" d="M42.571 32H5.16C8.602 20.434 19.316 10 32 10h3l11 16-3.429 6zM21.98 17.717A2.306 2.306 0 0020 20a2 2 0 002 2h9a3 3 0 003-3 2.603 2.603 0 00-2.97-2.576l-9.05 1.293zM14 28a2 2 0 100-4 2 2 0 000 4z"/></symbol><symbol id="kettle" viewBox="0 0 48 48"><path fill-rule="evenodd" clip-rule="evenodd" d="M36 4c3.314 0 6 4.925 6 11 0 4.79-1.67 8.864-4 10.374V38H12V18.414a1 1 0 00-.293-.707l-2.96-2.96c-.408-.456-.37-1.088.042-1.455C13.853 8.789 17.924 6.025 21 5c2.832-.944 14.611-1.069 14.854-.997A3.33 3.33 0 0136 4zm-1 18c.45 0 3-3.84 3-8 0-3.736-1-5-3-6v14zm-13 8h2a2 2 0 000-4h-2v-2h2a2 2 0 000-4h-2v-2h2a2 2 0 000-4h-2a4 4 0 118 0v16a4 4 0 01-8 0z"/><path style="fill: var(--opacity, #fff)" opacity=".3" d="M10 41a1 1 0 011-1h28a1 1 0 011 1v3H10v-3z"/></symbol><symbol id="mixer" viewBox="0 0 48 48"><path fill-rule="evenodd" clip-rule="evenodd" d="M16.845 14.392a1 1 0 01-.266-.979l1.107-4.057a3 3 0 012.668-2.202L35.599 6l2.121 2.121c2.143 2.143 5.022 5.4 8.635 9.77a4 4 0 01.546 4.232l-5.117 11.031a3 3 0 01-4.817.884L16.845 14.392zm24.24 4.05l-5.486-7.314a2.602 2.602 0 00-3.921-.279 3 3 0 000 4.243l6.364 6.364a2 2 0 002.828 0 2.306 2.306 0 00.214-3.014z"/><path style="fill: var(--opacity, #fff)" opacity=".3" fill-rule="evenodd" clip-rule="evenodd" d="M20.753 28.464l3.327 3.327a3.137 3.137 0 010 4.435l-6.654 6.654a3.137 3.137 0 01-4.435 0l-8.872-8.872a3.137 3.137 0 010-4.435l6.654-6.654a3.137 3.137 0 014.435 0l3.327 3.327 3.327-3.327 2.218 2.218-3.327 3.327zm-6.1 11.644l6.655-6.654-1.11-1.109-6.653 6.654 1.109 1.109zm-3.326-3.327l6.654-6.654-1.11-1.109-6.653 6.654 1.109 1.109zM8 33.454l6.654-6.654-1.109-1.109-6.654 6.654 1.11 1.109z"/></symbol><symbol id="outlet" viewBox="0 0 48 48"><path style="fill: var(--opacity, #fff)" opacity=".3" fill-rule="evenodd" clip-rule="evenodd" d="M17.5 8A1.5 1.5 0 0016 9.5V18h4V9.5A1.5 1.5 0 0018.5 8h-1zm12 0A1.5 1.5 0 0028 9.5V18h4V9.5A1.5 1.5 0 0030.5 8h-1z"/><path fill-rule="evenodd" clip-rule="evenodd" d="M38 18H10v8a8 8 0 008 8h4v10h4V34h4a8 8 0 008-8v-8z"/></symbol><symbol id="range-hood" viewBox="0 0 48 48"><path fill-rule="evenodd" clip-rule="evenodd" d="M6.553 31.724L18 26h12l11.447 5.724a1 1 0 01.553.894V41a1 1 0 01-1 1H7a1 1 0 01-1-1v-8.382a1 1 0 01.553-.894zM38 36a2 2 0 11-4 0 2 2 0 014 0zm-8 2a2 2 0 100-4 2 2 0 000 4zm-4-2a2 2 0 11-4 0 2 2 0 014 0z"/><path style="fill: var(--opacity, #fff)" opacity=".3" fill-rule="evenodd" clip-rule="evenodd" d="M18 26h12V5a1 1 0 00-1-1H19a1 1 0 00-1 1v21z"/></symbol><symbol id="shutdown" viewBox="0 0 48 48"><path d="M15.246 10.605a2 2 0 112.191 3.347A11.986 11.986 0 0012 24c0 6.627 5.373 12 12 12s12-5.373 12-12c0-4.009-1.978-7.68-5.225-9.906a2 2 0 012.262-3.3A15.982 15.982 0 0140 24c0 8.837-7.163 16-16 16S8 32.837 8 24a15.985 15.985 0 017.246-13.395z"/><rect style="fill: var(--opacity, #fff)" opacity=".3" x="22" y="6" width="4" height="20" rx="1" fill="#000"/></symbol><symbol id="socket-eu" viewBox="0 0 48 48"><path fill-rule="evenodd" clip-rule="evenodd" d="M22 6.11C13 7.105 6 14.735 6 24s7 16.895 16 17.89V37a1 1 0 011-1h2a1 1 0 011 1v4.89c9-.995 16-8.625 16-17.89S35 7.105 26 6.11V11a1 1 0 01-1 1h-2a1 1 0 01-1-1V6.11zM17 26a3 3 0 100-6 3 3 0 000 6zm17-3a3 3 0 11-6 0 3 3 0 016 0z"/></symbol><symbol id="socket-us" viewBox="0 0 48 48"><path fill-rule="evenodd" clip-rule="evenodd" d="M9 8a1 1 0 00-1 1v30a1 1 0 001 1h30a1 1 0 001-1V9a1 1 0 00-1-1H9zm8.5 6a1.5 1.5 0 00-1.5 1.5v7a1.5 1.5 0 001.5 1.5h1a1.5 1.5 0 001.5-1.5v-7a1.5 1.5 0 00-1.5-1.5h-1zM21 33a3 3 0 116 0v3h-6v-3zm8.5-19a1.5 1.5 0 00-1.5 1.5v7a1.5 1.5 0 001.5 1.5h1a1.5 1.5 0 001.5-1.5v-7a1.5 1.5 0 00-1.5-1.5h-1z"/></symbol><symbol id="washer" viewBox="0 0 48 48"><path fill-rule="evenodd" clip-rule="evenodd" d="M12 4h24a6 6 0 016 6v30a6 6 0 01-6 6H12a6 6 0 01-6-6V10a6 6 0 016-6zm0 4a2 2 0 00-2 2v6h28v-6a2 2 0 00-2-2H12zm0 23c0 6.627 5.373 12 12 12s12-5.373 12-12-5.373-12-12-12-12 5.373-12 12zm2-17a2 2 0 100-4 2 2 0 000 4zm8-2a2 2 0 11-4 0 2 2 0 014 0z"/><path style="fill: var(--opacity, #fff)" opacity=".3" fill-rule="evenodd" clip-rule="evenodd" d="M24 39a8 8 0 100-16 8 8 0 000 16z"/></symbol></svg>