<?xml version="1.0" encoding="UTF-8"?><!DOCTYPE svg PUBLIC "-//W3C//DTD SVG 1.1//EN" "http://www.w3.org/Graphics/SVG/1.1/DTD/svg11.dtd"><svg xmlns="http://www.w3.org/2000/svg" xmlns:xlink="http://www.w3.org/1999/xlink"><defs/><symbol id="add_to_queue" viewBox="0 0 24 24"><path d="M21 17H3V5h18v12zm0-14H3c-1.11 0-2 .89-2 2v12a2 2 0 0 0 2 2h5v2h8v-2h5c1.1 0 1.99-.9 1.99-2L23 5a2 2 0 0 0-2-2z"/><path d="M16 10v2h-3v3h-2v-3H8v-2h3V7h2v3h3z"/></symbol><symbol id="airplay" viewBox="0 0 24 24"><path d="M6 22h12l-6-6z"/><path d="M21 3H3c-1.1 0-2 .9-2 2v12c0 1.1.9 2 2 2h4v-2H3V5h18v12h-4v2h4c1.1 0 2-.9 2-2V5c0-1.1-.9-2-2-2z"/></symbol><symbol id="album" viewBox="0 0 24 24"><path d="M12 16.5c-2.49 0-4.5-2.01-4.5-4.5S9.51 7.5 12 7.5s4.5 2.01 4.5 4.5-2.01 4.5-4.5 4.5zM12 2C6.48 2 2 6.48 2 12s4.48 10 10 10 10-4.48 10-10S17.52 2 12 2z"/><path d="M12 11c-.55 0-1 .45-1 1s.45 1 1 1 1-.45 1-1-.45-1-1-1z"/></symbol><symbol id="art_track" viewBox="0 0 24 24"><path d="M22 13h-8v-2h8zM22 7h-8v2h8zM14 17h8v-2h-8zM10.5 15l-2.25-3-1.75 2.26-1.25-1.51L3.5 15zM12 9v6c0 1.1-.9 2-2 2H4c-1.1 0-2-.9-2-2V9c0-1.1.9-2 2-2h6c1.1 0 2 .9 2 2z"/></symbol><symbol id="av_timer" viewBox="0 0 24 24"><path d="M11 17c0 .55.45 1 1 1s1-.45 1-1-.45-1-1-1-1 .45-1 1z"/><path d="M11 3v4h2V5.08c3.39.49 6 3.39 6 6.92 0 3.87-3.13 7-7 7s-7-3.13-7-7c0-1.68.59-3.22 1.58-4.42L12 13l1.41-1.41-6.8-6.8v.02C4.42 6.45 3 9.05 3 12c0 4.97 4.02 9 9 9a9 9 0 0 0 0-18h-1z"/><path d="M18 12c0-.55-.45-1-1-1s-1 .45-1 1 .45 1 1 1 1-.45 1-1zM6 12c0 .55.45 1 1 1s1-.45 1-1-.45-1-1-1-1 .45-1 1z"/></symbol><symbol id="branding_watermark" viewBox="0 0 24 24"><path d="M21 3H3c-1.1 0-2 .9-2 2v14c0 1.1.9 2 2 2h18c1.1 0 2-.9 2-2V5c0-1.1-.9-2-2-2zm0 16h-9v-6h9v6z"/></symbol><symbol id="call_to_action" viewBox="0 0 24 24"><path d="M21 3H3c-1.1 0-2 .9-2 2v14c0 1.1.9 2 2 2h18c1.1 0 2-.9 2-2V5c0-1.1-.9-2-2-2zm0 16H3v-3h18v3z"/></symbol><symbol id="closed_caption" viewBox="0 0 24 24"><path d="M19 4H5a2 2 0 0 0-2 2v12a2 2 0 0 0 2 2h14c1.1 0 2-.9 2-2V6c0-1.1-.9-2-2-2zm-8 7H9.5v-.5h-2v3h2V13H11v1c0 .55-.45 1-1 1H7c-.55 0-1-.45-1-1v-4c0-.55.45-1 1-1h3c.55 0 1 .45 1 1v1zm7 0h-1.5v-.5h-2v3h2V13H18v1c0 .55-.45 1-1 1h-3c-.55 0-1-.45-1-1v-4c0-.55.45-1 1-1h3c.55 0 1 .45 1 1v1z"/></symbol><symbol id="equalizer" viewBox="0 0 24 24"><path d="M10 20h4V4h-4zM4 20h4v-8H4zM16 9v11h4V9z"/></symbol><symbol id="explicit" viewBox="0 0 24 24"><path d="M19 3H5c-1.1 0-2 .9-2 2v14c0 1.1.9 2 2 2h14c1.1 0 2-.9 2-2V5c0-1.1-.9-2-2-2zm-4 6h-4v2h4v2h-4v2h4v2H9V7h6v2z"/></symbol><symbol id="fast_forward" viewBox="0 0 24 24"><path d="m4 18 8.5-6L4 6zM13 6v12l8.5-6z"/></symbol><symbol id="fast_rewind" viewBox="0 0 24 24"><path d="M11 18V6l-8.5 6zM11.5 12l8.5 6V6z"/></symbol><symbol id="featured_play_list" viewBox="0 0 24 24"><path d="M21 3H3c-1.1 0-2 .9-2 2v14c0 1.1.9 2 2 2h18c1.1 0 2-.9 2-2V5c0-1.1-.9-2-2-2zm-9 8H3V9h9v2zm0-4H3V5h9v2z"/></symbol><symbol id="featured_video" viewBox="0 0 24 24"><path d="M21 3H3c-1.1 0-2 .9-2 2v14c0 1.1.9 2 2 2h18c1.1 0 2-.9 2-2V5c0-1.1-.9-2-2-2zm-9 9H3V5h9v7z"/></symbol><symbol id="fiber_manual_record" viewBox="0 0 24 24"><circle cx="12" cy="12" r="8"/></symbol><symbol id="fibre_dvr" viewBox="0 0 24 24"><path d="M17.5 10.5h2v1h-2zm-13 0h2v3h-2zM21 3H3c-1.11 0-2 .89-2 2v14a2 2 0 0 0 2 2h18a2 2 0 0 0 2-2V5c0-1.11-.89-2-2-2zM8 13.5c0 .85-.65 1.5-1.5 1.5H3V9h3.5c.85 0 1.5.65 1.5 1.5v3zm4.62 1.5h-1.5L9.37 9h1.5l1 3.43 1-3.43h1.5l-1.75 6zM21 11.5c0 .6-.4 1.15-.9 1.4L21 15h-1.5l-.85-2H17.5v2H16V9h3.5c.85 0 1.5.65 1.5 1.5v1z"/></symbol><symbol id="fibre_new" viewBox="0 0 24 24"><path d="M20 4H4c-1.11 0-1.99.89-1.99 2L2 18c0 1.11.89 2 2 2h16c1.11 0 2-.89 2-2V6c0-1.11-.89-2-2-2zM8.5 15H7.3l-2.55-3.5V15H3.5V9h1.25l2.5 3.5V9H8.5v6zm5-4.74H11v1.12h2.5v1.26H11v1.11h2.5V15h-4V9h4v1.26zm7 3.74c0 .55-.45 1-1 1h-4c-.55 0-1-.45-1-1V9h1.25v4.51h1.13V9.99h1.25v3.51h1.12V9h1.25v5z"/></symbol><symbol id="fibre_pin" viewBox="0 0 24 24"><path d="M5.5 10.5h2v1h-2zM20 4H4c-1.11 0-1.99.89-1.99 2L2 18c0 1.11.89 2 2 2h16c1.11 0 2-.89 2-2V6c0-1.11-.89-2-2-2zM9 11.5c0 .85-.65 1.5-1.5 1.5h-2v2H4V9h3.5c.85 0 1.5.65 1.5 1.5v1zm3.5 3.5H11V9h1.5v6zm7.5 0h-1.2l-2.55-3.5V15H15V9h1.25l2.5 3.5V9H20v6z"/></symbol><symbol id="fibre_smart_record" viewBox="0 0 24 24"><path d="M17 4.26v2.09a5.99 5.99 0 0 1 0 11.3v2.09c3.45-.89 6-4.01 6-7.74s-2.55-6.85-6-7.74z"/></symbol><symbol id="forward_10" viewBox="0 0 24 24"><path d="M4 13c0 4.4 3.6 8 8 8s8-3.6 8-8h-2c0 3.3-2.7 6-6 6s-6-2.7-6-6 2.7-6 6-6v4l5-5-5-5v4c-4.4 0-8 3.6-8 8z"/><path d="M10.8 16H10v-3.3L9 13v-.7l1.8-.6h.1V16zM14.3 13.4v-.5s-.1-.2-.1-.3-.1-.1-.2-.2-.2-.1-.3-.1-.2 0-.3.1l-.2.2s-.1.2-.1.3v2s.1.2.1.3.1.1.2.2.2.1.3.1.2 0 .3-.1l.2-.2s.1-.2.1-.3zm.8.8c0 .3 0 .6-.1.8l-.3.6s-.3.3-.5.3-.4.1-.6.1-.4 0-.6-.1-.3-.2-.5-.3-.2-.3-.3-.6-.1-.5-.1-.8v-.7c0-.3 0-.6.1-.8l.3-.6s.3-.3.5-.3.4-.1.6-.1.4 0 .6.1.3.2.5.3.2.3.3.6.1.5.1.8z"/></symbol><symbol id="forward_30" viewBox="0 0 24 24"><path d="M9.6 13.5h.4c.2 0 .4-.1.5-.2s.2-.2.2-.4v-.2s-.1-.1-.1-.2-.1-.1-.2-.1h-.5s-.1.1-.2.1-.1.1-.1.2v.2h-1c0-.2 0-.3.1-.5s.2-.3.3-.4.3-.2.4-.2.4-.1.5-.1c.2 0 .4 0 .6.1s.3.1.5.2.2.2.3.4.1.3.1.5v.3s-.1.2-.1.3-.1.2-.2.2-.2.1-.3.2c.2.1.4.2.5.4s.2.4.2.6 0 .4-.1.5-.2.3-.3.4-.3.2-.5.2-.4.1-.6.1-.4 0-.5-.1-.3-.1-.5-.2-.2-.2-.3-.4-.1-.4-.1-.6h.8v.2s.1.1.1.2.1.1.2.1h.5s.1-.1.2-.1.1-.1.1-.2v-.5s-.1-.1-.1-.2-.1-.1-.2-.1h-.6zM14.4 13.4v-.5s-.1-.2-.1-.3-.1-.1-.2-.2-.2-.1-.3-.1-.2 0-.3.1l-.2.2s-.1.2-.1.3v2s.1.2.1.3.1.1.2.2.2.1.3.1.2 0 .3-.1l.2-.2s.1-.2.1-.3zm.9.8c0 .3 0 .6-.1.8l-.3.6s-.3.3-.5.3-.4.1-.6.1-.4 0-.6-.1-.3-.2-.5-.3-.2-.3-.3-.6-.1-.5-.1-.8v-.7c0-.3 0-.6.1-.8l.3-.6s.3-.3.5-.3.4-.1.6-.1.4 0 .6.1.3.2.5.3.2.3.3.6.1.5.1.8z"/><path d="M4 13c0 4.4 3.6 8 8 8s8-3.6 8-8h-2c0 3.3-2.7 6-6 6s-6-2.7-6-6 2.7-6 6-6v4l5-5-5-5v4c-4.4 0-8 3.6-8 8z"/></symbol><symbol id="forward_5" viewBox="0 0 24 24"><path d="M4 13c0 4.4 3.6 8 8 8s8-3.6 8-8h-2c0 3.3-2.7 6-6 6s-6-2.7-6-6 2.7-6 6-6v4l5-5-5-5v4c-4.4 0-8 3.6-8 8z"/><path d="m10.7 13.9.2-2.2h2.4v.7h-1.7l-.1.9s.1 0 .1-.1.1 0 .1-.1.1 0 .2 0h.2c.2 0 .4 0 .5.1s.3.2.4.3.2.3.3.5.1.4.1.6 0 .4-.1.5-.1.3-.3.5-.3.2-.5.3-.4.1-.6.1-.4 0-.5-.1-.3-.1-.5-.2-.2-.2-.3-.4-.1-.3-.1-.5h.8c0 .2.1.3.2.4s.2.1.4.1c.1 0 .2 0 .3-.1l.2-.2s.1-.2.1-.3v-.6l-.1-.2-.2-.2s-.2-.1-.3-.1h-.2s-.1 0-.2.1-.1 0-.1.1-.1.1-.1.1z"/></symbol><symbol id="games" viewBox="0 0 24 24"><path d="M15 7.5V2H9v5.5l3 3zM7.5 9H2v6h5.5l3-3zM9 16.5V22h6v-5.5l-3-3zM16.5 9l-3 3 3 3H22V9z"/></symbol><symbol id="hd" viewBox="0 0 24 24"><path d="M19 3H5a2 2 0 0 0-2 2v14a2 2 0 0 0 2 2h14c1.1 0 2-.9 2-2V5c0-1.1-.9-2-2-2zm-8 12H9.5v-2h-2v2H6V9h1.5v2.5h2V9H11v6zm2-6h4c.55 0 1 .45 1 1v4c0 .55-.45 1-1 1h-4V9zm1.5 4.5h2v-3h-2v3z"/></symbol><symbol id="hearing" viewBox="0 0 24 24"><path d="M17 20c-.29 0-.56-.06-.76-.15-.71-.37-1.21-.88-1.71-2.38-.51-1.56-1.47-2.29-2.39-3-.79-.61-1.61-1.24-2.32-2.53C9.29 10.98 9 9.93 9 9c0-2.8 2.2-5 5-5s5 2.2 5 5h2c0-3.93-3.07-7-7-7S7 5.07 7 9c0 1.26.38 2.65 1.07 3.9.91 1.65 1.98 2.48 2.85 3.15.81.62 1.39 1.07 1.71 2.05.6 1.82 1.37 2.84 2.73 3.55A3.999 3.999 0 0 0 21 18h-2c0 1.1-.9 2-2 2z"/><path d="M7.64 2.64 6.22 1.22C4.23 3.21 3 5.96 3 9s1.23 5.79 3.22 7.78l1.41-1.41C6.01 13.74 5 11.49 5 9s1.01-4.74 2.64-6.36zM11.5 9a2.5 2.5 0 0 0 5 0 2.5 2.5 0 0 0-5 0z"/></symbol><symbol id="high_quality" viewBox="0 0 24 24"><path d="M19 4H5a2 2 0 0 0-2 2v12a2 2 0 0 0 2 2h14c1.1 0 2-.9 2-2V6c0-1.1-.9-2-2-2zm-8 11H9.5v-2h-2v2H6V9h1.5v2.5h2V9H11v6zm7-1c0 .55-.45 1-1 1h-.75v1.5h-1.5V15H14c-.55 0-1-.45-1-1v-4c0-.55.45-1 1-1h3c.55 0 1 .45 1 1v4zm-3.5-.5h2v-3h-2v3z"/></symbol><symbol id="loop" viewBox="0 0 24 24"><path d="M12 4V1L8 5l4 4V6c3.31 0 6 2.69 6 6 0 1.01-.25 1.97-.7 2.8l1.46 1.46A7.93 7.93 0 0 0 20 12c0-4.42-3.58-8-8-8zM12 18c-3.31 0-6-2.69-6-6 0-1.01.25-1.97.7-2.8L5.24 7.74A7.93 7.93 0 0 0 4 12c0 4.42 3.58 8 8 8v3l4-4-4-4v3z"/></symbol><symbol id="mic_none" viewBox="0 0 24 24"><path d="M10.8 4.9c0-.66.54-1.2 1.2-1.2s1.2.54 1.2 1.2l-.01 6.2c0 .66-.53 1.2-1.19 1.2s-1.2-.54-1.2-1.2zM12 14c1.66 0 2.99-1.34 2.99-3L15 5c0-1.66-1.34-3-3-3S9 3.34 9 5v6c0 1.66 1.34 3 3 3z"/><path d="M17.3 11c0 3-2.54 5.1-5.3 5.1S6.7 14 6.7 11H5c0 3.41 2.72 6.23 6 6.72V21h2v-3.28c3.28-.48 6-3.3 6-6.72z"/></symbol><symbol id="mic_off" viewBox="0 0 24 24"><path d="M19 11h-1.7c0 .74-.16 1.43-.43 2.05l1.23 1.23c.56-.98.9-2.09.9-3.28zM14.98 11.17c0-.06.02-.11.02-.17V5c0-1.66-1.34-3-3-3S9 3.34 9 5v.18zM4.27 3 3 4.27l6.01 6.01V11c0 1.66 1.33 3 2.99 3 .22 0 .44-.03.65-.08l1.66 1.66c-.71.33-1.5.52-2.31.52-2.76 0-5.3-2.1-5.3-5.1H5c0 3.41 2.72 6.23 6 6.72V21h2v-3.28c.91-.13 1.77-.45 2.54-.9L19.73 21 21 19.73z"/></symbol><symbol id="mic" viewBox="0 0 24 24"><path d="M12 14c1.66 0 2.99-1.34 2.99-3L15 5c0-1.66-1.34-3-3-3S9 3.34 9 5v6c0 1.66 1.34 3 3 3z"/><path d="M17.3 11c0 3-2.54 5.1-5.3 5.1S6.7 14 6.7 11H5c0 3.41 2.72 6.23 6 6.72V21h2v-3.28c3.28-.48 6-3.3 6-6.72h-1.7z"/></symbol><symbol id="movie" viewBox="0 0 24 24"><path d="m18 4 2 4h-3l-2-4h-2l2 4h-3l-2-4H8l2 4H7L5 4H4c-1.1 0-1.99.9-1.99 2L2 18c0 1.1.9 2 2 2h16c1.1 0 2-.9 2-2V4h-4z"/></symbol><symbol id="music_video" viewBox="0 0 24 24"><path d="M21 19H3V5h18v14zm0-16H3c-1.1 0-2 .9-2 2v14c0 1.1.9 2 2 2h18c1.1 0 2-.9 2-2V5c0-1.1-.9-2-2-2z"/><path d="M8 15c0-1.66 1.34-3 3-3 .35 0 .69.07 1 .18V6h5v2h-3v7.03A3.003 3.003 0 0 1 11 18c-1.66 0-3-1.34-3-3z"/></symbol><symbol id="my_library_add" viewBox="0 0 24 24"><path d="M4 6H2v14c0 1.1.9 2 2 2h14v-2H4V6z"/><path d="M19 11h-4v4h-2v-4H9V9h4V5h2v4h4v2zm1-9H8c-1.1 0-2 .9-2 2v12c0 1.1.9 2 2 2h12c1.1 0 2-.9 2-2V4c0-1.1-.9-2-2-2z"/></symbol><symbol id="my_library_books" viewBox="0 0 24 24"><path d="M4 6H2v14c0 1.1.9 2 2 2h14v-2H4V6z"/><path d="M19 7H9V5h10v2zm-4 8H9v-2h6v2zm4-4H9V9h10v2zm1-9H8c-1.1 0-2 .9-2 2v12c0 1.1.9 2 2 2h12c1.1 0 2-.9 2-2V4c0-1.1-.9-2-2-2z"/></symbol><symbol id="my_library_music" viewBox="0 0 24 24"><path d="M18 7h-3v5.5a2.5 2.5 0 0 1-5 0 2.5 2.5 0 0 1 2.5-2.5c.57 0 1.08.19 1.5.51V5h4v2zm2-5H8c-1.1 0-2 .9-2 2v12c0 1.1.9 2 2 2h12c1.1 0 2-.9 2-2V4c0-1.1-.9-2-2-2z"/><path d="M4 6H2v14c0 1.1.9 2 2 2h14v-2H4V6z"/></symbol><symbol id="new_releases" viewBox="0 0 24 24"><path d="m23 12-2.44-2.78.34-3.68-3.61-.82-1.89-3.18L12 3 8.6 1.54 6.71 4.72l-3.61.81.34 3.68L1 12l2.44 2.78-.34 3.69 3.61.82 1.89 3.18L12 21l3.4 1.46 1.89-3.18 3.61-.82-.34-3.68L23 12zm-10 5h-2v-2h2v2zm0-4h-2V7h2v6z"/></symbol><symbol id="not_interested" viewBox="0 0 24 24"><path d="M12 2C6.48 2 2 6.48 2 12s4.48 10 10 10 10-4.48 10-10S17.52 2 12 2zm0 18c-4.42 0-8-3.58-8-8 0-1.85.63-3.55 1.69-4.9L16.9 18.31A7.902 7.902 0 0 1 12 20zm6.31-3.1L7.1 5.69A7.902 7.902 0 0 1 12 4c4.42 0 8 3.58 8 8 0 1.85-.63 3.55-1.69 4.9z"/></symbol><symbol id="note" viewBox="0 0 24 24"><path d="m22 10-6-6H4c-1.1 0-2 .9-2 2v12.01c0 1.1.9 1.99 2 1.99l16-.01c1.1 0 2-.89 2-1.99zm-7-4.5 5.5 5.5H15z"/></symbol><symbol id="pause_circle_filled" viewBox="0 0 24 24"><path d="M12 2C6.48 2 2 6.48 2 12s4.48 10 10 10 10-4.48 10-10S17.52 2 12 2zm-1 14H9V8h2v8zm4 0h-2V8h2v8z"/></symbol><symbol id="pause_circle_outline" viewBox="0 0 24 24"><path d="M9 16h2V8H9v8z"/><path d="M12 20c-4.41 0-8-3.59-8-8s3.59-8 8-8 8 3.59 8 8-3.59 8-8 8zm0-18C6.48 2 2 6.48 2 12s4.48 10 10 10 10-4.48 10-10S17.52 2 12 2z"/><path d="M13 16h2V8h-2v8z"/></symbol><symbol id="pause" viewBox="0 0 24 24"><path d="M6 19h4V5H6zM14 5v14h4V5z"/></symbol><symbol id="play_arrow" viewBox="0 0 24 24"><path d="M8 5v14l11-7z"/></symbol><symbol id="play_circle_fill" viewBox="0 0 24 24"><path d="M12 2C6.48 2 2 6.48 2 12s4.48 10 10 10 10-4.48 10-10S17.52 2 12 2zm-2 14.5v-9l6 4.5z"/></symbol><symbol id="play_circle_outline" viewBox="0 0 24 24"><path d="m10 16.5 6-4.5-6-4.5v9z"/><path d="M12 20c-4.41 0-8-3.59-8-8s3.59-8 8-8 8 3.59 8 8-3.59 8-8 8zm0-18C6.48 2 2 6.48 2 12s4.48 10 10 10 10-4.48 10-10S17.52 2 12 2z"/></symbol><symbol id="playlist_add_check" viewBox="0 0 24 24"><path d="M14 10H2v2h12zM14 6H2v2h12zM2 16h8v-2H2zM21.5 11.5 23 13l-6.99 7-4.51-4.5L13 14l3.01 3z"/></symbol><symbol id="playlist_add" viewBox="0 0 24 24"><path d="M14 10H2v2h12zM14 6H2v2h12z"/><path d="M18 14v-4h-2v4h-4v2h4v4h2v-4h4v-2zM2 16h8v-2H2z"/></symbol><symbol id="playlist_play" viewBox="0 0 24 24"><path d="M19 9H2v2h17zM19 5H2v2h17zM2 15h13v-2H2zM17 13v6l5-3z"/></symbol><symbol id="queue_music" viewBox="0 0 24 24"><path d="M15 6H3v2h12zM15 10H3v2h12zM3 16h8v-2H3z"/><path d="M17 6v8.18c-.31-.11-.65-.18-1-.18-1.66 0-3 1.34-3 3s1.34 3 3 3 3-1.34 3-3V8h3V6z"/></symbol><symbol id="queue_play_next" viewBox="0 0 24 24"><path d="M21 3H3c-1.11 0-2 .89-2 2v12a2 2 0 0 0 2 2h5v2h8v-2h2v-2H3V5h18v8h2V5a2 2 0 0 0-2-2z"/><path d="M13 10V7h-2v3H8v2h3v3h2v-3h3v-2h-3zM24 18l-4.5 4.5L18 21l3-3-3-3 1.5-1.5L24 18z"/></symbol><symbol id="queue" viewBox="0 0 24 24"><path d="M4 6H2v14c0 1.1.9 2 2 2h14v-2H4V6z"/><path d="M19 11h-4v4h-2v-4H9V9h4V5h2v4h4v2zm1-9H8c-1.1 0-2 .9-2 2v12c0 1.1.9 2 2 2h12c1.1 0 2-.9 2-2V4c0-1.1-.9-2-2-2z"/></symbol><symbol id="radio" viewBox="0 0 24 24"><path d="M3.24 6.15C2.51 6.43 2 7.17 2 8v12a2 2 0 0 0 2 2h16a2 2 0 0 0 2-2V8c0-1.11-.89-2-2-2H8.3l8.26-3.34L15.88 1 3.24 6.15zM7 20c-1.66 0-3-1.34-3-3s1.34-3 3-3 3 1.34 3 3-1.34 3-3 3zm13-8h-2v-2h-2v2H4V8h16v4z"/></symbol><symbol id="recent_actors" viewBox="0 0 24 24"><path d="M17 19h2V5h-2v14zm4-14v14h2V5h-2zM12.5 17h-9v-.75c0-1.5 3-2.25 4.5-2.25s4.5.75 4.5 2.25V17zM8 7.75c1.24 0 2.25 1.01 2.25 2.25S9.24 12.25 8 12.25 5.75 11.24 5.75 10 6.76 7.75 8 7.75zM14 5H2c-.55 0-1 .45-1 1v12c0 .55.45 1 1 1h12c.55 0 1-.45 1-1V6c0-.55-.45-1-1-1z"/></symbol><symbol id="remove_from_queue" viewBox="0 0 24 24"><path d="M21 17H3V5h18v12zm0-14H3c-1.11 0-2 .89-2 2v12a2 2 0 0 0 2 2h5v2h8v-2h5c1.1 0 1.99-.9 1.99-2L23 5a2 2 0 0 0-2-2z"/><path d="M16 10v2H8v-2h8z"/></symbol><symbol id="repeat_one" viewBox="0 0 24 24"><path d="M7 7h10v3l4-4-4-4v3H5v6h2zM17 17H7v-3l-4 4 4 4v-3h12v-6h-2z"/><path d="M13 15V9h-1l-2 1v1h1.5v4z"/></symbol><symbol id="repeat" viewBox="0 0 24 24"><path d="M7 7h10v3l4-4-4-4v3H5v6h2V7zM17 17H7v-3l-4 4 4 4v-3h12v-6h-2v4z"/></symbol><symbol id="replay_10" viewBox="0 0 24 24"><path d="M12 5V1L7 6l5 5V7c3.3 0 6 2.7 6 6s-2.7 6-6 6-6-2.7-6-6H4c0 4.4 3.6 8 8 8s8-3.6 8-8-3.6-8-8-8z"/><path d="M10.9 16H10v-3.3L9 13v-.7l1.8-.6h.1zM14.3 13.4v-.5s-.1-.2-.1-.3-.1-.1-.2-.2-.2-.1-.3-.1-.2 0-.3.1l-.2.2s-.1.2-.1.3v2s.1.2.1.3.1.1.2.2.2.1.3.1.2 0 .3-.1l.2-.2s.1-.2.1-.3zm.9.8c0 .3 0 .6-.1.8l-.3.6s-.3.3-.5.3-.4.1-.6.1-.4 0-.6-.1-.3-.2-.5-.3-.2-.3-.3-.6-.1-.5-.1-.8v-.7c0-.3 0-.6.1-.8l.3-.6s.3-.3.5-.3.4-.1.6-.1.4 0 .6.1.3.2.5.3.2.3.3.6.1.5.1.8z"/></symbol><symbol id="replay_30" viewBox="0 0 24 24"><path d="M12 5V1L7 6l5 5V7c3.3 0 6 2.7 6 6s-2.7 6-6 6-6-2.7-6-6H4c0 4.4 3.6 8 8 8s8-3.6 8-8-3.6-8-8-8z"/><path d="M9.6 13.5h.4c.2 0 .4-.1.5-.2s.2-.2.2-.4v-.2s-.1-.1-.1-.2-.1-.1-.2-.1h-.5s-.1.1-.2.1-.1.1-.1.2v.2h-1c0-.2 0-.3.1-.5s.2-.3.3-.4.3-.2.4-.2.4-.1.5-.1c.2 0 .4 0 .6.1s.3.1.5.2.2.2.3.4.1.3.1.5v.3s-.1.2-.1.3-.1.2-.2.2-.2.1-.3.2c.2.1.4.2.5.4s.2.4.2.6 0 .4-.1.5-.2.3-.3.4-.3.2-.5.2-.4.1-.6.1-.4 0-.5-.1-.3-.1-.5-.2-.2-.2-.3-.4-.1-.4-.1-.6h.8v.2s.1.1.1.2.1.1.2.1h.5s.1-.1.2-.1.1-.1.1-.2v-.5s-.1-.1-.1-.2-.1-.1-.2-.1h-.6zM14.5 13.4v-.5c0-.1-.1-.2-.1-.3s-.1-.1-.2-.2-.2-.1-.3-.1-.2 0-.3.1l-.2.2s-.1.2-.1.3v2s.1.2.1.3.1.1.2.2.2.1.3.1.2 0 .3-.1l.2-.2s.1-.2.1-.3zm.8.8c0 .3 0 .6-.1.8l-.3.6s-.3.3-.5.3-.4.1-.6.1-.4 0-.6-.1-.3-.2-.5-.3-.2-.3-.3-.6-.1-.5-.1-.8v-.7c0-.3 0-.6.1-.8l.3-.6s.3-.3.5-.3.4-.1.6-.1.4 0 .6.1.3.2.5.3.2.3.3.6.1.5.1.8z"/></symbol><symbol id="replay_5" viewBox="0 0 24 24"><path d="M12 5V1L7 6l5 5V7c3.3 0 6 2.7 6 6s-2.7 6-6 6-6-2.7-6-6H4c0 4.4 3.6 8 8 8s8-3.6 8-8-3.6-8-8-8z"/><path d="m10.7 13.9.2-2.2h2.4v.7h-1.7l-.1.9s.1 0 .1-.1.1 0 .1-.1.1 0 .2 0h.2c.2 0 .4 0 .5.1s.3.2.4.3.2.3.3.5.1.4.1.6 0 .4-.1.5-.1.3-.3.5-.3.2-.4.3-.4.1-.6.1-.4 0-.5-.1-.3-.1-.5-.2-.2-.2-.3-.4-.1-.3-.1-.5h.8c0 .2.1.3.2.4s.2.1.4.1c.1 0 .2 0 .3-.1l.2-.2s.1-.2.1-.3v-.6l-.1-.2-.2-.2s-.2-.1-.3-.1h-.2s-.1 0-.2.1-.1 0-.1.1-.1.1-.1.1z"/></symbol><symbol id="replay" viewBox="0 0 24 24"><path d="M12 5V1L7 6l5 5V7c3.31 0 6 2.69 6 6s-2.69 6-6 6-6-2.69-6-6H4c0 4.42 3.58 8 8 8s8-3.58 8-8-3.58-8-8-8z"/></symbol><symbol id="shuffle" viewBox="0 0 24 24"><path d="M10.59 9.17 5.41 4 4 5.41l5.17 5.17zM14.5 4l2.04 2.04L4 18.59 5.41 20 17.96 7.46 20 9.5V4zM14.83 13.41l-1.41 1.41 3.13 3.13L14.5 20H20v-5.5l-2.04 2.04z"/></symbol><symbol id="skip_next" viewBox="0 0 24 24"><path d="m6 18 8.5-6L6 6zM16 6v12h2V6z"/></symbol><symbol id="skip_previous" viewBox="0 0 24 24"><path d="M6 6h2v12H6zM9.5 12l8.5 6V6z"/></symbol><symbol id="slow_motion_video" viewBox="0 0 24 24"><path d="M13.05 9.79 10 7.5v9l3.05-2.29L16 12z"/><path d="M13.05 9.79 10 7.5v9l3.05-2.29L16 12z"/><path d="M13.05 9.79 10 7.5v9l3.05-2.29L16 12zM11 4.07V2.05c-2.01.2-3.84 1-5.32 2.21L7.1 5.69A7.941 7.941 0 0 1 11 4.07zM5.69 7.1 4.26 5.68A9.949 9.949 0 0 0 2.05 11h2.02c.18-1.46.76-2.79 1.62-3.9zM4.07 13H2.05c.2 2.01 1 3.84 2.21 5.32l1.43-1.43A7.868 7.868 0 0 1 4.07 13zM5.68 19.74A9.981 9.981 0 0 0 11 21.95v-2.02a7.941 7.941 0 0 1-3.9-1.62l-1.42 1.43z"/><path d="M22 12c0 5.16-3.92 9.42-8.95 9.95v-2.02C16.97 19.41 20 16.05 20 12s-3.03-7.41-6.95-7.93V2.05C18.08 2.58 22 6.84 22 12z"/></symbol><symbol id="snooze" viewBox="0 0 24 24"><path d="M7.88 3.39 6.6 1.86 2 5.71l1.29 1.53zM22 5.72l-4.6-3.86-1.29 1.53 4.6 3.86zM12 20c-3.87 0-7-3.13-7-7s3.13-7 7-7 7 3.13 7 7-3.13 7-7 7zm0-16c-4.97 0-9 4.03-9 9s4.02 9 9 9a9 9 0 0 0 0-18z"/><path d="M9 11h3.63L9 15.2V17h6v-2h-3.63L15 10.8V9H9z"/></symbol><symbol id="sort_by_alpha" viewBox="0 0 24 24"><path d="M14.94 4.66h-4.72l2.36-2.36zM10.25 19.37h4.66l-2.33 2.33zM4.97 13.64l1.94-5.18 1.94 5.18zM6.1 6.27 1.6 17.73h1.84l.92-2.45h5.11l.92 2.45h1.84L7.74 6.27zM15.73 16.14h6.12v1.59h-8.53v-1.29l5.92-8.56h-5.88v-1.6h8.3v1.26z"/></symbol><symbol id="stop_circle_filled" viewBox="0 0 24 24"><path d="M12 2C6.48 2 2 6.48 2 12s4.48 10 10 10 10-4.48 10-10S17.52 2 12 2zm4 14H8V8h8z"/></symbol><symbol id="stop_circle_outline" viewBox="0 0 24 24"><path d="M8.031 16.063h8.032V8.031H8.031z"/><path d="M12 20c-4.41 0-8-3.59-8-8s3.59-8 8-8 8 3.59 8 8-3.59 8-8 8zm0-18C6.48 2 2 6.48 2 12s4.48 10 10 10 10-4.48 10-10S17.52 2 12 2z"/></symbol><symbol id="stop" viewBox="0 0 24 24"><path d="M6 6h12v12H6z"/></symbol><symbol id="subscriptions" viewBox="0 0 24 24"><path d="M20 8H4V6h16zM18 2H6v2h12zM16 16l-6-3.27v6.53zm6-4v8c0 1.1-.9 2-2 2H4c-1.1 0-2-.9-2-2v-8c0-1.1.9-2 2-2h16c1.1 0 2 .9 2 2z"/></symbol><symbol id="subtitles" viewBox="0 0 24 24"><path d="M20 4H4c-1.1 0-2 .9-2 2v12c0 1.1.9 2 2 2h16c1.1 0 2-.9 2-2V6c0-1.1-.9-2-2-2zM4 12h4v2H4v-2zm10 6H4v-2h10v2zm6 0h-4v-2h4v2zm0-4H10v-2h10v2z"/></symbol><symbol id="surround_sound" viewBox="0 0 24 24"><path d="M20 4H4c-1.1 0-2 .9-2 2v12c0 1.1.9 2 2 2h16c1.1 0 2-.9 2-2V6c0-1.1-.9-2-2-2zM7.76 16.24l-1.41 1.41A7.909 7.909 0 0 1 4 12c0-2.05.78-4.1 2.34-5.66l1.41 1.41C6.59 8.93 6 10.46 6 12s.59 3.07 1.76 4.24zM12 16c-2.21 0-4-1.79-4-4s1.79-4 4-4 4 1.79 4 4-1.79 4-4 4zm5.66 1.66-1.41-1.41C17.41 15.07 18 13.54 18 12s-.59-3.07-1.76-4.24l1.41-1.41A7.909 7.909 0 0 1 20 12c0 2.05-.78 4.1-2.34 5.66zM12 10c-1.1 0-2 .9-2 2s.9 2 2 2 2-.9 2-2-.9-2-2-2z"/></symbol><symbol id="video_call" viewBox="0 0 24 24"><path d="M17 10.5V7c0-.55-.45-1-1-1H4c-.55 0-1 .45-1 1v10c0 .55.45 1 1 1h12c.55 0 1-.45 1-1v-3.5l4 4v-11l-4 4zM14 13h-3v3H9v-3H6v-2h3V8h2v3h3v2z"/></symbol><symbol id="video_label" viewBox="0 0 24 24"><path d="M21 3H3c-1.1 0-2 .9-2 2v14c0 1.1.9 2 2 2h18c1.1 0 2-.9 2-2V5c0-1.1-.9-2-2-2zm0 13H3V5h18v11z"/></symbol><symbol id="video_library" viewBox="0 0 24 24"><path d="M4 6H2v14c0 1.1.9 2 2 2h14v-2H4V6z"/><path d="M12 14.5v-9l6 4.5-6 4.5zM20 2H8c-1.1 0-2 .9-2 2v12c0 1.1.9 2 2 2h12c1.1 0 2-.9 2-2V4c0-1.1-.9-2-2-2z"/></symbol><symbol id="videocam_off" viewBox="0 0 24 24"><path d="m21 6.5-4 4V7c0-.55-.45-1-1-1H9.82L21 17.18V6.5zM3.27 2 2 3.27 4.73 6H4c-.55 0-1 .45-1 1v10c0 .55.45 1 1 1h12c.21 0 .39-.08.54-.18L19.73 21 21 19.73 3.27 2z"/></symbol><symbol id="videocam" viewBox="0 0 24 24"><path d="M17 10.5V7c0-.55-.45-1-1-1H4c-.55 0-1 .45-1 1v10c0 .55.45 1 1 1h12c.55 0 1-.45 1-1v-3.5l4 4v-11l-4 4z"/></symbol><symbol id="volume_down" viewBox="0 0 24 24"><path d="M18.5 12A4.5 4.5 0 0 0 16 7.97v8.05c1.48-.73 2.5-2.25 2.5-4.02zM5 9v6h4l5 5V4L9 9H5z"/></symbol><symbol id="volume_mute" viewBox="0 0 24 24"><path d="M7 9v6h4l5 5V4l-5 5H7z"/></symbol><symbol id="volume_off" viewBox="0 0 24 24"><path d="M16.5 12A4.5 4.5 0 0 0 14 7.97v2.21l2.45 2.45c.03-.2.05-.41.05-.63z"/><path d="M19 12c0 .94-.2 1.82-.54 2.64l1.51 1.51A8.796 8.796 0 0 0 21 12c0-4.28-2.99-7.86-7-8.77v2.06c2.89.86 5 3.54 5 6.71zM4.27 3 3 4.27 7.73 9H3v6h4l5 5v-6.73l4.25 4.25c-.67.52-1.42.93-2.25 1.18v2.06a8.99 8.99 0 0 0 3.69-1.81L19.73 21 21 19.73l-9-9L4.27 3zM12 4 9.91 6.09 12 8.18V4z"/></symbol><symbol id="volume_up" viewBox="0 0 24 24"><path d="M3 9v6h4l5 5V4L7 9zM16.5 12A4.5 4.5 0 0 0 14 7.97v8.05c1.48-.73 2.5-2.25 2.5-4.02z"/><path d="M14 3.23v2.06c2.89.86 5 3.54 5 6.71s-2.11 5.85-5 6.71v2.06c4.01-.91 7-4.49 7-8.77s-2.99-7.86-7-8.77z"/></symbol><symbol id="web_asset" viewBox="0 0 24 24"><path d="M19 4H5a2 2 0 0 0-2 2v12a2 2 0 0 0 2 2h14c1.1 0 2-.9 2-2V6a2 2 0 0 0-2-2zm0 14H5V8h14v10z"/></symbol><symbol id="web" viewBox="0 0 24 24"><path d="M20 4H4c-1.1 0-1.99.9-1.99 2L2 18c0 1.1.9 2 2 2h16c1.1 0 2-.9 2-2V6c0-1.1-.9-2-2-2zm-5 14H4v-4h11v4zm0-5H4V9h11v4zm5 5h-4V9h4v9z"/></symbol></svg>