<?xml version="1.0" encoding="UTF-8"?><!DOCTYPE svg PUBLIC "-//W3C//DTD SVG 1.1//EN" "http://www.w3.org/Graphics/SVG/1.1/DTD/svg11.dtd"><svg xmlns="http://www.w3.org/2000/svg" xmlns:xlink="http://www.w3.org/1999/xlink"><defs/><symbol id="brassiere" viewBox="0 0 48 48"><path fill-rule="evenodd" clip-rule="evenodd" d="M12 34c3.689 0 7.803-.213 10.13-2h4.74c2.326 1.787 6.441 2 10.13 2 5.523 0 10-4.477 10-10s-4.477-8-10-8-12 6.477-12 12h-1c0-5.523-6.477-12-12-12S2 18.477 2 24s4.477 10 10 10Z"/></symbol><symbol id="briefcase" viewBox="0 0 48 48"><path fill-rule="evenodd" clip-rule="evenodd" d="M8.347 16a2 2 0 0 0-2 2v20a2 2 0 0 0 2 2h31.306a2 2 0 0 0 2-2V18a2 2 0 0 0-2-2H8.347ZM20.5 20a.5.5 0 0 0-.5.5v3a.5.5 0 0 0 .5.5h7a.5.5 0 0 0 .5-.5v-3a.5.5 0 0 0-.5-.5h-7Z"/><path style="fill: var(--opacity, #fff)" opacity=".3" d="M20 16h-4v-2a6 6 0 0 1 6-6h4a6 6 0 0 1 6 6v2h-4v-2a2 2 0 0 0-2-2h-4a2 2 0 0 0-2 2v2Z"/></symbol><symbol id="cap" viewBox="0 0 48 48"><rect style="fill: var(--opacity, #fff)" opacity=".3" x="28" y="9.4" width="6" height="6" rx="1"/><path fill-rule="evenodd" clip-rule="evenodd" d="M47.98 30a17.484 17.484 0 0 0-.02-2H42c0-3.306 2.847-4.905 4.619-5.58C43.993 16.294 37.907 12 30.819 12c-9.49 0-17.183 7.693-17.183 17.182 0 .274.007.547.02.818H1a1 1 0 0 0-1 1v2a1 1 0 0 0 1 1h46.5a.5.5 0 0 0 .5-.5V30h-.02Z"/></symbol><symbol id="crown" viewBox="0 0 48 48"><path style="fill: var(--opacity, #fff)" opacity=".3" fill-rule="evenodd" clip-rule="evenodd" d="M24.74 10.814a1 1 0 0 0-1.48 0L4 32h40L24.74 10.814Z"/><path fill-rule="evenodd" clip-rule="evenodd" d="M44.023 12.536c0-.908-1.112-1.346-1.731-.683l-18.28 19.57L5.73 11.853C5.11 11.19 4 11.628 4 12.536V40H44.023V12.535Z"/></symbol><symbol id="dress" viewBox="0 0 48 48"><path style="fill: var(--opacity, #fff)" opacity=".3" fill-rule="evenodd" clip-rule="evenodd" d="M31.919 6c-.555 3.015-3.889 5.333-7.919 5.333-4.03 0-7.364-2.318-7.919-5.333h-5.845a1 1 0 0 0-1 1v14a1 1 0 0 0 1 1h27.528a1 1 0 0 0 1-1V7a1 1 0 0 0-1-1h-5.845Z"/><path d="M8.954 26a2 2 0 0 1 2-2h26.093a2 2 0 0 1 2 2v17a1 1 0 0 1-1 1H9.954a1 1 0 0 1-1-1V26Z"/></symbol><symbol id="hanger" viewBox="0 0 48 48"><path d="m36.528 36-16.71-14.099a7.887 7.887 0 0 1 4.544-13.896 7.22 7.22 0 0 1 5.462 12.443l-2.75-2.904a3.219 3.219 0 0 0-2.436-5.549 3.887 3.887 0 0 0-2.24 6.85l18.8 15.862A3 3 0 0 1 39.265 40H8.054a3 3 0 0 1-1.773-5.42l12.536-9.193 2.366 3.226L11.109 36h25.42Z"/></symbol><symbol id="hat" viewBox="0 0 48 48"><path fill-rule="evenodd" clip-rule="evenodd" d="M18 15.5a3.5 3.5 0 0 1 3.5-3.5h11a3.5 3.5 0 0 1 3.5 3.5v9.36c-1.466.48-3.117 1.131-4.973 1.955-5.014-2.263-9.344-3.948-13.027-5.084V15.5Z"/><path style="fill: var(--opacity, #fff)" opacity=".3" fill-rule="evenodd" clip-rule="evenodd" d="m3.877 30.733.073.336c2.31 11.556 19.611 2.743 25.283-.145.995-.507 1.632-.832 1.767-.832-30.867-16.295-28.12-3.869-27.123.641ZM31 30.117c13.906-7.341 13.189-1.836 12.791 0-1.024 5.125-9.44 1.442-12.04.304-.425-.186-.695-.304-.751-.304Z"/></symbol><symbol id="panties" viewBox="0 0 48 48"><path fill-rule="evenodd" clip-rule="evenodd" d="M2 20v-2a2 2 0 0 1 2-2h40a2 2 0 0 1 2 2v2a2 2 0 0 1-2 2c-8.06.94-14.517 7.615-15.777 16h-8.446C18.517 29.615 12.06 22.94 4 22a2 2 0 0 1-2-2Z"/></symbol><symbol id="shirt" viewBox="0 0 48 48"><path style="fill: var(--opacity, #fff)" opacity=".3" fill-rule="evenodd" clip-rule="evenodd" d="M11 8.972A3 3 0 0 1 14 6h20a3 3 0 0 1 3 2.971l9.046 5.223a1 1 0 0 1 .366 1.366l-4.313 7.47a1 1 0 0 1-1.365.365L37 21.24V39a1 1 0 0 1-1 1H12a1 1 0 0 1-1-1V21.24l-3.731 2.155a1 1 0 0 1-1.366-.366L1.59 15.56a1 1 0 0 1 .366-1.365L11 8.972Z"/><path fill-rule="evenodd" clip-rule="evenodd" d="M20.268 6a.5.5 0 0 0-.416.223l-1.59 2.383a.5.5 0 0 0 .116.678L22 12l-1.965 13.753a.5.5 0 0 0 .142.424l3.47 3.47a.5.5 0 0 0 .707 0l3.47-3.47a.5.5 0 0 0 .14-.424L26 12l3.622-2.716a.5.5 0 0 0 .116-.678l-1.59-2.383A.5.5 0 0 0 27.732 6h-7.464Z"/></symbol><symbol id="shoes" viewBox="0 0 48 48"><path fill-rule="evenodd" clip-rule="evenodd" d="M6.676 6.892a.762.762 0 0 1 1.13-.397C9.704 7.713 14.417 11.043 16 15c1.464 3.66 5.607 9.463 7.723 12.311a2.93 2.93 0 0 0 3.29 1.018l6.49-2.163a1 1 0 0 1 .916.148l10.59 7.943a.5.5 0 0 1-.237.897l-20.365 2.545a4.036 4.036 0 0 1-3.796-1.685C18.51 33.036 14.604 27.594 13 26c-1.283-1.274-3.07-2.91-4.778-4.435C5.11 18.786 3.945 14.402 5.37 10.48l1.306-3.589Z"/><path style="fill: var(--opacity, #fff)" opacity=".3" fill-rule="evenodd" clip-rule="evenodd" d="M5 17s2 10 2 13v8h3V27.5c0-2.5 3-1.5 3-1.5l-8-9Z"/></symbol><symbol id="shorts" viewBox="0 0 48 48"><path fill-rule="evenodd" clip-rule="evenodd" d="M9.927 7.148a2 2 0 0 1 2.45-1.415L13.37 6h21.251l.995-.267a2 2 0 0 1 2.45 1.415l7.505 28.012a1 1 0 0 1-.707 1.224L29.41 40.525a1 1 0 0 1-1.224-.707l-4.19-15.633-4.188 15.633a1 1 0 0 1-1.225.707l-15.455-4.14a1 1 0 0 1-.707-1.225L9.927 7.148Z"/></symbol><symbol id="sneakers" viewBox="0 0 48 48"><rect style="fill: var(--opacity, #fff)" opacity=".3" x="4" y="6" width="14" height="28" rx="1"/><path fill-rule="evenodd" clip-rule="evenodd" d="M2.549 24.09a.61.61 0 0 0-.549.597V37.14c0 .325.258.587.583.595 3.613.082 23.05.49 31.361-.014 6.02-.365 10.19-1.419 12.346-2.101.983-.31 1.455-1.36 1.005-2.288C46.394 31.476 44.629 28.657 42 28c-.499-.125-1.098-.2-1.816-.29-1.632-.204-3.875-.485-6.937-1.602l-2.149 3.722a1 1 0 0 1-1.366.366l-1.732-1a1 1 0 0 1-.366-1.366l1.917-3.32a43.7 43.7 0 0 1-.718-.365c-.71-.369-1.602-1.038-2.545-1.84l-3.19 5.525a1 1 0 0 1-1.366.366l-1.732-1a1 1 0 0 1-.366-1.366l3.644-6.312a102.242 102.242 0 0 1-2.826-2.909c-.28-.299-.786-.254-1.04.066-1.368 1.722-5.926 6.226-16.863 7.414Z"/></symbol><symbol id="socks" viewBox="0 0 48 48"><path style="fill: var(--opacity, #fff)" opacity=".3" fill-rule="evenodd" clip-rule="evenodd" d="M19.372 9.29a.75.75 0 0 0-.869.608l-1.84 10.437-10.284 3.742a3 3 0 0 0-1.793 3.846l1.75 4.806a3 3 0 0 0 3.845 1.793l9.987-3.635 3.403.6a1.5 1.5 0 0 0 1.738-1.217l.308-1.75a3 3 0 0 0 .575-3.018l-.029-.079 2.424-13.747a.75.75 0 0 0-.608-.869L19.372 9.29Z"/><path fill-rule="evenodd" clip-rule="evenodd" d="M27.434 8.68a1 1 0 0 0-1.158.812l-2.39 13.553-13.737 5a4 4 0 0 0-2.39 5.127l2.46 6.762a4 4 0 0 0 5.128 2.39l13.591-4.946 4.467.787a2 2 0 0 0 2.317-1.622l.49-2.775c.486-.82.678-1.808.49-2.787l3.361-19.058a1 1 0 0 0-.81-1.159L27.433 8.681Z"/></symbol><symbol id="sun-glasses" viewBox="0 0 48 48"><path style="fill: var(--opacity, #fff)" opacity=".3" fill-rule="evenodd" clip-rule="evenodd" d="M41.621 16.687a1 1 0 0 1 1.225-.707l1.932.517a1 1 0 0 1 .707 1.225l-3.812 14.227a1 1 0 0 1-1.225.707l-1.932-.518a1 1 0 0 1-.707-1.224l3.812-14.227ZM19.79 33.885l-3.578-1.79a8.708 8.708 0 0 1 15.578 0l-3.578 1.79a4.708 4.708 0 0 0-8.422 0ZM3.222 16.497a1 1 0 0 0-.707 1.225L6.14 31.245a1 1 0 0 0 1.224.707l1.932-.518a1 1 0 0 0 .707-1.224L6.38 16.687a1 1 0 0 0-1.225-.707l-1.932.517Z"/><path fill-rule="evenodd" clip-rule="evenodd" d="M22 31a9 9 0 1 1-18 0 9 9 0 0 1 18 0Zm22 0a9 9 0 1 1-18 0 9 9 0 0 1 18 0Z"/></symbol><symbol id="t-shirt" viewBox="0 0 48 48"><path fill-rule="evenodd" clip-rule="evenodd" d="M32.33 8c-.788 2.425-4.218 4.25-8.33 4.25S16.457 10.425 15.67 8h-1.28a1 1 0 0 0-1.284-.244L12.684 8H12a1 1 0 0 0-1 .972l-9.044 5.222a1 1 0 0 0-.366 1.366l4.313 7.47a1 1 0 0 0 1.366.365L11 21.241V41a1 1 0 0 0 1 1h24a1 1 0 0 0 1-1V21.24l3.733 2.155a1 1 0 0 0 1.367-.366l4.312-7.47a1 1 0 0 0-.366-1.365L37 8.97A1 1 0 0 0 36 8h-.682l-.422-.244A1 1 0 0 0 33.613 8H32.33Z"/></symbol><symbol id="tie" viewBox="0 0 48 48"><path fill-rule="evenodd" clip-rule="evenodd" d="M28.225 14.012A2.011 2.011 0 0 0 28 14h-8c-.076 0-.151.004-.225.012l-5.08-4.896a2 2 0 0 1-.055-2.825L16.84 4h14.322l2.199 2.291a2 2 0 0 1-.055 2.825l-5.08 4.896Z"/><path style="fill: var(--opacity, #fff)" opacity=".3" fill-rule="evenodd" clip-rule="evenodd" d="m27.528 18 3.443 18.299a2 2 0 0 1-.523 1.754l-5.005 5.216a2 2 0 0 1-2.886 0l-5.005-5.216a2 2 0 0 1-.523-1.754L20.472 18h7.056Z"/></symbol></svg>