<?xml version="1.0" encoding="UTF-8"?><!DOCTYPE svg PUBLIC "-//W3C//DTD SVG 1.1//EN" "http://www.w3.org/Graphics/SVG/1.1/DTD/svg11.dtd"><svg xmlns="http://www.w3.org/2000/svg" xmlns:xlink="http://www.w3.org/1999/xlink"><defs/><symbol id="backspace" viewBox="0 0 48 48"><path style="fill: var(--opacity, #fff)" opacity=".3" fill-rule="evenodd" clip-rule="evenodd" d="M15.725 39.71a1 1 0 0 0 .704.29h27.57a2 2 0 0 0 2-2V10a2 2 0 0 0-2-2H16.43a1 1 0 0 0-.704.29L.59 23.29a1 1 0 0 0 0 1.42l15.135 15Z"/><path fill-rule="evenodd" clip-rule="evenodd" d="M31.535 30.364a1 1 0 0 0 1.415 0l1.414-1.414a1 1 0 0 0 0-1.414L30.828 24l3.536-3.535a1 1 0 0 0 0-1.415l-1.414-1.414a1 1 0 0 0-1.415 0L28 21.172l-3.536-3.536a1 1 0 0 0-1.414 0l-1.414 1.414a1 1 0 0 0 0 1.415L25.172 24l-3.536 3.536a1 1 0 0 0 0 1.414l1.414 1.414a1 1 0 0 0 1.415 0L28 26.83l3.535 3.535Z"/></symbol><symbol id="check" viewBox="0 0 48 48"><path d="M33.538 15.635a2 2 0 1 1 2.924 2.73l-14 15a2 2 0 0 1-2.764.154l-7-6a2 2 0 1 1 2.604-3.037l5.544 4.752 12.692-13.599Z"/></symbol><symbol id="cmd" viewBox="0 0 48 48"><path fill-rule="evenodd" clip-rule="evenodd" d="M26 22v-4h4v4h-4Zm0 4v-4h-4v-4h4v-3a7 7 0 1 1 7 7h-3v4h-4Zm0 4v-4h-4v-4h-4v-4h4v-3a7 7 0 1 0-7 7h3v4h-3a7 7 0 1 0 7 7v-3h4Zm4 0h-4v3a7 7 0 1 0 7-7h-3v4Zm0 0h3a3 3 0 1 1-3 3v-3Zm-12 0v-4h4v4h-4Zm0 0h-3a3 3 0 1 0 3 3v-3Zm0-12v-3a3 3 0 1 0-3 3h3Zm12 0h3a3 3 0 1 0-3-3v3Z"/></symbol><symbol id="code" viewBox="0 0 48 48"><path fill-rule="evenodd" clip-rule="evenodd" d="M13.37 14.544a2 2 0 0 1 .086 2.827L6.746 24.5l6.71 7.13a2 2 0 1 1-2.912 2.74l-8-8.5a2 2 0 0 1 0-2.74l8-8.5a2 2 0 0 1 2.827-.086Zm21.26 0a2 2 0 0 0-.086 2.827l6.71 7.129-6.71 7.13a2 2 0 1 0 2.912 2.74l8-8.5a2 2 0 0 0 0-2.74l-8-8.5a2 2 0 0 0-2.827-.086Z"/><rect style="fill: var(--opacity, #fff)" opacity=".3" x="26.209" y="8.027" width="4" height="32" rx="1" transform="rotate(15 26.21 8.027)"/></symbol><symbol id="commit" viewBox="0 0 48 48"><path style="fill: var(--opacity, #fff)" opacity=".3" fill-rule="evenodd" clip-rule="evenodd" d="M1.5 22A1.5 1.5 0 0 0 0 23.5v3A1.5 1.5 0 0 0 1.5 28h7a1.5 1.5 0 0 0 1.5-1.5v-3A1.5 1.5 0 0 0 8.5 22h-7Zm38 0a1.5 1.5 0 0 0-1.5 1.5v3a1.5 1.5 0 0 0 1.5 1.5h7a1.5 1.5 0 0 0 1.5-1.5v-3a1.5 1.5 0 0 0-1.5-1.5h-7Z"/><path fill-rule="evenodd" clip-rule="evenodd" d="M14 26c0 5.523 4.477 10 10 10s10-4.477 10-10-4.477-10-10-10-10 4.477-10 10Zm16 0a6 6 0 1 1-12 0 6 6 0 0 1 12 0Z"/></symbol><symbol id="compiling" viewBox="0 0 48 48"><path style="fill: var(--opacity, #fff)" opacity=".3" fill-rule="evenodd" clip-rule="evenodd" d="M4.06 22.425a1.5 1.5 0 0 0 0 2.121l6.365 6.364a1.5 1.5 0 0 0 2.121 0l6.364-6.364a1.5 1.5 0 0 0 0-2.121l-6.364-6.364a1.5 1.5 0 0 0-2.121 0L4.06 22.425Zm24 0a1.5 1.5 0 0 0 0 2.121l6.365 6.364a1.5 1.5 0 0 0 2.121 0l6.364-6.364a1.5 1.5 0 0 0 0-2.121l-6.364-6.364a1.5 1.5 0 0 0-2.121 0l-6.364 6.364Z"/><path fill-rule="evenodd" clip-rule="evenodd" d="M16.06 10.425a1.5 1.5 0 0 0 0 2.121l6.365 6.364a1.5 1.5 0 0 0 2.121 0l6.364-6.364a1.5 1.5 0 0 0 0-2.121L24.546 4.06a1.5 1.5 0 0 0-2.121 0l-6.364 6.364Zm0 24a1.5 1.5 0 0 0 0 2.121l6.365 6.364a1.5 1.5 0 0 0 2.121 0l6.364-6.364a1.5 1.5 0 0 0 0-2.121l-6.364-6.364a1.5 1.5 0 0 0-2.121 0l-6.364 6.364Z"/></symbol><symbol id="control" viewBox="0 0 48 48"><path d="M24 13 7.288 27.53a2 2 0 0 1-2.576-3.06l17.3-15.58A3 3 0 0 1 26 9l17.37 15.544a2 2 0 0 1-2.74 2.912L24 13Z"/></symbol><symbol id="done" viewBox="0 0 48 48"><path style="fill: var(--opacity, #fff)" opacity=".3" fill-rule="evenodd" clip-rule="evenodd" d="M24 44c11.046 0 20-8.954 20-20S35.046 4 24 4 4 12.954 4 24s8.954 20 20 20Z"/><path d="M33.538 15.635a2 2 0 1 1 2.924 2.73l-14 15a2 2 0 0 1-2.764.154l-7-6a2 2 0 1 1 2.604-3.037l5.544 4.752 12.692-13.599Z"/></symbol><symbol id="error" viewBox="0 0 48 48"><path style="fill: var(--opacity, #fff)" opacity=".3" fill-rule="evenodd" clip-rule="evenodd" d="M24 44c11.046 0 20-8.954 20-20S35.046 4 24 4 4 12.954 4 24s8.954 20 20 20Z"/><path fill-rule="evenodd" clip-rule="evenodd" d="M14.879 16.293a1 1 0 0 0 0 1.414l6.364 6.364-6.364 6.364a1 1 0 0 0 0 1.414l1.414 1.415a1 1 0 0 0 1.414 0l6.364-6.364 6.364 6.364a1 1 0 0 0 1.414 0l1.415-1.415a1 1 0 0 0 0-1.414l-6.365-6.364 6.364-6.364a1 1 0 0 0 0-1.414L31.85 14.88a1 1 0 0 0-1.414 0l-6.364 6.364-6.364-6.364a1 1 0 0 0-1.414 0l-1.414 1.414Z"/></symbol><symbol id="gihub" viewBox="0 0 48 48"><path fill-rule="evenodd" clip-rule="evenodd" d="M33.086 34.914 22 23.828V8a2 2 0 1 1 4 0v14.172l9.914 9.914 5.232-5.232a.5.5 0 0 1 .854.353V39.5a.5.5 0 0 1-.5.5H29.207a.5.5 0 0 1-.353-.854l4.232-4.232Z"/><path style="fill: var(--opacity, #fff)" opacity=".3" fill-rule="evenodd" clip-rule="evenodd" d="m17.708 26.326 2.584 3.054-5.802 4.91 4.856 4.856a.5.5 0 0 1-.353.854H6.558a.5.5 0 0 1-.5-.5V27.065a.5.5 0 0 1 .853-.354l4.74 4.74 6.057-5.125Z"/></symbol><symbol id="git#1" viewBox="0 0 48 48"><rect style="fill: var(--opacity, #fff)" opacity=".3" x="22" y="16" width="4" height="18" rx="1"/><path fill-rule="evenodd" clip-rule="evenodd" d="M16 38a8 8 0 1 0 16 0 8 8 0 0 0-16 0Zm12 0a4 4 0 1 1-8 0 4 4 0 0 1 8 0ZM16 10a8 8 0 1 0 16 0 8 8 0 0 0-16 0Zm12 0a4 4 0 1 1-8 0 4 4 0 0 1 8 0Z"/></symbol><symbol id="git#2" viewBox="0 0 48 48"><rect style="fill: var(--opacity, #fff)" opacity=".3" x="10" y="16" width="4" height="16" rx="1"/><path fill-rule="evenodd" clip-rule="evenodd" d="M4 38a8 8 0 1 0 16 0 8 8 0 0 0-16 0Zm12 0a4 4 0 1 1-8 0 4 4 0 0 1 8 0Z"/><rect opacity=".3" x="34" y="16" width="4" height="16" rx="1"/><path fill-rule="evenodd" clip-rule="evenodd" d="M28 38a8 8 0 1 0 16 0 8 8 0 0 0-16 0Zm12 0a4 4 0 1 1-8 0 4 4 0 0 1 8 0ZM4 10a8 8 0 1 0 16 0 8 8 0 0 0-16 0Zm12 0a4 4 0 1 1-8 0 4 4 0 0 1 8 0ZM28 10a8 8 0 1 0 16 0 8 8 0 0 0-16 0Zm12 0a4 4 0 1 1-8 0 4 4 0 0 1 8 0Z"/></symbol><symbol id="git#3" viewBox="0 0 48 48"><path style="fill: var(--opacity, #fff)" opacity=".3" fill-rule="evenodd" clip-rule="evenodd" d="M11 16a1 1 0 0 0-1 1v14a1 1 0 0 0 1 1h2a1 1 0 0 0 1-1v-5h16a8 8 0 0 0 8-8v-2h-4v2a4 4 0 0 1-4 4H14v-5a1 1 0 0 0-1-1h-2Z"/><path fill-rule="evenodd" clip-rule="evenodd" d="M4 38a8 8 0 1 0 16 0 8 8 0 0 0-16 0Zm12 0a4 4 0 1 1-8 0 4 4 0 0 1 8 0ZM28 10a8 8 0 1 0 16 0 8 8 0 0 0-16 0Zm12 0a4 4 0 1 1-8 0 4 4 0 0 1 8 0ZM4 10a8 8 0 1 0 16 0 8 8 0 0 0-16 0Zm12 0a4 4 0 1 1-8 0 4 4 0 0 1 8 0Z"/></symbol><symbol id="git#4" viewBox="0 0 48 48"><path fill-rule="evenodd" clip-rule="evenodd" d="M4 10a8 8 0 1 0 16 0 8 8 0 0 0-16 0Zm12 0a4 4 0 1 1-8 0 4 4 0 0 1 8 0Z"/><path style="fill: var(--opacity, #fff)" opacity=".3" fill-rule="evenodd" clip-rule="evenodd" d="M30 20v4H18a7.963 7.963 0 0 1-4-1.07V34a4 4 0 0 0 4 4h12v4H18a8 8 0 0 1-8-8V14h4v2a4 4 0 0 0 4 4h12Z"/><path fill-rule="evenodd" clip-rule="evenodd" d="M28 40a8 8 0 1 0 16 0 8 8 0 0 0-16 0Zm12 0a4 4 0 1 1-8 0 4 4 0 0 1 8 0ZM28 22a8 8 0 1 0 16 0 8 8 0 0 0-16 0Zm12 0a4 4 0 1 1-8 0 4 4 0 0 1 8 0Z"/></symbol><symbol id="if" viewBox="0 0 24 24"><path stroke="#000" stroke-style="fill: var(--opacity, #fff)" opacity=".5" stroke-linecap="round" stroke-linejoin="round" stroke-width="1.5" d="M12 22c5.523 0 10-4.477 10-10S17.523 2 12 2 2 6.477 2 12s4.477 10 10 10z"/><g fill="#000"><path opacity=".5" d="M12.7 14h1.5v1.5h-1.5V14zm2 0h1.5v1.5h-1.5V14zm2 0h1.5v1.5h-1.5V14zM6.2 8.5h1.5v7H6.2v-7zm3 0h1.5v7H9.2v-7zm1.5 0h2V10h-2V8.5z"/><path d="M10.2 11.5h2V13h-2v-1.5z"/></g></symbol><symbol id="info" viewBox="0 0 48 48"><path style="fill: var(--opacity, #fff)" opacity=".3" fill-rule="evenodd" clip-rule="evenodd" d="M24 44c11.046 0 20-8.954 20-20S35.046 4 24 4 4 12.954 4 24s8.954 20 20 20Z"/><rect x="22" y="20" width="4" height="14" rx="1"/><rect x="22" y="14" width="4" height="4" rx="1"/></symbol><symbol id="left-circle" viewBox="0 0 48 48"><path style="fill: var(--opacity, #fff)" opacity=".3" fill-rule="evenodd" clip-rule="evenodd" d="M24 44c11.046 0 20-8.954 20-20S35.046 4 24 4 4 12.954 4 24s8.954 20 20 20Z"/><path d="M29.355 14.927a1.714 1.714 0 1 0-2.424-2.425L16.645 22.788a1.714 1.714 0 0 0-.052 2.37l9.429 10.286a1.714 1.714 0 1 0 2.527-2.317l-8.32-9.075 9.126-9.125Z"/></symbol><symbol id="loading" viewBox="0 0 48 48"><path style="fill: var(--opacity, #fff)" opacity=".3" d="M24 8v4c6.627 0 12 5.373 12 12s-5.373 12-12 12-12-5.373-12-12c0-2.08.528-4.078 1.52-5.85l-3.491-1.953A15.935 15.935 0 0 0 8 24c0 8.837 7.163 16 16 16s16-7.163 16-16S32.837 8 24 8Z"/></symbol><symbol id="lock-circle" viewBox="0 0 48 48"><path style="fill: var(--opacity, #fff)" opacity=".3" fill-rule="evenodd" clip-rule="evenodd" d="M24 44c11.046 0 20-8.954 20-20S35.046 4 24 4 4 12.954 4 24s8.954 20 20 20Z"/><path fill-rule="evenodd" clip-rule="evenodd" d="M19 18.5a2.5 2.5 0 0 1 2.5-2.5h5a2.5 2.5 0 0 1 2.5 2.5V22h1a1 1 0 0 1 1 1v8a1 1 0 0 1-1 1H18a1 1 0 0 1-1-1v-8a1 1 0 0 1 1-1h1v-3.5Zm3.5-.5a1.5 1.5 0 0 0-1.5 1.5V22h6v-2.5a1.5 1.5 0 0 0-1.5-1.5h-3Z"/></symbol><symbol id="lock-overturning" viewBox="0 0 48 48"><path style="fill: var(--opacity, #fff)" opacity=".3" fill-rule="evenodd" clip-rule="evenodd" d="M11.763 2.075a.5.5 0 0 0-.87.206L8.25 13.363a.5.5 0 0 0 .515.615l11.4-.646a.5.5 0 0 0 .355-.82l-3.023-3.603A16.99 16.99 0 0 1 23 8c9.389 0 17 7.611 17 17 0 9.39-7.611 17-17 17S6 34.39 6 25c0-1.576.213-3.12.63-4.603l-3.852-1.08A21.018 21.018 0 0 0 2 25c0 11.598 9.402 21 21 21s21-9.402 21-21S34.598 4 23 4c-2.917 0-5.696.595-8.22 1.67l-3.017-3.595Z"/><path fill-rule="evenodd" clip-rule="evenodd" d="M19 18.5a2.5 2.5 0 0 1 2.5-2.5h5a2.5 2.5 0 0 1 2.5 2.5V22h1a1 1 0 0 1 1 1v8a1 1 0 0 1-1 1H18a1 1 0 0 1-1-1v-8a1 1 0 0 1 1-1h1v-3.5Zm3.5-.5a1.5 1.5 0 0 0-1.5 1.5V22h6v-2.5a1.5 1.5 0 0 0-1.5-1.5h-3Z"/></symbol><symbol id="minus" viewBox="0 0 48 48"><path style="fill: var(--opacity, #fff)" opacity=".3" fill-rule="evenodd" clip-rule="evenodd" d="M24 44c11.046 0 20-8.954 20-20S35.046 4 24 4 4 12.954 4 24s8.954 20 20 20Z"/><rect x="12" y="22" width="24" height="4" rx="1"/></symbol><symbol id="option" viewBox="0 0 48 48"><rect style="fill: var(--opacity, #fff)" opacity=".3" x="24" y="14" width="20" height="4" rx="1"/><path d="M4 18a2 2 0 1 1 0-4h10.7a4 4 0 0 1 3.655 2.375L25.3 32H44a2 2 0 1 1 0 4H25.3a4 4 0 0 1-3.655-2.375L14.7 18H4Z"/></symbol><symbol id="plus" viewBox="0 0 48 48"><path style="fill: var(--opacity, #fff)" opacity=".3" fill-rule="evenodd" clip-rule="evenodd" d="M24 44c11.046 0 20-8.954 20-20S35.046 4 24 4 4 12.954 4 24s8.954 20 20 20Z"/><path fill-rule="evenodd" clip-rule="evenodd" d="M26 13a1 1 0 0 0-1-1h-2a1 1 0 0 0-1 1v9h-9a1 1 0 0 0-1 1v2a1 1 0 0 0 1 1h9v9a1 1 0 0 0 1 1h2a1 1 0 0 0 1-1v-9h9a1 1 0 0 0 1-1v-2a1 1 0 0 0-1-1h-9v-9Z"/></symbol><symbol id="puzzle" viewBox="0 0 48 48"><path style="fill: var(--opacity, #fff)" opacity=".3" fill-rule="evenodd" clip-rule="evenodd" d="M16 7a3 3 0 0 1 3-3h6a3 3 0 0 1 3 3v5h8a2 2 0 0 1 2 2v8h5a3 3 0 0 1 3 3v6a3 3 0 0 1-3 3h-5v8a2 2 0 0 1-2 2H8a2 2 0 0 1-2-2v-8h7a3 3 0 0 0 3-3v-6a3 3 0 0 0-3-3H6v-8a2 2 0 0 1 2-2h8V7Z"/></symbol><symbol id="question" viewBox="0 0 48 48"><path style="fill: var(--opacity, #fff)" opacity=".3" fill-rule="evenodd" clip-rule="evenodd" d="M24 44c11.046 0 20-8.954 20-20S35.046 4 24 4 4 12.954 4 24s8.954 20 20 20Z"/><path fill-rule="evenodd" clip-rule="evenodd" d="M21.182 26.418v3.318h2.52c5.082 0 9.072-3.906 9.072-8.946 0-5.04-3.99-8.946-9.072-8.946-5.082 0-9.03 3.906-9.03 8.946h3.57c0-3.192 2.226-5.628 5.46-5.628 3.192 0 5.502 2.436 5.502 5.628s-2.31 5.628-5.502 5.628h-2.52ZM23 32a1 1 0 0 0-1 1v2a1 1 0 0 0 1 1h2a1 1 0 0 0 1-1v-2a1 1 0 0 0-1-1h-2Z"/></symbol><symbol id="right-circle" viewBox="0 0 48 48"><path style="fill: var(--opacity, #fff)" opacity=".3" fill-rule="evenodd" clip-rule="evenodd" d="M24 44c11.046 0 20-8.954 20-20S35.046 4 24 4 4 12.954 4 24s8.954 20 20 20Z"/><path d="M18.645 14.927a1.714 1.714 0 1 1 2.424-2.425l10.286 10.286c.649.649.672 1.694.052 2.37l-9.429 10.286a1.714 1.714 0 1 1-2.527-2.317l8.32-9.075-9.126-9.125Z"/></symbol><symbol id="settings" viewBox="0 0 48 48"><path style="fill: var(--opacity, #fff)" opacity=".3" d="M37.245 19.5h.255a4.5 4.5 0 1 1 0 9h-.129a.975.975 0 0 0-.892.59.976.976 0 0 0 .177 1.08l.09.089a4.5 4.5 0 0 1 0 6.366 4.5 4.5 0 0 1-6.367 0l-.078-.078a.981.981 0 0 0-1.09-.188.973.973 0 0 0-.591.886v.255a4.5 4.5 0 1 1-9 0c-.009-.5-.262-.854-.726-1.028a.97.97 0 0 0-1.063.184l-.09.09a4.5 4.5 0 0 1-7.686-3.184 4.5 4.5 0 0 1 1.32-3.183l.078-.078a.981.981 0 0 0 .188-1.09.973.973 0 0 0-.886-.591H10.5a4.5 4.5 0 1 1 0-9c.5-.009.854-.262 1.028-.726a.97.97 0 0 0-.184-1.063l-.09-.09a4.5 4.5 0 0 1 3.184-7.686 4.5 4.5 0 0 1 3.183 1.32l.078.078a.975.975 0 0 0 1.075.195l.216-.046a.972.972 0 0 0 .51-.847V10.5a4.5 4.5 0 1 1 9 0v.129c.002.389.234.74.606.899a.97.97 0 0 0 1.063-.184l.09-.09a4.5 4.5 0 0 1 6.366 0 4.5 4.5 0 0 1 0 6.367l-.078.078a.975.975 0 0 0-.195 1.075l.046.216a.972.972 0 0 0 .847.51Z"/><path fill-rule="evenodd" clip-rule="evenodd" d="M24 30a6 6 0 1 0 0-12 6 6 0 0 0 0 12Z"/></symbol><symbol id="shift" viewBox="0 0 48 48"><path fill-rule="evenodd" clip-rule="evenodd" d="M14 38V28H4.62a1.5 1.5 0 0 1-1.062-2.56L22.922 6.06a1.5 1.5 0 0 1 2.121 0l19.394 19.379a1.5 1.5 0 0 1-1.06 2.56H34v10a2 2 0 0 1-2 2H16a2 2 0 0 1-2-2Zm16-14h7.338L23.984 10.657 10.651 24H18v12h12V24Z"/></symbol><symbol id="spy" viewBox="0 0 48 48"><path fill-rule="evenodd" clip-rule="evenodd" d="M16 6a8 8 0 0 0-8 8v29a1 1 0 0 0 1 1h30a1 1 0 0 0 1-1V14a8 8 0 0 0-8-8H16Zm-1 14a3 3 0 0 0-3 3v6a3 3 0 0 0 3 3h18a3 3 0 0 0 3-3v-6a3 3 0 0 0-3-3H15Z"/><path style="fill: var(--opacity, #fff)" opacity=".3" fill-rule="evenodd" clip-rule="evenodd" d="M20 26a2 2 0 1 1-4 0 2 2 0 0 1 4 0Zm12 0a2 2 0 1 1-4 0 2 2 0 0 1 4 0Z"/></symbol><symbol id="stop" viewBox="0 0 48 48"><path style="fill: var(--opacity, #fff)" opacity=".3" fill-rule="evenodd" clip-rule="evenodd" d="M8.979 37.205A19.924 19.924 0 0 1 4 24C4 12.954 12.954 4 24 4c5.06 0 9.682 1.88 13.205 4.979a1 1 0 0 0-1.184.172l-2.21 2.21A15.93 15.93 0 0 0 24 8C15.163 8 8 15.163 8 24a15.93 15.93 0 0 0 3.36 9.811l-2.21 2.21a1 1 0 0 0-.171 1.184Zm.864.923-.692-.693a1.001 1.001 0 0 1-.172-.23c.278.317.567.624.864.923Zm.03.029.692.692c.07.07.147.127.23.172A19.924 19.924 0 0 0 24 44c11.046 0 20-8.954 20-20 0-5.06-1.88-9.682-4.979-13.205a1.002 1.002 0 0 0-.172-.23L37.435 9.15a1 1 0 0 0-.23-.172c.643.566 1.25 1.173 1.816 1.816a1 1 0 0 1-.172 1.184l-2.21 2.21a16.093 16.093 0 0 0-2.828-2.829l-22.45 22.451a16.093 16.093 0 0 0 2.828 2.829l-2.21 2.21a1 1 0 0 1-1.184.171 20.167 20.167 0 0 1-.923-.864ZM36.64 14.189A15.931 15.931 0 0 1 40 24c0 8.837-7.163 16-16 16a15.931 15.931 0 0 1-9.811-3.36l22.45-22.451Z"/></symbol><symbol id="terminal" viewBox="0 0 48 48"><path d="M10.586 13.414a2 2 0 1 1 2.828-2.828l12 12a2 2 0 0 1 .06 2.765l-11 12a2 2 0 1 1-2.948-2.702l9.706-10.589-10.646-10.646Z"/><rect style="fill: var(--opacity, #fff)" opacity=".3" x="24" y="34" width="20" height="4" rx="1"/></symbol><symbol id="thunder-circle" viewBox="0 0 48 48"><path style="fill: var(--opacity, #fff)" opacity=".3" fill-rule="evenodd" clip-rule="evenodd" d="M24 44c11.046 0 20-8.954 20-20S35.046 4 24 4 4 12.954 4 24s8.954 20 20 20Z"/><path fill-rule="evenodd" clip-rule="evenodd" d="M22 36.823c0 .791 1.067 1.043 1.42.335l8.037-16.073a.75.75 0 0 0-.67-1.085H24v-8.823c0-.791-1.067-1.043-1.42-.335l-8.037 16.073a.75.75 0 0 0 .67 1.085H22v8.823Z"/></symbol><symbol id="time-schedule" viewBox="0 0 48 48"><path fill-rule="evenodd" clip-rule="evenodd" d="M20.965 15.462a.5.5 0 0 1 .498-.462h1.084a.5.5 0 0 1 .498.45L24 25l6.748 3.856a.5.5 0 0 1 .252.434v1.055a.5.5 0 0 1-.632.483l-9.97-2.72a.5.5 0 0 1-.366-.52l.933-12.126Z"/><path style="fill: var(--opacity, #fff)" opacity=".3" fill-rule="evenodd" clip-rule="evenodd" d="M11.763 2.075a.5.5 0 0 0-.87.206L8.25 13.363a.5.5 0 0 0 .515.615l11.4-.646a.5.5 0 0 0 .355-.82l-3.023-3.603A16.99 16.99 0 0 1 23 8c9.389 0 17 7.611 17 17 0 9.39-7.611 17-17 17S6 34.39 6 25c0-1.576.213-3.12.63-4.603l-3.852-1.08A21.018 21.018 0 0 0 2 25c0 11.598 9.402 21 21 21s21-9.402 21-21S34.598 4 23 4c-2.917 0-5.696.595-8.22 1.67l-3.017-3.595Z"/></symbol><symbol id="warning" viewBox="0 0 48 48"><path style="fill: var(--opacity, #fff)" opacity=".3" fill-rule="evenodd" clip-rule="evenodd" d="M24 44c11.046 0 20-8.954 20-20S35.046 4 24 4 4 12.954 4 24s8.954 20 20 20Z"/><rect x="22" y="14" width="4" height="16" rx="1"/><rect x="22" y="32" width="4" height="4" rx="1"/></symbol><symbol id="warning#2" viewBox="0 0 48 48"><path style="fill: var(--opacity, #fff)" opacity=".3" fill-rule="evenodd" clip-rule="evenodd" d="M24.894 7.464a1 1 0 0 0-1.727.035L4.825 40.514A1 1 0 0 0 5.7 42h38.517a1 1 0 0 0 .853-1.522L24.894 7.464Z"/><rect x="22" y="18" width="4" height="14" rx="1"/><rect x="22" y="34" width="4" height="4" rx="1"/></symbol></svg>