<?xml version="1.0" encoding="UTF-8"?><!DOCTYPE svg PUBLIC "-//W3C//DTD SVG 1.1//EN" "http://www.w3.org/Graphics/SVG/1.1/DTD/svg11.dtd"><svg xmlns="http://www.w3.org/2000/svg" xmlns:xlink="http://www.w3.org/1999/xlink"><defs/><symbol id="active-call" viewBox="0 0 48 48"><path fill-rule="evenodd" clip-rule="evenodd" d="m26.16 29.568 4.408-4.408a4 4 0 0 0 .75-4.617l-.25-.5a4 4 0 0 1 .749-4.617l5.465-5.466a1 1 0 0 1 1.602.26l2.208 4.416a8.775 8.775 0 0 1-1.644 10.129L27.451 36.763a10.854 10.854 0 0 1-11.108 2.622l-4.829-1.61a1 1 0 0 1-.39-1.656l5.302-5.302a4 4 0 0 1 4.617-.75l.5.25a4 4 0 0 0 4.617-.749Z"/><path style="fill: var(--opacity, #fff)" opacity=".3" fill-rule="evenodd" clip-rule="evenodd" d="m28.626 8.027.37-3.982a21.955 21.955 0 0 0-17.603 6.348 21.954 21.954 0 0 0-6.35 17.577l3.982-.365a17.955 17.955 0 0 1 5.197-14.383 17.955 17.955 0 0 1 14.404-5.195Zm-.713 7.969.383-3.982A13.973 13.973 0 0 0 17.05 16.05a13.972 13.972 0 0 0-4.04 11.207l3.983-.372a9.973 9.973 0 0 1 2.886-8.006 9.974 9.974 0 0 1 8.034-2.883Z"/></symbol><symbol id="add-user" viewBox="0 0 48 48"><path style="fill: var(--opacity, #fff)" opacity=".3" fill-rule="evenodd" clip-rule="evenodd" d="M18 22a8 8 0 1 1 0-16 8 8 0 0 1 0 16Zm19 0a1 1 0 0 1-1-1v-5h-5a1 1 0 0 1-1-1v-2a1 1 0 0 1 1-1h5V7a1 1 0 0 1 1-1h2a1 1 0 0 1 1 1v5h5a1 1 0 0 1 1 1v2a1 1 0 0 1-1 1h-5v5a1 1 0 0 1-1 1h-2Z"/><path d="M.001 40.398C.777 30.853 8.524 26 17.967 26c9.575 0 17.443 4.586 18.029 14.4.023.39 0 1.6-1.503 1.6H1.455C.953 42-.041 40.918.001 40.398Z"/></symbol><symbol id="address-card" viewBox="0 0 48 48"><path fill-rule="evenodd" clip-rule="evenodd" d="M6 7a3 3 0 0 1 3-3h30a3 3 0 0 1 3 3v34a3 3 0 0 1-3 3H9a3 3 0 0 1-3-3V7Zm18 15a4 4 0 1 1 0-8 4 4 0 0 1 0 8Zm-.018 2c-5.247 0-9.55 3.033-9.981 8.999-.024.325.529 1.001.807 1.001h18.355c.835 0 .848-.756.835-1-.326-6.134-4.697-9-10.016-9Z"/></symbol><symbol id="adress-book#1" viewBox="0 0 48 48"><path style="fill: var(--opacity, #fff)" opacity=".3" d="M34 4h7a3 3 0 0 1 3 3v34a3 3 0 0 1-3 3h-7V4Z"/><path fill-rule="evenodd" clip-rule="evenodd" d="M7 4a1 1 0 0 0-1 1v38a1 1 0 0 0 1 1h28a3 3 0 0 0 3-3V7a3 3 0 0 0-3-3H7Zm14.764 23.89a2 2 0 0 1-2.309.375l-1.192-.596a2 2 0 0 0-2.309.375l-4.066 4.065a.5.5 0 0 0 .196.828l4.2 1.4a6 6 0 0 0 6.14-1.45l8.462-8.462A6 6 0 0 0 32.01 17.5l-1.527-3.054a.5.5 0 0 0-.8-.13l-4.148 4.147a2 2 0 0 0-.375 2.31l.597 1.192a2 2 0 0 1-.375 2.308l-3.618 3.619Z"/></symbol><symbol id="adress-book#2" viewBox="0 0 48 48"><path style="fill: var(--opacity, #fff)" opacity=".3" d="M36 4h7a3 3 0 0 1 3 3v34a3 3 0 0 1-3 3h-7V4Z"/><path fill-rule="evenodd" clip-rule="evenodd" d="M8 5a1 1 0 0 1 1-1h28a3 3 0 0 1 3 3v34a3 3 0 0 1-3 3H9a1 1 0 0 1-1-1V5Zm16 17a4 4 0 1 1 0-8 4 4 0 0 1 0 8Zm-.018 2c-5.247 0-9.55 3.033-9.981 8.999-.024.325.529 1.001.807 1.001h18.355c.835 0 .848-.756.835-1-.326-6.134-4.697-9-10.016-9Z"/></symbol><symbol id="archive" viewBox="0 0 48 48"><path fill-rule="evenodd" clip-rule="evenodd" d="M7.5 6A1.5 1.5 0 0 0 6 7.5v33A1.5 1.5 0 0 0 7.5 42h33a1.5 1.5 0 0 0 1.5-1.5v-33A1.5 1.5 0 0 0 40.5 6h-33Zm8 4a1.5 1.5 0 0 0-1.5 1.5v1a1.5 1.5 0 0 0 1.5 1.5h17a1.5 1.5 0 0 0 1.5-1.5v-1a1.5 1.5 0 0 0-1.5-1.5h-17Z"/></symbol><symbol id="backward" viewBox="0 0 48 48"><path d="M25.314 20V9.67a.75.75 0 0 0-1.248-.56L7.91 23.472a.75.75 0 0 0-.032 1.09L24.034 40.72a.75.75 0 0 0 1.28-.53V30c3.721-.224 14.984-.051 17.499-.009.28.005.502-.22.502-.5v-8.986a.493.493 0 0 0-.497-.5c-2.748.026-16.026.142-17.503-.005Z"/></symbol><symbol id="business" viewBox="0 0 24 24"><path d="M20 19h-8v-2h2v-2h-2v-2h2v-2h-2V9h8zM10 7H8V5h2zm0 4H8V9h2zm0 4H8v-2h2zm0 4H8v-2h2zM6 7H4V5h2zm0 4H4V9h2zm0 4H4v-2h2zm0 4H4v-2h2zm6-12V3H2v18h20V7z"/><path d="M18 11h-2v2h2zM18 15h-2v2h2z"/></symbol><symbol id="call_end" viewBox="0 0 24 24"><path d="M12 9c-1.6 0-3.15.25-4.6.72v3.1c0 .39-.23.74-.56.9-.98.49-1.87 1.12-2.66 1.85-.18.18-.43.28-.7.28-.28 0-.53-.11-.71-.29L.29 13.08a.956.956 0 0 1-.29-.7c0-.28.11-.53.29-.71C3.34 8.78 7.46 7 12 7s8.66 1.78 11.71 4.67c.18.18.29.43.29.71 0 .28-.11.53-.29.71l-2.48 2.48c-.18.18-.43.29-.71.29-.27 0-.52-.11-.7-.28a11.27 11.27 0 0 0-2.67-1.85.996.996 0 0 1-.56-.9v-3.1C15.15 9.25 13.6 9 12 9z"/></symbol><symbol id="call_made" viewBox="0 0 24 24"><path d="M9 5v2h6.59L4 18.59 5.41 20 17 8.41V15h2V5z"/></symbol><symbol id="call_merge" viewBox="0 0 24 24"><path d="M17 20.41 18.41 19 15 15.59 13.59 17 17 20.41zM7.5 8H11v5.59L5.59 19 7 20.41l6-6V8h3.5L12 3.5 7.5 8z"/></symbol><symbol id="call_missed_outgoing" viewBox="0 0 24 24"><path d="m3 8.41 9 9 7-7V15h2V7h-8v2h4.59L12 14.59 4.41 7 3 8.41z"/></symbol><symbol id="call_missed" viewBox="0 0 24 24"><path d="M19.59 7 12 14.59 6.41 9H11V7H3v8h2v-4.59l7 7 9-9z"/></symbol><symbol id="call_received" viewBox="0 0 24 24"><path d="M20 5.41 18.59 4 7 15.59V9H5v10h10v-2H8.41z"/></symbol><symbol id="call_split" viewBox="0 0 24 24"><path d="m14 4 2.29 2.29-2.88 2.88 1.42 1.42 2.88-2.88L20 10V4zM10 4H4v6l2.29-2.29 4.71 4.7V20h2v-8.41l-5.29-5.3z"/></symbol><symbol id="call" viewBox="0 0 24 24"><path d="M6.62 10.79c1.44 2.83 3.76 5.14 6.59 6.59l2.2-2.2c.27-.27.67-.36 1.02-.24 1.12.37 2.33.57 3.57.57.55 0 1 .45 1 1V20c0 .55-.45 1-1 1-9.39 0-17-7.61-17-17 0-.55.45-1 1-1h3.5c.55 0 1 .45 1 1 0 1.25.2 2.45.57 3.57.11.35.03.74-.25 1.02z"/></symbol><symbol id="call#1" viewBox="0 0 48 48"><path fill-rule="evenodd" clip-rule="evenodd" d="m23.83 28.285 4.408-4.408a4 4 0 0 0 .75-4.617l-.25-.5a4 4 0 0 1 .749-4.617l5.465-5.465a1 1 0 0 1 1.602.26l2.208 4.415a8.775 8.775 0 0 1-1.644 10.13L25.12 35.48a10.854 10.854 0 0 1-11.107 2.622l-4.829-1.61a1 1 0 0 1-.39-1.655l5.302-5.303a4 4 0 0 1 4.617-.749l.5.25a4 4 0 0 0 4.617-.75Z"/></symbol><symbol id="call#2" viewBox="0 0 48 48"><path fill-rule="evenodd" clip-rule="evenodd" d="M44 24c0 11.046-8.954 20-20 20S4 35.046 4 24 12.954 4 24 4s20 8.954 20 20Zm-21.244 2.898a2 2 0 0 1-2.308.374l-1.193-.596a2 2 0 0 0-2.308.375l-4.066 4.065a.5.5 0 0 0 .196.828l4.2 1.4a6 6 0 0 0 6.14-1.45l8.462-8.462a6 6 0 0 0 1.123-6.926l-1.527-3.054a.5.5 0 0 0-.8-.13l-4.147 4.147a2 2 0 0 0-.375 2.309l.596 1.193a2 2 0 0 1-.374 2.308l-3.619 3.619Z"/></symbol><symbol id="chat_bubble_outline" viewBox="0 0 24 24"><path d="M20 2H4c-1.1 0-2 .9-2 2v18l4-4h14c1.1 0 2-.9 2-2V4c0-1.1-.9-2-2-2zm0 14H6l-2 2V4h16v12z"/></symbol><symbol id="chat_bubble" viewBox="0 0 24 24"><path d="M20 2H4c-1.1 0-2 .9-2 2v18l4-4h14c1.1 0 2-.9 2-2V4c0-1.1-.9-2-2-2z"/></symbol><symbol id="chat-check" viewBox="0 0 48 48"><path style="fill: var(--opacity, #fff)" opacity=".3" d="M9.75 41.5c-.48 0-.958-.192-1.342-.575l-3.833-3.833c-.767-.767-.767-1.917 0-2.684.767-.766 2.013-.766 2.683 0L9.75 36.9l6.325-6.325c.767-.767 1.917-.767 2.683 0 .767.767.767 1.917 0 2.683l-7.666 7.667a1.892 1.892 0 0 1-1.342.575Z"/><path fill-rule="evenodd" clip-rule="evenodd" d="M7 6a3 3 0 0 0-3 3v14.73A14.935 14.935 0 0 1 11 22c7.948 0 14.453 6.182 14.967 14H36.05l6.293 6.293c.63.63 1.707.184 1.707-.707V30l-.05.02V9a3 3 0 0 0-3-3H7Zm4 8a1 1 0 0 0-1 1v2a1 1 0 0 0 1 1h20a1 1 0 0 0 1-1v-2a1 1 0 0 0-1-1H11Z"/></symbol><symbol id="chat-error" viewBox="0 0 48 48"><path fill-rule="evenodd" clip-rule="evenodd" d="M7 6a3 3 0 0 0-3 3v14.73A14.935 14.935 0 0 1 11 22c7.948 0 14.453 6.182 14.967 14H36.05l6.293 6.293c.63.63 1.707.184 1.707-.707V30l-.05.02V9a3 3 0 0 0-3-3H7Zm4 8a1 1 0 0 0-1 1v2a1 1 0 0 0 1 1h20a1 1 0 0 0 1-1v-2a1 1 0 0 0-1-1H11Z"/><path style="fill: var(--opacity, #fff)" opacity=".3" fill-rule="evenodd" clip-rule="evenodd" d="M11 28a1 1 0 0 0-1 1v6a1 1 0 0 0 1 1h2a1 1 0 0 0 1-1v-6a1 1 0 0 0-1-1h-2Zm3 12a2 2 0 1 1-4 0 2 2 0 0 1 4 0Z"/></symbol><symbol id="chat-locked" viewBox="0 0 48 48"><path style="fill: var(--opacity, #fff)" opacity=".3" fill-rule="evenodd" clip-rule="evenodd" d="M10 30 6 43l13-4-9-9Z"/><path fill-rule="evenodd" clip-rule="evenodd" d="M46 23c0 10.493-8.507 19-19 19S8 33.493 8 23 16.507 4 27 4s19 8.507 19 19Zm-25-3a1 1 0 0 0-1 1v8a1 1 0 0 0 1 1h12a1 1 0 0 0 1-1v-8a1 1 0 0 0-1-1h-1v-3.5a2.5 2.5 0 0 0-2.5-2.5h-5a2.5 2.5 0 0 0-2.5 2.5V20h-1Zm4.5-4a1.5 1.5 0 0 0-1.5 1.5V20h6v-2.5a1.5 1.5 0 0 0-1.5-1.5h-3Z"/></symbol><symbol id="chat-smile" viewBox="0 0 48 48"><path style="fill: var(--opacity, #fff)" opacity=".3" fill-rule="evenodd" clip-rule="evenodd" d="M10 30 6 43l13-4-9-9Z"/><path fill-rule="evenodd" clip-rule="evenodd" d="M16 4C10.477 4 6 8.477 6 14v20c0 5.523 4.477 10 10 10h20c5.523 0 10-4.477 10-10V14c0-5.523-4.477-10-10-10H16Zm-1.11 20.336a2 2 0 0 0-.554 2.773C17.356 31.64 21.29 34 26 34s8.645-2.362 11.664-6.89a2 2 0 0 0-3.328-2.22C32.022 28.363 29.29 30 26 30c-3.291 0-6.022-1.638-8.336-5.11a2 2 0 0 0-2.773-.554Z"/></symbol><symbol id="chat" viewBox="0 0 24 24"><path d="M20 2H4c-1.1 0-1.99.9-1.99 2L2 22l4-4h14c1.1 0 2-.9 2-2V4c0-1.1-.9-2-2-2zM6 9h12v2H6V9zm8 5H6v-2h8v2zm4-6H6V6h12v2z"/></symbol><symbol id="chat#1" viewBox="0 0 48 48"><path style="fill: var(--opacity, #fff)" opacity=".3" fill-rule="evenodd" clip-rule="evenodd" d="M10 30 6 43l13-4-9-9Z"/><path fill-rule="evenodd" clip-rule="evenodd" d="M46 23c0 10.493-8.507 19-19 19S8 33.493 8 23 16.507 4 27 4s19 8.507 19 19Zm-26 0a3 3 0 1 1-6 0 3 3 0 0 1 6 0Zm7 3a3 3 0 1 0 0-6 3 3 0 0 0 0 6Zm13-3a3 3 0 1 1-6 0 3 3 0 0 1 6 0Z"/></symbol><symbol id="chat#2" viewBox="0 0 48 48"><path style="fill: var(--opacity, #fff)" opacity=".3" fill-rule="evenodd" clip-rule="evenodd" d="M10 30 6 43l13-4-9-9Z"/><path fill-rule="evenodd" clip-rule="evenodd" d="M27 42c10.493 0 19-8.507 19-19S37.493 4 27 4 8 12.507 8 23s8.507 19 19 19ZM16 17a1 1 0 0 1 1-1h20a1 1 0 0 1 1 1v2a1 1 0 0 1-1 1H17a1 1 0 0 1-1-1v-2Zm1 7a1 1 0 0 0-1 1v2a1 1 0 0 0 1 1h12a1 1 0 0 0 1-1v-2a1 1 0 0 0-1-1H17Z"/></symbol><symbol id="chat#4" viewBox="0 0 48 48"><path fill-rule="evenodd" clip-rule="evenodd" d="M4 9a3 3 0 0 1 3-3h34a3 3 0 0 1 3 3v21.02l.05-.02v11.586c0 .89-1.077 1.337-1.707.707L36.05 36H7a3 3 0 0 1-3-3V9Zm8.89 9.336a2 2 0 0 0-.554 2.773C15.356 25.64 19.29 28 24 28s8.645-2.362 11.664-6.89a2 2 0 0 0-3.328-2.22C30.022 22.363 27.29 24 24 24c-3.291 0-6.022-1.638-8.336-5.11a2 2 0 0 0-2.773-.554Z"/></symbol><symbol id="chat#5" viewBox="0 0 48 48"><path style="fill: var(--opacity, #fff)" opacity=".3" fill-rule="evenodd" clip-rule="evenodd" d="M9 6a3 3 0 0 0-3 3v24a3 3 0 0 0 3 3h27.05l6.293 6.293c.63.63 1.707.184 1.707-.707V30l-.05.02V9a3 3 0 0 0-3-3H9Z"/><path opacity=".3" fill-rule="evenodd" clip-rule="evenodd" d="M15 24a3 3 0 1 1 0-6 3 3 0 0 1 0 6Zm10 0a3 3 0 1 1 0-6 3 3 0 0 1 0 6Zm10 0a3 3 0 1 1 0-6 3 3 0 0 1 0 6Z"/></symbol><symbol id="chat#6" viewBox="0 0 48 48"><path style="fill: var(--opacity, #fff)" opacity=".3" fill-rule="evenodd" clip-rule="evenodd" d="M7 6a3 3 0 0 0-3 3v24a3 3 0 0 0 3 3h11.033l5.056 7.626a1 1 0 0 0 1.709-.07L28.971 36H41a3 3 0 0 0 3-3V9a3 3 0 0 0-3-3H7Z"/><path opacity=".3" fill-rule="evenodd" clip-rule="evenodd" d="M12 14h18a2 2 0 1 1 0 4H12a2 2 0 1 1 0-4Zm0 8h10a2 2 0 1 1 0 4H12a2 2 0 1 1 0-4Z"/></symbol><symbol id="clear_all" viewBox="0 0 24 24"><path d="M5 13h14v-2H5zM3 17h14v-2H3zM7 7v2h14V7z"/></symbol><symbol id="clipboard-check" viewBox="0 0 48 48"><path style="fill: var(--opacity, #fff)" opacity=".3" fill-rule="evenodd" clip-rule="evenodd" d="M16 6h-6a2 2 0 0 0-2 2v36a2 2 0 0 0 2 2h28a2 2 0 0 0 2-2V8a2 2 0 0 0-2-2h-6v1a3 3 0 0 1-3 3H19a3 3 0 0 1-3-3V6Z"/><path fill-rule="evenodd" clip-rule="evenodd" d="M21.75 31.5c-.48 0-.958-.192-1.342-.575l-3.833-3.833c-.767-.767-.767-1.917 0-2.684.767-.766 2.012-.766 2.683 0L21.75 26.9l6.325-6.325c.767-.767 1.917-.767 2.683 0 .767.767.767 1.917 0 2.683l-7.666 7.667a1.892 1.892 0 0 1-1.342.575ZM26 4h3.5a.5.5 0 0 1 .5.5v3a.5.5 0 0 1-.5.5h-11a.5.5 0 0 1-.5-.5v-3a.5.5 0 0 1 .5-.5H22a2 2 0 1 1 4 0Z"/></symbol><symbol id="clipboard-list" viewBox="0 0 48 48"><path style="fill: var(--opacity, #fff)" opacity=".3" fill-rule="evenodd" clip-rule="evenodd" d="M16 6h-6a2 2 0 0 0-2 2v36a2 2 0 0 0 2 2h28a2 2 0 0 0 2-2V8a2 2 0 0 0-2-2h-6v1a3 3 0 0 1-3 3H19a3 3 0 0 1-3-3V6Z"/><path fill-rule="evenodd" clip-rule="evenodd" d="M26 4h3.5a.5.5 0 0 1 .5.5v3a.5.5 0 0 1-.5.5h-11a.5.5 0 0 1-.5-.5v-3a.5.5 0 0 1 .5-.5H22a2 2 0 1 1 4 0Z"/><rect opacity=".3" x="20" y="18" width="14" height="4" rx="2"/><rect opacity=".3" x="14" y="18" width="4" height="4" rx="2"/><rect opacity=".3" x="14" y="26" width="4" height="4" rx="2"/><rect opacity=".3" x="20" y="26" width="14" height="4" rx="2"/><rect opacity=".3" x="14" y="34" width="4" height="4" rx="2"/><rect opacity=".3" x="20" y="34" width="14" height="4" rx="2"/></symbol><symbol id="comment" viewBox="0 0 24 24"><path d="M21.99 4c0-1.1-.89-2-1.99-2H4c-1.1 0-2 .9-2 2v12c0 1.1.9 2 2 2h14l4 4-.01-18zM18 14H6v-2h12v2zm0-3H6V9h12v2zm0-3H6V6h12v2z"/></symbol><symbol id="contact_mail" viewBox="0 0 24 24"><path d="M21 8V7l-3 2-3-2v1l3 2 3-2zm1-5H2C.9 3 0 3.9 0 5v14c0 1.1.9 2 2 2h20c1.1 0 1.99-.9 1.99-2L24 5c0-1.1-.9-2-2-2zM8 6c1.66 0 3 1.34 3 3s-1.34 3-3 3-3-1.34-3-3 1.34-3 3-3zm6 12H2v-1c0-2 4-3.1 6-3.1s6 1.1 6 3.1v1zm8-6h-8V6h8v6z"/></symbol><symbol id="contact_phone" viewBox="0 0 24 24"><path d="M22 3H2C.9 3 0 3.9 0 5v14c0 1.1.9 2 2 2h20c1.1 0 1.99-.9 1.99-2L24 5c0-1.1-.9-2-2-2zM8 6c1.66 0 3 1.34 3 3s-1.34 3-3 3-3-1.34-3-3 1.34-3 3-3zm6 12H2v-1c0-2 4-3.1 6-3.1s6 1.1 6 3.1v1zm3.85-4h1.64L21 16l-1.99 1.99A7.512 7.512 0 0 1 16.28 14c-.18-.64-.28-1.31-.28-2s.1-1.36.28-2a7.474 7.474 0 0 1 2.73-3.99L21 8l-1.51 2h-1.64c-.22.63-.35 1.3-.35 2s.13 1.37.35 2z"/></symbol><symbol id="contact#1" viewBox="0 0 48 48"><path style="fill: var(--opacity, #fff)" opacity=".3" fill-rule="evenodd" clip-rule="evenodd" d="M24 44c11.046 0 20-8.954 20-20S35.046 4 24 4 4 12.954 4 24s8.954 20 20 20Z"/><path opacity=".3" fill-rule="evenodd" clip-rule="evenodd" d="M24 22a4 4 0 1 1 0-8 4 4 0 0 1 0 8ZM14 32.999C14.432 27.033 18.736 24 23.983 24c5.32 0 9.69 2.866 10.016 9 .013.244 0 1-.835 1H14.808c-.278 0-.83-.676-.807-1.001Z"/></symbol><symbol id="contacts" viewBox="0 0 24 24"><path d="M20 0H4v2h16V0zM4 24h16v-2H4v2zM17 17H7v-1.5c0-1.67 3.33-2.5 5-2.5s5 .83 5 2.5V17zM12 6.75c1.24 0 2.25 1.01 2.25 2.25s-1.01 2.25-2.25 2.25S9.75 10.24 9.75 9 10.76 6.75 12 6.75zM20 4H4c-1.1 0-2 .9-2 2v12c0 1.1.9 2 2 2h16c1.1 0 2-.9 2-2V6c0-1.1-.9-2-2-2z"/></symbol><symbol id="delete-user" viewBox="0 0 48 48"><path style="fill: var(--opacity, #fff)" opacity=".3" fill-rule="evenodd" clip-rule="evenodd" d="M10 14a8 8 0 1 0 16 0 8 8 0 0 0-16 0Zm33 2a1 1 0 0 0 1-1v-2a1 1 0 0 0-1-1H33a1 1 0 0 0-1 1v2a1 1 0 0 0 1 1h10Z"/><path d="M.001 40.398C.777 30.853 8.524 26 17.967 26c9.575 0 17.443 4.586 18.029 14.4.023.39 0 1.6-1.503 1.6H1.455C.953 42-.041 40.918.001 40.398Z"/></symbol><symbol id="dial-numbers" viewBox="0 0 48 48"><rect style="fill: var(--opacity, #fff)" opacity=".3" x="8" y="8" width="8" height="8" rx="2"/><rect x="8" y="20" width="8" height="8" rx="2"/><rect x="20" y="8" width="8" height="8" rx="2"/><rect x="20" y="20" width="8" height="8" rx="2"/><rect x="32" y="8" width="8" height="8" rx="2"/><rect x="32" y="20" width="8" height="8" rx="2"/><rect x="8" y="32" width="8" height="8" rx="2"/><rect x="20" y="32" width="8" height="8" rx="2"/><rect x="32" y="32" width="8" height="8" rx="2"/></symbol><symbol id="dialer_sip" viewBox="0 0 24 24"><path d="M20 5h-1V4h1v1zm-2-2v5h1V6h2V3h-3zm-3 2h-2V4h2V3h-3v3h2v1h-2v1h3V5zm2-2h-1v5h1V3z"/><path d="M20 15.5c-1.25 0-2.45-.2-3.57-.57a.998.998 0 0 0-1.01.24l-2.2 2.2a15.045 15.045 0 0 1-6.59-6.59l2.2-2.21c.27-.26.35-.65.24-1A11.36 11.36 0 0 1 8.5 4c0-.55-.45-1-1-1H4c-.55 0-1 .45-1 1 0 9.39 7.61 17 17 17 .55 0 1-.45 1-1v-3.5c0-.55-.45-1-1-1z"/></symbol><symbol id="dialpad" viewBox="0 0 24 24"><path d="M12 19c-1.1 0-2 .9-2 2s.9 2 2 2 2-.9 2-2-.9-2-2-2zM6 13c-1.1 0-2 .9-2 2s.9 2 2 2 2-.9 2-2-.9-2-2-2zm0-6c-1.1 0-2 .9-2 2s.9 2 2 2 2-.9 2-2-.9-2-2-2zm0-6c-1.1 0-2 .9-2 2s.9 2 2 2 2-.9 2-2-.9-2-2-2zM18 7c-1.1 0-2 .9-2 2s.9 2 2 2 2-.9 2-2-.9-2-2-2zm0 6c-1.1 0-2 .9-2 2s.9 2 2 2 2-.9 2-2-.9-2-2-2zm0-8c1.1 0 2-.9 2-2s-.9-2-2-2-2 .9-2 2 .9 2 2 2zM12 1c-1.1 0-2 .9-2 2s.9 2 2 2 2-.9 2-2-.9-2-2-2zm0 6c-1.1 0-2 .9-2 2s.9 2 2 2 2-.9 2-2-.9-2-2-2zm0 6c-1.1 0-2 .9-2 2s.9 2 2 2 2-.9 2-2-.9-2-2-2z"/></symbol><symbol id="email" viewBox="0 0 24 24"><path d="M20 4H4c-1.1 0-1.99.9-1.99 2L2 18c0 1.1.9 2 2 2h16c1.1 0 2-.9 2-2V6c0-1.1-.9-2-2-2zm0 4-8 5-8-5V6l8 5 8-5v2z"/></symbol><symbol id="flag" viewBox="0 0 48 48"><path d="M4 7.5A1.5 1.5 0 0 1 5.5 6H10v34.5A1.5 1.5 0 0 1 8.5 42h-3A1.5 1.5 0 0 1 4 40.5v-33Z"/></symbol><symbol id="forum" viewBox="0 0 24 24"><path d="M21 6h-2v9H6v2c0 .55.45 1 1 1h11l4 4V7c0-.55-.45-1-1-1z"/><path d="M17 12V3c0-.55-.45-1-1-1H3c-.55 0-1 .45-1 1v14l4-4h10c.55 0 1-.45 1-1z"/></symbol><symbol id="forward" viewBox="0 0 48 48"><path d="M26 20V9.67a.75.75 0 0 1 1.248-.56l16.158 14.362a.75.75 0 0 1 .032 1.09L27.28 40.72a.75.75 0 0 1-1.28-.53V30c-3.72-.224-14.983-.051-17.498-.009a.494.494 0 0 1-.502-.5v-8.986c0-.278.218-.503.497-.5 2.748.026 16.025.142 17.503-.005Z"/></symbol><symbol id="group-chat" viewBox="0 0 48 48"><path fill-rule="evenodd" clip-rule="evenodd" d="M45.192 37.142a.5.5 0 0 0 .854-.355l-.038-10.576V11.053A5.053 5.053 0 0 0 40.955 6H17.376a5.053 5.053 0 0 0-5.052 5.053V18H29a3 3 0 0 1 3 3v10.263h7.313l5.879 5.88Z"/><path style="fill: var(--opacity, #fff)" opacity=".3" fill-rule="evenodd" clip-rule="evenodd" d="M3.97 36V26a4 4 0 0 1 4-4h16a4 4 0 0 1 4 4v10a4 4 0 0 1-4 4H8.202l-3.334 3.19a.5.5 0 0 1-.846-.36v-6.181A4.029 4.029 0 0 1 3.97 36ZM12 28.5a.5.5 0 0 1 .5-.5h11a.5.5 0 0 1 .5.5v1a.5.5 0 0 1-.5.5h-11a.5.5 0 0 1-.5-.5v-1Zm6.5 3.5a.5.5 0 0 0-.5.5v1a.5.5 0 0 0 .5.5h5a.5.5 0 0 0 .5-.5v-1a.5.5 0 0 0-.5-.5h-5Z"/></symbol><symbol id="group" viewBox="0 0 48 48"><path style="fill: var(--opacity, #fff)" opacity=".3" fill-rule="evenodd" clip-rule="evenodd" d="M10 14a8 8 0 1 0 16 0 8 8 0 0 0-16 0Zm20 8a6 6 0 1 0 12 0 6 6 0 0 0-12 0Z"/><path fill-rule="evenodd" clip-rule="evenodd" d="M17.967 26C8.524 26 .777 30.853 0 40.398-.04 40.918.953 42 1.455 42h33.038c1.503 0 1.526-1.21 1.503-1.6-.586-9.814-8.454-14.4-18.03-14.4Zm28.945 16H39.2c0-4.502-1.487-8.656-3.998-11.999 6.813.075 12.376 3.52 12.795 10.799.017.293 0 1.2-1.085 1.2Z"/></symbol><symbol id="import_contacts" viewBox="0 0 24 24"><path d="M21 5c-1.11-.35-2.33-.5-3.5-.5-1.95 0-4.05.4-5.5 1.5-1.45-1.1-3.55-1.5-5.5-1.5S2.45 4.9 1 6v14.65c0 .25.25.5.5.5.1 0 .15-.05.25-.05C3.1 20.45 5.05 20 6.5 20c1.95 0 4.05.4 5.5 1.5 1.35-.85 3.8-1.5 5.5-1.5 1.65 0 3.35.3 4.75 1.05.1.05.15.05.25.05.25 0 .5-.25.5-.5V6c-.6-.45-1.25-.75-2-1zm0 13.5c-1.1-.35-2.3-.5-3.5-.5-1.7 0-4.15.65-5.5 1.5V8c1.35-.85 3.8-1.5 5.5-1.5 1.2 0 2.4.15 3.5.5v11.5z"/></symbol><symbol id="import_export" viewBox="0 0 24 24"><path d="M9 3 5 6.99h3V14h2V6.99h3L9 3zM16 17.01V10h-2v7.01h-3L15 21l4-3.99h-3z"/></symbol><symbol id="incoming-box" viewBox="0 0 48 48"><path fill-rule="evenodd" clip-rule="evenodd" d="M44 34v8a4 4 0 0 1-4 4H8a4 4 0 0 1-4-4v-8h8.559l1.088 3.265A4 4 0 0 0 17.442 40h13.322a4 4 0 0 0 3.578-2.211L36.236 34H44Z"/><path style="fill: var(--opacity, #fff)" opacity=".3" fill-rule="evenodd" clip-rule="evenodd" d="m5.125 30 6.728-11.961A4 4 0 0 1 15.34 16h17.322a4 4 0 0 1 3.486 2.039L42.875 30h-6.639a4 4 0 0 0-3.578 2.211L30.764 36H17.442l-1.089-3.265A4 4 0 0 0 12.558 30H5.126Z"/><path d="M31.235 6.484a.5.5 0 0 0-.381-.823h-4.992V1.146a.5.5 0 0 0-.5-.5h-3.046a.5.5 0 0 0-.5.5v4.515h-4.992a.5.5 0 0 0-.382.823l7.015 8.286a.5.5 0 0 0 .763 0l7.015-8.286Z"/></symbol><symbol id="incoming-call" viewBox="0 0 48 48"><path style="fill: var(--opacity, #fff)" opacity=".3" d="M19.72 12.023a1 1 0 0 1 1.702.597l1.046 9.418a1 1 0 0 1-1.104 1.104l-9.418-1.046a1 1 0 0 1-.596-1.701l2.771-2.772-3.003-3.003a1 1 0 0 1 0-1.414l1.414-1.414a1 1 0 0 1 1.415 0l3.003 3.003 2.77-2.772Z"/><path fill-rule="evenodd" clip-rule="evenodd" d="m24.16 29.568 4.408-4.408a4 4 0 0 0 .75-4.617l-.25-.5a4 4 0 0 1 .749-4.617l5.465-5.466a1 1 0 0 1 1.602.26l2.208 4.416a8.775 8.775 0 0 1-1.644 10.129L25.451 36.763a10.854 10.854 0 0 1-11.108 2.622l-4.829-1.61a1 1 0 0 1-.39-1.656l5.302-5.302a4 4 0 0 1 4.617-.75l.5.25a4 4 0 0 0 4.617-.749Z"/></symbol><symbol id="incoming-mail" viewBox="0 0 48 48"><path fill-rule="evenodd" clip-rule="evenodd" d="M8 18a2 2 0 0 0-2 2v22a2 2 0 0 0 2 2h32a2 2 0 0 0 2-2V20a2 2 0 0 0-2-2H8Zm30.32 4.289a1.5 1.5 0 0 0-2.031-.61L24 28.296 11.711 21.68a1.5 1.5 0 1 0-1.422 2.642l13 7a1.5 1.5 0 0 0 1.422 0l13-7a1.5 1.5 0 0 0 .61-2.032Z"/><path style="fill: var(--opacity, #fff)" opacity=".3" d="M31.235 6.484a.5.5 0 0 0-.381-.823h-4.992V1.146a.5.5 0 0 0-.5-.5h-3.046a.5.5 0 0 0-.5.5v4.515h-4.992a.5.5 0 0 0-.382.823l7.015 8.286a.5.5 0 0 0 .763 0l7.015-8.286Z"/></symbol><symbol id="invert_colors_off" viewBox="0 0 24 24"><path d="M12 19.59c-1.6 0-3.11-.62-4.24-1.76A5.945 5.945 0 0 1 6 13.59c0-1.32.43-2.57 1.21-3.6L12 14.77zm8.65 1.28-2.35-2.35-6.3-6.29-3.56-3.57-1.42-1.41L4.27 4.5 3 5.77l2.78 2.78a8.005 8.005 0 0 0 .56 10.69A7.98 7.98 0 0 0 12 21.58c1.79 0 3.57-.59 5.03-1.78l2.7 2.7L21 21.23zM12 5.1v4.58l7.25 7.26c1.37-2.96.84-6.57-1.6-9.01L12 2.27l-3.7 3.7 1.41 1.41z"/></symbol><symbol id="live_help" viewBox="0 0 24 24"><path d="M19 2H5a2 2 0 0 0-2 2v14a2 2 0 0 0 2 2h4l3 3 3-3h4c1.1 0 2-.9 2-2V4c0-1.1-.9-2-2-2zm-6 16h-2v-2h2v2zm2.07-7.75-.9.92C13.45 11.9 13 12.5 13 14h-2v-.5c0-1.1.45-2.1 1.17-2.83l1.24-1.26c.37-.36.59-.86.59-1.41 0-1.1-.9-2-2-2s-2 .9-2 2H8c0-2.21 1.79-4 4-4s4 1.79 4 4c0 .88-.36 1.68-.93 2.25z"/></symbol><symbol id="location_off" viewBox="0 0 24 24"><path d="M12 6.5A2.5 2.5 0 0 1 14.5 9c0 .74-.33 1.39-.83 1.85l3.63 3.63c.98-1.86 1.7-3.8 1.7-5.48 0-3.87-3.13-7-7-7a7 7 0 0 0-5.04 2.15l3.19 3.19c.46-.52 1.11-.84 1.85-.84zM16.37 16.1l-4.63-4.63-.11-.11L3.27 3 2 4.27l3.18 3.18C5.07 7.95 5 8.47 5 9c0 5.25 7 13 7 13s1.67-1.85 3.38-4.35L18.73 21 20 19.73l-3.63-3.63z"/></symbol><symbol id="location_on" viewBox="0 0 24 24"><path d="M12 2C8.13 2 5 5.13 5 9c0 5.25 7 13 7 13s7-7.75 7-13c0-3.87-3.13-7-7-7zm0 9.5a2.5 2.5 0 0 1 0-5 2.5 2.5 0 0 1 0 5z"/></symbol><symbol id="mail_outline" viewBox="0 0 24 24"><path d="M20 4H4c-1.1 0-1.99.9-1.99 2L2 18c0 1.1.9 2 2 2h16c1.1 0 2-.9 2-2V6c0-1.1-.9-2-2-2zm0 14H4V8l8 5 8-5v10zm-8-7L4 6h16l-8 5z"/></symbol><symbol id="mail-@" viewBox="0 0 48 48"><path fill-rule="evenodd" clip-rule="evenodd" d="M23.15 42.4c-10.8 0-17.45-7.6-17.45-17.25 0-11.4 9.05-19.05 19.35-19.05 9.85 0 17.2 6.05 17.2 15.6 0 8.7-4.6 12.15-9.2 12.15-2.25 0-4.1-1.05-4.9-2.55-1.55 1.5-3.9 2.45-6.15 2.45-5.5 0-8.3-3.9-8.3-8.6 0-6.05 4.4-10.95 10.85-10.95 1.85 0 3.35.5 4.5 1.35l.2-.85H34l-2.35 11c-.45 2.2.05 3.95 2.2 3.95 2.65 0 4.2-2.2 4.2-8.05 0-7.8-6.15-11.45-13.05-11.45-7.75 0-14.9 5.35-14.9 15 0 7.9 5.05 13.05 13.05 13.05 3 0 6.1-.65 8.8-2.05l1.65 4.05c-3.1 1.4-7.2 2.2-10.45 2.2Zm-.35-13.35c1.3 0 2.6-.35 3.65-1.4l1.6-7.4c-.9-.95-2.2-1.4-3.45-1.4-3.3 0-5.7 2.55-5.7 5.9 0 2.6 1.25 4.3 3.9 4.3Z"/></symbol><symbol id="mail-attachment" viewBox="0 0 48 48"><path style="fill: var(--opacity, #fff)" opacity=".3" fill-rule="evenodd" clip-rule="evenodd" d="M11 4a1 1 0 0 0-1 1v20a1 1 0 0 0 1 1h7.286A5.55 5.55 0 0 1 18 24.238V19c0-2.025 1.71-3.667 3.818-3.667 2.109 0 3.818 1.642 3.818 3.667v3.667h-2.181V19c0-.868-.733-1.571-1.637-1.571s-1.636.703-1.636 1.571v5.238c0 .639.17 1.24.469 1.762h6.698a3.537 3.537 0 0 0 .47-1.762V13.762c0-2.025-1.71-3.667-3.819-3.667h-.546c-1.807 0-3.272 1.407-3.272 3.143H18C18 10.345 20.442 8 23.454 8H24c3.314 0 6 2.58 6 5.762v10.476c0 .615-.1 1.207-.286 1.762H37a1 1 0 0 0 1-1V5a1 1 0 0 0-1-1H11Z"/><path fill-rule="evenodd" clip-rule="evenodd" d="M25.636 22.667h-2.181V19c0-.868-.733-1.571-1.637-1.571s-1.636.703-1.636 1.571v5.238c0 2.025 1.71 3.667 3.818 3.667 2.109 0 3.818-1.642 3.818-3.667V13.762c0-2.025-1.71-3.667-3.818-3.667h-.546c-1.807 0-3.272 1.407-3.272 3.143H18C18 10.345 20.442 8 23.454 8H24c3.314 0 6 2.58 6 5.762v10.476C30 27.42 27.314 30 24 30s-6-2.58-6-5.762V19c0-2.025 1.71-3.667 3.818-3.667 2.109 0 3.818 1.642 3.818 3.667v3.667Z"/></symbol><symbol id="mail-box" viewBox="0 0 48 48"><path fill-rule="evenodd" clip-rule="evenodd" d="M44 30v8a4 4 0 0 1-4 4H8a4 4 0 0 1-4-4v-8h8.559l1.088 3.265A4 4 0 0 0 17.442 36h13.322a4 4 0 0 0 3.578-2.211L36.236 30H44Z"/><path style="fill: var(--opacity, #fff)" opacity=".3" fill-rule="evenodd" clip-rule="evenodd" d="m5.125 26 6.728-11.961A4 4 0 0 1 15.34 12h17.322a4 4 0 0 1 3.486 2.039L42.875 26h-6.639a4 4 0 0 0-3.578 2.211L30.764 32H17.442l-1.089-3.265A4 4 0 0 0 12.558 26H5.126Z"/></symbol><symbol id="mail-error" viewBox="0 0 48 48"><path fill-rule="evenodd" clip-rule="evenodd" d="M8 12a2 2 0 0 1 2-2h32a2 2 0 0 1 2 2v22a2 2 0 0 1-2 2H25.967C25.453 28.182 18.948 22 11 22c-1.027 0-2.03.103-3 .3V12Zm30.289 1.68a1.5 1.5 0 1 1 1.422 2.64l-13 7a1.5 1.5 0 0 1-1.422 0l-13-7a1.5 1.5 0 0 1 1.422-2.64L26 20.295l12.289-6.617Z"/><path style="fill: var(--opacity, #fff)" opacity=".3" fill-rule="evenodd" clip-rule="evenodd" d="M12 28a1 1 0 0 0-1 1v6a1 1 0 0 0 1 1h2a1 1 0 0 0 1-1v-6a1 1 0 0 0-1-1h-2Zm3 12a2 2 0 1 1-4 0 2 2 0 0 1 4 0Z"/></symbol><symbol id="mail-heart" viewBox="0 0 48 48"><path style="fill: var(--opacity, #fff)" opacity=".3" fill-rule="evenodd" clip-rule="evenodd" d="M11 4a1 1 0 0 0-1 1v22a1 1 0 0 0 1 1h26a1 1 0 0 0 1-1V5a1 1 0 0 0-1-1H11Zm13 6.4c.807-.94 2.312-2.4 3.6-2.4 2.28 0 3.6 1.937 3.6 4.2 0 3.6-7.2 7.8-7.2 7.8s-7.2-4.2-7.2-7.96C16.8 9.778 18.12 8 20.4 8c1.288 0 2.793 1.46 3.6 2.4Z"/></symbol><symbol id="mail-locked" viewBox="0 0 48 48"><path fill-rule="evenodd" clip-rule="evenodd" d="M8 12a2 2 0 0 1 2-2h32a2 2 0 0 1 2 2v22a2 2 0 0 1-2 2H25.967C25.453 28.182 18.948 22 11 22c-1.027 0-2.03.103-3 .3V12Zm30.289 1.68a1.5 1.5 0 1 1 1.422 2.64l-13 7a1.5 1.5 0 0 1-1.422 0l-13-7a1.5 1.5 0 0 1 1.422-2.64L26 20.295l12.289-6.617Z"/><path style="fill: var(--opacity, #fff)" opacity=".3" fill-rule="evenodd" clip-rule="evenodd" d="M6 30.5A2.5 2.5 0 0 1 8.5 28h5a2.5 2.5 0 0 1 2.5 2.5V34h1a1 1 0 0 1 1 1v8a1 1 0 0 1-1 1H5a1 1 0 0 1-1-1v-8a1 1 0 0 1 1-1h1v-3.5Zm3.5-.5A1.5 1.5 0 0 0 8 31.5V34h6v-2.5a1.5 1.5 0 0 0-1.5-1.5h-3Z"/></symbol><symbol id="mail-notification" viewBox="0 0 48 48"><path fill-rule="evenodd" clip-rule="evenodd" d="M6 14a2 2 0 0 1 2-2h32a2 2 0 0 1 2 2v10.166c-.65-.11-1.319-.166-2-.166-6.627 0-12 5.373-12 12 0 .681.057 1.35.166 2H8a2 2 0 0 1-2-2V14Zm30.289 1.68a1.5 1.5 0 1 1 1.422 2.64l-13 7a1.5 1.5 0 0 1-1.422 0l-13-7a1.5 1.5 0 1 1 1.422-2.64L24 22.295l12.289-6.617Z"/><path style="fill: var(--opacity, #fff)" opacity=".3" fill-rule="evenodd" clip-rule="evenodd" d="M39 40a5 5 0 1 0 0-10 5 5 0 0 0 0 10Z"/></symbol><symbol id="mail-opened" viewBox="0 0 48 48"><path style="fill: var(--opacity, #fff)" opacity=".3" fill-rule="evenodd" clip-rule="evenodd" d="M10 5a1 1 0 0 1 1-1h26a1 1 0 0 1 1 1v20a1 1 0 0 1-1 1H11a1 1 0 0 1-1-1V5Zm4 6a1 1 0 0 1 1-1h12a1 1 0 1 1 0 2H15a1 1 0 0 1-1-1Zm1 3a1 1 0 1 0 0 2h6a1 1 0 1 0 0-2h-6Z"/></symbol><symbol id="mail-unlocked" viewBox="0 0 48 48"><path style="fill: var(--opacity, #fff)" opacity=".3" fill-rule="evenodd" clip-rule="evenodd" d="M6 32v2H5a1 1 0 0 0-1 1v8a1 1 0 0 0 1 1h12a1 1 0 0 0 1-1v-8a1 1 0 0 0-1-1H8v-2a4 4 0 0 0-8 0h2a2 2 0 1 1 4 0Z"/><path fill-rule="evenodd" clip-rule="evenodd" d="M8 12a2 2 0 0 1 2-2h32a2 2 0 0 1 2 2v22a2 2 0 0 1-2 2H25.967C25.453 28.182 18.948 22 11 22c-1.027 0-2.03.103-3 .3V12Zm30.289 1.68a1.5 1.5 0 1 1 1.422 2.64l-13 7a1.5 1.5 0 0 1-1.422 0l-13-7a1.5 1.5 0 0 1 1.422-2.64L26 20.295l12.289-6.617Z"/></symbol><symbol id="mail" viewBox="0 0 48 48"><path fill-rule="evenodd" clip-rule="evenodd" d="M8 12a2 2 0 0 0-2 2v22a2 2 0 0 0 2 2h32a2 2 0 0 0 2-2V14a2 2 0 0 0-2-2H8Zm30.32 4.289a1.5 1.5 0 0 0-2.031-.61L24 22.296 11.711 15.68a1.5 1.5 0 1 0-1.422 2.642l13 7a1.5 1.5 0 0 0 1.422 0l13-7a1.5 1.5 0 0 0 .61-2.032Z"/></symbol><symbol id="message" viewBox="0 0 24 24"><path d="M20 2H4c-1.1 0-1.99.9-1.99 2L2 22l4-4h14c1.1 0 2-.9 2-2V4c0-1.1-.9-2-2-2zm-2 12H6v-2h12v2zm0-3H6V9h12v2zm0-3H6V6h12v2z"/></symbol><symbol id="missed-call" viewBox="0 0 48 48"><path style="fill: var(--opacity, #fff)" opacity=".3" fill-rule="evenodd" clip-rule="evenodd" d="m13.172 16-2.829-2.828a2 2 0 0 1 2.829-2.829L16 13.172l2.828-2.829a2 2 0 1 1 2.829 2.829L18.828 16l2.829 2.828a2 2 0 1 1-2.829 2.829L16 18.828l-2.828 2.829a2 2 0 0 1-2.829-2.829L13.172 16Z"/><path fill-rule="evenodd" clip-rule="evenodd" d="m26.16 29.568 4.408-4.408a4 4 0 0 0 .75-4.617l-.25-.5a4 4 0 0 1 .749-4.617l5.465-5.466a1 1 0 0 1 1.602.26l2.208 4.416a8.775 8.775 0 0 1-1.644 10.129L27.451 36.763a10.854 10.854 0 0 1-11.108 2.622l-4.829-1.61a1 1 0 0 1-.39-1.656l5.302-5.302a4 4 0 0 1 4.617-.75l.5.25a4 4 0 0 0 4.617-.749Z"/></symbol><symbol id="no_sim" viewBox="0 0 24 24"><path d="M18.99 5c0-1.1-.89-2-1.99-2h-7L7.66 5.34 19 16.68zM3.65 3.88 2.38 5.15 5 7.77V19c0 1.1.9 2 2 2h10.01c.35 0 .67-.1.96-.26l1.88 1.88 1.27-1.27z"/></symbol><symbol id="outgoing-box" viewBox="0 0 48 49"><path fill-rule="evenodd" clip-rule="evenodd" d="M44 35v8a4 4 0 0 1-4 4H8a4 4 0 0 1-4-4v-8h8.559l1.088 3.265A4 4 0 0 0 17.442 41h13.322a4 4 0 0 0 3.578-2.211L36.236 35H44Z"/><path style="fill: var(--opacity, #fff)" opacity=".3" fill-rule="evenodd" clip-rule="evenodd" d="m5.125 31 6.728-11.961A4 4 0 0 1 15.34 17h17.322a4 4 0 0 1 3.486 2.039L42.875 31h-6.639a4 4 0 0 0-3.578 2.211L30.764 37H17.442l-1.089-3.265A4 4 0 0 0 12.558 31H5.126Z"/><path d="M16.604 9.162a.5.5 0 0 0 .381.823h4.992V14.5a.5.5 0 0 0 .5.5h3.046a.5.5 0 0 0 .5-.5V9.985h4.992a.5.5 0 0 0 .381-.823L24.382.876a.5.5 0 0 0-.764 0l-7.014 8.286Z"/></symbol><symbol id="outgoing-call" viewBox="0 0 48 48"><path style="fill: var(--opacity, #fff)" opacity=".3" d="M14.286 23.33a1 1 0 0 1-1.701-.596l-1.046-9.418a1 1 0 0 1 1.104-1.104l9.418 1.046a1 1 0 0 1 .596 1.702l-2.771 2.77 3.003 3.004a1 1 0 0 1 0 1.414l-1.415 1.414a1 1 0 0 1-1.414 0l-3.003-3.003-2.771 2.772Z"/><path fill-rule="evenodd" clip-rule="evenodd" d="m24.16 29.568 4.408-4.408a4 4 0 0 0 .75-4.617l-.25-.5a4 4 0 0 1 .749-4.617l5.465-5.466a1 1 0 0 1 1.602.26l2.208 4.416a8.775 8.775 0 0 1-1.644 10.129L25.451 36.763a10.854 10.854 0 0 1-11.108 2.622l-4.829-1.61a1 1 0 0 1-.39-1.656l5.302-5.302a4 4 0 0 1 4.617-.75l.5.25a4 4 0 0 0 4.617-.749Z"/></symbol><symbol id="outgoing-mail" viewBox="0 0 48 49"><path fill-rule="evenodd" clip-rule="evenodd" d="M8 19a2 2 0 0 0-2 2v22a2 2 0 0 0 2 2h32a2 2 0 0 0 2-2V21a2 2 0 0 0-2-2H8Zm30.32 4.289a1.5 1.5 0 0 0-2.031-.61L24 29.296 11.711 22.68a1.5 1.5 0 1 0-1.422 2.642l13 7a1.5 1.5 0 0 0 1.422 0l13-7a1.5 1.5 0 0 0 .61-2.032Z"/><path style="fill: var(--opacity, #fff)" opacity=".3" d="M16.604 9.162a.5.5 0 0 0 .381.823h4.992V14.5a.5.5 0 0 0 .5.5h3.046a.5.5 0 0 0 .5-.5V9.985h4.992a.5.5 0 0 0 .381-.823L24.382.876a.5.5 0 0 0-.764 0l-7.014 8.286Z"/></symbol><symbol id="phone" viewBox="0 0 24 24"><path d="M6.62 10.79c1.44 2.83 3.76 5.14 6.59 6.59l2.2-2.2c.27-.27.67-.36 1.02-.24 1.12.37 2.33.57 3.57.57.55 0 1 .45 1 1V20c0 .55-.45 1-1 1-9.39 0-17-7.61-17-17 0-.55.45-1 1-1h3.5c.55 0 1 .45 1 1 0 1.25.2 2.45.57 3.57.11.35.03.74-.25 1.02z"/></symbol><symbol id="phonelink_erase" viewBox="0 0 24 24"><path d="m13 8.2-1-1-4 4-4-4-1 1 4 4-4 4 1 1 4-4 4 4 1-1-4-4 4-4zM19 1H9c-1.1 0-2 .9-2 2v3h2V4h10v16H9v-2H7v3c0 1.1.9 2 2 2h10c1.1 0 2-.9 2-2V3c0-1.1-.9-2-2-2z"/></symbol><symbol id="phonelink_lock" viewBox="0 0 24 24"><path d="M19 1H9c-1.1 0-2 .9-2 2v3h2V4h10v16H9v-2H7v3c0 1.1.9 2 2 2h10c1.1 0 2-.9 2-2V3c0-1.1-.9-2-2-2zm-8.2 10V9.5C10.8 8.1 9.4 7 8 7S5.2 8.1 5.2 9.5V11c-.6 0-1.2.6-1.2 1.2v3.5c0 .7.6 1.3 1.2 1.3h5.5c.7 0 1.3-.6 1.3-1.2v-3.5c0-.7-.6-1.3-1.2-1.3zm-1.3 0h-3V9.5c0-.8.7-1.3 1.5-1.3s1.5.5 1.5 1.3V11z"/></symbol><symbol id="phonelink_ring" viewBox="0 0 24 24"><path d="m20.1 7.7-1 1c1.8 1.8 1.8 4.6 0 6.5l1 1c2.5-2.3 2.5-6.1 0-8.5zM18 9.8l-1 1c.5.7.5 1.6 0 2.3l1 1c1.2-1.2 1.2-3 0-4.3zM14 1H4c-1.1 0-2 .9-2 2v18c0 1.1.9 2 2 2h10c1.1 0 2-.9 2-2V3c0-1.1-.9-2-2-2zm0 19H4V4h10v16z"/></symbol><symbol id="phonelink_setup" viewBox="0 0 24 24"><path d="M11.8 12.5v-1l1.1-.8c.1-.1.1-.2.1-.3l-1-1.7c-.1-.1-.2-.2-.3-.1l-1.3.4c-.3-.2-.6-.4-.9-.5l-.2-1.3c0-.1-.1-.2-.3-.2H7c-.1 0-.2.1-.3.2l-.2 1.3c-.3.1-.6.3-.9.5l-1.3-.5c-.1 0-.2 0-.3.1l-1 1.7c-.1.1 0 .2.1.3l1.1.8v1l-1.1.8c-.1.2-.1.3-.1.4l1 1.7c.1.1.2.2.3.1l1.4-.4c.3.2.6.4.9.5l.2 1.3c-.1.1.1.2.2.2h2c.1 0 .2-.1.3-.2l.2-1.3c.3-.1.6-.3.9-.5l1.3.5c.1 0 .2 0 .3-.1l1-1.7c.1-.1 0-.2-.1-.3l-1.1-.9zM8 14c-1.1 0-2-.9-2-2s.9-2 2-2 2 .9 2 2-.9 2-2 2zM19 1H9c-1.1 0-2 .9-2 2v3h2V4h10v16H9v-2H7v3c0 1.1.9 2 2 2h10c1.1 0 2-.9 2-2V3c0-1.1-.9-2-2-2z"/></symbol><symbol id="portable_wifi_off" viewBox="0 0 24 24"><path d="M17.56 14.24c.28-.69.44-1.45.44-2.24 0-3.31-2.69-6-6-6-.79 0-1.55.16-2.24.44l1.62 1.62c.2-.03.41-.06.62-.06a3.999 3.999 0 0 1 3.95 4.63l1.61 1.61z"/><path d="M12 4c4.42 0 8 3.58 8 8 0 1.35-.35 2.62-.95 3.74l1.47 1.47A9.86 9.86 0 0 0 22 12c0-5.52-4.48-10-10-10-1.91 0-3.69.55-5.21 1.47l1.46 1.46C9.37 4.34 10.65 4 12 4zM3.27 2.5 2 3.77l2.1 2.1C2.79 7.57 2 9.69 2 12c0 3.7 2.01 6.92 4.99 8.65l1-1.73C5.61 17.53 4 14.96 4 12c0-1.76.57-3.38 1.53-4.69l1.43 1.44C6.36 9.68 6 10.8 6 12c0 2.22 1.21 4.15 3 5.19l1-1.74c-1.19-.7-2-1.97-2-3.45 0-.65.17-1.25.44-1.79l1.58 1.58L10 12c0 1.1.9 2 2 2l.21-.02.01.01 7.51 7.51L21 20.23 4.27 3.5l-1-1z"/></symbol><symbol id="present_to_all" viewBox="0 0 24 24"><path d="M21 19.02H3V4.98h18v14.04zM21 3H3c-1.11 0-2 .89-2 2v14c0 1.11.89 2 2 2h18c1.11 0 2-.89 2-2V5c0-1.11-.89-2-2-2z"/><path d="M10 12H8l4-4 4 4h-2v4h-4v-4z"/></symbol><symbol id="readed-mail" viewBox="0 0 48 48"><path style="fill: var(--opacity, #fff)" opacity=".3" d="M9.75 41.5c-.48 0-.958-.192-1.342-.575l-3.833-3.833c-.767-.767-.767-1.917 0-2.684.767-.766 2.013-.766 2.683 0L9.75 36.9l6.325-6.325c.767-.767 1.917-.767 2.683 0 .767.767.767 1.917 0 2.683l-7.666 7.667a1.892 1.892 0 0 1-1.342.575Z"/><path fill-rule="evenodd" clip-rule="evenodd" d="M8 12a2 2 0 0 1 2-2h32a2 2 0 0 1 2 2v22a2 2 0 0 1-2 2H25.967C25.453 28.182 18.948 22 11 22c-1.027 0-2.03.103-3 .3V12Zm30.289 1.68a1.5 1.5 0 1 1 1.422 2.64l-13 7a1.5 1.5 0 0 1-1.422 0l-13-7a1.5 1.5 0 0 1 1.422-2.64L26 20.295l12.289-6.617Z"/></symbol><symbol id="reply-all" viewBox="0 0 48 48"><path style="fill: var(--opacity, #fff)" opacity=".3" d="M19.1 7.693a.75.75 0 0 0-1.254-.555L1.706 21.78a.75.75 0 0 0-.006 1.106l16.14 14.948a.75.75 0 0 0 1.26-.55V7.693Z"/><path d="M46.59 35.582c0-1.64.352-8.115-4.756-13.252-3.437-3.457-8.582-4.057-14.734-4.33V7.693a.75.75 0 0 0-1.254-.555L9.706 21.78a.75.75 0 0 0-.006 1.106l16.14 14.948a.75.75 0 0 0 1.26-.55V27c3.906.107 6.689.356 9.217 1.16 4.958 1.577 7.87 8.417 8.6 10.337.115.302.4.503.724.503h.209c.414 0 .75-.336.749-.75-.003-.913-.009-1.997-.009-2.668Z"/></symbol><symbol id="reply" viewBox="0 0 48 48"><path d="M42.89 35.582c0-1.64.352-8.115-4.756-13.252-3.437-3.457-8.582-4.057-14.734-4.33V7.693a.75.75 0 0 0-1.254-.555L6.006 21.78A.75.75 0 0 0 6 22.886l16.14 14.948a.75.75 0 0 0 1.26-.55V27c3.906.107 6.689.356 9.217 1.16 4.958 1.577 7.87 8.417 8.6 10.337.115.302.4.503.724.503h.209c.414 0 .75-.336.749-.75-.003-.913-.009-1.997-.009-2.668Z"/></symbol><symbol id="ring_volume" viewBox="0 0 24 24"><path d="M23.71 16.67C20.66 13.78 16.54 12 12 12S3.34 13.78.29 16.67c-.18.18-.29.43-.29.71s.11.53.29.71l2.48 2.48c.18.18.43.29.71.29.27 0 .52-.11.7-.28.79-.74 1.69-1.36 2.66-1.85.33-.16.56-.5.56-.9v-3.1c1.45-.48 3-.73 4.6-.73s3.15.25 4.6.72v3.1c0 .39.23.74.56.9.98.49 1.87 1.12 2.66 1.85.18.18.43.28.7.28.28 0 .53-.11.71-.29l2.48-2.48c.18-.18.29-.43.29-.71a.99.99 0 0 0-.29-.7zM21.16 6.26l-1.41-1.41-3.56 3.55 1.41 1.41s3.45-3.52 3.56-3.55zM13 2h-2v5h2zM6.4 9.81 7.81 8.4 4.26 4.84 2.84 6.26c.11.03 3.56 3.55 3.56 3.55z"/></symbol><symbol id="rss_feed" viewBox="0 0 24 24"><path d="M4 4.44v2.83c7.03 0 12.73 5.7 12.73 12.73h2.83c0-8.59-6.97-15.56-15.56-15.56z"/><path d="M4 10.1v2.83c3.9 0 7.07 3.17 7.07 7.07h2.83c0-5.47-4.43-9.9-9.9-9.9z"/></symbol><symbol id="rss" viewBox="0 0 48 48"><path fill-rule="evenodd" clip-rule="evenodd" d="M12 42a6 6 0 1 0 0-12 6 6 0 0 0 0 12Z"/><path style="fill: var(--opacity, #fff)" opacity=".3" d="M33 42h-6c0-11.598-9.402-21-21-21v-6c14.912 0 27 12.088 27 27Z"/><path opacity=".3" d="M45 42h-6C39 24.327 23.673 9 6 9V3c20.987 0 39 18.013 39 39Z"/></symbol><symbol id="safe-chat" viewBox="0 0 48 48"><path style="fill: var(--opacity, #fff)" opacity=".3" fill-rule="evenodd" clip-rule="evenodd" d="M6 30.5A2.5 2.5 0 0 1 8.5 28h5a2.5 2.5 0 0 1 2.5 2.5V34h1a1 1 0 0 1 1 1v8a1 1 0 0 1-1 1H5a1 1 0 0 1-1-1v-8a1 1 0 0 1 1-1h1v-3.5Zm3.5-.5A1.5 1.5 0 0 0 8 31.5V34h6v-2.5a1.5 1.5 0 0 0-1.5-1.5h-3Z"/><path fill-rule="evenodd" clip-rule="evenodd" d="M7 6a3 3 0 0 0-3 3v14.73A14.935 14.935 0 0 1 11 22c7.948 0 14.453 6.182 14.967 14H36.05l6.293 6.293c.63.63 1.707.184 1.707-.707V30l-.05.02V9a3 3 0 0 0-3-3H7Zm4 8a1 1 0 0 0-1 1v2a1 1 0 0 0 1 1h20a1 1 0 0 0 1-1v-2a1 1 0 0 0-1-1H11Z"/></symbol><symbol id="screen_share" viewBox="0 0 24 24"><path d="M20 18c1.1 0 1.99-.9 1.99-2L22 6a2 2 0 0 0-2-2H4c-1.11 0-2 .89-2 2v10a2 2 0 0 0 2 2H0v2h24v-2zm-7-3.53v-2.19c-2.78 0-4.61.85-6 2.72.56-2.67 2.11-5.33 6-5.87V7l4 3.73z"/></symbol><symbol id="send" viewBox="0 0 48 48"><path fill-rule="evenodd" clip-rule="evenodd" d="M6 6.773a.5.5 0 0 1 .705-.456l38.282 17.227a.5.5 0 0 1 0 .912L6.705 41.683A.5.5 0 0 1 6 41.227V27l32-3-32-3V6.773Z"/></symbol><symbol id="sending-mail" viewBox="0 0 48 48"><path style="fill: var(--opacity, #fff)" opacity=".3" fill-rule="evenodd" clip-rule="evenodd" d="M5.5 12A1.5 1.5 0 0 0 4 13.5v1A1.5 1.5 0 0 0 5.5 16h5a1.5 1.5 0 0 0 1.5-1.5v-1a1.5 1.5 0 0 0-1.5-1.5h-5ZM0 23.5A1.5 1.5 0 0 1 1.5 22h9a1.5 1.5 0 0 1 1.5 1.5v1a1.5 1.5 0 0 1-1.5 1.5h-9A1.5 1.5 0 0 1 0 24.5v-1Zm6 10A1.5 1.5 0 0 1 7.5 32h3a1.5 1.5 0 0 1 1.5 1.5v1a1.5 1.5 0 0 1-1.5 1.5h-3A1.5 1.5 0 0 1 6 34.5v-1Z"/><path fill-rule="evenodd" clip-rule="evenodd" d="M18 12a2 2 0 0 0-2 2v20a2 2 0 0 0 2 2h28a2 2 0 0 0 2-2V14a2 2 0 0 0-2-2H18Zm25.851 4.631c-.325-.583-1.078-.802-1.681-.487L32 21.437l-10.17-5.293c-.603-.314-1.356-.096-1.681.487a1.18 1.18 0 0 0 .504 1.626l10.759 5.6c.367.19.81.19 1.177 0l10.758-5.6a1.18 1.18 0 0 0 .504-1.626Z"/></symbol><symbol id="sending" viewBox="0 0 48 48"><path fill-rule="evenodd" clip-rule="evenodd" d="M16 10.77a.5.5 0 0 1 .705-.456l29.4 13.23a.5.5 0 0 1 0 .912l-29.4 13.23A.5.5 0 0 1 16 37.23V26.334L40.894 24 16 21.666V10.77Z"/><path style="fill: var(--opacity, #fff)" opacity=".3" fill-rule="evenodd" clip-rule="evenodd" d="M7.5 12A1.5 1.5 0 0 0 6 13.5v1A1.5 1.5 0 0 0 7.5 16h3a1.5 1.5 0 0 0 1.5-1.5v-1a1.5 1.5 0 0 0-1.5-1.5h-3ZM0 23.5A1.5 1.5 0 0 1 1.5 22h9a1.5 1.5 0 0 1 1.5 1.5v1a1.5 1.5 0 0 1-1.5 1.5h-9A1.5 1.5 0 0 1 0 24.5v-1Zm6 10A1.5 1.5 0 0 1 7.5 32h3a1.5 1.5 0 0 1 1.5 1.5v1a1.5 1.5 0 0 1-1.5 1.5h-3A1.5 1.5 0 0 1 6 34.5v-1Z"/></symbol><symbol id="share" viewBox="0 0 49 48"><path style="fill: var(--opacity, #fff)" opacity=".3" d="M21.8 4a2 2 0 1 1 0 4H12a4 4 0 0 0-4 4v24a4 4 0 0 0 4 4h24a4 4 0 0 0 4-4v-4a2 2 0 1 1 4 0v4a8 8 0 0 1-8 8H12a8 8 0 0 1-8-8V12a8 8 0 0 1 8-8h9.8Z"/><path d="M14.009 27.795c0-1.526-.327-7.546 4.422-12.322 3.196-3.214 7.98-3.772 13.7-4.026V1.983a.75.75 0 0 1 1.254-.556L48.26 14.923a.75.75 0 0 1 .006 1.106L33.39 29.806a.75.75 0 0 1-1.26-.55v-9.44c-3.631.1-6.218.33-8.569 1.078-4.578 1.457-7.28 7.74-7.982 9.574a.778.778 0 0 1-.725.505h-.104a.748.748 0 0 1-.749-.75c.003-.838.008-1.817.008-2.428Z"/></symbol><symbol id="shield-thunder" viewBox="0 0 48 48"><path style="fill: var(--opacity, #fff)" opacity=".3" fill-rule="evenodd" clip-rule="evenodd" d="m8 8 15.631-2.93a2 2 0 0 1 .738 0L40 8v21.903a11 11 0 0 1-5.17 9.328l-10.3 6.438a1 1 0 0 1-1.06 0l-10.3-6.438A11 11 0 0 1 8 29.903V8Z"/><path opacity=".3" fill-rule="evenodd" clip-rule="evenodd" d="M22.667 36 32 22.8h-4.667V14L18 27.2h4.667V36Z"/></symbol><symbol id="shield-user" viewBox="0 0 48 48"><path style="fill: var(--opacity, #fff)" opacity=".3" fill-rule="evenodd" clip-rule="evenodd" d="m8 8 15.631-2.93a2 2 0 0 1 .738 0L40 8v21.903a11 11 0 0 1-5.17 9.328l-10.3 6.438a1 1 0 0 1-1.06 0l-10.3-6.438A11 11 0 0 1 8 29.903V8Z"/><path opacity=".3" fill-rule="evenodd" clip-rule="evenodd" d="M24 22a4 4 0 1 1 0-8 4 4 0 0 1 0 8ZM14 32.999C14.432 27.033 18.736 24 23.983 24c5.32 0 9.69 2.866 10.016 9 .013.244 0 1-.835 1H14.808c-.278 0-.83-.676-.807-1.001Z"/></symbol><symbol id="snoozed-mail" viewBox="0 0 48 48"><path fill-rule="evenodd" clip-rule="evenodd" d="M8 12a2 2 0 0 1 2-2h32a2 2 0 0 1 2 2v22a2 2 0 0 1-2 2H25.967C25.453 28.182 18.948 22 11 22c-1.027 0-2.03.103-3 .3V12Zm30.289 1.68a1.5 1.5 0 1 1 1.422 2.64l-13 7a1.5 1.5 0 0 1-1.422 0l-13-7a1.5 1.5 0 0 1 1.422-2.64L26 20.295l12.289-6.617Z"/><path style="fill: var(--opacity, #fff)" opacity=".3" d="M16.894 36.211a2 2 0 0 1-1.788 3.578L10 37.236V29a2 2 0 1 1 4 0v5.764l2.894 1.447Z"/></symbol><symbol id="spam" viewBox="0 0 48 48"><path fill-rule="evenodd" clip-rule="evenodd" d="M6 7.5A1.5 1.5 0 0 1 7.5 6h33A1.5 1.5 0 0 1 42 7.5v33a1.5 1.5 0 0 1-1.5 1.5h-33A1.5 1.5 0 0 1 6 40.5v-33Zm8 4a1.5 1.5 0 0 1 1.5-1.5h17a1.5 1.5 0 0 1 1.5 1.5v1a1.5 1.5 0 0 1-1.5 1.5h-17a1.5 1.5 0 0 1-1.5-1.5v-1Zm4.343 13.672L21.172 28l-2.829 2.828a2 2 0 0 0 2.829 2.829L24 30.828l2.828 2.829a2 2 0 0 0 2.829-2.829L26.828 28l2.829-2.828a2 2 0 1 0-2.829-2.829L24 25.172l-2.828-2.829a2 2 0 0 0-2.829 2.829Z"/></symbol><symbol id="stay_current_landscape" viewBox="0 0 24 24"><path d="M1.01 7 1 17c0 1.1.9 2 2 2h18c1.1 0 2-.9 2-2V7c0-1.1-.9-2-2-2H3c-1.1 0-1.99.9-1.99 2zM19 7v10H5V7h14z"/></symbol><symbol id="stay_current_portrait" viewBox="0 0 24 24"><path d="M17 1.01 7 1c-1.1 0-1.99.9-1.99 2v18c0 1.1.89 2 1.99 2h10c1.1 0 2-.9 2-2V3c0-1.1-.9-1.99-2-1.99zM17 19H7V5h10v14z"/></symbol><symbol id="stay_primary_landscape" viewBox="0 0 24 24"><path d="M1.01 7 1 17c0 1.1.9 2 2 2h18c1.1 0 2-.9 2-2V7c0-1.1-.9-2-2-2H3c-1.1 0-1.99.9-1.99 2zM19 7v10H5V7h14z"/></symbol><symbol id="stay_primary_portrait" viewBox="0 0 24 24"><path d="M17 1.01 7 1c-1.1 0-1.99.9-1.99 2v18c0 1.1.89 2 1.99 2h10c1.1 0 2-.9 2-2V3c0-1.1-.9-1.99-2-1.99zM17 19H7V5h10v14z"/></symbol><symbol id="stop_screen_share" viewBox="0 0 24 24"><path d="m21.22 18.02 2 2H24v-2zM21.99 16.02l.01-10a2 2 0 0 0-2-2H7.22l5.23 5.23c.18-.04.36-.07.55-.1V7.02l4 3.73-1.58 1.47 5.54 5.54c.61-.33 1.03-.99 1.03-1.74zM7 15.02c.31-1.48.92-2.95 2.07-4.06l1.59 1.59c-1.54.38-2.7 1.18-3.66 2.47zM2.39 1.73 1.11 3l1.54 1.54c-.4.36-.65.89-.65 1.48v10a2 2 0 0 0 2 2H0v2h18.13l2.71 2.71 1.27-1.27z"/></symbol><symbol id="swap_calls" viewBox="0 0 24 24"><path d="m18 4-4 4h3v7c0 1.1-.9 2-2 2s-2-.9-2-2V8c0-2.21-1.79-4-4-4S5 5.79 5 8v7H2l4 4 4-4H7V8c0-1.1.9-2 2-2s2 .9 2 2v7c0 2.21 1.79 4 4 4s4-1.79 4-4V8h3l-4-4z"/></symbol><symbol id="textsms" viewBox="0 0 24 24"><path d="M20 2H4c-1.1 0-1.99.9-1.99 2L2 22l4-4h14c1.1 0 2-.9 2-2V4c0-1.1-.9-2-2-2zM9 11H7V9h2v2zm4 0h-2V9h2v2zm4 0h-2V9h2v2z"/></symbol><symbol id="thumbtack" viewBox="0 0 48 48"><path fill-rule="evenodd" clip-rule="evenodd" d="m23.347 16.662 6.652-4.462-1.756-1.756a2 2 0 0 1 0-2.829l2.828-2.828a2 2 0 0 1 2.829 0L45.213 16.1a2 2 0 0 1 0 2.828l-2.828 2.828a2 2 0 0 1-2.829 0l-1.755-1.756-4.462 6.652a14.35 14.35 0 0 1 .394 5.766l-.864 6.393a2 2 0 0 1-3.396 1.146l-19.43-19.43a2 2 0 0 1 1.145-3.397l6.393-.864a14.353 14.353 0 0 1 5.766.395Z"/><path style="fill: var(--opacity, #fff)" opacity=".3" fill-rule="evenodd" clip-rule="evenodd" d="m17.636 28.121-8.081 8.082-1.111 5.353 5.353-1.11 8.082-8.082-4.243-4.243Z"/></symbol><symbol id="urgent-mail" viewBox="0 0 48 48"><g clip-rule="evenodd" fill="#000" fill-rule="evenodd"><path d="M11 4a1 1 0 0 0-1 1v22a1 1 0 0 0 1 1h11.444v-4H18l8.889-12v8h4.444l-5.926 8H37a1 1 0 0 0 1-1V5a1 1 0 0 0-1-1z" style="fill: var(--opacity, #fff)" opacity=".3"/><path d="m22.444 32 8.89-12h-4.445v-8L18 24h4.444z"/></g></symbol><symbol id="voicemail" viewBox="0 0 24 24"><path d="M18.5 6C15.46 6 13 8.46 13 11.5c0 1.33.47 2.55 1.26 3.5H9.74c.79-.95 1.26-2.17 1.26-3.5C11 8.46 8.54 6 5.5 6S0 8.46 0 11.5 2.46 17 5.5 17h13c3.04 0 5.5-2.46 5.5-5.5S21.54 6 18.5 6zm-13 9C3.57 15 2 13.43 2 11.5S3.57 8 5.5 8 9 9.57 9 11.5 7.43 15 5.5 15zm13 0c-1.93 0-3.5-1.57-3.5-3.5S16.57 8 18.5 8 22 9.57 22 11.5 20.43 15 18.5 15z"/></symbol><symbol id="vpn_key" viewBox="0 0 24 24"><path d="M12.65 10A5.99 5.99 0 0 0 7 6c-3.31 0-6 2.69-6 6s2.69 6 6 6a5.99 5.99 0 0 0 5.65-4H17v4h4v-4h2v-4H12.65zM7 14c-1.1 0-2-.9-2-2s.9-2 2-2 2 .9 2 2-.9 2-2 2z"/></symbol><symbol id="write" viewBox="0 0 48 48"><path d="M44.493 11.037a1.5 1.5 0 0 1 .021 2.1l-19.146 19.94a1.5 1.5 0 0 1-1.05.46l-8.068.17.17-8.083a1.5 1.5 0 0 1 .442-1.032l19.591-19.48a1.5 1.5 0 0 1 2.118.003l5.922 5.922Z"/><path style="fill: var(--opacity, #fff)" opacity=".3" d="M25.8 4a2 2 0 1 1 0 4H12a4 4 0 0 0-4 4v24a4 4 0 0 0 4 4h24a4 4 0 0 0 4-4V26a2 2 0 1 1 4 0v10a8 8 0 0 1-8 8H12a8 8 0 0 1-8-8V12a8 8 0 0 1 8-8h13.8Z"/></symbol></svg>