<?xml version="1.0" encoding="UTF-8"?><!DOCTYPE svg PUBLIC "-//W3C//DTD SVG 1.1//EN" "http://www.w3.org/Graphics/SVG/1.1/DTD/svg11.dtd"><svg xmlns="http://www.w3.org/2000/svg" xmlns:xlink="http://www.w3.org/1999/xlink"><defs/><symbol id="active-call" viewBox="0 0 48 48"><path fill-rule="evenodd" clip-rule="evenodd" d="M26.16 29.568l4.408-4.408a4 4 0 00.75-4.617l-.25-.5a4 4 0 01.749-4.617l5.465-5.466a1 1 0 011.602.26l2.208 4.416a8.775 8.775 0 01-1.644 10.129L27.451 36.763a10.854 10.854 0 01-11.108 2.622l-4.829-1.61a1 1 0 01-.39-1.656l5.302-5.302a4 4 0 014.617-.75l.5.25a4 4 0 004.617-.749z"/><path style="fill: var(--opacity, #fff)" opacity=".3" fill-rule="evenodd" clip-rule="evenodd" d="M28.626 8.027l.37-3.982a21.955 21.955 0 00-17.603 6.348 21.954 21.954 0 00-6.35 17.577l3.982-.365a17.955 17.955 0 015.197-14.383 17.955 17.955 0 0114.404-5.195zm-.713 7.969l.383-3.982A13.973 13.973 0 0017.05 16.05a13.972 13.972 0 00-4.04 11.207l3.983-.372a9.973 9.973 0 012.886-8.006 9.974 9.974 0 018.034-2.883z"/></symbol><symbol id="add-user" viewBox="0 0 48 48"><path style="fill: var(--opacity, #fff)" opacity=".3" fill-rule="evenodd" clip-rule="evenodd" d="M18 22a8 8 0 110-16 8 8 0 010 16zm19 0a1 1 0 01-1-1v-5h-5a1 1 0 01-1-1v-2a1 1 0 011-1h5V7a1 1 0 011-1h2a1 1 0 011 1v5h5a1 1 0 011 1v2a1 1 0 01-1 1h-5v5a1 1 0 01-1 1h-2z"/><path d="M.001 40.398C.777 30.853 8.524 26 17.967 26c9.575 0 17.443 4.586 18.029 14.4.023.39 0 1.6-1.503 1.6H1.455C.953 42-.041 40.918.001 40.398z"/></symbol><symbol id="address-card" viewBox="0 0 48 48"><path fill-rule="evenodd" clip-rule="evenodd" d="M6 7a3 3 0 013-3h30a3 3 0 013 3v34a3 3 0 01-3 3H9a3 3 0 01-3-3V7zm18 15a4 4 0 110-8 4 4 0 010 8zm-.018 2c-5.247 0-9.55 3.033-9.981 8.999-.024.325.529 1.001.807 1.001h18.355c.835 0 .848-.756.835-1-.326-6.134-4.697-9-10.016-9z"/></symbol><symbol id="adress-book#1" viewBox="0 0 48 48"><path style="fill: var(--opacity, #fff)" opacity=".3" d="M34 4h7a3 3 0 013 3v34a3 3 0 01-3 3h-7V4z"/><path fill-rule="evenodd" clip-rule="evenodd" d="M7 4a1 1 0 00-1 1v38a1 1 0 001 1h28a3 3 0 003-3V7a3 3 0 00-3-3H7zm14.764 23.89a2 2 0 01-2.309.375l-1.192-.596a2 2 0 00-2.309.375l-4.066 4.065a.5.5 0 00.196.828l4.2 1.4a6 6 0 006.14-1.45l8.462-8.462A6 6 0 0032.01 17.5l-1.527-3.054a.5.5 0 00-.8-.13l-4.148 4.147a2 2 0 00-.375 2.31l.597 1.192a2 2 0 01-.375 2.308l-3.618 3.619z"/></symbol><symbol id="adress-book#2" viewBox="0 0 48 48"><path style="fill: var(--opacity, #fff)" opacity=".3" d="M36 4h7a3 3 0 013 3v34a3 3 0 01-3 3h-7V4z"/><path fill-rule="evenodd" clip-rule="evenodd" d="M8 5a1 1 0 011-1h28a3 3 0 013 3v34a3 3 0 01-3 3H9a1 1 0 01-1-1V5zm16 17a4 4 0 110-8 4 4 0 010 8zm-.018 2c-5.247 0-9.55 3.033-9.981 8.999-.024.325.529 1.001.807 1.001h18.355c.835 0 .848-.756.835-1-.326-6.134-4.697-9-10.016-9z"/></symbol><symbol id="archive" viewBox="0 0 48 48"><path fill-rule="evenodd" clip-rule="evenodd" d="M7.5 6A1.5 1.5 0 006 7.5v33A1.5 1.5 0 007.5 42h33a1.5 1.5 0 001.5-1.5v-33A1.5 1.5 0 0040.5 6h-33zm8 4a1.5 1.5 0 00-1.5 1.5v1a1.5 1.5 0 001.5 1.5h17a1.5 1.5 0 001.5-1.5v-1a1.5 1.5 0 00-1.5-1.5h-17z"/></symbol><symbol id="backward" viewBox="0 0 48 48"><path d="M25.314 20V9.67a.75.75 0 00-1.248-.56L7.91 23.472a.75.75 0 00-.032 1.09L24.034 40.72a.75.75 0 001.28-.53V30c3.721-.224 14.984-.051 17.499-.009.28.005.502-.22.502-.5v-8.986a.493.493 0 00-.497-.5c-2.748.026-16.026.142-17.503-.005z"/></symbol><symbol id="call#1" viewBox="0 0 48 48"><path fill-rule="evenodd" clip-rule="evenodd" d="M23.83 28.285l4.408-4.408a4 4 0 00.75-4.617l-.25-.5a4 4 0 01.749-4.617l5.465-5.465a1 1 0 011.602.26l2.208 4.415a8.775 8.775 0 01-1.644 10.13L25.12 35.48a10.854 10.854 0 01-11.107 2.622l-4.829-1.61a1 1 0 01-.39-1.655l5.302-5.303a4 4 0 014.617-.749l.5.25a4 4 0 004.617-.75z"/></symbol><symbol id="call#2" viewBox="0 0 48 48"><path fill-rule="evenodd" clip-rule="evenodd" d="M44 24c0 11.046-8.954 20-20 20S4 35.046 4 24 12.954 4 24 4s20 8.954 20 20zm-21.244 2.898a2 2 0 01-2.308.374l-1.193-.596a2 2 0 00-2.308.375l-4.066 4.065a.5.5 0 00.196.828l4.2 1.4a6 6 0 006.14-1.45l8.462-8.462a6 6 0 001.123-6.926l-1.527-3.054a.5.5 0 00-.8-.13l-4.147 4.147a2 2 0 00-.375 2.309l.596 1.193a2 2 0 01-.374 2.308l-3.619 3.619z"/></symbol><symbol id="chat-check" viewBox="0 0 48 48"><path style="fill: var(--opacity, #fff)" opacity=".3" d="M9.75 41.5c-.48 0-.958-.192-1.342-.575l-3.833-3.833c-.767-.767-.767-1.917 0-2.684.767-.766 2.013-.766 2.683 0L9.75 36.9l6.325-6.325c.767-.767 1.917-.767 2.683 0 .767.767.767 1.917 0 2.683l-7.666 7.667a1.892 1.892 0 01-1.342.575z"/><path fill-rule="evenodd" clip-rule="evenodd" d="M7 6a3 3 0 00-3 3v14.73A14.935 14.935 0 0111 22c7.948 0 14.453 6.182 14.967 14H36.05l6.293 6.293c.63.63 1.707.184 1.707-.707V30l-.05.02V9a3 3 0 00-3-3H7zm4 8a1 1 0 00-1 1v2a1 1 0 001 1h20a1 1 0 001-1v-2a1 1 0 00-1-1H11z"/></symbol><symbol id="chat-error" viewBox="0 0 48 48"><path fill-rule="evenodd" clip-rule="evenodd" d="M7 6a3 3 0 00-3 3v14.73A14.935 14.935 0 0111 22c7.948 0 14.453 6.182 14.967 14H36.05l6.293 6.293c.63.63 1.707.184 1.707-.707V30l-.05.02V9a3 3 0 00-3-3H7zm4 8a1 1 0 00-1 1v2a1 1 0 001 1h20a1 1 0 001-1v-2a1 1 0 00-1-1H11z"/><path style="fill: var(--opacity, #fff)" opacity=".3" fill-rule="evenodd" clip-rule="evenodd" d="M11 28a1 1 0 00-1 1v6a1 1 0 001 1h2a1 1 0 001-1v-6a1 1 0 00-1-1h-2zm3 12a2 2 0 11-4 0 2 2 0 014 0z"/></symbol><symbol id="chat-locked" viewBox="0 0 48 48"><path style="fill: var(--opacity, #fff)" opacity=".3" fill-rule="evenodd" clip-rule="evenodd" d="M10 30L6 43l13-4-9-9z"/><path fill-rule="evenodd" clip-rule="evenodd" d="M46 23c0 10.493-8.507 19-19 19S8 33.493 8 23 16.507 4 27 4s19 8.507 19 19zm-25-3a1 1 0 00-1 1v8a1 1 0 001 1h12a1 1 0 001-1v-8a1 1 0 00-1-1h-1v-3.5a2.5 2.5 0 00-2.5-2.5h-5a2.5 2.5 0 00-2.5 2.5V20h-1zm4.5-4a1.5 1.5 0 00-1.5 1.5V20h6v-2.5a1.5 1.5 0 00-1.5-1.5h-3z"/></symbol><symbol id="chat-smile" viewBox="0 0 48 48"><path style="fill: var(--opacity, #fff)" opacity=".3" fill-rule="evenodd" clip-rule="evenodd" d="M10 30L6 43l13-4-9-9z"/><path fill-rule="evenodd" clip-rule="evenodd" d="M16 4C10.477 4 6 8.477 6 14v20c0 5.523 4.477 10 10 10h20c5.523 0 10-4.477 10-10V14c0-5.523-4.477-10-10-10H16zm-1.11 20.336a2 2 0 00-.554 2.773C17.356 31.64 21.29 34 26 34s8.645-2.362 11.664-6.89a2 2 0 00-3.328-2.22C32.022 28.363 29.29 30 26 30c-3.291 0-6.022-1.638-8.336-5.11a2 2 0 00-2.773-.554z"/></symbol><symbol id="chat#1" viewBox="0 0 48 48"><path style="fill: var(--opacity, #fff)" opacity=".3" fill-rule="evenodd" clip-rule="evenodd" d="M10 30L6 43l13-4-9-9z"/><path fill-rule="evenodd" clip-rule="evenodd" d="M46 23c0 10.493-8.507 19-19 19S8 33.493 8 23 16.507 4 27 4s19 8.507 19 19zm-26 0a3 3 0 11-6 0 3 3 0 016 0zm7 3a3 3 0 100-6 3 3 0 000 6zm13-3a3 3 0 11-6 0 3 3 0 016 0z"/></symbol><symbol id="chat#2" viewBox="0 0 48 48"><path style="fill: var(--opacity, #fff)" opacity=".3" fill-rule="evenodd" clip-rule="evenodd" d="M10 30L6 43l13-4-9-9z"/><path fill-rule="evenodd" clip-rule="evenodd" d="M27 42c10.493 0 19-8.507 19-19S37.493 4 27 4 8 12.507 8 23s8.507 19 19 19zM16 17a1 1 0 011-1h20a1 1 0 011 1v2a1 1 0 01-1 1H17a1 1 0 01-1-1v-2zm1 7a1 1 0 00-1 1v2a1 1 0 001 1h12a1 1 0 001-1v-2a1 1 0 00-1-1H17z"/></symbol><symbol id="chat#4" viewBox="0 0 48 48"><path fill-rule="evenodd" clip-rule="evenodd" d="M4 9a3 3 0 013-3h34a3 3 0 013 3v21.02l.05-.02v11.586c0 .89-1.077 1.337-1.707.707L36.05 36H7a3 3 0 01-3-3V9zm8.89 9.336a2 2 0 00-.554 2.773C15.356 25.64 19.29 28 24 28s8.645-2.362 11.664-6.89a2 2 0 00-3.328-2.22C30.022 22.363 27.29 24 24 24c-3.291 0-6.022-1.638-8.336-5.11a2 2 0 00-2.773-.554z"/></symbol><symbol id="chat#5" viewBox="0 0 48 48"><path style="fill: var(--opacity, #fff)" opacity=".3" fill-rule="evenodd" clip-rule="evenodd" d="M9 6a3 3 0 00-3 3v24a3 3 0 003 3h27.05l6.293 6.293c.63.63 1.707.184 1.707-.707V30l-.05.02V9a3 3 0 00-3-3H9z"/><path opacity=".3" fill-rule="evenodd" clip-rule="evenodd" d="M15 24a3 3 0 110-6 3 3 0 010 6zm10 0a3 3 0 110-6 3 3 0 010 6zm10 0a3 3 0 110-6 3 3 0 010 6z"/></symbol><symbol id="chat#6" viewBox="0 0 48 48"><path style="fill: var(--opacity, #fff)" opacity=".3" fill-rule="evenodd" clip-rule="evenodd" d="M7 6a3 3 0 00-3 3v24a3 3 0 003 3h11.033l5.056 7.626a1 1 0 001.709-.07L28.971 36H41a3 3 0 003-3V9a3 3 0 00-3-3H7z"/><path opacity=".3" fill-rule="evenodd" clip-rule="evenodd" d="M12 14h18a2 2 0 110 4H12a2 2 0 110-4zm0 8h10a2 2 0 110 4H12a2 2 0 110-4z"/></symbol><symbol id="clipboard-check" viewBox="0 0 48 48"><path style="fill: var(--opacity, #fff)" opacity=".3" fill-rule="evenodd" clip-rule="evenodd" d="M16 6h-6a2 2 0 00-2 2v36a2 2 0 002 2h28a2 2 0 002-2V8a2 2 0 00-2-2h-6v1a3 3 0 01-3 3H19a3 3 0 01-3-3V6z"/><path fill-rule="evenodd" clip-rule="evenodd" d="M21.75 31.5c-.48 0-.958-.192-1.342-.575l-3.833-3.833c-.767-.767-.767-1.917 0-2.684.767-.766 2.012-.766 2.683 0L21.75 26.9l6.325-6.325c.767-.767 1.917-.767 2.683 0 .767.767.767 1.917 0 2.683l-7.666 7.667a1.892 1.892 0 01-1.342.575zM26 4h3.5a.5.5 0 01.5.5v3a.5.5 0 01-.5.5h-11a.5.5 0 01-.5-.5v-3a.5.5 0 01.5-.5H22a2 2 0 114 0z"/></symbol><symbol id="clipboard-list" viewBox="0 0 48 48"><path style="fill: var(--opacity, #fff)" opacity=".3" fill-rule="evenodd" clip-rule="evenodd" d="M16 6h-6a2 2 0 00-2 2v36a2 2 0 002 2h28a2 2 0 002-2V8a2 2 0 00-2-2h-6v1a3 3 0 01-3 3H19a3 3 0 01-3-3V6z"/><path fill-rule="evenodd" clip-rule="evenodd" d="M26 4h3.5a.5.5 0 01.5.5v3a.5.5 0 01-.5.5h-11a.5.5 0 01-.5-.5v-3a.5.5 0 01.5-.5H22a2 2 0 114 0z"/><rect opacity=".3" x="20" y="18" width="14" height="4" rx="2" fill="#000"/><rect opacity=".3" x="14" y="18" width="4" height="4" rx="2" fill="#000"/><rect opacity=".3" x="14" y="26" width="4" height="4" rx="2" fill="#000"/><rect opacity=".3" x="20" y="26" width="14" height="4" rx="2" fill="#000"/><rect opacity=".3" x="14" y="34" width="4" height="4" rx="2" fill="#000"/><rect opacity=".3" x="20" y="34" width="14" height="4" rx="2" fill="#000"/></symbol><symbol id="contact#1" viewBox="0 0 48 48"><path style="fill: var(--opacity, #fff)" opacity=".3" fill-rule="evenodd" clip-rule="evenodd" d="M24 44c11.046 0 20-8.954 20-20S35.046 4 24 4 4 12.954 4 24s8.954 20 20 20z"/><path opacity=".3" fill-rule="evenodd" clip-rule="evenodd" d="M24 22a4 4 0 110-8 4 4 0 010 8zM14 32.999C14.432 27.033 18.736 24 23.983 24c5.32 0 9.69 2.866 10.016 9 .013.244 0 1-.835 1H14.808c-.278 0-.83-.676-.807-1.001z"/></symbol><symbol id="delete-user" viewBox="0 0 48 48"><path style="fill: var(--opacity, #fff)" opacity=".3" fill-rule="evenodd" clip-rule="evenodd" d="M10 14a8 8 0 1016 0 8 8 0 00-16 0zm33 2a1 1 0 001-1v-2a1 1 0 00-1-1H33a1 1 0 00-1 1v2a1 1 0 001 1h10z"/><path d="M.001 40.398C.777 30.853 8.524 26 17.967 26c9.575 0 17.443 4.586 18.029 14.4.023.39 0 1.6-1.503 1.6H1.455C.953 42-.041 40.918.001 40.398z"/></symbol><symbol id="dial-numbers" viewBox="0 0 48 48"><rect style="fill: var(--opacity, #fff)" opacity=".3" x="8" y="8" width="8" height="8" rx="2" fill="#000"/><rect x="8" y="20" width="8" height="8" rx="2" fill="#000"/><rect x="20" y="8" width="8" height="8" rx="2" fill="#000"/><rect x="20" y="20" width="8" height="8" rx="2" fill="#000"/><rect x="32" y="8" width="8" height="8" rx="2" fill="#000"/><rect x="32" y="20" width="8" height="8" rx="2" fill="#000"/><rect x="8" y="32" width="8" height="8" rx="2" fill="#000"/><rect x="20" y="32" width="8" height="8" rx="2" fill="#000"/><rect x="32" y="32" width="8" height="8" rx="2" fill="#000"/></symbol><symbol id="flag" viewBox="0 0 48 48"><path d="M4 7.5A1.5 1.5 0 015.5 6H10v34.5A1.5 1.5 0 018.5 42h-3A1.5 1.5 0 014 40.5v-33z"/></symbol><symbol id="forward" viewBox="0 0 48 48"><path d="M26 20V9.67a.75.75 0 011.248-.56l16.158 14.362a.75.75 0 01.032 1.09L27.28 40.72a.75.75 0 01-1.28-.53V30c-3.72-.224-14.983-.051-17.498-.009a.494.494 0 01-.502-.5v-8.986c0-.278.218-.503.497-.5 2.748.026 16.025.142 17.503-.005z"/></symbol><symbol id="group-chat" viewBox="0 0 48 48"><path fill-rule="evenodd" clip-rule="evenodd" d="M45.192 37.142a.5.5 0 00.854-.355l-.038-10.576V11.053A5.053 5.053 0 0040.955 6H17.376a5.053 5.053 0 00-5.052 5.053V18H29a3 3 0 013 3v10.263h7.313l5.879 5.88z"/><path style="fill: var(--opacity, #fff)" opacity=".3" fill-rule="evenodd" clip-rule="evenodd" d="M3.97 36V26a4 4 0 014-4h16a4 4 0 014 4v10a4 4 0 01-4 4H8.202l-3.334 3.19a.5.5 0 01-.846-.36v-6.181A4.029 4.029 0 013.97 36zM12 28.5a.5.5 0 01.5-.5h11a.5.5 0 01.5.5v1a.5.5 0 01-.5.5h-11a.5.5 0 01-.5-.5v-1zm6.5 3.5a.5.5 0 00-.5.5v1a.5.5 0 00.5.5h5a.5.5 0 00.5-.5v-1a.5.5 0 00-.5-.5h-5z"/></symbol><symbol id="group" viewBox="0 0 48 48"><path style="fill: var(--opacity, #fff)" opacity=".3" fill-rule="evenodd" clip-rule="evenodd" d="M10 14a8 8 0 1016 0 8 8 0 00-16 0zm20 8a6 6 0 1012 0 6 6 0 00-12 0z"/><path fill-rule="evenodd" clip-rule="evenodd" d="M17.967 26C8.524 26 .777 30.853 0 40.398-.04 40.918.953 42 1.455 42h33.038c1.503 0 1.526-1.21 1.503-1.6-.586-9.814-8.454-14.4-18.03-14.4zm28.945 16H39.2c0-4.502-1.487-8.656-3.998-11.999 6.813.075 12.376 3.52 12.795 10.799.017.293 0 1.2-1.085 1.2z"/></symbol><symbol id="incoming-box" viewBox="0 0 48 48"><path fill-rule="evenodd" clip-rule="evenodd" d="M44 34v8a4 4 0 01-4 4H8a4 4 0 01-4-4v-8h8.559l1.088 3.265A4 4 0 0017.442 40h13.322a4 4 0 003.578-2.211L36.236 34H44z"/><path style="fill: var(--opacity, #fff)" opacity=".3" fill-rule="evenodd" clip-rule="evenodd" d="M5.125 30l6.728-11.961A4 4 0 0115.34 16h17.322a4 4 0 013.486 2.039L42.875 30h-6.639a4 4 0 00-3.578 2.211L30.764 36H17.442l-1.089-3.265A4 4 0 0012.558 30H5.126z"/><path d="M31.235 6.484a.5.5 0 00-.381-.823h-4.992V1.146a.5.5 0 00-.5-.5h-3.046a.5.5 0 00-.5.5v4.515h-4.992a.5.5 0 00-.382.823l7.015 8.286a.5.5 0 00.763 0l7.015-8.286z"/></symbol><symbol id="incoming-call" viewBox="0 0 48 48"><path style="fill: var(--opacity, #fff)" opacity=".3" d="M19.72 12.023a1 1 0 011.702.597l1.046 9.418a1 1 0 01-1.104 1.104l-9.418-1.046a1 1 0 01-.596-1.701l2.771-2.772-3.003-3.003a1 1 0 010-1.414l1.414-1.414a1 1 0 011.415 0l3.003 3.003 2.77-2.772z"/><path fill-rule="evenodd" clip-rule="evenodd" d="M24.16 29.568l4.408-4.408a4 4 0 00.75-4.617l-.25-.5a4 4 0 01.749-4.617l5.465-5.466a1 1 0 011.602.26l2.208 4.416a8.775 8.775 0 01-1.644 10.129L25.451 36.763a10.854 10.854 0 01-11.108 2.622l-4.829-1.61a1 1 0 01-.39-1.656l5.302-5.302a4 4 0 014.617-.75l.5.25a4 4 0 004.617-.749z"/></symbol><symbol id="incoming-mail" viewBox="0 0 48 48"><path fill-rule="evenodd" clip-rule="evenodd" d="M8 18a2 2 0 00-2 2v22a2 2 0 002 2h32a2 2 0 002-2V20a2 2 0 00-2-2H8zm30.32 4.289a1.5 1.5 0 00-2.031-.61L24 28.296 11.711 21.68a1.5 1.5 0 10-1.422 2.642l13 7a1.5 1.5 0 001.422 0l13-7a1.5 1.5 0 00.61-2.032z"/><path style="fill: var(--opacity, #fff)" opacity=".3" d="M31.235 6.484a.5.5 0 00-.381-.823h-4.992V1.146a.5.5 0 00-.5-.5h-3.046a.5.5 0 00-.5.5v4.515h-4.992a.5.5 0 00-.382.823l7.015 8.286a.5.5 0 00.763 0l7.015-8.286z"/></symbol><symbol id="mail-@" viewBox="0 0 48 48"><path fill-rule="evenodd" clip-rule="evenodd" d="M23.15 42.4c-10.8 0-17.45-7.6-17.45-17.25 0-11.4 9.05-19.05 19.35-19.05 9.85 0 17.2 6.05 17.2 15.6 0 8.7-4.6 12.15-9.2 12.15-2.25 0-4.1-1.05-4.9-2.55-1.55 1.5-3.9 2.45-6.15 2.45-5.5 0-8.3-3.9-8.3-8.6 0-6.05 4.4-10.95 10.85-10.95 1.85 0 3.35.5 4.5 1.35l.2-.85H34l-2.35 11c-.45 2.2.05 3.95 2.2 3.95 2.65 0 4.2-2.2 4.2-8.05 0-7.8-6.15-11.45-13.05-11.45-7.75 0-14.9 5.35-14.9 15 0 7.9 5.05 13.05 13.05 13.05 3 0 6.1-.65 8.8-2.05l1.65 4.05c-3.1 1.4-7.2 2.2-10.45 2.2zm-.35-13.35c1.3 0 2.6-.35 3.65-1.4l1.6-7.4c-.9-.95-2.2-1.4-3.45-1.4-3.3 0-5.7 2.55-5.7 5.9 0 2.6 1.25 4.3 3.9 4.3z"/></symbol><symbol id="mail-attachment" viewBox="0 0 48 48"><path style="fill: var(--opacity, #fff)" opacity=".3" fill-rule="evenodd" clip-rule="evenodd" d="M11 4a1 1 0 00-1 1v20a1 1 0 001 1h7.286A5.55 5.55 0 0118 24.238V19c0-2.025 1.71-3.667 3.818-3.667 2.109 0 3.818 1.642 3.818 3.667v3.667h-2.181V19c0-.868-.733-1.571-1.637-1.571s-1.636.703-1.636 1.571v5.238c0 .639.17 1.24.469 1.762h6.698a3.537 3.537 0 00.47-1.762V13.762c0-2.025-1.71-3.667-3.819-3.667h-.546c-1.807 0-3.272 1.407-3.272 3.143H18C18 10.345 20.442 8 23.454 8H24c3.314 0 6 2.58 6 5.762v10.476c0 .615-.1 1.207-.286 1.762H37a1 1 0 001-1V5a1 1 0 00-1-1H11z"/><path fill-rule="evenodd" clip-rule="evenodd" d="M25.636 22.667h-2.181V19c0-.868-.733-1.571-1.637-1.571s-1.636.703-1.636 1.571v5.238c0 2.025 1.71 3.667 3.818 3.667 2.109 0 3.818-1.642 3.818-3.667V13.762c0-2.025-1.71-3.667-3.818-3.667h-.546c-1.807 0-3.272 1.407-3.272 3.143H18C18 10.345 20.442 8 23.454 8H24c3.314 0 6 2.58 6 5.762v10.476C30 27.42 27.314 30 24 30s-6-2.58-6-5.762V19c0-2.025 1.71-3.667 3.818-3.667 2.109 0 3.818 1.642 3.818 3.667v3.667z"/></symbol><symbol id="mail-box" viewBox="0 0 48 48"><path fill-rule="evenodd" clip-rule="evenodd" d="M44 30v8a4 4 0 01-4 4H8a4 4 0 01-4-4v-8h8.559l1.088 3.265A4 4 0 0017.442 36h13.322a4 4 0 003.578-2.211L36.236 30H44z"/><path style="fill: var(--opacity, #fff)" opacity=".3" fill-rule="evenodd" clip-rule="evenodd" d="M5.125 26l6.728-11.961A4 4 0 0115.34 12h17.322a4 4 0 013.486 2.039L42.875 26h-6.639a4 4 0 00-3.578 2.211L30.764 32H17.442l-1.089-3.265A4 4 0 0012.558 26H5.126z"/></symbol><symbol id="mail-error" viewBox="0 0 48 48"><path fill-rule="evenodd" clip-rule="evenodd" d="M8 12a2 2 0 012-2h32a2 2 0 012 2v22a2 2 0 01-2 2H25.967C25.453 28.182 18.948 22 11 22c-1.027 0-2.03.103-3 .3V12zm30.289 1.68a1.5 1.5 0 111.422 2.64l-13 7a1.5 1.5 0 01-1.422 0l-13-7a1.5 1.5 0 011.422-2.64L26 20.295l12.289-6.617z"/><path style="fill: var(--opacity, #fff)" opacity=".3" fill-rule="evenodd" clip-rule="evenodd" d="M12 28a1 1 0 00-1 1v6a1 1 0 001 1h2a1 1 0 001-1v-6a1 1 0 00-1-1h-2zm3 12a2 2 0 11-4 0 2 2 0 014 0z"/></symbol><symbol id="mail-heart" viewBox="0 0 48 48"><path style="fill: var(--opacity, #fff)" opacity=".3" fill-rule="evenodd" clip-rule="evenodd" d="M11 4a1 1 0 00-1 1v22a1 1 0 001 1h26a1 1 0 001-1V5a1 1 0 00-1-1H11zm13 6.4c.807-.94 2.312-2.4 3.6-2.4 2.28 0 3.6 1.937 3.6 4.2 0 3.6-7.2 7.8-7.2 7.8s-7.2-4.2-7.2-7.96C16.8 9.778 18.12 8 20.4 8c1.288 0 2.793 1.46 3.6 2.4z"/></symbol><symbol id="mail-locked" viewBox="0 0 48 48"><path fill-rule="evenodd" clip-rule="evenodd" d="M8 12a2 2 0 012-2h32a2 2 0 012 2v22a2 2 0 01-2 2H25.967C25.453 28.182 18.948 22 11 22c-1.027 0-2.03.103-3 .3V12zm30.289 1.68a1.5 1.5 0 111.422 2.64l-13 7a1.5 1.5 0 01-1.422 0l-13-7a1.5 1.5 0 011.422-2.64L26 20.295l12.289-6.617z"/><path style="fill: var(--opacity, #fff)" opacity=".3" fill-rule="evenodd" clip-rule="evenodd" d="M6 30.5A2.5 2.5 0 018.5 28h5a2.5 2.5 0 012.5 2.5V34h1a1 1 0 011 1v8a1 1 0 01-1 1H5a1 1 0 01-1-1v-8a1 1 0 011-1h1v-3.5zm3.5-.5A1.5 1.5 0 008 31.5V34h6v-2.5a1.5 1.5 0 00-1.5-1.5h-3z"/></symbol><symbol id="mail-notification" viewBox="0 0 48 48"><path fill-rule="evenodd" clip-rule="evenodd" d="M6 14a2 2 0 012-2h32a2 2 0 012 2v10.166c-.65-.11-1.319-.166-2-.166-6.627 0-12 5.373-12 12 0 .681.057 1.35.166 2H8a2 2 0 01-2-2V14zm30.289 1.68a1.5 1.5 0 111.422 2.64l-13 7a1.5 1.5 0 01-1.422 0l-13-7a1.5 1.5 0 111.422-2.64L24 22.295l12.289-6.617z"/><path style="fill: var(--opacity, #fff)" opacity=".3" fill-rule="evenodd" clip-rule="evenodd" d="M39 40a5 5 0 100-10 5 5 0 000 10z"/></symbol><symbol id="mail-opened" viewBox="0 0 48 48"><path style="fill: var(--opacity, #fff)" opacity=".3" fill-rule="evenodd" clip-rule="evenodd" d="M10 5a1 1 0 011-1h26a1 1 0 011 1v20a1 1 0 01-1 1H11a1 1 0 01-1-1V5zm4 6a1 1 0 011-1h12a1 1 0 110 2H15a1 1 0 01-1-1zm1 3a1 1 0 100 2h6a1 1 0 100-2h-6z"/></symbol><symbol id="mail-unlocked" viewBox="0 0 48 48"><path style="fill: var(--opacity, #fff)" opacity=".3" fill-rule="evenodd" clip-rule="evenodd" d="M6 32v2H5a1 1 0 00-1 1v8a1 1 0 001 1h12a1 1 0 001-1v-8a1 1 0 00-1-1H8v-2a4 4 0 00-8 0h2a2 2 0 114 0z"/><path fill-rule="evenodd" clip-rule="evenodd" d="M8 12a2 2 0 012-2h32a2 2 0 012 2v22a2 2 0 01-2 2H25.967C25.453 28.182 18.948 22 11 22c-1.027 0-2.03.103-3 .3V12zm30.289 1.68a1.5 1.5 0 111.422 2.64l-13 7a1.5 1.5 0 01-1.422 0l-13-7a1.5 1.5 0 011.422-2.64L26 20.295l12.289-6.617z"/></symbol><symbol id="mail" viewBox="0 0 48 48"><path fill-rule="evenodd" clip-rule="evenodd" d="M8 12a2 2 0 00-2 2v22a2 2 0 002 2h32a2 2 0 002-2V14a2 2 0 00-2-2H8zm30.32 4.289a1.5 1.5 0 00-2.031-.61L24 22.296 11.711 15.68a1.5 1.5 0 10-1.422 2.642l13 7a1.5 1.5 0 001.422 0l13-7a1.5 1.5 0 00.61-2.032z"/></symbol><symbol id="missed-call" viewBox="0 0 48 48"><path style="fill: var(--opacity, #fff)" opacity=".3" fill-rule="evenodd" clip-rule="evenodd" d="M13.172 16l-2.829-2.828a2 2 0 012.829-2.829L16 13.172l2.828-2.829a2 2 0 112.829 2.829L18.828 16l2.829 2.828a2 2 0 11-2.829 2.829L16 18.828l-2.828 2.829a2 2 0 01-2.829-2.829L13.172 16z"/><path fill-rule="evenodd" clip-rule="evenodd" d="M26.16 29.568l4.408-4.408a4 4 0 00.75-4.617l-.25-.5a4 4 0 01.749-4.617l5.465-5.466a1 1 0 011.602.26l2.208 4.416a8.775 8.775 0 01-1.644 10.129L27.451 36.763a10.854 10.854 0 01-11.108 2.622l-4.829-1.61a1 1 0 01-.39-1.656l5.302-5.302a4 4 0 014.617-.75l.5.25a4 4 0 004.617-.749z"/></symbol><symbol id="outgoing-box" viewBox="0 0 48 49"><path fill-rule="evenodd" clip-rule="evenodd" d="M44 35v8a4 4 0 01-4 4H8a4 4 0 01-4-4v-8h8.559l1.088 3.265A4 4 0 0017.442 41h13.322a4 4 0 003.578-2.211L36.236 35H44z"/><path style="fill: var(--opacity, #fff)" opacity=".3" fill-rule="evenodd" clip-rule="evenodd" d="M5.125 31l6.728-11.961A4 4 0 0115.34 17h17.322a4 4 0 013.486 2.039L42.875 31h-6.639a4 4 0 00-3.578 2.211L30.764 37H17.442l-1.089-3.265A4 4 0 0012.558 31H5.126z"/><path d="M16.604 9.162a.5.5 0 00.381.823h4.992V14.5a.5.5 0 00.5.5h3.046a.5.5 0 00.5-.5V9.985h4.992a.5.5 0 00.381-.823L24.382.876a.5.5 0 00-.764 0l-7.014 8.286z"/></symbol><symbol id="outgoing-call" viewBox="0 0 48 48"><path style="fill: var(--opacity, #fff)" opacity=".3" d="M14.286 23.33a1 1 0 01-1.701-.596l-1.046-9.418a1 1 0 011.104-1.104l9.418 1.046a1 1 0 01.596 1.702l-2.771 2.77 3.003 3.004a1 1 0 010 1.414l-1.415 1.414a1 1 0 01-1.414 0l-3.003-3.003-2.771 2.772z"/><path fill-rule="evenodd" clip-rule="evenodd" d="M24.16 29.568l4.408-4.408a4 4 0 00.75-4.617l-.25-.5a4 4 0 01.749-4.617l5.465-5.466a1 1 0 011.602.26l2.208 4.416a8.775 8.775 0 01-1.644 10.129L25.451 36.763a10.854 10.854 0 01-11.108 2.622l-4.829-1.61a1 1 0 01-.39-1.656l5.302-5.302a4 4 0 014.617-.75l.5.25a4 4 0 004.617-.749z"/></symbol><symbol id="outgoing-mail" viewBox="0 0 48 49"><path fill-rule="evenodd" clip-rule="evenodd" d="M8 19a2 2 0 00-2 2v22a2 2 0 002 2h32a2 2 0 002-2V21a2 2 0 00-2-2H8zm30.32 4.289a1.5 1.5 0 00-2.031-.61L24 29.296 11.711 22.68a1.5 1.5 0 10-1.422 2.642l13 7a1.5 1.5 0 001.422 0l13-7a1.5 1.5 0 00.61-2.032z"/><path style="fill: var(--opacity, #fff)" opacity=".3" d="M16.604 9.162a.5.5 0 00.381.823h4.992V14.5a.5.5 0 00.5.5h3.046a.5.5 0 00.5-.5V9.985h4.992a.5.5 0 00.381-.823L24.382.876a.5.5 0 00-.764 0l-7.014 8.286z"/></symbol><symbol id="readed-mail" viewBox="0 0 48 48"><path style="fill: var(--opacity, #fff)" opacity=".3" d="M9.75 41.5c-.48 0-.958-.192-1.342-.575l-3.833-3.833c-.767-.767-.767-1.917 0-2.684.767-.766 2.013-.766 2.683 0L9.75 36.9l6.325-6.325c.767-.767 1.917-.767 2.683 0 .767.767.767 1.917 0 2.683l-7.666 7.667a1.892 1.892 0 01-1.342.575z"/><path fill-rule="evenodd" clip-rule="evenodd" d="M8 12a2 2 0 012-2h32a2 2 0 012 2v22a2 2 0 01-2 2H25.967C25.453 28.182 18.948 22 11 22c-1.027 0-2.03.103-3 .3V12zm30.289 1.68a1.5 1.5 0 111.422 2.64l-13 7a1.5 1.5 0 01-1.422 0l-13-7a1.5 1.5 0 011.422-2.64L26 20.295l12.289-6.617z"/></symbol><symbol id="reply-all" viewBox="0 0 48 48"><path style="fill: var(--opacity, #fff)" opacity=".3" d="M19.1 7.693a.75.75 0 00-1.254-.555L1.706 21.78a.75.75 0 00-.006 1.106l16.14 14.948a.75.75 0 001.26-.55V7.693z"/><path d="M46.59 35.582c0-1.64.352-8.115-4.756-13.252-3.437-3.457-8.582-4.057-14.734-4.33V7.693a.75.75 0 00-1.254-.555L9.706 21.78a.75.75 0 00-.006 1.106l16.14 14.948a.75.75 0 001.26-.55V27c3.906.107 6.689.356 9.217 1.16 4.958 1.577 7.87 8.417 8.6 10.337.115.302.4.503.724.503h.209c.414 0 .75-.336.749-.75-.003-.913-.009-1.997-.009-2.668z"/></symbol><symbol id="reply" viewBox="0 0 48 48"><path d="M42.89 35.582c0-1.64.352-8.115-4.756-13.252-3.437-3.457-8.582-4.057-14.734-4.33V7.693a.75.75 0 00-1.254-.555L6.006 21.78A.75.75 0 006 22.886l16.14 14.948a.75.75 0 001.26-.55V27c3.906.107 6.689.356 9.217 1.16 4.958 1.577 7.87 8.417 8.6 10.337.115.302.4.503.724.503h.209c.414 0 .75-.336.749-.75-.003-.913-.009-1.997-.009-2.668z"/></symbol><symbol id="rss" viewBox="0 0 48 48"><path fill-rule="evenodd" clip-rule="evenodd" d="M12 42a6 6 0 100-12 6 6 0 000 12z"/><path style="fill: var(--opacity, #fff)" opacity=".3" d="M33 42h-6c0-11.598-9.402-21-21-21v-6c14.912 0 27 12.088 27 27z"/><path opacity=".3" d="M45 42h-6C39 24.327 23.673 9 6 9V3c20.987 0 39 18.013 39 39z"/></symbol><symbol id="safe-chat" viewBox="0 0 48 48"><path style="fill: var(--opacity, #fff)" opacity=".3" fill-rule="evenodd" clip-rule="evenodd" d="M6 30.5A2.5 2.5 0 018.5 28h5a2.5 2.5 0 012.5 2.5V34h1a1 1 0 011 1v8a1 1 0 01-1 1H5a1 1 0 01-1-1v-8a1 1 0 011-1h1v-3.5zm3.5-.5A1.5 1.5 0 008 31.5V34h6v-2.5a1.5 1.5 0 00-1.5-1.5h-3z"/><path fill-rule="evenodd" clip-rule="evenodd" d="M7 6a3 3 0 00-3 3v14.73A14.935 14.935 0 0111 22c7.948 0 14.453 6.182 14.967 14H36.05l6.293 6.293c.63.63 1.707.184 1.707-.707V30l-.05.02V9a3 3 0 00-3-3H7zm4 8a1 1 0 00-1 1v2a1 1 0 001 1h20a1 1 0 001-1v-2a1 1 0 00-1-1H11z"/></symbol><symbol id="send" viewBox="0 0 48 48"><path fill-rule="evenodd" clip-rule="evenodd" d="M6 6.773a.5.5 0 01.705-.456l38.282 17.227a.5.5 0 010 .912L6.705 41.683A.5.5 0 016 41.227V27l32-3-32-3V6.773z"/></symbol><symbol id="sending-mail" viewBox="0 0 48 48"><path style="fill: var(--opacity, #fff)" opacity=".3" fill-rule="evenodd" clip-rule="evenodd" d="M5.5 12A1.5 1.5 0 004 13.5v1A1.5 1.5 0 005.5 16h5a1.5 1.5 0 001.5-1.5v-1a1.5 1.5 0 00-1.5-1.5h-5zM0 23.5A1.5 1.5 0 011.5 22h9a1.5 1.5 0 011.5 1.5v1a1.5 1.5 0 01-1.5 1.5h-9A1.5 1.5 0 010 24.5v-1zm6 10A1.5 1.5 0 017.5 32h3a1.5 1.5 0 011.5 1.5v1a1.5 1.5 0 01-1.5 1.5h-3A1.5 1.5 0 016 34.5v-1z"/><path fill-rule="evenodd" clip-rule="evenodd" d="M18 12a2 2 0 00-2 2v20a2 2 0 002 2h28a2 2 0 002-2V14a2 2 0 00-2-2H18zm25.851 4.631c-.325-.583-1.078-.802-1.681-.487L32 21.437l-10.17-5.293c-.603-.314-1.356-.096-1.681.487a1.18 1.18 0 00.504 1.626l10.759 5.6c.367.19.81.19 1.177 0l10.758-5.6a1.18 1.18 0 00.504-1.626z"/></symbol><symbol id="sending" viewBox="0 0 48 48"><path fill-rule="evenodd" clip-rule="evenodd" d="M16 10.77a.5.5 0 01.705-.456l29.4 13.23a.5.5 0 010 .912l-29.4 13.23A.5.5 0 0116 37.23V26.334L40.894 24 16 21.666V10.77z"/><path style="fill: var(--opacity, #fff)" opacity=".3" fill-rule="evenodd" clip-rule="evenodd" d="M7.5 12A1.5 1.5 0 006 13.5v1A1.5 1.5 0 007.5 16h3a1.5 1.5 0 001.5-1.5v-1a1.5 1.5 0 00-1.5-1.5h-3zM0 23.5A1.5 1.5 0 011.5 22h9a1.5 1.5 0 011.5 1.5v1a1.5 1.5 0 01-1.5 1.5h-9A1.5 1.5 0 010 24.5v-1zm6 10A1.5 1.5 0 017.5 32h3a1.5 1.5 0 011.5 1.5v1a1.5 1.5 0 01-1.5 1.5h-3A1.5 1.5 0 016 34.5v-1z"/></symbol><symbol id="share" viewBox="0 0 49 48"><path style="fill: var(--opacity, #fff)" opacity=".3" d="M21.8 4a2 2 0 110 4H12a4 4 0 00-4 4v24a4 4 0 004 4h24a4 4 0 004-4v-4a2 2 0 114 0v4a8 8 0 01-8 8H12a8 8 0 01-8-8V12a8 8 0 018-8h9.8z"/><path d="M14.009 27.795c0-1.526-.327-7.546 4.422-12.322 3.196-3.214 7.98-3.772 13.7-4.026V1.983a.75.75 0 011.254-.556L48.26 14.923a.75.75 0 01.006 1.106L33.39 29.806a.75.75 0 01-1.26-.55v-9.44c-3.631.1-6.218.33-8.569 1.078-4.578 1.457-7.28 7.74-7.982 9.574a.778.778 0 01-.725.505h-.104a.748.748 0 01-.749-.75c.003-.838.008-1.817.008-2.428z"/></symbol><symbol id="shield-thunder" viewBox="0 0 48 48"><path style="fill: var(--opacity, #fff)" opacity=".3" fill-rule="evenodd" clip-rule="evenodd" d="M8 8l15.631-2.93a2 2 0 01.738 0L40 8v21.903a11 11 0 01-5.17 9.328l-10.3 6.438a1 1 0 01-1.06 0l-10.3-6.438A11 11 0 018 29.903V8z"/><path opacity=".3" fill-rule="evenodd" clip-rule="evenodd" d="M22.667 36L32 22.8h-4.667V14L18 27.2h4.667V36z"/></symbol><symbol id="shield-user" viewBox="0 0 48 48"><path style="fill: var(--opacity, #fff)" opacity=".3" fill-rule="evenodd" clip-rule="evenodd" d="M8 8l15.631-2.93a2 2 0 01.738 0L40 8v21.903a11 11 0 01-5.17 9.328l-10.3 6.438a1 1 0 01-1.06 0l-10.3-6.438A11 11 0 018 29.903V8z"/><path opacity=".3" fill-rule="evenodd" clip-rule="evenodd" d="M24 22a4 4 0 110-8 4 4 0 010 8zM14 32.999C14.432 27.033 18.736 24 23.983 24c5.32 0 9.69 2.866 10.016 9 .013.244 0 1-.835 1H14.808c-.278 0-.83-.676-.807-1.001z"/></symbol><symbol id="snoozed-mail" viewBox="0 0 48 48"><path fill-rule="evenodd" clip-rule="evenodd" d="M8 12a2 2 0 012-2h32a2 2 0 012 2v22a2 2 0 01-2 2H25.967C25.453 28.182 18.948 22 11 22c-1.027 0-2.03.103-3 .3V12zm30.289 1.68a1.5 1.5 0 111.422 2.64l-13 7a1.5 1.5 0 01-1.422 0l-13-7a1.5 1.5 0 011.422-2.64L26 20.295l12.289-6.617z"/><path style="fill: var(--opacity, #fff)" opacity=".3" d="M16.894 36.211a2 2 0 01-1.788 3.578L10 37.236V29a2 2 0 114 0v5.764l2.894 1.447z"/></symbol><symbol id="spam" viewBox="0 0 48 48"><path fill-rule="evenodd" clip-rule="evenodd" d="M6 7.5A1.5 1.5 0 017.5 6h33A1.5 1.5 0 0142 7.5v33a1.5 1.5 0 01-1.5 1.5h-33A1.5 1.5 0 016 40.5v-33zm8 4a1.5 1.5 0 011.5-1.5h17a1.5 1.5 0 011.5 1.5v1a1.5 1.5 0 01-1.5 1.5h-17a1.5 1.5 0 01-1.5-1.5v-1zm4.343 13.672L21.172 28l-2.829 2.828a2 2 0 002.829 2.829L24 30.828l2.828 2.829a2 2 0 002.829-2.829L26.828 28l2.829-2.828a2 2 0 10-2.829-2.829L24 25.172l-2.828-2.829a2 2 0 00-2.829 2.829z"/></symbol><symbol id="thumbtack" viewBox="0 0 48 48"><path fill-rule="evenodd" clip-rule="evenodd" d="M23.347 16.662l6.652-4.462-1.756-1.756a2 2 0 010-2.829l2.828-2.828a2 2 0 012.829 0L45.213 16.1a2 2 0 010 2.828l-2.828 2.828a2 2 0 01-2.829 0l-1.755-1.756-4.462 6.652a14.35 14.35 0 01.394 5.766l-.864 6.393a2 2 0 01-3.396 1.146l-19.43-19.43a2 2 0 011.145-3.397l6.393-.864a14.353 14.353 0 015.766.395z"/><path style="fill: var(--opacity, #fff)" opacity=".3" fill-rule="evenodd" clip-rule="evenodd" d="M17.636 28.121l-8.081 8.082-1.111 5.353 5.353-1.11 8.082-8.082-4.243-4.243z"/></symbol><symbol id="urgent-mail" viewBox="0 0 48 48"><path style="fill: var(--opacity, #fff)" opacity=".3" fill-rule="evenodd" clip-rule="evenodd" d="M11 4a1 1 0 00-1 1v22a1 1 0 001 1h11.444v-4H18l8.889-12v8h4.444l-5.926 8H37a1 1 0 001-1V5a1 1 0 00-1-1H11z"/><path fill-rule="evenodd" clip-rule="evenodd" d="M22.444 32l8.89-12h-4.445v-8L18 24h4.444v8z"/></symbol><symbol id="write" viewBox="0 0 48 48"><path d="M44.493 11.037a1.5 1.5 0 01.021 2.1l-19.146 19.94a1.5 1.5 0 01-1.05.46l-8.068.17.17-8.083a1.5 1.5 0 01.442-1.032l19.591-19.48a1.5 1.5 0 012.118.003l5.922 5.922z"/><path style="fill: var(--opacity, #fff)" opacity=".3" d="M25.8 4a2 2 0 110 4H12a4 4 0 00-4 4v24a4 4 0 004 4h24a4 4 0 004-4V26a2 2 0 114 0v10a8 8 0 01-8 8H12a8 8 0 01-8-8V12a8 8 0 018-8h13.8z"/></symbol></svg>