<?xml version="1.0" encoding="UTF-8"?><!DOCTYPE svg PUBLIC "-//W3C//DTD SVG 1.1//EN" "http://www.w3.org/Graphics/SVG/1.1/DTD/svg11.dtd"><svg xmlns="http://www.w3.org/2000/svg" xmlns:xlink="http://www.w3.org/1999/xlink"><defs/><symbol id="baking-glove" viewBox="0 0 48 48"><path fill-rule="evenodd" clip-rule="evenodd" d="M20 4a6 6 0 0 0-6 6v14.835l-5.688-3.837a2.5 2.5 0 0 0-3.47.675L3.163 24.16a2.5 2.5 0 0 0 .674 3.47L14 34.484V35a1 1 0 0 0 1 1h1.247l.027.018A2.5 2.5 0 0 0 19.098 36H37a1 1 0 0 0 1-1V10a6 6 0 0 0-6-6H20Z"/><rect style="fill: var(--opacity, #fff)" opacity=".3" x="12" y="40" width="28" height="4" rx="1"/></symbol><symbol id="bowl" viewBox="0 0 48 48"><path style="fill: var(--opacity, #fff)" opacity=".3" d="M16 34h16v5a1 1 0 0 1-1 1H17a1 1 0 0 1-1-1v-5Z"/><path fill-rule="evenodd" clip-rule="evenodd" d="M44 14H4v2c0 11.046 8.954 20 20 20s20-8.954 20-20v-2Zm-6.212 4.162a2 2 0 0 0-2.626 1.05c-1.82 4.246-4.495 7.218-8.056 9a2 2 0 1 0 1.788 3.577c4.44-2.22 7.764-5.914 9.944-11.001a2 2 0 0 0-1.05-2.626Z"/></symbol><symbol id="chef" viewBox="0 0 48 48"><rect style="fill: var(--opacity, #fff)" opacity=".3" x="10" y="40" width="28" height="4" rx="1"/><path fill-rule="evenodd" clip-rule="evenodd" d="M10 25.748a8 8 0 0 1 2.673-15.72C14.313 5.353 18.765 2 24 2s9.688 3.353 11.327 8.028A8 8 0 0 1 38 25.748V34a2 2 0 0 1-2 2H12a2 2 0 0 1-2-2v-8.252Z"/></symbol><symbol id="cooking-book" viewBox="0 0 48 48"><path style="fill: var(--opacity, #fff)" opacity=".3" fill-rule="evenodd" clip-rule="evenodd" d="M38 4H14c-3.493 0-6 2.612-6 6v28c0 3.388 2.507 6 6 6h24c1.284 0 2-.746 2-2v-2H15.667c-.92 0-1.667-.746-1.667-1.667v-.666c0-.92.746-1.667 1.667-1.667H40V6c0-1.254-.716-2-2-2Z"/><mask id="a" mask-type="alpha" maskUnits="userSpaceOnUse" x="8" y="4" width="32" height="40"><path fill-rule="evenodd" clip-rule="evenodd" d="M38 4H14c-3.493 0-6 2.612-6 6v28c0 3.388 2.507 6 6 6h24c1.284 0 2-.746 2-2v-2H15.667c-.92 0-1.667-.746-1.667-1.667v-.666c0-.92.746-1.667 1.667-1.667H40V6c0-1.254-.716-2-2-2Z"/></mask><g mask="url(#a)"><path opacity=".3" fill-rule="evenodd" clip-rule="evenodd" d="M18.7 23.175c-1.553-.417-2.7-1.891-2.7-3.646 0-2.079 1.612-3.764 3.6-3.764.102 0 .203.004.303.013C20.64 13.578 22.644 12 25 12c2.356 0 4.36 1.578 5.097 3.778.1-.009.201-.013.303-.013 1.988 0 3.6 1.685 3.6 3.764 0 1.755-1.147 3.229-2.7 3.646v3.884c0 .52-.403.941-.9.941H19.6c-.497 0-.9-.421-.9-.941v-3.884Z"/></g></symbol><symbol id="cooking-pot" viewBox="0 0 48 48"><path style="fill: var(--opacity, #fff)" opacity=".3" fill-rule="evenodd" clip-rule="evenodd" d="M21 8a1 1 0 0 0-1 1v3H9.98A3.98 3.98 0 0 0 6 15.98c0 .011.009.02.02.02h35.96a.02.02 0 0 0 .02-.02A3.98 3.98 0 0 0 38.02 12H28V9a1 1 0 0 0-1-1h-6Zm17 15a1 1 0 0 1 1-1h6a1 1 0 0 1 1 1v2a1 1 0 0 1-1 1h-6a1 1 0 0 1-1-1v-2ZM3 22a1 1 0 0 0-1 1v2a1 1 0 0 0 1 1h6a1 1 0 0 0 1-1v-2a1 1 0 0 0-1-1H3Z"/><path d="M8 19a1 1 0 0 1 1-1h30a1 1 0 0 1 1 1v19a4 4 0 0 1-4 4H12a4 4 0 0 1-4-4V19Z"/></symbol><symbol id="cutting board" viewBox="0 0 48 48"><path style="fill: var(--opacity, #fff)" opacity=".3" fill-rule="evenodd" clip-rule="evenodd" d="M16.757 30.242a5 5 0 0 1 0 7.072l-4.242 4.242a5 5 0 1 1-7.071-7.07l4.242-4.243a5 5 0 0 1 7.071 0Zm-9.121 9.264a2.5 2.5 0 1 0 3.535-3.536 2.5 2.5 0 0 0-3.535 3.536Z"/><path fill-rule="evenodd" clip-rule="evenodd" d="m28.778 2.665 15.556 15.557a4 4 0 0 1 0 5.657L25.95 42.263a4 4 0 0 1-5.657 0L4.737 26.708a4 4 0 0 1 0-5.657L23.12 2.665a4 4 0 0 1 5.657 0Z"/></symbol><symbol id="dinner" viewBox="0 0 48 48"><path style="fill: var(--opacity, #fff)" opacity=".3" fill-rule="evenodd" clip-rule="evenodd" d="M25 38c7.18 0 13-5.82 13-13s-5.82-13-13-13-13 5.82-13 13 5.82 13 13 13Zm0-5.2a7.8 7.8 0 1 1 0-15.6 7.8 7.8 0 0 1 0 15.6Zm5.2-7.8a5.2 5.2 0 1 1-10.4 0 5.2 5.2 0 0 1 10.4 0Z"/><rect opacity=".3" x="42.195" y="27" width="4.019" height="11" rx="1.125"/><path fill-rule="evenodd" clip-rule="evenodd" d="M42 10v14h6v-8a6 6 0 0 0-6-6ZM1.429 10H0v8.79a3 3 0 0 0 3 3h4a3 3 0 0 0 3-3V10H8.571l-.648 6.69a.75.75 0 0 1-.747.678H7.11a.75.75 0 0 1-.746-.677L5.714 10H4.286l-.649 6.69a.75.75 0 0 1-.746.678h-.067a.75.75 0 0 1-.747-.677L1.43 10Z"/><rect opacity=".3" x="2.973" y="24.737" width="4.054" height="13.263" rx="1.125"/></symbol><symbol id="dish" viewBox="0 0 48 48"><path fill-rule="evenodd" clip-rule="evenodd" d="M42 24c0 9.941-8.059 18-18 18S6 33.941 6 24 14.059 6 24 6s18 8.059 18 18Zm-30 0c0 6.627 5.373 12 12 12s12-5.373 12-12-5.373-12-12-12-12 5.373-12 12Z"/><path style="fill: var(--opacity, #fff)" opacity=".3" fill-rule="evenodd" clip-rule="evenodd" d="M24 32a8 8 0 1 0 0-16 8 8 0 0 0 0 16Z"/></symbol><symbol id="dishes" viewBox="0 0 48 48"><path fill-rule="evenodd" clip-rule="evenodd" d="M42 22H6v4a2 2 0 0 0 2 2h32a2 2 0 0 0 2-2v-4Zm0 10H6a8 8 0 0 0 8 8h20a8 8 0 0 0 8-8Z"/><path style="fill: var(--opacity, #fff)" opacity=".3" d="M6 10h36v6a2 2 0 0 1-2 2H8a2 2 0 0 1-2-2v-6Z"/></symbol><symbol id="fork-spoon-knife" viewBox="0 0 48 48"><path fill-rule="evenodd" clip-rule="evenodd" d="M22 6h-2v12a4 4 0 0 0 4 4h6a4 4 0 0 0 4-4V6h-2l-.91 9.1a1 1 0 0 1-.995.9h-.19a1 1 0 0 1-.995-.9L28 6h-2l-.91 9.1a1 1 0 0 1-.995.9h-.19a1 1 0 0 1-.995-.9L22 6Z"/><rect style="fill: var(--opacity, #fff)" opacity=".3" x="24.162" y="26" width="5.676" height="18" rx="1.5"/><rect opacity=".3" x="40.182" y="30" width="5.637" height="14" rx="1.5"/><path fill-rule="evenodd" clip-rule="evenodd" d="M40 6v20h8V14a8 8 0 0 0-8-8Z"/><rect opacity=".3" x="6.182" y="28" width="5.637" height="16" rx="1.5"/><path fill-rule="evenodd" clip-rule="evenodd" d="M16 15c0 3.866-3.134 9-7 9s-7-5.134-7-9c0-3.866 3.134-9 7-9s7 5.134 7 9Zm-3.045.79c.04-2.268-1.69-6.38-3.936-6.588l.102 10.693a4.194 4.194 0 0 0 3.834-4.105Z"/></symbol><symbol id="fork-spoon" viewBox="0 0 48 48"><path fill-rule="evenodd" clip-rule="evenodd" d="M30 6h-2v12a4 4 0 0 0 4 4h6a4 4 0 0 0 4-4V6h-2l-.91 9.1a1 1 0 0 1-.995.9h-.19a1 1 0 0 1-.995-.9L36 6h-2l-.91 9.1a1 1 0 0 1-.995.9h-.19a1 1 0 0 1-.995-.9L30 6Z"/><rect style="fill: var(--opacity, #fff)" opacity=".3" x="32.162" y="26" width="5.676" height="18" rx="1.5"/><rect opacity=".3" x="12.182" y="28" width="5.637" height="16" rx="1.5"/><path fill-rule="evenodd" clip-rule="evenodd" d="M22 15c0 3.866-3.134 9-7 9s-7-5.134-7-9c0-3.866 3.134-9 7-9s7 5.134 7 9Zm-3.045.79c.04-2.268-1.69-6.38-3.936-6.588l.102 10.693a4.194 4.194 0 0 0 3.834-4.105Z"/></symbol><symbol id="fork" viewBox="0 0 48 48"><path style="fill: var(--opacity, #fff)" opacity=".3" fill-rule="evenodd" clip-rule="evenodd" d="m18.757 27.828 1.415 1.415a2 2 0 0 1 0 2.828l-9.9 9.9a2 2 0 0 1-2.828 0l-1.415-1.415a2 2 0 0 1 0-2.828l9.9-9.9a2 2 0 0 1 2.828 0Z"/><path fill-rule="evenodd" clip-rule="evenodd" d="m31.121 5.98-6.627 8.376a1.573 1.573 0 0 0 2.21 2.21l8.377-6.627 1.98 1.98-6.627 8.377a1.573 1.573 0 0 0 2.21 2.21l8.377-6.627 1.414 1.414-8.485 8.485a8 8 0 0 1-11.314 0l-1.414-1.414a8 8 0 0 1 0-11.314l8.485-8.485 1.414 1.414Z"/></symbol><symbol id="frying-pan" viewBox="0 0 48 48"><path style="fill: var(--opacity, #fff)" opacity=".3" fill-rule="evenodd" clip-rule="evenodd" d="m17.364 25.51 8.421-8.13-10.3-10.667a5 5 0 0 0-7.07-.123L7.188 7.775a5 5 0 0 0-.124 7.07l10.3 10.666Zm-7.64-12.24c-1.097-1.135-1.056-2.952.09-4.059 1.145-1.106 2.962-1.083 4.058.052 1.097 1.136 1.056 2.953-.09 4.059-1.145 1.106-2.962 1.083-4.058-.052Z"/><path fill-rule="evenodd" clip-rule="evenodd" d="M19.879 39.85c-5.468-5.468-5.468-14.332 0-19.8 5.467-5.467 14.331-5.467 19.799 0 5.467 5.468 5.467 14.332 0 19.8-5.468 5.466-14.332 5.466-19.8 0ZM30 41c6.075 0 11-4.925 11-11s-4.925-11-11-11-11 4.925-11 11 4.925 11 11 11Zm0-2a9 9 0 1 1 0-18 9 9 0 0 1 0 18Z"/></symbol><symbol id="grater" viewBox="0 0 48 48"><path style="fill: var(--opacity, #fff)" opacity=".3" d="m15.857 16.743-3.714-1.486 1.772-4.429a10.862 10.862 0 0 1 20.17 0l1.772 4.43-3.714 1.485-1.772-4.43a6.862 6.862 0 0 0-12.742 0l-1.772 4.43Z"/><path fill-rule="evenodd" clip-rule="evenodd" d="M8.722 14a2 2 0 0 0-2 2v24a2 2 0 0 0 2 2h30.557a2 2 0 0 0 2-2V16a2 2 0 0 0-2-2H8.722ZM14 36a2 2 0 1 1-4 0 2 2 0 0 1 4 0Zm2-6a2 2 0 1 0 0-4 2 2 0 0 0 0 4Zm6-10a2 2 0 1 1-4 0 2 2 0 0 1 4 0Zm6 2a2 2 0 1 0 0-4 2 2 0 0 0 0 4Zm-2 6a2 2 0 1 1-4 0 2 2 0 0 1 4 0Zm6 2a2 2 0 1 0 0-4 2 2 0 0 0 0 4Zm-10 6a2 2 0 1 1-4 0 2 2 0 0 1 4 0Zm6 2a2 2 0 1 0 0-4 2 2 0 0 0 0 4Zm10-2a2 2 0 1 1-4 0 2 2 0 0 1 4 0Z"/></symbol><symbol id="kitchen-scale" viewBox="0 0 48 48"><path fill-rule="evenodd" clip-rule="evenodd" d="M8 16a2 2 0 0 0-2 2v24a2 2 0 0 0 2 2h32a2 2 0 0 0 2-2V18a2 2 0 0 0-2-2H8Zm26 14c0 5.523-4.477 10-10 10s-10-4.477-10-10 4.477-10 10-10 10 4.477 10 10Zm-10.854-2.877L24 22l.854 5.123a3.001 3.001 0 1 1-1.708 0Z"/><path style="fill: var(--opacity, #fff)" opacity=".3" fill-rule="evenodd" clip-rule="evenodd" d="M28 12v4h-8v-4h-4.395A6.737 6.737 0 0 1 10 9l-.964-1.445A1 1 0 0 1 9.87 6h28.263a1 1 0 0 1 .832 1.555L38 9a6.737 6.737 0 0 1-5.606 3H28Z"/></symbol><symbol id="knife&amp;fork#2-1" viewBox="0 0 48 48"><path fill-rule="evenodd" clip-rule="evenodd" d="m7.977 6.12 14.142 14.142-5.657 5.657-8.485-8.485a8 8 0 0 1 0-11.314ZM35.508 7.814l-5.73 7.004a1.105 1.105 0 0 0 1.554 1.555l7.004-5.73 1.415 1.414-5.731 7.004a1.105 1.105 0 0 0 1.555 1.555l7.004-5.73 1.414 1.413-6.364 6.364a7 7 0 0 1-9.9-9.9L34.095 6.4l1.414 1.414Z"/><path style="fill: var(--opacity, #fff)" opacity=".3" fill-rule="evenodd" clip-rule="evenodd" d="M22.15 27.85c.793.792.825 2.066.074 2.897l-9.94 10.998a2.852 2.852 0 1 1-4.029-4.029l10.998-9.94a2.104 2.104 0 0 1 2.898.073ZM26.15 27.85a2.104 2.104 0 0 1 2.899-.074l10.998 9.94a2.852 2.852 0 1 1-4.029 4.029l-9.94-10.998a2.103 2.103 0 0 1 .073-2.898Z"/></symbol><symbol id="knife&amp;fork#2" viewBox="0 0 48 48"><path fill-rule="evenodd" clip-rule="evenodd" d="M12 6h-2v12a4 4 0 0 0 4 4h6a4 4 0 0 0 4-4V6h-2l-.91 9.1a1 1 0 0 1-.995.9h-.19a1 1 0 0 1-.995-.9L18 6h-2l-.91 9.1a1 1 0 0 1-.995.9h-.19a1 1 0 0 1-.995-.9L12 6Z"/><rect style="fill: var(--opacity, #fff)" opacity=".3" x="14.162" y="26" width="5.676" height="18" rx="1.5"/><rect opacity=".3" x="32.182" y="30" width="5.637" height="14" rx="1.5"/><path fill-rule="evenodd" clip-rule="evenodd" d="M38 6v20h-8V14a8 8 0 0 1 8-8Z"/></symbol><symbol id="knife#1" viewBox="0 0 48 48"><path style="fill: var(--opacity, #fff)" opacity=".3" fill-rule="evenodd" clip-rule="evenodd" d="m11.565 29.293 1.414 1.414a2 2 0 0 1 0 2.828l-5.657 5.657a2 2 0 0 1-2.828 0L3.08 37.778a2 2 0 0 1 0-2.828l5.657-5.657a2 2 0 0 1 2.828 0Z"/><path fill-rule="evenodd" clip-rule="evenodd" d="M12.98 25.05 34.191 3.837l9.9 9.9a6 6 0 0 1 0 8.485L31.364 34.95a6 6 0 0 1-8.485 0l-9.9-9.9Zm21.334-10.02a3 3 0 1 0-4.243-4.243 3 3 0 0 0 4.243 4.242Z"/></symbol><symbol id="knife#2" viewBox="0 0 48 48"><path style="fill: var(--opacity, #fff)" opacity=".3" fill-rule="evenodd" clip-rule="evenodd" d="M15.222 31.536a2 2 0 0 1 0 2.828L8.15 41.435a2 2 0 0 1-2.829 0l-1.414-1.414a2 2 0 0 1 0-2.828l7.071-7.072a2 2 0 0 1 2.829 0l1.414 1.415Z"/><path fill-rule="evenodd" clip-rule="evenodd" d="M37.02 4.08c5.468 5.467 5.468 14.331 0 19.799L25.708 35.192l-9.9-9.9L37.022 4.08Z"/></symbol><symbol id="ladle" viewBox="0 0 48 48"><path style="fill: var(--opacity, #fff)" opacity=".3" fill-rule="evenodd" clip-rule="evenodd" d="M46.749 15.222a2 2 0 0 1 0 2.828L34.02 30.778a2 2 0 0 1-2.829 0l-2.828-2.828a2 2 0 0 1 0-2.829l12.728-12.728a2 2 0 0 1 2.828 0l2.829 2.829Z"/><path fill-rule="evenodd" clip-rule="evenodd" d="m18.465 37.85 7.07-7.072 2.829 2.829-7.071 7.07-.037-.037c-4.387 3.542-11.431 2.712-16.227-2.084C.234 33.761.034 27.348 3.646 23.031L18.465 37.85Z"/></symbol><symbol id="rolling-pin" viewBox="0 0 48 48"><path fill-rule="evenodd" clip-rule="evenodd" d="M10.565 28.95 28.95 10.565a3 3 0 0 1 4.242 0l4.243 4.243a3 3 0 0 1 0 4.242L19.05 37.435a3 3 0 0 1-4.242 0l-4.243-4.243a3 3 0 0 1 0-4.242Z"/><path style="fill: var(--opacity, #fff)" opacity=".3" fill-rule="evenodd" clip-rule="evenodd" d="m7.03 36.728 1.414-1.414a1 1 0 0 1 1.414 0l2.828 2.828a1 1 0 0 1 0 1.414l-1.414 1.415a3 3 0 1 1-4.243-4.243ZM36.727 7.03a3 3 0 0 1 4.243 4.242l-1.415 1.414a1 1 0 0 1-1.414 0l-2.828-2.828a1 1 0 0 1 0-1.414l1.414-1.414Z"/></symbol><symbol id="saucepan" viewBox="0 0 48 48"><path d="M2 19a1 1 0 0 1 1-1h22a1 1 0 0 1 1 1v11a4 4 0 0 1-4 4H6a4 4 0 0 1-4-4V19Z"/><rect style="fill: var(--opacity, #fff)" opacity=".3" x="28" y="18.162" width="18" height="5.676" rx="1.5"/></symbol><symbol id="shovel" viewBox="0 0 48 48"><path style="fill: var(--opacity, #fff)" opacity=".3" fill-rule="evenodd" clip-rule="evenodd" d="m17.05 29.121 2.829 2.829a2 2 0 0 1 0 2.828l-9.9 9.9a2 2 0 0 1-2.828 0l-2.829-2.829a2 2 0 0 1 0-2.828l9.9-9.9a2 2 0 0 1 2.828 0Z"/><path fill-rule="evenodd" clip-rule="evenodd" d="m22.707 23.465-4.242-4.243a4 4 0 0 1 0-5.657L26.95 5.08a4 4 0 0 1 5.657 0L43.92 16.394a4 4 0 0 1 0 5.656l-8.485 8.486a4 4 0 0 1-5.657 0l-4.242-4.243-4.243 4.243-2.828-2.829 4.242-4.242Zm7.778-14.85L22 17.101l1.414 1.414 8.485-8.486-1.414-1.414Zm4.243 4.243-8.485 8.485 1.414 1.414 8.485-8.485-1.414-1.414ZM38.97 17.1l-8.486 8.485L31.9 27l8.485-8.485L38.97 17.1Z"/></symbol><symbol id="sieve" viewBox="0 0 48 48"><path style="fill: var(--opacity, #fff)" opacity=".3" d="M16 36h14.45v5a1 1 0 0 1-1 1H17a1 1 0 0 1-1-1v-5Z"/><path fill-rule="evenodd" clip-rule="evenodd" d="M42 20v-2h2a2 2 0 1 0 0-4H4a2 2 0 1 0 0 4h2v2c0 9.941 8.059 18 18 18s18-8.059 18-18Zm-28 0a2 2 0 1 1-4 0 2 2 0 0 1 4 0Zm2 8a2 2 0 1 0 0-4 2 2 0 0 0 0 4Zm6 4a2 2 0 1 1-4 0 2 2 0 0 1 4 0Zm6 2a2 2 0 1 0 0-4 2 2 0 0 0 0 4Zm-2-8a2 2 0 1 1-4 0 2 2 0 0 1 4 0Zm6 2a2 2 0 1 0 0-4 2 2 0 0 0 0 4Zm-10-8a2 2 0 1 1-4 0 2 2 0 0 1 4 0Zm6 2a2 2 0 1 0 0-4 2 2 0 0 0 0 4Zm10-2a2 2 0 1 1-4 0 2 2 0 0 1 4 0Z"/></symbol><symbol id="spoon" viewBox="0 0 48 48"><path style="fill: var(--opacity, #fff)" opacity=".3" fill-rule="evenodd" clip-rule="evenodd" d="m18.757 25.828 1.415 1.415a2 2 0 0 1 0 2.828l-9.9 9.9a2 2 0 0 1-2.828 0l-1.415-1.415a2 2 0 0 1 0-2.828l9.9-9.9a2 2 0 0 1 2.828 0Z"/><path fill-rule="evenodd" clip-rule="evenodd" d="M22.293 23.707a9 9 0 0 0 12.728 0c3.514-3.515 7.05-12.749 3.535-16.263-3.514-3.515-12.748.02-16.263 3.535a9 9 0 0 0 0 12.728Z"/><path fill-rule="evenodd" clip-rule="evenodd" d="m25.678 21.118 9.573-10.105c1.916 2.226-.184 7.64-2.272 9.727a5.46 5.46 0 0 1-7.301.378Z"/></symbol></svg>