<?xml version="1.0" encoding="UTF-8"?><!DOCTYPE svg PUBLIC "-//W3C//DTD SVG 1.1//EN" "http://www.w3.org/Graphics/SVG/1.1/DTD/svg11.dtd"><svg xmlns="http://www.w3.org/2000/svg" xmlns:xlink="http://www.w3.org/1999/xlink"><defs/><symbol id="account_child" viewBox="0 0 24 24"><circle cx="12" cy="13.49" r="1.5"/><path d="M12 2C6.48 2 2 6.48 2 12s4.48 10 10 10 10-4.48 10-10S17.52 2 12 2zm0 2.5c1.24 0 2.25 1.01 2.25 2.25S13.24 9 12 9 9.75 7.99 9.75 6.75 10.76 4.5 12 4.5zm5 10.56v2.5c-.45.41-.96.77-1.5 1.05v-.68c0-.34-.17-.65-.46-.92-.65-.62-1.89-1.02-3.04-1.02-.96 0-1.96.28-2.65.73l-.17.12-.21.17c.78.47 1.63.72 2.54.82l1.33.15c.37.04.66.36.66.75 0 .29-.16.53-.4.66-.28.15-.64.09-.95.09a7.19 7.19 0 0 1-2.49-.38c-.49-.16-.97-.38-1.42-.64-.22-.13-.44-.27-.65-.43l-.31-.24c-.04-.02-.28-.18-.28-.23v-4.28c0-1.58 2.63-2.78 5-2.78s5 1.2 5 2.78v1.78z"/></symbol><symbol id="battery_20" viewBox="0 0 24 24"><path d="M7 17v3.67C7 21.4 7.6 22 8.33 22h7.33c.74 0 1.34-.6 1.34-1.33V17H7z"/><path fill-style="fill: var(--opacity, #fff)" opacity=".3" d="M17 5.33C17 4.6 16.4 4 15.67 4H14V2h-4v2H8.33C7.6 4 7 4.6 7 5.33V17h10V5.33z"/></symbol><symbol id="battery_30" viewBox="0 0 24 24"><path fill-style="fill: var(--opacity, #fff)" opacity=".3" d="M17 5.33C17 4.6 16.4 4 15.67 4H14V2h-4v2H8.33C7.6 4 7 4.6 7 5.33V15h10V5.33z"/><path d="M7 15v5.67C7 21.4 7.6 22 8.33 22h7.33c.74 0 1.34-.6 1.34-1.33V15H7z"/></symbol><symbol id="battery_50" viewBox="0 0 24 24"><path fill-style="fill: var(--opacity, #fff)" opacity=".3" d="M17 5.33C17 4.6 16.4 4 15.67 4H14V2h-4v2H8.33C7.6 4 7 4.6 7 5.33V13h10V5.33z"/><path d="M7 13v7.67C7 21.4 7.6 22 8.33 22h7.33c.74 0 1.34-.6 1.34-1.33V13H7z"/></symbol><symbol id="battery_60" viewBox="0 0 24 24"><path fill-style="fill: var(--opacity, #fff)" opacity=".3" d="M17 5.33C17 4.6 16.4 4 15.67 4H14V2h-4v2H8.33C7.6 4 7 4.6 7 5.33V11h10V5.33z"/><path d="M7 11v9.67C7 21.4 7.6 22 8.33 22h7.33c.74 0 1.34-.6 1.34-1.33V11H7z"/></symbol><symbol id="battery_80" viewBox="0 0 24 24"><path fill-style="fill: var(--opacity, #fff)" opacity=".3" d="M17 5.33C17 4.6 16.4 4 15.67 4H14V2h-4v2H8.33C7.6 4 7 4.6 7 5.33V9h10V5.33z"/><path d="M7 9v11.67C7 21.4 7.6 22 8.33 22h7.33c.74 0 1.34-.6 1.34-1.33V9H7z"/></symbol><symbol id="battery_90" viewBox="0 0 24 24"><path fill-style="fill: var(--opacity, #fff)" opacity=".3" d="M17 5.33C17 4.6 16.4 4 15.67 4H14V2h-4v2H8.33C7.6 4 7 4.6 7 5.33V8h10V5.33z"/><path d="M7 8v12.67C7 21.4 7.6 22 8.33 22h7.33c.74 0 1.34-.6 1.34-1.33V8H7z"/></symbol><symbol id="battery_alert" viewBox="0 0 24 24"><path d="M15.67 4H14V2h-4v2H8.33C7.6 4 7 4.6 7 5.33v15.33C7 21.4 7.6 22 8.33 22h7.33c.74 0 1.34-.6 1.34-1.33V5.33C17 4.6 16.4 4 15.67 4zM13 18h-2v-2h2v2zm0-4h-2V9h2v5z"/></symbol><symbol id="battery_charging_20" viewBox="0 0 24 24"><path d="M11 20v-3H7v3.67C7 21.4 7.6 22 8.33 22h7.33c.74 0 1.34-.6 1.34-1.33V17h-4.4L11 20z"/><path fill-style="fill: var(--opacity, #fff)" opacity=".3" d="M15.67 4H14V2h-4v2H8.33C7.6 4 7 4.6 7 5.33V17h4v-2.5H9L13 7v5.5h2L12.6 17H17V5.33C17 4.6 16.4 4 15.67 4z"/></symbol><symbol id="battery_charging_30" viewBox="0 0 24 24"><path fill-style="fill: var(--opacity, #fff)" opacity=".3" d="M15.67 4H14V2h-4v2H8.33C7.6 4 7 4.6 7 5.33v9.17h2L13 7v5.5h2l-1.07 2H17V5.33C17 4.6 16.4 4 15.67 4z"/><path d="M11 20v-5.5H7v6.17C7 21.4 7.6 22 8.33 22h7.33c.74 0 1.34-.6 1.34-1.33V14.5h-3.07L11 20z"/></symbol><symbol id="battery_charging_50" viewBox="0 0 24 24"><path d="M14.47 13.5 11 20v-5.5H9l.53-1H7v7.17C7 21.4 7.6 22 8.33 22h7.33c.74 0 1.34-.6 1.34-1.33V13.5h-2.53z"/><path fill-style="fill: var(--opacity, #fff)" opacity=".3" d="M15.67 4H14V2h-4v2H8.33C7.6 4 7 4.6 7 5.33v8.17h2.53L13 7v5.5h2l-.53 1H17V5.33C17 4.6 16.4 4 15.67 4z"/></symbol><symbol id="battery_charging_60" viewBox="0 0 24 24"><path fill-style="fill: var(--opacity, #fff)" opacity=".3" d="M15.67 4H14V2h-4v2H8.33C7.6 4 7 4.6 7 5.33V11h3.87L13 7v4h4V5.33C17 4.6 16.4 4 15.67 4z"/><path d="M13 12.5h2L11 20v-5.5H9l1.87-3.5H7v9.67C7 21.4 7.6 22 8.33 22h7.33c.74 0 1.34-.6 1.34-1.33V11h-4v1.5z"/></symbol><symbol id="battery_charging_80" viewBox="0 0 24 24"><path fill-style="fill: var(--opacity, #fff)" opacity=".3" d="M15.67 4H14V2h-4v2H8.33C7.6 4 7 4.6 7 5.33V9h4.93L13 7v2h4V5.33C17 4.6 16.4 4 15.67 4z"/><path d="M13 12.5h2L11 20v-5.5H9L11.93 9H7v11.67C7 21.4 7.6 22 8.33 22h7.33c.74 0 1.34-.6 1.34-1.33V9h-4v3.5z"/></symbol><symbol id="battery_charging_90" viewBox="0 0 24 24"><path fill-style="fill: var(--opacity, #fff)" opacity=".3" d="M15.67 4H14V2h-4v2H8.33C7.6 4 7 4.6 7 5.33V8h5.47L13 7v1h4V5.33C17 4.6 16.4 4 15.67 4z"/><path d="M13 12.5h2L11 20v-5.5H9L12.47 8H7v12.67C7 21.4 7.6 22 8.33 22h7.33c.74 0 1.34-.6 1.34-1.33V8h-4v4.5z"/></symbol><symbol id="now_wallpaper" viewBox="0 0 24 24"><path d="M4 4h7V2H4c-1.1 0-2 .9-2 2v7h2zM10 13l-4 5h12l-3-4-2.03 2.71zM17 8.5c0-.83-.67-1.5-1.5-1.5S14 7.67 14 8.5s.67 1.5 1.5 1.5S17 9.33 17 8.5z"/><path d="M20 2h-7v2h7v7h2V4c0-1.1-.9-2-2-2zM20 20h-7v2h7c1.1 0 2-.9 2-2v-7h-2zM4 13H2v7c0 1.1.9 2 2 2h7v-2H4z"/></symbol><symbol id="now_widgets" viewBox="0 0 24 24"><path d="M13 13v8h8v-8zM3 21h8v-8H3zM3 3v8h8V3zM16.66 1.69 11 7.34 16.66 13l5.66-5.66z"/></symbol><symbol id="signal_cellular_0_bar" viewBox="0 0 24 24"><path fill-style="fill: var(--opacity, #fff)" opacity=".3" d="M2 22h20V2z"/></symbol><symbol id="signal_cellular_1_bar" viewBox="0 0 24 24"><path fill-style="fill: var(--opacity, #fff)" opacity=".3" d="M2 22h20V2z"/><path d="M12 12 2 22h10z"/></symbol><symbol id="signal_cellular_2_bar" viewBox="0 0 24 24"><path fill-style="fill: var(--opacity, #fff)" opacity=".3" d="M2 22h20V2z"/><path d="M14 10 2 22h12z"/></symbol><symbol id="signal_cellular_3_bar" viewBox="0 0 24 24"><path fill-style="fill: var(--opacity, #fff)" opacity=".3" d="M2 22h20V2z"/><path d="M17 7 2 22h15z"/></symbol><symbol id="signal_cellular_connected_no_internet_0_bar" viewBox="0 0 24 24"><path fill-style="fill: var(--opacity, #fff)" opacity=".3" d="M22 8V2L2 22h16V8z"/><path d="M20 22h2v-2h-2v2zm0-12v8h2v-8h-2z"/></symbol><symbol id="signal_cellular_connected_no_internet_1_bar" viewBox="0 0 24 24"><path fill-style="fill: var(--opacity, #fff)" opacity=".3" d="M22 8V2L2 22h16V8z"/><path d="M20 10v8h2v-8h-2zm-8 12V12L2 22h10zm8 0h2v-2h-2v2z"/></symbol><symbol id="signal_cellular_connected_no_internet_2_bar" viewBox="0 0 24 24"><path fill-style="fill: var(--opacity, #fff)" opacity=".3" d="M22 8V2L2 22h16V8z"/><path d="M14 22V10L2 22h12zm6-12v8h2v-8h-2zm0 12h2v-2h-2v2z"/></symbol><symbol id="signal_cellular_connected_no_internet_3_bar" viewBox="0 0 24 24"><path fill-style="fill: var(--opacity, #fff)" opacity=".3" d="M22 8V2L2 22h16V8z"/><path d="M17 22V7L2 22h15zm3-12v8h2v-8h-2zm0 12h2v-2h-2v2z"/></symbol><symbol id="signal_wifi_0_bar" viewBox="0 0 24 24"><path fill-style="fill: var(--opacity, #fff)" opacity=".3" d="M12.01 21.49 23.64 7c-.45-.34-4.93-4-11.64-4C5.28 3 .81 6.66.36 7l11.63 14.49.01.01.01-.01z"/></symbol><symbol id="signal_wifi_1_bar" viewBox="0 0 24 24"><path fill-style="fill: var(--opacity, #fff)" opacity=".3" d="M12.01 21.49 23.64 7c-.45-.34-4.93-4-11.64-4C5.28 3 .81 6.66.36 7l11.63 14.49.01.01.01-.01z"/><path d="M6.67 14.86 12 21.49v.01l.01-.01 5.33-6.63C17.06 14.65 15.03 13 12 13s-5.06 1.65-5.33 1.86z"/></symbol><symbol id="signal_wifi_2_bar" viewBox="0 0 24 24"><path fill-style="fill: var(--opacity, #fff)" opacity=".3" d="M12.01 21.49 23.64 7c-.45-.34-4.93-4-11.64-4C5.28 3 .81 6.66.36 7l11.63 14.49.01.01.01-.01z"/><path d="m4.79 12.52 7.2 8.98H12l.01-.01 7.2-8.98C18.85 12.24 16.1 10 12 10s-6.85 2.24-7.21 2.52z"/></symbol><symbol id="signal_wifi_3_bar" viewBox="0 0 24 24"><path d="M12.01 21.49 23.64 7c-.45-.34-4.93-4-11.64-4C5.28 3 .81 6.66.36 7l11.63 14.49.01.01z" fill-style="fill: var(--opacity, #fff)" opacity=".3"/><path d="m3.53 10.95 8.46 10.54.01.01.01-.01 8.46-10.54C20.04 10.62 16.81 8 12 8s-8.04 2.62-8.47 2.95z"/></symbol></svg>