<?xml version="1.0" encoding="UTF-8"?><!DOCTYPE svg PUBLIC "-//W3C//DTD SVG 1.1//EN" "http://www.w3.org/Graphics/SVG/1.1/DTD/svg11.dtd"><svg xmlns="http://www.w3.org/2000/svg" xmlns:xlink="http://www.w3.org/1999/xlink"><defs/><symbol id="adjust" viewBox="0 0 48 48"><path fill-rule="evenodd" clip-rule="evenodd" d="M8 24c0 8.837 7.163 16 16 16s16-7.163 16-16S32.837 8 24 8 8 15.163 8 24Zm4 0c0 6.627 5.373 12 12 12V12c-6.627 0-12 5.373-12 12Z"/></symbol><symbol id="anchor-center-down" viewBox="0 0 48 48"><path style="fill: var(--opacity, #fff)" opacity=".3" fill-rule="evenodd" clip-rule="evenodd" d="M24 44a6 6 0 1 0 0-12 6 6 0 0 0 0 12Z"/><path fill-rule="evenodd" clip-rule="evenodd" d="M26 14v15a1 1 0 0 1-1 1h-2a1 1 0 0 1-1-1V14h-5a1 1 0 0 1-1-1v-2a1 1 0 0 1 1-1h14a1 1 0 0 1 1 1v2a1 1 0 0 1-1 1h-5Z"/></symbol><symbol id="anchor-center-up" viewBox="0 0 48 48"><path style="fill: var(--opacity, #fff)" opacity=".3" fill-rule="evenodd" clip-rule="evenodd" d="M24 16a6 6 0 1 0 0-12 6 6 0 0 0 0 12Z"/><path fill-rule="evenodd" clip-rule="evenodd" d="M26 22v15a1 1 0 0 1-1 1h-2a1 1 0 0 1-1-1V22h-5a1 1 0 0 1-1-1v-2a1 1 0 0 1 1-1h14a1 1 0 0 1 1 1v2a1 1 0 0 1-1 1h-5Z"/></symbol><symbol id="anchor-center" viewBox="0 0 48 48"><path d="M16 14h16v4H16z"/><path style="fill: var(--opacity, #fff)" opacity=".3" fill-rule="evenodd" clip-rule="evenodd" d="M24 32a6 6 0 1 0 0-12 6 6 0 0 0 0 12Z"/></symbol><symbol id="anchor-left-down" viewBox="0 0 48 48"><path style="fill: var(--opacity, #fff)" opacity=".3" fill-rule="evenodd" clip-rule="evenodd" d="M10 44a6 6 0 1 0 0-12 6 6 0 0 0 0 12Z"/><path fill-rule="evenodd" clip-rule="evenodd" d="M30 14v15a1 1 0 0 1-1 1h-2a1 1 0 0 1-1-1V14h-5a1 1 0 0 1-1-1v-2a1 1 0 0 1 1-1h14a1 1 0 0 1 1 1v2a1 1 0 0 1-1 1h-5Z"/></symbol><symbol id="anchor-left-up" viewBox="0 0 48 48"><path style="fill: var(--opacity, #fff)" opacity=".3" fill-rule="evenodd" clip-rule="evenodd" d="M10 16a6 6 0 1 0 0-12 6 6 0 0 0 0 12Z"/><path fill-rule="evenodd" clip-rule="evenodd" d="M30 22v15a1 1 0 0 1-1 1h-2a1 1 0 0 1-1-1V22h-5a1 1 0 0 1-1-1v-2a1 1 0 0 1 1-1h14a1 1 0 0 1 1 1v2a1 1 0 0 1-1 1h-5Z"/></symbol><symbol id="anchor-left" viewBox="0 0 48 48"><path style="fill: var(--opacity, #fff)" opacity=".3" fill-rule="evenodd" clip-rule="evenodd" d="M10 30a6 6 0 1 0 0-12 6 6 0 0 0 0 12Z"/><path fill-rule="evenodd" clip-rule="evenodd" d="M30 18v15a1 1 0 0 1-1 1h-2a1 1 0 0 1-1-1V18h-5a1 1 0 0 1-1-1v-2a1 1 0 0 1 1-1h14a1 1 0 0 1 1 1v2a1 1 0 0 1-1 1h-5Z"/></symbol><symbol id="anchor-right-down" viewBox="0 0 48 48"><path style="fill: var(--opacity, #fff)" opacity=".3" fill-rule="evenodd" clip-rule="evenodd" d="M38 44a6 6 0 1 0 0-12 6 6 0 0 0 0 12Z"/><path fill-rule="evenodd" clip-rule="evenodd" d="M22 14v15a1 1 0 0 1-1 1h-2a1 1 0 0 1-1-1V14h-5a1 1 0 0 1-1-1v-2a1 1 0 0 1 1-1h14a1 1 0 0 1 1 1v2a1 1 0 0 1-1 1h-5Z"/></symbol><symbol id="anchor-right-up" viewBox="0 0 48 48"><path style="fill: var(--opacity, #fff)" opacity=".3" fill-rule="evenodd" clip-rule="evenodd" d="M38 16a6 6 0 1 0 0-12 6 6 0 0 0 0 12Z"/><path fill-rule="evenodd" clip-rule="evenodd" d="M22 22v15a1 1 0 0 1-1 1h-2a1 1 0 0 1-1-1V22h-5a1 1 0 0 1-1-1v-2a1 1 0 0 1 1-1h14a1 1 0 0 1 1 1v2a1 1 0 0 1-1 1h-5Z"/></symbol><symbol id="anchor-right" viewBox="0 0 48 48"><path style="fill: var(--opacity, #fff)" opacity=".3" fill-rule="evenodd" clip-rule="evenodd" d="M38 30a6 6 0 1 0 0-12 6 6 0 0 0 0 12Z"/><path fill-rule="evenodd" clip-rule="evenodd" d="M22 18v15a1 1 0 0 1-1 1h-2a1 1 0 0 1-1-1V18h-5a1 1 0 0 1-1-1v-2a1 1 0 0 1 1-1h14a1 1 0 0 1 1 1v2a1 1 0 0 1-1 1h-5Z"/></symbol><symbol id="arrows" viewBox="0 0 48 48"><path style="fill: var(--opacity, #fff)" opacity=".3" fill-rule="evenodd" clip-rule="evenodd" d="M6.515 22a1 1 0 0 0-1 1v2a1 1 0 0 0 1 1H22v18.515a1 1 0 0 0 1 1h2a1 1 0 0 0 1-1V26h18.515a1 1 0 0 0 1-1v-2a1 1 0 0 0-1-1H26V6.515a1 1 0 0 0-1-1h-2a1 1 0 0 0-1 1V22H6.515Z"/><path fill-rule="evenodd" clip-rule="evenodd" d="M19.757 11.272 24 7.03l4.243 4.243s1.414 1.414 2.828 0 0-2.828 0-2.828L24 1.373l-7.071 7.07s-1.172 1.658 0 2.83c1.172 1.17 2.828 0 2.828 0Zm-8.485 16.97L7.03 24l4.243-4.243s1.414-1.414 0-2.828-2.828 0-2.828 0L1.373 24l7.07 7.071s1.658 1.172 2.83 0c1.17-1.172 0-2.828 0-2.828Zm16.97 8.486L24 40.97l-4.243-4.242s-1.414-1.414-2.828 0 0 2.828 0 2.828L24 46.627l7.071-7.07s1.172-1.657 0-2.83c-1.172-1.17-2.828 0-2.828 0ZM40.972 24l-4.243-4.243s-1.172-1.657 0-2.828c1.172-1.172 2.828 0 2.828 0L46.627 24l-7.07 7.071s-1.415 1.414-2.83 0c-1.413-1.414 0-2.828 0-2.828L40.972 24Z"/></symbol><symbol id="bezier-curve" viewBox="0 0 48 48"><path style="fill: var(--opacity, #fff)" opacity=".3" fill-rule="evenodd" clip-rule="evenodd" d="m6.094 27.395 3.812 1.21C12.624 20.045 17.246 16 24 16a2 2 0 1 1-.003-4 2 2 0 0 1 .004 4c6.753 0 11.375 4.045 14.093 12.605l3.812-1.21C38.698 17.289 32.654 12 24 12c-8.654 0-14.698 5.289-17.906 15.395Z"/><path fill-rule="evenodd" clip-rule="evenodd" d="M24 20a6.003 6.003 0 0 0 5.659-4h6.876a4 4 0 1 0 0-4H29.66a6.003 6.003 0 0 0-11.318 0h-6.876a4 4 0 1 0 0 4h6.876c.824 2.33 3.047 4 5.659 4Zm2-6a2 2 0 1 1-4 0 2 2 0 0 1 4 0ZM8 38a6 6 0 1 0 0-12 6 6 0 0 0 0 12Zm2-6a2 2 0 1 1-4 0 2 2 0 0 1 4 0Zm30 6a6 6 0 1 0 0-12 6 6 0 0 0 0 12Zm2-6a2 2 0 1 1-4 0 2 2 0 0 1 4 0Z"/></symbol><symbol id="border" viewBox="0 0 48 48"><path fill-rule="evenodd" clip-rule="evenodd" d="M34 8H14a6 6 0 0 0-6 6v20a6 6 0 0 0 6 6h20a6 6 0 0 0 6-6V14a6 6 0 0 0-6-6Zm-22 6a2 2 0 0 1 2-2h20a2 2 0 0 1 2 2v20a2 2 0 0 1-2 2H14a2 2 0 0 1-2-2V14Z"/></symbol><symbol id="brush" viewBox="0 0 48 48"><path fill-rule="evenodd" clip-rule="evenodd" d="M27 12s-.488 6.857-3.345 9c0 0 1.345-13-2.508-17 0 0 0 7.857-3.571 14.286-1.675 3.013-3.572 5.998-3.572 10C14.004 34 20.94 36 24.01 36c3.595 0 9.99-2 9.99-9 0-4.317-7-15-7-15Z"/><path style="fill: var(--opacity, #fff)" opacity=".3" d="M16 41a1 1 0 0 1 1-1h14a1 1 0 0 1 1 1v5H16v-5Z"/></symbol><symbol id="bucket" viewBox="0 0 50 48"><path fill-rule="evenodd" clip-rule="evenodd" d="M40.385 17.757 26.243 3.615a4 4 0 0 0-5.657 0L6.444 17.757a8 8 0 0 0 0 11.314l8.485 8.485a8 8 0 0 0 11.314 0l14.142-14.142a4 4 0 0 0 0-5.657ZM9.272 20.586 23.414 6.444l14.142 14.142-3.471 3.471s-25.95 0-25.95-.032c-.011-.122-.02-.246-.028-.374a3.99 3.99 0 0 1 1.165-3.065Z"/><path style="fill: var(--opacity, #fff)" opacity=".3" fill-rule="evenodd" clip-rule="evenodd" d="M42 44a6 6 0 0 0 6-6c0-3.314-6-10-6-10s-6 6.686-6 10a6 6 0 0 0 6 6Z"/></symbol><symbol id="cap-1" viewBox="0 0 48 48"><path fill-rule="evenodd" clip-rule="evenodd" d="M8 8h32v30H26v-6.2c4.564-.927 8-4.962 8-9.8 0-5.523-4.477-10-10-10s-10 4.477-10 10c0 4.838 3.436 8.873 8 9.8V38H8V8Z"/><path style="fill: var(--opacity, #fff)" opacity=".3" fill-rule="evenodd" clip-rule="evenodd" d="M24 26a4 4 0 1 0 0-8 4 4 0 0 0 0 8Z"/></symbol><symbol id="cap-2" viewBox="0 0 48 48"><path style="fill: var(--opacity, #fff)" opacity=".3" fill-rule="evenodd" clip-rule="evenodd" d="M24 18a4 4 0 1 0 0-8 4 4 0 0 0 0 8Z"/><path fill-rule="evenodd" clip-rule="evenodd" d="M26 23.82c4.564-.834 8-4.466 8-8.82 0-.338-.02-.672-.061-1H40v24H26V23.82Zm-4 0c-4.564-.834-8-4.466-8-8.82 0-.338.02-.672.061-1H8v24h14V23.82Z"/></symbol><symbol id="cap-3" viewBox="0 0 48 48"><path fill-rule="evenodd" clip-rule="evenodd" d="M8 24c0-8.837 7.163-16 16-16s16 7.163 16 16v14H26v-6.2c4.564-.927 8-4.962 8-9.8 0-5.523-4.477-10-10-10s-10 4.477-10 10c0 4.838 3.436 8.873 8 9.8V38H8V24Z"/><path style="fill: var(--opacity, #fff)" opacity=".3" fill-rule="evenodd" clip-rule="evenodd" d="M24 26a4 4 0 1 0 0-8 4 4 0 0 0 0 8Z"/></symbol><symbol id="circle" viewBox="0 0 48 48"><path fill-rule="evenodd" clip-rule="evenodd" d="M24 40c8.837 0 16-7.163 16-16S32.837 8 24 8 8 15.163 8 24s7.163 16 16 16Z"/></symbol><symbol id="color-profile" viewBox="0 0 48 48"><path style="fill: var(--opacity, #fff)" opacity=".3" fill-rule="evenodd" clip-rule="evenodd" d="M8 30c0 5.523 4.477 10 10 10a9.956 9.956 0 0 0 6-2 9.956 9.956 0 0 0 6 2c5.523 0 10-4.477 10-10s-4.477-10-10-10a9.956 9.956 0 0 0-6 2 9.956 9.956 0 0 0-6-2c-5.523 0-10 4.477-10 10Zm18.667-4.991A9.955 9.955 0 0 1 28 30a9.953 9.953 0 0 1-1.333 4.991c.97.65 2.12 1.009 3.333 1.009a6 6 0 1 0-3.333-10.991Z"/><path fill-rule="evenodd" clip-rule="evenodd" d="M24 28c5.523 0 10-4.477 10-10S29.523 8 24 8s-10 4.477-10 10 4.477 10 10 10Z"/></symbol><symbol id="color" viewBox="0 0 48 48"><path fill-rule="evenodd" clip-rule="evenodd" d="M24 42c7.732 0 14-6.268 14-14S24 8 24 8 10 20.268 10 28c0 7.732 6.268 14 14 14Z"/></symbol><symbol id="component" viewBox="0 0 48 48"><path fill-rule="evenodd" clip-rule="evenodd" d="M24.744 6.132a1.5 1.5 0 0 0-1.488 0L8.75 14.422a1.5 1.5 0 0 0-.756 1.302v16.552a1.5 1.5 0 0 0 .756 1.302l14.506 8.29a1.5 1.5 0 0 0 1.488 0l14.507-8.29a1.5 1.5 0 0 0 .755-1.302V15.724a1.5 1.5 0 0 0-.755-1.302l-14.507-8.29ZM29 24a5 5 0 1 1-10 0 5 5 0 0 1 10 0Z"/></symbol><symbol id="crop" viewBox="0 0 48 48"><path style="fill: var(--opacity, #fff)" opacity=".3" fill-rule="evenodd" clip-rule="evenodd" d="M16 12H8a2 2 0 1 0 0 4h8v-4Zm4 4h9c2.21 0 3 .79 3 3v9h4v-9c0-4.418-2.582-7-7-7h-9v4Zm12 16h4v8a2 2 0 1 1-4 0v-8Z"/><path d="M40 32a2 2 0 1 1 0 4H19c-4.418 0-7-2.582-7-7V8a2 2 0 1 1 4 0v21c0 2.21.79 3 3 3h21Z"/></symbol><symbol id="difference" viewBox="0 0 48 48"><path fill-rule="evenodd" clip-rule="evenodd" d="M34 20v12h1.636C38.465 32 40 30.465 40 27.636V12.364C40 9.535 38.465 8 35.636 8H20.364C17.535 8 16 9.535 16 12.364V14h12a6 6 0 0 1 6 6ZM12 30V18h-1.636C7.535 18 6 19.535 6 22.364v15.272C6 40.465 7.535 42 10.364 42h15.272C28.465 42 30 40.465 30 37.636V36H18a6 6 0 0 1-6-6Z"/><path style="fill: var(--opacity, #fff)" opacity=".3" fill-rule="evenodd" clip-rule="evenodd" d="M18.546 18h8.909c1.65 0 2.545.895 2.545 2.546v8.909c0 1.65-.895 2.545-2.546 2.545h-8.909C16.896 32 16 31.105 16 29.454v-8.909c0-1.65.895-2.545 2.546-2.545Z"/></symbol><symbol id="edit" viewBox="0 0 48 48"><path d="M40.91 13.697a1.5 1.5 0 0 1 0 2.121L22.507 34.221a1.5 1.5 0 0 1-1.075.44l-9.125-.09a1.5 1.5 0 0 1-1.485-1.463l-.224-8.945a1.5 1.5 0 0 1 .439-1.099l18.56-18.56a1.5 1.5 0 0 1 2.121 0l9.192 9.193Z"/><rect style="fill: var(--opacity, #fff)" opacity=".3" x="10" y="40" width="30" height="4" rx="1"/></symbol><symbol id="eraser" viewBox="0 0 48 48"><path fill-rule="evenodd" clip-rule="evenodd" d="M28.475 7.383 9.383 26.475c-1.757 1.757-2.03 4.333-.61 5.753l8.999 9c1.42 1.42 3.996 1.146 5.753-.611l19.092-19.092c1.757-1.757 2.03-4.333.61-5.753l-8.999-9c-1.42-1.42-3.996-1.146-5.753.61Zm-8.132 30.759-8.485-8.485L17.515 24 26 32.485l-5.657 5.657Z"/></symbol><symbol id="flatten" viewBox="0 0 48 48"><path fill-rule="evenodd" clip-rule="evenodd" d="M18 42c6.627 0 12-5.373 12-12s-5.373-12-12-12S6 23.373 6 30s5.373 12 12 12Z"/><path style="fill: var(--opacity, #fff)" opacity=".3" fill-rule="evenodd" clip-rule="evenodd" d="M17.602 14.005c.133-.003.265-.005.398-.005 8.837 0 16 7.163 16 16 0 .133-.002.265-.005.397A11.995 11.995 0 0 0 40 20c0-6.627-5.373-12-12-12a11.996 11.996 0 0 0-10.398 6.005Z"/></symbol><symbol id="flip-horizontal" viewBox="0 0 48 48"><path style="fill: var(--opacity, #fff)" opacity=".3" fill-rule="evenodd" clip-rule="evenodd" d="M6.274 37.314A.5.5 0 0 0 6.74 38H17.5a.5.5 0 0 0 .5-.5V10.596c0-.55-.76-.697-.964-.185L6.274 37.314Z"/><path fill-rule="evenodd" clip-rule="evenodd" d="M41.726 37.314a.5.5 0 0 1-.465.686H30.5a.5.5 0 0 1-.5-.5V10.596c0-.55.76-.697.964-.185l10.762 26.903Z"/><rect opacity=".3" x="22" y="4" width="4" height="40" rx="1"/></symbol><symbol id="flip-vertical" viewBox="0 0 48 48"><path style="fill: var(--opacity, #fff)" opacity=".3" fill-rule="evenodd" clip-rule="evenodd" d="M10.686 6.274A.5.5 0 0 0 10 6.74V17.5a.5.5 0 0 0 .5.5h26.904c.55 0 .696-.76.185-.964L10.686 6.274Z"/><path fill-rule="evenodd" clip-rule="evenodd" d="M10.686 41.726A.5.5 0 0 1 10 41.26V30.5a.5.5 0 0 1 .5-.5h26.904c.55 0 .697.76.185.964L10.686 41.726Z"/><rect opacity=".3" x="44" y="22" width="4" height="40" rx="1" transform="rotate(90 44 22)"/></symbol><symbol id="horizontal" viewBox="0 0 48 48"><path fill-rule="evenodd" clip-rule="evenodd" d="M12 23a1 1 0 0 0-1-1H7a1 1 0 0 0-1 1v2a1 1 0 0 0 1 1h4a1 1 0 0 0 1-1v-2Zm9-1a1 1 0 0 1 1 1v2a1 1 0 0 1-1 1h-4a1 1 0 0 1-1-1v-2a1 1 0 0 1 1-1h4Zm11 1a1 1 0 0 0-1-1h-4a1 1 0 0 0-1 1v2a1 1 0 0 0 1 1h4a1 1 0 0 0 1-1v-2Zm10 0a1 1 0 0 0-1-1h-4a1 1 0 0 0-1 1v2a1 1 0 0 0 1 1h4a1 1 0 0 0 1-1v-2Z"/><path style="fill: var(--opacity, #fff)" opacity=".3" fill-rule="evenodd" clip-rule="evenodd" d="M17.04 6a.5.5 0 0 0-.39.812l6.96 8.7c.2.25.58.25.78 0l6.96-8.7A.5.5 0 0 0 30.96 6H17.04Zm13.92 36a.5.5 0 0 0 .39-.812l-6.96-8.7a.5.5 0 0 0-.78 0l-6.96 8.7a.5.5 0 0 0 .39.812h13.92Z"/></symbol><symbol id="image" viewBox="0 0 48 48"><path fill-rule="evenodd" clip-rule="evenodd" d="M6 13a3 3 0 0 1 3-3h30a3 3 0 0 1 3 3v24a3 3 0 0 1-3 3H9a3 3 0 0 1-3-3V13Zm4 21 9-12 9 12H10Zm28-12a6 6 0 1 1-12 0 6 6 0 0 1 12 0Z"/></symbol><symbol id="interselect" viewBox="0 0 48 48"><path style="fill: var(--opacity, #fff)" opacity=".3" fill-rule="evenodd" clip-rule="evenodd" d="M34 20v12h1.636C38.465 32 40 30.465 40 27.636V12.364C40 9.535 38.465 8 35.636 8H20.364C17.535 8 16 9.535 16 12.364V14h12a6 6 0 0 1 6 6ZM12 30V18h-1.636C7.535 18 6 19.535 6 22.364v15.272C6 40.465 7.535 42 10.364 42h15.272C28.465 42 30 40.465 30 37.636V36H18a6 6 0 0 1-6-6Z"/><path fill-rule="evenodd" clip-rule="evenodd" d="M18.546 18h8.909c1.65 0 2.545.895 2.545 2.546v8.909c0 1.65-.895 2.545-2.546 2.545h-8.909C16.896 32 16 31.105 16 29.454v-8.909c0-1.65.895-2.545 2.546-2.545Z"/></symbol><symbol id="join-1" viewBox="0 0 48 48"><path fill-rule="evenodd" clip-rule="evenodd" d="M10 20v-8h26v26h-8V20H10Z"/><path style="fill: var(--opacity, #fff)" opacity=".3" fill-rule="evenodd" clip-rule="evenodd" d="M16 36a4 4 0 1 0 0-8 4 4 0 0 0 0 8Z"/></symbol><symbol id="join-2" viewBox="0 0 48 48"><path fill-rule="evenodd" clip-rule="evenodd" d="M10 12h16l11 11-1 1v14h-8V28l-8-8H10v-8Z"/><path style="fill: var(--opacity, #fff)" opacity=".3" fill-rule="evenodd" clip-rule="evenodd" d="M16 36a4 4 0 1 0 0-8 4 4 0 0 0 0 8Z"/></symbol><symbol id="join-3" viewBox="0 0 48 48"><path style="fill: var(--opacity, #fff)" opacity=".3" fill-rule="evenodd" clip-rule="evenodd" d="M16 36a4 4 0 1 0 0-8 4 4 0 0 0 0 8Z"/><path d="M28.008 38h7.998c.076-9.279-2.088-16.078-6.823-20.201C24.66 13.86 18.221 11.987 10 12l.013 8c6.445-.01 11.04 1.327 13.917 3.832 2.665 2.32 4.137 7.001 4.078 14.168Z"/></symbol><symbol id="layers-1" viewBox="0 0 48 48"><rect style="fill: var(--opacity, #fff)" opacity=".3" x="12" y="10" width="32" height="24" rx="1"/><rect x="6" y="16" width="32" height="24" rx="1"/></symbol><symbol id="layers" viewBox="0 0 48 48"><path d="M23.066 32.889a1.5 1.5 0 0 0 1.868 0L38.72 21.912l1.798-1.424a1.5 1.5 0 0 0 .003-2.35L24.934 5.743a1.5 1.5 0 0 0-1.868 0l-15.591 12.4a1.5 1.5 0 0 0-.001 2.347l1.786 1.423 13.806 10.976Z"/><path style="fill: var(--opacity, #fff)" opacity=".3" fill-rule="evenodd" clip-rule="evenodd" d="M24.913 38.084a1.5 1.5 0 0 1-1.867 0L10.43 28.053a1.5 1.5 0 0 0-2.12.256l-.385.498a1.5 1.5 0 0 0 .275 2.11l14.887 11.386a1.5 1.5 0 0 0 1.822 0L39.8 30.918a1.5 1.5 0 0 0 .274-2.111l-.403-.52a1.5 1.5 0 0 0-2.12-.255L24.914 38.084Z"/></symbol><symbol id="line" viewBox="0 0 48 48"><path style="fill: var(--opacity, #fff)" opacity=".3" d="M26 18v-6c-7.909 2.976-12.423 5.987-16 14h6c1.486-1.6 3.977-6 10-8Z"/><path fill-rule="evenodd" clip-rule="evenodd" d="M36 21a6 6 0 1 0 0-12 6 6 0 0 0 0 12ZM12 42a6 6 0 1 0 0-12 6 6 0 0 0 0 12Z"/></symbol><symbol id="magic" viewBox="0 0 48 48"><path fill-rule="evenodd" clip-rule="evenodd" d="M10.1 44.385 38.386 16.1a2 2 0 0 0 0-2.829l-5.657-5.657a2 2 0 0 0-2.829 0L1.616 35.9a2 2 0 0 0 0 2.828l5.657 5.657a2 2 0 0 0 2.829 0Zm21.214-32.527 2.828 2.828-7.071 7.071-2.828-2.828 7.07-7.071Z"/><path style="fill: var(--opacity, #fff)" opacity=".3" fill-rule="evenodd" clip-rule="evenodd" d="M40 18.5a.5.5 0 0 1 .5-.5h3a.5.5 0 0 1 .5.5v3a.5.5 0 0 1-.5.5h-3a.5.5 0 0 1-.5-.5v-3Zm-6 6a.5.5 0 0 1 .5-.5h3a.5.5 0 0 1 .5.5v3a.5.5 0 0 1-.5.5h-3a.5.5 0 0 1-.5-.5v-3Zm8.5 1.5a.5.5 0 0 0-.5.5v3a.5.5 0 0 0 .5.5h3a.5.5 0 0 0 .5-.5v-3a.5.5 0 0 0-.5-.5h-3Z"/></symbol><symbol id="mask" viewBox="0 0 48 48"><path style="fill: var(--opacity, #fff)" opacity=".3" fill-rule="evenodd" clip-rule="evenodd" d="M40 24c0 8.837-7.163 16-16 16-3.187 0-6.156-.932-8.65-2.537C19.36 34.77 22 30.193 22 25c0-5.823-3.318-10.87-8.166-13.356A15.934 15.934 0 0 1 24 8c8.837 0 16 7.163 16 16Z"/><path fill-rule="evenodd" clip-rule="evenodd" d="M12.785 35.412A12.98 12.98 0 0 0 18 25c0-4.75-2.547-8.905-6.35-11.173A15.935 15.935 0 0 0 8 24c0 4.468 1.832 8.51 4.785 11.412Z"/></symbol><symbol id="patch" viewBox="0 0 48 48"><path fill-rule="evenodd" clip-rule="evenodd" d="m22.586 11.272 14.142 14.142L24 38.142 9.858 24l12.728-12.728Zm-5.657 11.314a2 2 0 1 0 2.829 2.828 2 2 0 0 0-2.83-2.828Zm5.657-5.657a2 2 0 1 0 2.828 2.828 2 2 0 0 0-2.828-2.828Zm0 11.314a2 2 0 1 0 2.828 2.828 2 2 0 0 0-2.828-2.829Zm5.657-5.657a2 2 0 1 0 2.828 2.828 2 2 0 0 0-2.828-2.828Z"/><path style="fill: var(--opacity, #fff)" opacity=".3" fill-rule="evenodd" clip-rule="evenodd" d="M21.03 40.83c-3.883 2.572-9.165 2.147-12.586-1.274-3.421-3.42-3.846-8.703-1.273-12.586l13.86 13.86ZM25.556 8.585c3.882-2.572 9.165-2.148 12.586 1.273 3.421 3.42 3.845 8.704 1.273 12.586L25.555 8.585Z"/></symbol><symbol id="pen-tool-vector" viewBox="0 0 48 48"><path fill-rule="evenodd" clip-rule="evenodd" d="M12.207 25.585a1 1 0 0 0-.024.841l5.687 13.271a.5.5 0 0 0 .46.303h11.34a.5.5 0 0 0 .46-.303l5.687-13.27a1 1 0 0 0-.024-.842L26 6v16.535a4 4 0 1 1-4 0V6l-9.793 19.585Z"/><path style="fill: var(--opacity, #fff)" opacity=".3" d="M18 43a1 1 0 0 1 1-1h10a1 1 0 0 1 1 1v3H18v-3Z"/></symbol><symbol id="pen&amp;ruller" viewBox="0 0 48 48"><path style="fill: var(--opacity, #fff)" opacity=".3" fill-rule="evenodd" clip-rule="evenodd" d="M7 6a1 1 0 0 0-1 1v5h5a1 1 0 0 1 1 1v2a1 1 0 0 1-1 1H6v4h5a1 1 0 0 1 1 1v2a1 1 0 0 1-1 1H6v4h5a1 1 0 0 1 1 1v2a1 1 0 0 1-1 1H6v7a1 1 0 0 0 1 1h14a1 1 0 0 0 1-1V7a1 1 0 0 0-1-1H7Z"/></symbol><symbol id="pencil" viewBox="0 0 48 48"><path fill-rule="evenodd" clip-rule="evenodd" d="m21 16-9 22s.106.4.165.588C12.875 40.863 16.152 42 18 42c3 0 4-4 7-4s4.183 3.969 7 4c2.816.031 6-4 6-4l-9-22h-8ZM22.6 12h4.8L25 6l-2.4 6Z"/></symbol><symbol id="picker" viewBox="0 0 48 48"><path fill-rule="evenodd" clip-rule="evenodd" d="m20.465 20.464 7.07 7.071L16.93 38.142a5 5 0 0 1-7.071-7.071l10.607-10.607Z"/><path style="fill: var(--opacity, #fff)" opacity=".3" fill-rule="evenodd" clip-rule="evenodd" d="m27.535 13.393 3.536-3.535a5 5 0 0 1 7.071 7.07l-3.535 3.536 2.12 2.122a3 3 0 0 1-4.242 4.242L21.172 15.515a3 3 0 0 1 4.242-4.243l2.121 2.121Z"/></symbol><symbol id="pixels" viewBox="0 0 48 48"><rect x="8" y="32" width="8" height="8" rx="1"/><rect x="8" y="20" width="8" height="8" rx="1"/><rect x="20" y="32" width="8" height="8" rx="1"/><rect style="fill: var(--opacity, #fff)" opacity=".3" x="20" y="20" width="8" height="8" rx="1"/><rect x="8" y="8" width="8" height="8" rx="1"/><rect x="32" y="32" width="8" height="8" rx="1"/></symbol><symbol id="polygon" viewBox="0 0 48 48"><path fill-rule="evenodd" clip-rule="evenodd" d="M13.658 38.974A1.5 1.5 0 0 0 15.081 40H32.92a1.5 1.5 0 0 0 1.423-1.026l5.33-15.99a1.5 1.5 0 0 0-.476-1.638L24.967 9.769a1.5 1.5 0 0 0-1.892-.001L8.806 21.346a1.5 1.5 0 0 0-.478 1.639l5.33 15.99Z"/></symbol><symbol id="position" viewBox="0 0 48 48"><path fill-rule="evenodd" clip-rule="evenodd" d="M36 12h-6s-2-.343-2-2 2-2 2-2h10v10s0 2-2 2-2-2-2-2v-6ZM18 36h-6v-6s0-2-2-2-2 2-2 2v10h10s2-.343 2-2-2-2-2-2Zm18-6v6h-6s-2 0-2 2 2 2 2 2h10V30s-.343-2-2-2-2 2-2 2ZM12 18v-6h6s2 0 2-2-2-2-2-2H8v10s.343 2 2 2 2-2 2-2Z"/></symbol><symbol id="rectagnle" viewBox="0 0 48 48"><rect x="8" y="8" width="32" height="32" rx="2"/></symbol><symbol id="ruller" viewBox="0 0 48 48"><path fill-rule="evenodd" clip-rule="evenodd" d="M25.414 11.272 24 9.858l2.828-2.828 4.243 4.242A2 2 0 0 0 33.9 8.444L29.657 4.2l1.414-1.414a2 2 0 0 1 2.829 0L45.213 14.1a2 2 0 0 1 0 2.828L16.93 45.213a2 2 0 0 1-2.828 0L2.787 33.9a2 2 0 0 1 0-2.829L4.2 29.657 8.444 33.9a2 2 0 0 0 2.828-2.829l-4.243-4.243L9.858 24l1.414 1.414a2 2 0 0 0 2.829-2.828l-1.415-1.414 2.829-2.829 4.242 4.243a2 2 0 0 0 2.829-2.829l-4.243-4.242 2.829-2.829 1.414 1.415a2 2 0 0 0 2.828-2.829Z"/></symbol><symbol id="saturation" viewBox="0 0 48 48"><path fill-rule="evenodd" clip-rule="evenodd" d="M10 28c0 7.732 6.268 14 14 14s14-6.268 14-14c0-5.155-4.667-11.821-14-20-9.333 8.179-14 14.845-14 20Zm14 10c-5.523 0-10-4.477-10-10 0-3.252 3.26-8.263 10-14.601C30.74 19.736 34 24.748 34 28c0 5.523-4.477 10-10 10Z"/><path fill-rule="evenodd" clip-rule="evenodd" d="M24 42c7.732 0 14-6.268 14-14S24 8 24 8v34Z"/></symbol><symbol id="select" viewBox="0 0 48 48"><path style="fill: var(--opacity, #fff)" opacity=".3" fill-rule="evenodd" clip-rule="evenodd" d="M37 16a5 5 0 1 0 0-10 5 5 0 0 0 0 10Zm0 26a5 5 0 1 0 0-10 5 5 0 0 0 0 10Zm-21-5a5 5 0 1 1-10 0 5 5 0 0 1 10 0Z"/><path fill-rule="evenodd" clip-rule="evenodd" d="M11 16a5 5 0 1 0 0-10 5 5 0 0 0 0 10Zm9-7a1 1 0 0 1 1-1h6a1 1 0 0 1 1 1v2a1 1 0 0 1-1 1h-6a1 1 0 0 1-1-1V9Zm1 27a1 1 0 0 0-1 1v2a1 1 0 0 0 1 1h6a1 1 0 0 0 1-1v-2a1 1 0 0 0-1-1h-6ZM8 21a1 1 0 0 1 1-1h2a1 1 0 0 1 1 1v6a1 1 0 0 1-1 1H9a1 1 0 0 1-1-1v-6Zm29-1a1 1 0 0 0-1 1v6a1 1 0 0 0 1 1h2a1 1 0 0 0 1-1v-6a1 1 0 0 0-1-1h-2Z"/></symbol><symbol id="sketch" viewBox="0 0 48 48"><path style="fill: var(--opacity, #fff)" opacity=".3" fill-rule="evenodd" clip-rule="evenodd" d="M10 6h28l8 10H2l8-10Z"/><path fill-rule="evenodd" clip-rule="evenodd" d="M46 16 24 40 2 16h44Z"/></symbol><symbol id="stamp" viewBox="0 0 48 48"><path fill-rule="evenodd" clip-rule="evenodd" d="M26 17.659a6 6 0 1 0-4 0V22H12a2 2 0 0 0-2 2v8h28v-8a2 2 0 0 0-2-2H26v-4.341Z"/><rect style="fill: var(--opacity, #fff)" opacity=".3" x="10" y="36" width="28" height="4" rx="1.5"/></symbol><symbol id="substract" viewBox="0 0 48 48"><path fill-rule="evenodd" clip-rule="evenodd" d="M12 18h-1.636C7.535 18 6 19.535 6 22.364v15.272C6 40.465 7.535 42 10.364 42h15.272C28.465 42 30 40.465 30 37.636V36H15a3 3 0 0 1-3-3V18Z"/><path style="fill: var(--opacity, #fff)" opacity=".3" fill-rule="evenodd" clip-rule="evenodd" d="M20.364 8h15.272C38.465 8 40 9.535 40 12.364v15.272C40 30.465 38.465 32 35.636 32H20.364C17.535 32 16 30.465 16 27.636V12.364C16 9.535 17.535 8 20.364 8Z"/></symbol><symbol id="target" viewBox="0 0 48 48"><path style="fill: var(--opacity, #fff)" opacity=".3" fill-rule="evenodd" clip-rule="evenodd" d="M22 6a2 2 0 1 1 4 0v4a2 2 0 1 1-4 0V6ZM6 22a2 2 0 1 0 0 4h4a2 2 0 1 0 0-4H6Zm32 0a2 2 0 1 0 0 4h4a2 2 0 1 0 0-4h-4ZM24 36a2 2 0 0 0-2 2v4a2 2 0 1 0 4 0v-4a2 2 0 0 0-2-2Z"/><path fill-rule="evenodd" clip-rule="evenodd" d="M24 30a6 6 0 1 0 0-12 6 6 0 0 0 0 12Z"/></symbol><symbol id="triangle" viewBox="0 0 48 48"><path fill-rule="evenodd" clip-rule="evenodd" d="M6.543 37.215a.5.5 0 0 0 .411.785h34.092a.5.5 0 0 0 .41-.785L24.412 12.594a.5.5 0 0 0-.822 0L6.543 37.215Z"/></symbol><symbol id="union" viewBox="0 0 48 48"><path fill-rule="evenodd" clip-rule="evenodd" d="M35.636 8H20.364C17.535 8 16 9.535 16 12.364V18h-5.636C7.535 18 6 19.535 6 22.364v15.272C6 40.465 7.535 42 10.364 42h15.272C28.465 42 30 40.465 30 37.636V32h5.636C38.465 32 40 30.465 40 27.636V12.364C40 9.535 38.465 8 35.636 8Z"/></symbol><symbol id="vertical" viewBox="0 0 48 48"><path fill-rule="evenodd" clip-rule="evenodd" d="M23 6a1 1 0 0 0-1 1v4a1 1 0 0 0 1 1h2a1 1 0 0 0 1-1V7a1 1 0 0 0-1-1h-2Zm0 10a1 1 0 0 0-1 1v4a1 1 0 0 0 1 1h2a1 1 0 0 0 1-1v-4a1 1 0 0 0-1-1h-2Zm-1 11a1 1 0 0 1 1-1h2a1 1 0 0 1 1 1v4a1 1 0 0 1-1 1h-2a1 1 0 0 1-1-1v-4Zm1 9a1 1 0 0 0-1 1v4a1 1 0 0 0 1 1h2a1 1 0 0 0 1-1v-4a1 1 0 0 0-1-1h-2Z"/><path style="fill: var(--opacity, #fff)" opacity=".3" fill-rule="evenodd" clip-rule="evenodd" d="M42 17.04a.5.5 0 0 0-.812-.39l-8.7 6.96a.5.5 0 0 0 0 .78l8.7 6.96a.5.5 0 0 0 .812-.39V17.04ZM6 30.96a.5.5 0 0 0 .812.39l8.7-6.96a.5.5 0 0 0 0-.78l-8.7-6.96a.5.5 0 0 0-.812.39v13.92Z"/></symbol><symbol id="zoom-minus" viewBox="0 0 48 48"><path style="fill: var(--opacity, #fff)" opacity=".3" d="M28.586 33.414a2 2 0 1 1 2.828-2.828l8 8a2 2 0 1 1-2.828 2.828l-8-8Z"/><path fill-rule="evenodd" clip-rule="evenodd" d="M8 22c0 7.732 6.268 14 14 14s14-6.268 14-14S29.732 8 22 8 8 14.268 8 22Zm24 0c0 5.523-4.477 10-10 10s-10-4.477-10-10 4.477-10 10-10 10 4.477 10 10Z"/><rect opacity=".3" x="18" y="21" width="8" height="2" rx=".5"/></symbol><symbol id="zoom-plus" viewBox="0 0 48 48"><path style="fill: var(--opacity, #fff)" opacity=".3" d="M28.586 33.414a2 2 0 1 1 2.828-2.828l8 8a2 2 0 1 1-2.828 2.828l-8-8Z"/><path fill-rule="evenodd" clip-rule="evenodd" d="M8 22c0 7.732 6.268 14 14 14s14-6.268 14-14S29.732 8 22 8 8 14.268 8 22Zm24 0c0 5.523-4.477 10-10 10s-10-4.477-10-10 4.477-10 10-10 10 4.477 10 10Z"/><path opacity=".3" fill-rule="evenodd" clip-rule="evenodd" d="M23 18.5a.5.5 0 0 0-.5-.5h-1a.5.5 0 0 0-.5.5V21h-2.5a.5.5 0 0 0-.5.5v1a.5.5 0 0 0 .5.5H21v2.5a.5.5 0 0 0 .5.5h1a.5.5 0 0 0 .5-.5V23h2.5a.5.5 0 0 0 .5-.5v-1a.5.5 0 0 0-.5-.5H23v-2.5Z"/></symbol></svg>