<?xml version="1.0" encoding="UTF-8"?><!DOCTYPE svg PUBLIC "-//W3C//DTD SVG 1.1//EN" "http://www.w3.org/Graphics/SVG/1.1/DTD/svg11.dtd"><svg xmlns="http://www.w3.org/2000/svg" xmlns:xlink="http://www.w3.org/1999/xlink"><defs/><symbol id="access_alarm" viewBox="0 0 24 24"><path d="m22 5.72-4.6-3.86-1.29 1.53 4.6 3.86zM7.88 3.39 6.6 1.86 2 5.71l1.29 1.53zM12.5 8H11v6l4.75 2.85.75-1.23-4-2.37z"/><path d="M12 20c-3.87 0-7-3.13-7-7s3.13-7 7-7 7 3.13 7 7-3.13 7-7 7zm0-16c-4.97 0-9 4.03-9 9s4.02 9 9 9a9 9 0 0 0 0-18z"/></symbol><symbol id="access_alarms" viewBox="0 0 24 24"><path d="m22 5.72-4.6-3.86-1.29 1.53 4.6 3.86zM7.88 3.39 6.6 1.86 2 5.71l1.29 1.53zM12.5 8H11v6l4.75 2.85.75-1.23-4-2.37z"/><path d="M12 20c-3.87 0-7-3.13-7-7s3.13-7 7-7 7 3.13 7 7-3.13 7-7 7zm0-16c-4.97 0-9 4.03-9 9s4.02 9 9 9a9 9 0 0 0 0-18z"/></symbol><symbol id="access_time" viewBox="0 0 24 24"><path d="M12 20c-4.42 0-8-3.58-8-8s3.58-8 8-8 8 3.58 8 8-3.58 8-8 8zm-.01-18C6.47 2 2 6.48 2 12s4.47 10 9.99 10C17.52 22 22 17.52 22 12S17.52 2 11.99 2z"/><path d="M12.5 7H11v6l5.25 3.15.75-1.23-4.5-2.67z"/></symbol><symbol id="add_alarm" viewBox="0 0 24 24"><path d="M7.88 3.39 6.6 1.86 2 5.71l1.29 1.53zM22 5.72l-4.6-3.86-1.29 1.53 4.6 3.86zM12 20c-3.87 0-7-3.13-7-7s3.13-7 7-7 7 3.13 7 7-3.13 7-7 7zm0-16c-4.97 0-9 4.03-9 9s4.02 9 9 9a9 9 0 0 0 0-18z"/><path d="M13 9h-2v3H8v2h3v3h2v-3h3v-2h-3z"/></symbol><symbol id="airplanemode_inactive" viewBox="0 0 24 24"><path d="M13 9V3.5c0-.83-.67-1.5-1.5-1.5S10 2.67 10 3.5v3.68l7.83 7.83L21 16v-2l-8-5zM3 5.27l4.99 4.99L2 14v2l8-2.5V19l-2 1.5V22l3.5-1 3.5 1v-1.5L13 19v-3.73L18.73 21 20 19.73 4.27 4 3 5.27z"/></symbol><symbol id="airplanemode_on" viewBox="0 0 24 24"><path d="M21 16v-2l-8-5V3.5c0-.83-.67-1.5-1.5-1.5S10 2.67 10 3.5V9l-8 5v2l8-2.5V19l-2 1.5V22l3.5-1 3.5 1v-1.5L13 19v-5.5z"/></symbol><symbol id="airpods" viewBox="0 0 48 48"><path style="fill: var(--opacity, #fff)" opacity=".3" fill-rule="evenodd" clip-rule="evenodd" d="M28 22.945a11.959 11.959 0 0 0 6 2.89V42a2 2 0 0 1-2 2h-2a2 2 0 0 1-2-2V22.945ZM14 25.834a11.959 11.959 0 0 0 6-2.89V42a2 2 0 0 1-2 2h-2a2 2 0 0 1-2-2V25.834Z"/><path fill-rule="evenodd" clip-rule="evenodd" d="M36 24c5.523 0 10-4.477 10-10S41.523 4 36 4 26 8.477 26 14s4.477 10 10 10Zm-8-10a1 1 0 0 1 1-1h2a1 1 0 0 1 1 1v1a1 1 0 0 1-1 1h-2a1 1 0 0 1-1-1v-1Zm13-4a1 1 0 0 0-1 1v6a1 1 0 0 0 1 1h2a1 1 0 0 0 1-1v-6a1 1 0 0 0-1-1h-2ZM12 24c5.523 0 10-4.477 10-10S17.523 4 12 4 2 8.477 2 14s4.477 10 10 10Zm4-10a1 1 0 0 1 1-1h2a1 1 0 0 1 1 1v1a1 1 0 0 1-1 1h-2a1 1 0 0 1-1-1v-1ZM5 10a1 1 0 0 0-1 1v6a1 1 0 0 0 1 1h2a1 1 0 0 0 1-1v-6a1 1 0 0 0-1-1H5Z"/></symbol><symbol id="android" viewBox="0 0 48 48"><path fill-rule="evenodd" clip-rule="evenodd" d="M32.571 4H15.43C13.535 4 12 5.79 12 8v32c0 2.21 1.535 4 3.429 4H32.57C34.465 44 36 42.21 36 40V8c0-2.21-1.535-4-3.429-4ZM15 38V8h18v30H15Z"/><path style="fill: var(--opacity, #fff)" opacity=".3" fill-rule="evenodd" clip-rule="evenodd" d="M15 8v30h18V8H15Z"/></symbol><symbol id="apple-watch" viewBox="0 0 48 48"><path style="fill: var(--opacity, #fff)" opacity=".3" d="M32.901 8.352a2 2 0 1 1-1.98 3.475A13.925 13.925 0 0 0 24 10c-7.732 0-14 6.268-14 14s6.268 14 14 14c2.439 0 4.782-.623 6.858-1.792a2 2 0 0 1 1.963 3.486A17.925 17.925 0 0 1 24 42c-9.941 0-18-8.059-18-18S14.059 6 24 6c3.163 0 6.21.818 8.901 2.352Z"/><path fill-rule="evenodd" clip-rule="evenodd" d="M35 12a3 3 0 0 0-3 3v18a3 3 0 0 0 3 3h4a3 3 0 0 0 3-3V15a3 3 0 0 0-3-3h-4Zm5 9a3 3 0 1 1-6 0 3 3 0 0 1 6 0Z"/></symbol><symbol id="battery_charging_full" viewBox="0 0 24 24"><path d="M15.67 4H14V2h-4v2H8.33C7.6 4 7 4.6 7 5.33v15.33C7 21.4 7.6 22 8.33 22h7.33c.74 0 1.34-.6 1.34-1.33V5.33C17 4.6 16.4 4 15.67 4zM11 20v-5.5H9L13 7v5.5h2L11 20z"/></symbol><symbol id="battery_full" viewBox="0 0 24 24"><path d="M15.67 4H14V2h-4v2H8.33C7.6 4 7 4.6 7 5.33v15.33C7 21.4 7.6 22 8.33 22h7.33c.74 0 1.34-.6 1.34-1.33V5.33C17 4.6 16.4 4 15.67 4z"/></symbol><symbol id="battery_std" viewBox="0 0 24 24"><path d="M15.67 4H14V2h-4v2H8.33C7.6 4 7 4.6 7 5.33v15.33C7 21.4 7.6 22 8.33 22h7.33c.74 0 1.34-.6 1.34-1.33V5.33C17 4.6 16.4 4 15.67 4z"/></symbol><symbol id="battery_unknown" viewBox="0 0 24 24"><path d="M15.67 4H14V2h-4v2H8.33C7.6 4 7 4.6 7 5.33v15.33C7 21.4 7.6 22 8.33 22h7.33c.74 0 1.34-.6 1.34-1.33V5.33C17 4.6 16.4 4 15.67 4zm-2.72 13.95h-1.9v-1.9h1.9v1.9zm1.35-5.26s-.38.42-.67.71c-.48.48-.83 1.15-.83 1.6h-1.6c0-.83.46-1.52.93-2l.93-.94A1.498 1.498 0 0 0 12 9.5c-.83 0-1.5.67-1.5 1.5H9c0-1.66 1.34-3 3-3s3 1.34 3 3c0 .66-.27 1.26-.7 1.69z"/></symbol><symbol id="battery-charging" viewBox="0 0 48 48"><path fill-rule="evenodd" clip-rule="evenodd" d="M34 14H8a4 4 0 0 0-4 4v12a4 4 0 0 0 4 4h26a4 4 0 0 0 4-4V18a4 4 0 0 0-4-4ZM8 30V18h26v12H8Z"/><path style="fill: var(--opacity, #fff)" opacity=".3" fill-rule="evenodd" clip-rule="evenodd" d="M20 28.43a.2.2 0 0 0 .356.125l3.384-4.23a.2.2 0 0 0-.156-.325H22v-4.34a.2.2 0 0 0-.366-.11l-3.427 5.14a.2.2 0 0 0 .167.31H20v3.43Z"/><path opacity=".3" d="M40 20h3a1 1 0 0 1 1 1v6a1 1 0 0 1-1 1h-3v-8Z"/></symbol><symbol id="battery-empty" viewBox="0 0 48 48"><path fill-rule="evenodd" clip-rule="evenodd" d="M34 14H8a4 4 0 0 0-4 4v12a4 4 0 0 0 4 4h26a4 4 0 0 0 4-4V18a4 4 0 0 0-4-4ZM8 30V18h26v12H8Z"/><path style="fill: var(--opacity, #fff)" opacity=".3" d="M40 20h3a1 1 0 0 1 1 1v6a1 1 0 0 1-1 1h-3v-8Z"/></symbol><symbol id="battery-full" viewBox="0 0 48 48"><rect x="4" y="14" width="34" height="20" rx="2"/><path style="fill: var(--opacity, #fff)" opacity=".3" d="M40 20h3a1 1 0 0 1 1 1v6a1 1 0 0 1-1 1h-3v-8Z"/></symbol><symbol id="battery-half" viewBox="0 0 48 48"><path fill-rule="evenodd" clip-rule="evenodd" d="M34 14H8a4 4 0 0 0-4 4v12a4 4 0 0 0 4 4h26a4 4 0 0 0 4-4V18a4 4 0 0 0-4-4ZM22 30V18h12v12H22Z"/><path style="fill: var(--opacity, #fff)" opacity=".3" d="M40 20h3a1 1 0 0 1 1 1v6a1 1 0 0 1-1 1h-3v-8Z"/></symbol><symbol id="bluetooth_connected" viewBox="0 0 24 24"><path d="M14.88 16.29 13 18.17v-3.76zM13 5.83l1.88 1.88L13 9.59zm4.71 1.88L12 2h-1v7.59L6.41 5 5 6.41 10.59 12 5 17.59 6.41 19 11 14.41V22h1l5.71-5.71-4.3-4.29z"/><path d="m19 10-2 2 2 2 2-2zM7 12l-2-2-2 2 2 2z"/></symbol><symbol id="bluetooth_disabled" viewBox="0 0 24 24"><path d="m13 5.83 1.88 1.88-1.6 1.6 1.41 1.41 3.02-3.02L12 2h-1v5.03l2 2v-3.2zM13 18.17v-3.76l1.88 1.88L13 18.17zM5.41 4 4 5.41 10.59 12 5 17.59 6.41 19 11 14.41V22h1l4.29-4.29 2.3 2.29L20 18.59 5.41 4z"/></symbol><symbol id="bluetooth_searching" viewBox="0 0 24 24"><path d="m14.24 12.01 2.32 2.32c.28-.72.44-1.51.44-2.33s-.16-1.59-.43-2.31zM19.53 6.71l-1.26 1.26c.63 1.21.98 2.57.98 4.02s-.36 2.82-.98 4.02l1.2 1.2a9.936 9.936 0 0 0 1.54-5.31c-.01-1.89-.55-3.67-1.48-5.19z"/><path d="M12.88 16.29 11 18.17v-3.76zM11 5.83l1.88 1.88L11 9.59zm4.71 1.88L10 2H9v7.59L4.41 5 3 6.41 8.59 12 3 17.59 4.41 19 9 14.41V22h1l5.71-5.71-4.3-4.29z"/></symbol><symbol id="bluetooth" viewBox="0 0 48 48"><path style="fill: var(--opacity, #fff)" opacity=".3" fill-rule="evenodd" clip-rule="evenodd" d="M12.662 17.487 20 24.09V41c0 1.544 1.674 2.505 3.008 1.728l12-7a2 2 0 0 0 .33-3.215l-20-18a2 2 0 0 0-2.676 2.974ZM24 37.518v-9.827l6.625 5.962L24 37.518Z"/><path fill-rule="evenodd" clip-rule="evenodd" d="M23.2 4.4C21.882 3.411 20 4.352 20 6v18.275l-7.295 6.201a2 2 0 0 0 2.59 3.048l20-17A2 2 0 0 0 35.2 13.4l-12-9Zm7.597 10.698L24 20.875V10l6.797 5.098Z"/></symbol><symbol id="brightness_auto" viewBox="0 0 24 24"><path d="M10.85 12.65h2.3L12 9l-1.15 3.65zM20 8.69V4h-4.69L12 .69 8.69 4H4v4.69L.69 12 4 15.31V20h4.69L12 23.31 15.31 20H20v-4.69L23.31 12 20 8.69zM14.3 16l-.7-2h-3.2l-.7 2H7.8L11 7h2l3.2 9h-1.9z"/></symbol><symbol id="brightness_high" viewBox="0 0 24 24"><path d="M12 18c-3.31 0-6-2.69-6-6s2.69-6 6-6 6 2.69 6 6-2.69 6-6 6zm8-9.31V4h-4.69L12 .69 8.69 4H4v4.69L.69 12 4 15.31V20h4.69L12 23.31 15.31 20H20v-4.69L23.31 12 20 8.69z"/><path d="M12 8c-2.21 0-4 1.79-4 4s1.79 4 4 4 4-1.79 4-4-1.79-4-4-4z"/></symbol><symbol id="brightness_low" viewBox="0 0 24 24"><path d="M20 15.31 23.31 12 20 8.69V4h-4.69L12 .69 8.69 4H4v4.69L.69 12 4 15.31V20h4.69L12 23.31 15.31 20H20v-4.69zM12 18c-3.31 0-6-2.69-6-6s2.69-6 6-6 6 2.69 6 6-2.69 6-6 6z"/></symbol><symbol id="brightness_medium" viewBox="0 0 24 24"><path d="M20 15.31 23.31 12 20 8.69V4h-4.69L12 .69 8.69 4H4v4.69L.69 12 4 15.31V20h4.69L12 23.31 15.31 20H20v-4.69zM12 18V6c3.31 0 6 2.69 6 6s-2.69 6-6 6z"/></symbol><symbol id="camera" viewBox="0 0 48 48"><path fill-rule="evenodd" clip-rule="evenodd" d="M8 14a2 2 0 0 0-2 2v20a2 2 0 0 0 2 2h32a2 2 0 0 0 2-2V16a2 2 0 0 0-2-2H8Zm8 12a8 8 0 1 0 16 0 8 8 0 0 0-16 0Z"/><rect style="fill: var(--opacity, #fff)" opacity=".3" x="18" y="8" width="12" height="4" rx="1.5"/><path opacity=".3" fill-rule="evenodd" clip-rule="evenodd" d="M24 30a4 4 0 1 0 0-8 4 4 0 0 0 0 8Z"/></symbol><symbol id="cardboard-vr" viewBox="0 0 48 48"><path style="fill: var(--opacity, #fff)" opacity=".3" d="M8 8h32v5H8z"/><path fill-rule="evenodd" clip-rule="evenodd" d="M20 24a4 4 0 1 1-8 0 4 4 0 0 1 8 0Z"/></symbol><symbol id="cassete" viewBox="0 0 48 48"><rect style="fill: var(--opacity, #fff)" opacity=".3" x="10" y="30" width="28" height="4" rx="1"/><path fill-rule="evenodd" clip-rule="evenodd" d="M4 25a9 9 0 1 0 18 0 9 9 0 0 0-18 0Zm14 0a5 5 0 1 1-10 0 5 5 0 0 1 10 0ZM26 25a9 9 0 1 0 18 0 9 9 0 0 0-18 0Zm14 0a5 5 0 1 1-10 0 5 5 0 0 1 10 0Z"/></symbol><symbol id="cpu" viewBox="0 0 48 48"><rect style="fill: var(--opacity, #fff)" opacity=".3" x="8" y="8" width="32" height="32" rx="2"/><path opacity=".3" d="M18 18h12v12H18z"/><path d="M40 14h3a1 1 0 0 1 1 1v2a1 1 0 0 1-1 1h-3v-4ZM40 22h3a1 1 0 0 1 1 1v2a1 1 0 0 1-1 1h-3v-4ZM40 30h3a1 1 0 0 1 1 1v2a1 1 0 0 1-1 1h-3v-4ZM4 15a1 1 0 0 1 1-1h3v4H5a1 1 0 0 1-1-1v-2ZM4 23a1 1 0 0 1 1-1h3v4H5a1 1 0 0 1-1-1v-2ZM4 31a1 1 0 0 1 1-1h3v4H5a1 1 0 0 1-1-1v-2Z"/></symbol><symbol id="cpu#2" viewBox="0 0 48 48"><rect style="fill: var(--opacity, #fff)" opacity=".3" x="6" y="6" width="36" height="36" rx="1"/><path opacity=".3" fill-rule="evenodd" clip-rule="evenodd" d="M28 18h-8a2 2 0 0 0-2 2v8a2 2 0 0 0 2 2h8a2 2 0 0 0 2-2v-8a2 2 0 0 0-2-2Zm-6 8v-4h4v4h-4Z"/><rect opacity=".3" x="10" y="10" width="4" height="4" rx=".5"/><rect opacity=".3" x="10" y="18" width="4" height="4" rx=".5"/><rect opacity=".3" x="10" y="26" width="4" height="4" rx=".5"/><rect opacity=".3" x="18" y="10" width="4" height="4" rx=".5"/><rect opacity=".3" x="26" y="10" width="4" height="4" rx=".5"/><rect opacity=".3" x="34" y="10" width="4" height="4" rx=".5"/><rect opacity=".3" x="34" y="18" width="4" height="4" rx=".5"/><rect opacity=".3" x="34" y="26" width="4" height="4" rx=".5"/><rect opacity=".3" x="10" y="34" width="4" height="4" rx=".5"/><rect opacity=".3" x="18" y="34" width="4" height="4" rx=".5"/><rect opacity=".3" x="26" y="34" width="4" height="4" rx=".5"/><rect opacity=".3" x="34" y="34" width="4" height="4" rx=".5"/></symbol><symbol id="data_usage" viewBox="0 0 24 24"><path d="M13 2.05v3.03c3.39.49 6 3.39 6 6.92 0 .9-.18 1.75-.48 2.54l2.6 1.53c.56-1.24.88-2.62.88-4.07 0-5.18-3.95-9.45-9-9.95zM12 19c-3.87 0-7-3.13-7-7 0-3.53 2.61-6.43 6-6.92V2.05c-5.06.5-9 4.76-9 9.95 0 5.52 4.47 10 9.99 10 3.31 0 6.24-1.61 8.06-4.09l-2.6-1.53A6.95 6.95 0 0 1 12 19z"/></symbol><symbol id="developer_mode" viewBox="0 0 24 24"><path d="M7 5h10v2h2V3c0-1.1-.9-1.99-2-1.99L7 1c-1.1 0-2 .9-2 2v4h2V5zM15.41 16.59 20 12l-4.59-4.59L14 8.83 17.17 12 14 15.17l1.41 1.42zM10 15.17 6.83 12 10 8.83 8.59 7.41 4 12l4.59 4.59L10 15.17zM17 19H7v-2H5v4c0 1.1.9 2 2 2h10c1.1 0 2-.9 2-2v-4h-2v2z"/></symbol><symbol id="devices" viewBox="0 0 24 24"><path d="M4 6h18V4H4c-1.1 0-2 .9-2 2v11H0v3h14v-3H4V6z"/><path d="M22 17h-4v-7h4v7zm1-9h-6c-.55 0-1 .45-1 1v10c0 .55.45 1 1 1h6c.55 0 1-.45 1-1V9c0-.55-.45-1-1-1z"/></symbol><symbol id="diagnostics" viewBox="0 0 48 48"><rect style="fill: var(--opacity, #fff)" opacity=".3" x="4" y="6" width="40" height="36" rx="2"/><path d="M19.897 26.632A2 2 0 0 1 18 28h-8a2 2 0 0 1 0-4h6.558l3.545-10.633c.632-1.898 3.352-1.793 3.837.148L27.63 28.27l1.582-3.165A2 2 0 0 1 31 24h7a2 2 0 1 1 0 4h-5.764l-3.447 6.894c-.83 1.661-3.279 1.392-3.73-.409l-3.334-13.337-1.828 5.484Z"/><path opacity=".3" fill-rule="evenodd" clip-rule="evenodd" d="M38 14a2 2 0 1 0 0-4 2 2 0 0 0 0 4Z"/></symbol><symbol id="display#1" viewBox="0 0 48 48"><path style="fill: var(--opacity, #fff)" opacity=".3" fill-rule="evenodd" clip-rule="evenodd" d="M23 32a1 1 0 0 0-1 1v7h-5.5a.5.5 0 0 0-.5.5v1a.5.5 0 0 0 .5.5h15a.5.5 0 0 0 .5-.5v-1a.5.5 0 0 0-.5-.5H26v-7a1 1 0 0 0-1-1h-2Z"/><path fill-rule="evenodd" clip-rule="evenodd" d="M4 11a1 1 0 0 1 1-1h38a1 1 0 0 1 1 1v22a1 1 0 0 1-1 1H5a1 1 0 0 1-1-1V11Zm4 6a1 1 0 0 1 1-1h18a1 1 0 1 1 0 2H9a1 1 0 0 1-1-1Zm1 3a1 1 0 1 0 0 2h6a1 1 0 1 0 0-2H9Z"/></symbol><symbol id="display#2" viewBox="0 0 48 48"><path style="fill: var(--opacity, #fff)" opacity=".3" fill-rule="evenodd" clip-rule="evenodd" d="M12 14v16h24V14H12ZM23 30a1 1 0 0 0-1 1v7h-3a1 1 0 1 0 0 2h10a1 1 0 1 0 0-2h-3v-7a1 1 0 0 0-1-1h-2Z"/><path fill-rule="evenodd" clip-rule="evenodd" d="M36 10H12a4 4 0 0 0-4 4v16a4 4 0 0 0 4 4h24a4 4 0 0 0 4-4V14a4 4 0 0 0-4-4ZM12 30V14h24v16H12Z"/></symbol><symbol id="display#3" viewBox="0 0 48 48"><path style="fill: var(--opacity, #fff)" opacity=".3" fill-rule="evenodd" clip-rule="evenodd" d="M10 14v16h28V14H10ZM23 30a1 1 0 0 0-1 1v7h-3a1 1 0 1 0 0 2h10a1 1 0 1 0 0-2h-3v-7a1 1 0 0 0-1-1h-2Z"/><path fill-rule="evenodd" clip-rule="evenodd" d="M37.5 10h-27C8.015 10 6 11.79 6 14v16c0 2.21 2.015 4 4.5 4h27c2.485 0 4.5-1.79 4.5-4V14c0-2.21-2.015-4-4.5-4ZM10 30V14h28v16H10Z"/></symbol><symbol id="dvr" viewBox="0 0 24 24"><path d="M21 17H3V5h18v12zm0-14H3c-1.1 0-2 .9-2 2v12c0 1.1.9 2 2 2h5v2h8v-2h5c1.1 0 1.99-.9 1.99-2L23 5c0-1.1-.9-2-2-2z"/><path d="M7 8H5v2h2V8zm12 0H8v2h11V8zM7 12H5v2h2v-2zm12 0H8v2h11v-2z"/></symbol><symbol id="gameboy" viewBox="0 0 48 48"><path style="fill: var(--opacity, #fff)" opacity=".3" fill-rule="evenodd" clip-rule="evenodd" d="M23 18a1 1 0 0 0-1 1v13H8a2 2 0 0 0-2 2v6a2 2 0 0 0 2 2h32a2 2 0 0 0 2-2v-6a2 2 0 0 0-2-2H26V19a1 1 0 0 0-1-1h-2Z"/><path fill-rule="evenodd" clip-rule="evenodd" d="M24 20a6 6 0 1 0 0-12 6 6 0 0 0 0 12Z"/></symbol><symbol id="gamepad#1" viewBox="0 0 48 48"><path style="fill: var(--opacity, #fff)" opacity=".3" d="m25.897 18.633-3.794-1.265c1.53-4.589 3.982-7.45 7.412-8.308C31.3 8.613 34 5.739 34 4h4c0 3.594-3.967 8.053-7.515 8.94-1.904.476-3.45 2.28-4.588 5.693Z"/><path fill-rule="evenodd" clip-rule="evenodd" d="M26.514 34h-5.028c-2.018 2.443-5.07 4-8.486 4-6.075 0-11-4.925-11-11 0-4.918 3.227-9.082 7.68-10.49A3.484 3.484 0 0 1 11.5 16h25c.667 0 1.29.186 1.82.51C42.773 17.918 46 22.082 46 27c0 6.075-4.925 11-11 11a10.978 10.978 0 0 1-8.486-4ZM10 20.5a.5.5 0 0 1 .5-.5h3a.5.5 0 0 1 .5.5v3a.5.5 0 0 1-.5.5h-3a.5.5 0 0 1-.5-.5v-3Zm4.5 3.5a.5.5 0 0 0-.5.5v3a.5.5 0 0 0 .5.5h3a.5.5 0 0 0 .5-.5v-3a.5.5 0 0 0-.5-.5h-3ZM38 24a2 2 0 1 0 0-4 2 2 0 0 0 0 4Zm0 4a2 2 0 1 1-4 0 2 2 0 0 1 4 0Zm-28 .5a.5.5 0 0 1 .5-.5h3a.5.5 0 0 1 .5.5v3a.5.5 0 0 1-.5.5h-3a.5.5 0 0 1-.5-.5v-3ZM6.5 24a.5.5 0 0 0-.5.5v3a.5.5 0 0 0 .5.5h3a.5.5 0 0 0 .5-.5v-3a.5.5 0 0 0-.5-.5h-3Z"/></symbol><symbol id="gamepad#2" viewBox="0 0 52 48"><path style="fill: var(--opacity, #fff)" opacity=".3" d="m27.897 16.633-3.794-1.265c1.53-4.589 3.982-7.45 7.412-8.308C33.3 6.613 36 3.739 36 2h4c0 3.594-3.967 8.053-7.515 8.94-1.904.476-3.45 2.28-4.588 5.693Z"/><path fill-rule="evenodd" clip-rule="evenodd" d="M17.497 12.041a3 3 0 0 0-4.098 1.098L1.322 34.056a3 3 0 0 0 1.098 4.098l10.638 6.142a3 3 0 0 0 4.098-1.098L22.467 34h7.38l5.313 9.203a3 3 0 0 0 4.098 1.098l10.407-6.009a3 3 0 0 0 1.098-4.098L38.658 13.227a3 3 0 0 0-4.098-1.098L31.32 14H20.89l-3.392-1.958ZM22 24a4 4 0 1 1-8 0 4 4 0 0 1 8 0Zm14 0a2 2 0 1 0 0-4 2 2 0 0 0 0 4Zm-2 2a2 2 0 1 1-4 0 2 2 0 0 1 4 0Z"/></symbol><symbol id="generator" viewBox="0 0 48 48"><rect style="fill: var(--opacity, #fff)" opacity=".3" x="4" y="12" width="40" height="28" rx="2"/><path fill-rule="evenodd" clip-rule="evenodd" d="M9 8a1 1 0 0 0-1 1v3h8V9a1 1 0 0 0-1-1H9Zm24 0a1 1 0 0 0-1 1v3h8V9a1 1 0 0 0-1-1h-6ZM14 31a1 1 0 0 0 1 1h2a1 1 0 0 0 1-1v-3h3a1 1 0 0 0 1-1v-2a1 1 0 0 0-1-1h-3v-3a1 1 0 0 0-1-1h-2a1 1 0 0 0-1 1v3h-3a1 1 0 0 0-1 1v2a1 1 0 0 0 1 1h3v3Z"/><rect x="28" y="24" width="8" height="4" rx="1"/></symbol><symbol id="gps_fixed" viewBox="0 0 24 24"><path d="M12 8c-2.21 0-4 1.79-4 4s1.79 4 4 4 4-1.79 4-4-1.79-4-4-4z"/><path d="M12 19c-3.87 0-7-3.13-7-7s3.13-7 7-7 7 3.13 7 7-3.13 7-7 7zm8.94-8A8.994 8.994 0 0 0 13 3.06V1h-2v2.06A8.994 8.994 0 0 0 3.06 11H1v2h2.06A8.994 8.994 0 0 0 11 20.94V23h2v-2.06A8.994 8.994 0 0 0 20.94 13H23v-2h-2.06z"/></symbol><symbol id="gps_not_fixed" viewBox="0 0 24 24"><path d="M20.94 11A8.994 8.994 0 0 0 13 3.06V1h-2v2.06A8.994 8.994 0 0 0 3.06 11H1v2h2.06A8.994 8.994 0 0 0 11 20.94V23h2v-2.06A8.994 8.994 0 0 0 20.94 13H23v-2h-2.06zM12 19c-3.87 0-7-3.13-7-7s3.13-7 7-7 7 3.13 7 7-3.13 7-7 7z"/></symbol><symbol id="gps_off" viewBox="0 0 24 24"><path d="M20.94 11A8.994 8.994 0 0 0 13 3.06V1h-2v2.06c-1.13.12-2.19.46-3.16.97l1.5 1.5A6.995 6.995 0 0 1 19 12c0 .94-.19 1.84-.52 2.65l1.5 1.5c.5-.96.84-2.02.97-3.15H23v-2h-2.06zM16.27 17.54a6.995 6.995 0 0 1-9.81-9.81l9.81 9.81zM3 4.27l2.04 2.04A8.914 8.914 0 0 0 3.06 11H1v2h2.06A8.994 8.994 0 0 0 11 20.94V23h2v-2.06c1.77-.2 3.38-.91 4.69-1.98L19.73 21 21 19.73 4.27 3 3 4.27z"/></symbol><symbol id="graphic_eq" viewBox="0 0 24 24"><path d="M7 18h2V6H7zM11 22h2V2h-2zM3 14h2v-4H3zM15 18h2V6h-2zM19 10v4h2v-4z"/></symbol><symbol id="hard-drive" viewBox="0 0 48 48"><path fill-rule="evenodd" clip-rule="evenodd" d="M4 26h40v12a2 2 0 0 1-2 2H6a2 2 0 0 1-2-2V26Zm33 10a3 3 0 1 0 0-6 3 3 0 0 0 0 6Zm-7-3a3 3 0 1 1-6 0 3 3 0 0 1 6 0Z"/><path style="fill: var(--opacity, #fff)" opacity=".3" d="M4 17a1 1 0 0 1 1-1h38a1 1 0 0 1 1 1v9H4v-9Z"/></symbol><symbol id="headphones" viewBox="0 0 48 48"><path style="fill: var(--opacity, #fff)" opacity=".3" fill-rule="evenodd" clip-rule="evenodd" d="M38 32h4v-8c0-9.941-8.059-18-18-18S6 14.059 6 24v8h4v-8c0-7.732 6.268-14 14-14s14 6.268 14 14v8Z"/><path fill-rule="evenodd" clip-rule="evenodd" d="M8 28a2 2 0 0 0-2 2v10a2 2 0 0 0 2 2h6a2 2 0 0 0 2-2V30a2 2 0 0 0-2-2H8Zm26 0a2 2 0 0 0-2 2v10a2 2 0 0 0 2 2h6a2 2 0 0 0 2-2V30a2 2 0 0 0-2-2h-6Z"/></symbol><symbol id="homepod" viewBox="0 0 48 48"><path style="fill: var(--opacity, #fff)" opacity=".3" fill-rule="evenodd" clip-rule="evenodd" d="M12 8c0 3.314 5.373 6 12 6s12-2.686 12-6c0-.637-.199-1.251-.567-1.828A6.002 6.002 0 0 1 40 12v26a6 6 0 0 1-6 6H14a6 6 0 0 1-6-6V12a6.002 6.002 0 0 1 4.567-5.828C12.199 6.75 12 7.362 12 8Z"/><path fill-rule="evenodd" clip-rule="evenodd" d="M30.696 7.335C29.047 6.51 26.633 6 24 6c-2.634 0-5.047.51-6.696 1.335A5.42 5.42 0 0 0 16.25 8c.248.21.602.44 1.054.665C18.953 9.49 21.367 10 24 10c2.634 0 5.047-.51 6.696-1.335A5.423 5.423 0 0 0 31.75 8a5.423 5.423 0 0 0-1.054-.665Z"/></symbol><symbol id="imac" viewBox="0 0 48 48"><path fill-rule="evenodd" clip-rule="evenodd" d="M10 6h28c2.84 0 4 1.433 4 3.2v25.6c0 1.767-1.16 3.2-4 3.2H10c-2.84 0-4-1.433-4-3.2V9.2C6 7.433 7.16 6 10 6Zm0 4v22h28V10H10Zm15 25a1 1 0 1 1-2 0 1 1 0 0 1 2 0Z"/><path style="fill: var(--opacity, #fff)" opacity=".3" fill-rule="evenodd" clip-rule="evenodd" d="M10 10v22h28V10H10Z"/><rect opacity=".3" x="20" y="40" width="8" height="2" rx=".5"/></symbol><symbol id="iphone-back" viewBox="0 0 48 48"><path fill-rule="evenodd" clip-rule="evenodd" d="M14 4a2 2 0 0 0-2 2v36a2 2 0 0 0 2 2h20a2 2 0 0 0 2-2V6a2 2 0 0 0-2-2H14Zm1 2a1 1 0 0 0-1 1v2a1 1 0 0 0 1 1h6a1 1 0 0 0 1-1V7a1 1 0 0 0-1-1h-6Z"/></symbol><symbol id="iphone-x-back" viewBox="0 0 48 48"><path fill-rule="evenodd" clip-rule="evenodd" d="M14 4a2 2 0 0 0-2 2v36a2 2 0 0 0 2 2h20a2 2 0 0 0 2-2V6a2 2 0 0 0-2-2H14Zm1 2a1 1 0 0 0-1 1v6a1 1 0 0 0 1 1h2a1 1 0 0 0 1-1V7a1 1 0 0 0-1-1h-2Z"/></symbol><symbol id="iphone-x" viewBox="0 0 48 48"><path style="fill: var(--opacity, #fff)" opacity=".3" fill-rule="evenodd" clip-rule="evenodd" d="M16 5a2.5 2.5 0 0 0-2.5 2.5v33A2.5 2.5 0 0 0 16 43h16a2.5 2.5 0 0 0 2.5-2.5v-33A2.5 2.5 0 0 0 32 5H16Z"/><path fill-rule="evenodd" clip-rule="evenodd" d="M16 2h16a5.5 5.5 0 0 1 5.5 5.5v33A5.5 5.5 0 0 1 32 46H16a5.5 5.5 0 0 1-5.5-5.5v-33A5.5 5.5 0 0 1 16 2Zm0 3a2.5 2.5 0 0 0-2.5 2.5v33A2.5 2.5 0 0 0 16 43h16a2.5 2.5 0 0 0 2.5-2.5v-33A2.5 2.5 0 0 0 32 5h-2V4a.5.5 0 0 0-.5-.5h-11a.5.5 0 0 0-.5.5v1h-2Zm2 0v2a.5.5 0 0 0 .5.5h11A.5.5 0 0 0 30 7V5H18Z"/></symbol><symbol id="iphone" viewBox="0 0 48 48"><path fill-rule="evenodd" clip-rule="evenodd" d="M32.333 2H15.667C12.854 2 11.5 3.962 11.5 7v34c0 3.038 1.354 5 4.167 5h16.666c2.813 0 4.167-1.962 4.167-5V7c0-3.038-1.354-5-4.167-5ZM14.278 38V8h19.444v30H14.278Z"/><path style="fill: var(--opacity, #fff)" opacity=".3" fill-rule="evenodd" clip-rule="evenodd" d="M14 8v30h20V8H14Z"/><path fill-rule="evenodd" clip-rule="evenodd" d="M24 44a2 2 0 1 0 0-4 2 2 0 0 0 0 4Z"/></symbol><symbol id="keyboard" viewBox="0 0 48 48"><path style="fill: var(--opacity, #fff)" opacity=".3" d="m23.897 16.633-3.794-1.265c1.53-4.589 3.982-7.45 7.412-8.308C29.301 6.613 32 3.739 32 2h4c0 3.594-3.967 8.053-7.515 8.94-1.904.476-3.45 2.28-4.588 5.693Z"/><path fill-rule="evenodd" clip-rule="evenodd" d="M2 16a2 2 0 0 1 2-2h40a2 2 0 0 1 2 2v24a2 2 0 0 1-2 2H4a2 2 0 0 1-2-2V16Zm12 2.5a.5.5 0 0 1 .5-.5h3a.5.5 0 0 1 .5.5v3a.5.5 0 0 1-.5.5h-3a.5.5 0 0 1-.5-.5v-3ZM6.5 18a.5.5 0 0 0-.5.5v3a.5.5 0 0 0 .5.5h3a.5.5 0 0 0 .5-.5v-3a.5.5 0 0 0-.5-.5h-3Zm3.5 8.5a.5.5 0 0 1 .5-.5h3a.5.5 0 0 1 .5.5v3a.5.5 0 0 1-.5.5h-3a.5.5 0 0 1-.5-.5v-3Zm8.5-.5a.5.5 0 0 0-.5.5v3a.5.5 0 0 0 .5.5h3a.5.5 0 0 0 .5-.5v-3a.5.5 0 0 0-.5-.5h-3Zm7.5.5a.5.5 0 0 1 .5-.5h3a.5.5 0 0 1 .5.5v3a.5.5 0 0 1-.5.5h-3a.5.5 0 0 1-.5-.5v-3Zm8.5-.5a.5.5 0 0 0-.5.5v3a.5.5 0 0 0 .5.5h3a.5.5 0 0 0 .5-.5v-3a.5.5 0 0 0-.5-.5h-3ZM22 18.5a.5.5 0 0 1 .5-.5h3a.5.5 0 0 1 .5.5v3a.5.5 0 0 1-.5.5h-3a.5.5 0 0 1-.5-.5v-3ZM10.5 34a.5.5 0 0 0-.5.5v3a.5.5 0 0 0 .5.5h27a.5.5 0 0 0 .5-.5v-3a.5.5 0 0 0-.5-.5h-27ZM30 18.5a.5.5 0 0 1 .5-.5h3a.5.5 0 0 1 .5.5v3a.5.5 0 0 1-.5.5h-3a.5.5 0 0 1-.5-.5v-3Zm8.5-.5a.5.5 0 0 0-.5.5v3a.5.5 0 0 0 .5.5h3a.5.5 0 0 0 .5-.5v-3a.5.5 0 0 0-.5-.5h-3Z"/></symbol><symbol id="laptop-macbook" viewBox="0 0 48 48"><path d="M8 13a1 1 0 0 1 1-1h30a1 1 0 0 1 1 1v21H8V13Z"/><rect style="fill: var(--opacity, #fff)" opacity=".3" x="2" y="36" width="44" height="2" rx=".5"/></symbol><symbol id="laptop" viewBox="0 0 48 48"><path fill-rule="evenodd" clip-rule="evenodd" d="M12 12h24a4 4 0 0 1 4 4v16h4.226a1 1 0 0 1 1 1v2a1 1 0 0 1-1 1H3.775a1 1 0 0 1-1-1v-2a1 1 0 0 1 1-1H8V16a4 4 0 0 1 4-4Zm0 20h24V16H12v16Z"/><path style="fill: var(--opacity, #fff)" opacity=".3" fill-rule="evenodd" clip-rule="evenodd" d="M12 16v16h24V16H12Z"/></symbol><symbol id="location_disabled" viewBox="0 0 24 24"><path d="M20.94 11A8.994 8.994 0 0 0 13 3.06V1h-2v2.06c-1.13.12-2.19.46-3.16.97l1.5 1.5A6.995 6.995 0 0 1 19 12c0 .94-.19 1.84-.52 2.65l1.5 1.5c.5-.96.84-2.02.97-3.15H23v-2h-2.06zM16.27 17.54a6.995 6.995 0 0 1-9.81-9.81l9.81 9.81zM3 4.27l2.04 2.04A8.914 8.914 0 0 0 3.06 11H1v2h2.06A8.994 8.994 0 0 0 11 20.94V23h2v-2.06c1.77-.2 3.38-.91 4.69-1.98L19.73 21 21 19.73 4.27 3 3 4.27z"/></symbol><symbol id="location_searching" viewBox="0 0 24 24"><path d="M20.94 11A8.994 8.994 0 0 0 13 3.06V1h-2v2.06A8.994 8.994 0 0 0 3.06 11H1v2h2.06A8.994 8.994 0 0 0 11 20.94V23h2v-2.06A8.994 8.994 0 0 0 20.94 13H23v-2h-2.06zM12 19c-3.87 0-7-3.13-7-7s3.13-7 7-7 7 3.13 7 7-3.13 7-7 7z"/></symbol><symbol id="lte#1" viewBox="0 0 48 48"><path style="fill: var(--opacity, #fff)" opacity=".3" fill-rule="evenodd" clip-rule="evenodd" d="m14.512 37.858-2.554 3.078A21.955 21.955 0 0 1 4 24a21.954 21.954 0 0 1 7.938-16.92l2.558 3.075A17.955 17.955 0 0 0 8 24a17.955 17.955 0 0 0 6.512 13.858Zm18.976 0 2.554 3.078A21.955 21.955 0 0 0 44 24a21.954 21.954 0 0 0-7.938-16.92l-2.558 3.075A17.955 17.955 0 0 1 40 24a17.955 17.955 0 0 1-6.512 13.858Zm-5.131-6.138 2.545 3.086A13.973 13.973 0 0 0 36 24c0-4.22-1.882-8.139-5.068-10.78l-2.553 3.078A9.973 9.973 0 0 1 32 24a9.974 9.974 0 0 1-3.643 7.72Zm-11.259 3.086 2.545-3.086A9.974 9.974 0 0 1 16 24a9.973 9.973 0 0 1 3.621-7.702l-2.553-3.079A13.973 13.973 0 0 0 12 24c0 4.235 1.894 8.164 5.098 10.806Z"/><path fill-rule="evenodd" clip-rule="evenodd" d="M24 28a4 4 0 1 0 0-8 4 4 0 0 0 0 8Z"/></symbol><symbol id="lte#2" viewBox="0 0 48 48"><path style="fill: var(--opacity, #fff)" opacity=".3" fill-rule="evenodd" clip-rule="evenodd" d="m12.512 37.858-2.554 3.078A21.955 21.955 0 0 1 2 24 21.954 21.954 0 0 1 9.938 7.08l2.558 3.075A17.955 17.955 0 0 0 6 24a17.955 17.955 0 0 0 6.512 13.858Zm22.976 0 2.554 3.078A21.955 21.955 0 0 0 46 24a21.954 21.954 0 0 0-7.938-16.92l-2.558 3.075A17.955 17.955 0 0 1 42 24a17.955 17.955 0 0 1-6.512 13.858Zm-5.131-6.138 2.545 3.086A13.973 13.973 0 0 0 38 24c0-4.22-1.882-8.139-5.068-10.78l-2.553 3.078A9.973 9.973 0 0 1 34 24a9.974 9.974 0 0 1-3.643 7.72Zm-15.259 3.086 2.545-3.086A9.974 9.974 0 0 1 14 24a9.973 9.973 0 0 1 3.621-7.702l-2.553-3.079A13.973 13.973 0 0 0 10 24c0 4.235 1.894 8.164 5.098 10.806Z"/><path fill-rule="evenodd" clip-rule="evenodd" d="M26 28.584A5.001 5.001 0 0 0 24 19a5 5 0 0 0-2 9.584V41a1 1 0 0 0 1 1h2a1 1 0 0 0 1-1V28.584Z"/></symbol><symbol id="mic" viewBox="0 0 48 48"><path fill-rule="evenodd" clip-rule="evenodd" d="M24 32c-5.523 0-10-4.477-10-10h-4c0 7.053 5.215 12.888 12 13.858V43a1 1 0 0 0 1 1h2a1 1 0 0 0 1-1v-7.142c6.785-.97 12-6.805 12-13.858h-4c0 5.523-4.477 10-10 10Z"/><rect style="fill: var(--opacity, #fff)" opacity=".3" x="18" y="4" width="12" height="24" rx="3.5"/></symbol><symbol id="mouse" viewBox="0 0 48 48"><rect style="fill: var(--opacity, #fff)" opacity=".3" x="12" y="10" width="24" height="36" rx="6"/><path d="M22 4.5a.5.5 0 0 1 .5-.5h3a.5.5 0 0 1 .5.5V10h-4V4.5Z"/><rect x="22" y="32" width="4" height="10" rx="1"/></symbol><symbol id="network_cell" viewBox="0 0 24 24"><path fill-style="fill: var(--opacity, #fff)" opacity=".3" d="M2 22h20V2z"/><path d="M17 7 2 22h15z"/></symbol><symbol id="network_wifi" viewBox="0 0 24 24"><path d="M12.01 21.49 23.64 7c-.45-.34-4.93-4-11.64-4C5.28 3 .81 6.66.36 7l11.63 14.49.01.01z" fill-style="fill: var(--opacity, #fff)" opacity=".3"/><path d="m3.53 10.95 8.46 10.54.01.01.01-.01 8.46-10.54C20.04 10.62 16.81 8 12 8s-8.04 2.62-8.47 2.95z"/></symbol><symbol id="nfc" viewBox="0 0 24 24"><path d="M20 20H4V4h16v16zm0-18H4c-1.1 0-2 .9-2 2v16c0 1.1.9 2 2 2h16c1.1 0 2-.9 2-2V4c0-1.1-.9-2-2-2z"/><path d="M18 6h-5c-1.1 0-2 .9-2 2v2.28c-.6.35-1 .98-1 1.72 0 1.1.9 2 2 2s2-.9 2-2c0-.74-.4-1.38-1-1.72V8h3v8H8V8h2V6H6v12h12V6z"/></symbol><symbol id="printer" viewBox="0 0 48 48"><path fill-rule="evenodd" clip-rule="evenodd" d="M8 12a2 2 0 0 0-2 2v18a2 2 0 0 0 2 2h8v9a1 1 0 0 0 1 1h14a1 1 0 0 0 1-1v-9h8a2 2 0 0 0 2-2V14a2 2 0 0 0-2-2H8Zm27 10a3 3 0 1 0 0-6 3 3 0 0 0 0 6Zm-7 6h-8v12h8V28Z"/><rect style="fill: var(--opacity, #fff)" opacity=".3" x="16" y="4" width="16" height="4" rx="2"/></symbol><symbol id="radio" viewBox="0 0 48 48"><path style="fill: var(--opacity, #fff)" opacity=".3" fill-rule="evenodd" clip-rule="evenodd" d="M6 14a2 2 0 0 0-2 2v24a2 2 0 0 0 2 2h36a2 2 0 0 0 2-2V16a2 2 0 0 0-2-2H6Zm18 14a8 8 0 1 0 16 0 8 8 0 0 0-16 0Z"/><path fill-rule="evenodd" clip-rule="evenodd" d="M41.206 14a1.995 1.995 0 0 0-.983-1.333L17.976.253a2 2 0 1 0-1.95 3.494L34.404 14h6.803ZM32 32a4 4 0 1 0 0-8 4 4 0 0 0 0 8Z"/><rect opacity=".3" x="8" y="22" width="10" height="4" rx="1"/><rect opacity=".3" x="8" y="30" width="10" height="4" rx="1"/></symbol><symbol id="router#1" viewBox="0 0 48 48"><path fill-rule="evenodd" clip-rule="evenodd" d="M31 18a1 1 0 0 0-1 1v11H6a2 2 0 0 0-2 2v8a2 2 0 0 0 2 2h36a2 2 0 0 0 2-2v-8a2 2 0 0 0-2-2h-8V19a1 1 0 0 0-1-1h-2ZM8 35a1 1 0 0 1 1-1h12a1 1 0 0 1 1 1v2a1 1 0 0 1-1 1H9a1 1 0 0 1-1-1v-2Z"/><path style="fill: var(--opacity, #fff)" opacity=".3" fill-rule="evenodd" clip-rule="evenodd" d="M44.273 13.143 47 10.92C43.32 6.57 37.868 4 31.993 4 26.125 4 20.68 6.562 17 10.904l2.725 2.225c3.013-3.556 7.464-5.65 12.268-5.65 4.81 0 9.266 2.1 12.28 5.664Zm-5.846 4.571L41 15.431c-2.203-2.874-5.48-4.574-9.01-4.574-3.52 0-6.787 1.689-8.99 4.547l2.567 2.29c1.576-2.044 3.906-3.248 6.422-3.248 2.525 0 4.862 1.212 6.438 3.268Z"/></symbol><symbol id="router#2" viewBox="0 0 48 48"><rect x="6" y="26" width="36" height="14" rx="2"/><path style="fill: var(--opacity, #fff)" opacity=".3" fill-rule="evenodd" clip-rule="evenodd" d="m37.858 16.512 3.078-2.554A21.954 21.954 0 0 0 24 6a21.954 21.954 0 0 0-16.92 7.938l3.075 2.558A17.955 17.955 0 0 1 24 10a17.955 17.955 0 0 1 13.858 6.512Zm-6.138 5.131 3.086-2.545A13.973 13.973 0 0 0 24 14c-4.22 0-8.139 1.882-10.78 5.068l3.078 2.553A9.974 9.974 0 0 1 24 18a9.974 9.974 0 0 1 7.72 3.643Z"/></symbol><symbol id="screen_lock_landscape" viewBox="0 0 24 24"><path d="M19 17H5V7h14zm2-12H3c-1.1 0-2 .9-2 2v10c0 1.1.9 2 2 2h18c1.1 0 2-.9 2-2V7c0-1.1-.9-2-2-2z"/><path d="M10.8 10c0-.66.54-1.2 1.2-1.2s1.2.54 1.2 1.2v1h-2.4zm-.8 6h4c.55 0 1-.45 1-1v-3c0-.55-.45-1-1-1v-1a2 2 0 1 0-4 0v1c-.55 0-1 .45-1 1v3c0 .55.45 1 1 1z"/></symbol><symbol id="screen_lock_portrait" viewBox="0 0 24 24"><path d="M10.8 10c0-.66.54-1.2 1.2-1.2s1.2.54 1.2 1.2v1h-2.4zm-.8 6h4c.55 0 1-.45 1-1v-3c0-.55-.45-1-1-1v-1a2 2 0 1 0-4 0v1c-.55 0-1 .45-1 1v3c0 .55.45 1 1 1z"/><path d="M17 19H7V5h10zm0-18H7c-1.1 0-2 .9-2 2v18c0 1.1.9 2 2 2h10c1.1 0 2-.9 2-2V3c0-1.1-.9-2-2-2z"/></symbol><symbol id="screen_lock_rotation" viewBox="0 0 24 24"><path d="m23.25 12.77-2.57-2.57-1.41 1.41 2.22 2.22-5.66 5.66L4.51 8.17l5.66-5.66 2.1 2.1 1.41-1.41L11.23.75a1.49 1.49 0 0 0-2.12 0L2.75 7.11a1.49 1.49 0 0 0 0 2.12l12.02 12.02c.59.59 1.54.59 2.12 0l6.36-6.36c.59-.59.59-1.54 0-2.12zM8.47 20.48A10.487 10.487 0 0 1 2.5 12H1c.51 6.16 5.66 11 11.95 11l.66-.03-3.81-3.82-1.33 1.33z"/><path d="M16.8 2.5c0-.94.76-1.7 1.7-1.7s1.7.76 1.7 1.7V3h-3.4v-.5zM16 9h5c.55 0 1-.45 1-1V4c0-.55-.45-1-1-1v-.5a2.5 2.5 0 0 0-5 0V3c-.55 0-1 .45-1 1v4c0 .55.45 1 1 1z"/></symbol><symbol id="screen_rotation" viewBox="0 0 24 24"><path d="M16.48 2.52c3.27 1.55 5.61 4.72 5.97 8.48h1.5C23.44 4.84 18.29 0 12 0l-.66.03 3.81 3.81zM14.83 21.19 2.81 9.17l6.36-6.36 12.02 12.02zm-4.6-19.44a1.49 1.49 0 0 0-2.12 0L1.75 8.11a1.49 1.49 0 0 0 0 2.12l12.02 12.02c.59.59 1.54.59 2.12 0l6.36-6.36c.59-.59.59-1.54 0-2.12zM7.52 21.48A10.487 10.487 0 0 1 1.55 13H.05C.56 19.16 5.71 24 12 24l.66-.03-3.81-3.81z"/></symbol><symbol id="sd_storage" viewBox="0 0 24 24"><path d="M18 2h-8L4.02 8 4 20c0 1.1.9 2 2 2h12c1.1 0 2-.9 2-2V4c0-1.1-.9-2-2-2zm-6 6h-2V4h2v4zm3 0h-2V4h2v4zm3 0h-2V4h2v4z"/></symbol><symbol id="sd-card" viewBox="0 0 48 48"><path fill-rule="evenodd" clip-rule="evenodd" d="M10 9a1 1 0 0 1 1-1h20.75a.5.5 0 0 1 .4.2l5.75 7.667a.5.5 0 0 1 .1.3V39a1 1 0 0 1-1 1H11a1 1 0 0 1-1-1V9Zm8 3h-4v6h4v-6Zm2 0h4v6h-4v-6Zm10 0h-4v6h4v-6Z"/></symbol><symbol id="server" viewBox="0 0 48 48"><path style="fill: var(--opacity, #fff)" opacity=".3" fill-rule="evenodd" clip-rule="evenodd" d="M6 6a2 2 0 0 1 2-2h32a2 2 0 0 1 2 2v8a2 2 0 0 1-2 2H8a2 2 0 0 1-2-2V6Zm14 3a1 1 0 0 1 1-1h12a1 1 0 0 1 1 1v2a1 1 0 0 1-1 1H21a1 1 0 0 1-1-1V9Zm-4 1a2 2 0 1 1-4 0 2 2 0 0 1 4 0Z"/><path fill-rule="evenodd" clip-rule="evenodd" d="M6 20a2 2 0 0 1 2-2h32a2 2 0 0 1 2 2v8a2 2 0 0 1-2 2H8a2 2 0 0 1-2-2v-8Zm14 3a1 1 0 0 1 1-1h12a1 1 0 0 1 1 1v2a1 1 0 0 1-1 1H21a1 1 0 0 1-1-1v-2Zm-4 1a2 2 0 1 1-4 0 2 2 0 0 1 4 0ZM6 34a2 2 0 0 1 2-2h32a2 2 0 0 1 2 2v8a2 2 0 0 1-2 2H8a2 2 0 0 1-2-2v-8Zm14 3a1 1 0 0 1 1-1h12a1 1 0 0 1 1 1v2a1 1 0 0 1-1 1H21a1 1 0 0 1-1-1v-2Zm-4 1a2 2 0 1 1-4 0 2 2 0 0 1 4 0Z"/></symbol><symbol id="settings_system_daydream" viewBox="0 0 24 24"><path d="M9 16h6.5a2.5 2.5 0 0 0 0-5h-.05c-.24-1.69-1.69-3-3.45-3-1.4 0-2.6.83-3.16 2.02h-.16A2.994 2.994 0 0 0 6 13c0 1.66 1.34 3 3 3z"/><path d="M21 19.01H3V4.99h18v14.02zM21 3H3c-1.1 0-2 .9-2 2v14c0 1.1.9 2 2 2h18c1.1 0 2-.9 2-2V5c0-1.1-.9-2-2-2z"/></symbol><symbol id="signal_cellular_4_bar" viewBox="0 0 24 24"><path d="M2 22h20V2z"/></symbol><symbol id="signal_cellular_connected_no_internet_4_bar" viewBox="0 0 24 24"><path d="M20 18h2v-8h-2zM20 22h2v-2h-2z"/><path d="M2 22h16V8h4V2z"/></symbol><symbol id="signal_cellular_no_sim" viewBox="0 0 24 24"><path d="M18.99 5c0-1.1-.89-2-1.99-2h-7L7.66 5.34 19 16.68zM3.65 3.88 2.38 5.15 5 7.77V19c0 1.1.9 2 2 2h10.01c.35 0 .67-.1.96-.26l1.88 1.88 1.27-1.27z"/></symbol><symbol id="signal_cellular_null" viewBox="0 0 24 24"><path d="M20 6.83V20H6.83zM22 2 2 22h20z"/></symbol><symbol id="signal_cellular_off" viewBox="0 0 24 24"><path d="m21 1-8.59 8.59L21 18.18zM4.77 4.5 3.5 5.77l6.36 6.36L1 21h17.73l2 2L22 21.73z"/></symbol><symbol id="signal_wifi_4_bar_lock" viewBox="0 0 24 24"><path d="M22 16h-3v-1.5c0-.8.7-1.5 1.5-1.5s1.5.7 1.5 1.5zm1 0v-1.5c0-1.4-1.1-2.5-2.5-2.5S18 13.1 18 14.5V16c-.5 0-1 .5-1 1v4c0 .5.5 1 1 1h5c.5 0 1-.5 1-1v-4c0-.5-.5-1-1-1z"/><path d="M15.5 14.5c0-2.8 2.2-5 5-5 .4 0 .7 0 1 .1L23.6 7c-.4-.3-4.9-4-11.6-4S.8 6.7.4 7L12 21.5l3.5-4.4z"/></symbol><symbol id="signal_wifi_4_bar" viewBox="0 0 24 24"><path d="M12.01 21.49 23.64 7c-.45-.34-4.93-4-11.64-4C5.28 3 .81 6.66.36 7l11.63 14.49.01.01.01-.01z"/></symbol><symbol id="signal_wifi_off" viewBox="0 0 24 24"><path d="M23.64 7c-.45-.34-4.93-4-11.64-4-1.5 0-2.89.19-4.15.48L18.18 13.8zM17.04 15.22 3.27 1.44 2 2.72l2.05 2.06C1.91 5.76.59 6.82.36 7l11.63 14.49.01.01.01-.01 3.9-4.86 3.32 3.32 1.27-1.27z"/></symbol><symbol id="speaker" viewBox="0 0 48 48"><path fill-rule="evenodd" clip-rule="evenodd" d="M10 6a2 2 0 0 1 2-2h24a2 2 0 0 1 2 2v36a2 2 0 0 1-2 2H12a2 2 0 0 1-2-2V6Zm14 32a8 8 0 1 1 0-16 8 8 0 0 1 0 16Z"/><path style="fill: var(--opacity, #fff)" opacity=".3" fill-rule="evenodd" clip-rule="evenodd" d="M24 34a4 4 0 1 0 0-8 4 4 0 0 0 0 8Z"/></symbol><symbol id="storage" viewBox="0 0 24 24"><path d="M4 17h2v2H4zm-2 3h20v-4H2zM6 7H4V5h2zM2 4v4h20V4zM4 11h2v2H4zm-2 3h20v-4H2z"/></symbol><symbol id="tablet" viewBox="0 0 48 48"><path fill-rule="evenodd" clip-rule="evenodd" d="M34 4H14a4 4 0 0 0-4 4v32a4 4 0 0 0 4 4h20a4 4 0 0 0 4-4V8a4 4 0 0 0-4-4ZM13 40V8h22v32H13Z"/><path style="fill: var(--opacity, #fff)" opacity=".3" fill-rule="evenodd" clip-rule="evenodd" d="M13 8v32h22V8H13Z"/></symbol><symbol id="tv#1" viewBox="0 0 48 48"><path fill-rule="evenodd" clip-rule="evenodd" d="M39 12H9c-2.761 0-5 1.94-5 4.333v17.334C4 36.06 6.239 38 9 38h30c2.761 0 5-1.94 5-4.333V16.333C44 13.94 41.761 12 39 12ZM8 34V16h32v18H8Z"/><path style="fill: var(--opacity, #fff)" opacity=".3" fill-rule="evenodd" clip-rule="evenodd" d="M8 16v18h32V16H8Z"/><rect opacity=".3" x="14" y="40" width="20" height="2" rx="1"/></symbol><symbol id="tv#2" viewBox="0 0 48 48"><path fill-rule="evenodd" clip-rule="evenodd" d="M4 11a1 1 0 0 1 1-1h38a1 1 0 0 1 1 1v24a1 1 0 0 1-1 1H5a1 1 0 0 1-1-1V11Zm15.264 9.132V28H16.87v-7.868h-2.8v-2.044h7.994v2.044h-2.8ZM27.476 28h2.394l3.822-9.912h-2.646l-2.282 7.028h-.056l-2.296-7.028h-2.688L27.476 28Z"/><rect style="fill: var(--opacity, #fff)" opacity=".3" x="6" y="38" width="36" height="2" rx="1"/></symbol><symbol id="usb-storage" viewBox="0 0 48 48"><path fill-rule="evenodd" clip-rule="evenodd" d="M23 34.9 13.1 25a2 2 0 0 1 0-2.828L27.244 8.029a4 4 0 0 1 5.657 0l7.07 7.072a4 4 0 0 1 0 5.656L25.829 34.9a2 2 0 0 1-2.828 0Z"/><path style="fill: var(--opacity, #fff)" opacity=".3" fill-rule="evenodd" clip-rule="evenodd" d="M13.808 39.85 8.15 34.191a1 1 0 0 1 0-1.414l4.95-4.95 7.07 7.071-4.95 4.95a1 1 0 0 1-1.413 0Z"/></symbol><symbol id="usb" viewBox="0 0 48 48"><rect x="8" y="18" width="32" height="18" rx="2"/><path style="fill: var(--opacity, #fff)" opacity=".3" fill-rule="evenodd" clip-rule="evenodd" d="M14 6h20v12H14V6Zm4 4h4v4h-4v-4Zm12 0h-4v4h4v-4Z"/><path opacity=".3" d="M20 36h8v5a1 1 0 0 1-1 1h-6a1 1 0 0 1-1-1v-5Z"/></symbol><symbol id="video-camera" viewBox="0 0 48 48"><rect x="4" y="12" width="26" height="24" rx="2"/><path style="fill: var(--opacity, #fff)" opacity=".3" fill-rule="evenodd" clip-rule="evenodd" d="M42.293 13.707c.63-.63 1.707-.184 1.707.707v19.172c0 .89-1.077 1.337-1.707.707l-9.586-9.586a1 1 0 0 1 0-1.414l9.586-9.586Z"/></symbol><symbol id="wallpaper" viewBox="0 0 24 24"><path d="M4 4h7V2H4c-1.1 0-2 .9-2 2v7h2zM10 13l-4 5h12l-3-4-2.03 2.71zM17 8.5c0-.83-.67-1.5-1.5-1.5S14 7.67 14 8.5s.67 1.5 1.5 1.5S17 9.33 17 8.5z"/><path d="M20 2h-7v2h7v7h2V4c0-1.1-.9-2-2-2zM20 20h-7v2h7c1.1 0 2-.9 2-2v-7h-2zM4 13H2v7c0 1.1.9 2 2 2h7v-2H4z"/></symbol><symbol id="watch#1" viewBox="0 0 48 48"><path fill-rule="evenodd" clip-rule="evenodd" d="M30 12H18a6 6 0 0 0-6 6v12a6 6 0 0 0 6 6h12a6 6 0 0 0 6-6V18a6 6 0 0 0-6-6Zm-14 6a2 2 0 0 1 2-2h12a2 2 0 0 1 2 2v12a2 2 0 0 1-2 2H18a2 2 0 0 1-2-2V18Z"/><path style="fill: var(--opacity, #fff)" opacity=".3" fill-rule="evenodd" clip-rule="evenodd" d="M18 16a2 2 0 0 0-2 2v12a2 2 0 0 0 2 2h12a2 2 0 0 0 2-2V18a2 2 0 0 0-2-2H18Z"/><path opacity=".3" d="M18 36h12v6.5a1.5 1.5 0 0 1-1.5 1.5h-9a1.5 1.5 0 0 1-1.5-1.5V36ZM18 5.5A1.5 1.5 0 0 1 19.5 4h9A1.5 1.5 0 0 1 30 5.5V12H18V5.5Z"/></symbol><symbol id="watch#2" viewBox="0 0 48 48"><path style="fill: var(--opacity, #fff)" opacity=".3" d="M18 34h12v8.5a1.5 1.5 0 0 1-1.5 1.5h-9a1.5 1.5 0 0 1-1.5-1.5V34Z"/><path opacity=".3" fill-rule="evenodd" clip-rule="evenodd" d="M24 34c5.523 0 10-4.477 10-10s-4.477-10-10-10-10 4.477-10 10 4.477 10 10 10Z"/><path opacity=".3" d="M18 5.5A1.5 1.5 0 0 1 19.5 4h9A1.5 1.5 0 0 1 30 5.5V14H18V5.5Z"/><path fill-rule="evenodd" clip-rule="evenodd" d="M10 24c0 7.732 6.268 14 14 14s14-6.268 14-14-6.268-14-14-14-14 6.268-14 14Zm24 0c0 5.523-4.477 10-10 10s-10-4.477-10-10 4.477-10 10-10 10 4.477 10 10Z"/></symbol><symbol id="wi-fi" viewBox="0 0 48 48"><path style="fill: var(--opacity, #fff)" opacity=".3" fill-rule="evenodd" clip-rule="evenodd" d="m42.895 24.335 4.197-3.483A29.938 29.938 0 0 0 23.997 10 29.938 29.938 0 0 0 .925 20.824l4.193 3.489a24.484 24.484 0 0 1 18.879-8.858c7.402 0 14.26 3.292 18.898 8.88Zm-8.371 6.996 4.208-3.47a19.054 19.054 0 0 0-14.735-6.952 19.054 19.054 0 0 0-14.701 6.91l4.199 3.483a13.6 13.6 0 0 1 10.502-4.938 13.6 13.6 0 0 1 10.527 4.967Z"/><path fill-rule="evenodd" clip-rule="evenodd" d="m30.238 34.71-4.16 3.528L23.924 40l-2.058-1.703-4.256-3.41a8.17 8.17 0 0 1 6.387-3.069 8.168 8.168 0 0 1 6.24 2.891Z"/></symbol><symbol id="wifi_lock" viewBox="0 0 24 24"><path d="M20.5 9.5c.28 0 .55.04.81.08L24 6c-3.34-2.51-7.5-4-12-4S3.34 3.49 0 6l12 16 3.5-4.67V14.5c0-2.76 2.24-5 5-5z"/><path d="M22 16h-3v-1.5c0-.83.67-1.5 1.5-1.5s1.5.67 1.5 1.5V16zm1 0v-1.5a2.5 2.5 0 0 0-5 0V16c-.55 0-1 .45-1 1v4c0 .55.45 1 1 1h5c.55 0 1-.45 1-1v-4c0-.55-.45-1-1-1z"/></symbol><symbol id="wifi_tethering" viewBox="0 0 24 24"><path d="M12 11c-1.1 0-2 .9-2 2s.9 2 2 2 2-.9 2-2-.9-2-2-2z"/><path d="M18 13c0-3.31-2.69-6-6-6s-6 2.69-6 6c0 2.22 1.21 4.15 3 5.19l1-1.74c-1.19-.7-2-1.97-2-3.45 0-2.21 1.79-4 4-4s4 1.79 4 4c0 1.48-.81 2.75-2 3.45l1 1.74c1.79-1.04 3-2.97 3-5.19z"/><path d="M12 3C6.48 3 2 7.48 2 13c0 3.7 2.01 6.92 4.99 8.65l1-1.73C5.61 18.53 4 15.96 4 13c0-4.42 3.58-8 8-8s8 3.58 8 8c0 2.96-1.61 5.53-4 6.92l1 1.73c2.99-1.73 5-4.95 5-8.65 0-5.52-4.48-10-10-10z"/></symbol></svg>