<?xml version="1.0" encoding="UTF-8"?><!DOCTYPE svg PUBLIC "-//W3C//DTD SVG 1.1//EN" "http://www.w3.org/Graphics/SVG/1.1/DTD/svg11.dtd"><svg xmlns="http://www.w3.org/2000/svg" xmlns:xlink="http://www.w3.org/1999/xlink"><defs/><symbol id="airpods" viewBox="0 0 48 48"><path style="fill: var(--opacity, #fff)" opacity=".3" fill-rule="evenodd" clip-rule="evenodd" d="M28 22.945a11.959 11.959 0 006 2.89V42a2 2 0 01-2 2h-2a2 2 0 01-2-2V22.945zM14 25.834a11.959 11.959 0 006-2.89V42a2 2 0 01-2 2h-2a2 2 0 01-2-2V25.834z"/><path fill-rule="evenodd" clip-rule="evenodd" d="M36 24c5.523 0 10-4.477 10-10S41.523 4 36 4 26 8.477 26 14s4.477 10 10 10zm-8-10a1 1 0 011-1h2a1 1 0 011 1v1a1 1 0 01-1 1h-2a1 1 0 01-1-1v-1zm13-4a1 1 0 00-1 1v6a1 1 0 001 1h2a1 1 0 001-1v-6a1 1 0 00-1-1h-2zM12 24c5.523 0 10-4.477 10-10S17.523 4 12 4 2 8.477 2 14s4.477 10 10 10zm4-10a1 1 0 011-1h2a1 1 0 011 1v1a1 1 0 01-1 1h-2a1 1 0 01-1-1v-1zM5 10a1 1 0 00-1 1v6a1 1 0 001 1h2a1 1 0 001-1v-6a1 1 0 00-1-1H5z"/></symbol><symbol id="android" viewBox="0 0 48 48"><path fill-rule="evenodd" clip-rule="evenodd" d="M32.571 4H15.43C13.535 4 12 5.79 12 8v32c0 2.21 1.535 4 3.429 4H32.57C34.465 44 36 42.21 36 40V8c0-2.21-1.535-4-3.429-4zM15 38V8h18v30H15z"/><path style="fill: var(--opacity, #fff)" opacity=".3" fill-rule="evenodd" clip-rule="evenodd" d="M15 8v30h18V8H15z"/></symbol><symbol id="apple-watch" viewBox="0 0 48 48"><path style="fill: var(--opacity, #fff)" opacity=".3" d="M32.901 8.352a2 2 0 11-1.98 3.475A13.925 13.925 0 0024 10c-7.732 0-14 6.268-14 14s6.268 14 14 14c2.439 0 4.782-.623 6.858-1.792a2 2 0 011.963 3.486A17.925 17.925 0 0124 42c-9.941 0-18-8.059-18-18S14.059 6 24 6c3.163 0 6.21.818 8.901 2.352z"/><path fill-rule="evenodd" clip-rule="evenodd" d="M35 12a3 3 0 00-3 3v18a3 3 0 003 3h4a3 3 0 003-3V15a3 3 0 00-3-3h-4zm5 9a3 3 0 11-6 0 3 3 0 016 0z"/></symbol><symbol id="battery-charging" viewBox="0 0 48 48"><path fill-rule="evenodd" clip-rule="evenodd" d="M34 14H8a4 4 0 00-4 4v12a4 4 0 004 4h26a4 4 0 004-4V18a4 4 0 00-4-4zM8 30V18h26v12H8z"/><path style="fill: var(--opacity, #fff)" opacity=".3" fill-rule="evenodd" clip-rule="evenodd" d="M20 28.43a.2.2 0 00.356.125l3.384-4.23a.2.2 0 00-.156-.325H22v-4.34a.2.2 0 00-.366-.11l-3.427 5.14a.2.2 0 00.167.31H20v3.43z"/><path opacity=".3" d="M40 20h3a1 1 0 011 1v6a1 1 0 01-1 1h-3v-8z"/></symbol><symbol id="battery-empty" viewBox="0 0 48 48"><path fill-rule="evenodd" clip-rule="evenodd" d="M34 14H8a4 4 0 00-4 4v12a4 4 0 004 4h26a4 4 0 004-4V18a4 4 0 00-4-4zM8 30V18h26v12H8z"/><path style="fill: var(--opacity, #fff)" opacity=".3" d="M40 20h3a1 1 0 011 1v6a1 1 0 01-1 1h-3v-8z"/></symbol><symbol id="battery-full" viewBox="0 0 48 48"><rect x="4" y="14" width="34" height="20" rx="2" fill="#000"/><path style="fill: var(--opacity, #fff)" opacity=".3" d="M40 20h3a1 1 0 011 1v6a1 1 0 01-1 1h-3v-8z"/></symbol><symbol id="battery-half" viewBox="0 0 48 48"><path fill-rule="evenodd" clip-rule="evenodd" d="M34 14H8a4 4 0 00-4 4v12a4 4 0 004 4h26a4 4 0 004-4V18a4 4 0 00-4-4zM22 30V18h12v12H22z"/><path style="fill: var(--opacity, #fff)" opacity=".3" d="M40 20h3a1 1 0 011 1v6a1 1 0 01-1 1h-3v-8z"/></symbol><symbol id="bluetooth" viewBox="0 0 48 48"><path style="fill: var(--opacity, #fff)" opacity=".3" fill-rule="evenodd" clip-rule="evenodd" d="M12.662 17.487L20 24.09V41c0 1.544 1.674 2.505 3.008 1.728l12-7a2 2 0 00.33-3.215l-20-18a2 2 0 00-2.676 2.974zM24 37.518v-9.827l6.625 5.962L24 37.518z"/><path fill-rule="evenodd" clip-rule="evenodd" d="M23.2 4.4C21.882 3.411 20 4.352 20 6v18.275l-7.295 6.201a2 2 0 002.59 3.048l20-17A2 2 0 0035.2 13.4l-12-9zm7.597 10.698L24 20.875V10l6.797 5.098z"/></symbol><symbol id="camera" viewBox="0 0 48 48"><path fill-rule="evenodd" clip-rule="evenodd" d="M8 14a2 2 0 00-2 2v20a2 2 0 002 2h32a2 2 0 002-2V16a2 2 0 00-2-2H8zm8 12a8 8 0 1016 0 8 8 0 00-16 0z"/><rect style="fill: var(--opacity, #fff)" opacity=".3" x="18" y="8" width="12" height="4" rx="1.5" fill="#000"/><path opacity=".3" fill-rule="evenodd" clip-rule="evenodd" d="M24 30a4 4 0 100-8 4 4 0 000 8z"/></symbol><symbol id="cardboard-vr" viewBox="0 0 48 48"><path style="fill: var(--opacity, #fff)" opacity=".3" d="M8 8h32v5H8z"/><path fill-rule="evenodd" clip-rule="evenodd" d="M20 24a4 4 0 11-8 0 4 4 0 018 0z"/></symbol><symbol id="cassete" viewBox="0 0 48 48"><rect style="fill: var(--opacity, #fff)" opacity=".3" x="10" y="30" width="28" height="4" rx="1" fill="#000"/><path fill-rule="evenodd" clip-rule="evenodd" d="M4 25a9 9 0 1018 0 9 9 0 00-18 0zm14 0a5 5 0 11-10 0 5 5 0 0110 0zM26 25a9 9 0 1018 0 9 9 0 00-18 0zm14 0a5 5 0 11-10 0 5 5 0 0110 0z"/></symbol><symbol id="cpu" viewBox="0 0 48 48"><rect style="fill: var(--opacity, #fff)" opacity=".3" x="8" y="8" width="32" height="32" rx="2" fill="#000"/><path opacity=".3" d="M18 18h12v12H18z"/><path d="M40 14h3a1 1 0 011 1v2a1 1 0 01-1 1h-3v-4zM40 22h3a1 1 0 011 1v2a1 1 0 01-1 1h-3v-4zM40 30h3a1 1 0 011 1v2a1 1 0 01-1 1h-3v-4zM4 15a1 1 0 011-1h3v4H5a1 1 0 01-1-1v-2zM4 23a1 1 0 011-1h3v4H5a1 1 0 01-1-1v-2zM4 31a1 1 0 011-1h3v4H5a1 1 0 01-1-1v-2z"/></symbol><symbol id="cpu#2" viewBox="0 0 48 48"><rect style="fill: var(--opacity, #fff)" opacity=".3" x="6" y="6" width="36" height="36" rx="1" fill="#000"/><path opacity=".3" fill-rule="evenodd" clip-rule="evenodd" d="M28 18h-8a2 2 0 00-2 2v8a2 2 0 002 2h8a2 2 0 002-2v-8a2 2 0 00-2-2zm-6 8v-4h4v4h-4z"/><rect opacity=".3" x="10" y="10" width="4" height="4" rx=".5" fill="#000"/><rect opacity=".3" x="10" y="18" width="4" height="4" rx=".5" fill="#000"/><rect opacity=".3" x="10" y="26" width="4" height="4" rx=".5" fill="#000"/><rect opacity=".3" x="18" y="10" width="4" height="4" rx=".5" fill="#000"/><rect opacity=".3" x="26" y="10" width="4" height="4" rx=".5" fill="#000"/><rect opacity=".3" x="34" y="10" width="4" height="4" rx=".5" fill="#000"/><rect opacity=".3" x="34" y="18" width="4" height="4" rx=".5" fill="#000"/><rect opacity=".3" x="34" y="26" width="4" height="4" rx=".5" fill="#000"/><rect opacity=".3" x="10" y="34" width="4" height="4" rx=".5" fill="#000"/><rect opacity=".3" x="18" y="34" width="4" height="4" rx=".5" fill="#000"/><rect opacity=".3" x="26" y="34" width="4" height="4" rx=".5" fill="#000"/><rect opacity=".3" x="34" y="34" width="4" height="4" rx=".5" fill="#000"/></symbol><symbol id="diagnostics" viewBox="0 0 48 48"><rect style="fill: var(--opacity, #fff)" opacity=".3" x="4" y="6" width="40" height="36" rx="2" fill="#000"/><path d="M19.897 26.632A2 2 0 0118 28h-8a2 2 0 010-4h6.558l3.545-10.633c.632-1.898 3.352-1.793 3.837.148L27.63 28.27l1.582-3.165A2 2 0 0131 24h7a2 2 0 110 4h-5.764l-3.447 6.894c-.83 1.661-3.279 1.392-3.73-.409l-3.334-13.337-1.828 5.484z"/><path opacity=".3" fill-rule="evenodd" clip-rule="evenodd" d="M38 14a2 2 0 100-4 2 2 0 000 4z"/></symbol><symbol id="display#1" viewBox="0 0 48 48"><path style="fill: var(--opacity, #fff)" opacity=".3" fill-rule="evenodd" clip-rule="evenodd" d="M23 32a1 1 0 00-1 1v7h-5.5a.5.5 0 00-.5.5v1a.5.5 0 00.5.5h15a.5.5 0 00.5-.5v-1a.5.5 0 00-.5-.5H26v-7a1 1 0 00-1-1h-2z"/><path fill-rule="evenodd" clip-rule="evenodd" d="M4 11a1 1 0 011-1h38a1 1 0 011 1v22a1 1 0 01-1 1H5a1 1 0 01-1-1V11zm4 6a1 1 0 011-1h18a1 1 0 110 2H9a1 1 0 01-1-1zm1 3a1 1 0 100 2h6a1 1 0 100-2H9z"/></symbol><symbol id="display#2" viewBox="0 0 48 48"><path style="fill: var(--opacity, #fff)" opacity=".3" fill-rule="evenodd" clip-rule="evenodd" d="M12 14v16h24V14H12zM23 30a1 1 0 00-1 1v7h-3a1 1 0 100 2h10a1 1 0 100-2h-3v-7a1 1 0 00-1-1h-2z"/><path fill-rule="evenodd" clip-rule="evenodd" d="M36 10H12a4 4 0 00-4 4v16a4 4 0 004 4h24a4 4 0 004-4V14a4 4 0 00-4-4zM12 30V14h24v16H12z"/></symbol><symbol id="display#3" viewBox="0 0 48 48"><path style="fill: var(--opacity, #fff)" opacity=".3" fill-rule="evenodd" clip-rule="evenodd" d="M10 14v16h28V14H10zM23 30a1 1 0 00-1 1v7h-3a1 1 0 100 2h10a1 1 0 100-2h-3v-7a1 1 0 00-1-1h-2z"/><path fill-rule="evenodd" clip-rule="evenodd" d="M37.5 10h-27C8.015 10 6 11.79 6 14v16c0 2.21 2.015 4 4.5 4h27c2.485 0 4.5-1.79 4.5-4V14c0-2.21-2.015-4-4.5-4zM10 30V14h28v16H10z"/></symbol><symbol id="gameboy" viewBox="0 0 48 48"><path style="fill: var(--opacity, #fff)" opacity=".3" fill-rule="evenodd" clip-rule="evenodd" d="M23 18a1 1 0 00-1 1v13H8a2 2 0 00-2 2v6a2 2 0 002 2h32a2 2 0 002-2v-6a2 2 0 00-2-2H26V19a1 1 0 00-1-1h-2z"/><path fill-rule="evenodd" clip-rule="evenodd" d="M24 20a6 6 0 100-12 6 6 0 000 12z"/></symbol><symbol id="gamepad#1" viewBox="0 0 48 48"><path style="fill: var(--opacity, #fff)" opacity=".3" d="M25.897 18.633l-3.794-1.265c1.53-4.589 3.982-7.45 7.412-8.308C31.3 8.613 34 5.739 34 4h4c0 3.594-3.967 8.053-7.515 8.94-1.904.476-3.45 2.28-4.588 5.693z"/><path fill-rule="evenodd" clip-rule="evenodd" d="M26.514 34h-5.028c-2.018 2.443-5.07 4-8.486 4-6.075 0-11-4.925-11-11 0-4.918 3.227-9.082 7.68-10.49A3.484 3.484 0 0111.5 16h25c.667 0 1.29.186 1.82.51C42.773 17.918 46 22.082 46 27c0 6.075-4.925 11-11 11a10.978 10.978 0 01-8.486-4zM10 20.5a.5.5 0 01.5-.5h3a.5.5 0 01.5.5v3a.5.5 0 01-.5.5h-3a.5.5 0 01-.5-.5v-3zm4.5 3.5a.5.5 0 00-.5.5v3a.5.5 0 00.5.5h3a.5.5 0 00.5-.5v-3a.5.5 0 00-.5-.5h-3zM38 24a2 2 0 100-4 2 2 0 000 4zm0 4a2 2 0 11-4 0 2 2 0 014 0zm-28 .5a.5.5 0 01.5-.5h3a.5.5 0 01.5.5v3a.5.5 0 01-.5.5h-3a.5.5 0 01-.5-.5v-3zM6.5 24a.5.5 0 00-.5.5v3a.5.5 0 00.5.5h3a.5.5 0 00.5-.5v-3a.5.5 0 00-.5-.5h-3z"/></symbol><symbol id="gamepad#2" viewBox="0 0 52 48"><path style="fill: var(--opacity, #fff)" opacity=".3" d="M27.897 16.633l-3.794-1.265c1.53-4.589 3.982-7.45 7.412-8.308C33.3 6.613 36 3.739 36 2h4c0 3.594-3.967 8.053-7.515 8.94-1.904.476-3.45 2.28-4.588 5.693z"/><path fill-rule="evenodd" clip-rule="evenodd" d="M17.497 12.041a3 3 0 00-4.098 1.098L1.322 34.056a3 3 0 001.098 4.098l10.638 6.142a3 3 0 004.098-1.098L22.467 34h7.38l5.313 9.203a3 3 0 004.098 1.098l10.407-6.009a3 3 0 001.098-4.098L38.658 13.227a3 3 0 00-4.098-1.098L31.32 14H20.89l-3.392-1.958zM22 24a4 4 0 11-8 0 4 4 0 018 0zm14 0a2 2 0 100-4 2 2 0 000 4zm-2 2a2 2 0 11-4 0 2 2 0 014 0z"/></symbol><symbol id="generator" viewBox="0 0 48 48"><rect style="fill: var(--opacity, #fff)" opacity=".3" x="4" y="12" width="40" height="28" rx="2" fill="#000"/><path fill-rule="evenodd" clip-rule="evenodd" d="M9 8a1 1 0 00-1 1v3h8V9a1 1 0 00-1-1H9zm24 0a1 1 0 00-1 1v3h8V9a1 1 0 00-1-1h-6zM14 31a1 1 0 001 1h2a1 1 0 001-1v-3h3a1 1 0 001-1v-2a1 1 0 00-1-1h-3v-3a1 1 0 00-1-1h-2a1 1 0 00-1 1v3h-3a1 1 0 00-1 1v2a1 1 0 001 1h3v3z"/><rect x="28" y="24" width="8" height="4" rx="1" fill="#000"/></symbol><symbol id="hard-drive" viewBox="0 0 48 48"><path fill-rule="evenodd" clip-rule="evenodd" d="M4 26h40v12a2 2 0 01-2 2H6a2 2 0 01-2-2V26zm33 10a3 3 0 100-6 3 3 0 000 6zm-7-3a3 3 0 11-6 0 3 3 0 016 0z"/><path style="fill: var(--opacity, #fff)" opacity=".3" d="M4 17a1 1 0 011-1h38a1 1 0 011 1v9H4v-9z"/></symbol><symbol id="headphones" viewBox="0 0 48 48"><path style="fill: var(--opacity, #fff)" opacity=".3" fill-rule="evenodd" clip-rule="evenodd" d="M38 32h4v-8c0-9.941-8.059-18-18-18S6 14.059 6 24v8h4v-8c0-7.732 6.268-14 14-14s14 6.268 14 14v8z"/><path fill-rule="evenodd" clip-rule="evenodd" d="M8 28a2 2 0 00-2 2v10a2 2 0 002 2h6a2 2 0 002-2V30a2 2 0 00-2-2H8zm26 0a2 2 0 00-2 2v10a2 2 0 002 2h6a2 2 0 002-2V30a2 2 0 00-2-2h-6z"/></symbol><symbol id="homepod" viewBox="0 0 48 48"><path style="fill: var(--opacity, #fff)" opacity=".3" fill-rule="evenodd" clip-rule="evenodd" d="M12 8c0 3.314 5.373 6 12 6s12-2.686 12-6c0-.637-.199-1.251-.567-1.828A6.002 6.002 0 0140 12v26a6 6 0 01-6 6H14a6 6 0 01-6-6V12a6.002 6.002 0 014.567-5.828C12.199 6.75 12 7.362 12 8z"/><path fill-rule="evenodd" clip-rule="evenodd" d="M30.696 7.335C29.047 6.51 26.633 6 24 6c-2.634 0-5.047.51-6.696 1.335A5.42 5.42 0 0016.25 8c.248.21.602.44 1.054.665C18.953 9.49 21.367 10 24 10c2.634 0 5.047-.51 6.696-1.335A5.423 5.423 0 0031.75 8a5.423 5.423 0 00-1.054-.665z"/></symbol><symbol id="imac" viewBox="0 0 48 48"><path fill-rule="evenodd" clip-rule="evenodd" d="M10 6h28c2.84 0 4 1.433 4 3.2v25.6c0 1.767-1.16 3.2-4 3.2H10c-2.84 0-4-1.433-4-3.2V9.2C6 7.433 7.16 6 10 6zm0 4v22h28V10H10zm15 25a1 1 0 11-2 0 1 1 0 012 0z"/><path style="fill: var(--opacity, #fff)" opacity=".3" fill-rule="evenodd" clip-rule="evenodd" d="M10 10v22h28V10H10z"/><rect opacity=".3" x="20" y="40" width="8" height="2" rx=".5" fill="#000"/></symbol><symbol id="iphone-back" viewBox="0 0 48 48"><path fill-rule="evenodd" clip-rule="evenodd" d="M14 4a2 2 0 00-2 2v36a2 2 0 002 2h20a2 2 0 002-2V6a2 2 0 00-2-2H14zm1 2a1 1 0 00-1 1v2a1 1 0 001 1h6a1 1 0 001-1V7a1 1 0 00-1-1h-6z"/></symbol><symbol id="iphone-x-back" viewBox="0 0 48 48"><path fill-rule="evenodd" clip-rule="evenodd" d="M14 4a2 2 0 00-2 2v36a2 2 0 002 2h20a2 2 0 002-2V6a2 2 0 00-2-2H14zm1 2a1 1 0 00-1 1v6a1 1 0 001 1h2a1 1 0 001-1V7a1 1 0 00-1-1h-2z"/></symbol><symbol id="iphone-x" viewBox="0 0 48 48"><path style="fill: var(--opacity, #fff)" opacity=".3" fill-rule="evenodd" clip-rule="evenodd" d="M16 5a2.5 2.5 0 00-2.5 2.5v33A2.5 2.5 0 0016 43h16a2.5 2.5 0 002.5-2.5v-33A2.5 2.5 0 0032 5H16z"/><path fill-rule="evenodd" clip-rule="evenodd" d="M16 2h16a5.5 5.5 0 015.5 5.5v33A5.5 5.5 0 0132 46H16a5.5 5.5 0 01-5.5-5.5v-33A5.5 5.5 0 0116 2zm0 3a2.5 2.5 0 00-2.5 2.5v33A2.5 2.5 0 0016 43h16a2.5 2.5 0 002.5-2.5v-33A2.5 2.5 0 0032 5h-2V4a.5.5 0 00-.5-.5h-11a.5.5 0 00-.5.5v1h-2zm2 0v2a.5.5 0 00.5.5h11A.5.5 0 0030 7V5H18z"/></symbol><symbol id="iphone" viewBox="0 0 48 48"><path fill-rule="evenodd" clip-rule="evenodd" d="M32.333 2H15.667C12.854 2 11.5 3.962 11.5 7v34c0 3.038 1.354 5 4.167 5h16.666c2.813 0 4.167-1.962 4.167-5V7c0-3.038-1.354-5-4.167-5zM14.278 38V8h19.444v30H14.278z"/><path style="fill: var(--opacity, #fff)" opacity=".3" fill-rule="evenodd" clip-rule="evenodd" d="M14 8v30h20V8H14z"/><path fill-rule="evenodd" clip-rule="evenodd" d="M24 44a2 2 0 100-4 2 2 0 000 4z"/></symbol><symbol id="keyboard" viewBox="0 0 48 48"><path style="fill: var(--opacity, #fff)" opacity=".3" d="M23.897 16.633l-3.794-1.265c1.53-4.589 3.982-7.45 7.412-8.308C29.301 6.613 32 3.739 32 2h4c0 3.594-3.967 8.053-7.515 8.94-1.904.476-3.45 2.28-4.588 5.693z"/><path fill-rule="evenodd" clip-rule="evenodd" d="M2 16a2 2 0 012-2h40a2 2 0 012 2v24a2 2 0 01-2 2H4a2 2 0 01-2-2V16zm12 2.5a.5.5 0 01.5-.5h3a.5.5 0 01.5.5v3a.5.5 0 01-.5.5h-3a.5.5 0 01-.5-.5v-3zM6.5 18a.5.5 0 00-.5.5v3a.5.5 0 00.5.5h3a.5.5 0 00.5-.5v-3a.5.5 0 00-.5-.5h-3zm3.5 8.5a.5.5 0 01.5-.5h3a.5.5 0 01.5.5v3a.5.5 0 01-.5.5h-3a.5.5 0 01-.5-.5v-3zm8.5-.5a.5.5 0 00-.5.5v3a.5.5 0 00.5.5h3a.5.5 0 00.5-.5v-3a.5.5 0 00-.5-.5h-3zm7.5.5a.5.5 0 01.5-.5h3a.5.5 0 01.5.5v3a.5.5 0 01-.5.5h-3a.5.5 0 01-.5-.5v-3zm8.5-.5a.5.5 0 00-.5.5v3a.5.5 0 00.5.5h3a.5.5 0 00.5-.5v-3a.5.5 0 00-.5-.5h-3zM22 18.5a.5.5 0 01.5-.5h3a.5.5 0 01.5.5v3a.5.5 0 01-.5.5h-3a.5.5 0 01-.5-.5v-3zM10.5 34a.5.5 0 00-.5.5v3a.5.5 0 00.5.5h27a.5.5 0 00.5-.5v-3a.5.5 0 00-.5-.5h-27zM30 18.5a.5.5 0 01.5-.5h3a.5.5 0 01.5.5v3a.5.5 0 01-.5.5h-3a.5.5 0 01-.5-.5v-3zm8.5-.5a.5.5 0 00-.5.5v3a.5.5 0 00.5.5h3a.5.5 0 00.5-.5v-3a.5.5 0 00-.5-.5h-3z"/></symbol><symbol id="laptop-macbook" viewBox="0 0 48 48"><path d="M8 13a1 1 0 011-1h30a1 1 0 011 1v21H8V13z"/><rect style="fill: var(--opacity, #fff)" opacity=".3" x="2" y="36" width="44" height="2" rx=".5" fill="#000"/></symbol><symbol id="laptop" viewBox="0 0 48 48"><path fill-rule="evenodd" clip-rule="evenodd" d="M12 12h24a4 4 0 014 4v16h4.226a1 1 0 011 1v2a1 1 0 01-1 1H3.775a1 1 0 01-1-1v-2a1 1 0 011-1H8V16a4 4 0 014-4zm0 20h24V16H12v16z"/><path style="fill: var(--opacity, #fff)" opacity=".3" fill-rule="evenodd" clip-rule="evenodd" d="M12 16v16h24V16H12z"/></symbol><symbol id="lte#1" viewBox="0 0 48 48"><path style="fill: var(--opacity, #fff)" opacity=".3" fill-rule="evenodd" clip-rule="evenodd" d="M14.512 37.858l-2.554 3.078A21.955 21.955 0 014 24a21.954 21.954 0 017.938-16.92l2.558 3.075A17.955 17.955 0 008 24a17.955 17.955 0 006.512 13.858zm18.976 0l2.554 3.078A21.955 21.955 0 0044 24a21.954 21.954 0 00-7.938-16.92l-2.558 3.075A17.955 17.955 0 0140 24a17.955 17.955 0 01-6.512 13.858zm-5.131-6.138l2.545 3.086A13.973 13.973 0 0036 24c0-4.22-1.882-8.139-5.068-10.78l-2.553 3.078A9.973 9.973 0 0132 24a9.974 9.974 0 01-3.643 7.72zm-11.259 3.086l2.545-3.086A9.974 9.974 0 0116 24a9.973 9.973 0 013.621-7.702l-2.553-3.079A13.973 13.973 0 0012 24c0 4.235 1.894 8.164 5.098 10.806z"/><path fill-rule="evenodd" clip-rule="evenodd" d="M24 28a4 4 0 100-8 4 4 0 000 8z"/></symbol><symbol id="lte#2" viewBox="0 0 48 48"><path style="fill: var(--opacity, #fff)" opacity=".3" fill-rule="evenodd" clip-rule="evenodd" d="M12.512 37.858l-2.554 3.078A21.955 21.955 0 012 24 21.954 21.954 0 019.938 7.08l2.558 3.075A17.955 17.955 0 006 24a17.955 17.955 0 006.512 13.858zm22.976 0l2.554 3.078A21.955 21.955 0 0046 24a21.954 21.954 0 00-7.938-16.92l-2.558 3.075A17.955 17.955 0 0142 24a17.955 17.955 0 01-6.512 13.858zm-5.131-6.138l2.545 3.086A13.973 13.973 0 0038 24c0-4.22-1.882-8.139-5.068-10.78l-2.553 3.078A9.973 9.973 0 0134 24a9.974 9.974 0 01-3.643 7.72zm-15.259 3.086l2.545-3.086A9.974 9.974 0 0114 24a9.973 9.973 0 013.621-7.702l-2.553-3.079A13.973 13.973 0 0010 24c0 4.235 1.894 8.164 5.098 10.806z"/><path fill-rule="evenodd" clip-rule="evenodd" d="M26 28.584A5.001 5.001 0 0024 19a5 5 0 00-2 9.584V41a1 1 0 001 1h2a1 1 0 001-1V28.584z"/></symbol><symbol id="mic" viewBox="0 0 48 48"><path fill-rule="evenodd" clip-rule="evenodd" d="M24 32c-5.523 0-10-4.477-10-10h-4c0 7.053 5.215 12.888 12 13.858V43a1 1 0 001 1h2a1 1 0 001-1v-7.142c6.785-.97 12-6.805 12-13.858h-4c0 5.523-4.477 10-10 10z"/><rect style="fill: var(--opacity, #fff)" opacity=".3" x="18" y="4" width="12" height="24" rx="3.5" fill="#000"/></symbol><symbol id="mouse" viewBox="0 0 48 48"><rect style="fill: var(--opacity, #fff)" opacity=".3" x="12" y="10" width="24" height="36" rx="6" fill="#000"/><path d="M22 4.5a.5.5 0 01.5-.5h3a.5.5 0 01.5.5V10h-4V4.5z"/><rect x="22" y="32" width="4" height="10" rx="1" fill="#000"/></symbol><symbol id="printer" viewBox="0 0 48 48"><path fill-rule="evenodd" clip-rule="evenodd" d="M8 12a2 2 0 00-2 2v18a2 2 0 002 2h8v9a1 1 0 001 1h14a1 1 0 001-1v-9h8a2 2 0 002-2V14a2 2 0 00-2-2H8zm27 10a3 3 0 100-6 3 3 0 000 6zm-7 6h-8v12h8V28z"/><rect style="fill: var(--opacity, #fff)" opacity=".3" x="16" y="4" width="16" height="4" rx="2" fill="#000"/></symbol><symbol id="radio" viewBox="0 0 48 48"><path style="fill: var(--opacity, #fff)" opacity=".3" fill-rule="evenodd" clip-rule="evenodd" d="M6 14a2 2 0 00-2 2v24a2 2 0 002 2h36a2 2 0 002-2V16a2 2 0 00-2-2H6zm18 14a8 8 0 1016 0 8 8 0 00-16 0z"/><path fill-rule="evenodd" clip-rule="evenodd" d="M41.206 14a1.995 1.995 0 00-.983-1.333L17.976.253a2 2 0 10-1.95 3.494L34.404 14h6.803zM32 32a4 4 0 100-8 4 4 0 000 8z"/><rect opacity=".3" x="8" y="22" width="10" height="4" rx="1" fill="#000"/><rect opacity=".3" x="8" y="30" width="10" height="4" rx="1" fill="#000"/></symbol><symbol id="router#1" viewBox="0 0 48 48"><path fill-rule="evenodd" clip-rule="evenodd" d="M31 18a1 1 0 00-1 1v11H6a2 2 0 00-2 2v8a2 2 0 002 2h36a2 2 0 002-2v-8a2 2 0 00-2-2h-8V19a1 1 0 00-1-1h-2zM8 35a1 1 0 011-1h12a1 1 0 011 1v2a1 1 0 01-1 1H9a1 1 0 01-1-1v-2z"/><path style="fill: var(--opacity, #fff)" opacity=".3" fill-rule="evenodd" clip-rule="evenodd" d="M44.273 13.143L47 10.92C43.32 6.57 37.868 4 31.993 4 26.125 4 20.68 6.562 17 10.904l2.725 2.225c3.013-3.556 7.464-5.65 12.268-5.65 4.81 0 9.266 2.1 12.28 5.664zm-5.846 4.571L41 15.431c-2.203-2.874-5.48-4.574-9.01-4.574-3.52 0-6.787 1.689-8.99 4.547l2.567 2.29c1.576-2.044 3.906-3.248 6.422-3.248 2.525 0 4.862 1.212 6.438 3.268z"/></symbol><symbol id="router#2" viewBox="0 0 48 48"><rect x="6" y="26" width="36" height="14" rx="2" fill="#000"/><path style="fill: var(--opacity, #fff)" opacity=".3" fill-rule="evenodd" clip-rule="evenodd" d="M37.858 16.512l3.078-2.554A21.954 21.954 0 0024 6a21.954 21.954 0 00-16.92 7.938l3.075 2.558A17.955 17.955 0 0124 10a17.955 17.955 0 0113.858 6.512zm-6.138 5.131l3.086-2.545A13.973 13.973 0 0024 14c-4.22 0-8.139 1.882-10.78 5.068l3.078 2.553A9.974 9.974 0 0124 18a9.974 9.974 0 017.72 3.643z"/></symbol><symbol id="sd-card" viewBox="0 0 48 48"><path fill-rule="evenodd" clip-rule="evenodd" d="M10 9a1 1 0 011-1h20.75a.5.5 0 01.4.2l5.75 7.667a.5.5 0 01.1.3V39a1 1 0 01-1 1H11a1 1 0 01-1-1V9zm8 3h-4v6h4v-6zm2 0h4v6h-4v-6zm10 0h-4v6h4v-6z"/></symbol><symbol id="server" viewBox="0 0 48 48"><path style="fill: var(--opacity, #fff)" opacity=".3" fill-rule="evenodd" clip-rule="evenodd" d="M6 6a2 2 0 012-2h32a2 2 0 012 2v8a2 2 0 01-2 2H8a2 2 0 01-2-2V6zm14 3a1 1 0 011-1h12a1 1 0 011 1v2a1 1 0 01-1 1H21a1 1 0 01-1-1V9zm-4 1a2 2 0 11-4 0 2 2 0 014 0z"/><path fill-rule="evenodd" clip-rule="evenodd" d="M6 20a2 2 0 012-2h32a2 2 0 012 2v8a2 2 0 01-2 2H8a2 2 0 01-2-2v-8zm14 3a1 1 0 011-1h12a1 1 0 011 1v2a1 1 0 01-1 1H21a1 1 0 01-1-1v-2zm-4 1a2 2 0 11-4 0 2 2 0 014 0zM6 34a2 2 0 012-2h32a2 2 0 012 2v8a2 2 0 01-2 2H8a2 2 0 01-2-2v-8zm14 3a1 1 0 011-1h12a1 1 0 011 1v2a1 1 0 01-1 1H21a1 1 0 01-1-1v-2zm-4 1a2 2 0 11-4 0 2 2 0 014 0z"/></symbol><symbol id="speaker" viewBox="0 0 48 48"><path fill-rule="evenodd" clip-rule="evenodd" d="M10 6a2 2 0 012-2h24a2 2 0 012 2v36a2 2 0 01-2 2H12a2 2 0 01-2-2V6zm14 32a8 8 0 110-16 8 8 0 010 16z"/><path style="fill: var(--opacity, #fff)" opacity=".3" fill-rule="evenodd" clip-rule="evenodd" d="M24 34a4 4 0 100-8 4 4 0 000 8z"/></symbol><symbol id="tablet" viewBox="0 0 48 48"><path fill-rule="evenodd" clip-rule="evenodd" d="M34 4H14a4 4 0 00-4 4v32a4 4 0 004 4h20a4 4 0 004-4V8a4 4 0 00-4-4zM13 40V8h22v32H13z"/><path style="fill: var(--opacity, #fff)" opacity=".3" fill-rule="evenodd" clip-rule="evenodd" d="M13 8v32h22V8H13z"/></symbol><symbol id="tv#1" viewBox="0 0 48 48"><path fill-rule="evenodd" clip-rule="evenodd" d="M39 12H9c-2.761 0-5 1.94-5 4.333v17.334C4 36.06 6.239 38 9 38h30c2.761 0 5-1.94 5-4.333V16.333C44 13.94 41.761 12 39 12zM8 34V16h32v18H8z"/><path style="fill: var(--opacity, #fff)" opacity=".3" fill-rule="evenodd" clip-rule="evenodd" d="M8 16v18h32V16H8z"/><rect opacity=".3" x="14" y="40" width="20" height="2" rx="1" fill="#000"/></symbol><symbol id="tv#2" viewBox="0 0 48 48"><path fill-rule="evenodd" clip-rule="evenodd" d="M4 11a1 1 0 011-1h38a1 1 0 011 1v24a1 1 0 01-1 1H5a1 1 0 01-1-1V11zm15.264 9.132V28H16.87v-7.868h-2.8v-2.044h7.994v2.044h-2.8zM27.476 28h2.394l3.822-9.912h-2.646l-2.282 7.028h-.056l-2.296-7.028h-2.688L27.476 28z"/><rect style="fill: var(--opacity, #fff)" opacity=".3" x="6" y="38" width="36" height="2" rx="1" fill="#000"/></symbol><symbol id="usb-storage" viewBox="0 0 48 48"><path fill-rule="evenodd" clip-rule="evenodd" d="M23 34.9L13.1 25a2 2 0 010-2.828L27.244 8.029a4 4 0 015.657 0l7.07 7.072a4 4 0 010 5.656L25.829 34.9a2 2 0 01-2.828 0z"/><path style="fill: var(--opacity, #fff)" opacity=".3" fill-rule="evenodd" clip-rule="evenodd" d="M13.808 39.85L8.15 34.191a1 1 0 010-1.414l4.95-4.95 7.07 7.071-4.95 4.95a1 1 0 01-1.413 0z"/></symbol><symbol id="usb" viewBox="0 0 48 48"><rect x="8" y="18" width="32" height="18" rx="2" fill="#000"/><path style="fill: var(--opacity, #fff)" opacity=".3" fill-rule="evenodd" clip-rule="evenodd" d="M14 6h20v12H14V6zm4 4h4v4h-4v-4zm12 0h-4v4h4v-4z"/><path opacity=".3" d="M20 36h8v5a1 1 0 01-1 1h-6a1 1 0 01-1-1v-5z"/></symbol><symbol id="video-camera" viewBox="0 0 48 48"><rect x="4" y="12" width="26" height="24" rx="2" fill="#000"/><path style="fill: var(--opacity, #fff)" opacity=".3" fill-rule="evenodd" clip-rule="evenodd" d="M42.293 13.707c.63-.63 1.707-.184 1.707.707v19.172c0 .89-1.077 1.337-1.707.707l-9.586-9.586a1 1 0 010-1.414l9.586-9.586z"/></symbol><symbol id="watch#1" viewBox="0 0 48 48"><path fill-rule="evenodd" clip-rule="evenodd" d="M30 12H18a6 6 0 00-6 6v12a6 6 0 006 6h12a6 6 0 006-6V18a6 6 0 00-6-6zm-14 6a2 2 0 012-2h12a2 2 0 012 2v12a2 2 0 01-2 2H18a2 2 0 01-2-2V18z"/><path style="fill: var(--opacity, #fff)" opacity=".3" fill-rule="evenodd" clip-rule="evenodd" d="M18 16a2 2 0 00-2 2v12a2 2 0 002 2h12a2 2 0 002-2V18a2 2 0 00-2-2H18z"/><path opacity=".3" d="M18 36h12v6.5a1.5 1.5 0 01-1.5 1.5h-9a1.5 1.5 0 01-1.5-1.5V36zM18 5.5A1.5 1.5 0 0119.5 4h9A1.5 1.5 0 0130 5.5V12H18V5.5z"/></symbol><symbol id="watch#2" viewBox="0 0 48 48"><path style="fill: var(--opacity, #fff)" opacity=".3" d="M18 34h12v8.5a1.5 1.5 0 01-1.5 1.5h-9a1.5 1.5 0 01-1.5-1.5V34z"/><path opacity=".3" fill-rule="evenodd" clip-rule="evenodd" d="M24 34c5.523 0 10-4.477 10-10s-4.477-10-10-10-10 4.477-10 10 4.477 10 10 10z"/><path opacity=".3" d="M18 5.5A1.5 1.5 0 0119.5 4h9A1.5 1.5 0 0130 5.5V14H18V5.5z"/><path fill-rule="evenodd" clip-rule="evenodd" d="M10 24c0 7.732 6.268 14 14 14s14-6.268 14-14-6.268-14-14-14-14 6.268-14 14zm24 0c0 5.523-4.477 10-10 10s-10-4.477-10-10 4.477-10 10-10 10 4.477 10 10z"/></symbol><symbol id="wi-fi" viewBox="0 0 48 48"><path style="fill: var(--opacity, #fff)" opacity=".3" fill-rule="evenodd" clip-rule="evenodd" d="M42.895 24.335l4.197-3.483A29.938 29.938 0 0023.997 10 29.938 29.938 0 00.925 20.824l4.193 3.489a24.484 24.484 0 0118.879-8.858c7.402 0 14.26 3.292 18.898 8.88zm-8.371 6.996l4.208-3.47a19.054 19.054 0 00-14.735-6.952 19.054 19.054 0 00-14.701 6.91l4.199 3.483a13.6 13.6 0 0110.502-4.938 13.6 13.6 0 0110.527 4.967z"/><path fill-rule="evenodd" clip-rule="evenodd" d="M30.238 34.71l-4.16 3.528L23.924 40l-2.058-1.703-4.256-3.41a8.17 8.17 0 016.387-3.069 8.168 8.168 0 016.24 2.891z"/></symbol></svg>