<?xml version="1.0" encoding="UTF-8"?><!DOCTYPE svg PUBLIC "-//W3C//DTD SVG 1.1//EN" "http://www.w3.org/Graphics/SVG/1.1/DTD/svg11.dtd"><svg xmlns="http://www.w3.org/2000/svg" xmlns:xlink="http://www.w3.org/1999/xlink"><defs/><symbol id="attach_file" viewBox="0 0 24 24"><path d="M16.5 6v11.5c0 2.21-1.79 4-4 4s-4-1.79-4-4V5a2.5 2.5 0 0 1 5 0v10.5c0 .55-.45 1-1 1s-1-.45-1-1V6H10v9.5a2.5 2.5 0 0 0 5 0V5c0-2.21-1.79-4-4-4S7 2.79 7 5v12.5c0 3.04 2.46 5.5 5.5 5.5s5.5-2.46 5.5-5.5V6h-1.5z"/></symbol><symbol id="attach_money" viewBox="0 0 24 24"><path d="M11.8 10.9c-2.27-.59-3-1.2-3-2.15 0-1.09 1.01-1.85 2.7-1.85 1.78 0 2.44.85 2.5 2.1h2.21c-.07-1.72-1.12-3.3-3.21-3.81V3h-3v2.16c-1.94.42-3.5 1.68-3.5 3.61 0 2.31 1.91 3.46 4.7 4.13 2.5.6 3 1.48 3 2.41 0 .69-.49 1.79-2.7 1.79-2.06 0-2.87-.92-2.98-2.1h-2.2c.12 2.19 1.76 3.42 3.68 3.83V21h3v-2.15c1.95-.37 3.5-1.5 3.5-3.55 0-2.84-2.43-3.81-4.7-4.4z"/></symbol><symbol id="border_all" viewBox="0 0 24 24"><path d="M3 3v18h18V3zm8 16H5v-6h6zm0-8H5V5h6zm8 8h-6v-6h6zm0-8h-6V5h6z"/></symbol><symbol id="border_bottom" viewBox="0 0 24 24"><path d="M9 11H7v2h2zM13 15h-2v2h2zM9 3H7v2h2zM13 11h-2v2h2zM5 3H3v2h2zM13 7h-2v2h2zM17 11h-2v2h2zM13 3h-2v2h2zM17 3h-2v2h2zM19 13h2v-2h-2zM19 17h2v-2h-2zM5 7H3v2h2zM19 3v2h2V3zM19 9h2V7h-2zM5 11H3v2h2zM3 21h18v-2H3zM5 15H3v2h2z"/></symbol><symbol id="border_clear" viewBox="0 0 24 24"><path d="M7 5h2V3H7zM7 13h2v-2H7zM7 21h2v-2H7zM11 17h2v-2h-2zM11 21h2v-2h-2zM3 21h2v-2H3zM3 17h2v-2H3zM3 13h2v-2H3zM3 9h2V7H3zM3 5h2V3H3zM11 13h2v-2h-2zM19 17h2v-2h-2zM19 13h2v-2h-2zM19 21h2v-2h-2zM19 9h2V7h-2zM11 9h2V7h-2zM19 3v2h2V3zM11 5h2V3h-2zM15 21h2v-2h-2zM15 13h2v-2h-2zM15 5h2V3h-2z"/></symbol><symbol id="border_color" viewBox="0 0 24 24"><path d="M17.75 7 14 3.25l-10 10V17h3.75zm2.96-2.96a.996.996 0 0 0 0-1.41L18.37.29a.996.996 0 0 0-1.41 0L15 2.25 18.75 6z"/><path d="M0 20h24v4H0z" fill-style="fill: var(--opacity, #fff)" opacity=".36"/></symbol><symbol id="border_horizontal" viewBox="0 0 24 24"><path d="M3 21h2v-2H3zM5 7H3v2h2zM3 17h2v-2H3zM7 21h2v-2H7zM5 3H3v2h2zM9 3H7v2h2zM17 3h-2v2h2zM13 7h-2v2h2zM13 3h-2v2h2zM19 17h2v-2h-2zM11 21h2v-2h-2zM3 13h18v-2H3zM19 3v2h2V3zM19 9h2V7h-2zM11 17h2v-2h-2zM15 21h2v-2h-2zM19 21h2v-2h-2z"/></symbol><symbol id="border_inner" viewBox="0 0 24 24"><path d="M3 21h2v-2H3zM7 21h2v-2H7zM5 7H3v2h2zM3 17h2v-2H3zM9 3H7v2h2zM5 3H3v2h2zM17 3h-2v2h2zM19 9h2V7h-2zM19 3v2h2V3zM15 21h2v-2h-2z"/><path d="M13 3h-2v8H3v2h8v8h2v-8h8v-2h-8zM19 21h2v-2h-2z"/><path d="M19 17h2v-2h-2z"/></symbol><symbol id="border_left" viewBox="0 0 24 24"><path d="M11 21h2v-2h-2zM11 17h2v-2h-2zM11 5h2V3h-2zM11 9h2V7h-2zM11 13h2v-2h-2zM7 21h2v-2H7zM7 5h2V3H7zM7 13h2v-2H7zM3 21h2V3H3zM19 9h2V7h-2zM15 21h2v-2h-2zM19 17h2v-2h-2zM19 3v2h2V3zM19 13h2v-2h-2zM19 21h2v-2h-2zM15 13h2v-2h-2zM15 5h2V3h-2z"/></symbol><symbol id="border_outer" viewBox="0 0 24 24"><path d="M13 7h-2v2h2zM13 11h-2v2h2zM17 11h-2v2h2z"/><path d="M19 19H5V5h14zM3 3v18h18V3z"/><path d="M13 15h-2v2h2zM9 11H7v2h2z"/></symbol><symbol id="border_right" viewBox="0 0 24 24"><path d="M7 21h2v-2H7zM3 5h2V3H3zM7 5h2V3H7zM7 13h2v-2H7zM3 21h2v-2H3zM11 21h2v-2h-2zM3 13h2v-2H3zM3 17h2v-2H3zM3 9h2V7H3zM11 17h2v-2h-2zM15 13h2v-2h-2zM19 3v18h2V3zM15 21h2v-2h-2zM15 5h2V3h-2zM11 13h2v-2h-2zM11 5h2V3h-2zM11 9h2V7h-2z"/></symbol><symbol id="border_style" viewBox="0 0 24 24"><path d="M15 21h2v-2h-2zM19 21h2v-2h-2zM7 21h2v-2H7zM11 21h2v-2h-2zM19 17h2v-2h-2zM19 13h2v-2h-2z"/><path d="M3 3v18h2V5h16V3z"/><path d="M19 9h2V7h-2z"/></symbol><symbol id="border_top" viewBox="0 0 24 24"><path d="M7 21h2v-2H7zM7 13h2v-2H7zM11 13h2v-2h-2zM11 21h2v-2h-2zM3 17h2v-2H3zM3 21h2v-2H3zM3 13h2v-2H3zM3 9h2V7H3zM11 17h2v-2h-2zM19 9h2V7h-2zM19 13h2v-2h-2zM3 3v2h18V3zM19 17h2v-2h-2zM15 21h2v-2h-2zM11 9h2V7h-2zM19 21h2v-2h-2zM15 13h2v-2h-2z"/></symbol><symbol id="border_vertical" viewBox="0 0 24 24"><path d="M3 9h2V7H3zM3 5h2V3H3zM7 21h2v-2H7zM7 13h2v-2H7zM3 13h2v-2H3zM3 21h2v-2H3zM3 17h2v-2H3zM7 5h2V3H7zM19 17h2v-2h-2zM11 21h2V3h-2zM19 21h2v-2h-2zM19 13h2v-2h-2zM19 3v2h2V3zM19 9h2V7h-2zM15 5h2V3h-2zM15 21h2v-2h-2zM15 13h2v-2h-2z"/></symbol><symbol id="bubble_chart" viewBox="0 0 24 24"><circle cx="7.2" cy="14.4" r="3.2"/><circle cx="14.8" cy="18" r="2"/><circle cx="15.2" cy="8.8" r="4.8"/></symbol><symbol id="drag_handle" viewBox="0 0 24 24"><path d="M20 9H4v2h16V9zM4 15h16v-2H4v2z"/></symbol><symbol id="format_align_center" viewBox="0 0 24 24"><path d="M7 15v2h10v-2zM3 21h18v-2H3zM3 13h18v-2H3zM7 7v2h10V7zM3 3v2h18V3z"/></symbol><symbol id="format_align_justify" viewBox="0 0 24 24"><path d="M3 21h18v-2H3v2zM3 17h18v-2H3v2zM3 13h18v-2H3v2zM3 9h18V7H3v2zM3 3v2h18V3H3z"/></symbol><symbol id="format_align_left" viewBox="0 0 24 24"><path d="M15 15H3v2h12zM15 7H3v2h12zM3 13h18v-2H3zM3 21h18v-2H3zM3 3v2h18V3z"/></symbol><symbol id="format_align_right" viewBox="0 0 24 24"><path d="M3 21h18v-2H3v2zM9 17h12v-2H9v2zM3 13h18v-2H3v2zM9 9h12V7H9v2zM3 3v2h18V3H3z"/></symbol><symbol id="format_bold" viewBox="0 0 24 24"><path d="M15.6 10.79c.97-.67 1.65-1.77 1.65-2.79 0-2.26-1.75-4-4-4H7v14h7.04c2.09 0 3.71-1.7 3.71-3.79 0-1.52-.86-2.82-2.15-3.42zM10 6.5h3c.83 0 1.5.67 1.5 1.5s-.67 1.5-1.5 1.5h-3v-3zm3.5 9H10v-3h3.5c.83 0 1.5.67 1.5 1.5s-.67 1.5-1.5 1.5z"/></symbol><symbol id="format_clear" viewBox="0 0 24 24"><path d="M3.27 5 2 6.27l6.97 6.97L6.5 19h3l1.57-3.66L16.73 21 18 19.73 3.55 5.27 3.27 5zM6 5v.18L8.82 8h2.4l-.72 1.68 2.1 2.1L14.21 8H20V5H6z"/></symbol><symbol id="format_color_fill" viewBox="0 0 24 24"><path d="M16.56 8.94 7.62 0 6.21 1.41l2.38 2.38-5.15 5.15a1.49 1.49 0 0 0 0 2.12l5.5 5.5c.29.29.68.44 1.06.44s.77-.15 1.06-.44l5.5-5.5c.59-.58.59-1.53 0-2.12zM5.21 10 10 5.21 14.79 10H5.21zM19 11.5s-2 2.17-2 3.5c0 1.1.9 2 2 2s2-.9 2-2c0-1.33-2-3.5-2-3.5z"/><path fill-style="fill: var(--opacity, #fff)" opacity=".36" d="M0 20h24v4H0z"/></symbol><symbol id="format_color_reset" viewBox="0 0 24 24"><path d="M18 14c0-4-6-10.8-6-10.8s-1.33 1.51-2.73 3.52l8.59 8.59c.09-.42.14-.86.14-1.31zM17.12 17.12 12.5 12.5 5.27 5.27 4 6.55l3.32 3.32C6.55 11.32 6 12.79 6 14c0 3.31 2.69 6 6 6 1.52 0 2.9-.57 3.96-1.5l2.63 2.63 1.27-1.27z"/></symbol><symbol id="format_color_text" viewBox="0 0 24 24"><path fill-style="fill: var(--opacity, #fff)" opacity=".36" d="M0 20h24v4H0z"/><path d="M11 3 5.5 17h2.25l1.12-3h6.25l1.12 3h2.25L13 3h-2zm-1.38 9L12 5.67 14.38 12H9.62z"/></symbol><symbol id="format_indent_decrease" viewBox="0 0 24 24"><path d="M11 17h10v-2H11zM3 12l4 4V8zM3 21h18v-2H3zM3 3v2h18V3zM11 9h10V7H11zM11 13h10v-2H11z"/></symbol><symbol id="format_indent_increase" viewBox="0 0 24 24"><path d="M3 21h18v-2H3zM3 8v8l4-4zM11 17h10v-2H11zM3 3v2h18V3zM11 9h10V7H11zM11 13h10v-2H11z"/></symbol><symbol id="format_italic" viewBox="0 0 24 24"><path d="M10 4v3h2.21l-3.42 8H6v3h8v-3h-2.21l3.42-8H18V4z"/></symbol><symbol id="format_line_spacing" viewBox="0 0 24 24"><path d="M6 7h2.5L5 3.5 1.5 7H4v10H1.5L5 20.5 8.5 17H6V7zM10 5v2h12V5H10zM10 19h12v-2H10v2zM10 13h12v-2H10v2z"/></symbol><symbol id="format_list_bulleted" viewBox="0 0 24 24"><path d="M4 10.5c-.83 0-1.5.67-1.5 1.5s.67 1.5 1.5 1.5 1.5-.67 1.5-1.5-.67-1.5-1.5-1.5zM4 4.5c-.83 0-1.5.67-1.5 1.5S3.17 7.5 4 7.5 5.5 6.83 5.5 6 4.83 4.5 4 4.5zM4 16.67a1.33 1.33 0 1 0-.001 2.659A1.33 1.33 0 0 0 4 16.67zM7 19h14v-2H7zM7 13h14v-2H7zM7 5v2h14V5z"/></symbol><symbol id="format_list_numbered" viewBox="0 0 24 24"><path d="M2 17h2v.5H3v1h1v.5H2v1h3v-4H2v1zM3 8h1V4H2v1h1v3zM2 11h1.8L2 13.1v.9h3v-1H3.2L5 10.9V10H2v1zM7 5v2h14V5H7zM7 19h14v-2H7v2zM7 13h14v-2H7v2z"/></symbol><symbol id="format_paint" viewBox="0 0 24 24"><path d="M18 4V3c0-.55-.45-1-1-1H5c-.55 0-1 .45-1 1v4c0 .55.45 1 1 1h12c.55 0 1-.45 1-1V6h1v4H9v11c0 .55.45 1 1 1h2c.55 0 1-.45 1-1v-9h8V4h-3z"/></symbol><symbol id="format_quote" viewBox="0 0 24 24"><path d="M6 17h3l2-4V7H5v6h3zM14 17h3l2-4V7h-6v6h3z"/></symbol><symbol id="format_shapes" viewBox="0 0 24 24"><path d="M19 5V3h2v2zm2 16h-2v-2h2zm-4-2H7v-2H5V7h2V5h10v2h2v10h-2zM5 21H3v-2h2zM3 3h2v2H3zm20 4V1h-6v2H7V1H1v6h2v10H1v6h6v-2h10v2h6v-6h-2V7z"/><path d="M10.69 12.74h2.61L12 8.91zM13.73 14h-3.49l-.73 2H7.89l3.4-9h1.4l3.41 9h-1.63z"/></symbol><symbol id="format_size" viewBox="0 0 24 24"><path d="M9 4v3h5v12h3V7h5V4H9z"/><path d="M3 12h3v7h3v-7h3V9H3v3z"/></symbol><symbol id="format_strikethrough" viewBox="0 0 24 24"><path d="M10 19h4v-3h-4zM5 4v3h5v3h4V7h5V4zM3 14h18v-2H3z"/></symbol><symbol id="format_textdirection_l_to_r" viewBox="0 0 24 24"><path d="M9 10v5h2V4h2v11h2V4h2V2H9C6.79 2 5 3.79 5 6s1.79 4 4 4z"/><path d="m21 18-4-4v3H5v2h12v3l4-4z"/></symbol><symbol id="format_textdirection_r_to_l" viewBox="0 0 24 24"><path d="M10 10v5h2V4h2v11h2V4h2V2h-8C7.79 2 6 3.79 6 6s1.79 4 4 4z"/><path d="M8 17v-3l-4 4 4 4v-3h12v-2H8z"/></symbol><symbol id="format_underline" viewBox="0 0 24 24"><path d="M12 17c3.31 0 6-2.69 6-6V3h-2.5v8c0 1.93-1.57 3.5-3.5 3.5S8.5 12.93 8.5 11V3H6v8c0 3.31 2.69 6 6 6zM5 19v2h14v-2H5z"/></symbol><symbol id="functions" viewBox="0 0 24 24"><path d="M18 4H6v2l6.5 6L6 18v2h12v-3h-7l5-5-5-5h7z"/></symbol><symbol id="highlight" viewBox="0 0 24 24"><path d="m6 14 3 3v5h6v-5l3-3V9H6zM11 2h2v3h-2zM3.5 5.875 4.914 4.46l2.12 2.122L5.62 7.997zM16.96 6.585l2.123-2.12 1.414 1.414L18.375 8z"/></symbol><symbol id="insert_chart" viewBox="0 0 24 24"><path d="M19 3H5c-1.1 0-2 .9-2 2v14c0 1.1.9 2 2 2h14c1.1 0 2-.9 2-2V5c0-1.1-.9-2-2-2zM9 17H7v-7h2v7zm4 0h-2V7h2v10zm4 0h-2v-4h2v4z"/></symbol><symbol id="insert_comment" viewBox="0 0 24 24"><path d="M20 2H4c-1.1 0-2 .9-2 2v12c0 1.1.9 2 2 2h14l4 4V4c0-1.1-.9-2-2-2zm-2 12H6v-2h12v2zm0-3H6V9h12v2zm0-3H6V6h12v2z"/></symbol><symbol id="insert_drive_file" viewBox="0 0 24 24"><path d="M6 2c-1.1 0-1.99.9-1.99 2L4 20c0 1.1.89 2 1.99 2H18c1.1 0 2-.9 2-2V8l-6-6H6zm7 7V3.5L18.5 9H13z"/></symbol><symbol id="insert_emoticon" viewBox="0 0 24 24"><path d="M12 20c-4.42 0-8-3.58-8-8s3.58-8 8-8 8 3.58 8 8-3.58 8-8 8zm-.01-18C6.47 2 2 6.48 2 12s4.47 10 9.99 10C17.52 22 22 17.52 22 12S17.52 2 11.99 2z"/><path d="M15.5 11c.83 0 1.5-.67 1.5-1.5S16.33 8 15.5 8 14 8.67 14 9.5s.67 1.5 1.5 1.5zM8.5 11c.83 0 1.5-.67 1.5-1.5S9.33 8 8.5 8 7 8.67 7 9.5 7.67 11 8.5 11zM12 17.5c2.33 0 4.31-1.46 5.11-3.5H6.89c.8 2.04 2.78 3.5 5.11 3.5z"/></symbol><symbol id="insert_invitation" viewBox="0 0 24 24"><path d="M17 12h-5v5h5v-5z"/><path d="M19 19H5V8h14v11zM16 1v2H8V1H6v2H5c-1.11 0-1.99.9-1.99 2L3 19a2 2 0 0 0 2 2h14c1.1 0 2-.9 2-2V5c0-1.1-.9-2-2-2h-1V1h-2z"/></symbol><symbol id="insert_link" viewBox="0 0 24 24"><path d="M3.9 12c0-1.71 1.39-3.1 3.1-3.1h4V7H7c-2.76 0-5 2.24-5 5s2.24 5 5 5h4v-1.9H7c-1.71 0-3.1-1.39-3.1-3.1z"/><path d="M8 13h8v-2H8z"/><path d="M17 7h-4v1.9h4c1.71 0 3.1 1.39 3.1 3.1s-1.39 3.1-3.1 3.1h-4V17h4c2.76 0 5-2.24 5-5s-2.24-5-5-5z"/></symbol><symbol id="insert_photo" viewBox="0 0 24 24"><path d="M21 19V5c0-1.1-.9-2-2-2H5c-1.1 0-2 .9-2 2v14c0 1.1.9 2 2 2h14c1.1 0 2-.9 2-2zM8.5 13.5l2.5 3.01L14.5 12l4.5 6H5l3.5-4.5z"/></symbol><symbol id="linear_scale" viewBox="0 0 24 24"><path d="M19.5 9.5c-1.03 0-1.9.62-2.29 1.5h-2.92c-.39-.88-1.26-1.5-2.29-1.5s-1.9.62-2.29 1.5H6.79c-.39-.88-1.26-1.5-2.29-1.5a2.5 2.5 0 0 0 0 5c1.03 0 1.9-.62 2.29-1.5h2.92c.39.88 1.26 1.5 2.29 1.5s1.9-.62 2.29-1.5h2.92c.39.88 1.26 1.5 2.29 1.5a2.5 2.5 0 0 0 0-5z"/></symbol><symbol id="merge_type" viewBox="0 0 24 24"><path d="M17 20.41 18.41 19 15 15.59 13.59 17 17 20.41zM7.5 8H11v5.59L5.59 19 7 20.41l6-6V8h3.5L12 3.5 7.5 8z"/></symbol><symbol id="mode_comment" viewBox="0 0 24 24"><path d="M21.99 4c0-1.1-.89-2-1.99-2H4c-1.1 0-2 .9-2 2v12c0 1.1.9 2 2 2h14l4 4z"/></symbol><symbol id="mode_edit" viewBox="0 0 24 24"><path d="M3 17.25V21h3.75L17.81 9.94l-3.75-3.75zM20.71 7.04a.996.996 0 0 0 0-1.41l-2.34-2.34a.996.996 0 0 0-1.41 0l-1.83 1.83 3.75 3.75z"/></symbol><symbol id="monetization_on" viewBox="0 0 24 24"><path d="M12 2C6.48 2 2 6.48 2 12s4.48 10 10 10 10-4.48 10-10S17.52 2 12 2zm1.41 16.09V20h-2.67v-1.93c-1.71-.36-3.16-1.46-3.27-3.4h1.96c.1 1.05.82 1.87 2.65 1.87 1.96 0 2.4-.98 2.4-1.59 0-.83-.44-1.61-2.67-2.14-2.48-.6-4.18-1.62-4.18-3.67 0-1.72 1.39-2.84 3.11-3.21V4h2.67v1.95c1.86.45 2.79 1.86 2.85 3.39H14.3c-.05-1.11-.64-1.87-2.22-1.87-1.5 0-2.4.68-2.4 1.64 0 .84.65 1.39 2.67 1.91s4.18 1.39 4.18 3.91c-.01 1.83-1.38 2.83-3.12 3.16z"/></symbol><symbol id="money_off" viewBox="0 0 24 24"><path d="M12.5 6.9c1.78 0 2.44.85 2.5 2.1h2.21c-.07-1.72-1.12-3.3-3.21-3.81V3h-3v2.16c-.53.12-1.03.3-1.48.54l1.47 1.47c.41-.17.91-.27 1.51-.27zM5.33 4.06 4.06 5.33 7.5 8.77c0 2.08 1.56 3.21 3.91 3.91l3.51 3.51c-.34.48-1.05.91-2.42.91-2.06 0-2.87-.92-2.98-2.1h-2.2c.12 2.19 1.76 3.42 3.68 3.83V21h3v-2.15c.96-.18 1.82-.55 2.45-1.12l2.22 2.22 1.27-1.27z"/></symbol><symbol id="multiline_chart" viewBox="0 0 24 24"><path d="m22 6.92-1.41-1.41-2.85 3.21C15.68 6.4 12.83 5 9.61 5 6.72 5 4.07 6.16 2 8l1.42 1.42C5.12 7.93 7.27 7 9.61 7c2.74 0 5.09 1.26 6.77 3.24l-2.88 3.24-4-4L2 16.99l1.5 1.5 6-6.01 4 4 4.05-4.55c.75 1.35 1.25 2.9 1.44 4.55H21c-.22-2.3-.95-4.39-2.04-6.14L22 6.92z"/></symbol><symbol id="pie_chart_outline" viewBox="0 0 24 24"><path d="M12 2C6.5 2 2 6.5 2 12s4.5 10 10 10 10-4.5 10-10S17.5 2 12 2zm1 2.07c3.61.45 6.48 3.33 6.93 6.93H13V4.07zM4 12c0-4.06 3.07-7.44 7-7.93v15.87c-3.93-.5-7-3.88-7-7.94zm9 7.93V13h6.93A8.002 8.002 0 0 1 13 19.93z"/></symbol><symbol id="pie_chart" viewBox="0 0 24 24"><path d="M11 2v20c-5.07-.5-9-4.79-9-10s3.93-9.5 9-10zM13.03 2v8.99H22c-.47-4.74-4.24-8.52-8.97-8.99zM13.03 13.01V22c4.74-.47 8.5-4.25 8.97-8.99z"/></symbol><symbol id="publish" viewBox="0 0 24 24"><path d="M5 4v2h14V4zM5 14h4v6h6v-6h4l-7-7z"/></symbol><symbol id="short_text" viewBox="0 0 24 24"><path d="M4 9h16v2H4zM4 13h10v2H4z"/></symbol><symbol id="show_chart" viewBox="0 0 24 24"><path d="m3.5 18.49 6-6.01 4 4L22 6.92l-1.41-1.41-7.09 7.97-4-4L2 16.99z"/></symbol><symbol id="space_bar" viewBox="0 0 24 24"><path d="M18 9v4H6V9H4v6h16V9z"/></symbol><symbol id="strikethrough_s" viewBox="0 0 24 24"><path d="M7.24 8.75c-.26-.48-.39-1.03-.39-1.67 0-.61.13-1.16.4-1.67.26-.5.63-.93 1.11-1.29a5.73 5.73 0 0 1 1.7-.83c.66-.19 1.39-.29 2.18-.29.81 0 1.54.11 2.21.34.66.22 1.23.54 1.69.94.47.4.83.88 1.08 1.43s.38 1.15.38 1.81h-3.01c0-.31-.05-.59-.15-.85-.09-.27-.24-.49-.44-.68s-.45-.33-.75-.44c-.3-.1-.66-.16-1.06-.16-.39 0-.74.04-1.03.13s-.53.21-.72.36c-.19.16-.34.34-.44.55s-.15.43-.15.66c0 .48.25.88.74 1.21.38.25.77.48 1.41.7H7.39c-.05-.08-.11-.17-.15-.25zM21 12v-2H3v2h9.62c.18.07.4.14.55.2.37.17.66.34.87.51s.35.36.43.57c.07.2.11.43.11.69 0 .23-.05.45-.14.66-.09.2-.23.38-.42.53s-.42.26-.71.35c-.29.08-.63.13-1.01.13-.43 0-.83-.04-1.18-.13s-.66-.23-.91-.42-.45-.44-.59-.75-.25-.76-.25-1.21H6.4c0 .55.08 1.13.24 1.58s.37.85.65 1.21c.28.35.6.66.98.92.37.26.78.48 1.22.65s.9.3 1.38.39c.48.08.96.13 1.44.13.8 0 1.53-.09 2.18-.28s1.21-.45 1.67-.79.82-.77 1.07-1.27.38-1.07.38-1.71c0-.6-.1-1.14-.31-1.61-.05-.11-.11-.23-.17-.33H21z"/></symbol><symbol id="text_fields" viewBox="0 0 24 24"><path d="M2.5 4v3h5v12h3V7h5V4z"/><path d="M21.5 9h-9v3h3v7h3v-7h3z"/></symbol><symbol id="title" viewBox="0 0 24 24"><path d="M5 4v3h5.5v12h3V7H19V4z"/></symbol><symbol id="vertical_align_bottom" viewBox="0 0 24 24"><path d="M16 13h-3V3h-2v10H8l4 4zM4 19v2h16v-2z"/></symbol><symbol id="vertical_align_center" viewBox="0 0 24 24"><path d="M8 19h3v4h2v-4h3l-4-4zM16 5h-3V1h-2v4H8l4 4zM4 11v2h16v-2z"/></symbol><symbol id="vertical_align_top" viewBox="0 0 24 24"><path d="M8 11h3v10h2V11h3l-4-4zM4 3v2h16V3z"/></symbol><symbol id="wrap_text" viewBox="0 0 24 24"><path d="M4 19h6v-2H4v2zM20 5H4v2h16V5z"/><path d="M17 11H4v2h13.25c1.1 0 2 .9 2 2s-.9 2-2 2H15v-2l-3 3 3 3v-2h2c2.21 0 4-1.79 4-4s-1.79-4-4-4z"/></symbol></svg>