<?xml version="1.0" encoding="UTF-8"?><!DOCTYPE svg PUBLIC "-//W3C//DTD SVG 1.1//EN" "http://www.w3.org/Graphics/SVG/1.1/DTD/svg11.dtd"><svg xmlns="http://www.w3.org/2000/svg" xmlns:xlink="http://www.w3.org/1999/xlink"><defs/><symbol id="cloud-download" viewBox="0 0 48 48"><path style="fill: var(--opacity, #fff)" opacity=".3" fill-rule="evenodd" clip-rule="evenodd" d="M29.622 13C28.29 7.824 23.592 4 18 4 11.373 4 6 9.373 6 16c0 3.144 1.209 6.005 3.187 8.145A5.252 5.252 0 0 0 14.25 28h22.5c2.9 0 5.25-2.35 5.25-5.25v-4.5c0-2.9-2.35-5.25-5.25-5.25h-7.128Z"/><path d="M31.235 36.484a.5.5 0 0 0-.381-.823h-4.992v-4.515a.5.5 0 0 0-.5-.5h-3.046a.5.5 0 0 0-.5.5v4.515h-4.992a.5.5 0 0 0-.382.823l7.015 8.285a.5.5 0 0 0 .763 0l7.015-8.285Z"/></symbol><symbol id="cloud-upload" viewBox="0 0 48 48"><path style="fill: var(--opacity, #fff)" opacity=".3" fill-rule="evenodd" clip-rule="evenodd" d="M29.622 13C28.29 7.824 23.592 4 18 4 11.373 4 6 9.373 6 16c0 3.144 1.209 6.005 3.187 8.145A5.252 5.252 0 0 0 14.25 28h22.5c2.9 0 5.25-2.35 5.25-5.25v-4.5c0-2.9-2.35-5.25-5.25-5.25h-7.128Z"/><path d="M16.604 38.162a.5.5 0 0 0 .381.823h4.992V43.5a.5.5 0 0 0 .5.5h3.046a.5.5 0 0 0 .5-.5v-4.515h4.992a.5.5 0 0 0 .381-.823l-7.014-8.285a.5.5 0 0 0-.764 0l-7.014 8.285Z"/></symbol><symbol id="compilation" viewBox="0 0 48 48"><path style="fill: var(--opacity, #fff)" opacity=".3" fill-rule="evenodd" clip-rule="evenodd" d="M4 40.5A1.5 1.5 0 0 0 5.5 42h37a1.5 1.5 0 0 0 1.5-1.5v-25a1.5 1.5 0 0 0-1.5-1.5H20l-5.56-5.56A1.5 1.5 0 0 0 13.378 8H5.5A1.5 1.5 0 0 0 4 9.5v31Z"/><rect opacity=".3" x="13.524" y="28.254" width="6.286" height="6.286" rx=".75" transform="rotate(-45 13.524 28.254)"/><rect opacity=".3" x="26.095" y="28.254" width="6.286" height="6.286" rx=".75" transform="rotate(-45 26.095 28.254)"/><rect x="19.809" y="34.54" width="6.286" height="6.286" rx=".75" transform="rotate(-45 19.81 34.54)"/><rect x="19.809" y="21.968" width="6.286" height="6.286" rx=".75" transform="rotate(-45 19.81 21.968)"/></symbol><symbol id="compiled-file" viewBox="0 0 48 48"><path style="fill: var(--opacity, #fff)" opacity=".3" d="M11.714 4h16.308a1.5 1.5 0 0 1 .969.355l10.478 8.862A1.5 1.5 0 0 1 40 14.363v25.804c0 3.58-.04 3.833-3.714 3.833H11.714C8.041 44 8 43.748 8 40.167V7.833C8 4.253 8.04 4 11.714 4Z"/><rect opacity=".3" x="13.524" y="24.254" width="6.286" height="6.286" rx=".75" transform="rotate(-45 13.524 24.254)"/><rect opacity=".3" x="26.095" y="24.254" width="6.286" height="6.286" rx=".75" transform="rotate(-45 26.095 24.254)"/><rect x="19.809" y="30.54" width="6.286" height="6.286" rx=".75" transform="rotate(-45 19.81 30.54)"/><rect x="19.809" y="17.968" width="6.286" height="6.286" rx=".75" transform="rotate(-45 19.81 17.968)"/></symbol><symbol id="deleted-file" viewBox="0 0 48 48"><path style="fill: var(--opacity, #fff)" opacity=".3" d="M11.714 4h16.308a1.5 1.5 0 0 1 .969.355l10.478 8.862A1.5 1.5 0 0 1 40 14.363v25.804c0 3.58-.04 3.833-3.714 3.833H11.714C8.041 44 8 43.748 8 40.167V7.833C8 4.253 8.04 4 11.714 4Z"/><path fill-rule="evenodd" clip-rule="evenodd" d="m21.172 26-2.829-2.828a2 2 0 0 1 2.829-2.829L24 23.172l2.828-2.829a2 2 0 0 1 2.829 2.829L26.828 26l2.829 2.828a2 2 0 1 1-2.829 2.829L24 28.828l-2.828 2.829a2 2 0 1 1-2.829-2.829L21.172 26Z"/></symbol><symbol id="deleted-folder" viewBox="0 0 48 48"><path style="fill: var(--opacity, #fff)" opacity=".3" fill-rule="evenodd" clip-rule="evenodd" d="M4 40.5A1.5 1.5 0 0 0 5.5 42h37a1.5 1.5 0 0 0 1.5-1.5v-25a1.5 1.5 0 0 0-1.5-1.5H20l-5.56-5.56A1.5 1.5 0 0 0 13.378 8H5.5A1.5 1.5 0 0 0 4 9.5v31Z"/><path fill-rule="evenodd" clip-rule="evenodd" d="M17.636 31.536a1 1 0 0 0 0 1.414l1.414 1.414a1 1 0 0 0 1.415 0L24 30.83l3.536 3.535a1 1 0 0 0 1.414 0l1.414-1.414a1 1 0 0 0 0-1.414L26.828 28l3.536-3.535a1 1 0 0 0 0-1.415l-1.414-1.414a1 1 0 0 0-1.414 0L24 25.172l-3.535-3.536a1 1 0 0 0-1.415 0l-1.414 1.414a1 1 0 0 0 0 1.415L21.172 28l-3.536 3.536Z"/></symbol><symbol id="download" viewBox="0 0 48 48"><path style="fill: var(--opacity, #fff)" opacity=".3" d="M4 26c0-1 1-2 2-2s2 1 2 2v10a4 4 0 0 0 4 4h24a4 4 0 0 0 4-4V26a2 2 0 1 1 4 0v10a8 8 0 0 1-8 8H12a8 8 0 0 1-8-8V26Z"/><rect opacity=".3" x="26" y="30" width="4" height="28" rx="1" transform="rotate(-180 26 30)"/><path d="M32.586 18.586a2 2 0 1 1 2.828 2.828l-10 10a2 2 0 0 1-2.752.073l-10-9a2 2 0 0 1 2.676-2.974l8.59 7.731 8.658-8.658Z"/></symbol><symbol id="downloaded-file" viewBox="0 0 48 48"><path style="fill: var(--opacity, #fff)" opacity=".3" d="M11.714 4h16.308a1.5 1.5 0 0 1 .969.355l10.478 8.862A1.5 1.5 0 0 1 40 14.363v25.804c0 3.58-.04 3.833-3.714 3.833H11.714C8.041 44 8 43.748 8 40.167V7.833C8 4.253 8.04 4 11.714 4Z"/><path fill-rule="evenodd" clip-rule="evenodd" d="M31.235 24.484a.5.5 0 0 0-.381-.823h-4.992v-4.515a.5.5 0 0 0-.5-.5h-3.046a.5.5 0 0 0-.5.5v4.515h-4.992a.5.5 0 0 0-.382.823l7.015 8.285a.5.5 0 0 0 .763 0l7.015-8.285Z"/></symbol><symbol id="downloads-folder" viewBox="0 0 48 48"><path style="fill: var(--opacity, #fff)" opacity=".3" fill-rule="evenodd" clip-rule="evenodd" d="M4 40.5A1.5 1.5 0 0 0 5.5 42h37a1.5 1.5 0 0 0 1.5-1.5v-25a1.5 1.5 0 0 0-1.5-1.5H20l-5.56-5.56A1.5 1.5 0 0 0 13.378 8H5.5A1.5 1.5 0 0 0 4 9.5v31Z"/><path fill-rule="evenodd" clip-rule="evenodd" d="M31.235 26.484a.5.5 0 0 0-.381-.823h-4.992v-4.515a.5.5 0 0 0-.5-.5h-3.046a.5.5 0 0 0-.5.5v4.515h-4.992a.5.5 0 0 0-.382.823l7.015 8.285a.5.5 0 0 0 .763 0l7.015-8.285Z"/></symbol><symbol id="export" viewBox="0 0 48 48"><path style="fill: var(--opacity, #fff)" opacity=".3" d="M34 16a2 2 0 0 1 0-4h2a8 8 0 0 1 8 8v16a8 8 0 0 1-8 8H12a8 8 0 0 1-8-8V19.986a8 8 0 0 1 8-8h2a2 2 0 1 1 0 4h-2a4 4 0 0 0-4 4V36a4 4 0 0 0 4 4h24a4 4 0 0 0 4-4V20a4 4 0 0 0-4-4h-2Z"/><rect opacity=".3" width="4" height="24" rx="1" transform="matrix(-1 0 0 1 26 4)"/><path d="m24 4.828 4.586 4.586a2 2 0 1 0 2.828-2.828l-6-6a2 2 0 0 0-2.828 0l-6 6a2 2 0 1 0 2.828 2.828L24 4.828Z"/></symbol><symbol id="file-cloud" viewBox="0 0 48 48"><path style="fill: var(--opacity, #fff)" opacity=".3" d="M11.714 4h16.308a1.5 1.5 0 0 1 .969.355l10.478 8.862A1.5 1.5 0 0 1 40 14.363v25.804c0 3.58-.04 3.833-3.714 3.833H11.714C8.041 44 8 43.748 8 40.167V7.833C8 4.253 8.04 4 11.714 4Z"/><path fill-rule="evenodd" clip-rule="evenodd" d="M17.273 30.927A7 7 0 1 1 27.93 24H30a4 4 0 0 1 0 8H20a3.986 3.986 0 0 1-2.727-1.073Z"/></symbol><symbol id="file-done" viewBox="0 0 48 48"><path style="fill: var(--opacity, #fff)" opacity=".3" fill-rule="evenodd" clip-rule="evenodd" d="M28.022 4H11.714C8.041 4 8 4.252 8 7.833v32.334C8 43.747 8.04 44 11.714 44h24.572C39.959 44 40 43.748 40 40.167V14.362a1.5 1.5 0 0 0-.531-1.145L28.99 4.355A1.5 1.5 0 0 0 28.022 4Zm-7.614 26.925c.384.383.863.575 1.342.575.48 0 .958-.192 1.342-.575l7.666-7.667c.767-.766.767-1.916 0-2.683-.766-.767-1.916-.767-2.683 0L21.75 26.9l-2.492-2.492c-.67-.766-1.916-.766-2.683 0-.767.767-.767 1.917 0 2.684l3.833 3.833Z"/><path fill-rule="evenodd" clip-rule="evenodd" d="M21.75 31.5c-.48 0-.958-.192-1.342-.575l-3.833-3.833c-.767-.767-.767-1.917 0-2.684.767-.766 2.012-.766 2.683 0L21.75 26.9l6.325-6.325c.767-.767 1.917-.767 2.683 0 .767.767.767 1.917 0 2.683l-7.666 7.667a1.892 1.892 0 0 1-1.342.575Z"/></symbol><symbol id="file-minus" viewBox="0 0 48 48"><path style="fill: var(--opacity, #fff)" opacity=".3" d="M11.714 4h16.308a1.5 1.5 0 0 1 .969.355l10.478 8.862A1.5 1.5 0 0 1 40 14.363v25.804c0 3.58-.04 3.833-3.714 3.833H11.714C8.041 44 8 43.748 8 40.167V7.833C8 4.253 8.04 4 11.714 4Z"/><rect x="18" y="24" width="12" height="4" rx="1"/></symbol><symbol id="file-plus" viewBox="0 0 48 48"><path style="fill: var(--opacity, #fff)" opacity=".3" d="M11.714 4h16.308a1.5 1.5 0 0 1 .969.355l10.478 8.862A1.5 1.5 0 0 1 40 14.363v25.804c0 3.58-.04 3.833-3.714 3.833H11.714C8.041 44 8 43.748 8 40.167V7.833C8 4.253 8.04 4 11.714 4Z"/><path fill-rule="evenodd" clip-rule="evenodd" d="M22 28h-4a2 2 0 1 1 0-4h4v-4a2 2 0 1 1 4 0v4h4a2 2 0 0 1 0 4h-4v4a2 2 0 0 1-4 0v-4Z"/></symbol><symbol id="file" viewBox="0 0 48 48"><path style="fill: var(--opacity, #fff)" opacity=".3" d="M11.714 4h16.308a1.5 1.5 0 0 1 .969.355l10.478 8.862A1.5 1.5 0 0 1 40 14.363v25.804c0 3.58-.04 3.833-3.714 3.833H11.714C8.041 44 8 43.748 8 40.167V7.833C8 4.253 8.04 4 11.714 4Z"/><rect x="12" y="22" width="18" height="4" rx="1"/><rect x="12" y="30" width="10" height="4" rx="1"/></symbol><symbol id="folder-check-1" viewBox="0 0 48 48"><path style="fill: var(--opacity, #fff)" opacity=".3" fill-rule="evenodd" clip-rule="evenodd" d="M4 40.5A1.5 1.5 0 0 0 5.5 42h37a1.5 1.5 0 0 0 1.5-1.5v-25a1.5 1.5 0 0 0-1.5-1.5H20l-5.56-5.56A1.5 1.5 0 0 0 13.378 8H5.5A1.5 1.5 0 0 0 4 9.5v31Z"/><path fill-rule="evenodd" clip-rule="evenodd" d="M21.75 33.5c-.48 0-.958-.192-1.342-.575l-3.833-3.833c-.767-.767-.767-1.917 0-2.684.767-.766 2.012-.766 2.683 0L21.75 28.9l6.325-6.325c.767-.767 1.917-.767 2.683 0 .767.767.767 1.917 0 2.683l-7.666 7.667a1.892 1.892 0 0 1-1.342.575Z"/></symbol><symbol id="folder-check" viewBox="0 0 48 48"><path fill-rule="evenodd" clip-rule="evenodd" d="M21.967 42H42.5a1.5 1.5 0 0 0 1.5-1.5v-25a1.5 1.5 0 0 0-1.5-1.5H20l-5.56-5.56A1.5 1.5 0 0 0 13.378 8H5.5A1.5 1.5 0 0 0 4 9.5v16.8c.97-.197 1.973-.3 3-.3 8.284 0 15 6.716 15 15 0 .336-.011.67-.033 1Z"/><path style="fill: var(--opacity, #fff)" opacity=".3" d="M5.75 45.5c-.48 0-.958-.192-1.342-.575L.575 41.092c-.767-.767-.767-1.917 0-2.684.767-.766 2.013-.766 2.683 0L5.75 40.9l6.325-6.325c.767-.767 1.917-.767 2.683 0 .767.767.767 1.917 0 2.683l-7.666 7.667a1.892 1.892 0 0 1-1.342.575Z"/></symbol><symbol id="folder-cloud" viewBox="0 0 48 48"><path style="fill: var(--opacity, #fff)" opacity=".3" fill-rule="evenodd" clip-rule="evenodd" d="M4 40.5A1.5 1.5 0 0 0 5.5 42h37a1.5 1.5 0 0 0 1.5-1.5v-25a1.5 1.5 0 0 0-1.5-1.5H20l-5.56-5.56A1.5 1.5 0 0 0 13.378 8H5.5A1.5 1.5 0 0 0 4 9.5v31Z"/><path fill-rule="evenodd" clip-rule="evenodd" d="M27.93 26A7.001 7.001 0 0 0 14 27a6.995 6.995 0 0 0 3.273 5.926A3.986 3.986 0 0 0 20 34h10a4 4 0 0 0 0-8h-2.07Z"/></symbol><symbol id="folder-error" viewBox="0 0 48 48"><path fill-rule="evenodd" clip-rule="evenodd" d="M21.967 42H42.5a1.5 1.5 0 0 0 1.5-1.5v-25a1.5 1.5 0 0 0-1.5-1.5H20l-5.56-5.56A1.5 1.5 0 0 0 13.378 8H5.5A1.5 1.5 0 0 0 4 9.5v16.8c.97-.197 1.973-.3 3-.3 8.284 0 15 6.716 15 15 0 .336-.011.67-.033 1Z"/><path style="fill: var(--opacity, #fff)" opacity=".3" fill-rule="evenodd" clip-rule="evenodd" d="M8 32a1 1 0 0 0-1 1v6a1 1 0 0 0 1 1h2a1 1 0 0 0 1-1v-6a1 1 0 0 0-1-1H8Zm3 12a2 2 0 1 1-4 0 2 2 0 0 1 4 0Z"/></symbol><symbol id="folder-heart" viewBox="0 0 48 48"><path style="fill: var(--opacity, #fff)" opacity=".3" fill-rule="evenodd" clip-rule="evenodd" d="M4 40.5A1.5 1.5 0 0 0 5.5 42h37a1.5 1.5 0 0 0 1.5-1.5v-25a1.5 1.5 0 0 0-1.5-1.5H20l-5.56-5.56A1.5 1.5 0 0 0 13.378 8H5.5A1.5 1.5 0 0 0 4 9.5v31Z"/><path opacity=".3" d="M28.7 21c-1.61 0-3.492 1.825-4.5 3-1.008-1.175-2.89-3-4.5-3-2.849 0-4.5 2.222-4.5 5.05 0 4.7 9 9.95 9 9.95s9-5.25 9-9.75c0-2.828-1.651-5.25-4.5-5.25Z"/></symbol><symbol id="folder-minus" viewBox="0 0 48 48"><path style="fill: var(--opacity, #fff)" opacity=".3" fill-rule="evenodd" clip-rule="evenodd" d="M4 40.5A1.5 1.5 0 0 0 5.5 42h37a1.5 1.5 0 0 0 1.5-1.5v-25a1.5 1.5 0 0 0-1.5-1.5H20l-5.56-5.56A1.5 1.5 0 0 0 13.378 8H5.5A1.5 1.5 0 0 0 4 9.5v31Z"/><rect x="18" y="26" width="12" height="4" rx="1"/></symbol><symbol id="folder-plus" viewBox="0 0 48 48"><path style="fill: var(--opacity, #fff)" opacity=".3" fill-rule="evenodd" clip-rule="evenodd" d="M4 40.5A1.5 1.5 0 0 0 5.5 42h37a1.5 1.5 0 0 0 1.5-1.5v-25a1.5 1.5 0 0 0-1.5-1.5H20l-5.56-5.56A1.5 1.5 0 0 0 13.378 8H5.5A1.5 1.5 0 0 0 4 9.5v31Z"/><path fill-rule="evenodd" clip-rule="evenodd" d="M22 26v-4a2 2 0 1 1 4 0v4h4a2 2 0 1 1 0 4h-4v4a2 2 0 1 1-4 0v-4h-4a2 2 0 1 1 0-4h4Z"/></symbol><symbol id="folder-solid" viewBox="0 0 48 48"><path fill-rule="evenodd" clip-rule="evenodd" d="M4 40.5A1.5 1.5 0 0 0 5.5 42h37a1.5 1.5 0 0 0 1.5-1.5v-25a1.5 1.5 0 0 0-1.5-1.5H20l-5.56-5.56A1.5 1.5 0 0 0 13.378 8H5.5A1.5 1.5 0 0 0 4 9.5v31Z"/></symbol><symbol id="folder-star" viewBox="0 0 48 48"><path style="fill: var(--opacity, #fff)" opacity=".3" fill-rule="evenodd" clip-rule="evenodd" d="M4 40.5A1.5 1.5 0 0 0 5.5 42h37a1.5 1.5 0 0 0 1.5-1.5v-25a1.5 1.5 0 0 0-1.5-1.5H20l-5.56-5.56A1.5 1.5 0 0 0 13.378 8H5.5A1.5 1.5 0 0 0 4 9.5v31Z"/><path opacity=".3" fill-rule="evenodd" clip-rule="evenodd" d="m24 34.455-4.396 2.416c-.526.289-1.177.077-1.454-.473a1.17 1.17 0 0 1-.108-.713l.84-5.116-3.557-3.623a1.16 1.16 0 0 1-.02-1.59 1.06 1.06 0 0 1 .617-.328l4.915-.746 2.198-4.655c.263-.557.908-.785 1.441-.51.213.109.384.288.49.51l2.197 4.655 4.915.746c.589.09.996.66.91 1.275a1.144 1.144 0 0 1-.313.643l-3.557 3.623.84 5.116c.1.612-.293 1.194-.88 1.299a1.036 1.036 0 0 1-.682-.113L24 34.455Z"/></symbol><symbol id="folder-thunder" viewBox="0 0 48 48"><path style="fill: var(--opacity, #fff)" opacity=".3" fill-rule="evenodd" clip-rule="evenodd" d="M4 40.5A1.5 1.5 0 0 0 5.5 42h37a1.5 1.5 0 0 0 1.5-1.5v-25a1.5 1.5 0 0 0-1.5-1.5H20l-5.56-5.56A1.5 1.5 0 0 0 13.378 8H5.5A1.5 1.5 0 0 0 4 9.5v31Z"/><path opacity=".3" fill-rule="evenodd" clip-rule="evenodd" d="M22.593 39.221c0 .742.963 1.034 1.374.416l8.75-13.124a.75.75 0 0 0-.624-1.166h-6.775v-8.424c0-.742-.962-1.034-1.374-.416l-8.75 13.124a.75.75 0 0 0 .625 1.166h6.774v8.424Z"/></symbol><symbol id="folder" viewBox="0 0 48 48"><path style="fill: var(--opacity, #fff)" opacity=".3" fill-rule="evenodd" clip-rule="evenodd" d="M4 40.5A1.5 1.5 0 0 0 5.5 42h37a1.5 1.5 0 0 0 1.5-1.5v-25a1.5 1.5 0 0 0-1.5-1.5H20l-5.56-5.56A1.5 1.5 0 0 0 13.378 8H5.5A1.5 1.5 0 0 0 4 9.5v31Z"/></symbol><symbol id="group-folders" viewBox="0 0 48 48"><path style="fill: var(--opacity, #fff)" opacity=".3" fill-rule="evenodd" clip-rule="evenodd" d="M6 40.5A1.5 1.5 0 0 0 7.5 42h37a1.5 1.5 0 0 0 1.5-1.5v-25a1.5 1.5 0 0 0-1.5-1.5H22l-5.56-5.56A1.5 1.5 0 0 0 15.378 8H7.5A1.5 1.5 0 0 0 6 9.5v31Z"/><path fill-rule="evenodd" clip-rule="evenodd" d="M2 36.5A1.5 1.5 0 0 0 3.5 38h37a1.5 1.5 0 0 0 1.5-1.5v-25a1.5 1.5 0 0 0-1.5-1.5H18l-5.56-5.56A1.5 1.5 0 0 0 11.378 4H3.5A1.5 1.5 0 0 0 2 5.5v31Z"/></symbol><symbol id="import" viewBox="0 0 48 48"><rect style="fill: var(--opacity, #fff)" opacity=".3" x="26" y="26" width="4" height="24" rx="1" transform="rotate(-180 26 26)"/><path opacity=".3" d="M34 16a2 2 0 0 1 0-4h2a8 8 0 0 1 8 8v16a8 8 0 0 1-8 8H12a8 8 0 0 1-8-8V19.986a8 8 0 0 1 8-8h2a2 2 0 1 1 0 4h-2a4 4 0 0 0-4 4V36a4 4 0 0 0 4 4h24a4 4 0 0 0 4-4V20a4 4 0 0 0-4-4h-2Z"/><path d="M28.586 20.586a2 2 0 1 1 2.828 2.828l-6 6a2 2 0 0 1-2.828 0l-6-6a2 2 0 1 1 2.828-2.828L24 25.172l4.586-4.586Z"/></symbol><symbol id="locked-folder-1" viewBox="0 0 48 48"><path style="fill: var(--opacity, #fff)" opacity=".3" fill-rule="evenodd" clip-rule="evenodd" d="M4 40.5A1.5 1.5 0 0 0 5.5 42h37a1.5 1.5 0 0 0 1.5-1.5v-25a1.5 1.5 0 0 0-1.5-1.5H20l-5.56-5.56A1.5 1.5 0 0 0 13.378 8H5.5A1.5 1.5 0 0 0 4 9.5v31Z"/><path fill-rule="evenodd" clip-rule="evenodd" d="M19 22.5a2.5 2.5 0 0 1 2.5-2.5h5a2.5 2.5 0 0 1 2.5 2.5V26h1a1 1 0 0 1 1 1v8a1 1 0 0 1-1 1H18a1 1 0 0 1-1-1v-8a1 1 0 0 1 1-1h1v-3.5Zm3.5-.5a1.5 1.5 0 0 0-1.5 1.5V26h6v-2.5a1.5 1.5 0 0 0-1.5-1.5h-3Z"/></symbol><symbol id="locked-folder" viewBox="0 0 48 48"><path fill-rule="evenodd" clip-rule="evenodd" d="M21.967 42H42.5a1.5 1.5 0 0 0 1.5-1.5v-25a1.5 1.5 0 0 0-1.5-1.5H20l-5.56-5.56A1.5 1.5 0 0 0 13.378 8H5.5A1.5 1.5 0 0 0 4 9.5v16.8c.97-.197 1.973-.3 3-.3 8.284 0 15 6.716 15 15 0 .336-.011.67-.033 1Z"/><path style="fill: var(--opacity, #fff)" opacity=".3" fill-rule="evenodd" clip-rule="evenodd" d="M4 34.5A2.5 2.5 0 0 1 6.5 32h5a2.5 2.5 0 0 1 2.5 2.5V38h1a1 1 0 0 1 1 1v8a1 1 0 0 1-1 1H3a1 1 0 0 1-1-1v-8a1 1 0 0 1 1-1h1v-3.5Zm3.5-.5A1.5 1.5 0 0 0 6 35.5V38h6v-2.5a1.5 1.5 0 0 0-1.5-1.5h-3Z"/></symbol><symbol id="media-folder" viewBox="0 0 48 48"><path style="fill: var(--opacity, #fff)" opacity=".3" fill-rule="evenodd" clip-rule="evenodd" d="M4 40.5A1.5 1.5 0 0 0 5.5 42h37a1.5 1.5 0 0 0 1.5-1.5v-25a1.5 1.5 0 0 0-1.5-1.5H20l-5.56-5.56A1.5 1.5 0 0 0 13.378 8H5.5A1.5 1.5 0 0 0 4 9.5v31Z"/><path fill-rule="evenodd" clip-rule="evenodd" d="M20 35.142a.5.5 0 0 0 .782.413l10.191-6.966a.5.5 0 0 0 .001-.825l-10.19-7.01a.5.5 0 0 0-.784.412v13.976Z"/></symbol><symbol id="media" viewBox="0 0 48 48"><path style="fill: var(--opacity, #fff)" opacity=".3" d="M11.714 4h16.308a1.5 1.5 0 0 1 .969.355l10.478 8.862A1.5 1.5 0 0 1 40 14.363v25.804c0 3.58-.04 3.833-3.714 3.833H11.714C8.041 44 8 43.748 8 40.167V7.833C8 4.253 8.04 4 11.714 4Z"/><path fill-rule="evenodd" clip-rule="evenodd" d="M20 31.733a.5.5 0 0 0 .782.412l10.191-6.966a.5.5 0 0 0 .001-.825l-10.19-7.01a.5.5 0 0 0-.784.412v13.977Z"/></symbol><symbol id="music" viewBox="0 0 48 48"><path style="fill: var(--opacity, #fff)" opacity=".3" d="M11.714 4h16.308a1.5 1.5 0 0 1 .969.355l10.478 8.862A1.5 1.5 0 0 1 40 14.363v25.804c0 3.58-.04 3.833-3.714 3.833H11.714C8.041 44 8 43.748 8 40.167V7.833C8 4.253 8.04 4 11.714 4Z"/><path fill-rule="evenodd" clip-rule="evenodd" d="M19.667 34C17.642 34 16 32.632 16 30.944c0-1.687 1.642-3.055 3.667-3.055.428 0 .84.061 1.222.174v-8.48c0-.627.39-1.18.965-1.367l7.027-2.15c.886-.288 1.786.401 1.786 1.368v2.15c0 .716-.671 1.173-1.223 1.305-.793.19-2.83.597-6.11 1.222v8.896c0 .11-.01.211-.027.305C23.09 32.826 21.542 34 19.667 34Z"/></symbol><symbol id="pictures#1" viewBox="0 0 48 48"><path style="fill: var(--opacity, #fff)" opacity=".3" fill-rule="evenodd" clip-rule="evenodd" d="M4 40.5A1.5 1.5 0 0 0 5.5 42h37a1.5 1.5 0 0 0 1.5-1.5v-25a1.5 1.5 0 0 0-1.5-1.5H20l-5.56-5.56A1.5 1.5 0 0 0 13.378 8H5.5A1.5 1.5 0 0 0 4 9.5v31Z"/><path opacity=".3" fill-rule="evenodd" clip-rule="evenodd" d="m8 38 12-16 12 16H8Z"/><path fill-rule="evenodd" clip-rule="evenodd" d="m22 38 8-10 8 10H22Z"/><path opacity=".3" fill-rule="evenodd" clip-rule="evenodd" d="M36 24a3 3 0 1 0 0-6 3 3 0 0 0 0 6Z"/></symbol><symbol id="pictures#2" viewBox="0 0 48 48"><path style="fill: var(--opacity, #fff)" opacity=".3" fill-rule="evenodd" clip-rule="evenodd" d="M4 40.5A1.5 1.5 0 0 0 5.5 42h37a1.5 1.5 0 0 0 1.5-1.5v-25a1.5 1.5 0 0 0-1.5-1.5H20l-5.56-5.56A1.5 1.5 0 0 0 13.378 8H5.5A1.5 1.5 0 0 0 4 9.5v31Z"/><path opacity=".3" fill-rule="evenodd" clip-rule="evenodd" d="M27 38a5 5 0 1 0 0-10 5 5 0 0 0 0 10Z"/><path opacity=".3" fill-rule="evenodd" clip-rule="evenodd" d="M21 38a5 5 0 1 0 0-10 5 5 0 0 0 0 10Z"/><path opacity=".3" fill-rule="evenodd" clip-rule="evenodd" d="M19 32a5 5 0 1 0 0-10 5 5 0 0 0 0 10Z"/><path opacity=".3" fill-rule="evenodd" clip-rule="evenodd" d="M29 32a5 5 0 1 0 0-10 5 5 0 0 0 0 10Z"/><path opacity=".3" fill-rule="evenodd" clip-rule="evenodd" d="M24 28a5 5 0 1 0 0-10 5 5 0 0 0 0 10Z"/></symbol><symbol id="protected-file" viewBox="0 0 48 48"><path style="fill: var(--opacity, #fff)" opacity=".3" d="M11.714 4h16.308a1.5 1.5 0 0 1 .969.355l10.478 8.862A1.5 1.5 0 0 1 40 14.363v25.804c0 3.58-.04 3.833-3.714 3.833H11.714C8.041 44 8 43.748 8 40.167V7.833C8 4.253 8.04 4 11.714 4Z"/><path fill-rule="evenodd" clip-rule="evenodd" d="M19 20.5a2.5 2.5 0 0 1 2.5-2.5h5a2.5 2.5 0 0 1 2.5 2.5V24h1a1 1 0 0 1 1 1v8a1 1 0 0 1-1 1H18a1 1 0 0 1-1-1v-8a1 1 0 0 1 1-1h1v-3.5Zm3.5-.5a1.5 1.5 0 0 0-1.5 1.5V24h6v-2.5a1.5 1.5 0 0 0-1.5-1.5h-3Z"/></symbol><symbol id="selected-file" viewBox="0 0 48 48"><path style="fill: var(--opacity, #fff)" opacity=".3" fill-rule="evenodd" clip-rule="evenodd" d="M9.714 2h14.308a1.5 1.5 0 0 1 .969.355l10.478 8.862A1.5 1.5 0 0 1 36 12.363v25.804c0 3.58-.04 3.833-3.714 3.833H9.714C6.041 42 6 41.748 6 38.167V5.833C6 2.253 6.04 2 9.714 2ZM14 25a1 1 0 0 1 1-1h16a1 1 0 0 1 1 1v2a1 1 0 0 1-1 1H15a1 1 0 0 1-1-1v-2Zm1 7a1 1 0 0 0-1 1v2a1 1 0 0 0 1 1h8a1 1 0 0 0 1-1v-2a1 1 0 0 0-1-1h-8Z"/><path fill-rule="evenodd" clip-rule="evenodd" d="M13.714 6h16.308a1.5 1.5 0 0 1 .969.355l10.478 8.862A1.5 1.5 0 0 1 42 16.363v25.804c0 3.58-.04 3.833-3.714 3.833H13.714C10.041 46 10 45.748 10 42.167V9.833C10 6.253 10.04 6 13.714 6ZM14 25a1 1 0 0 1 1-1h16a1 1 0 0 1 1 1v2a1 1 0 0 1-1 1H15a1 1 0 0 1-1-1v-2Zm1 7a1 1 0 0 0-1 1v2a1 1 0 0 0 1 1h8a1 1 0 0 0 1-1v-2a1 1 0 0 0-1-1h-8Z"/></symbol><symbol id="share" viewBox="0 0 48 48"><path fill-rule="evenodd" clip-rule="evenodd" d="M30.155 9.575a7.974 7.974 0 0 0 1.824 3.693L17.73 21.931a7.995 7.995 0 0 0-2.218-3.73l14.643-8.626Zm-14.48 20.063a7.992 7.992 0 0 0 2.049-3.547l14.472 8.403a7.987 7.987 0 0 0-1.95 3.528l-14.57-8.384Z"/><path style="fill: var(--opacity, #fff)" opacity=".3" fill-rule="evenodd" clip-rule="evenodd" d="M38 14a6 6 0 1 0 0-12 6 6 0 0 0 0 12ZM38 46a6 6 0 1 0 0-12 6 6 0 0 0 0 12ZM10 30a6 6 0 1 0 0-12 6 6 0 0 0 0 12Z"/></symbol><symbol id="upload-folder" viewBox="0 0 48 48"><path style="fill: var(--opacity, #fff)" opacity=".3" fill-rule="evenodd" clip-rule="evenodd" d="M4 40.5A1.5 1.5 0 0 0 5.5 42h37a1.5 1.5 0 0 0 1.5-1.5v-25a1.5 1.5 0 0 0-1.5-1.5H20l-5.56-5.56A1.5 1.5 0 0 0 13.378 8H5.5A1.5 1.5 0 0 0 4 9.5v31Z"/><path fill-rule="evenodd" clip-rule="evenodd" d="M15.587 28.149a.5.5 0 0 0 .37.836h5.375V33.5a.5.5 0 0 0 .5.5h3.336a.5.5 0 0 0 .5-.5v-4.515h5.375a.5.5 0 0 0 .37-.836l-7.543-8.315a.5.5 0 0 0-.74 0l-7.543 8.315Z"/></symbol><symbol id="upload" viewBox="0 0 48 48"><path style="fill: var(--opacity, #fff)" opacity=".3" d="M4 26c0-1 1-2 2-2s2 1 2 2v10a4 4 0 0 0 4 4h24a4 4 0 0 0 4-4V26a2 2 0 1 1 4 0v10a8 8 0 0 1-8 8H12a8 8 0 0 1-8-8V26Z"/><rect opacity=".3" x="22" y="4" width="4" height="28" rx="1"/><path d="m24.073 6.756-8.659 8.658a2 2 0 1 1-2.828-2.828l10-10a2 2 0 0 1 2.752-.073l10 9a2 2 0 0 1-2.676 2.974l-8.59-7.731Z"/></symbol><symbol id="uploaded-file" viewBox="0 0 48 48"><path style="fill: var(--opacity, #fff)" opacity=".3" d="M11.714 4h16.308a1.5 1.5 0 0 1 .969.355l10.478 8.862A1.5 1.5 0 0 1 40 14.363v25.804c0 3.58-.04 3.833-3.714 3.833H11.714C8.041 44 8 43.748 8 40.167V7.833C8 4.253 8.04 4 11.714 4Z"/><path fill-rule="evenodd" clip-rule="evenodd" d="M16.442 26.808a.5.5 0 0 0 .382.823h4.991v4.515a.5.5 0 0 0 .5.5h3.047a.5.5 0 0 0 .5-.5v-4.515h4.992a.5.5 0 0 0 .381-.823l-7.015-8.285a.5.5 0 0 0-.763 0l-7.015 8.285Z"/></symbol><symbol id="user-folder" viewBox="0 0 48 48"><path style="fill: var(--opacity, #fff)" opacity=".3" fill-rule="evenodd" clip-rule="evenodd" d="M4 40.5A1.5 1.5 0 0 0 5.5 42h37a1.5 1.5 0 0 0 1.5-1.5v-25a1.5 1.5 0 0 0-1.5-1.5H20l-5.56-5.56A1.5 1.5 0 0 0 13.378 8H5.5A1.5 1.5 0 0 0 4 9.5v31Z"/><path opacity=".3" fill-rule="evenodd" clip-rule="evenodd" d="M24 26a4 4 0 1 1 0-8 4 4 0 0 1 0 8ZM14 36.999C14.432 31.033 18.736 28 23.983 28c5.32 0 9.69 2.866 10.016 9 .013.244 0 1-.835 1H14.808c-.278 0-.83-.676-.807-1.001Z"/></symbol></svg>