<?xml version="1.0" encoding="UTF-8"?><!DOCTYPE svg PUBLIC "-//W3C//DTD SVG 1.1//EN" "http://www.w3.org/Graphics/SVG/1.1/DTD/svg11.dtd"><svg xmlns="http://www.w3.org/2000/svg" xmlns:xlink="http://www.w3.org/1999/xlink"><defs/><symbol id="beer" viewBox="0 0 48 48"><path style="fill: var(--opacity, #fff)" opacity=".3" d="M32 14v4h6a2 2 0 012 2v6a2 2 0 01-2 2h-6v4h6a6 6 0 006-6v-6a6 6 0 00-6-6h-6z"/><path opacity=".3" fill-rule="evenodd" clip-rule="evenodd" d="M24.485 10A8.991 8.991 0 0017 6a8.991 8.991 0 00-7.484 4h14.969z"/><path opacity=".3" fill-rule="evenodd" clip-rule="evenodd" d="M14 10h16a8 8 0 10-16 0z"/><path opacity=".3" fill-rule="evenodd" clip-rule="evenodd" d="M24.1 10h9.8a5.002 5.002 0 00-9.8 0z"/><path fill-rule="evenodd" clip-rule="evenodd" d="M7.121 10a1 1 0 00-1 1v31a2 2 0 002 2H33.88a2 2 0 002-2V11a1 1 0 00-1-1H7.12zM14 17a1 1 0 011-1h2a1 1 0 011 1v20a1 1 0 01-1 1h-2a1 1 0 01-1-1V17zm10 0a1 1 0 011-1h2a1 1 0 011 1v20a1 1 0 01-1 1h-2a1 1 0 01-1-1V17z"/></symbol><symbol id="bottle#1" viewBox="0 0 48 58"><rect x="16" y="24" width="24" height="34" rx="1" fill="#000"/><rect style="fill: var(--opacity, #fff)" opacity=".3" x="18" y="2" width="12" height="6" rx="1" fill="#000"/></symbol><symbol id="bottle#2" viewBox="0 0 48 48"><path fill-rule="evenodd" clip-rule="evenodd" d="M16 36v9a1 1 0 001 1h14a1 1 0 001-1V20.414a1 1 0 00-.293-.707l-3.414-3.414a1 1 0 01-.293-.707V9a1 1 0 00-1-1h-6a1 1 0 00-1 1v6.586a1 1 0 01-.293.707l-3.414 3.414a1 1 0 00-.293.707V26h8v10h-8z"/><rect style="fill: var(--opacity, #fff)" opacity=".3" x="20" y="2" width="8" height="4" rx="1" fill="#000"/></symbol><symbol id="bread" viewBox="0 0 48 48"><path style="fill: var(--opacity, #fff)" opacity=".3" fill-rule="evenodd" clip-rule="evenodd" d="M13.5 8a3.5 3.5 0 00-3.5 3.5v7a3.5 3.5 0 003.5 3.5h.5v18a2 2 0 002 2h24a2 2 0 002-2V22h.5a3.5 3.5 0 003.5-3.5v-7A3.5 3.5 0 0042.5 8h-29z"/><path fill-rule="evenodd" clip-rule="evenodd" d="M5.5 8A3.5 3.5 0 002 11.5v7A3.5 3.5 0 005.5 22H6v18a2 2 0 002 2h24a2 2 0 002-2V22h.5a3.5 3.5 0 003.5-3.5v-7A3.5 3.5 0 0034.5 8h-29z"/></symbol><symbol id="bucket" viewBox="0 0 48 48"><rect style="fill: var(--opacity, #fff)" opacity=".3" x="14" y="2" width="20" height="6" rx="1" fill="#000"/><path fill-rule="evenodd" clip-rule="evenodd" d="M13.726 12a5 5 0 00-5 5v25a2 2 0 002 2h26.547a2 2 0 002-2V17a5 5 0 00-5-5H13.726zM16 18a2 2 0 00-2 2v6a2 2 0 002 2h16a2 2 0 002-2v-6a2 2 0 00-2-2H16z"/></symbol><symbol id="burger" viewBox="0 0 48 48"><path fill-rule="evenodd" clip-rule="evenodd" d="M30 30H6c0 5.523 4.477 10 10 10h16c5.523 0 10-4.477 10-10h-5l-2.747 3.14a1 1 0 01-1.506 0L30 30z"/><path d="M42 18H6c0-5.523 4.477-10 10-10h16c5.523 0 10 4.477 10 10z"/><rect style="fill: var(--opacity, #fff)" opacity=".3" x="4" y="22" width="40" height="4" rx="1" fill="#000"/></symbol><symbol id="cake" viewBox="0 0 48 48"><path fill-rule="evenodd" clip-rule="evenodd" d="M26 22h8a8.001 8.001 0 017.962 7.21l-1.376 1.376C38.266 32.906 36.078 34 34 34c-.956 0-1.624-.296-2.87-1.196l-.579-.422C28.272 30.726 26.611 30 24.001 30c-2.565 0-4.243.675-6.84 2.306l-.598.375C14.998 33.655 14.13 34 13 34c-1.345 0-2.637-.566-3.83-1.545-.747-.615-1.276-1.228-1.52-1.584-.48-.606-.655-.827-1.574-1.977A8.002 8.002 0 0114 22h8v-4h4v4z"/><path style="fill: var(--opacity, #fff)" opacity=".3" fill-rule="evenodd" clip-rule="evenodd" d="M24 14a4 4 0 004-4c0-2.21-4-6-4-6s-4 3.79-4 6a4 4 0 004 4zM42 34.714V42a2 2 0 01-2 2H8a2 2 0 01-2-2v-7.005c.196.181.407.366.631.55C8.481 37.065 10.615 38 13 38c2.052 0 3.533-.588 5.677-1.923l.61-.383C21.303 34.428 22.368 34 24 34c1.598 0 2.54.411 4.199 1.617.287.21.457.335.59.43C30.655 37.394 32.019 38 34 38c2.75 0 5.42-1.122 8-3.286z"/></symbol><symbol id="carrot" viewBox="0 0 48 48"><path style="fill: var(--opacity, #fff)" opacity=".3" fill-rule="evenodd" clip-rule="evenodd" d="M25.773 22.956S20.969 5.45 31.711.796c6.614 9.304-5.938 22.16-5.938 22.16z"/><path opacity=".3" fill-rule="evenodd" clip-rule="evenodd" d="M46.12 15.338s-17.508-4.804-22.16 5.938c9.303 6.614 22.16-5.938 22.16-5.938z"/><path opacity=".3" fill-rule="evenodd" clip-rule="evenodd" d="M40.01 6.99S22.447 11.582 23.79 23.212C35.151 24.288 40.01 6.99 40.01 6.99z"/><path fill-rule="evenodd" clip-rule="evenodd" d="M5.157 35.027l.58.58a2 2 0 102.828-2.829l-1.382-1.382 2.025-3.631 2.185 2.185a2 2 0 002.829-2.829l-2.829-2.828a2.015 2.015 0 00-.165-.148l2.032-3.642 3.79 3.79a2 2 0 102.829-2.828l-4.243-4.243a2 2 0 00-.38-.298l.49-.877a4 4 0 016.321-.88l9.765 9.766a4 4 0 01-.88 6.322L6.938 44.653a3.374 3.374 0 01-4.59-4.59l2.81-5.036z"/></symbol><symbol id="cheese" viewBox="0 0 48 48"><path fill-rule="evenodd" clip-rule="evenodd" d="M44 14H4v26a2 2 0 002 2h14a4 4 0 018 0h14a2 2 0 002-2V27.83a3 3 0 110-5.659V14zM10 42a2 2 0 110-4 2 2 0 010 4zm16-16a8 8 0 11-16 0 8 8 0 0116 0zm10 10a2 2 0 100-4 2 2 0 000 4z"/><path style="fill: var(--opacity, #fff)" opacity=".3" fill-rule="evenodd" clip-rule="evenodd" d="M43.228 13.228a5.001 5.001 0 00-2.952-1.43L8.61 8.071a1 1 0 00-.949.438L4 14h40l-.772-.772z"/></symbol><symbol id="chicken" viewBox="0 0 50 49"><path d="M22.727 9.736c4.842-4.843 12.693-4.843 17.536 0 4.842 4.842 4.842 12.693 0 17.535L27.48 40.053a1.524 1.524 0 01-2.155 0l-15.38-15.38a1.524 1.524 0 010-2.155L22.727 9.736z"/><path style="fill: var(--opacity, #fff)" opacity=".3" fill-rule="evenodd" clip-rule="evenodd" d="M12.686 33.071l4.243 4.243-2.95 2.949a3.001 3.001 0 11-5.702 1.46 3 3 0 111.46-5.703l2.95-2.949z"/></symbol><symbol id="coffee#1" viewBox="0 0 48 48"><path fill-rule="evenodd" clip-rule="evenodd" d="M42 16H12v4h-2c-3.314 0-6 3.686-6 7s2.686 7 6 7h6.802c2.676 2.482 6.26 4 10.198 4 8.284 0 15-6.716 15-15v-7zM13.73 30a14.91 14.91 0 01-1.697-6H10c-1.105 0-2 1.895-2 3s.895 3 2 3h3.73z"/><rect style="fill: var(--opacity, #fff)" opacity=".3" x="12" y="42" width="30" height="4" rx="1" fill="#000"/><path opacity=".3" d="M16.232 0l2.315 2.305a4.39 4.39 0 00.483 6.616l.97.724-1.955 2.617-.97-.724A7.657 7.657 0 0116.231 0zM26.232 2l2.315 2.305a4.39 4.39 0 00.483 6.616l.97.724-1.955 2.617-.97-.724A7.657 7.657 0 0126.231 2zM36.231 0l2.316 2.305a4.39 4.39 0 00.483 6.616l.97.724-1.955 2.617-.97-.724A7.657 7.657 0 0136.231 0z"/></symbol><symbol id="coffee#2" viewBox="0 0 48 48"><path style="fill: var(--opacity, #fff)" opacity=".3" d="M14 9a1 1 0 011-1h28a1 1 0 011 1v27a4 4 0 01-4 4H18a4 4 0 01-4-4V9z"/><path d="M14 14v4h-4a2 2 0 00-2 2v4a2 2 0 002 2h4v4h-4a6 6 0 01-6-6v-4a6 6 0 016-6h4z"/><rect opacity=".3" x="36" y="14" width="4" height="16" rx="1" fill="#000"/></symbol><symbol id="cookie" viewBox="0 0 48 48"><path style="fill: var(--opacity, #fff)" opacity=".3" fill-rule="evenodd" clip-rule="evenodd" d="M24 41.32l-5.071-.05-4.293-2.7-4.24-2.782-2.15-4.593-2.063-4.633.673-5.027.77-5.012 3.284-3.865 3.358-3.8 4.852-1.476L24 6l4.88 1.382 4.851 1.475 3.359 3.8 3.283 3.866.77 5.012.674 5.027-2.062 4.633-2.152 4.593-4.24 2.783-4.292 2.7L24 41.32z"/><path opacity=".3" fill-rule="evenodd" clip-rule="evenodd" d="M17 30a3 3 0 100-6 3 3 0 000 6zM27 18a3 3 0 100-6 3 3 0 000 6zM29 34a3 3 0 100-6 3 3 0 000 6z"/></symbol><symbol id="dinner" viewBox="0 0 48 48"><path style="fill: var(--opacity, #fff)" opacity=".3" fill-rule="evenodd" clip-rule="evenodd" d="M28 12a4 4 0 11-8 0 4 4 0 018 0zM5 36a1 1 0 00-1 1v2a1 1 0 001 1h38a1 1 0 001-1v-2a1 1 0 00-1-1H5z"/><path fill-rule="evenodd" clip-rule="evenodd" d="M42 32c0-9.941-8.059-18-18-18S6 22.059 6 32h36z"/></symbol><symbol id="fish" viewBox="0 0 48 48"><path style="fill: var(--opacity, #fff)" opacity=".3" fill-rule="evenodd" clip-rule="evenodd" d="M12.478 18.364a11.507 11.507 0 00-9.421-3.307 11.507 11.507 0 003.25 9.364 11.507 11.507 0 00-3.25 9.364c3.358.37 6.847-.733 9.42-3.307a11.533 11.533 0 001.969-2.624c.447.003.894-.02 1.339-.07.123-1.119.083-2.253-.121-3.363.204-1.11.244-2.244.12-3.364a11.613 11.613 0 00-1.338-.07 11.533 11.533 0 00-1.968-2.623z"/><path fill-rule="evenodd" clip-rule="evenodd" d="M46.819 25.19C42.422 18.3 35.627 12 28 12c-7.627 0-14.422 6.299-18.819 13.19C13.578 31.701 20.373 38 28 38c7.627 0 14.422-6.299 18.819-12.81zM42 24a2 2 0 11-4 0 2 2 0 014 0z"/></symbol><symbol id="french-bread" viewBox="0 0 48 48"><path fill-rule="evenodd" clip-rule="evenodd" d="M22.39 12.385c.198.147.426.26.679.327l6.537 1.752a2 2 0 101.035-3.864L26.455 9.48c6.536-4.155 12.52-5.444 15.223-2.742 3.905 3.905-.527 14.669-9.9 24.041-9.372 9.373-20.136 13.805-24.041 9.9-2.486-2.486-1.594-7.75 1.8-13.665.043.015.087.028.131.04l5.796 1.553a2 2 0 001.035-3.864l-4.692-1.257a51.991 51.991 0 013.151-3.983l.108.032 7.47 2.001a2 2 0 101.034-3.864L18.077 16.2a55.866 55.866 0 014.314-3.815z"/></symbol><symbol id="glass-martini" viewBox="0 0 48 48"><path style="fill: var(--opacity, #fff)" opacity=".3" d="M22 27h20v16a1 1 0 01-1 1H23a1 1 0 01-1-1V27z"/><path fill-rule="evenodd" clip-rule="evenodd" d="M20.877 27.297a4 4 0 006.246 0l13.139-16.423A3 3 0 0037.919 6H10.081a3 3 0 00-2.343 4.874l13.139 16.423zM17 16.025L12.16 10H35.84l-4.84 6.025H17z"/></symbol><symbol id="ice-cream#1" viewBox="0 0 48 48"><path style="fill: var(--opacity, #fff)" opacity=".3" fill-rule="evenodd" clip-rule="evenodd" d="M23.048 45.05a.5.5 0 00.904 0L33 26H14l9.048 19.05z"/><path fill-rule="evenodd" clip-rule="evenodd" d="M24 2c5.523 0 10 4.477 10 10h3.5a2.5 2.5 0 012.5 2.5v5a2.5 2.5 0 01-2.5 2.5h-27A2.5 2.5 0 018 19.5v-5a2.5 2.5 0 012.5-2.5H14c0-5.523 4.477-10 10-10z"/></symbol><symbol id="ice-cream#2" viewBox="0 0 48 48"><path d="M12 11a7 7 0 017-7h10a7 7 0 017 7v22a1 1 0 01-1 1H13a1 1 0 01-1-1V11z"/><path style="fill: var(--opacity, #fff)" opacity=".3" d="M21 38h6v6.5a1.5 1.5 0 01-1.5 1.5h-3a1.5 1.5 0 01-1.5-1.5V38z"/></symbol><symbol id="miso-soup" viewBox="0 0 48 48"><path d="M4 28h40c0 9.941-8.059 18-18 18h-4c-9.941 0-18-8.059-18-18z"/><path style="fill: var(--opacity, #fff)" opacity=".3" fill-rule="evenodd" clip-rule="evenodd" d="M18.488 24.84a1 1 0 00.366 1.366l1.65.953a1 1 0 001.366-.366l.576-.998c.042.127.111.249.207.355l1.275 1.417a1 1 0 001.412.073l18.977-17.086a1 1 0 00.074-1.413l-1.275-1.416a1 1 0 00-1.412-.074l-18.291 16.47L34.638 4.677a1 1 0 00-.366-1.366l-1.65-.953a1 1 0 00-1.366.366L18.488 24.84z"/></symbol><symbol id="orange" viewBox="0 0 48 48"><path fill-rule="evenodd" clip-rule="evenodd" d="M6 24c0 9.941 8.059 18 18 18s18-8.059 18-18S33.941 6 24 6 6 14.059 6 24zm32 0c0 7.732-6.268 14-14 14s-14-6.268-14-14 6.268-14 14-14 14 6.268 14 14z"/><path style="fill: var(--opacity, #fff)" opacity=".3" fill-rule="evenodd" clip-rule="evenodd" d="M24 19.333c-1.333-2.043-2-3.57-2-4.583 0-1.519.895-2.75 2-2.75s2 1.231 2 2.75c0 1.012-.667 2.54-2 4.583zM24 28c1.333 2.043 2 3.57 2 4.583 0 1.52-.895 2.75-2 2.75s-2-1.23-2-2.75c0-1.012.667-2.54 2-4.583zm4.667-4c2.043-1.333 3.57-2 4.583-2 1.519 0 2.75.895 2.75 2s-1.231 2-2.75 2c-1.013 0-2.54-.667-4.583-2zM20 24c-2.043 1.333-3.57 2-4.583 2-1.52 0-2.75-.895-2.75-2s1.23-2 2.75-2c1.012 0 2.54.667 4.583 2zm7.3-3.3c.502-2.387 1.11-3.939 1.826-4.655 1.074-1.074 2.578-1.311 3.36-.53.78.78.543 2.284-.531 3.358-.716.716-2.268 1.325-4.655 1.827zm-6.128 6.128c-.502 2.388-1.111 3.94-1.827 4.655-1.074 1.074-2.578 1.312-3.359.53-.78-.78-.543-2.284.53-3.358.716-.716 2.268-1.325 4.656-1.827zm6.128.472c2.387.502 3.939 1.11 4.655 1.826 1.074 1.075 1.311 2.578.53 3.36-.78.78-2.285.543-3.358-.531-.716-.716-1.325-2.268-1.827-4.655zm-6.128-6.128c-2.388-.502-3.94-1.111-4.655-1.827-1.074-1.074-1.312-2.578-.53-3.359.78-.78 2.284-.543 3.358.53.716.716 1.325 2.268 1.827 4.656z"/></symbol><symbol id="pizza" viewBox="0 0 48 48"><path style="fill: var(--opacity, #fff)" opacity=".3" fill-rule="evenodd" clip-rule="evenodd" d="M42.06 11.332A33.372 33.372 0 0023.91 6a33.372 33.372 0 00-18.149 5.332L23.911 44l18.148-32.668z"/><path opacity=".3" fill-rule="evenodd" clip-rule="evenodd" d="M19 22a3 3 0 100-6 3 3 0 000 6zM31 18a3 3 0 100-6 3 3 0 000 6zM25 34a3 3 0 100-6 3 3 0 000 6z"/></symbol><symbol id="sushi" viewBox="0 0 48 48"><path fill-rule="evenodd" clip-rule="evenodd" d="M4 30v10c0 3.314 4.477 6 10 6 3.958 0 7.38-1.38 9-3.382C24.62 44.62 28.042 46 32 46c5.523 0 10-2.686 10-6V30c0-3.314-4.477-6-10-6-3.958 0-7.38 1.38-9 3.381C21.38 25.38 17.958 24 14 24c-5.523 0-10 2.686-10 6zm28 4c4.562 0 8-2.063 8-4 0-1.937-3.438-4-8-4-4.562 0-8 2.063-8 4 0 1.937 3.438 4 8 4zm-10-4c0-1.937-3.438-4-8-4-4.562 0-8 2.063-8 4 0 1.937 3.438 4 8 4 4.562 0 8-2.063 8-4z"/><path style="fill: var(--opacity, #fff)" opacity=".3" fill-rule="evenodd" clip-rule="evenodd" d="M39.322 4.042a1.948 1.948 0 01-1.257 2.492L4.671 17.06a1.027 1.027 0 01-.668-1.941L36.797 2.852a1.948 1.948 0 012.525 1.19zm2.62 9.061a1.948 1.948 0 01-1.63 2.265L5.682 20.54a1.027 1.027 0 01-.356-2.021l34.31-6.985a1.948 1.948 0 012.307 1.57zM32 32c1.657 0 3-.895 3-2s-1.343-2-3-2-3 .895-3 2 1.343 2 3 2zm-15-2c0 1.105-1.343 2-3 2s-3-.895-3-2 1.343-2 3-2 3 .895 3 2z"/></symbol><symbol id="two-bottles" viewBox="0 0 48 48"><path fill-rule="evenodd" clip-rule="evenodd" d="M7 16a3 3 0 00-3 3v5h18v-5a3 3 0 00-3-3H7zm15 12H4v13a1 1 0 001 1h16a1 1 0 001-1V28z"/><path style="fill: var(--opacity, #fff)" opacity=".3" fill-rule="evenodd" clip-rule="evenodd" d="M9 6a1 1 0 00-1 1v4a1 1 0 001 1h8a1 1 0 001-1V7a1 1 0 00-1-1H9zm22 0a1 1 0 00-1 1v4a1 1 0 001 1h8a1 1 0 001-1V7a1 1 0 00-1-1h-8zm-5 13a3 3 0 013-3h12a3 3 0 013 3v5H26v-5zm0 9v13a1 1 0 001 1h16a1 1 0 001-1V28H26z"/></symbol><symbol id="wine" viewBox="0 0 48 48"><path style="fill: var(--opacity, #fff)" opacity=".3" fill-rule="evenodd" clip-rule="evenodd" d="M26 31h-4v11h-2a4 4 0 00-4 4h16a4 4 0 00-4-4h-2V31z"/><path fill-rule="evenodd" clip-rule="evenodd" d="M31.428 4H16.572c-2.466 0-4.516 1.857-4.705 4.261l-.95 12.073c-.026.324-.038.649-.038.974 0 7.01 5.81 12.692 12.978 12.692h.286c.332 0 .664-.013.995-.037 7.147-.538 12.495-6.64 11.945-13.629l-.95-12.073C35.944 5.857 33.894 4 31.428 4zM15 16l1-8h16s.813 5.618 1 8H15z"/></symbol></svg>