<?xml version="1.0" encoding="UTF-8"?><!DOCTYPE svg PUBLIC "-//W3C//DTD SVG 1.1//EN" "http://www.w3.org/Graphics/SVG/1.1/DTD/svg11.dtd"><svg xmlns="http://www.w3.org/2000/svg" xmlns:xlink="http://www.w3.org/1999/xlink"><defs/><symbol id="attachment" viewBox="0 0 48 48"><path style="fill: var(--opacity, #fff)" opacity=".3" fill-rule="evenodd" clip-rule="evenodd" d="M7.03 29.657a2 2 0 000 2.829l8.485 8.485a2 2 0 002.828 0l8.485-8.485a2 2 0 000-2.829L24 26.83l-4.95 4.95a1 1 0 01-1.414 0l-1.414-1.415a1 1 0 010-1.414l4.95-4.95-2.829-2.828a2 2 0 00-2.828 0l-8.486 8.485z"/><path fill-rule="evenodd" clip-rule="evenodd" d="M21.172 15.514a2 2 0 000 2.829L24 21.17l4.95-4.95a1 1 0 011.414 0l1.414 1.415a1 1 0 010 1.414L26.828 24l2.829 2.828a2 2 0 002.828 0l8.486-8.485a2 2 0 000-2.829L32.485 7.03a2 2 0 00-2.828 0l-8.485 8.485z"/></symbol><symbol id="attachment#2" viewBox="0 0 48 48"><path style="fill: var(--opacity, #fff)" opacity=".3" fill-rule="evenodd" clip-rule="evenodd" d="M19.757 25.414l-4.242 4.243a2 2 0 002.828 2.828l4.243-4.242L24 29.657a4 4 0 010 5.657l-5.657 5.657a4 4 0 01-5.657 0L7.03 35.314a4 4 0 010-5.657L12.686 24a4 4 0 015.657 0l1.414 1.414z"/><path fill-rule="evenodd" clip-rule="evenodd" d="M28.243 22.586l4.242-4.243a2 2 0 10-2.828-2.828l-4.243 4.242L24 18.343a4 4 0 010-5.657l5.657-5.657a4 4 0 015.657 0l5.657 5.657a4 4 0 010 5.657L35.314 24a4 4 0 01-5.657 0l-1.414-1.414z"/><path opacity=".3" fill-rule="evenodd" clip-rule="evenodd" d="M7.737 10.565a1 1 0 010-1.414L9.15 7.737a1 1 0 011.414 0l4.243 4.242a1 1 0 010 1.415l-1.415 1.414a1 1 0 01-1.414 0l-4.242-4.243zm8.95-6.535a1 1 0 011-1h2a1 1 0 011 1v6a1 1 0 01-1 1h-2a1 1 0 01-1-1v-6zM3.372 17.343a1 1 0 011-1h6a1 1 0 011 1v2a1 1 0 01-1 1h-6a1 1 0 01-1-1v-2zM37.192 40.02a1 1 0 001.415 0l1.414-1.414a1 1 0 000-1.414l-4.243-4.242a1 1 0 00-1.414 0l-1.414 1.414a1 1 0 000 1.414l4.242 4.243zm6.536-8.95a1 1 0 001-1v-2a1 1 0 00-1-1h-6a1 1 0 00-1 1v2a1 1 0 001 1h6zM30.414 44.386a1 1 0 001-1v-6a1 1 0 00-1-1h-2a1 1 0 00-1 1v6a1 1 0 001 1h2z"/></symbol><symbol id="binocular" viewBox="0 0 48 48"><path fill-rule="evenodd" clip-rule="evenodd" d="M25.687 32h-3.374l-.343 1.279A9.094 9.094 0 114.402 28.57l3.44-12.836A9.094 9.094 0 0124 12.767a9.094 9.094 0 0116.158 2.969l3.44 12.835a9.094 9.094 0 11-17.568 4.707L25.687 32zm9.226 4.21c3.013 0 5.456-2.535 5.456-5.661 0-3.127-2.443-5.662-5.456-5.662-3.014 0-5.457 2.535-5.457 5.662s2.443 5.661 5.457 5.661zm-21.826 0c3.014 0 5.457-2.535 5.457-5.661 0-3.127-2.443-5.662-5.457-5.662-3.013 0-5.456 2.535-5.456 5.662s2.443 5.661 5.456 5.661z"/></symbol><symbol id="calendar" viewBox="0 0 20 20"><path d="M18.625 2.313h-3.938v-1.5A.188.188 0 0014.5.625h-1.313A.188.188 0 0013 .813v1.5H7v-1.5a.188.188 0 00-.188-.188H5.5a.188.188 0 00-.188.188v1.5H1.376a.75.75 0 00-.75.75v15.562c0 .415.335.75.75.75h17.25a.75.75 0 00.75-.75V3.062a.75.75 0 00-.75-.75zm-.938 15.374H2.313V8.781h15.376v8.906zM2.313 7.188V4h3v1.125c0 .103.085.188.188.188h1.313A.188.188 0 007 5.125V4h6v1.125c0 .103.084.188.188.188H14.5a.188.188 0 00.188-.188V4h3v3.188H2.313z"/></symbol><symbol id="clip" viewBox="0 0 48 48"><path d="M22.172 32.071l-2.829-2.828 4.95-4.95a3 3 0 00-4.243-4.243l-7.07 7.071a7 7 0 109.899 9.9L37.02 22.879a7 7 0 000-9.9l-.707-.707a6 6 0 00-8.486 0L25 9.444c3.905-3.906 10.237-3.906 14.142 0l.707.707c4.296 4.296 4.296 11.26 0 15.556L25.707 39.85c-4.296 4.296-11.26 4.296-15.556 0-4.296-4.295-4.296-11.26 0-15.556l7.07-7.071a7 7 0 119.9 9.9l-4.95 4.949z"/></symbol><symbol id="clipboard" viewBox="0 0 48 48"><path style="fill: var(--opacity, #fff)" opacity=".3" fill-rule="evenodd" clip-rule="evenodd" d="M16 6h-6a2 2 0 00-2 2v36a2 2 0 002 2h28a2 2 0 002-2V8a2 2 0 00-2-2h-6v1a3 3 0 01-3 3H19a3 3 0 01-3-3V6z"/><path fill-rule="evenodd" clip-rule="evenodd" d="M26 4h3.5a.5.5 0 01.5.5v3a.5.5 0 01-.5.5h-11a.5.5 0 01-.5-.5v-3a.5.5 0 01.5-.5H22a2 2 0 114 0z"/><rect opacity=".3" x="14" y="20" width="10" height="4" rx="2" fill="#000"/><rect opacity=".3" x="14" y="28" width="18" height="4" rx="2" fill="#000"/></symbol><symbol id="close" viewBox="0 0 48 48"><rect x="11.272" y="33.899" width="32" height="4" rx="1.5" transform="rotate(-45 11.272 33.9)" fill="#000"/><rect x="14.101" y="11.272" width="32" height="4" rx="1.5" transform="rotate(45 14.1 11.272)" fill="#000"/></symbol><symbol id="cursor" viewBox="0 0 48 48"><path fill-rule="evenodd" clip-rule="evenodd" d="M16.854 37.147a.5.5 0 01-.854-.354V9.13a.5.5 0 01.836-.37l20.306 18.46a.5.5 0 01-.298.869l-8.378.645 4.368 9.366a.5.5 0 01-.242.664l-4.532 2.113a.5.5 0 01-.664-.241l-4.462-9.57-6.08 6.08z"/></symbol><symbol id="dislike" viewBox="0 0 48 48"><path fill-rule="evenodd" clip-rule="evenodd" d="M30 20v18l-4.153 1.384a11.999 11.999 0 01-3.794.616H10.459a3 3 0 01-2.941-2.412l-2.75-13.746a3 3 0 013.142-3.581L19 21l-.642-7.061a3.612 3.612 0 016.694-2.185L30 20z"/><rect style="fill: var(--opacity, #fff)" opacity=".3" width="10" height="22" rx="1" transform="matrix(-1 0 0 1 44 18)" fill="#000"/></symbol><symbol id="duplicate" viewBox="0 0 48 48"><path style="fill: var(--opacity, #fff)" opacity=".3" fill-rule="evenodd" clip-rule="evenodd" d="M27.636 8H12.364C9.535 8 8 9.535 8 12.364v15.272c0 2.705 1.404 4.227 4 4.355V15a3 3 0 013-3h16.991c-.128-2.596-1.65-4-4.355-4z"/><path fill-rule="evenodd" clip-rule="evenodd" d="M20.364 16h15.272C38.465 16 40 17.535 40 20.364v15.272C40 38.465 38.465 40 35.636 40H20.364C17.535 40 16 38.465 16 35.636V20.364C16 17.535 17.535 16 20.364 16z"/></symbol><symbol id="expand-arrows" viewBox="0 0 48 48"><path style="fill: var(--opacity, #fff)" opacity=".3" fill-rule="evenodd" clip-rule="evenodd" d="M10.222 34.95a1 1 0 000 1.414l1.414 1.414a1 1 0 001.414 0L24 26.828 37.092 39.92a1 1 0 001.414 0l1.414-1.414a1 1 0 000-1.414L26.828 24 39.92 10.908a1 1 0 000-1.414L38.506 8.08a1 1 0 00-1.414 0L24 21.17l-10.95-10.95a1 1 0 00-1.414 0l-1.414 1.415a1 1 0 000 1.414L21.172 24l-10.95 10.95z"/><path fill-rule="evenodd" clip-rule="evenodd" d="M36 12h-6s-2-.343-2-2 2-2 2-2h10v10s0 2-2 2-2-2-2-2v-6zM18 36h-6v-6s0-2-2-2-2 2-2 2v10h10s2-.343 2-2-2-2-2-2zm18-6v6h-6s-2 0-2 2 2 2 2 2h10V30s-.343-2-2-2-2 2-2 2zM12 18v-6h6s2 0 2-2-2-2-2-2H8v10s.343 2 2 2 2-2 2-2z"/></symbol><symbol id="fire" viewBox="0 0 48 48"><path fill-rule="evenodd" clip-rule="evenodd" d="M28 14s-1 10-6 10.7c0 0 3-11.7-1-17.7 0 0-.424 6.429-4.71 14.143C14.281 24.76 12 27.197 12 32c0 6.857 7.023 10.401 12.011 10.401C29 42.401 36 40.001 36 31.601 36 26.42 28 14 28 14z"/></symbol><symbol id="half-heart" viewBox="0 0 48 48"><path style="fill: var(--opacity, #fff)" opacity=".3" d="M33 9c-3.219 0-6.983 3.65-9 6-2.017-2.35-5.781-6-9-6-5.698 0-9 4.444-9 10.1C6 28.5 24 39 24 39s18-10.5 18-19.5C42 13.844 38.698 9 33 9z"/><path fill-rule="evenodd" clip-rule="evenodd" d="M24 15c-2.017-2.35-5.781-6-9-6-5.698 0-9 4.444-9 10.1C6 28.5 24 39 24 39V15z"/></symbol><symbol id="half-star" viewBox="0 0 48 48"><path style="fill: var(--opacity, #fff)" opacity=".3" fill-rule="evenodd" clip-rule="evenodd" d="M24 36l8.169 4.294a2 2 0 002.902-2.108l-1.56-9.096 6.608-6.442a2 2 0 00-1.108-3.411l-9.133-1.327-4.084-8.276A2 2 0 0024 8.519v27.48z"/><path fill-rule="evenodd" clip-rule="evenodd" d="M24 8.519a2 2 0 00-1.794 1.115l-4.084 8.276-9.133 1.327a2 2 0 00-1.108 3.411l6.608 6.442-1.56 9.096a2 2 0 002.902 2.108L24 36V8.519z"/></symbol><symbol id="heart" viewBox="0 0 48 48"><path d="M33 9c-3.219 0-6.983 3.65-9 6-2.017-2.35-5.781-6-9-6-5.698 0-9 4.444-9 10.1C6 28.5 24 39 24 39s18-10.5 18-19.5C42 13.844 38.698 9 33 9z"/></symbol><symbol id="hidden" viewBox="0 0 48 48"><path fill-rule="evenodd" clip-rule="evenodd" d="M22.191 35.922c.585.051 1.188.078 1.809.078 9.818 0 18-12 18-12s-1.34-1.964-3.584-4.303L22.19 35.922zM29.01 12.99C27.415 12.374 25.733 12 24 12 10.91 12 6 24 6 24s1.5 3.667 5.053 6.947L18 24a6 6 0 016-6l5.01-5.01z"/><path style="fill: var(--opacity, #fff)" opacity=".3" d="M10.2 36.87L37.07 10l2.828 2.828-26.87 26.87z"/></symbol><symbol id="like" viewBox="0 0 48 48"><path fill-rule="evenodd" clip-rule="evenodd" d="M18 20v18l4.153 1.384c1.223.408 2.505.616 3.794.616h11.594a3 3 0 002.941-2.412l2.75-13.746a3 3 0 00-3.142-3.581L29 21l.642-7.061a3.612 3.612 0 00-6.694-2.185L18 20z"/><rect style="fill: var(--opacity, #fff)" opacity=".3" x="4" y="18" width="10" height="22" rx="1" fill="#000"/></symbol><symbol id="lock" viewBox="0 0 48 48"><path fill-rule="evenodd" clip-rule="evenodd" d="M14 11a5 5 0 015-5h10a5 5 0 015 5v9h4a2 2 0 012 2v16a2 2 0 01-2 2H10a2 2 0 01-2-2V22a2 2 0 012-2h4v-9zm7-1a3 3 0 00-3 3v7h12v-7a3 3 0 00-3-3h-6z"/></symbol><symbol id="no-star" viewBox="0 0 48 48"><path style="fill: var(--opacity, #fff)" opacity=".3" fill-rule="evenodd" clip-rule="evenodd" d="M24 36l-8.169 4.294a2 2 0 01-2.902-2.108l1.56-9.096-6.608-6.442a2 2 0 011.108-3.411l9.133-1.327 4.084-8.276a2 2 0 013.587 0l4.085 8.276 9.133 1.327a2 2 0 011.108 3.411l-6.608 6.442 1.56 9.096a2 2 0 01-2.902 2.108L24 36z"/></symbol><symbol id="notifications#1" viewBox="0 0 48 48"><path fill-rule="evenodd" clip-rule="evenodd" d="M18.5 6a4.5 4.5 0 00-4.5 4.5V24H9.5A1.5 1.5 0 008 25.5v3A1.5 1.5 0 009.5 30h29a1.5 1.5 0 001.5-1.5v-3a1.5 1.5 0 00-1.5-1.5H34V10.5A4.5 4.5 0 0029.5 6h-11z"/><rect style="fill: var(--opacity, #fff)" opacity=".3" x="20" y="32" width="8" height="8" rx="2.25" fill="#000"/></symbol><symbol id="notifications#2" viewBox="0 0 48 48"><path fill-rule="evenodd" clip-rule="evenodd" d="M40 21.586c-.954.27-1.96.414-3 .414-6.075 0-11-4.925-11-11 0-1.04.144-2.046.414-3H11a3 3 0 00-3 3v26a3 3 0 003 3h26a3 3 0 003-3V21.586z"/><path style="fill: var(--opacity, #fff)" opacity=".3" fill-rule="evenodd" clip-rule="evenodd" d="M37 16a5 5 0 100-10 5 5 0 000 10z"/></symbol><symbol id="other#1" viewBox="0 0 48 48"><path fill-rule="evenodd" clip-rule="evenodd" d="M24 14a4 4 0 100-8 4 4 0 000 8zM24 28a4 4 0 100-8 4 4 0 000 8zM24 42a4 4 0 100-8 4 4 0 000 8z"/></symbol><symbol id="other#2" viewBox="0 0 48 48"><path fill-rule="evenodd" clip-rule="evenodd" d="M10 28a4 4 0 100-8 4 4 0 000 8zM24 28a4 4 0 100-8 4 4 0 000 8zM38 28a4 4 0 100-8 4 4 0 000 8z"/></symbol><symbol id="rename" viewBox="0 0 48 49"><path d="M41.98 17.696a1.5 1.5 0 01.03 2.092L21.444 41.53a1.5 1.5 0 01-1.09.469H9.5A1.5 1.5 0 018 40.5V29.607c0-.39.152-.764.423-1.043l20.8-21.47a1.5 1.5 0 012.139-.017l10.619 10.62z"/></symbol><symbol id="sad" viewBox="0 0 48 48"><rect style="fill: var(--opacity, #fff)" opacity=".3" x="4" y="4" width="40" height="40" rx="10" fill="#000"/><path fill-rule="evenodd" clip-rule="evenodd" d="M12.336 32.89a2 2 0 103.328 2.22C17.978 31.637 20.71 30 24 30c3.291 0 6.022 1.638 8.336 5.11a2 2 0 003.328-2.22C32.644 28.361 28.71 26 24 26s-8.645 2.361-11.664 6.89z"/></symbol><symbol id="save" viewBox="0 0 48 48"><path fill-rule="evenodd" clip-rule="evenodd" d="M12 8h2v14h20V8l5.854 5.854a.5.5 0 01.146.353V36c0 2.6-1.6 4-4 4H12c-2.418 0-4-1.4-4-4V12c0-2.6 1.582-4 4-4z"/><rect style="fill: var(--opacity, #fff)" opacity=".3" x="24" y="8" width="6" height="10" rx=".5" fill="#000"/></symbol><symbol id="scale" viewBox="0 0 48 48"><path fill-rule="evenodd" clip-rule="evenodd" d="M40 18H30V8s0-2-2-2-2 2-2 2v14h14s2-.343 2-2-2-2-2-2zM10 28h10v10s0 2 2 2 2-2 2-2V24H10s-2 .343-2 2 2 2 2 2z"/><path style="fill: var(--opacity, #fff)" opacity=".3" fill-rule="evenodd" clip-rule="evenodd" d="M33.05 12.121a1 1 0 000 1.415l1.415 1.414a1 1 0 001.414 0l7.07-7.071a1 1 0 000-1.415L41.537 5.05a1 1 0 00-1.415 0l-7.07 7.071zm-26 26a1 1 0 000 1.414l1.415 1.415a1 1 0 001.414 0l7.07-7.071a1 1 0 000-1.415l-1.413-1.414a1 1 0 00-1.415 0l-7.07 7.071z"/></symbol><symbol id="scissors" viewBox="0 0 48 48"><path style="fill: var(--opacity, #fff)" opacity=".3" fill-rule="evenodd" clip-rule="evenodd" d="M15.414 23.293l-7.1-3.787a.8.8 0 01.628-1.465l10.202 3.387-3.73 1.865zm10.05 5.36l7.273-2.712 4.526 1.502-.003.002a7 7 0 11-8.294 3.076l-3.501-1.868zM32 34.073a3 3 0 116 0 3 3 0 01-6 0z"/><path fill-rule="evenodd" clip-rule="evenodd" d="M28.966 18.551a7 7 0 118.294 3.076l.003.002L4.471 32.516c-.465.154-.747-.502-.314-.733l24.81-13.232zM35 18a3 3 0 100-6 3 3 0 000 6z"/></symbol><symbol id="search" viewBox="0 0 48 48"><path style="fill: var(--opacity, #fff)" opacity=".3" d="M28.586 33.414a2 2 0 112.828-2.828l8 8a2 2 0 11-2.828 2.828l-8-8z"/><path fill-rule="evenodd" clip-rule="evenodd" d="M8 22c0 7.732 6.268 14 14 14s14-6.268 14-14S29.732 8 22 8 8 14.268 8 22zm24 0c0 5.523-4.477 10-10 10s-10-4.477-10-10 4.477-10 10-10 10 4.477 10 10z"/></symbol><symbol id="settings#1" viewBox="0 0 48 48"><path fill-rule="evenodd" clip-rule="evenodd" d="M10 6a4 4 0 00-4 4v8a4 4 0 004 4h28a4 4 0 004-4v-8a4 4 0 00-4-4H10zm8 8a4 4 0 11-8 0 4 4 0 018 0z"/><path style="fill: var(--opacity, #fff)" opacity=".3" fill-rule="evenodd" clip-rule="evenodd" d="M10 26a4 4 0 00-4 4v8a4 4 0 004 4h28a4 4 0 004-4v-8a4 4 0 00-4-4H10zm28 8a4 4 0 11-8 0 4 4 0 018 0z"/></symbol><symbol id="settings#2" viewBox="0 0 48 48"><path fill-rule="evenodd" clip-rule="evenodd" d="M3.373 24L10 17.373V10h7.373l5.799-5.799 5.799 5.8H38v9.029L42.97 24 38 28.97V38h-9.03l-5.798 5.8-5.8-5.8H10v-7.372L3.373 24zM30 24a6 6 0 11-12 0 6 6 0 0112 0z"/></symbol><symbol id="settings#5" viewBox="0 0 48 48"><rect style="fill: var(--opacity, #fff)" opacity=".3" x="4" y="12" width="42" height="24" rx="6" fill="#000"/><path fill-rule="evenodd" clip-rule="evenodd" d="M34 32a8 8 0 100-16 8 8 0 000 16z"/></symbol><symbol id="shield-check" viewBox="0 0 48 48"><path style="fill: var(--opacity, #fff)" opacity=".3" fill-rule="evenodd" clip-rule="evenodd" d="M8 8l15.631-2.93a2 2 0 01.738 0L40 8v21.903a11 11 0 01-5.17 9.328l-10.3 6.438a1 1 0 01-1.06 0l-10.3-6.438A11 11 0 018 29.903V8z"/><path fill-rule="evenodd" clip-rule="evenodd" d="M22.35 29.5c-.48 0-.958-.192-1.342-.575l-3.833-3.833c-.767-.767-.767-1.917 0-2.684.767-.766 2.012-.766 2.683 0L22.35 24.9l6.325-6.325c.767-.767 1.917-.767 2.683 0 .767.767.767 1.917 0 2.683l-7.666 7.667a1.892 1.892 0 01-1.342.575z"/></symbol><symbol id="shield-disabled" viewBox="0 0 48 48"><path style="fill: var(--opacity, #fff)" opacity=".3" fill-rule="evenodd" clip-rule="evenodd" d="M8 8l15.631-2.93a2 2 0 01.738 0L40 8v21.903a11 11 0 01-5.17 9.328l-10.3 6.438a1 1 0 01-1.06 0l-10.3-6.438A11 11 0 018 29.903V8z"/><path fill-rule="evenodd" clip-rule="evenodd" d="M21.172 24l-2.829-2.828a2 2 0 012.829-2.829L24 21.172l2.828-2.829a2 2 0 012.829 2.829L26.828 24l2.829 2.828a2 2 0 11-2.829 2.829L24 26.828l-2.828 2.829a2 2 0 11-2.829-2.829L21.172 24z"/></symbol><symbol id="shield-protected" viewBox="0 0 48 48"><path style="fill: var(--opacity, #fff)" opacity=".3" fill-rule="evenodd" clip-rule="evenodd" d="M8 8l15.631-2.93a2 2 0 01.738 0L40 8v21.903a11 11 0 01-5.17 9.328l-10.3 6.438a1 1 0 01-1.06 0l-10.3-6.438A11 11 0 018 29.903V8z"/><path fill-rule="evenodd" clip-rule="evenodd" d="M19 18.5a2.5 2.5 0 012.5-2.5h5a2.5 2.5 0 012.5 2.5V22h1a1 1 0 011 1v8a1 1 0 01-1 1H18a1 1 0 01-1-1v-8a1 1 0 011-1h1v-3.5zm3.5-.5a1.5 1.5 0 00-1.5 1.5V22h6v-2.5a1.5 1.5 0 00-1.5-1.5h-3z"/></symbol><symbol id="size" viewBox="0 0 48 48"><path fill-rule="evenodd" clip-rule="evenodd" d="M22 12h14v14s0 2 2 2 2-2 2-2V8H22s-2 .343-2 2 2 2 2 2zm4 24H12V22s0-2-2-2-2 2-2 2v18h18s2-.343 2-2-2-2-2-2z"/><rect style="fill: var(--opacity, #fff)" opacity=".3" x="15.515" y="29.657" width="20" height="4" rx="1" transform="rotate(-45 15.515 29.657)" fill="#000"/></symbol><symbol id="smile" viewBox="0 0 48 48"><rect style="fill: var(--opacity, #fff)" opacity=".3" x="4" y="4" width="40" height="40" rx="10" fill="#000"/><path fill-rule="evenodd" clip-rule="evenodd" d="M12.336 29.11a2 2 0 113.328-2.22C17.978 30.363 20.71 32 24 32c3.291 0 6.022-1.638 8.336-5.11a2 2 0 013.328 2.22C32.644 33.639 28.71 36 24 36s-8.645-2.361-11.664-6.89z"/></symbol><symbol id="sort" viewBox="0 0 16 16"><g fill="currentColor"><rect width="2" height="2" x="5" y="1" rx=".5" ry=".5"/><rect width="2" height="2" x="9" y="1" rx=".5" ry=".5"/><rect width="2" height="2" x="5" y="5" rx=".5" ry=".5"/><rect width="2" height="2" x="9" y="5" rx=".5" ry=".5"/><rect width="2" height="2" x="5" y="9" rx=".5" ry=".5"/><rect width="2" height="2" x="9" y="9" rx=".5" ry=".5"/><rect width="2" height="2" x="5" y="13" rx=".5" ry=".5"/><rect width="2" height="2" x="9" y="13" rx=".5" ry=".5"/></g></symbol><symbol id="star" viewBox="0 0 48 48"><path fill-rule="evenodd" clip-rule="evenodd" d="M24 36l-8.169 4.294a2 2 0 01-2.902-2.108l1.56-9.096-6.608-6.442a2 2 0 011.108-3.411l9.133-1.327 4.084-8.276a2 2 0 013.587 0l4.085 8.276 9.133 1.327a2 2 0 011.108 3.411l-6.608 6.442 1.56 9.096a2 2 0 01-2.902 2.108L24 36z"/></symbol><symbol id="thunder-move" viewBox="0 0 48 48"><path fill-rule="evenodd" clip-rule="evenodd" d="M30 41.523c0 .742.962 1.033 1.374.416l13.849-20.773A.75.75 0 0044.599 20H34V6.477c0-.742-.962-1.033-1.374-.416L18.777 26.834A.75.75 0 0019.401 28H30v13.523z"/><path style="fill: var(--opacity, #fff)" opacity=".3" fill-rule="evenodd" clip-rule="evenodd" d="M6 11.5A1.5 1.5 0 017.5 10h13a1.5 1.5 0 011.5 1.5v3a1.5 1.5 0 01-1.5 1.5h-13A1.5 1.5 0 016 14.5v-3zm0 24A1.5 1.5 0 017.5 34h13a1.5 1.5 0 011.5 1.5v3a1.5 1.5 0 01-1.5 1.5h-13A1.5 1.5 0 016 38.5v-3zM3.5 22A1.5 1.5 0 002 23.5v3A1.5 1.5 0 003.5 28h11a1.5 1.5 0 001.5-1.5v-3a1.5 1.5 0 00-1.5-1.5h-11z"/></symbol><symbol id="thunder" viewBox="0 0 48 48"><path fill-rule="evenodd" clip-rule="evenodd" d="M22 41.523c0 .742.962 1.033 1.374.416l13.849-20.773A.75.75 0 0036.599 20H26V6.477c0-.742-.962-1.033-1.374-.416L10.777 26.834A.75.75 0 0011.401 28H22v13.523z"/></symbol><symbol id="trash" viewBox="0 0 48 48"><path d="M12 16v26.5a1.5 1.5 0 001.5 1.5h21a1.5 1.5 0 001.5-1.5V16H12z"/><path style="fill: var(--opacity, #fff)" opacity=".3" fill-rule="evenodd" clip-rule="evenodd" d="M28 9V7a1 1 0 00-1-1h-6a1 1 0 00-1 1v2h-9.5a.5.5 0 00-.5.5v2a.5.5 0 00.5.5h27a.5.5 0 00.5-.5v-2a.5.5 0 00-.5-.5H28z"/></symbol><symbol id="unlock" viewBox="0 0 48 48"><path fill-rule="evenodd" clip-rule="evenodd" d="M14 16v4h-2a4 4 0 00-4 4v12a4 4 0 004 4h24a4 4 0 004-4V24a4 4 0 00-4-4h-2v-4c0-5.523-4.477-10-10-10s-10 4.477-10 10zm4 0a6 6 0 0112 0v4H18v-4z"/></symbol><symbol id="update" viewBox="0 0 48 48"><path fill-rule="evenodd" clip-rule="evenodd" d="M12 24H8c0 8.837 7.163 16 16 16s16-7.163 16-16S32.837 8 24 8c-3.952 0-7.67 1.444-10.542 3.963l-2.427-1.7a.5.5 0 00-.786.424l.243 8.778a.5.5 0 00.656.46l8.359-2.755a.5.5 0 00.13-.884l-2.767-1.937A11.958 11.958 0 0124 12c6.627 0 12 5.373 12 12s-5.373 12-12 12-12-5.373-12-12z"/></symbol><symbol id="upload" viewBox="0 0 24 22"><path d="M11.803 15.656a.25.25 0 00.394 0l3.5-4.428a.25.25 0 00-.197-.403h-2.316V.25a.25.25 0 00-.25-.25H11.06a.25.25 0 00-.25.25v10.572H8.5a.25.25 0 00-.197.403l3.5 4.431zm11.634-1.094h-1.875a.25.25 0 00-.25.25v4.813H2.688v-4.813a.25.25 0 00-.25-.25H.563a.25.25 0 00-.25.25V21c0 .553.446 1 1 1h21.375c.553 0 1-.447 1-1v-6.188a.25.25 0 00-.25-.25z"/></symbol><symbol id="user" viewBox="0 0 48 48"><path style="fill: var(--opacity, #fff)" opacity=".3" d="M24 22a8 8 0 110-16 8 8 0 010 16z"/><path d="M6.001 40.398C6.777 30.853 14.524 26 23.967 26c9.575 0 17.443 4.586 18.029 14.4.023.39 0 1.6-1.503 1.6H7.455c-.502 0-1.496-1.082-1.454-1.602z"/></symbol><symbol id="visible" viewBox="0 0 48 48"><path style="fill: var(--opacity, #fff)" opacity=".3" d="M6 24s4.91-12 18-12c9.818 0 18 12 18 12s-8.182 12-18 12C10.91 36 6 24 6 24z"/><path opacity=".3" fill-rule="evenodd" clip-rule="evenodd" d="M24 30a6 6 0 110-12 6 6 0 010 12z"/></symbol></svg>