<?xml version="1.0" encoding="UTF-8"?><!DOCTYPE svg PUBLIC "-//W3C//DTD SVG 1.1//EN" "http://www.w3.org/Graphics/SVG/1.1/DTD/svg11.dtd"><svg xmlns="http://www.w3.org/2000/svg" xmlns:xlink="http://www.w3.org/1999/xlink"><defs/><symbol id="air-ballon" viewBox="0 0 48 48"><path fill-rule="evenodd" clip-rule="evenodd" d="M27.536 31.42c-1.15.323-2.36.495-3.61.495-1.251 0-2.462-.172-3.611-.495l-1.021 2.757a.857.857 0 00.493 1.1.833.833 0 00.296.054h2.16c.114 3.846 1.902 6.461 5.524 7.684a1.682 1.682 0 002.133-1.08 1.713 1.713 0 00-1.066-2.16c-2.246-.758-3.11-2.123-3.222-4.499l2.155.055a.849.849 0 00.843-.854.864.864 0 00-.053-.3l-1.02-2.757z"/><path style="fill: var(--opacity, #fff)" opacity=".3" fill-rule="evenodd" clip-rule="evenodd" d="M38 18c0 7.732-6.268 14-14 14s-14-6.268-14-14S16.268 4 24 4s14 6.268 14 14zm-21.769-1.616c.723-.05 1.35.494 1.401 1.218.175 2.497 1.28 4.369 3.383 5.727a1.313 1.313 0 01-1.425 2.205c-2.797-1.807-4.344-4.428-4.577-7.75a1.313 1.313 0 011.218-1.4z"/></symbol><symbol id="alarm-clock" viewBox="0 0 48 48"><path fill-rule="evenodd" clip-rule="evenodd" d="M30.273 40.723l2.427 4.203a1 1 0 001.366.366l1.732-1a1 1 0 00.366-1.366l-2.437-4.221-.02.016a15.992 15.992 0 01-3.434 2.002zm-15.987-2.008a15.984 15.984 0 003.456 2.015l-2.458 4.257a1 1 0 01-1.366.366l-1.732-1a1 1 0 01-.366-1.366l2.466-4.272z"/><path style="fill: var(--opacity, #fff)" opacity=".3" fill-rule="evenodd" clip-rule="evenodd" d="M11.658 4.704a1.5 1.5 0 012.121 0l2.121 2.12a1.5 1.5 0 010 2.122L9.537 15.31a1.5 1.5 0 01-2.122 0L5.294 13.19a1.5 1.5 0 010-2.121l6.364-6.364zm23.298.743a1.5 1.5 0 012.121 0l5.62 5.62a1.5 1.5 0 010 2.122l-2.121 2.121a1.5 1.5 0 01-2.122 0l-5.62-5.62a1.5 1.5 0 010-2.121l2.122-2.122zM24 42c-8.837 0-16-7.163-16-16s7.163-16 16-16 16 7.163 16 16-7.163 16-16 16z"/><path fill-rule="evenodd" clip-rule="evenodd" d="M22.964 15.462a.5.5 0 01.499-.462h1.084a.5.5 0 01.498.45L26 25l6.748 3.856a.5.5 0 01.252.434v1.055a.5.5 0 01-.632.483l-9.97-2.72a.5.5 0 01-.366-.52l.932-12.126z"/></symbol><symbol id="armchair" viewBox="0 0 48 48"><path style="fill: var(--opacity, #fff)" opacity=".3" fill-rule="evenodd" clip-rule="evenodd" d="M40 16h-3.652a4 4 0 00-4 4v4a2 2 0 01-2 2H17.739a2 2 0 01-2-2v-4a4 4 0 00-4-4H8v-4a6 6 0 016-6h20a6 6 0 016 6v4zM36.164 42.926a1 1 0 01-.366 1.367l-1.732 1a1 1 0 01-1.366-.367l-5-8.66a1 1 0 01.366-1.366l1.732-1a1 1 0 011.366.366l5 8.66zm-24.344.061a1 1 0 00.366 1.366l1.732 1a1 1 0 001.366-.366l5-8.66a1 1 0 00-.366-1.366l-1.732-1a1 1 0 00-1.366.366l-5 8.66z"/><path fill-rule="evenodd" clip-rule="evenodd" d="M40 20v10a6 6 0 01-6 6H14a6 6 0 01-6-6V20h3.74v4a6 6 0 006 6h12.608a6 6 0 006-6v-4H40z"/></symbol><symbol id="bag-chair" viewBox="0 0 48 48"><rect style="fill: var(--opacity, #fff)" opacity=".3" x="5.041" y="4" width="37.921" height="40" rx="7" fill="#000"/><path opacity=".3" fill-rule="evenodd" clip-rule="evenodd" d="M12.875 33l2.25-3c3.026 2.27 5.974 3.375 8.875 3.375 2.9 0 5.849-1.106 8.875-3.375l2.25 3c-3.641 2.73-7.36 4.125-11.125 4.125-3.766 0-7.484-1.394-11.125-4.125z"/></symbol><symbol id="bath" viewBox="0 0 48 48"><path style="fill: var(--opacity, #fff)" opacity=".3" d="M12 20a2 2 0 11-4 0v-8a6 6 0 0112 0 2 2 0 11-4 0 2 2 0 10-4 0v8zM12 40H8c0-5.523 4.477-8 10-8h12c5.523 0 10 2.477 10 8h-4c0-3.314-2.686-4-6-4H18c-3.314 0-6 .686-6 4z"/><path fill-rule="evenodd" clip-rule="evenodd" d="M46 18H4v13a5 5 0 005 5h32a5 5 0 005-5V18zm-6 3.5a1.5 1.5 0 00-1.5 1.5c0 2.861-1.111 5.083-3.4 6.8a1.5 1.5 0 001.8 2.4c3.044-2.283 4.6-5.395 4.6-9.2a1.5 1.5 0 00-1.5-1.5z"/></symbol><symbol id="bed" viewBox="0 0 48 48"><path style="fill: var(--opacity, #fff)" opacity=".3" d="M8 44H4c0-5.523 4.477-8 10-8h20c5.523 0 10 2.477 10 8h-4c0-3.314-2.686-4-6-4H14c-3.314 0-6 .686-6 4z"/><rect x="2" y="28" width="44" height="12" rx="1" fill="#000"/><path opacity=".3" fill-rule="evenodd" clip-rule="evenodd" d="M6 14a2 2 0 012-2h32a2 2 0 012 2v11a1 1 0 01-1 1h-3v-3a1 1 0 00-1-1H27a1 1 0 00-1 1v3h-4v-3a1 1 0 00-1-1H11a1 1 0 00-1 1v3H7a1 1 0 01-1-1V14z"/></symbol><symbol id="book-open" viewBox="0 0 48 48"><path fill-rule="evenodd" clip-rule="evenodd" d="M26 37.238c0 .363.378.598.716.465 2.009-.794 8.125-2.953 16.819-3.666A.492.492 0 0044 33.55V10.488a.471.471 0 00-.494-.477c-1.974.065-9.555.531-17.207 3.858a.49.49 0 00-.299.45v22.919z"/><path style="fill: var(--opacity, #fff)" opacity=".3" fill-rule="evenodd" clip-rule="evenodd" d="M22 37.238c0 .363-.378.598-.716.465-2.009-.794-8.125-2.953-16.819-3.666A.492.492 0 014 33.55V10.488c0-.276.218-.486.494-.477 1.974.065 9.555.531 17.207 3.858a.49.49 0 01.299.45v22.919z"/></symbol><symbol id="book" viewBox="0 0 48 48"><path fill-rule="evenodd" clip-rule="evenodd" d="M38 4H14c-3.493 0-6 2.612-6 6v28c0 3.388 2.507 6 6 6h24c1.284 0 2-.746 2-2v-2H15.667c-.92 0-1.667-.746-1.667-1.667v-.666c0-.92.746-1.667 1.667-1.667H40V6c0-1.254-.716-2-2-2z"/><mask id="a" maskUnits="userSpaceOnUse" x="8" y="4" width="32" height="40"><path fill-rule="evenodd" clip-rule="evenodd" d="M38 4H14c-3.493 0-6 2.612-6 6v28c0 3.388 2.507 6 6 6h24c1.284 0 2-.746 2-2v-2H15.667c-.92 0-1.667-.746-1.667-1.667v-.666c0-.92.746-1.667 1.667-1.667H40V6c0-1.254-.716-2-2-2z"/></mask></symbol><symbol id="box" viewBox="0 0 48 48"><path fill-rule="evenodd" clip-rule="evenodd" d="M40 14H8v26.5A1.5 1.5 0 009.5 42h29a1.5 1.5 0 001.5-1.5V14zm-20.5 6a1.5 1.5 0 00-1.5 1.5v1a1.5 1.5 0 001.5 1.5h9a1.5 1.5 0 001.5-1.5v-1a1.5 1.5 0 00-1.5-1.5h-9z"/><rect style="fill: var(--opacity, #fff)" opacity=".3" x="4" y="6" width="40" height="8" rx="1" fill="#000"/></symbol><symbol id="broom" viewBox="0 0 48 48"><path style="fill: var(--opacity, #fff)" opacity=".3" fill-rule="evenodd" clip-rule="evenodd" d="M21.056 45.056l-3.46-3.46 2.395-4.703-5.28 1.819-4.613-4.614 6.21-10.825-10.824 6.211L2.601 26.6l15.93-10.538a9.355 9.355 0 0112.684 2.243A11.641 11.641 0 0131 32.425l-9.944 12.63z"/><rect x="29.536" y="25.121" width="14.863" height="14.877" rx="2" transform="rotate(-135 29.536 25.121)" fill="#000"/></symbol><symbol id="building" viewBox="0 0 48 48"><path fill-rule="evenodd" clip-rule="evenodd" d="M10 6a2 2 0 012-2h24a2 2 0 012 2v36H27v-7a1 1 0 00-1-1h-4a1 1 0 00-1 1v7H10V6zm6 3a1 1 0 011-1h4a1 1 0 011 1v4a1 1 0 01-1 1h-4a1 1 0 01-1-1V9zm11-1a1 1 0 00-1 1v4a1 1 0 001 1h4a1 1 0 001-1V9a1 1 0 00-1-1h-4zm-11 9a1 1 0 011-1h4a1 1 0 011 1v4a1 1 0 01-1 1h-4a1 1 0 01-1-1v-4zm1 7a1 1 0 00-1 1v4a1 1 0 001 1h4a1 1 0 001-1v-4a1 1 0 00-1-1h-4zm9 1a1 1 0 011-1h4a1 1 0 011 1v4a1 1 0 01-1 1h-4a1 1 0 01-1-1v-4z"/><rect x="26" y="16" width="6" height="6" rx="1" fill="#fff"/><path style="fill: var(--opacity, #fff)" opacity=".3" d="M6 45.976A3.976 3.976 0 019.976 42h28.048A3.976 3.976 0 0142 45.976c0 .013-.01.024-.024.024H6.024A.024.024 0 016 45.976z"/></symbol><symbol id="buld#1" viewBox="0 0 48 48"><path style="fill: var(--opacity, #fff)" opacity=".3" fill-rule="evenodd" clip-rule="evenodd" d="M24 34c8.837 0 16-7.163 16-16S32.837 2 24 2 8 9.163 8 18s7.163 16 16 16z"/><path opacity=".3" fill-rule="evenodd" clip-rule="evenodd" d="M13.076 18l8.06 20.725 2.816-1.095 2.797 1.105L34.941 18H13.076zm5.848 4H29.06l-5.108 12.93L18.924 22z"/><path opacity=".3" d="M20 44h8v2a2 2 0 01-2 2h-4a2 2 0 01-2-2v-2z"/><path fill-rule="evenodd" clip-rule="evenodd" d="M16 34a2 2 0 012-2h12a2 2 0 110 4 2 2 0 110 4 2 2 0 110 4H18a2 2 0 110-4 2 2 0 110-4 2 2 0 01-2-2z"/></symbol><symbol id="buld#2" viewBox="0 0 48 48"><path style="fill: var(--opacity, #fff)" opacity=".3" d="M20 40h8v2a2 2 0 01-2 2h-4a2 2 0 01-2-2v-2z"/><path opacity=".3" fill-rule="evenodd" clip-rule="evenodd" d="M21 18a1 1 0 100 2h1v17a1 1 0 001 1h2a1 1 0 001-1V20h1a1 1 0 100-2h-6z"/><path fill-rule="evenodd" clip-rule="evenodd" d="M16 30a2 2 0 012-2h12a2 2 0 110 4 2 2 0 110 4 2 2 0 110 4H18a2 2 0 110-4 2 2 0 110-4 2 2 0 01-2-2z"/></symbol><symbol id="chair#1" viewBox="0 0 48 48"><path fill-rule="evenodd" clip-rule="evenodd" d="M15.833 4a7 7 0 00-7 7v18a7 7 0 007 7H32.17a7 7 0 007-7V11a7 7 0 00-7-7H15.833zM16.9 24.8l-1.8 2.4c2.913 2.184 5.887 3.3 8.9 3.3 3.013 0 5.987-1.116 8.9-3.3l-1.8-2.4c-2.42 1.816-4.78 2.7-7.1 2.7-2.32 0-4.68-.884-7.1-2.7z"/><path style="fill: var(--opacity, #fff)" opacity=".3" fill-rule="evenodd" clip-rule="evenodd" d="M36.164 42.926a1 1 0 01-.366 1.367l-1.732 1a1 1 0 01-1.366-.367l-5-8.66a1 1 0 01.366-1.366l1.732-1a1 1 0 011.366.366l5 8.66zm-24.344.061a1 1 0 00.366 1.366l1.732 1a1 1 0 001.366-.366l5-8.66a1 1 0 00-.366-1.366l-1.732-1a1 1 0 00-1.366.366l-5 8.66z"/></symbol><symbol id="chair#2" viewBox="0 0 48 48"><path style="fill: var(--opacity, #fff)" opacity=".3" fill-rule="evenodd" clip-rule="evenodd" d="M12.826 43.969a1 1 0 00.707 1.224l1.932.518a1 1 0 001.225-.707l3.714-13.86a1 1 0 00-.707-1.225l-1.932-.518a1 1 0 00-1.225.707l-3.714 13.86zm22.332-.06a1 1 0 01-.707 1.224l-1.932.517a1 1 0 01-1.225-.707l-3.123-11.656a1 1 0 01.707-1.225l1.932-.518a1 1 0 011.225.707l3.123 11.657z"/><path fill-rule="evenodd" clip-rule="evenodd" d="M14 2a2 2 0 00-2 2v21.5a.5.5 0 00.5.5h23a.5.5 0 00.5-.5V4a2 2 0 00-2-2H14zM9.5 28A1.5 1.5 0 008 29.5v3A1.5 1.5 0 009.5 34h29a1.5 1.5 0 001.5-1.5v-3a1.5 1.5 0 00-1.5-1.5h-29z"/></symbol><symbol id="clock" viewBox="0 0 48 48"><path style="fill: var(--opacity, #fff)" opacity=".3" fill-rule="evenodd" clip-rule="evenodd" d="M24 44c-9.941 0-18-8.059-18-18S14.059 8 24 8s18 8.059 18 18-8.059 18-18 18z"/><path fill-rule="evenodd" clip-rule="evenodd" d="M22.964 15.462a.5.5 0 01.499-.462h1.084a.5.5 0 01.498.45L26 25l6.748 3.856a.5.5 0 01.252.434v1.055a.5.5 0 01-.632.483l-9.97-2.72a.5.5 0 01-.366-.52l.932-12.126z"/></symbol><symbol id="commode#1" viewBox="0 0 48 48"><path style="fill: var(--opacity, #fff)" opacity=".3" fill-rule="evenodd" clip-rule="evenodd" d="M9.5 8A1.5 1.5 0 008 9.5v11A1.5 1.5 0 009.5 22h29a1.5 1.5 0 001.5-1.5v-11A1.5 1.5 0 0038.5 8h-29zm12 4a1.5 1.5 0 00-1.5 1.5v1a1.5 1.5 0 001.5 1.5h5a1.5 1.5 0 001.5-1.5v-1a1.5 1.5 0 00-1.5-1.5h-5z"/><path fill-rule="evenodd" clip-rule="evenodd" d="M9.5 26A1.5 1.5 0 008 27.5v11A1.5 1.5 0 009.5 40h29a1.5 1.5 0 001.5-1.5v-11a1.5 1.5 0 00-1.5-1.5h-29zm12 4a1.5 1.5 0 00-1.5 1.5v1a1.5 1.5 0 001.5 1.5h5a1.5 1.5 0 001.5-1.5v-1a1.5 1.5 0 00-1.5-1.5h-5z"/></symbol><symbol id="commode#2" viewBox="0 0 48 48"><path style="fill: var(--opacity, #fff)" opacity=".3" fill-rule="evenodd" clip-rule="evenodd" d="M9.5 4A1.5 1.5 0 008 5.5v9A1.5 1.5 0 009.5 16h29a1.5 1.5 0 001.5-1.5v-9A1.5 1.5 0 0038.5 4h-29zm12 4A1.5 1.5 0 0020 9.5v1a1.5 1.5 0 001.5 1.5h5a1.5 1.5 0 001.5-1.5v-1A1.5 1.5 0 0026.5 8h-5z"/><path fill-rule="evenodd" clip-rule="evenodd" d="M9.5 18A1.5 1.5 0 008 19.5v9A1.5 1.5 0 009.5 30h29a1.5 1.5 0 001.5-1.5v-9a1.5 1.5 0 00-1.5-1.5h-29zm12 4a1.5 1.5 0 00-1.5 1.5v1a1.5 1.5 0 001.5 1.5h5a1.5 1.5 0 001.5-1.5v-1a1.5 1.5 0 00-1.5-1.5h-5zM8 33.5A1.5 1.5 0 019.5 32h29a1.5 1.5 0 011.5 1.5v9a1.5 1.5 0 01-1.5 1.5h-29A1.5 1.5 0 018 42.5v-9zM21.5 36a1.5 1.5 0 00-1.5 1.5v1a1.5 1.5 0 001.5 1.5h5a1.5 1.5 0 001.5-1.5v-1a1.5 1.5 0 00-1.5-1.5h-5z"/></symbol><symbol id="couch" viewBox="0 0 48 48"><path style="fill: var(--opacity, #fff)" opacity=".3" d="M12 40H8c0-5.523 4.477-8 10-8h12c5.523 0 10 2.477 10 8h-4c0-3.314-2.686-4-6-4H18c-3.314 0-6 .686-6 4z"/><path opacity=".3" fill-rule="evenodd" clip-rule="evenodd" d="M46 16h-3.652a4 4 0 00-4 4v4a2 2 0 01-2 2H11.739a2 2 0 01-2-2v-4a4 4 0 00-4-4H2a6 6 0 016-6h32a6 6 0 016 6z"/><path fill-rule="evenodd" clip-rule="evenodd" d="M46 20v10a6 6 0 01-6 6H8a6 6 0 01-6-6V20h3.74v4a6 6 0 006 6h24.608a6 6 0 006-6v-4H46z"/></symbol><symbol id="cupboard" viewBox="0 0 48 48"><path style="fill: var(--opacity, #fff)" opacity=".3" fill-rule="evenodd" clip-rule="evenodd" d="M5.5 6A1.5 1.5 0 004 7.5v31A1.5 1.5 0 005.5 40h15a1.5 1.5 0 001.5-1.5v-31A1.5 1.5 0 0020.5 6h-15zm12 12a1.5 1.5 0 00-1.5 1.5v5a1.5 1.5 0 001.5 1.5h1a1.5 1.5 0 001.5-1.5v-5a1.5 1.5 0 00-1.5-1.5h-1z"/><path fill-rule="evenodd" clip-rule="evenodd" d="M42.5 6A1.5 1.5 0 0144 7.5v31a1.5 1.5 0 01-1.5 1.5h-15a1.5 1.5 0 01-1.5-1.5v-31A1.5 1.5 0 0127.5 6h15zm-12 12a1.5 1.5 0 011.5 1.5v5a1.5 1.5 0 01-1.5 1.5h-1a1.5 1.5 0 01-1.5-1.5v-5a1.5 1.5 0 011.5-1.5h1z"/></symbol><symbol id="curtains" viewBox="0 0 48 48"><path style="fill: var(--opacity, #fff)" opacity=".3" fill-rule="evenodd" clip-rule="evenodd" d="M6 7a1 1 0 011-1h15v4c0 8.837-7.163 16-16 16V7zm36 0a1 1 0 00-1-1H26v4c0 8.837 7.163 16 16 16V7z"/><path fill-rule="evenodd" clip-rule="evenodd" d="M7 42a1 1 0 01-1-1V26c6.627 0 12 5.373 12 12v4H7zm34 0a1 1 0 001-1V26c-6.627 0-12 5.373-12 12v4h11z"/></symbol><symbol id="deer" viewBox="0 0 48 48"><path style="fill: var(--opacity, #fff)" opacity=".3" fill-rule="evenodd" clip-rule="evenodd" d="M42.039 5.608a2 2 0 012.353-1.57l-3.12 5.403.767-3.833zm-1.866 5.737l1.099-1.904-.5 2.502-.599-.598zm-2.07 3.585l-5.517-5.516a2 2 0 112.828-2.828l4.759 4.758-2.07 3.586zm-.952 1.647l.951-1.647.673.673-1.624.974zm-.117.204l.117-.204-.239.143-5.018-2.509a2 2 0 10-1.788 3.578l2.74 1.37-1.4.84H16.554h14.892l1.4-.84 4.066-2.439.122.06zm-21.616 7.132A2 2 0 0016 24h16a1.902 1.902 0 00.068-.001 2 2 0 00.96-.284h.001l4.005-6.934.86.43c1.412.706 1.488 2.692.135 3.504l-5 3A2 2 0 0132 24H16a2 2 0 01-.582-.087zm-.328-.132a2.173 2.173 0 01-.119-.066 1.948 1.948 0 00.119.066zM9.97 20.715c-1.295-.777-1.295-2.653 0-3.43L11 16.668 14.887 19l2.142-1.285a2 2 0 10-2.058-3.43L11 16.668l-1.775-1.065 6.19-6.189a2 2 0 00-2.83-2.828l-5.357 5.357-1.267-6.335a2 2 0 10-3.922.784l1.997 9.988a1.986 1.986 0 00.935 1.335l5 3zM44.392 4.039l-.428 12.338 1.997-9.985a2 2 0 00-1.569-2.353z"/><rect x="15.71" y="20" width="16.579" height="22" rx="2" fill="#000"/></symbol><symbol id="door-open" viewBox="0 0 48 49"><path style="fill: var(--opacity, #fff)" opacity=".3" d="M14 9.993v32.882h-4V6.125h12v3.868h-8z"/><path fill-rule="evenodd" clip-rule="evenodd" d="M19 4.765a1 1 0 00-1 1v37.47a1 1 0 001 1h18a1 1 0 001-1V5.765a1 1 0 00-1-1H19zm7.333 18.81c0 1.532-1.119 2.775-2.5 2.775-1.38 0-2.5-1.243-2.5-2.775 0-1.532 1.12-2.775 2.5-2.775 1.381 0 2.5 1.243 2.5 2.775z"/></symbol><symbol id="earth" viewBox="0 0 48 48"><path style="fill: var(--opacity, #fff)" opacity=".3" fill-rule="evenodd" clip-rule="evenodd" d="M24 42c9.941 0 18-8.059 18-18S33.941 6 24 6 6 14.059 6 24s8.059 18 18 18z"/><path opacity=".3" fill-rule="evenodd" clip-rule="evenodd" d="M23.471 41.992C13.775 41.712 6 33.764 6 24c0-.166.002-.332.007-.497 1.318.126 3.706.412 3.818 1.338.156 1.28 0 2.882 1.091 3.363 1.09.48 1.403-1.922 2.338-1.282.934.641 3.428 1.258 3.428 2.39 0 1.133-.468 2.895 0 3.215.467.32 2.336 2.562 2.336 2.883.001.32.66 1.949.463 2.571-.163.517-.984 2.12-1.78 2.848a17.48 17.48 0 005.77 1.163zm-6.905-34.39A17.934 17.934 0 0124 6c7.023 0 13.106 4.022 16.073 9.888.066 1.56.055 2.895.4 3.377 1.753 2.455-4.274 4.144-3.358 7.856.403 1.638-4.01 1.118-5.087 2.652-1.078 1.532-3.713.503-4.324.208-.61-.295-2.95.687-2.746-.982.203-1.67 1.627-1.768 3.153-2.455s3.727-2.97 2.645-3.268c-5.091-1.404-6.828-6.319-6.828-6.319-.306-.059-.23-3.475-1.551-3.573-1.323-.098-2.036.393-3.968 0-1.934-.393-1.526-1.67-1.832-4.419-.068-.617-.065-1.05-.012-1.363zm25.432 16.152L42 24c0 9.881-7.962 17.903-17.821 18 9.761-.1 17.688-8.223 17.82-18.246z"/></symbol><symbol id="fireplace" viewBox="0 0 48 48"><path style="fill: var(--opacity, #fff)" opacity=".3" fill-rule="evenodd" clip-rule="evenodd" d="M8 8a2 2 0 00-2 2v28a2 2 0 002 2h6V19a5 5 0 015-5h10a5 5 0 015 5v21h6a2 2 0 002-2V10a2 2 0 00-2-2H8z"/><path fill-rule="evenodd" clip-rule="evenodd" d="M25.944 23.401s-.486 4.859-2.916 5.2c0 0 1.458-5.686-.486-8.601 0 0-.206 3.124-2.288 6.872-.976 1.757-2.085 2.941-2.085 5.275 0 3.332 3.413 5.054 5.837 5.054 2.423 0 5.825-1.166 5.825-5.248 0-2.517-3.887-8.552-3.887-8.552z"/></symbol><symbol id="flashlight" viewBox="0 0 48 48"><path fill-rule="evenodd" clip-rule="evenodd" d="M36 12H12v8s6 3 6 8v14a2 2 0 002 2h8a2 2 0 002-2V28c0-3.44 6-8 6-8v-8zM20 24a2 2 0 012-2h4a2 2 0 012 2v8a2 2 0 01-2 2h-4a2 2 0 01-2-2v-8zm6 2a2 2 0 11-4 0 2 2 0 014 0z"/><path style="fill: var(--opacity, #fff)" opacity=".3" d="M12 5a1 1 0 011-1h22a1 1 0 011 1v3H12V5z"/></symbol><symbol id="flower#1" viewBox="0 0 48 48"><path style="fill: var(--opacity, #fff)" opacity=".3" fill-rule="evenodd" clip-rule="evenodd" d="M10.267 4.072s20.834 11.629 15 25.981c-14.914-2.373-15-25.98-15-25.98z"/><path opacity=".3" fill-rule="evenodd" clip-rule="evenodd" d="M37.483 4.072s-20.834 11.629-15 25.981c14.914-2.373 15-25.98 15-25.98z"/><path opacity=".3" fill-rule="evenodd" clip-rule="evenodd" d="M24 2s-12.23 20.488 0 30c11.73-9.512 0-30 0-30z"/><path d="M11.236 27a1 1 0 011-1h23.527a1 1 0 011 1v17a2 2 0 01-2 2H13.236a2 2 0 01-2-2V27z"/></symbol><symbol id="flower#2" viewBox="0 0 48 48"><path style="fill: var(--opacity, #fff)" opacity=".3" fill-rule="evenodd" clip-rule="evenodd" d="M30 44c5.523 0 10-4.477 10-10s-4.477-10-10-10-10 4.477-10 10 4.477 10 10 10z"/><path opacity=".3" fill-rule="evenodd" clip-rule="evenodd" d="M18 44c5.523 0 10-4.477 10-10s-4.477-10-10-10S8 28.477 8 34s4.477 10 10 10z"/><path opacity=".3" fill-rule="evenodd" clip-rule="evenodd" d="M14 32c5.523 0 10-4.477 10-10s-4.477-10-10-10S4 16.477 4 22s4.477 10 10 10zM34 32c5.523 0 10-4.477 10-10s-4.477-10-10-10-10 4.477-10 10 4.477 10 10 10z"/><path opacity=".3" fill-rule="evenodd" clip-rule="evenodd" d="M24 24c5.523 0 10-4.477 10-10S29.523 4 24 4 14 8.477 14 14s4.477 10 10 10z"/></symbol><symbol id="flower#3" viewBox="0 0 48 48"><path style="fill: var(--opacity, #fff)" opacity=".3" fill-rule="evenodd" clip-rule="evenodd" d="M2.83 9.68C22.356 20.672 29.415 32.9 24.007 46.36 10.05 44.079 2.99 31.853 2.83 9.68z"/><path opacity=".3" fill-rule="evenodd" clip-rule="evenodd" d="M45.19 9.68C25.664 20.672 18.605 32.9 24.014 46.36 37.97 44.079 45.029 31.853 45.19 9.68z"/><path opacity=".3" fill-rule="evenodd" clip-rule="evenodd" d="M24 4S6.88 32.924 24 46.353C40.421 32.924 24 4 24 4z"/></symbol><symbol id="globe" viewBox="0 0 48 48"><path fill-rule="evenodd" clip-rule="evenodd" d="M9.477 35.349l2.11-2.312A17.944 17.944 0 0022 37.89V40h-4a2 2 0 00-2 2v2h16v-2a2 2 0 00-2-2h-4v-2.11c9-.995 16-8.625 16-17.89a17.975 17.975 0 00-7.4-14.549 2 2 0 10-2.357 3.232A13.976 13.976 0 0138 20c0 7.732-6.268 14-14 14a13.967 13.967 0 01-10.872-5.178 2 2 0 00-3.03-.088l-3.575 3.918a2 2 0 002.954 2.697z"/><path style="fill: var(--opacity, #fff)" opacity=".3" fill-rule="evenodd" clip-rule="evenodd" d="M24 32c6.627 0 12-5.373 12-12S30.627 8 24 8s-12 5.373-12 12 5.373 12 12 12z"/></symbol><symbol id="home-heart" viewBox="0 0 48 48"><path style="fill: var(--opacity, #fff)" opacity=".3" fill-rule="evenodd" clip-rule="evenodd" d="M27.6 24c-1.288 0-2.793 1.46-3.6 2.4-.807-.94-2.312-2.4-3.6-2.4-2.28 0-3.6 1.778-3.6 4.04C16.8 31.8 24 36 24 36s7.2-4.2 7.2-7.8c0-2.263-1.32-4.2-3.6-4.2z"/></symbol><symbol id="home" viewBox="0 0 54 61"><rect x="18" y="26" width="36" height="34.656" rx="1" fill="#000"/></symbol><symbol id="key" viewBox="0 0 48 48"><path style="fill: var(--opacity, #fff)" opacity=".3" fill-rule="evenodd" clip-rule="evenodd" d="M22.732 21.645L10 34v6h6v-4h3.884v-4H24l4.369-4.718-5.637-5.637z"/><path fill-rule="evenodd" clip-rule="evenodd" d="M40.456 26.456c-4.687 4.686-12.285 4.686-16.97 0-4.687-4.686-4.687-12.284 0-16.97 4.686-4.687 12.284-4.687 16.97 0 4.686 4.686 4.686 12.284 0 16.97zm-4.092-8.092a3 3 0 11-4.243-4.243 3 3 0 014.243 4.243z"/></symbol><symbol id="ladder" viewBox="0 0 48 48"><path style="fill: var(--opacity, #fff)" opacity=".3" fill-rule="evenodd" clip-rule="evenodd" d="M13 10a1 1 0 00-1 1v2a1 1 0 001 1h22a1 1 0 001-1v-2a1 1 0 00-1-1H13zm0 8a1 1 0 00-1 1v2a1 1 0 001 1h22a1 1 0 001-1v-2a1 1 0 00-1-1H13zm-1 9a1 1 0 011-1h22a1 1 0 011 1v2a1 1 0 01-1 1H13a1 1 0 01-1-1v-2zm1 7a1 1 0 00-1 1v2a1 1 0 001 1h22a1 1 0 001-1v-2a1 1 0 00-1-1H13z"/><path fill-rule="evenodd" clip-rule="evenodd" d="M9.5 4A1.5 1.5 0 008 5.5v37A1.5 1.5 0 009.5 44h3a1.5 1.5 0 001.5-1.5v-37A1.5 1.5 0 0012.5 4h-3zm26 0A1.5 1.5 0 0034 5.5v37a1.5 1.5 0 001.5 1.5h3a1.5 1.5 0 001.5-1.5v-37A1.5 1.5 0 0038.5 4h-3z"/></symbol><symbol id="lamp#1" viewBox="0 0 48 48"><path d="M16 40a2 2 0 012-2h12a2 2 0 012 2v2H16v-2z"/><rect style="fill: var(--opacity, #fff)" opacity=".3" x="22" y="24" width="4" height="12" rx="1" fill="#000"/><rect x="30" y="13.035" width="4" height="10" rx="1" transform="rotate(-15 30 13.035)" fill="#fff"/><path d="M6 10a2 2 0 012-2h32a2 2 0 012 2v16H6V10z"/></symbol><symbol id="lamp#2" viewBox="0 0 48 48"><path style="fill: var(--opacity, #fff)" opacity=".3" fill-rule="evenodd" clip-rule="evenodd" d="M24 4h1a1 1 0 011 1v17a2 2 0 11-4 0V5a1 1 0 011-1h1zM16.252 38a8.003 8.003 0 0015.496 0H16.252z"/><path d="M6 34c0-9.941 8.059-18 18-18s18 8.059 18 18H6z"/></symbol><symbol id="library" viewBox="0 0 48 48"><path fill-rule="evenodd" clip-rule="evenodd" d="M9 6a1 1 0 00-1 1v34a1 1 0 001 1h4a1 1 0 001-1V7a1 1 0 00-1-1H9zm10 0a1 1 0 00-1 1v34a1 1 0 001 1h4a1 1 0 001-1V7a1 1 0 00-1-1h-4z"/><rect style="fill: var(--opacity, #fff)" opacity=".3" x="26.954" y="7.849" width="6" height="36" rx="1" transform="rotate(-19 26.954 7.849)" fill="#000"/></symbol><symbol id="mailbox" viewBox="0 0 48 48"><path fill-rule="evenodd" clip-rule="evenodd" d="M11.5 6A1.5 1.5 0 0010 7.5V12H5.5A1.5 1.5 0 004 13.5v3A1.5 1.5 0 005.5 18H10v22.5a1.5 1.5 0 001.5 1.5h3a1.5 1.5 0 001.5-1.5V18h26.5a1.5 1.5 0 001.5-1.5v-3a1.5 1.5 0 00-1.5-1.5H16V7.5A1.5 1.5 0 0014.5 6h-3z"/><path style="fill: var(--opacity, #fff)" opacity=".3" fill-rule="evenodd" clip-rule="evenodd" d="M42.5 22H20v14.5a1.5 1.5 0 001.5 1.5h16a6.5 6.5 0 006.5-6.5v-8a1.5 1.5 0 00-1.5-1.5zM39 24a1 1 0 00-1 1v8a1 1 0 001 1h2a1 1 0 001-1v-8a1 1 0 00-1-1h-2z"/></symbol><symbol id="mirror" viewBox="0 0 48 48"><path fill-rule="evenodd" clip-rule="evenodd" d="M7.891 16.211a2 2 0 00-1.74 2.23C7.174 26.739 13.797 33.185 22 34.097V36h-4a2 2 0 00-2 2v2h16v-2a2 2 0 00-2-2h-4v-1.903c8.294-.92 14.965-7.497 15.882-15.908a2 2 0 00-3.977-.433c-.769 7.053-6.75 12.451-13.903 12.451-7.081 0-13.023-5.291-13.88-12.255a2 2 0 00-2.23-1.74z"/><path style="fill: var(--opacity, #fff)" opacity=".3" fill-rule="evenodd" clip-rule="evenodd" d="M36 16c0 6.627-5.373 12-12 12s-12-5.373-12-12S17.373 4 24 4s12 5.373 12 12zm-19.769-1.616c.723-.05 1.35.494 1.401 1.218.175 2.497 1.28 4.369 3.383 5.727a1.313 1.313 0 01-1.425 2.205c-2.797-1.807-4.344-4.428-4.577-7.75a1.313 1.313 0 011.218-1.4z"/></symbol><symbol id="picture" viewBox="0 0 48 48"><rect style="fill: var(--opacity, #fff)" opacity=".3" x="4" y="8" width="40" height="32" rx="2" fill="#000"/><path opacity=".3" fill-rule="evenodd" clip-rule="evenodd" d="M8 40l13-18 13 18H8z"/><path fill-rule="evenodd" clip-rule="evenodd" d="M22 40l9-12 9 12H22z"/><path opacity=".3" fill-rule="evenodd" clip-rule="evenodd" d="M37 20a3 3 0 100-6 3 3 0 000 6z"/></symbol><symbol id="stairs" viewBox="0 0 48 48"><path d="M40.5 8A1.5 1.5 0 0142 9.5v27a1.5 1.5 0 01-1.5 1.5h-33A1.5 1.5 0 016 36.5v-9A1.5 1.5 0 017.5 26H18v-8.5a1.5 1.5 0 011.5-1.5H30V9.5A1.5 1.5 0 0131.5 8h9z"/></symbol><symbol id="timer" viewBox="0 0 48 48"><path style="fill: var(--opacity, #fff)" opacity=".3" fill-rule="evenodd" clip-rule="evenodd" d="M24 42c-8.837 0-16-7.163-16-16s7.163-16 16-16 16 7.163 16 16-7.163 16-16 16z"/><path fill-rule="evenodd" clip-rule="evenodd" d="M26 10.124V8h2a2 2 0 100-4h-8a2 2 0 100 4h2v2.124a16.158 16.158 0 014 0zM36.334 15.808l2.273-2.272a1 1 0 000-1.415l-1.415-1.414a1 1 0 00-1.414 0l-2.358 2.359a16.09 16.09 0 012.914 2.742zM22.964 15.462a.5.5 0 01.499-.462h1.074a.5.5 0 01.498.462l.924 12a.5.5 0 01-.499.538h-2.92a.5.5 0 01-.499-.538l.923-12z"/></symbol><symbol id="toilet" viewBox="0 0 48 48"><rect style="fill: var(--opacity, #fff)" opacity=".3" x="12" y="2" width="24" height="8" rx="1" fill="#000"/><path fill-rule="evenodd" clip-rule="evenodd" d="M12.133 14a2 2 0 012-2h21.234a.5.5 0 01.5.5v14.262c.088.73.133 1.477.133 2.238 0 8.284-5.373 15-12 15s-12-6.716-12-15c0-.88.06-1.742.177-2.58a2.007 2.007 0 01-.044-.42V14zM32 30c0 5.523-3.582 10-8 10s-8-4.477-8-10 3.582-10 8-10 8 4.477 8 10z"/><path opacity=".3" d="M21 28.5a.5.5 0 01.5-.5h5a.5.5 0 01.5.5v4a1.5 1.5 0 01-1.5 1.5h-3a1.5 1.5 0 01-1.5-1.5v-4z"/></symbol><symbol id="towel" viewBox="0 0 48 48"><path fill-rule="evenodd" clip-rule="evenodd" d="M36 32H18a2 2 0 110-4h16a2 2 0 100-4H18a6 6 0 000 12h21c3 0 3 1 3 2s0 2-3 2H14a8 8 0 01-8-8V16a8 8 0 018-8h20a8 8 0 018 8v10a6 6 0 01-6 6z"/></symbol><symbol id="trash" viewBox="0 0 48 48"><path fill-rule="evenodd" clip-rule="evenodd" d="M13.893 40.615L12 16h24l-1.894 24.615A1.5 1.5 0 0132.611 42H15.389a1.5 1.5 0 01-1.495-1.385zm3.016-12.436L16 20h16l-.896 8.068-14.195.11z"/><path style="fill: var(--opacity, #fff)" opacity=".3" fill-rule="evenodd" clip-rule="evenodd" d="M28 9V6.5a.5.5 0 00-.5-.5h-7a.5.5 0 00-.5.5V9h-9.5a.5.5 0 00-.5.5v2a.5.5 0 00.5.5h27a.5.5 0 00.5-.5v-2a.5.5 0 00-.5-.5H28z"/></symbol><symbol id="water-mixer" viewBox="0 0 48 48"><path style="fill: var(--opacity, #fff)" opacity=".3" d="M8 41a5 5 0 015-5h6a5 5 0 015 5v3H8v-3z"/><path fill-rule="evenodd" clip-rule="evenodd" d="M18 24.252a8 8 0 11-4 0V16c0-6.627 5.373-12 12-12s12 5.373 12 12v2h-4v-2a8 8 0 10-16 0v8.252zM16 36a4 4 0 100-8 4 4 0 000 8z"/><path opacity=".3" fill-rule="evenodd" clip-rule="evenodd" d="M36 34a4 4 0 004-4c0-2.21-4-6-4-6s-4 3.79-4 6a4 4 0 004 4z"/></symbol><symbol id="weight#1" viewBox="0 0 48 48"><path fill-rule="evenodd" clip-rule="evenodd" d="M9 18a3 3 0 00-3 3v21h36V21a3 3 0 00-3-3H9zm13.528 9.68V36h2.688V24.672h-2.464l-3.728 2.736 1.392 1.904 2.112-1.632z"/><path style="fill: var(--opacity, #fff)" opacity=".3" fill-rule="evenodd" clip-rule="evenodd" d="M24 16a5 5 0 100-10 5 5 0 000 10z"/></symbol><symbol id="weight#2" viewBox="0 0 48 48"><rect style="fill: var(--opacity, #fff)" opacity=".3" x="26.536" y="16" width="4" height="15.301" rx="1" transform="rotate(33 26.536 16)" fill="#000"/><path fill-rule="evenodd" clip-rule="evenodd" d="M10.5 6A4.5 4.5 0 006 10.5v25a4.5 4.5 0 004.5 4.5h27a4.5 4.5 0 004.5-4.5v-25A4.5 4.5 0 0037.5 6h-27zm6.643 18L12 15.765S15 10 24 10s12 5.765 12 5.765L30.857 24H17.143z"/></symbol><symbol id="wood-horse" viewBox="0 0 48 48"><path fill-rule="evenodd" clip-rule="evenodd" d="M12.982 42.52a.5.5 0 00.5.48h2.136a.5.5 0 00.482-.368l2.777-10.18a.504.504 0 01.582-.362c1.27.246 4.852.91 6.541.91 1.76 0 7.013-.72 8.564-.938a.5.5 0 01.552.364L37.9 42.632a.5.5 0 00.482.368h2.156a.5.5 0 00.499-.46l1.617-20.221a4 4 0 00-3.987-4.32H26S23.077 11.905 21 10c-.87-.797-9.265-3.976-11.471-4.803a.297.297 0 00-.391.355l.791 3.165a.5.5 0 01-.14.484C9.205 9.762 7.558 11.35 7 12c-.588.685-1.644 3.892-1.928 4.775a.49.49 0 00.06.424l1.604 2.404a.5.5 0 00.673.152l3.142-1.886a1 1 0 011.514.82l.917 23.83z"/></symbol><symbol id="wood#1" viewBox="0 0 48 48"><path style="fill: var(--opacity, #fff)" opacity=".3" fill-rule="evenodd" clip-rule="evenodd" d="M24 38c7.732 0 14-6.268 14-14S24 4 24 4 10 16.268 10 24c0 7.732 6.268 14 14 14z"/><rect x="22" y="22" width="4" height="22" rx="1" fill="#000"/></symbol><symbol id="wood#2" viewBox="0 0 48 48"><path style="fill: var(--opacity, #fff)" opacity=".3" fill-rule="evenodd" clip-rule="evenodd" d="M24 4L8 38h32L24 4z"/><rect x="22" y="22" width="4" height="22" rx="1" fill="#000"/></symbol></svg>