<?xml version="1.0" encoding="UTF-8"?><!DOCTYPE svg PUBLIC "-//W3C//DTD SVG 1.1//EN" "http://www.w3.org/Graphics/SVG/1.1/DTD/svg11.dtd"><svg xmlns="http://www.w3.org/2000/svg" xmlns:xlink="http://www.w3.org/1999/xlink"><defs/><symbol id="add_a_photo" viewBox="0 0 24 24"><path d="M3 4V1h2v3h3v2H5v3H3V6H0V4z"/><path d="M13 19c2.76 0 5-2.24 5-5s-2.24-5-5-5-5 2.24-5 5 2.24 5 5 5zm-7-9V7h3V4h7l1.83 2H21c1.1 0 2 .9 2 2v12c0 1.1-.9 2-2 2H5c-1.1 0-2-.9-2-2V10z"/><path d="M9.8 14c0 1.77 1.43 3.2 3.2 3.2s3.2-1.43 3.2-3.2-1.43-3.2-3.2-3.2-3.2 1.43-3.2 3.2z"/></symbol><symbol id="add_to_photos" viewBox="0 0 24 24"><path d="M4 6H2v14c0 1.1.9 2 2 2h14v-2H4V6z"/><path d="M19 11h-4v4h-2v-4H9V9h4V5h2v4h4v2zm1-9H8c-1.1 0-2 .9-2 2v12c0 1.1.9 2 2 2h12c1.1 0 2-.9 2-2V4c0-1.1-.9-2-2-2z"/></symbol><symbol id="adjust" viewBox="0 0 24 24"><path d="M12 20c-4.41 0-8-3.59-8-8s3.59-8 8-8 8 3.59 8 8-3.59 8-8 8zm0-18C6.49 2 2 6.49 2 12s4.49 10 10 10 10-4.49 10-10S17.51 2 12 2z"/><path d="M15 12c0 1.66-1.34 3-3 3s-3-1.34-3-3 1.34-3 3-3 3 1.34 3 3z"/></symbol><symbol id="assistant_photo" viewBox="0 0 24 24"><path d="M14.4 6 14 4H5v17h2v-7h5.6l.4 2h7V6z"/></symbol><symbol id="audiotrack" viewBox="0 0 24 24"><path d="M12 3v9.28a4.39 4.39 0 0 0-1.5-.28C8.01 12 6 14.01 6 16.5S8.01 21 10.5 21c2.31 0 4.2-1.75 4.45-4H15V6h4V3h-7z"/></symbol><symbol id="blur_circular" viewBox="0 0 24 24"><path d="M10 9c-.55 0-1 .45-1 1s.45 1 1 1 1-.45 1-1-.45-1-1-1zM10 13c-.55 0-1 .45-1 1s.45 1 1 1 1-.45 1-1-.45-1-1-1zM7 9.5c-.28 0-.5.22-.5.5s.22.5.5.5.5-.22.5-.5-.22-.5-.5-.5zM10 16.5c-.28 0-.5.22-.5.5s.22.5.5.5.5-.22.5-.5-.22-.5-.5-.5zM7 13.5c-.28 0-.5.22-.5.5s.22.5.5.5.5-.22.5-.5-.22-.5-.5-.5zM10 7.5c.28 0 .5-.22.5-.5s-.22-.5-.5-.5-.5.22-.5.5.22.5.5.5zM14 9c-.55 0-1 .45-1 1s.45 1 1 1 1-.45 1-1-.45-1-1-1zM14 7.5c.28 0 .5-.22.5-.5s-.22-.5-.5-.5-.5.22-.5.5.22.5.5.5zM17 13.5c-.28 0-.5.22-.5.5s.22.5.5.5.5-.22.5-.5-.22-.5-.5-.5zM17 9.5c-.28 0-.5.22-.5.5s.22.5.5.5.5-.22.5-.5-.22-.5-.5-.5z"/><path d="M12 20c-4.42 0-8-3.58-8-8s3.58-8 8-8 8 3.58 8 8-3.58 8-8 8zm0-18C6.48 2 2 6.48 2 12s4.48 10 10 10 10-4.48 10-10S17.52 2 12 2z"/><path d="M14 16.5c-.28 0-.5.22-.5.5s.22.5.5.5.5-.22.5-.5-.22-.5-.5-.5zM14 13c-.55 0-1 .45-1 1s.45 1 1 1 1-.45 1-1-.45-1-1-1z"/></symbol><symbol id="blur_linear" viewBox="0 0 24 24"><path d="M5 17.5c.83 0 1.5-.67 1.5-1.5s-.67-1.5-1.5-1.5-1.5.67-1.5 1.5.67 1.5 1.5 1.5zM9 13c.55 0 1-.45 1-1s-.45-1-1-1-1 .45-1 1 .45 1 1 1zM9 9c.55 0 1-.45 1-1s-.45-1-1-1-1 .45-1 1 .45 1 1 1zM3 21h18v-2H3v2zM5 9.5c.83 0 1.5-.67 1.5-1.5S5.83 6.5 5 6.5 3.5 7.17 3.5 8 4.17 9.5 5 9.5zM5 13.5c.83 0 1.5-.67 1.5-1.5s-.67-1.5-1.5-1.5-1.5.67-1.5 1.5.67 1.5 1.5 1.5zM9 17c.55 0 1-.45 1-1s-.45-1-1-1-1 .45-1 1 .45 1 1 1zM17 16.5c.28 0 .5-.22.5-.5s-.22-.5-.5-.5-.5.22-.5.5.22.5.5.5zM3 3v2h18V3H3zM17 8.5c.28 0 .5-.22.5-.5s-.22-.5-.5-.5-.5.22-.5.5.22.5.5.5zM17 12.5c.28 0 .5-.22.5-.5s-.22-.5-.5-.5-.5.22-.5.5.22.5.5.5zM13 9c.55 0 1-.45 1-1s-.45-1-1-1-1 .45-1 1 .45 1 1 1zM13 13c.55 0 1-.45 1-1s-.45-1-1-1-1 .45-1 1 .45 1 1 1zM13 17c.55 0 1-.45 1-1s-.45-1-1-1-1 .45-1 1 .45 1 1 1z"/></symbol><symbol id="blur_off" viewBox="0 0 24 24"><path d="M14 7c.55 0 1-.45 1-1s-.45-1-1-1-1 .45-1 1 .45 1 1 1zM13.8 11.48l.2.02c.83 0 1.5-.67 1.5-1.5s-.67-1.5-1.5-1.5-1.5.67-1.5 1.5l.02.2c.09.67.61 1.19 1.28 1.28zM14 3.5c.28 0 .5-.22.5-.5s-.22-.5-.5-.5-.5.22-.5.5.22.5.5.5zM10 3.5c.28 0 .5-.22.5-.5s-.22-.5-.5-.5-.5.22-.5.5.22.5.5.5zM21 10.5c.28 0 .5-.22.5-.5s-.22-.5-.5-.5-.5.22-.5.5.22.5.5.5zM10 7c.55 0 1-.45 1-1s-.45-1-1-1-1 .45-1 1 .45 1 1 1zM18 15c.55 0 1-.45 1-1s-.45-1-1-1-1 .45-1 1 .45 1 1 1zM18 11c.55 0 1-.45 1-1s-.45-1-1-1-1 .45-1 1 .45 1 1 1zM18 7c.55 0 1-.45 1-1s-.45-1-1-1-1 .45-1 1 .45 1 1 1zM14 20.5c-.28 0-.5.22-.5.5s.22.5.5.5.5-.22.5-.5-.22-.5-.5-.5zM2.5 5.27l3.78 3.78L6 9c-.55 0-1 .45-1 1s.45 1 1 1 1-.45 1-1c0-.1-.03-.19-.06-.28l2.81 2.81c-.71.11-1.25.73-1.25 1.47 0 .83.67 1.5 1.5 1.5.74 0 1.36-.54 1.47-1.25l2.81 2.81A.875.875 0 0 0 14 17c-.55 0-1 .45-1 1s.45 1 1 1 1-.45 1-1c0-.1-.03-.19-.06-.28l3.78 3.78L20 20.23 3.77 4 2.5 5.27zM10 17c-.55 0-1 .45-1 1s.45 1 1 1 1-.45 1-1-.45-1-1-1zM21 13.5c-.28 0-.5.22-.5.5s.22.5.5.5.5-.22.5-.5-.22-.5-.5-.5zM6 13c-.55 0-1 .45-1 1s.45 1 1 1 1-.45 1-1-.45-1-1-1zM3 9.5c-.28 0-.5.22-.5.5s.22.5.5.5.5-.22.5-.5-.22-.5-.5-.5zM10 20.5c-.28 0-.5.22-.5.5s.22.5.5.5.5-.22.5-.5-.22-.5-.5-.5zM6 17c-.55 0-1 .45-1 1s.45 1 1 1 1-.45 1-1-.45-1-1-1zM3 13.5c-.28 0-.5.22-.5.5s.22.5.5.5.5-.22.5-.5-.22-.5-.5-.5z"/></symbol><symbol id="blur_on" viewBox="0 0 24 24"><path d="M6 13c-.55 0-1 .45-1 1s.45 1 1 1 1-.45 1-1-.45-1-1-1zM6 17c-.55 0-1 .45-1 1s.45 1 1 1 1-.45 1-1-.45-1-1-1zM6 9c-.55 0-1 .45-1 1s.45 1 1 1 1-.45 1-1-.45-1-1-1zM3 9.5c-.28 0-.5.22-.5.5s.22.5.5.5.5-.22.5-.5-.22-.5-.5-.5zM6 5c-.55 0-1 .45-1 1s.45 1 1 1 1-.45 1-1-.45-1-1-1zM21 10.5c.28 0 .5-.22.5-.5s-.22-.5-.5-.5-.5.22-.5.5.22.5.5.5zM14 7c.55 0 1-.45 1-1s-.45-1-1-1-1 .45-1 1 .45 1 1 1zM14 3.5c.28 0 .5-.22.5-.5s-.22-.5-.5-.5-.5.22-.5.5.22.5.5.5zM3 13.5c-.28 0-.5.22-.5.5s.22.5.5.5.5-.22.5-.5-.22-.5-.5-.5zM10 20.5c-.28 0-.5.22-.5.5s.22.5.5.5.5-.22.5-.5-.22-.5-.5-.5zM10 3.5c.28 0 .5-.22.5-.5s-.22-.5-.5-.5-.5.22-.5.5.22.5.5.5zM10 7c.55 0 1-.45 1-1s-.45-1-1-1-1 .45-1 1 .45 1 1 1zM10 12.5c-.83 0-1.5.67-1.5 1.5s.67 1.5 1.5 1.5 1.5-.67 1.5-1.5-.67-1.5-1.5-1.5zM18 13c-.55 0-1 .45-1 1s.45 1 1 1 1-.45 1-1-.45-1-1-1zM18 17c-.55 0-1 .45-1 1s.45 1 1 1 1-.45 1-1-.45-1-1-1zM18 9c-.55 0-1 .45-1 1s.45 1 1 1 1-.45 1-1-.45-1-1-1zM18 5c-.55 0-1 .45-1 1s.45 1 1 1 1-.45 1-1-.45-1-1-1zM21 13.5c-.28 0-.5.22-.5.5s.22.5.5.5.5-.22.5-.5-.22-.5-.5-.5zM14 17c-.55 0-1 .45-1 1s.45 1 1 1 1-.45 1-1-.45-1-1-1zM14 20.5c-.28 0-.5.22-.5.5s.22.5.5.5.5-.22.5-.5-.22-.5-.5-.5zM10 8.5c-.83 0-1.5.67-1.5 1.5s.67 1.5 1.5 1.5 1.5-.67 1.5-1.5-.67-1.5-1.5-1.5zM10 17c-.55 0-1 .45-1 1s.45 1 1 1 1-.45 1-1-.45-1-1-1zM14 12.5c-.83 0-1.5.67-1.5 1.5s.67 1.5 1.5 1.5 1.5-.67 1.5-1.5-.67-1.5-1.5-1.5zM14 8.5c-.83 0-1.5.67-1.5 1.5s.67 1.5 1.5 1.5 1.5-.67 1.5-1.5-.67-1.5-1.5-1.5z"/></symbol><symbol id="brightness_1" viewBox="0 0 24 24"><circle cx="12" cy="12" r="10"/></symbol><symbol id="brightness_2" viewBox="0 0 24 24"><path d="M10 2c-1.82 0-3.53.5-5 1.35C7.99 5.08 10 8.3 10 12s-2.01 6.92-5 8.65C6.47 21.5 8.18 22 10 22c5.52 0 10-4.48 10-10S15.52 2 10 2z"/></symbol><symbol id="brightness_3" viewBox="0 0 24 24"><path d="M9 2c-1.05 0-2.05.16-3 .46 4.06 1.27 7 5.06 7 9.54s-2.94 8.27-7 9.54c.95.3 1.95.46 3 .46 5.52 0 10-4.48 10-10S14.52 2 9 2z"/></symbol><symbol id="brightness_4" viewBox="0 0 24 24"><path d="M20 8.69V4h-4.69L12 .69 8.69 4H4v4.69L.69 12 4 15.31V20h4.69L12 23.31 15.31 20H20v-4.69L23.31 12 20 8.69zM12 18c-.89 0-1.74-.2-2.5-.55C11.56 16.5 13 14.42 13 12s-1.44-4.5-3.5-5.45C10.26 6.2 11.11 6 12 6c3.31 0 6 2.69 6 6s-2.69 6-6 6z"/></symbol><symbol id="brightness_5" viewBox="0 0 24 24"><path d="M20 15.31 23.31 12 20 8.69V4h-4.69L12 .69 8.69 4H4v4.69L.69 12 4 15.31V20h4.69L12 23.31 15.31 20H20v-4.69zM12 18c-3.31 0-6-2.69-6-6s2.69-6 6-6 6 2.69 6 6-2.69 6-6 6z"/></symbol><symbol id="brightness_6" viewBox="0 0 24 24"><path d="M20 15.31 23.31 12 20 8.69V4h-4.69L12 .69 8.69 4H4v4.69L.69 12 4 15.31V20h4.69L12 23.31 15.31 20H20v-4.69zM12 18V6c3.31 0 6 2.69 6 6s-2.69 6-6 6z"/></symbol><symbol id="brightness_7" viewBox="0 0 24 24"><path d="M12 18c-3.31 0-6-2.69-6-6s2.69-6 6-6 6 2.69 6 6-2.69 6-6 6zm8-9.31V4h-4.69L12 .69 8.69 4H4v4.69L.69 12 4 15.31V20h4.69L12 23.31 15.31 20H20v-4.69L23.31 12 20 8.69z"/><path d="M12 8c-2.21 0-4 1.79-4 4s1.79 4 4 4 4-1.79 4-4-1.79-4-4-4z"/></symbol><symbol id="broken_image" viewBox="0 0 24 24"><path d="M21 5v6.59l-3-3.01-4 4.01-4-4-4 4-3-3.01V5c0-1.1.9-2 2-2h14c1.1 0 2 .9 2 2z"/><path d="m18 11.42 3 3.01V19c0 1.1-.9 2-2 2H5c-1.1 0-2-.9-2-2v-6.58l3 2.99 4-4 4 4 4-3.99z"/></symbol><symbol id="brush" viewBox="0 0 24 24"><path d="M7 14c-1.66 0-3 1.34-3 3 0 1.31-1.16 2-2 2 .92 1.22 2.49 2 4 2 2.21 0 4-1.79 4-4 0-1.66-1.34-3-3-3zM20.71 4.63l-1.34-1.34a.996.996 0 0 0-1.41 0L9 12.25 11.75 15l8.96-8.96a.996.996 0 0 0 0-1.41z"/></symbol><symbol id="burst_mode" viewBox="0 0 24 24"><path d="M1 5h2v14H1zM5 5h2v14H5zM11 17l2.5-3.15L15.29 16l2.5-3.22L21 17H11zM22 5H10c-.55 0-1 .45-1 1v12c0 .55.45 1 1 1h12c.55 0 1-.45 1-1V6c0-.55-.45-1-1-1z"/></symbol><symbol id="camera_alt" viewBox="0 0 24 24"><circle cx="12" cy="12" r="3.2"/><path d="M12 17c-2.76 0-5-2.24-5-5s2.24-5 5-5 5 2.24 5 5-2.24 5-5 5zM9 2 7.17 4H4c-1.1 0-2 .9-2 2v12c0 1.1.9 2 2 2h16c1.1 0 2-.9 2-2V6c0-1.1-.9-2-2-2h-3.17L15 2H9z"/></symbol><symbol id="camera_front" viewBox="0 0 24 24"><path d="M10 20H5v2h5v2l3-3-3-3v2zM14 20v2h5v-2h-5zM12 8c1.1 0 2-.9 2-2s-.9-2-2-2-1.99.9-1.99 2S10.9 8 12 8z"/><path d="M7 2h10v10.5c0-1.67-3.33-2.5-5-2.5s-5 .83-5 2.5V2zm10-2H7C5.9 0 5 .9 5 2v14c0 1.1.9 2 2 2h10c1.1 0 2-.9 2-2V2c0-1.1-.9-2-2-2z"/></symbol><symbol id="camera_rear" viewBox="0 0 24 24"><path d="M10 20H5v2h5v2l3-3-3-3v2zM14 20v2h5v-2h-5zM12 6c-1.11 0-2-.9-2-2s.89-2 1.99-2 2 .9 2 2C14 5.1 13.1 6 12 6zm5-6H7C5.9 0 5 .9 5 2v14c0 1.1.9 2 2 2h10c1.1 0 2-.9 2-2V2c0-1.1-.9-2-2-2z"/></symbol><symbol id="camera_roll" viewBox="0 0 24 24"><path d="M14 5c0-1.1-.9-2-2-2h-1V2c0-.55-.45-1-1-1H6c-.55 0-1 .45-1 1v1H4c-1.1 0-2 .9-2 2v15c0 1.1.9 2 2 2h8c1.1 0 2-.9 2-2h8V5zm-2 13h-2v-2h2zm0-9h-2V7h2zm4 9h-2v-2h2zm0-9h-2V7h2zm4 9h-2v-2h2zm0-9h-2V7h2z"/></symbol><symbol id="camera" viewBox="0 0 24 24"><path d="m9.4 10.5 4.77-8.26a9.984 9.984 0 0 0-8.49 2.01l3.66 6.35zM21.54 9c-.92-2.92-3.15-5.26-6-6.34L11.88 9zM21.8 10h-7.49l.29.5 4.76 8.25A9.91 9.91 0 0 0 22 12c0-.69-.07-1.35-.2-2zM8.54 12l-3.9-6.75A9.958 9.958 0 0 0 2.2 14h7.49zM2.46 15c.92 2.92 3.15 5.26 6 6.34L12.12 15zM13.73 15l-3.9 6.76a9.984 9.984 0 0 0 8.49-2.01l-3.66-6.35z"/></symbol><symbol id="center_focus_strong" viewBox="0 0 24 24"><path d="M12 8c-2.21 0-4 1.79-4 4s1.79 4 4 4 4-1.79 4-4-1.79-4-4-4zM5 15H3v4c0 1.1.9 2 2 2h4v-2H5zM5 5h4V3H5c-1.1 0-2 .9-2 2v4h2zM19 3h-4v2h4v4h2V5c0-1.1-.9-2-2-2zM19 19h-4v2h4c1.1 0 2-.9 2-2v-4h-2z"/></symbol><symbol id="center_focus_weak" viewBox="0 0 24 24"><path d="M5 15H3v4c0 1.1.9 2 2 2h4v-2H5zM5 5h4V3H5c-1.1 0-2 .9-2 2v4h2zM19 3h-4v2h4v4h2V5c0-1.1-.9-2-2-2zM19 19h-4v2h4c1.1 0 2-.9 2-2v-4h-2zM12 14c-1.1 0-2-.9-2-2s.9-2 2-2 2 .9 2 2-.9 2-2 2zm0-6c-2.21 0-4 1.79-4 4s1.79 4 4 4 4-1.79 4-4-1.79-4-4-4z"/></symbol><symbol id="collections_bookmark" viewBox="0 0 24 24"><path d="M20 2H8c-1.1 0-2 .9-2 2v12c0 1.1.9 2 2 2h12c1.1 0 2-.9 2-2V4c0-1.1-.9-2-2-2zm0 10-2.5-1.5L15 12V4h5v8z"/></symbol><symbol id="collections" viewBox="0 0 24 24"><path d="m11 12 2.03 2.71L16 11l4 5H8l3-4zm11 4V4c0-1.1-.9-2-2-2H8c-1.1 0-2 .9-2 2v12c0 1.1.9 2 2 2h12c1.1 0 2-.9 2-2z"/><path d="M2 6v14c0 1.1.9 2 2 2h14v-2H4V6H2z"/></symbol><symbol id="color_lens" viewBox="0 0 24 24"><path d="M12 3a9 9 0 0 0 0 18c.83 0 1.5-.67 1.5-1.5 0-.39-.15-.74-.39-1.01-.23-.26-.38-.61-.38-.99 0-.83.67-1.5 1.5-1.5H16c2.76 0 5-2.24 5-5 0-4.42-4.03-8-9-8zm-5.5 9c-.83 0-1.5-.67-1.5-1.5S5.67 9 6.5 9 8 9.67 8 10.5 7.33 12 6.5 12zm3-4C8.67 8 8 7.33 8 6.5S8.67 5 9.5 5s1.5.67 1.5 1.5S10.33 8 9.5 8zm5 0c-.83 0-1.5-.67-1.5-1.5S13.67 5 14.5 5s1.5.67 1.5 1.5S15.33 8 14.5 8zm3 4c-.83 0-1.5-.67-1.5-1.5S16.67 9 17.5 9s1.5.67 1.5 1.5-.67 1.5-1.5 1.5z"/></symbol><symbol id="colorize" viewBox="0 0 24 24"><path d="m20.71 5.63-2.34-2.34a.996.996 0 0 0-1.41 0l-3.12 3.12-1.93-1.91-1.41 1.41 1.42 1.42L3 16.25V21h4.75l8.92-8.92 1.42 1.42 1.41-1.41-1.92-1.92 3.12-3.12c.4-.4.4-1.03.01-1.42zM6.92 19 5 17.08l8.06-8.06 1.92 1.92L6.92 19z"/></symbol><symbol id="compare" viewBox="0 0 24 24"><path d="M10 18H5l5-6v6zm0-15H5c-1.1 0-2 .9-2 2v14c0 1.1.9 2 2 2h5v2h2V1h-2v2zM19 3h-5v2h5v13l-5-6v9h5c1.1 0 2-.9 2-2V5c0-1.1-.9-2-2-2z"/></symbol><symbol id="control_point_duplicate" viewBox="0 0 24 24"><path d="M16 8h-2v3h-3v2h3v3h2v-3h3v-2h-3zM2 12c0-2.79 1.64-5.2 4.01-6.32V3.52C2.52 4.76 0 8.09 0 12s2.52 7.24 6.01 8.48v-2.16A6.99 6.99 0 0 1 2 12z"/><path d="M15 19c-3.86 0-7-3.14-7-7s3.14-7 7-7 7 3.14 7 7-3.14 7-7 7zm0-16c-4.96 0-9 4.04-9 9s4.04 9 9 9 9-4.04 9-9-4.04-9-9-9z"/></symbol><symbol id="control_point" viewBox="0 0 24 24"><path d="M13 7h-2v4H7v2h4v4h2v-4h4v-2h-4V7z"/><path d="M12 20c-4.41 0-8-3.59-8-8s3.59-8 8-8 8 3.59 8 8-3.59 8-8 8zm0-18C6.49 2 2 6.49 2 12s4.49 10 10 10 10-4.49 10-10S17.51 2 12 2z"/></symbol><symbol id="crop_16_9" viewBox="0 0 24 24"><path d="M19 6H5c-1.1 0-2 .9-2 2v8c0 1.1.9 2 2 2h14c1.1 0 2-.9 2-2V8c0-1.1-.9-2-2-2zm0 10H5V8h14v8z"/></symbol><symbol id="crop_3_2" viewBox="0 0 24 24"><path d="M19 4H5c-1.1 0-2 .9-2 2v12c0 1.1.9 2 2 2h14c1.1 0 2-.9 2-2V6c0-1.1-.9-2-2-2zm0 14H5V6h14v12z"/></symbol><symbol id="crop_5_4" viewBox="0 0 24 24"><path d="M19 5H5c-1.1 0-2 .9-2 2v10c0 1.1.9 2 2 2h14c1.1 0 2-.9 2-2V7c0-1.1-.9-2-2-2zm0 12H5V7h14v10z"/></symbol><symbol id="crop_7_5" viewBox="0 0 24 24"><path d="M19 7H5c-1.1 0-2 .9-2 2v6c0 1.1.9 2 2 2h14c1.1 0 2-.9 2-2V9c0-1.1-.9-2-2-2zm0 8H5V9h14v6z"/></symbol><symbol id="crop_din" viewBox="0 0 24 24"><path d="M19 3H5c-1.1 0-2 .9-2 2v14c0 1.1.9 2 2 2h14c1.1 0 2-.9 2-2V5c0-1.1-.9-2-2-2zm0 16H5V5h14v14z"/></symbol><symbol id="crop_free" viewBox="0 0 24 24"><path d="M3 5v4h2V5h4V3H5c-1.1 0-2 .9-2 2zM5 15H3v4c0 1.1.9 2 2 2h4v-2H5v-4zM19 19h-4v2h4c1.1 0 2-.9 2-2v-4h-2v4zM19 3h-4v2h4v4h2V5c0-1.1-.9-2-2-2z"/></symbol><symbol id="crop_landscape" viewBox="0 0 24 24"><path d="M19 5H5c-1.1 0-2 .9-2 2v10c0 1.1.9 2 2 2h14c1.1 0 2-.9 2-2V7c0-1.1-.9-2-2-2zm0 12H5V7h14v10z"/></symbol><symbol id="crop_original" viewBox="0 0 24 24"><path d="M19 19H5V5h14zm0-16H5c-1.1 0-2 .9-2 2v14c0 1.1.9 2 2 2h14c1.1 0 2-.9 2-2V5c0-1.1-.9-2-2-2z"/><path d="m13.96 12.29-2.75 3.54-1.96-2.36L6.5 17h11z"/></symbol><symbol id="crop_portrait" viewBox="0 0 24 24"><path d="M17 3H7c-1.1 0-2 .9-2 2v14c0 1.1.9 2 2 2h10c1.1 0 2-.9 2-2V5c0-1.1-.9-2-2-2zm0 16H7V5h10v14z"/></symbol><symbol id="crop_rotate" viewBox="0 0 24 24"><path d="M7.47 21.49C4.2 19.93 1.86 16.76 1.5 13H0c.51 6.16 5.66 11 11.95 11 .23 0 .44-.02.66-.03L8.8 20.15l-1.33 1.34zM12.05 0c-.23 0-.44.02-.66.04l3.81 3.81 1.33-1.33C19.8 4.07 22.14 7.24 22.5 11H24c-.51-6.16-5.66-11-11.95-11zM16 14h2V8a2 2 0 0 0-2-2h-6v2h6v6z"/><path d="M8 16V4H6v2H4v2h2v8a2 2 0 0 0 2 2h8v2h2v-2h2v-2H8z"/></symbol><symbol id="crop_square" viewBox="0 0 24 24"><path d="M18 4H6c-1.1 0-2 .9-2 2v12c0 1.1.9 2 2 2h12c1.1 0 2-.9 2-2V6c0-1.1-.9-2-2-2zm0 14H6V6h12v12z"/></symbol><symbol id="crop" viewBox="0 0 24 24"><path d="M17 15h2V7c0-1.1-.9-2-2-2H9v2h8v8z"/><path d="M7 17V1H5v4H1v2h4v10c0 1.1.9 2 2 2h10v4h2v-4h4v-2H7z"/></symbol><symbol id="dehaze" viewBox="0 0 24 24"><path d="M2 15.5v2h20v-2zM2 10.5v2h20v-2zM2 5.5v2h20v-2z"/></symbol><symbol id="details" viewBox="0 0 24 24"><path d="m3 4 9 16 9-16zm3.38 2h11.25L12 16z"/></symbol><symbol id="edit" viewBox="0 0 24 24"><path d="M3 17.25V21h3.75L17.81 9.94l-3.75-3.75zM20.71 7.04a.996.996 0 0 0 0-1.41l-2.34-2.34a.996.996 0 0 0-1.41 0l-1.83 1.83 3.75 3.75z"/></symbol><symbol id="exposure_neg_1" viewBox="0 0 24 24"><path d="M4 11v2h8v-2H4zM19 18h-2V7.38L14 8.4V6.7L18.7 5h.3v13z"/></symbol><symbol id="exposure_neg_2" viewBox="0 0 24 24"><path d="m15.05 16.29 2.86-3.07c.38-.39.72-.79 1.04-1.18s.59-.78.82-1.17.41-.78.54-1.17.19-.79.19-1.18c0-.53-.09-1.02-.27-1.46s-.44-.81-.78-1.11c-.34-.31-.77-.54-1.26-.71A5.72 5.72 0 0 0 16.47 5c-.69 0-1.31.11-1.85.32s-1 .51-1.36.88c-.37.37-.65.8-.84 1.3-.18.47-.27.97-.28 1.5h2.14c.01-.31.05-.6.13-.87.09-.29.23-.54.4-.75.18-.21.41-.37.68-.49s.6-.18.96-.18c.31 0 .58.05.81.15s.43.25.59.43.28.4.37.65c.08.25.13.52.13.81 0 .22-.03.43-.08.65-.06.22-.15.45-.29.7s-.32.53-.56.83c-.23.3-.52.65-.88 1.03l-4.17 4.55V18H21v-1.71zM2 11v2h8v-2z"/></symbol><symbol id="exposure_plus_1" viewBox="0 0 24 24"><path d="M10 7H8v4H4v2h4v4h2v-4h4v-2h-4V7zM20 18h-2V7.38L15 8.4V6.7L19.7 5h.3v13z"/></symbol><symbol id="exposure_plus_2" viewBox="0 0 24 24"><path d="m16.05 16.29 2.86-3.07c.38-.39.72-.79 1.04-1.18s.59-.78.82-1.17.41-.78.54-1.17.19-.79.19-1.18c0-.53-.09-1.02-.27-1.46s-.44-.81-.78-1.11c-.34-.31-.77-.54-1.26-.71A5.72 5.72 0 0 0 17.47 5c-.69 0-1.31.11-1.85.32s-1 .51-1.36.88c-.37.37-.65.8-.84 1.3-.18.47-.27.97-.28 1.5h2.14c.01-.31.05-.6.13-.87.09-.29.23-.54.4-.75.18-.21.41-.37.68-.49s.6-.18.96-.18c.31 0 .58.05.81.15s.43.25.59.43.28.4.37.65c.08.25.13.52.13.81 0 .22-.03.43-.08.65-.06.22-.15.45-.29.7s-.32.53-.56.83c-.23.3-.52.65-.88 1.03l-4.17 4.55V18H22v-1.71zM8 7H6v4H2v2h4v4h2v-4h4v-2H8z"/></symbol><symbol id="exposure_zero" viewBox="0 0 24 24"><path d="M16.14 12.5c0 1-.1 1.85-.3 2.55s-.48 1.27-.83 1.7c-.36.44-.79.75-1.3.95s-1.07.3-1.7.3c-.62 0-1.18-.1-1.69-.3s-.95-.51-1.31-.95-.65-1.01-.85-1.7c-.2-.7-.3-1.55-.3-2.55v-2.04c0-1 .1-1.85.3-2.55s.48-1.26.84-1.69.8-.74 1.31-.93C10.81 5.1 11.38 5 12 5c.63 0 1.19.1 1.7.29s.95.5 1.31.93.64.99.84 1.69.3 1.54.3 2.55v2.04zm-2.11-2.36c0-.64-.05-1.18-.13-1.62-.09-.44-.22-.79-.4-1.06-.17-.27-.39-.46-.64-.58-.25-.13-.54-.19-.86-.19s-.61.06-.86.18-.47.31-.64.58-.31.62-.4 1.06-.13.98-.13 1.62v2.67c0 .64.05 1.18.14 1.62.09.45.23.81.4 1.09s.39.48.64.61.54.19.87.19.62-.06.87-.19.46-.33.63-.61.3-.64.39-1.09.13-.99.13-1.62v-2.66z"/></symbol><symbol id="exposure" viewBox="0 0 24 24"><path d="M15 17v2h2v-2h2v-2h-2v-2h-2v2h-2v2h2z"/><path d="M20 20H4L20 4v16zM5 5h6v2H5V5zm15-3H4c-1.1 0-2 .9-2 2v16c0 1.1.9 2 2 2h16c1.1 0 2-.9 2-2V4c0-1.1-.9-2-2-2z"/></symbol><symbol id="filter_1" viewBox="0 0 24 24"><path d="M3 5H1v16c0 1.1.9 2 2 2h16v-2H3V5zM14 15h2V5h-4v2h2v8z"/><path d="M21 17H7V3h14v14zm0-16H7c-1.1 0-2 .9-2 2v14c0 1.1.9 2 2 2h14c1.1 0 2-.9 2-2V3c0-1.1-.9-2-2-2z"/></symbol><symbol id="filter_2" viewBox="0 0 24 24"><path d="M3 5H1v16c0 1.1.9 2 2 2h16v-2H3V5z"/><path d="M21 17H7V3h14v14zm0-16H7c-1.1 0-2 .9-2 2v14c0 1.1.9 2 2 2h14c1.1 0 2-.9 2-2V3c0-1.1-.9-2-2-2z"/><path d="M17 13h-4v-2h2a2 2 0 0 0 2-2V7a2 2 0 0 0-2-2h-4v2h4v2h-2a2 2 0 0 0-2 2v4h6v-2z"/></symbol><symbol id="filter_3" viewBox="0 0 24 24"><path d="M21 17H7V3h14v14zm0-16H7c-1.1 0-2 .9-2 2v14c0 1.1.9 2 2 2h14c1.1 0 2-.9 2-2V3c0-1.1-.9-2-2-2z"/><path d="M3 5H1v16c0 1.1.9 2 2 2h16v-2H3V5z"/><path d="M17 13v-1.5c0-.83-.67-1.5-1.5-1.5.83 0 1.5-.67 1.5-1.5V7a2 2 0 0 0-2-2h-4v2h4v2h-2v2h2v2h-4v2h4a2 2 0 0 0 2-2z"/></symbol><symbol id="filter_4" viewBox="0 0 24 24"><path d="M3 5H1v16c0 1.1.9 2 2 2h16v-2H3V5zM15 15h2V5h-2v4h-2V5h-2v6h4v4z"/><path d="M21 17H7V3h14v14zm0-16H7c-1.1 0-2 .9-2 2v14c0 1.1.9 2 2 2h14c1.1 0 2-.9 2-2V3c0-1.1-.9-2-2-2z"/></symbol><symbol id="filter_5" viewBox="0 0 24 24"><path d="M21 17H7V3h14v14zm0-16H7c-1.1 0-2 .9-2 2v14c0 1.1.9 2 2 2h14c1.1 0 2-.9 2-2V3c0-1.1-.9-2-2-2z"/><path d="M3 5H1v16c0 1.1.9 2 2 2h16v-2H3V5z"/><path d="M17 13v-2a2 2 0 0 0-2-2h-2V7h4V5h-6v6h4v2h-4v2h4a2 2 0 0 0 2-2z"/></symbol><symbol id="filter_6" viewBox="0 0 24 24"><path d="M3 5H1v16c0 1.1.9 2 2 2h16v-2H3V5z"/><path d="M21 17H7V3h14v14zm0-16H7c-1.1 0-2 .9-2 2v14c0 1.1.9 2 2 2h14c1.1 0 2-.9 2-2V3c0-1.1-.9-2-2-2z"/><path d="M13 11h2v2h-2v-2zm0 4h2a2 2 0 0 0 2-2v-2a2 2 0 0 0-2-2h-2V7h4V5h-4a2 2 0 0 0-2 2v6a2 2 0 0 0 2 2z"/></symbol><symbol id="filter_7" viewBox="0 0 24 24"><path d="M3 5H1v16c0 1.1.9 2 2 2h16v-2H3V5z"/><path d="M21 17H7V3h14v14zm0-16H7c-1.1 0-2 .9-2 2v14c0 1.1.9 2 2 2h14c1.1 0 2-.9 2-2V3c0-1.1-.9-2-2-2z"/><path d="m13 15 4-8V5h-6v2h4l-4 8h2z"/></symbol><symbol id="filter_8" viewBox="0 0 24 24"><path d="M3 5H1v16c0 1.1.9 2 2 2h16v-2H3V5z"/><path d="M21 17H7V3h14v14zm0-16H7c-1.1 0-2 .9-2 2v14c0 1.1.9 2 2 2h14c1.1 0 2-.9 2-2V3c0-1.1-.9-2-2-2z"/><path d="M13 11h2v2h-2v-2zm0-4h2v2h-2V7zm0 8h2a2 2 0 0 0 2-2v-1.5c0-.83-.67-1.5-1.5-1.5.83 0 1.5-.67 1.5-1.5V7a2 2 0 0 0-2-2h-2a2 2 0 0 0-2 2v1.5c0 .83.67 1.5 1.5 1.5-.83 0-1.5.67-1.5 1.5V13a2 2 0 0 0 2 2z"/></symbol><symbol id="filter_9_plus" viewBox="0 0 24 24"><path d="M3 5H1v16c0 1.1.9 2 2 2h16v-2H3V5z"/><path d="M11 9V8h1v1h-1zm3 3V8a2 2 0 0 0-2-2h-1a2 2 0 0 0-2 2v1a2 2 0 0 0 2 2h1v1H9v2h3a2 2 0 0 0 2-2z"/><path d="M21 9h-2V7h-2v2h-2v2h2v2h2v-2h2v6H7V3h14v6zm0-8H7c-1.1 0-2 .9-2 2v14c0 1.1.9 2 2 2h14c1.1 0 2-.9 2-2V3c0-1.1-.9-2-2-2z"/></symbol><symbol id="filter_9" viewBox="0 0 24 24"><path d="M3 5H1v16c0 1.1.9 2 2 2h16v-2H3V5z"/><path d="M21 17H7V3h14v14zm0-16H7c-1.1 0-2 .9-2 2v14c0 1.1.9 2 2 2h14c1.1 0 2-.9 2-2V3c0-1.1-.9-2-2-2z"/><path d="M15 9h-2V7h2v2zm0-4h-2a2 2 0 0 0-2 2v2a2 2 0 0 0 2 2h2v2h-4v2h4a2 2 0 0 0 2-2V7a2 2 0 0 0-2-2z"/></symbol><symbol id="filter_b_and_w" viewBox="0 0 24 24"><path d="M19 3H5c-1.1 0-2 .9-2 2v14c0 1.1.9 2 2 2h14c1.1 0 2-.9 2-2V5c0-1.1-.9-2-2-2zm0 16-7-8v8H5l7-8V5h7v14z"/></symbol><symbol id="filter_center_focus" viewBox="0 0 24 24"><path d="M5 15H3v4c0 1.1.9 2 2 2h4v-2H5zM5 5h4V3H5c-1.1 0-2 .9-2 2v4h2zM19 3h-4v2h4v4h2V5c0-1.1-.9-2-2-2zM19 19h-4v2h4c1.1 0 2-.9 2-2v-4h-2zM12 9c-1.66 0-3 1.34-3 3s1.34 3 3 3 3-1.34 3-3-1.34-3-3-3z"/></symbol><symbol id="filter_drama" viewBox="0 0 24 24"><path d="M19.35 10.04A7.49 7.49 0 0 0 12 4a7.48 7.48 0 0 0-6.64 4.04A5.996 5.996 0 0 0 0 14c0 3.31 2.69 6 6 6h13c2.76 0 5-2.24 5-5 0-2.64-2.05-4.78-4.65-4.96zM19 18H6c-2.21 0-4-1.79-4-4s1.79-4 4-4 4 1.79 4 4h2c0-2.76-1.86-5.08-4.4-5.78C8.61 6.88 10.2 6 12 6c3.03 0 5.5 2.47 5.5 5.5v.5H19c1.65 0 3 1.35 3 3s-1.35 3-3 3z"/></symbol><symbol id="filter_frames" viewBox="0 0 24 24"><path d="M20 20H4V6h4.52l3.52-3.5L15.52 6H20v14zm0-16h-4l-4-4-4 4H4c-1.1 0-2 .9-2 2v14c0 1.1.9 2 2 2h16c1.1 0 2-.9 2-2V6c0-1.1-.9-2-2-2z"/><path d="M18 8H6v10h12"/></symbol><symbol id="filter_hdr" viewBox="0 0 24 24"><path d="m14 6-3.75 5 2.85 3.8-1.6 1.2C9.81 13.75 7 10 7 10l-6 8h22z"/></symbol><symbol id="filter_none" viewBox="0 0 24 24"><path d="M3 5H1v16c0 1.1.9 2 2 2h16v-2H3V5z"/><path d="M21 17H7V3h14v14zm0-16H7c-1.1 0-2 .9-2 2v14c0 1.1.9 2 2 2h14c1.1 0 2-.9 2-2V3c0-1.1-.9-2-2-2z"/></symbol><symbol id="filter_tilt_shift" viewBox="0 0 24 24"><path d="M11 4.07V2.05c-2.01.2-3.84 1-5.32 2.21L7.1 5.69A7.941 7.941 0 0 1 11 4.07zM18.32 4.26A9.949 9.949 0 0 0 13 2.05v2.02c1.46.18 2.79.76 3.9 1.62zM19.93 11h2.02c-.2-2.01-1-3.84-2.21-5.32L18.31 7.1a7.941 7.941 0 0 1 1.62 3.9zM5.69 7.1 4.26 5.68A9.949 9.949 0 0 0 2.05 11h2.02c.18-1.46.76-2.79 1.62-3.9zM4.07 13H2.05c.2 2.01 1 3.84 2.21 5.32l1.43-1.43A7.868 7.868 0 0 1 4.07 13zM15 12c0-1.66-1.34-3-3-3s-3 1.34-3 3 1.34 3 3 3 3-1.34 3-3zM18.31 16.9l1.43 1.43a9.981 9.981 0 0 0 2.21-5.32h-2.02a7.945 7.945 0 0 1-1.62 3.89zM13 19.93v2.02c2.01-.2 3.84-1 5.32-2.21l-1.43-1.43c-1.1.86-2.43 1.44-3.89 1.62zM5.68 19.74A9.981 9.981 0 0 0 11 21.95v-2.02a7.941 7.941 0 0 1-3.9-1.62z"/></symbol><symbol id="filter_vintage" viewBox="0 0 24 24"><path d="M18.7 12.4a6.06 6.06 0 0 0-.86-.4c.29-.11.58-.24.86-.4a6.012 6.012 0 0 0 3-5.19 6.007 6.007 0 0 0-6 0c-.28.16-.54.35-.78.54.05-.31.08-.63.08-.95 0-2.22-1.21-4.15-3-5.19C10.21 1.85 9 3.78 9 6c0 .32.03.64.08.95-.24-.2-.5-.39-.78-.55a6.008 6.008 0 0 0-6 0 5.97 5.97 0 0 0 3 5.19c.28.16.57.29.86.4-.29.11-.58.24-.86.4a6.012 6.012 0 0 0-3 5.19 6.007 6.007 0 0 0 6 0c.28-.16.54-.35.78-.54-.05.32-.08.64-.08.96 0 2.22 1.21 4.15 3 5.19 1.79-1.04 3-2.97 3-5.19 0-.32-.03-.64-.08-.95.24.2.5.38.78.54a6.008 6.008 0 0 0 6 0 6.012 6.012 0 0 0-3-5.19zM12 16c-2.21 0-4-1.79-4-4s1.79-4 4-4 4 1.79 4 4-1.79 4-4 4z"/></symbol><symbol id="filter" viewBox="0 0 24 24"><path d="m15.96 10.29-2.75 3.54-1.96-2.36L8.5 15h11z"/><path d="M3 5H1v16c0 1.1.9 2 2 2h16v-2H3z"/><path d="M21 17H7V3h14zm0-16H7c-1.1 0-2 .9-2 2v14c0 1.1.9 2 2 2h14c1.1 0 2-.9 2-2V3c0-1.1-.9-2-2-2z"/></symbol><symbol id="flare" viewBox="0 0 24 24"><path d="M7 11H1v2h6zM9.17 7.76 7.05 5.64 5.64 7.05l2.12 2.12zM13 1h-2v6h2zM18.36 7.05l-1.41-1.41-2.12 2.12 1.41 1.41zM17 11v2h6v-2zM12 9c-1.66 0-3 1.34-3 3s1.34 3 3 3 3-1.34 3-3-1.34-3-3-3zM14.83 16.24l2.12 2.12 1.41-1.41-2.12-2.12zM5.64 16.95l1.41 1.41 2.12-2.12-1.41-1.41zM11 23h2v-6h-2z"/></symbol><symbol id="flash_auto" viewBox="0 0 24 24"><path d="M3 2v12h3v9l7-12H9l4-9zM16.85 7.65 18 4l1.15 3.65zM19 2h-2l-3.2 9h1.9l.7-2h3.2l.7 2h1.9z"/></symbol><symbol id="flash_off" viewBox="0 0 24 24"><path d="M3.27 3 2 4.27l5 5V13h3v9l3.58-6.14L17.73 20 19 18.73zM17 10h-4l4-8H7v2.18l8.46 8.46z"/></symbol><symbol id="flash_on" viewBox="0 0 24 24"><path d="M7 2v11h3v9l7-12h-4l4-8z"/></symbol><symbol id="flip" viewBox="0 0 24 24"><path d="M15 21h2v-2h-2zM19 9h2V7h-2zM3 5v14c0 1.1.9 2 2 2h4v-2H5V5h4V3H5c-1.1 0-2 .9-2 2zM19 3v2h2c0-1.1-.9-2-2-2zM11 23h2V1h-2zM19 17h2v-2h-2zM15 5h2V3h-2zM19 13h2v-2h-2zM19 21c1.1 0 2-.9 2-2h-2z"/></symbol><symbol id="gradient" viewBox="0 0 24 24"><path d="M11 9h2v2h-2zm-2 2h2v2H9zm4 0h2v2h-2zm2-2h2v2h-2zM7 9h2v2H7zm12-6H5c-1.1 0-2 .9-2 2v14c0 1.1.9 2 2 2h14c1.1 0 2-.9 2-2V5c0-1.1-.9-2-2-2zM9 18H7v-2h2v2zm4 0h-2v-2h2v2zm4 0h-2v-2h2v2zm2-7h-2v2h2v2h-2v-2h-2v2h-2v-2h-2v2H9v-2H7v2H5v-2h2v-2H5V5h14v6z"/></symbol><symbol id="grain" viewBox="0 0 24 24"><path d="M10 12c-1.1 0-2 .9-2 2s.9 2 2 2 2-.9 2-2-.9-2-2-2zM6 8c-1.1 0-2 .9-2 2s.9 2 2 2 2-.9 2-2-.9-2-2-2zM6 16c-1.1 0-2 .9-2 2s.9 2 2 2 2-.9 2-2-.9-2-2-2zM18 8c1.1 0 2-.9 2-2s-.9-2-2-2-2 .9-2 2 .9 2 2 2zM14 16c-1.1 0-2 .9-2 2s.9 2 2 2 2-.9 2-2-.9-2-2-2zM18 12c-1.1 0-2 .9-2 2s.9 2 2 2 2-.9 2-2-.9-2-2-2zM14 8c-1.1 0-2 .9-2 2s.9 2 2 2 2-.9 2-2-.9-2-2-2zM10 4c-1.1 0-2 .9-2 2s.9 2 2 2 2-.9 2-2-.9-2-2-2z"/></symbol><symbol id="grid_off" viewBox="0 0 24 24"><path d="M16 4h4v4h-4V4zM8 4v1.45l2 2V4h4v4h-3.45l2 2H14v1.45l2 2V10h4v4h-3.45l2 2H20v1.45l2 2V4c0-1.1-.9-2-2-2H4.55l2 2H8zM16 20v-1.46L17.46 20H16zm-2 0h-4v-4h3.45l.55.54V20zm-6-6H4v-4h3.45l.55.55V14zm0 6H4v-4h4v4zM4 6.55 5.45 8H4V6.55zm6 6L11.45 14H10v-1.45zM1.27 1.27 0 2.55l2 2V20c0 1.1.9 2 2 2h15.46l2 2 1.27-1.27L1.27 1.27z"/></symbol><symbol id="grid_on" viewBox="0 0 24 24"><path d="M20 2H4c-1.1 0-2 .9-2 2v16c0 1.1.9 2 2 2h16c1.1 0 2-.9 2-2V4c0-1.1-.9-2-2-2zM8 20H4v-4h4zm0-6H4v-4h4zm0-6H4V4h4zm6 12h-4v-4h4zm0-6h-4v-4h4zm0-6h-4V4h4zm6 12h-4v-4h4zm0-6h-4v-4h4zm0-6h-4V4h4z"/></symbol><symbol id="hdr_off" viewBox="0 0 24 24"><path d="M13 15h-2v-2.45l2 2zm5 2L3.27 2.27 2 3.55l4 4V11H4V7H2v10h2v-4h2v4h2V9.55l1 1V17h4c.67 0 1.26-.33 1.62-.84l6.34 6.34 1.27-1.27zM18 9h2v2h-2zm0 4h1l.82 3.27.73.73H22l-1.19-4.17c.7-.31 1.19-1.01 1.19-1.83V9c0-1.1-.9-2-2-2h-4v5.45l2 2zM15 11.45V9c0-1.1-.9-2-2-2h-2.45z"/></symbol><symbol id="hdr_on" viewBox="0 0 24 24"><path d="M6 11H4V7H2v10h2v-4h2v4h2V7H6v4zM13 15h-2V9h2v6zm0-8H9v10h4c1.1 0 2-.9 2-2V9c0-1.1-.9-2-2-2zM20 11h-2V9h2v2zm2 0V9c0-1.1-.9-2-2-2h-4v10h2v-4h1l1 4h2l-1.19-4.17c.7-.31 1.19-1.01 1.19-1.83z"/></symbol><symbol id="hdr_strong" viewBox="0 0 24 24"><path d="M17 6c-3.31 0-6 2.69-6 6s2.69 6 6 6 6-2.69 6-6-2.69-6-6-6zM5 14c-1.1 0-2-.9-2-2s.9-2 2-2 2 .9 2 2-.9 2-2 2zm0-6c-2.21 0-4 1.79-4 4s1.79 4 4 4 4-1.79 4-4-1.79-4-4-4z"/></symbol><symbol id="hdr_weak" viewBox="0 0 24 24"><path d="M5 8c-2.21 0-4 1.79-4 4s1.79 4 4 4 4-1.79 4-4-1.79-4-4-4zM17 16c-2.21 0-4-1.79-4-4s1.79-4 4-4 4 1.79 4 4-1.79 4-4 4zm0-10c-3.31 0-6 2.69-6 6s2.69 6 6 6 6-2.69 6-6-2.69-6-6-6z"/></symbol><symbol id="healing" viewBox="0 0 24 24"><path d="m17.73 12.02 3.98-3.98a.996.996 0 0 0 0-1.41l-4.34-4.34a.996.996 0 0 0-1.41 0l-3.98 3.98L8 2.29a1.001 1.001 0 0 0-1.41 0L2.25 6.63a.996.996 0 0 0 0 1.41l3.98 3.98L2.25 16a.996.996 0 0 0 0 1.41l4.34 4.34c.39.39 1.02.39 1.41 0l3.98-3.98 3.98 3.98c.2.2.45.29.71.29s.51-.1.71-.29l4.34-4.34a.996.996 0 0 0 0-1.41zM12 9c.55 0 1 .45 1 1s-.45 1-1 1-1-.45-1-1 .45-1 1-1zm-4.71 1.96L3.66 7.34l3.63-3.63 3.62 3.62zM10 13c-.55 0-1-.45-1-1s.45-1 1-1 1 .45 1 1-.45 1-1 1zm2 2c-.55 0-1-.45-1-1s.45-1 1-1 1 .45 1 1-.45 1-1 1zm2-4c.55 0 1 .45 1 1s-.45 1-1 1-1-.45-1-1 .45-1 1-1zm2.66 9.34-3.63-3.62 3.63-3.63 3.62 3.62z"/></symbol><symbol id="image_aspect_ratio" viewBox="0 0 24 24"><path d="M16 10h-2v2h2zM16 14h-2v2h2zM8 10H6v2h2zM12 10h-2v2h2z"/><path d="M20 18H4V6h16zm0-14H4c-1.1 0-2 .9-2 2v12c0 1.1.9 2 2 2h16c1.1 0 2-.9 2-2V6c0-1.1-.9-2-2-2z"/></symbol><symbol id="image" viewBox="0 0 24 24"><path d="M21 19V5c0-1.1-.9-2-2-2H5c-1.1 0-2 .9-2 2v14c0 1.1.9 2 2 2h14c1.1 0 2-.9 2-2zM8.5 13.5l2.5 3.01L14.5 12l4.5 6H5l3.5-4.5z"/></symbol><symbol id="iso" viewBox="0 0 24 24"><path d="M19 19H5L19 5v14zM5.5 7.5h2v-2H9v2h2V9H9v2H7.5V9h-2V7.5zM19 3H5c-1.1 0-2 .9-2 2v14c0 1.1.9 2 2 2h14c1.1 0 2-.9 2-2V5c0-1.1-.9-2-2-2z"/><path d="M17 17v-1.5h-5V17h5z"/></symbol><symbol id="landscape" viewBox="0 0 24 24"><path d="m14 6-3.75 5 2.85 3.8-1.6 1.2C9.81 13.75 7 10 7 10l-6 8h22z"/></symbol><symbol id="leak_add" viewBox="0 0 24 24"><path d="M6 3H3v3c1.66 0 3-1.34 3-3zM14 3h-2a9 9 0 0 1-9 9v2c6.08 0 11-4.93 11-11z"/><path d="M10 3H8c0 2.76-2.24 5-5 5v2c3.87 0 7-3.13 7-7zM10 21h2a9 9 0 0 1 9-9v-2c-6.07 0-11 4.93-11 11zM18 21h3v-3c-1.66 0-3 1.34-3 3z"/><path d="M14 21h2c0-2.76 2.24-5 5-5v-2c-3.87 0-7 3.13-7 7z"/></symbol><symbol id="leak_remove" viewBox="0 0 24 24"><path d="M10 3H8c0 .37-.04.72-.12 1.06l1.59 1.59C9.81 4.84 10 3.94 10 3zM3 4.27l2.84 2.84C5.03 7.67 4.06 8 3 8v2c1.61 0 3.09-.55 4.27-1.46L8.7 9.97A8.99 8.99 0 0 1 3 12v2c2.71 0 5.19-.99 7.11-2.62l2.5 2.5A11.044 11.044 0 0 0 10 21h2c0-2.16.76-4.14 2.03-5.69l1.43 1.43A6.922 6.922 0 0 0 14 21h2c0-1.06.33-2.03.89-2.84L19.73 21 21 19.73 4.27 3 3 4.27zM14 3h-2c0 1.5-.37 2.91-1.02 4.16l1.46 1.46C13.42 6.98 14 5.06 14 3zM19.94 16.12c.34-.08.69-.12 1.06-.12v-2c-.94 0-1.84.19-2.66.52l1.6 1.6zM15.38 11.56l1.46 1.46A8.98 8.98 0 0 1 21 12v-2c-2.06 0-3.98.58-5.62 1.56z"/></symbol><symbol id="lens" viewBox="0 0 24 24"><path d="M12 2C6.48 2 2 6.48 2 12s4.48 10 10 10 10-4.48 10-10S17.52 2 12 2z"/></symbol><symbol id="linked_camera" viewBox="0 0 24 24"><circle cx="12" cy="14" r="3.2"/><path d="M16 3.33c2.58 0 4.67 2.09 4.67 4.67H22c0-3.31-2.69-6-6-6v1.33M16 6c1.11 0 2 .89 2 2h1.33c0-1.84-1.49-3.33-3.33-3.33V6"/><path d="M17 9c0-1.11-.89-2-2-2V4H9L7.17 6H4c-1.1 0-2 .9-2 2v12c0 1.1.9 2 2 2h16c1.1 0 2-.9 2-2V9h-5zm-5 10c-2.76 0-5-2.24-5-5s2.24-5 5-5 5 2.24 5 5-2.24 5-5 5z"/></symbol><symbol id="looks_3" viewBox="0 0 24 24"><path d="M19.01 3h-14c-1.1 0-2 .9-2 2v14c0 1.1.9 2 2 2h14c1.1 0 2-.9 2-2V5c0-1.1-.9-2-2-2zm-4 7.5c0 .83-.67 1.5-1.5 1.5.83 0 1.5.67 1.5 1.5V15a2 2 0 0 1-2 2h-4v-2h4v-2h-2v-2h2V9h-4V7h4a2 2 0 0 1 2 2v1.5z"/></symbol><symbol id="looks_4" viewBox="0 0 24 24"><path d="M19 3H5c-1.1 0-2 .9-2 2v14c0 1.1.9 2 2 2h14c1.1 0 2-.9 2-2V5c0-1.1-.9-2-2-2zm-4 14h-2v-4H9V7h2v4h2V7h2v10z"/></symbol><symbol id="looks_5" viewBox="0 0 24 24"><path d="M19 3H5c-1.1 0-2 .9-2 2v14c0 1.1.9 2 2 2h14c1.1 0 2-.9 2-2V5c0-1.1-.9-2-2-2zm-4 6h-4v2h2a2 2 0 0 1 2 2v2a2 2 0 0 1-2 2H9v-2h4v-2H9V7h6v2z"/></symbol><symbol id="looks_6" viewBox="0 0 24 24"><path d="M11 15h2v-2h-2v2zm8-12H5c-1.1 0-2 .9-2 2v14c0 1.1.9 2 2 2h14c1.1 0 2-.9 2-2V5c0-1.1-.9-2-2-2zm-4 6h-4v2h2a2 2 0 0 1 2 2v2a2 2 0 0 1-2 2h-2a2 2 0 0 1-2-2V9a2 2 0 0 1 2-2h4v2z"/></symbol><symbol id="looks_one" viewBox="0 0 24 24"><path d="M19 3H5c-1.1 0-2 .9-2 2v14c0 1.1.9 2 2 2h14c1.1 0 2-.9 2-2V5c0-1.1-.9-2-2-2zm-5 14h-2V9h-2V7h4v10z"/></symbol><symbol id="looks_two" viewBox="0 0 24 24"><path d="M19 3H5c-1.1 0-2 .9-2 2v14c0 1.1.9 2 2 2h14c1.1 0 2-.9 2-2V5c0-1.1-.9-2-2-2zm-4 8a2 2 0 0 1-2 2h-2v2h4v2H9v-4a2 2 0 0 1 2-2h2V9H9V7h4a2 2 0 0 1 2 2v2z"/></symbol><symbol id="looks" viewBox="0 0 24 24"><path d="M12 10c-3.86 0-7 3.14-7 7h2c0-2.76 2.24-5 5-5s5 2.24 5 5h2c0-3.86-3.14-7-7-7z"/><path d="M12 6C5.93 6 1 10.93 1 17h2c0-4.96 4.04-9 9-9s9 4.04 9 9h2c0-6.07-4.93-11-11-11z"/></symbol><symbol id="loupe" viewBox="0 0 24 24"><path d="M13 7h-2v4H7v2h4v4h2v-4h4v-2h-4V7z"/><path d="M12 20c-4.41 0-8-3.59-8-8s3.59-8 8-8 8 3.59 8 8-3.59 8-8 8zm0-18C6.49 2 2 6.49 2 12s4.49 10 10 10h8c1.1 0 2-.9 2-2v-8c0-5.51-4.49-10-10-10z"/></symbol><symbol id="monochrome_photos" viewBox="0 0 24 24"><path d="M20 19h-8v-1c-2.8 0-5-2.2-5-5s2.2-5 5-5V7h8v12zm0-14h-3.2L15 3H9L7.2 5H4c-1.1 0-2 .9-2 2v12c0 1.1.9 2 2 2h16c1.1 0 2-.9 2-2V7c0-1.1-.9-2-2-2z"/><path d="M17 13c0-2.8-2.2-5-5-5v1.8c1.8 0 3.2 1.4 3.2 3.2 0 1.8-1.4 3.2-3.2 3.2V18c2.8 0 5-2.2 5-5zM8.8 13c0 1.8 1.4 3.2 3.2 3.2V9.8c-1.8 0-3.2 1.4-3.2 3.2z"/></symbol><symbol id="movie_creation" viewBox="0 0 24 24"><path d="m18 4 2 4h-3l-2-4h-2l2 4h-3l-2-4H8l2 4H7L5 4H4c-1.1 0-1.99.9-1.99 2L2 18c0 1.1.9 2 2 2h16c1.1 0 2-.9 2-2V4h-4z"/></symbol><symbol id="movie_filter" viewBox="0 0 24 24"><path d="m18 4 2 4h-3l-2-4h-2l2 4h-3l-2-4H8l2 4H7L5 4H4c-1.1 0-1.99.9-1.99 2L2 18c0 1.1.9 2 2 2h16c1.1 0 2-.9 2-2V4zm-6.58 11.68L10.37 18l-1.05-2.32L7 14.63l2.32-1.05 1.05-2.32 1.05 2.32 2.32 1.05zm3.69-3.47-.53 1.16-.53-1.16-1.16-.53 1.16-.53.53-1.15.53 1.16 1.16.53z"/></symbol><symbol id="music_note" viewBox="0 0 24 24"><path d="M12 3v10.55c-.59-.34-1.27-.55-2-.55-2.21 0-4 1.79-4 4s1.79 4 4 4 4-1.79 4-4V7h4V3h-6z"/></symbol><symbol id="nature_people" viewBox="0 0 24 24"><path d="M22.17 9.17c0-3.87-3.13-7-7-7s-7 3.13-7 7A6.98 6.98 0 0 0 14 16.06V20H6v-3h1v-4c0-.55-.45-1-1-1H3c-.55 0-1 .45-1 1v4h1v5h16v-2h-3v-3.88a7 7 0 0 0 6.17-6.95zM4.5 11c.83 0 1.5-.67 1.5-1.5S5.33 8 4.5 8 3 8.67 3 9.5 3.67 11 4.5 11z"/></symbol><symbol id="nature" viewBox="0 0 24 24"><path d="M13 16.12a7 7 0 0 0 6.17-6.95c0-3.87-3.13-7-7-7s-7 3.13-7 7A6.98 6.98 0 0 0 11 16.06V20H5v2h14v-2h-6z"/></symbol><symbol id="navigate_before" viewBox="0 0 24 24"><path d="M15.41 7.41 14 6l-6 6 6 6 1.41-1.41L10.83 12z"/></symbol><symbol id="navigate_next" viewBox="0 0 24 24"><path d="M10 6 8.59 7.41 13.17 12l-4.58 4.59L10 18l6-6z"/></symbol><symbol id="palette" viewBox="0 0 24 24"><path d="M12 3a9 9 0 0 0 0 18c.83 0 1.5-.67 1.5-1.5 0-.39-.15-.74-.39-1.01-.23-.26-.38-.61-.38-.99 0-.83.67-1.5 1.5-1.5H16c2.76 0 5-2.24 5-5 0-4.42-4.03-8-9-8zm-5.5 9c-.83 0-1.5-.67-1.5-1.5S5.67 9 6.5 9 8 9.67 8 10.5 7.33 12 6.5 12zm3-4C8.67 8 8 7.33 8 6.5S8.67 5 9.5 5s1.5.67 1.5 1.5S10.33 8 9.5 8zm5 0c-.83 0-1.5-.67-1.5-1.5S13.67 5 14.5 5s1.5.67 1.5 1.5S15.33 8 14.5 8zm3 4c-.83 0-1.5-.67-1.5-1.5S16.67 9 17.5 9s1.5.67 1.5 1.5-.67 1.5-1.5 1.5z"/></symbol><symbol id="panorama_fisheye" viewBox="0 0 24 24"><path d="M12 2C6.47 2 2 6.47 2 12s4.47 10 10 10 10-4.47 10-10S17.53 2 12 2zm0 18c-4.41 0-8-3.59-8-8s3.59-8 8-8 8 3.59 8 8-3.59 8-8 8z"/></symbol><symbol id="panorama_horizontal" viewBox="0 0 24 24"><path d="M20 6.54v10.91c-2.6-.77-5.28-1.16-8-1.16s-5.4.39-8 1.16V6.54c2.6.77 5.28 1.16 8 1.16 2.72.01 5.4-.38 8-1.16M21.43 4c-.1 0-.2.02-.31.06C18.18 5.16 15.09 5.7 12 5.7s-6.18-.55-9.12-1.64A.94.94 0 0 0 2.57 4c-.34 0-.57.23-.57.63v14.75c0 .39.23.62.57.62.1 0 .2-.02.31-.06 2.94-1.1 6.03-1.64 9.12-1.64s6.18.55 9.12 1.64c.11.04.21.06.31.06.33 0 .57-.23.57-.63V4.63c0-.4-.24-.63-.57-.63z"/></symbol><symbol id="panorama_vertical" viewBox="0 0 24 24"><path d="M19.94 21.12c-1.1-2.94-1.64-6.03-1.64-9.12s.55-6.18 1.64-9.12a.94.94 0 0 0 .06-.31c0-.34-.23-.57-.63-.57H4.63c-.4 0-.63.23-.63.57 0 .1.02.2.06.31C5.16 5.82 5.71 8.91 5.71 12s-.55 6.18-1.64 9.12c-.05.11-.07.22-.07.31 0 .33.23.57.63.57h14.75c.39 0 .63-.24.63-.57-.01-.1-.03-.2-.07-.31zM6.54 20c.77-2.6 1.16-5.28 1.16-8s-.39-5.4-1.16-8h10.91c-.77 2.6-1.16 5.28-1.16 8s.39 5.4 1.16 8z"/></symbol><symbol id="panorama_wide_angle" viewBox="0 0 24 24"><path d="M12 6c2.45 0 4.71.2 7.29.64A21 21 0 0 1 20 12a21 21 0 0 1-.71 5.36c-2.58.44-4.84.64-7.29.64s-4.71-.2-7.29-.64A21 21 0 0 1 4 12a21 21 0 0 1 .71-5.36C7.29 6.2 9.55 6 12 6m0-2c-2.73 0-5.22.24-7.95.72l-.93.16-.25.9C2.29 7.85 2 9.93 2 12s.29 4.15.87 6.22l.25.89.93.16c2.73.49 5.22.73 7.95.73s5.22-.24 7.95-.72l.93-.16.25-.89c.58-2.08.87-4.16.87-6.23s-.29-4.15-.87-6.22l-.25-.89-.93-.16C17.22 4.24 14.73 4 12 4z"/></symbol><symbol id="panorama" viewBox="0 0 24 24"><path d="M23 18V6c0-1.1-.9-2-2-2H3c-1.1 0-2 .9-2 2v12c0 1.1.9 2 2 2h18c1.1 0 2-.9 2-2zM8.5 12.5l2.5 3.01L14.5 11l4.5 6H5l3.5-4.5z"/></symbol><symbol id="photo_album" viewBox="0 0 24 24"><path d="M18 2H6c-1.1 0-2 .9-2 2v16c0 1.1.9 2 2 2h12c1.1 0 2-.9 2-2V4c0-1.1-.9-2-2-2zM6 4h5v8l-2.5-1.5L6 12V4zm0 15 3-3.86 2.14 2.58 3-3.86L18 19H6z"/></symbol><symbol id="photo_camera" viewBox="0 0 24 24"><circle cx="12" cy="12" r="3.2"/><path d="M12 17c-2.76 0-5-2.24-5-5s2.24-5 5-5 5 2.24 5 5-2.24 5-5 5zM9 2 7.17 4H4c-1.1 0-2 .9-2 2v12c0 1.1.9 2 2 2h16c1.1 0 2-.9 2-2V6c0-1.1-.9-2-2-2h-3.17L15 2H9z"/></symbol><symbol id="photo_filter" viewBox="0 0 24 24"><path d="m17.13 8.9.59-1.3 1.3-.6-1.3-.59-.59-1.3-.59 1.3-1.31.59 1.31.6zM12.39 6.53l-1.18 2.61-2.61 1.18 2.61 1.18 1.18 2.61 1.19-2.61 2.6-1.18-2.6-1.18z"/><path d="M19.02 10v9H5V5h9V3H5.02c-1.1 0-2 .9-2 2v14c0 1.1.9 2 2 2h14c1.1 0 2-.9 2-2v-9h-2z"/></symbol><symbol id="photo_library" viewBox="0 0 24 24"><path d="m11 12 2.03 2.71L16 11l4 5H8l3-4zm11 4V4c0-1.1-.9-2-2-2H8c-1.1 0-2 .9-2 2v12c0 1.1.9 2 2 2h12c1.1 0 2-.9 2-2z"/><path d="M2 6v14c0 1.1.9 2 2 2h14v-2H4V6H2z"/></symbol><symbol id="photo_size_select_actual" viewBox="0 0 24 24"><path d="M21 3H3C2 3 1 4 1 5v14c0 1.1.9 2 2 2h18c1 0 2-1 2-2V5c0-1-1-2-2-2zM5 17l3.5-4.5 2.5 3.01L14.5 11l4.5 6H5z"/></symbol><symbol id="photo_size_select_large" viewBox="0 0 24 24"><path d="M21 15h2v2h-2zM21 11h2v2h-2zM23 19h-2v2c1 0 2-1 2-2zM13 3h2v2h-2zM21 7h2v2h-2zM21 3v2h2c0-1-1-2-2-2zM1 7h2v2H1zM17 3h2v2h-2zM17 19h2v2h-2zM3 3C2 3 1 4 1 5h2zM9 3h2v2H9zM5 3h2v2H5zM3 19l2.5-3.21 1.79 2.15 2.5-3.22L13 19zm-2-8v8c0 1.1.9 2 2 2h12V11z"/></symbol><symbol id="photo_size_select_small" viewBox="0 0 24 24"><path d="M23 15h-2v2h2zM23 11h-2v2h2zM23 19h-2v2c1 0 2-1 2-2zM15 3h-2v2h2zM23 7h-2v2h2zM21 3v2h2c0-1-1-2-2-2zM3 21h8v-6H1v4c0 1.1.9 2 2 2zM3 7H1v2h2zM15 19h-2v2h2zM19 3h-2v2h2zM19 19h-2v2h2zM3 3C2 3 1 4 1 5h2zM3 11H1v2h2zM11 3H9v2h2zM7 3H5v2h2z"/></symbol><symbol id="photo" viewBox="0 0 24 24"><path d="M21 19V5c0-1.1-.9-2-2-2H5c-1.1 0-2 .9-2 2v14c0 1.1.9 2 2 2h14c1.1 0 2-.9 2-2zM8.5 13.5l2.5 3.01L14.5 12l4.5 6H5l3.5-4.5z"/></symbol><symbol id="picture_as_pdf" viewBox="0 0 24 24"><path d="M4 6H2v14c0 1.1.9 2 2 2h14v-2H4V6z"/><path d="M14 11.5h1v-3h-1v3zm-5-2h1v-1H9v1zm11.5-1H19v1h1.5V11H19v2h-1.5V7h3v1.5zm-4 3c0 .83-.67 1.5-1.5 1.5h-2.5V7H15c.83 0 1.5.67 1.5 1.5v3zm-5-2c0 .83-.67 1.5-1.5 1.5H9v2H7.5V7H10c.83 0 1.5.67 1.5 1.5v1zM20 2H8c-1.1 0-2 .9-2 2v12c0 1.1.9 2 2 2h12c1.1 0 2-.9 2-2V4c0-1.1-.9-2-2-2z"/></symbol><symbol id="portrait" viewBox="0 0 24 24"><path d="M16.5 16.25c0-1.5-3-2.25-4.5-2.25s-4.5.75-4.5 2.25V17h9v-.75zm-4.5-4c1.24 0 2.25-1.01 2.25-2.25S13.24 7.75 12 7.75 9.75 8.76 9.75 10s1.01 2.25 2.25 2.25z"/><path d="M19 19H5V5h14v14zm0-16H5c-1.1 0-2 .9-2 2v14c0 1.1.9 2 2 2h14c1.1 0 2-.9 2-2V5c0-1.1-.9-2-2-2z"/></symbol><symbol id="remove_red_eye" viewBox="0 0 24 24"><path d="M12 17c-2.76 0-5-2.24-5-5s2.24-5 5-5 5 2.24 5 5-2.24 5-5 5zm0-12.5C7 4.5 2.73 7.61 1 12c1.73 4.39 6 7.5 11 7.5s9.27-3.11 11-7.5c-1.73-4.39-6-7.5-11-7.5z"/><path d="M12 9c-1.66 0-3 1.34-3 3s1.34 3 3 3 3-1.34 3-3-1.34-3-3-3z"/></symbol><symbol id="rotate_90_degrees_ccw" viewBox="0 0 24 24"><path d="m3.69 12.9 3.66-3.66L11 12.9l-3.66 3.66-3.65-3.66zm3.65-6.49L.86 12.9l6.49 6.48 6.49-6.48-6.5-6.49z"/><path d="M19.36 6.64A8.95 8.95 0 0 0 13 4V.76L8.76 5 13 9.24V6c1.79 0 3.58.68 4.95 2.05a7.007 7.007 0 0 1 0 9.9 6.973 6.973 0 0 1-7.79 1.44l-1.49 1.49C10.02 21.62 11.51 22 13 22c2.3 0 4.61-.88 6.36-2.64a8.98 8.98 0 0 0 0-12.72z"/></symbol><symbol id="rotate_left" viewBox="0 0 24 24"><path d="M7.11 8.53 5.7 7.11C4.8 8.27 4.24 9.61 4.07 11h2.02c.14-.87.49-1.72 1.02-2.47zM6.09 13H4.07c.17 1.39.72 2.73 1.62 3.89l1.41-1.42c-.52-.75-.87-1.59-1.01-2.47zM7.1 18.32c1.16.9 2.51 1.44 3.9 1.61V17.9c-.87-.15-1.71-.49-2.46-1.03L7.1 18.32zM13 4.07V1L8.45 5.55 13 10V6.09c2.84.48 5 2.94 5 5.91s-2.16 5.43-5 5.91v2.02c3.95-.49 7-3.85 7-7.93s-3.05-7.44-7-7.93z"/></symbol><symbol id="rotate_right" viewBox="0 0 24 24"><path d="M15.55 5.55 11 1v3.07C7.06 4.56 4 7.92 4 12s3.05 7.44 7 7.93v-2.02c-2.84-.48-5-2.94-5-5.91s2.16-5.43 5-5.91V10zM19.93 11a7.906 7.906 0 0 0-1.62-3.89l-1.42 1.42c.54.75.88 1.6 1.02 2.47zM13 17.9v2.02c1.39-.17 2.74-.71 3.9-1.61l-1.44-1.44c-.75.54-1.59.89-2.46 1.03zM16.89 15.48l1.42 1.41c.9-1.16 1.45-2.5 1.62-3.89h-2.02c-.14.87-.48 1.72-1.02 2.48z"/></symbol><symbol id="slideshow" viewBox="0 0 24 24"><path d="M10 8v8l5-4-5-4z"/><path d="M19 19H5V5h14v14zm0-16H5c-1.1 0-2 .9-2 2v14c0 1.1.9 2 2 2h14c1.1 0 2-.9 2-2V5c0-1.1-.9-2-2-2z"/></symbol><symbol id="straighten" viewBox="0 0 24 24"><path d="M21 6H3c-1.1 0-2 .9-2 2v8c0 1.1.9 2 2 2h18c1.1 0 2-.9 2-2V8c0-1.1-.9-2-2-2zm0 10H3V8h2v4h2V8h2v4h2V8h2v4h2V8h2v4h2V8h2v8z"/></symbol><symbol id="style" viewBox="0 0 24 24"><path d="m2.53 19.65 1.34.56v-9.03l-2.43 5.86c-.41 1.02.08 2.19 1.09 2.61zM7.88 8.75c-.55 0-1-.45-1-1s.45-1 1-1 1 .45 1 1-.45 1-1 1zm14.15 7.2L17.07 3.98a2.013 2.013 0 0 0-1.81-1.23c-.26 0-.53.04-.79.15L7.1 5.95a1.999 1.999 0 0 0-1.08 2.6l4.96 11.97a1.998 1.998 0 0 0 2.6 1.08l7.36-3.05a1.994 1.994 0 0 0 1.09-2.6zM5.88 19.75c0 1.1.9 2 2 2h1.45l-3.45-8.34z"/></symbol><symbol id="switch_camera" viewBox="0 0 24 24"><path d="M20 4h-3.17L15 2H9L7.17 4H4c-1.1 0-2 .9-2 2v12c0 1.1.9 2 2 2h16c1.1 0 2-.9 2-2V6c0-1.1-.9-2-2-2zm-5 11.5V13H9v2.5L5.5 12 9 8.5V11h6V8.5l3.5 3.5-3.5 3.5z"/></symbol><symbol id="switch_video" viewBox="0 0 24 24"><path d="M18 9.5V6c0-.55-.45-1-1-1H3c-.55 0-1 .45-1 1v12c0 .55.45 1 1 1h14c.55 0 1-.45 1-1v-3.5l4 4v-13l-4 4zm-5 6V13H7v2.5L3.5 12 7 8.5V11h6V8.5l3.5 3.5-3.5 3.5z"/></symbol><symbol id="tag_faces" viewBox="0 0 24 24"><path d="M12 20c-4.42 0-8-3.58-8-8s3.58-8 8-8 8 3.58 8 8-3.58 8-8 8zm-.01-18C6.47 2 2 6.48 2 12s4.47 10 9.99 10C17.52 22 22 17.52 22 12S17.52 2 11.99 2z"/><path d="M15.5 11c.83 0 1.5-.67 1.5-1.5S16.33 8 15.5 8 14 8.67 14 9.5s.67 1.5 1.5 1.5zM8.5 11c.83 0 1.5-.67 1.5-1.5S9.33 8 8.5 8 7 8.67 7 9.5 7.67 11 8.5 11zM12 17.5c2.33 0 4.31-1.46 5.11-3.5H6.89c.8 2.04 2.78 3.5 5.11 3.5z"/></symbol><symbol id="texture" viewBox="0 0 24 24"><path d="M19.51 3.08 3.08 19.51c.09.34.27.65.51.9.25.24.56.42.9.51L20.93 4.49c-.19-.69-.73-1.23-1.42-1.41zM11.88 3 3 11.88v2.83L14.71 3zM5 3c-1.1 0-2 .9-2 2v2l4-4zM19 21c.55 0 1.05-.22 1.41-.59.37-.36.59-.86.59-1.41v-2l-4 4zM9.29 21h2.83L21 12.12V9.29z"/></symbol><symbol id="timelapse" viewBox="0 0 24 24"><path d="M16.24 7.76A5.974 5.974 0 0 0 12 6v6l-4.24 4.24c2.34 2.34 6.14 2.34 8.49 0a5.99 5.99 0 0 0-.01-8.48z"/><path d="M12 20c-4.42 0-8-3.58-8-8s3.58-8 8-8 8 3.58 8 8-3.58 8-8 8zm0-18C6.48 2 2 6.48 2 12s4.48 10 10 10 10-4.48 10-10S17.52 2 12 2z"/></symbol><symbol id="timer_10" viewBox="0 0 24 24"><path d="M0 7.72V9.4l3-1V18h2V6h-.25zM23.78 14.37c-.14-.28-.35-.53-.63-.74s-.61-.39-1.01-.53-.85-.27-1.35-.38a6.64 6.64 0 0 1-.87-.23 2.61 2.61 0 0 1-.55-.25.717.717 0 0 1-.28-.3.978.978 0 0 1 .01-.8c.06-.13.15-.25.27-.34.12-.1.27-.18.45-.24s.4-.09.64-.09c.25 0 .47.04.66.11s.35.17.48.29.22.26.29.42c.06.16.1.32.1.49h1.95a2.517 2.517 0 0 0-.93-1.97c-.3-.25-.66-.44-1.09-.59S21 9 20.46 9c-.51 0-.98.07-1.39.21s-.77.33-1.06.57-.51.52-.67.84a2.2 2.2 0 0 0-.23 1.01c0 .36.08.69.23.96.15.28.36.52.64.73.27.21.6.38.98.53.38.14.81.26 1.27.36.39.08.71.17.95.26s.43.19.57.29c.13.1.22.22.27.34s.07.25.07.39c0 .32-.13.57-.4.77s-.66.29-1.17.29c-.22 0-.43-.02-.64-.08-.21-.05-.4-.13-.56-.24a1.333 1.333 0 0 1-.59-1.11h-1.89c0 .36.08.71.24 1.05s.39.65.7.93c.31.27.69.49 1.15.66s.98.25 1.58.25c.53 0 1.01-.06 1.44-.19s.8-.31 1.11-.54.54-.51.71-.83.25-.67.25-1.06c-.02-.4-.09-.74-.24-1.02zM12.9 13.22c0 .6-.04 1.11-.12 1.53s-.2.76-.36 1.02-.36.45-.59.57-.51.18-.82.18c-.3 0-.58-.06-.82-.18s-.44-.31-.6-.57-.29-.6-.38-1.02-.13-.93-.13-1.53v-2.5c0-.6.04-1.11.13-1.52s.21-.74.38-1c.16-.25.36-.43.6-.55.24-.11.51-.17.81-.17.31 0 .58.06.81.17.24.11.44.29.6.55.16.25.29.58.37.99s.13.92.13 1.52v2.51zm.92-6.17c-.34-.4-.75-.7-1.23-.88-.47-.18-1.01-.27-1.59-.27s-1.11.09-1.59.27-.89.47-1.23.88-.6.93-.79 1.59c-.18.65-.28 1.45-.28 2.39v1.92c0 .94.09 1.74.28 2.39.19.66.45 1.19.8 1.6.34.41.75.71 1.23.89s1.01.28 1.59.28c.59 0 1.12-.09 1.59-.28.48-.18.88-.48 1.22-.89s.6-.94.78-1.6c.18-.65.28-1.45.28-2.39v-1.92c0-.94-.09-1.74-.28-2.39-.18-.66-.44-1.19-.78-1.59z"/></symbol><symbol id="timer_3" viewBox="0 0 24 24"><path d="M11.61 12.97c-.16-.24-.36-.46-.62-.65a3.38 3.38 0 0 0-.93-.48c.3-.14.57-.3.8-.5s.42-.41.57-.64.27-.46.34-.71c.08-.24.11-.49.11-.73 0-.55-.09-1.04-.28-1.46-.18-.42-.44-.77-.78-1.06-.33-.28-.73-.5-1.2-.64-.45-.13-.97-.2-1.53-.2-.55 0-1.06.08-1.52.24-.47.17-.87.4-1.2.69s-.6.63-.78 1.03c-.2.39-.29.83-.29 1.29h1.98c0-.26.05-.49.14-.69s.22-.38.38-.52c.17-.14.36-.25.58-.33s.46-.12.73-.12c.61 0 1.06.16 1.36.47s.44.75.44 1.32c0 .27-.04.52-.12.74s-.21.41-.38.57-.38.28-.63.37-.55.13-.89.13H6.72v1.57H7.9c.34 0 .64.04.91.11.27.08.5.19.69.35s.34.36.44.61c.1.24.16.54.16.87 0 .62-.18 1.09-.53 1.42s-.84.49-1.45.49c-.29 0-.56-.04-.8-.13-.24-.08-.44-.2-.61-.36s-.3-.34-.39-.56-.14-.46-.14-.72H4.19c0 .55.11 1.03.32 1.45s.5.77.86 1.05.77.49 1.24.63.96.21 1.48.21c.57 0 1.09-.08 1.58-.23s.91-.38 1.26-.68c.36-.3.64-.66.84-1.1.2-.43.3-.93.3-1.48 0-.29-.04-.58-.11-.86-.08-.25-.19-.51-.35-.76zM20.87 14.37c-.14-.28-.35-.53-.63-.74s-.61-.39-1.01-.53-.85-.27-1.35-.38a6.64 6.64 0 0 1-.87-.23 2.61 2.61 0 0 1-.55-.25.717.717 0 0 1-.28-.3.935.935 0 0 1-.08-.39.946.946 0 0 1 .36-.75c.12-.1.27-.18.45-.24s.4-.09.64-.09c.25 0 .47.04.66.11s.35.17.48.29.22.26.29.42c.06.16.1.32.1.49h1.95a2.517 2.517 0 0 0-.93-1.97c-.3-.25-.66-.44-1.09-.59S18.09 9 17.55 9c-.51 0-.98.07-1.39.21s-.77.33-1.06.57-.51.52-.67.84a2.2 2.2 0 0 0-.23 1.01c0 .36.08.68.23.96s.37.52.64.73.6.38.98.53c.38.14.81.26 1.27.36.39.08.71.17.95.26s.43.19.57.29c.13.1.22.22.27.34s.07.25.07.39c0 .32-.13.57-.4.77s-.66.29-1.17.29c-.22 0-.43-.02-.64-.08-.21-.05-.4-.13-.56-.24a1.333 1.333 0 0 1-.59-1.11h-1.89c0 .36.08.71.24 1.05s.39.65.7.93c.31.27.69.49 1.15.66s.98.25 1.58.25c.53 0 1.01-.06 1.44-.19s.8-.31 1.11-.54.54-.51.71-.83.25-.67.25-1.06c-.02-.4-.09-.74-.24-1.02z"/></symbol><symbol id="timer_off" viewBox="0 0 24 24"><path d="m19.04 4.55-1.42 1.42a9.012 9.012 0 0 0-10.57-.49l1.46 1.46C9.53 6.35 10.73 6 12 6c3.87 0 7 3.13 7 7 0 1.27-.35 2.47-.94 3.49l1.45 1.45A8.878 8.878 0 0 0 21 13c0-2.12-.74-4.07-1.97-5.61l1.42-1.42zM15 1H9v2h6z"/><path d="m11 9.44 2 2V8h-2zM12 20c-3.87 0-7-3.13-7-7 0-1.28.35-2.48.95-3.52l9.56 9.56c-1.03.61-2.23.96-3.51.96zM3.02 4 1.75 5.27 4.5 8.03A8.905 8.905 0 0 0 3 13c0 4.97 4.02 9 9 9 1.84 0 3.55-.55 4.98-1.5l2.5 2.5 1.27-1.27-7.71-7.71z"/></symbol><symbol id="timer" viewBox="0 0 24 24"><path d="M15 1H9v2h6V1zM11 14h2V8h-2v6z"/><path d="M12 20c-3.87 0-7-3.13-7-7s3.13-7 7-7 7 3.13 7 7-3.13 7-7 7zm7.03-12.61 1.42-1.42c-.43-.51-.9-.99-1.41-1.41l-1.42 1.42A8.962 8.962 0 0 0 12 4c-4.97 0-9 4.03-9 9s4.02 9 9 9a8.994 8.994 0 0 0 7.03-14.61z"/></symbol><symbol id="tonality" viewBox="0 0 24 24"><path d="M12 2C6.48 2 2 6.48 2 12s4.48 10 10 10 10-4.48 10-10S17.52 2 12 2zm-1 17.93c-3.94-.49-7-3.85-7-7.93s3.05-7.44 7-7.93v15.86zm2-15.86c1.03.13 2 .45 2.87.93H13v-.93zM13 7h5.24c.25.31.48.65.68 1H13V7zm0 3h6.74c.08.33.15.66.19 1H13v-1zm0 9.93V19h2.87c-.87.48-1.84.8-2.87.93zM18.24 17H13v-1h5.92c-.2.35-.43.69-.68 1zm1.5-3H13v-1h6.93c-.04.34-.11.67-.19 1z"/></symbol><symbol id="transform" viewBox="0 0 24 24"><path d="M22 18v-2H8V4h2L7 1 4 4h2v2H2v2h4v8c0 1.1.9 2 2 2h8v2h-2l3 3 3-3h-2v-2h4z"/><path d="M10 8h6v6h2V8c0-1.1-.9-2-2-2h-6v2z"/></symbol><symbol id="tune" viewBox="0 0 24 24"><path d="M13 21v-2h8v-2h-8v-2h-2v6zM3 17v2h6v-2zM21 13v-2H11v2zM7 9v2H3v2h4v2h2V9zM15 9h2V7h4V5h-4V3h-2zM3 5v2h10V5z"/></symbol><symbol id="view_comfy" viewBox="0 0 24 24"><path d="M3 9h4V5H3zM3 14h4v-4H3zM8 14h4v-4H8zM13 14h4v-4h-4zM8 9h4V5H8zM13 5v4h4V5zM18 14h4v-4h-4zM3 19h4v-4H3zM8 19h4v-4H8zM13 19h4v-4h-4zM18 19h4v-4h-4zM18 5v4h4V5z"/></symbol><symbol id="view_compact" viewBox="0 0 24 24"><path d="M3 19h6v-7H3zM10 19h12v-7H10zM3 5v6h19V5z"/></symbol><symbol id="vignette" viewBox="0 0 24 24"><path d="M21 3H3c-1.1 0-2 .9-2 2v14c0 1.1.9 2 2 2h18c1.1 0 2-.9 2-2V5c0-1.1-.9-2-2-2zm-9 15c-4.42 0-8-2.69-8-6s3.58-6 8-6 8 2.69 8 6-3.58 6-8 6z"/></symbol><symbol id="wb_auto" viewBox="0 0 24 24"><path d="M6.85 12.65h2.3L8 9l-1.15 3.65zM22 7l-1.2 6.29L19.3 7h-1.6l-1.49 6.29L15 7h-.76C12.77 5.17 10.53 4 8 4c-4.42 0-8 3.58-8 8s3.58 8 8 8c3.13 0 5.84-1.81 7.15-4.43l.1.43H17l1.5-6.1L20 16h1.75l2.05-9H22zm-11.7 9-.7-2H6.4l-.7 2H3.8L7 7h2l3.2 9h-1.9z"/></symbol><symbol id="wb_cloudy" viewBox="0 0 24 24"><path d="M19.36 10.04C18.67 6.59 15.64 4 12 4 9.11 4 6.6 5.64 5.35 8.04A5.994 5.994 0 0 0 0 14c0 3.31 2.69 6 6 6h13c2.76 0 5-2.24 5-5 0-2.64-2.05-4.78-4.64-4.96z"/></symbol><symbol id="wb_incandescent" viewBox="0 0 24 24"><path d="m3.55 18.54 1.41 1.41 1.79-1.8-1.41-1.41zM11 22.45h2V19.5h-2zM4 10.5H1v2h3zM15 6.31V1.5H9v4.81C7.21 7.35 6 9.28 6 11.5c0 3.31 2.69 6 6 6s6-2.69 6-6c0-2.22-1.21-4.15-3-5.19zM20 10.5v2h3v-2zM17.24 18.16l1.79 1.8 1.41-1.41-1.8-1.79z"/></symbol><symbol id="wb_irradescent" viewBox="0 0 24 24"><path d="M5 14.5h14v-6H5zM11 .55V3.5h2V.55zM19.04 3.05l-1.79 1.79 1.41 1.41 1.8-1.79zM13 22.45V19.5h-2v2.95zM20.45 18.54l-1.8-1.79-1.41 1.41 1.79 1.8zM3.55 4.46l1.79 1.79 1.41-1.41-1.79-1.79zM4.96 19.95l1.79-1.8-1.41-1.41-1.79 1.79z"/></symbol><symbol id="wb_sunny" viewBox="0 0 24 24"><path d="m6.76 4.84-1.8-1.79-1.41 1.41 1.79 1.79zM4 10.5H1v2h3zM13 .55h-2V3.5h2zM20.45 4.46l-1.41-1.41-1.79 1.79 1.41 1.41zM17.24 18.16l1.79 1.8 1.41-1.41-1.8-1.79zM20 10.5v2h3v-2zM12 5.5c-3.31 0-6 2.69-6 6s2.69 6 6 6 6-2.69 6-6-2.69-6-6-6zM11 22.45h2V19.5h-2zM3.55 18.54l1.41 1.41 1.79-1.8-1.41-1.41z"/></symbol></svg>