<?xml version="1.0" encoding="UTF-8"?><!DOCTYPE svg PUBLIC "-//W3C//DTD SVG 1.1//EN" "http://www.w3.org/Graphics/SVG/1.1/DTD/svg11.dtd"><svg xmlns="http://www.w3.org/2000/svg" xmlns:xlink="http://www.w3.org/1999/xlink"><defs/><symbol id="layout-3d" viewBox="0 0 48 48"><path fill-rule="evenodd" clip-rule="evenodd" d="M1.5 10A1.5 1.5 0 0 0 0 11.5v25A1.5 1.5 0 0 0 1.5 38h9a1.5 1.5 0 0 0 1.5-1.5v-25a1.5 1.5 0 0 0-1.5-1.5h-9Zm34 0a1.5 1.5 0 0 0-1.5 1.5v25a1.5 1.5 0 0 0 1.5 1.5h11a1.5 1.5 0 0 0 1.5-1.5v-25a1.5 1.5 0 0 0-1.5-1.5h-11Z"/><rect style="fill: var(--opacity, #fff)" opacity=".3" x="16" y="10" width="14" height="28" rx="1.5"/></symbol><symbol id="layout-4-blocks" viewBox="0 0 48 48"><rect x="8" y="8" width="14" height="14" rx="1.5"/><path style="fill: var(--opacity, #fff)" opacity=".3" fill-rule="evenodd" clip-rule="evenodd" d="M26 9.5A1.5 1.5 0 0 1 27.5 8h11A1.5 1.5 0 0 1 40 9.5v11a1.5 1.5 0 0 1-1.5 1.5h-11a1.5 1.5 0 0 1-1.5-1.5v-11Zm-18 18A1.5 1.5 0 0 1 9.5 26h11a1.5 1.5 0 0 1 1.5 1.5v11a1.5 1.5 0 0 1-1.5 1.5h-11A1.5 1.5 0 0 1 8 38.5v-11ZM27.5 26a1.5 1.5 0 0 0-1.5 1.5v11a1.5 1.5 0 0 0 1.5 1.5h11a1.5 1.5 0 0 0 1.5-1.5v-11a1.5 1.5 0 0 0-1.5-1.5h-11Z"/></symbol><symbol id="layout-arrange" viewBox="0 0 48 48"><path fill-rule="evenodd" clip-rule="evenodd" d="M9.5 8A1.5 1.5 0 0 0 8 9.5v5A1.5 1.5 0 0 0 9.5 16h11a1.5 1.5 0 0 0 1.5-1.5v-5A1.5 1.5 0 0 0 20.5 8h-11Zm18 24a1.5 1.5 0 0 0-1.5 1.5v5a1.5 1.5 0 0 0 1.5 1.5h11a1.5 1.5 0 0 0 1.5-1.5v-5a1.5 1.5 0 0 0-1.5-1.5h-11Z"/><path style="fill: var(--opacity, #fff)" opacity=".3" fill-rule="evenodd" clip-rule="evenodd" d="M27.5 8A1.5 1.5 0 0 0 26 9.5v17a1.5 1.5 0 0 0 1.5 1.5h11a1.5 1.5 0 0 0 1.5-1.5v-17A1.5 1.5 0 0 0 38.5 8h-11Zm-18 12A1.5 1.5 0 0 0 8 21.5v17A1.5 1.5 0 0 0 9.5 40h11a1.5 1.5 0 0 0 1.5-1.5v-17a1.5 1.5 0 0 0-1.5-1.5h-11Z"/></symbol><symbol id="layout-bottom-panel" viewBox="0 0 48 48"><rect style="fill: var(--opacity, #fff)" opacity=".3" x="4" y="32" width="38" height="8" rx="1"/><rect x="4" y="10" width="38" height="20" rx="1"/></symbol><symbol id="layout-grid" viewBox="0 0 48 48"><rect style="fill: var(--opacity, #fff)" opacity=".3" x="8" y="8" width="8" height="8" rx="1"/><path fill-rule="evenodd" clip-rule="evenodd" d="M21 8a1 1 0 0 0-1 1v6a1 1 0 0 0 1 1h6a1 1 0 0 0 1-1V9a1 1 0 0 0-1-1h-6ZM9 20a1 1 0 0 0-1 1v6a1 1 0 0 0 1 1h6a1 1 0 0 0 1-1v-6a1 1 0 0 0-1-1H9Zm11 1a1 1 0 0 1 1-1h6a1 1 0 0 1 1 1v6a1 1 0 0 1-1 1h-6a1 1 0 0 1-1-1v-6ZM33 8a1 1 0 0 0-1 1v6a1 1 0 0 0 1 1h6a1 1 0 0 0 1-1V9a1 1 0 0 0-1-1h-6Zm-1 13a1 1 0 0 1 1-1h6a1 1 0 0 1 1 1v6a1 1 0 0 1-1 1h-6a1 1 0 0 1-1-1v-6ZM9 32a1 1 0 0 0-1 1v6a1 1 0 0 0 1 1h6a1 1 0 0 0 1-1v-6a1 1 0 0 0-1-1H9Zm11 1a1 1 0 0 1 1-1h6a1 1 0 0 1 1 1v6a1 1 0 0 1-1 1h-6a1 1 0 0 1-1-1v-6Zm13-1a1 1 0 0 0-1 1v6a1 1 0 0 0 1 1h6a1 1 0 0 0 1-1v-6a1 1 0 0 0-1-1h-6Z"/></symbol><symbol id="layout-horizontal-2" viewBox="0 0 48 48"><rect x="8" y="10" width="32" height="12" rx="1.5"/><rect style="fill: var(--opacity, #fff)" opacity=".3" x="8" y="26" width="32" height="12" rx="1.5"/></symbol><symbol id="layout-horizontal" viewBox="0 0 48 48"><rect style="fill: var(--opacity, #fff)" opacity=".3" x="8" y="10" width="32" height="12" rx="1.5"/><rect x="8" y="26" width="32" height="12" rx="1.5"/></symbol><symbol id="layout-left-panel-1" viewBox="0 0 48 48"><rect x="18" y="10" width="26" height="28" rx="1.5"/><rect style="fill: var(--opacity, #fff)" opacity=".3" x="4" y="10" width="10" height="28" rx="1"/></symbol><symbol id="layout-left-panel-2" viewBox="0 0 48 48"><path fill-rule="evenodd" clip-rule="evenodd" d="M18 9a1 1 0 0 1 1-1h24a1 1 0 0 1 1 1v6a1 1 0 0 1-1 1H19a1 1 0 0 1-1-1V9Zm0 12a1 1 0 0 1 1-1h24a1 1 0 0 1 1 1v6a1 1 0 0 1-1 1H19a1 1 0 0 1-1-1v-6Zm1 11a1 1 0 0 0-1 1v6a1 1 0 0 0 1 1h24a1 1 0 0 0 1-1v-6a1 1 0 0 0-1-1H19Z"/><rect style="fill: var(--opacity, #fff)" opacity=".3" x="4" y="8" width="10" height="32" rx="1"/></symbol><symbol id="layout-right-panel-1" viewBox="0 0 48 48"><rect x="4" y="10" width="26" height="28" rx="1.5"/><rect style="fill: var(--opacity, #fff)" opacity=".3" x="34" y="10" width="10" height="28" rx="1"/></symbol><symbol id="layout-right-panel-2" viewBox="0 0 48 48"><path fill-rule="evenodd" clip-rule="evenodd" d="M19.5 10a1.5 1.5 0 0 0-1.5 1.5v9a1.5 1.5 0 0 0 1.5 1.5h23a1.5 1.5 0 0 0 1.5-1.5v-9a1.5 1.5 0 0 0-1.5-1.5h-23Zm0 16a1.5 1.5 0 0 0-1.5 1.5v9a1.5 1.5 0 0 0 1.5 1.5h23a1.5 1.5 0 0 0 1.5-1.5v-9a1.5 1.5 0 0 0-1.5-1.5h-23Z"/><rect style="fill: var(--opacity, #fff)" opacity=".3" x="4" y="10" width="10" height="28" rx="1"/></symbol><symbol id="layout-top-panel-1" viewBox="0 0 48 48"><rect x="4" y="8" width="38" height="8" rx="1"/><path style="fill: var(--opacity, #fff)" opacity=".3" fill-rule="evenodd" clip-rule="evenodd" d="M4 21a1 1 0 0 1 1-1h8a1 1 0 0 1 1 1v18a1 1 0 0 1-1 1H5a1 1 0 0 1-1-1V21Zm14 0a1 1 0 0 1 1-1h8a1 1 0 0 1 1 1v18a1 1 0 0 1-1 1h-8a1 1 0 0 1-1-1V21Zm15-1a1 1 0 0 0-1 1v18a1 1 0 0 0 1 1h8a1 1 0 0 0 1-1V21a1 1 0 0 0-1-1h-8Z"/></symbol><symbol id="layout-top-panel-2" viewBox="0 0 48 48"><path fill-rule="evenodd" clip-rule="evenodd" d="M5 8a1 1 0 0 0-1 1v6a1 1 0 0 0 1 1h36a1 1 0 0 0 1-1V9a1 1 0 0 0-1-1H5Zm14 12a1 1 0 0 0-1 1v18a1 1 0 0 0 1 1h22a1 1 0 0 0 1-1V21a1 1 0 0 0-1-1H19Z"/><rect style="fill: var(--opacity, #fff)" opacity=".3" x="4" y="20" width="10" height="20" rx="1"/></symbol><symbol id="layout-top-panel-3" viewBox="0 0 48 48"><path fill-rule="evenodd" clip-rule="evenodd" d="M5 8a1 1 0 0 0-1 1v6a1 1 0 0 0 1 1h36a1 1 0 0 0 1-1V9a1 1 0 0 0-1-1H5Zm0 12a1 1 0 0 0-1 1v18a1 1 0 0 0 1 1h22a1 1 0 0 0 1-1V21a1 1 0 0 0-1-1H5Z"/><rect style="fill: var(--opacity, #fff)" opacity=".3" x="32" y="20" width="10" height="20" rx="1"/></symbol><symbol id="layout-top-panel-4" viewBox="0 0 48 48"><path fill-rule="evenodd" clip-rule="evenodd" d="M4 9a1 1 0 0 1 1-1h36a1 1 0 0 1 1 1v6a1 1 0 0 1-1 1H5a1 1 0 0 1-1-1V9Zm0 12a1 1 0 0 1 1-1h22a1 1 0 0 1 1 1v6a1 1 0 0 1-1 1H5a1 1 0 0 1-1-1v-6Zm1 11a1 1 0 0 0-1 1v6a1 1 0 0 0 1 1h22a1 1 0 0 0 1-1v-6a1 1 0 0 0-1-1H5Z"/><rect style="fill: var(--opacity, #fff)" opacity=".3" x="32" y="20" width="10" height="20" rx="1"/></symbol><symbol id="layout-top-panel-5" viewBox="0 0 48 48"><path fill-rule="evenodd" clip-rule="evenodd" d="M4 9a1 1 0 0 1 1-1h36a1 1 0 0 1 1 1v6a1 1 0 0 1-1 1H5a1 1 0 0 1-1-1V9Zm14 12a1 1 0 0 1 1-1h22a1 1 0 0 1 1 1v6a1 1 0 0 1-1 1H19a1 1 0 0 1-1-1v-6Zm1 11a1 1 0 0 0-1 1v6a1 1 0 0 0 1 1h22a1 1 0 0 0 1-1v-6a1 1 0 0 0-1-1H19Z"/><rect style="fill: var(--opacity, #fff)" opacity=".3" x="4" y="20" width="10" height="20" rx="1"/></symbol><symbol id="layout-top-panel-6" viewBox="0 0 48 48"><rect x="4" y="10" width="38" height="8" rx="1"/><rect style="fill: var(--opacity, #fff)" opacity=".3" x="4" y="22" width="38" height="20" rx="1"/></symbol><symbol id="layout-vertical" viewBox="0 0 48 48"><rect x="10" y="8" width="12" height="32" rx="1.5"/><rect style="fill: var(--opacity, #fff)" opacity=".3" x="26" y="8" width="12" height="32" rx="1.5"/></symbol></svg>