<svg width="16" height="16" viewBox="0 0 16 16" fill="none" xmlns="http://www.w3.org/2000/svg">
<path fill-rule="evenodd" clip-rule="evenodd" d="M3.33325 8.00033C2.96506 8.00033 2.66659 8.2988 2.66659 8.66699V13.3337C2.66659 13.7018 2.96506 14.0003 3.33325 14.0003H12.6666C13.0348 14.0003 13.3333 13.7018 13.3333 13.3337V8.66699C13.3333 8.2988 13.0348 8.00033 12.6666 8.00033H3.33325ZM1.33325 8.66699C1.33325 7.56242 2.22868 6.66699 3.33325 6.66699H12.6666C13.7712 6.66699 14.6666 7.56242 14.6666 8.66699V13.3337C14.6666 14.4382 13.7712 15.3337 12.6666 15.3337H3.33325C2.22868 15.3337 1.33325 14.4382 1.33325 13.3337V8.66699Z" fill="#6C59BD"/>
<path fill-rule="evenodd" clip-rule="evenodd" d="M8 2.00033C7.29276 2.00033 6.61448 2.28128 6.11438 2.78137C5.61428 3.28147 5.33333 3.95975 5.33333 4.66699V7.33366C5.33333 7.70185 5.03486 8.00033 4.66667 8.00033C4.29848 8.00033 4 7.70185 4 7.33366V4.66699C4 3.60613 4.42143 2.58871 5.17157 1.83857C5.92172 1.08842 6.93913 0.666992 8 0.666992C9.06087 0.666992 10.0783 1.08842 10.8284 1.83857C11.5786 2.58871 12 3.60613 12 4.66699V7.33366C12 7.70185 11.7015 8.00033 11.3333 8.00033C10.9651 8.00033 10.6667 7.70185 10.6667 7.33366V4.66699C10.6667 3.95975 10.3857 3.28147 9.88562 2.78137C9.38552 2.28128 8.70724 2.00033 8 2.00033Z" fill="#6C59BD"/>
</svg>
