<?xml version="1.0" encoding="UTF-8"?><!DOCTYPE svg PUBLIC "-//W3C//DTD SVG 1.1//EN" "http://www.w3.org/Graphics/SVG/1.1/DTD/svg11.dtd"><svg xmlns="http://www.w3.org/2000/svg" xmlns:xlink="http://www.w3.org/1999/xlink"><defs/><symbol id="compass" viewBox="0 0 48 48"><path fill-rule="evenodd" clip-rule="evenodd" d="M42 24c0 9.941-8.059 18-18 18S6 33.941 6 24 14.059 6 24 6s18 8.059 18 18zm-12.834-9.841a.5.5 0 01.774.447l-.729 12.144a.5.5 0 01-.223.388L18.834 33.84a.5.5 0 01-.774-.447l.729-12.144a.5.5 0 01.223-.388l10.154-6.703z"/></symbol><symbol id="direction#1" viewBox="0 0 48 48"><path fill-rule="evenodd" clip-rule="evenodd" d="M22.569 6.862L5.765 40.471a1.6 1.6 0 001.96 2.226L24 37l16.276 5.697a1.6 1.6 0 001.96-2.226L25.43 6.862a1.6 1.6 0 00-2.862 0zM24 12.944v19.818l-12.01 4.204L24 12.944z"/></symbol><symbol id="direction#2" viewBox="0 0 48 48"><path fill-rule="evenodd" clip-rule="evenodd" d="M39.377 4.982L3.729 16.864a1.6 1.6 0 00-.188 2.96l15.537 7.48 7.48 15.537a1.6 1.6 0 002.96-.188L41.4 7.005a1.6 1.6 0 00-2.023-2.023zm-3.29 5.312L22.075 24.308l-11.465-5.52 25.479-8.494z"/></symbol><symbol id="location-arrow" viewBox="0 0 48 48"><path d="M3.73 16.864L39.376 4.982A1.6 1.6 0 0141.4 7.005L29.519 42.653a1.6 1.6 0 01-2.96.188l-7.48-15.537-15.537-7.48a1.6 1.6 0 01.188-2.96z"/></symbol><symbol id="marker#1" viewBox="0 0 48 48"><path fill-rule="evenodd" clip-rule="evenodd" d="M24.023 41.185C20.695 38.338 10 28.599 10 21c0-9 6-15 15-15s15 7.5 15 15c0 6.363-10.798 17.046-14.071 20.138a1.418 1.418 0 01-1.906.047zM30 19a5 5 0 11-10 0 5 5 0 0110 0z"/></symbol><symbol id="marker#2" viewBox="0 0 48 48"><path fill-rule="evenodd" clip-rule="evenodd" d="M28.343 33.313C33.95 31.485 38 26.216 38 20c0-7.732-6.268-14-14-14s-14 6.268-14 14c0 6.216 4.05 11.485 9.657 13.313L24 42l4.343-8.687zM24 24a4 4 0 100-8 4 4 0 000 8z"/></symbol><symbol id="position" viewBox="0 0 48 48"><path style="fill: var(--opacity, #fff)" opacity=".3" fill-rule="evenodd" clip-rule="evenodd" d="M22 6a2 2 0 114 0v4a2 2 0 11-4 0V6zM6 22a2 2 0 100 4h4a2 2 0 100-4H6zm32 0a2 2 0 100 4h4a2 2 0 100-4h-4zM24 36a2 2 0 00-2 2v4a2 2 0 104 0v-4a2 2 0 00-2-2zM24 28a4 4 0 100-8 4 4 0 000 8z"/><path fill-rule="evenodd" clip-rule="evenodd" d="M10 24c0 7.732 6.268 14 14 14s14-6.268 14-14-6.268-14-14-14-14 6.268-14 14zm24 0c0 5.523-4.477 10-10 10s-10-4.477-10-10 4.477-10 10-10 10 4.477 10 10z"/></symbol></svg>