<?xml version="1.0" encoding="UTF-8"?><!DOCTYPE svg PUBLIC "-//W3C//DTD SVG 1.1//EN" "http://www.w3.org/Graphics/SVG/1.1/DTD/svg11.dtd"><svg xmlns="http://www.w3.org/2000/svg" xmlns:xlink="http://www.w3.org/1999/xlink"><defs/><symbol id="amazon" viewBox="0 0 24 24"><path d="M13.23 10.56V10c-1.94 0-3.99.39-3.99 2.67 0 1.16.61 1.95 1.63 1.95.76 0 1.43-.47 1.86-1.22.52-.93.5-1.8.5-2.84m2.7 6.53c-.18.16-.43.17-.63.06-.89-.74-1.05-1.08-1.54-1.79-1.47 1.5-2.51 1.95-4.42 1.95-2.25 0-4.01-1.39-4.01-4.17 0-2.18 1.17-3.64 2.86-4.38 1.46-.64 3.49-.76 5.04-.93V7.5c0-.66.05-1.41-.33-1.96-.32-.49-.95-.7-1.5-.7-1.02 0-1.93.53-2.15 1.61-.05.24-.25.48-.47.49l-2.6-.28c-.22-.05-.46-.22-.4-.56.6-3.15 3.45-4.1 6-4.1 1.3 0 3 .35 4.03 1.33C17.11 4.55 17 6.18 17 7.95v4.17c0 1.25.5 1.81 1 2.48.17.25.21.54 0 .71l-2.06 1.78h-.01M20.16 19.54C18 21.14 14.82 22 12.1 22c-3.81 0-7.25-1.41-9.85-3.76-.2-.18-.02-.43.25-.29 2.78 1.63 6.25 2.61 9.83 2.61 2.41 0 5.07-.5 7.51-1.53.37-.16.66.24.32.51"/><path d="M21.07 18.5c-.28-.36-1.85-.17-2.57-.08-.19.02-.22-.16-.03-.3 1.24-.88 3.29-.62 3.53-.33.24.3-.07 2.35-1.24 3.32-.18.16-.35.07-.26-.11.26-.67.85-2.14.57-2.5z"/></symbol><symbol id="apple" viewBox="0 0 24 24"><path d="M13 3.5c.73-.83 1.94-1.46 2.94-1.5.13 1.17-.34 2.35-1.04 3.19-.69.85-1.83 1.51-2.95 1.42-.15-1.15.41-2.35 1.05-3.11zM18.71 19.5c-.83 1.24-1.71 2.45-3.05 2.47-1.34.03-1.77-.79-3.29-.79-1.53 0-2 .77-3.27.82-1.31.05-2.3-1.32-3.14-2.53C4.25 17 2.94 12.45 4.7 9.39c.87-1.52 2.43-2.48 4.12-2.51 1.28-.02 2.5.87 3.29.87.78 0 2.26-1.07 3.81-.91.65.03 2.47.26 3.64 1.98-.09.06-2.17 1.28-2.15 3.81.03 3.02 2.65 4.03 2.68 4.04-.03.07-.42 1.44-1.38 2.83"/></symbol><symbol id="facebook-box" viewBox="0 0 24 24"><path d="M19 4v3h-2a1 1 0 0 0-1 1v2h3v3h-3v7h-3v-7h-2v-3h2V7.5C13 5.56 14.57 4 16.5 4M20 2H4a2 2 0 0 0-2 2v16a2 2 0 0 0 2 2h16a2 2 0 0 0 2-2V4a2 2 0 0 0-2-2z"/></symbol><symbol id="facebook-messenger" viewBox="0 0 24 24"><path d="M12 2C6.5 2 2 6.14 2 11.25c0 2.88 1.42 5.45 3.65 7.15l.06 3.6 3.45-1.88-.03-.01c.91.25 1.87.39 2.87.39 5.5 0 10-4.14 10-9.25S17.5 2 12 2m1.03 12.41-2.49-2.63-5.04 2.63 5.38-5.63 2.58 2.47 4.85-2.47z"/></symbol><symbol id="facebook" viewBox="0 0 24 24"><path d="M17 2v4h-2c-.69 0-1 .81-1 1.5V10h3v4h-3v8h-4v-8H7v-4h3V6a4 4 0 0 1 4-4h3z"/></symbol><symbol id="github-box" viewBox="0 0 24 24"><path d="M4 2h16a2 2 0 0 1 2 2v16a2 2 0 0 1-2 2h-5.15c-.35-.08-.35-.76-.35-1v-2.74c0-.93-.33-1.54-.69-1.85 2.23-.25 4.57-1.09 4.57-4.91 0-1.11-.38-2-1.03-2.71.1-.25.45-1.29-.1-2.64 0 0-.84-.27-2.75 1.02-.79-.22-1.65-.33-2.5-.33-.85 0-1.71.11-2.5.33-1.91-1.29-2.75-1.02-2.75-1.02-.55 1.35-.2 2.39-.1 2.64-.65.71-1.03 1.6-1.03 2.71 0 3.81 2.33 4.67 4.55 4.92-.28.25-.54.69-.63 1.34-.57.24-2.04.69-2.91-.83 0 0-.53-.96-1.53-1.03 0 0-.98-.02-.1.6 0 0 .68.31 1.14 1.47 0 0 .59 1.94 3.36 1.34V21c0 .24 0 .92-.36 1H4a2 2 0 0 1-2-2V4a2 2 0 0 1 2-2z"/></symbol><symbol id="github-circle" viewBox="0 0 24 24"><path d="M12 2A10 10 0 0 0 2 12c0 4.42 2.87 8.17 6.84 9.5.5.08.66-.23.66-.5v-1.69c-2.77.6-3.36-1.34-3.36-1.34-.46-1.16-1.11-1.47-1.11-1.47-.91-.62.07-.6.07-.6 1 .07 1.53 1.03 1.53 1.03.87 1.52 2.34 1.07 2.91.83.09-.65.35-1.09.63-1.34-2.22-.25-4.55-1.11-4.55-4.92 0-1.11.38-2 1.03-2.71-.1-.25-.45-1.29.1-2.64 0 0 .84-.27 2.75 1.02.79-.22 1.65-.33 2.5-.33.85 0 1.71.11 2.5.33 1.91-1.29 2.75-1.02 2.75-1.02.55 1.35.2 2.39.1 2.64.65.71 1.03 1.6 1.03 2.71 0 3.82-2.34 4.66-4.57 4.91.36.31.69.92.69 1.85V21c0 .27.16.59.67.5C19.14 20.16 22 16.42 22 12A10 10 0 0 0 12 2z"/></symbol><symbol id="google-plus-box" viewBox="0 0 24 24"><path d="M20 2H4a2 2 0 0 0-2 2v16a2 2 0 0 0 2 2h16a2 2 0 0 0 2-2V4a2 2 0 0 0-2-2M9.07 19.2C6.27 19.2 5 17.64 5 16.18c0-.45.14-1.59 1.5-2.38.75-.47 1.83-.8 3.12-.91-.19-.25-.34-.55-.34-.99 0-.15.02-.31.06-.46h-.39C7 11.44 5.8 9.89 5.8 8.39c0-1.73 1.29-3.59 4.11-3.59h4.22l-.34.34-.71.71-.08.06h-.7c.41.42.9 1.09.9 2.16 0 1.4-.74 2.09-1.56 2.73-.14.12-.42.38-.42.7 0 .32.24.5.39.64.13.11.29.22.47.36.81.55 1.92 1.33 1.92 2.86 0 1.77-1.29 3.84-4.93 3.84M19 12h-2v2h-1v-2h-2v-1h2V9h1v2h2"/><path d="M10.57 13.81c-.11-.01-.19-.01-.32-.01h-.02c-.26 0-1.15.05-1.82.27-.64.24-1.41.72-1.41 1.7C7 16.85 8.04 18 9.96 18c1.54 0 2.44-1 2.44-2 0-.75-.46-1.21-1.83-2.19M11.2 8.87c0-1.02-.63-3.02-2.08-3.02-.62 0-1.32.44-1.32 1.65 0 1.2.62 2.95 1.97 2.95.06 0 1.43-.01 1.43-1.58z"/></symbol><symbol id="google-plus" viewBox="0 0 24 24"><path d="m13.3 13.45-1.08-.85c-.36-.3-.82-.69-.82-1.42s.55-1.29.97-1.62c1.31-1.02 2.57-2.1 2.57-4.34 0-2.07-1.27-3.26-2.04-3.92h1.75L15.9.05H9.67c-4.36 0-6.6 2.71-6.6 5.72 0 2.33 1.79 4.83 4.98 4.83h.8c-.13.35-.35.84-.35 1.3 0 1.01.42 1.43.92 2-1.42.1-4.01.43-5.92 1.6-1.86 1.1-2.3 2.63-2.3 3.75 0 2.3 2.06 4.5 6.57 4.5 5.35 0 8.03-2.96 8.03-5.88 0-2.16-1.13-3.27-2.5-4.42M5.65 4.31c0-2.21 1.31-3.21 2.69-3.21 2.66 0 4.01 3.45 4.01 5.53 0 2.57-2.07 3.07-2.89 3.07C7 9.7 5.65 6.64 5.65 4.31M9.3 22.3c-3.33 0-5.45-1.49-5.45-3.7 0-2.2 1.96-2.91 2.65-3.16 1.3-.44 3-.49 3.27-.49.3 0 .46 0 .73.02 2.34 1.69 3.35 2.44 3.35 4.03 0 1.77-1.82 3.3-4.55 3.3M21 10V7h-2v3h-3v2h3v3h2v-3h3v-2h-3z"/></symbol><symbol id="hangouts" viewBox="0 0 24 24"><path d="m15 11-1 2h-1.5l1-2H12V8h3m-4 3-1 2H8.5l1-2H8V8h3m.5-6A8.5 8.5 0 0 0 3 10.5a8.5 8.5 0 0 0 8.5 8.5h.5v3.5c4.86-2.35 8-7.5 8-12A8.5 8.5 0 0 0 11.5 2z"/></symbol><symbol id="linkedin-box" viewBox="0 0 24 24"><path d="M19 19h-3v-5.3a1.5 1.5 0 0 0-1.5-1.5 1.5 1.5 0 0 0-1.5 1.5V19h-3v-9h3v1.2c.5-.84 1.59-1.4 2.5-1.4a3.5 3.5 0 0 1 3.5 3.5M6.5 8.31c-1 0-1.81-.81-1.81-1.81A1.81 1.81 0 0 1 6.5 4.69c1 0 1.81.81 1.81 1.81A1.81 1.81 0 0 1 6.5 8.31M8 19H5v-9h3m12-8H4c-1.11 0-2 .89-2 2v16a2 2 0 0 0 2 2h16a2 2 0 0 0 2-2V4a2 2 0 0 0-2-2z"/></symbol><symbol id="linkedin" viewBox="0 0 24 24"><path d="M21 21h-4v-6.75c0-1.06-1.19-1.94-2.25-1.94S13 13.19 13 14.25V21H9V9h4v2c.66-1.07 2.36-1.76 3.5-1.76 2.5 0 4.5 2.04 4.5 4.51V21M7 21H3V9h4v12M5 3a2 2 0 0 1 2 2 2 2 0 0 1-2 2 2 2 0 0 1-2-2 2 2 0 0 1 2-2z"/></symbol><symbol id="login" viewBox="0 0 24 24"><path d="M10 17.25V14H3v-4h7V6.75L15.25 12 10 17.25"/><path d="M8 2h9a2 2 0 0 1 2 2v16a2 2 0 0 1-2 2H8a2 2 0 0 1-2-2v-4h2v4h9V4H8v4H6V4a2 2 0 0 1 2-2z"/></symbol><symbol id="logout" viewBox="0 0 24 24"><path d="M17 17.25V14h-7v-4h7V6.75L22.25 12 17 17.25"/><path d="M13 2a2 2 0 0 1 2 2v4h-2V4H4v16h9v-4h2v4a2 2 0 0 1-2 2H4a2 2 0 0 1-2-2V4a2 2 0 0 1 2-2h9z"/></symbol><symbol id="office" viewBox="0 0 24 24"><path d="m3 18 4-1.25V7l7-2v14.5L3.5 18.25 14 22l6-1.25V3.5L13.95 2 3 5.75V18z"/></symbol><symbol id="twitter" viewBox="0 0 24 24"><path d="M22.46 6c-.77.35-1.6.58-2.46.69.88-.53 1.56-1.37 1.88-2.38-.83.5-1.75.85-2.72 1.05C18.37 4.5 17.26 4 16 4c-2.35 0-4.27 1.92-4.27 4.29 0 .34.04.67.11.98C8.28 9.09 5.11 7.38 3 4.79c-.37.63-.58 1.37-.58 2.15 0 1.49.75 2.81 1.91 3.56-.71 0-1.37-.2-1.95-.5v.03c0 2.08 1.48 3.82 3.44 4.21a4.22 4.22 0 0 1-1.93.07 4.28 4.28 0 0 0 4 2.98 8.521 8.521 0 0 1-5.33 1.84c-.34 0-.68-.02-1.02-.06C3.44 20.29 5.7 21 8.12 21 16 21 20.33 14.46 20.33 8.79c0-.19 0-.37-.01-.56.84-.6 1.56-1.36 2.14-2.23z"/></symbol><symbol id="whatsapp" viewBox="0 0 24 24"><path d="M16.75 13.96c.25.13.41.2.46.3.06.11.04.61-.21 1.18-.2.56-1.24 1.1-1.7 1.12s-.47.36-2.96-.73-3.99-3.75-4.11-3.92-.96-1.38-.92-2.61c.05-1.22.69-1.8.95-2.04.24-.26.51-.29.68-.26h.47c.15 0 .36-.06.55.45l.69 1.87c.06.13.1.28.01.44l-.27.41-.39.42c-.12.12-.26.25-.12.5.12.26.62 1.09 1.32 1.78.91.88 1.71 1.17 1.95 1.3.24.14.39.12.54-.04l.81-.94c.19-.25.35-.19.58-.11z"/><path d="M12 4a8 8 0 0 0-8 8c0 1.72.54 3.31 1.46 4.61L4.5 19.5l2.89-.96A7.95 7.95 0 0 0 12 20a8 8 0 0 0 8-8 8 8 0 0 0-8-8zm0-2a10 10 0 0 1 10 10 10 10 0 0 1-10 10c-1.97 0-3.8-.57-5.35-1.55L2 22l1.55-4.65A9.969 9.969 0 0 1 2 12 10 10 0 0 1 12 2"/></symbol><symbol id="windows" viewBox="0 0 24 24"><path d="M3 12V6.75l6-1.32v6.48zM20 3v8.75l-10 .15V5.21zM3 13l6 .09v6.81l-6-1.15zM20 13.25V22l-10-1.91V13.1z"/></symbol></svg>