<?xml version="1.0" encoding="UTF-8"?><!DOCTYPE svg PUBLIC "-//W3C//DTD SVG 1.1//EN" "http://www.w3.org/Graphics/SVG/1.1/DTD/svg11.dtd"><svg xmlns="http://www.w3.org/2000/svg" xmlns:xlink="http://www.w3.org/1999/xlink"><defs/><symbol id="add-music" viewBox="0 0 48 48"><path fill-rule="evenodd" clip-rule="evenodd" d="M17.957 37.601c.028-.153.043-.319.043-.499V16s8.053-1.535 10-2c.902-.216 2-.964 2-2.137V8.346c0-1.581-1.472-2.71-2.921-2.238l-11.5 3.517c-.94.306-1.579 1.213-1.579 2.238v20.422A7.081 7.081 0 0 0 12 32c-3.314 0-6 2.239-6 5s2.686 5 6 5c3.07 0 5.6-1.92 5.957-4.399Z"/><path style="fill: var(--opacity, #fff)" opacity=".3" fill-rule="evenodd" clip-rule="evenodd" d="M32 35a1 1 0 0 0 1 1h2a1 1 0 0 0 1-1v-5h5a1 1 0 0 0 1-1v-2a1 1 0 0 0-1-1h-5v-5a1 1 0 0 0-1-1h-2a1 1 0 0 0-1 1v5h-5a1 1 0 0 0-1 1v2a1 1 0 0 0 1 1h5v5Z"/></symbol><symbol id="airplay-video" viewBox="0 0 48 48"><path d="M14 30a2 2 0 1 1 0 4h-2a6 6 0 0 1-6-6V14a6 6 0 0 1 6-6h24a6 6 0 0 1 6 6v14a6 6 0 0 1-6 6h-2a2 2 0 1 1 0-4h2a2 2 0 0 0 2-2V14a2 2 0 0 0-2-2H12a2 2 0 0 0-2 2v14a2 2 0 0 0 2 2h2Z"/><path style="fill: var(--opacity, #fff)" opacity=".3" fill-rule="evenodd" clip-rule="evenodd" d="M16 40h16l-8-10-8 10Z"/></symbol><symbol id="airplay" viewBox="0 0 48 48"><path style="fill: var(--opacity, #fff)" opacity=".3" fill-rule="evenodd" clip-rule="evenodd" d="M16 42h16l-8-10-8 10Z"/><path fill-rule="evenodd" clip-rule="evenodd" d="m43.357 21.809 3.224-2.368C41.339 12.304 33.027 8 24 8 14.849 8 6.435 12.424 1.212 19.727l3.253 2.327C8.945 15.79 16.153 12 24 12c7.74 0 14.86 3.687 19.357 9.809Zm-2.42 2.149-3.079 2.554A17.955 17.955 0 0 0 24 20a17.955 17.955 0 0 0-13.845 6.496L7.08 23.938A21.954 21.954 0 0 1 24 16c6.63 0 12.783 2.954 16.936 7.958Zm-6.131 5.14-3.086 2.545A9.974 9.974 0 0 0 24 28a9.973 9.973 0 0 0-7.702 3.621l-3.079-2.553A13.973 13.973 0 0 1 24 24c4.235 0 8.164 1.894 10.806 5.098Z"/></symbol><symbol id="back" viewBox="0 0 48 48"><path fill-rule="evenodd" clip-rule="evenodd" d="M36 36.9a.5.5 0 0 1-.829.377L20.431 24.42a.5.5 0 0 1-.002-.753L35.17 10.728a.5.5 0 0 1 .83.376V36.9Z"/><rect style="fill: var(--opacity, #fff)" opacity=".3" x="12" y="12" width="6" height="24" rx="1"/></symbol><symbol id="backward" viewBox="0 0 48 48"><path style="fill: var(--opacity, #fff)" opacity=".3" fill-rule="evenodd" clip-rule="evenodd" d="M36 36.9a.5.5 0 0 1-.829.377L20.431 24.42a.5.5 0 0 1-.002-.753L35.17 10.728a.5.5 0 0 1 .83.376V36.9Z"/><path fill-rule="evenodd" clip-rule="evenodd" d="M24 36.9a.5.5 0 0 1-.829.377L8.431 24.42a.5.5 0 0 1-.002-.753L23.17 10.728a.5.5 0 0 1 .83.376V36.9Z"/></symbol><symbol id="cd" viewBox="0 0 48 48"><path fill-rule="evenodd" clip-rule="evenodd" d="M42 24c0 9.941-8.059 18-18 18S6 33.941 6 24 14.059 6 24 6s18 8.059 18 18Zm-12 0a6 6 0 1 1-12 0 6 6 0 0 1 12 0Z"/><path style="fill: var(--opacity, #fff)" opacity=".3" fill-rule="evenodd" clip-rule="evenodd" d="M24 26a2 2 0 1 0 0-4 2 2 0 0 0 0 4Z"/></symbol><symbol id="dvd" viewBox="0 0 48 48"><path style="fill: var(--opacity, #fff)" opacity=".3" fill-rule="evenodd" clip-rule="evenodd" d="M24 42c9.941 0 18-8.059 18-18S33.941 6 24 6 6 14.059 6 24s8.059 18 18 18Z"/><path fill-rule="evenodd" clip-rule="evenodd" d="M20.66 32.093a.5.5 0 0 0 .828.376l9.244-8.063a.5.5 0 0 0 .001-.752l-9.244-8.115a.5.5 0 0 0-.83.376v16.178Z"/></symbol><symbol id="eject" viewBox="0 0 48 48"><path fill-rule="evenodd" clip-rule="evenodd" d="M38.131 27.481a.5.5 0 0 0 .38-.825l-13.093-15.27a.5.5 0 0 0-.758 0L11.486 26.655a.5.5 0 0 0 .378.826h26.267Z"/><rect style="fill: var(--opacity, #fff)" opacity=".3" width="6" height="26" rx=".5" transform="matrix(0 1 1 0 12 32)"/></symbol><symbol id="equalizer" viewBox="0 0 48 48"><rect style="fill: var(--opacity, #fff)" opacity=".3" x="26" y="8" width="6" height="32" rx="2"/><rect x="16" y="18" width="6" height="22" rx="2"/><rect x="36" y="22" width="6" height="18" rx="2"/><rect x="6" y="26" width="6" height="14" rx="2"/></symbol><symbol id="forward" viewBox="0 0 48 48"><path style="fill: var(--opacity, #fff)" opacity=".3" fill-rule="evenodd" clip-rule="evenodd" d="M12 36.9a.5.5 0 0 0 .829.377l14.74-12.857a.5.5 0 0 0 .002-.753L12.83 10.728a.5.5 0 0 0-.83.376V36.9Z"/><path fill-rule="evenodd" clip-rule="evenodd" d="M24 36.9a.5.5 0 0 0 .829.377l14.74-12.857a.5.5 0 0 0 .002-.753L24.83 10.728a.5.5 0 0 0-.83.376V36.9Z"/></symbol><symbol id="media-library#1" viewBox="0 0 48 48"><rect style="fill: var(--opacity, #fff)" opacity=".3" x="4" y="18" width="40" height="26" rx="2"/><rect opacity=".3" x="10" y="10" width="28" height="4" rx=".5"/><rect opacity=".3" x="14" y="2" width="20" height="4" rx=".5"/><path fill-rule="evenodd" clip-rule="evenodd" d="M21.667 40C19.642 40 18 38.632 18 36.944c0-1.687 1.642-3.055 3.667-3.055.428 0 .84.061 1.222.174v-8.48c0-.627.39-1.18.965-1.367l7.027-2.15c.886-.288 1.786.401 1.786 1.368v2.15c0 .716-.671 1.173-1.223 1.305-.793.19-2.83.597-6.11 1.222v8.896c0 .11-.01.211-.027.305C25.09 38.826 23.542 40 21.667 40Z"/></symbol><symbol id="media-library#2" viewBox="0 0 48 48"><path style="fill: var(--opacity, #fff)" opacity=".3" fill-rule="evenodd" clip-rule="evenodd" d="M4 42.5A1.5 1.5 0 0 0 5.5 44h37a1.5 1.5 0 0 0 1.5-1.5v-25a1.5 1.5 0 0 0-1.5-1.5H20l-5.56-5.56a1.5 1.5 0 0 0-1.061-.44H5.5A1.5 1.5 0 0 0 4 11.5v31Z"/><path fill-rule="evenodd" clip-rule="evenodd" d="M21.667 40C19.642 40 18 38.632 18 36.944c0-1.687 1.642-3.055 3.667-3.055.428 0 .84.061 1.222.174v-8.48c0-.627.39-1.18.965-1.367l7.027-2.15c.886-.288 1.786.401 1.786 1.368v2.15c0 .716-.671 1.173-1.223 1.305-.793.19-2.83.597-6.11 1.222v8.896c0 .11-.01.211-.027.305C25.09 38.826 23.542 40 21.667 40Z"/></symbol><symbol id="media-library#3" viewBox="0 0 48 48"><path style="fill: var(--opacity, #fff)" opacity=".3" fill-rule="evenodd" clip-rule="evenodd" d="M36.6 6H14.9C12.194 6 10 8.35 10 11.25v25.5c0 2.9 2.194 5.25 4.9 5.25h21.7c.773 0 1.4-.672 1.4-1.5V14H17.5a1.5 1.5 0 0 1-1.5-1.5v-1a1.5 1.5 0 0 1 1.5-1.5H38V7.5c0-.828-.627-1.5-1.4-1.5Z"/><mask id="a" mask-type="alpha" maskUnits="userSpaceOnUse" x="10" y="6" width="28" height="36"><path fill-rule="evenodd" clip-rule="evenodd" d="M36.6 6H14.9C12.194 6 10 8.35 10 11.25v25.5c0 2.9 2.194 5.25 4.9 5.25h21.7c.773 0 1.4-.672 1.4-1.5V14H17.5a1.5 1.5 0 0 1-1.5-1.5v-1a1.5 1.5 0 0 1 1.5-1.5H38V7.5c0-.828-.627-1.5-1.4-1.5Z"/></mask><g mask="url(#a)"><path fill-rule="evenodd" clip-rule="evenodd" d="M21.667 38C19.642 38 18 36.632 18 34.944c0-1.687 1.642-3.055 3.667-3.055.428 0 .84.061 1.222.174v-8.48c0-.627.39-1.18.965-1.367l7.027-2.15c.886-.288 1.786.401 1.786 1.368v2.15c0 .716-.671 1.173-1.223 1.305-.793.19-2.83.597-6.11 1.222v8.896c0 .11-.01.211-.027.305C25.09 36.826 23.542 38 21.667 38Z"/></g></symbol><symbol id="movie-lane#1" viewBox="0 0 48 48"><path style="fill: var(--opacity, #fff)" opacity=".3" fill-rule="evenodd" clip-rule="evenodd" d="M42 24c0 9.941-8.059 18-18 18S6 33.941 6 24 14.059 6 24 6s18 8.059 18 18Zm-16.45.586a2 2 0 1 1-4 0 2 2 0 0 1 4 0Zm-3.103-6.381a4 4 0 1 0-2.07-7.728 4 4 0 0 0 2.07 7.727Zm8.005 14.419a4 4 0 1 1-7.728 2.07 4 4 0 0 1 7.728-2.07Zm-15.076-2.172a4 4 0 1 0-2.07-7.727 4 4 0 0 0 2.07 7.727Zm22.147-10.076a4 4 0 1 1-7.727 2.071 4 4 0 0 1 7.727-2.07Z"/><path fill-rule="evenodd" clip-rule="evenodd" d="M35.315 38A17.925 17.925 0 0 1 24 42c-.438 0-.872-.016-1.302-.046.095.03.197.046.302.046h20a1 1 0 0 0 1-1v-2a1 1 0 0 0-1-1h-7.685Z"/></symbol><symbol id="movie-lane#2" viewBox="0 0 48 48"><path style="fill: var(--opacity, #fff)" opacity=".3" fill-rule="evenodd" clip-rule="evenodd" d="M8 8a2 2 0 0 1 2-2h28a2 2 0 0 1 2 2v32a2 2 0 0 1-2 2H10a2 2 0 0 1-2-2V8Zm2 2.5a.5.5 0 0 1 .5-.5h3a.5.5 0 0 1 .5.5v3a.5.5 0 0 1-.5.5h-3a.5.5 0 0 1-.5-.5v-3Zm24.5-.5a.5.5 0 0 0-.5.5v3a.5.5 0 0 0 .5.5h3a.5.5 0 0 0 .5-.5v-3a.5.5 0 0 0-.5-.5h-3ZM10 18.5a.5.5 0 0 1 .5-.5h3a.5.5 0 0 1 .5.5v3a.5.5 0 0 1-.5.5h-3a.5.5 0 0 1-.5-.5v-3Zm24.5-.5a.5.5 0 0 0-.5.5v3a.5.5 0 0 0 .5.5h3a.5.5 0 0 0 .5-.5v-3a.5.5 0 0 0-.5-.5h-3ZM10 26.5a.5.5 0 0 1 .5-.5h3a.5.5 0 0 1 .5.5v3a.5.5 0 0 1-.5.5h-3a.5.5 0 0 1-.5-.5v-3Zm24.5-.5a.5.5 0 0 0-.5.5v3a.5.5 0 0 0 .5.5h3a.5.5 0 0 0 .5-.5v-3a.5.5 0 0 0-.5-.5h-3Zm-.5 8.5a.5.5 0 0 1 .5-.5h3a.5.5 0 0 1 .5.5v3a.5.5 0 0 1-.5.5h-3a.5.5 0 0 1-.5-.5v-3ZM10.5 34a.5.5 0 0 0-.5.5v3a.5.5 0 0 0 .5.5h3a.5.5 0 0 0 .5-.5v-3a.5.5 0 0 0-.5-.5h-3Z"/><path fill-rule="evenodd" clip-rule="evenodd" d="M21.14 29.266a.5.5 0 0 0 .782.413l6.594-4.507a.5.5 0 0 0 0-.825l-6.593-4.535a.5.5 0 0 0-.783.412v9.042Z"/></symbol><symbol id="music-cloud" viewBox="0 0 48 48"><path style="fill: var(--opacity, #fff)" opacity=".3" fill-rule="evenodd" clip-rule="evenodd" d="M29.86 18c-2.767-4.782-7.938-8-13.86-8-8.837 0-16 7.163-16 16 0 5.674 2.954 10.659 7.408 13.5a6.55 6.55 0 0 0 5.154 2.5H41.438A6.562 6.562 0 0 0 48 35.437V24.563A6.562 6.562 0 0 0 41.437 18H29.86Z"/><path fill-rule="evenodd" clip-rule="evenodd" d="M21.167 37C19.417 37 18 35.784 18 34.284c0-1.5 1.418-2.716 3.167-2.716.37 0 .725.054 1.055.154v-7.537c0-.557.338-1.05.833-1.216l6.07-1.91c.765-.256 1.542.356 1.542 1.216v1.91c0 .637-.58 1.044-1.056 1.16-.685.17-2.444.531-5.278 1.087v7.908c0 .097-.007.187-.022.27-.189 1.347-1.524 2.39-3.144 2.39Z"/></symbol><symbol id="music-note" viewBox="0 0 48 48"><path fill-rule="evenodd" clip-rule="evenodd" d="M23.957 37.601c.028-.153.043-.319.043-.499V16s8.053-1.535 10-2c.902-.216 2-.964 2-2.137V8.346c0-1.581-1.472-2.71-2.921-2.238l-11.5 3.517c-.94.306-1.579 1.213-1.579 2.238v20.422A7.081 7.081 0 0 0 18 32c-3.314 0-6 2.239-6 5s2.686 5 6 5c3.07 0 5.6-1.92 5.957-4.399Z"/></symbol><symbol id="music" viewBox="0 0 48 48"><path fill-rule="evenodd" clip-rule="evenodd" d="M20 38V19.75L34 16v14.08a6.247 6.247 0 0 0-1-.08c-2.761 0-5 1.79-5 4 0 1.007.465 1.927 1.233 2.63.916.84 2.264 1.37 3.767 1.37 2.761 0 5-1.79 5-4V11a2 2 0 0 0-2.596-1.909l-18 5A2 2 0 0 0 16 16.001V34.08a6.247 6.247 0 0 0-1-.08c-2.761 0-5 1.79-5 4s2.239 4 5 4c2.093 0 3.886-1.029 4.631-2.49.238-.465.369-.975.369-1.51Z"/></symbol><symbol id="mute" viewBox="0 0 50 48"><path style="fill: var(--opacity, #fff)" opacity=".3" fill-rule="evenodd" clip-rule="evenodd" d="M41.535 30.364a1 1 0 0 0 1.415 0l1.414-1.414a1 1 0 0 0 0-1.415L40.828 24l3.536-3.535a1 1 0 0 0 0-1.415l-1.414-1.414a1 1 0 0 0-1.415 0L38 21.172l-3.535-3.536a1 1 0 0 0-1.415 0l-1.414 1.414a1 1 0 0 0 0 1.414L35.172 24l-3.536 3.535a1 1 0 0 0 0 1.415l1.414 1.414a1 1 0 0 0 1.415 0L38 26.828l3.535 3.536Z"/><path fill-rule="evenodd" clip-rule="evenodd" d="M24 8.414c0-.89-1.077-1.337-1.707-.707L14 16H6a2 2 0 0 0-2 2v12a2 2 0 0 0 2 2h8l8.293 8.293c.63.63 1.707.184 1.707-.707V8.414Z"/></symbol><symbol id="next" viewBox="0 0 48 48"><path fill-rule="evenodd" clip-rule="evenodd" d="M12 36.9a.5.5 0 0 0 .829.377l14.74-12.857a.5.5 0 0 0 .002-.753L12.83 10.728a.5.5 0 0 0-.83.376V36.9Z"/><rect style="fill: var(--opacity, #fff)" opacity=".3" width="6" height="24" rx="1" transform="matrix(-1 0 0 1 36 12)"/></symbol><symbol id="pause" viewBox="0 0 48 48"><path fill-rule="evenodd" clip-rule="evenodd" d="M15 12a1 1 0 0 0-1 1v22a1 1 0 0 0 1 1h6a1 1 0 0 0 1-1V13a1 1 0 0 0-1-1h-6Zm12 0a1 1 0 0 0-1 1v22a1 1 0 0 0 1 1h6a1 1 0 0 0 1-1V13a1 1 0 0 0-1-1h-6Z"/></symbol><symbol id="play" viewBox="0 0 48 48"><path fill-rule="evenodd" clip-rule="evenodd" d="M18 36.9a.5.5 0 0 0 .829.377l14.74-12.857a.5.5 0 0 0 .002-.753L18.83 10.728a.5.5 0 0 0-.83.376V36.9Z"/></symbol><symbol id="playlist" viewBox="0 0 48 48"><path fill-rule="evenodd" clip-rule="evenodd" d="M17.957 37.601c.028-.153.043-.319.043-.499V16s8.053-1.535 10-2c.902-.216 2-.964 2-2.137V8.346c0-1.581-1.472-2.71-2.921-2.238l-11.5 3.517c-.94.306-1.579 1.213-1.579 2.238v20.422A7.081 7.081 0 0 0 12 32c-3.314 0-6 2.239-6 5s2.686 5 6 5c3.07 0 5.6-1.92 5.957-4.399Z"/><path style="fill: var(--opacity, #fff)" opacity=".3" fill-rule="evenodd" clip-rule="evenodd" d="M30 19a1 1 0 0 1 1-1h10a1 1 0 0 1 1 1v2a1 1 0 0 1-1 1H31a1 1 0 0 1-1-1v-2Zm-4 8a1 1 0 0 1 1-1h14a1 1 0 0 1 1 1v2a1 1 0 0 1-1 1H27a1 1 0 0 1-1-1v-2Zm1 7a1 1 0 0 0-1 1v2a1 1 0 0 0 1 1h14a1 1 0 0 0 1-1v-2a1 1 0 0 0-1-1H27Z"/></symbol><symbol id="playlist#2" viewBox="0 0 48 48"><path style="fill: var(--opacity, #fff)" opacity=".3" fill-rule="evenodd" clip-rule="evenodd" d="M20 11.5a1.5 1.5 0 0 1 1.5-1.5h17a1.5 1.5 0 0 1 1.5 1.5v3a1.5 1.5 0 0 1-1.5 1.5h-17a1.5 1.5 0 0 1-1.5-1.5v-3Zm-12 24A1.5 1.5 0 0 1 9.5 34h29a1.5 1.5 0 0 1 1.5 1.5v3a1.5 1.5 0 0 1-1.5 1.5h-29A1.5 1.5 0 0 1 8 38.5v-3ZM9.5 22A1.5 1.5 0 0 0 8 23.5v3A1.5 1.5 0 0 0 9.5 28h29a1.5 1.5 0 0 0 1.5-1.5v-3a1.5 1.5 0 0 0-1.5-1.5h-29Z"/><path fill-rule="evenodd" clip-rule="evenodd" d="M8 19.161a.5.5 0 0 0 .829.377l7.008-6.113a.5.5 0 0 0 .002-.753L8.829 6.52A.5.5 0 0 0 8 6.896V19.16Z"/></symbol><symbol id="rec" viewBox="0 0 48 48"><path fill-rule="evenodd" clip-rule="evenodd" d="M8 24c0 8.837 7.163 16 16 16s16-7.163 16-16S32.837 8 24 8 8 15.163 8 24Zm24 0a8 8 0 1 1-16 0 8 8 0 0 1 16 0Z"/></symbol><symbol id="repeat-one" viewBox="0 0 48 48"><path style="fill: var(--opacity, #fff)" opacity=".3" fill-rule="evenodd" clip-rule="evenodd" d="M39.303 27.271a13 13 0 0 0 4.69-2.884C43.79 30.835 38.499 36 32 36h-7.883v2.959a.5.5 0 0 1-.798.401l-7.052-5.233a.5.5 0 0 1 0-.802l7.05-5.267a.5.5 0 0 1 .8.4V32H32a8.001 8.001 0 0 0 7.303-4.729Z"/><path fill-rule="evenodd" clip-rule="evenodd" d="M34 24c5.523 0 10-4.477 10-10S39.523 4 34 4c-4.838 0-8.873 3.436-9.8 8H16C9.373 12 4 17.373 4 24v2c0 5.523 4.477 10 10 10v-4a6 6 0 0 1-6-6v-2a8 8 0 0 1 8-8h8.2c.927 4.564 4.962 8 9.8 8Zm-2.78-10.824 2.24-1.84V19h1.92V9h-1.744L30.1 11.848l1.12 1.328Z"/></symbol><symbol id="repeat" viewBox="0 0 48 48"><path fill-rule="evenodd" clip-rule="evenodd" d="M24.798 19.36A.5.5 0 0 1 24 18.96V16h-8a8 8 0 0 0-8 8v2a6 6 0 0 0 6 6v4C8.477 36 4 31.523 4 26v-2c0-6.627 5.373-12 12-12h8V8.458a.5.5 0 0 1 .8-.4l7.05 5.267a.5.5 0 0 1 0 .802l-7.052 5.233Z"/><path style="fill: var(--opacity, #fff)" opacity=".3" fill-rule="evenodd" clip-rule="evenodd" d="M34 12v4a6 6 0 0 1 6 6v2a8 8 0 0 1-8 8h-7.883v-3.541a.5.5 0 0 0-.8-.401l-7.05 5.267a.5.5 0 0 0 0 .802l7.052 5.233a.5.5 0 0 0 .798-.401V36H32c6.627 0 12-5.373 12-12v-2c0-5.523-4.477-10-10-10Z"/></symbol><symbol id="shuffle" viewBox="0 0 48 48"><path style="fill: var(--opacity, #fff)" opacity=".3" fill-rule="evenodd" clip-rule="evenodd" d="M4 12v4h5.11a8 8 0 0 1 6.314 3.088l7.995 10.28A12 12 0 0 0 32.89 34H36v4.327a.5.5 0 0 0 .829.377l7.129-6.219a.5.5 0 0 0 .001-.752l-7.13-6.258a.5.5 0 0 0-.829.376V30h-3.11a8 8 0 0 1-6.314-3.088l-7.995-10.28A12 12 0 0 0 9.11 12H4Z"/><path fill-rule="evenodd" clip-rule="evenodd" d="M36.829 20.704a.5.5 0 0 1-.829-.377V16h-3.11a8 8 0 0 0-6.314 3.088l-7.995 10.28A12 12 0 0 1 9.11 34H4v-4h5.11a8 8 0 0 0 6.314-3.088l7.995-10.28A12 12 0 0 1 32.89 12H36V7.85a.5.5 0 0 1 .83-.375l7.13 6.258a.5.5 0 0 1-.002.752l-7.13 6.219Z"/></symbol><symbol id="volume-down" viewBox="0 0 48 48"><rect style="fill: var(--opacity, #fff)" opacity=".3" x="32" y="22" width="14" height="4" rx="1"/><path fill-rule="evenodd" clip-rule="evenodd" d="M24 8.414c0-.89-1.077-1.337-1.707-.707L14 16H6a2 2 0 0 0-2 2v12a2 2 0 0 0 2 2h8l8.293 8.293c.63.63 1.707.184 1.707-.707V8.414Z"/></symbol><symbol id="volume-full" viewBox="0 0 48 48"><path style="fill: var(--opacity, #fff)" opacity=".3" fill-rule="evenodd" clip-rule="evenodd" d="M31.576 39.077a1.5 1.5 0 0 0 2.002.701A17.499 17.499 0 0 0 43.5 24c0-6.73-3.833-12.772-9.76-15.699a1.5 1.5 0 1 0-1.328 2.69A14.499 14.499 0 0 1 40.5 24a14.5 14.5 0 0 1-8.223 13.075 1.5 1.5 0 0 0-.701 2.002Zm-.986-7.358a1.5 1.5 0 0 0 2.041.577A9.496 9.496 0 0 0 37.5 24a9.496 9.496 0 0 0-4.806-8.261 1.5 1.5 0 0 0-1.484 2.607A6.496 6.496 0 0 1 34.5 24a6.497 6.497 0 0 1-3.333 5.678 1.5 1.5 0 0 0-.577 2.041Z"/><path fill-rule="evenodd" clip-rule="evenodd" d="M24 8.414c0-.89-1.077-1.337-1.707-.707L14 16H6a2 2 0 0 0-2 2v12a2 2 0 0 0 2 2h8l8.293 8.293c.63.63 1.707.184 1.707-.707V8.414Z"/></symbol><symbol id="volume-half" viewBox="0 0 48 48"><path style="fill: var(--opacity, #fff)" opacity=".3" d="M32.631 32.296a1.5 1.5 0 1 1-1.464-2.618A6.497 6.497 0 0 0 34.5 24a6.496 6.496 0 0 0-3.29-5.654 1.5 1.5 0 1 1 1.484-2.607A9.496 9.496 0 0 1 37.5 24c0 3.48-1.888 6.63-4.869 8.296Z"/><path fill-rule="evenodd" clip-rule="evenodd" d="M24 8.414c0-.89-1.077-1.337-1.707-.707L14 16H6a2 2 0 0 0-2 2v12a2 2 0 0 0 2 2h8l8.293 8.293c.63.63 1.707.184 1.707-.707V8.414Z"/></symbol><symbol id="volume-up" viewBox="0 0 48 48"><path style="fill: var(--opacity, #fff)" opacity=".3" fill-rule="evenodd" clip-rule="evenodd" d="M36 31a1 1 0 0 0 1 1h2a1 1 0 0 0 1-1v-5h5a1 1 0 0 0 1-1v-2a1 1 0 0 0-1-1h-5v-5a1 1 0 0 0-1-1h-2a1 1 0 0 0-1 1v5h-5a1 1 0 0 0-1 1v2a1 1 0 0 0 1 1h5v5Z"/><path fill-rule="evenodd" clip-rule="evenodd" d="M24 8.414c0-.89-1.077-1.337-1.707-.707L14 16H6a2 2 0 0 0-2 2v12a2 2 0 0 0 2 2h8l8.293 8.293c.63.63 1.707.184 1.707-.707V8.414Z"/></symbol><symbol id="vynil" viewBox="0 0 48 48"><path fill-rule="evenodd" clip-rule="evenodd" d="M42 24c0 9.941-8.059 18-18 18S6 33.941 6 24 14.059 6 24 6s18 8.059 18 18Zm-10 0a8 8 0 1 1-16 0 8 8 0 0 1 16 0Z"/><path style="fill: var(--opacity, #fff)" opacity=".3" fill-rule="evenodd" clip-rule="evenodd" d="M24 26a2 2 0 1 0 0-4 2 2 0 0 0 0 4Z"/></symbol><symbol id="youtube" viewBox="0 0 48 48"><path fill-rule="evenodd" clip-rule="evenodd" d="M20.8 29.733a.5.5 0 0 0 .782.412l10.191-6.966a.5.5 0 0 0 .001-.825l-10.19-7.01a.5.5 0 0 0-.784.412v13.977Z"/></symbol></svg>