<?xml version="1.0" encoding="UTF-8"?><!DOCTYPE svg PUBLIC "-//W3C//DTD SVG 1.1//EN" "http://www.w3.org/Graphics/SVG/1.1/DTD/svg11.dtd"><svg xmlns="http://www.w3.org/2000/svg" xmlns:xlink="http://www.w3.org/1999/xlink"><defs/><symbol id="angle-double-down" viewBox="0 0 48 48"><path d="M34.586 9.586a2 2 0 1 1 2.828 2.828l-12 12a2 2 0 0 1-2.766.06l-12-11a2 2 0 0 1 2.703-2.948l10.589 9.706L34.586 9.586Z"/><path style="fill: var(--opacity, #fff)" opacity=".3" d="M34.586 23.586a2 2 0 1 1 2.828 2.828l-12 12a2 2 0 0 1-2.766.06l-12-11a2 2 0 0 1 2.703-2.948l10.589 9.706 10.646-10.646Z"/></symbol><symbol id="angle-double-left" viewBox="0 0 48 48"><path d="M25.414 13.414a2 2 0 1 0-2.828-2.828l-12 12a2 2 0 0 0-.06 2.765l11 12a2 2 0 1 0 2.948-2.702L14.768 24.06l10.646-10.646Z"/><path style="fill: var(--opacity, #fff)" opacity=".3" d="M39.414 13.414a2 2 0 1 0-2.828-2.828l-12 12a2 2 0 0 0-.06 2.765l11 12a2 2 0 1 0 2.948-2.702L28.768 24.06l10.646-10.646Z"/></symbol><symbol id="angle-double-right" viewBox="0 0 48 48"><path d="M24.586 13.414a2 2 0 1 1 2.828-2.828l12 12a2 2 0 0 1 .06 2.765l-11 12a2 2 0 1 1-2.948-2.702l9.706-10.589-10.646-10.646Z"/><path style="fill: var(--opacity, #fff)" opacity=".3" d="M10.586 13.414a2 2 0 1 1 2.828-2.828l12 12a2 2 0 0 1 .06 2.765l-11 12a2 2 0 1 1-2.948-2.702l9.706-10.589-10.646-10.646Z"/></symbol><symbol id="angle-double-up" viewBox="0 0 48 48"><path d="M34.586 38.414a2 2 0 1 0 2.828-2.828l-12-12a2 2 0 0 0-2.766-.06l-12 11a2 2 0 0 0 2.703 2.948l10.589-9.706 10.646 10.646Z"/><path style="fill: var(--opacity, #fff)" opacity=".3" d="M34.586 24.414a2 2 0 1 0 2.828-2.828l-12-12a2 2 0 0 0-2.766-.06l-12 11a2 2 0 0 0 2.703 2.948l10.589-9.706 10.646 10.646Z"/></symbol><symbol id="angle-down" viewBox="0 0 48 48"><path d="M34.586 16.586a2 2 0 1 1 2.828 2.828l-12 12a2 2 0 0 1-2.766.06l-12-11a2 2 0 0 1 2.703-2.948l10.589 9.706 10.646-10.646Z"/></symbol><symbol id="angle-left" viewBox="0 0 48 48"><path d="M31.414 13.414a2 2 0 1 0-2.828-2.828l-12 12a2 2 0 0 0-.06 2.765l11 12a2 2 0 1 0 2.948-2.702L20.768 24.06l10.646-10.646Z"/></symbol><symbol id="angle-right" viewBox="0 0 48 48"><path d="M16.586 13.414a2 2 0 1 1 2.828-2.828l12 12a2 2 0 0 1 .06 2.765l-11 12a2 2 0 1 1-2.948-2.702l9.706-10.589-10.646-10.646Z"/></symbol><symbol id="angle-up" viewBox="0 0 48 48"><path d="M13.414 31.414a2 2 0 1 1-2.828-2.828l12-12a2 2 0 0 1 2.765-.06l12 11a2 2 0 1 1-2.702 2.948L24.06 20.768 13.414 31.414Z"/></symbol><symbol id="apps" viewBox="0 0 24 24"><path d="M4 8h4V4H4zM10 20h4v-4h-4zM4 20h4v-4H4zM4 14h4v-4H4zM10 14h4v-4h-4zM16 4v4h4V4zM10 8h4V4h-4zM16 14h4v-4h-4zM16 20h4v-4h-4z"/></symbol><symbol id="arrow_back" viewBox="0 0 24 24"><path d="M20 11H7.83l5.59-5.59L12 4l-8 8 8 8 1.41-1.41L7.83 13H20v-2z"/></symbol><symbol id="arrow_downward" viewBox="0 0 24 24"><path d="m20 12-1.41-1.41L13 16.17V4h-2v12.17l-5.58-5.59L4 12l8 8 8-8z"/></symbol><symbol id="arrow_drop_down_circle" viewBox="0 0 24 24"><path d="M12 2C6.48 2 2 6.48 2 12s4.48 10 10 10 10-4.48 10-10S17.52 2 12 2zm0 12-4-4h8z"/></symbol><symbol id="arrow_drop_down" viewBox="0 0 24 24"><path d="m7 10 5 5 5-5z"/></symbol><symbol id="arrow_drop_up" viewBox="0 0 24 24"><path d="m7 14 5-5 5 5z"/></symbol><symbol id="arrow_forward" viewBox="0 0 24 24"><path d="m12 4-1.41 1.41L16.17 11H4v2h12.17l-5.58 5.59L12 20l8-8z"/></symbol><symbol id="arrow_upwards" viewBox="0 0 24 24"><path d="m4 12 1.41 1.41L11 7.83V20h2V7.83l5.58 5.59L20 12l-8-8-8 8z"/></symbol><symbol id="arrow-down" viewBox="0 0 48 48"><rect style="fill: var(--opacity, #fff)" opacity=".3" x="22" y="10" width="4" height="28" rx="1"/><path d="M13.414 22.586a2 2 0 1 0-2.828 2.828l12 12a2 2 0 0 0 2.765.06l12-11a2 2 0 1 0-2.702-2.948L24.06 33.232 13.414 22.586Z"/></symbol><symbol id="arrow-from-bottom" viewBox="0 0 48 48"><rect style="fill: var(--opacity, #fff)" opacity=".3" x="22" y="6" width="4" height="28" rx="1"/><path d="M13.414 21.414a2 2 0 1 1-2.828-2.828l12-12a2 2 0 0 1 2.765-.06l12 11a2 2 0 1 1-2.702 2.948L24.06 10.768 13.414 21.414Z"/><rect opacity=".3" x="6" y="38" width="36" height="4" rx="1.5"/></symbol><symbol id="arrow-from-left" viewBox="0 0 48 48"><rect style="fill: var(--opacity, #fff)" opacity=".3" x="14" y="26" width="4" height="28" rx="1" transform="rotate(-90 14 26)"/><rect opacity=".3" x="6" y="6" width="4" height="36" rx="1.5"/><path d="M26.586 34.586a2 2 0 1 0 2.828 2.828l12-12a2 2 0 0 0 .06-2.765l-11-12a2 2 0 1 0-2.948 2.702l9.706 10.589-10.646 10.646Z"/></symbol><symbol id="arrow-from-right" viewBox="0 0 48 48"><rect style="fill: var(--opacity, #fff)" opacity=".3" width="4" height="28" rx="1" transform="matrix(0 -1 -1 0 34 26)"/><rect opacity=".3" x="38" y="6" width="4" height="36" rx="1.5"/><path d="M21.414 34.586a2 2 0 1 1-2.828 2.828l-12-12a2 2 0 0 1-.06-2.765l11-12a2 2 0 1 1 2.948 2.702L10.768 23.94l10.646 10.646Z"/></symbol><symbol id="arrow-from-top" viewBox="0 0 48 48"><rect style="fill: var(--opacity, #fff)" opacity=".3" x="22" y="14" width="4" height="28" rx="1"/><path d="M13.414 26.586a2 2 0 1 0-2.828 2.828l12 12a2 2 0 0 0 2.765.06l12-11a2 2 0 1 0-2.702-2.948L24.06 37.232 13.414 26.586Z"/><rect opacity=".3" x="6" y="6" width="36" height="4" rx="1.5"/></symbol><symbol id="arrow-left" viewBox="0 0 48 48"><rect style="fill: var(--opacity, #fff)" opacity=".3" width="4" height="28" rx="1" transform="matrix(0 -1 -1 0 38 26)"/><path d="M25.414 34.586a2 2 0 1 1-2.828 2.828l-12-12a2 2 0 0 1-.06-2.765l11-12a2 2 0 1 1 2.948 2.702L14.768 23.94l10.646 10.646Z"/></symbol><symbol id="arrow-right" viewBox="0 0 48 48"><rect style="fill: var(--opacity, #fff)" opacity=".3" x="10" y="26" width="4" height="28" rx="1" transform="rotate(-90 10 26)"/><path d="M22.586 34.586a2 2 0 1 0 2.828 2.828l12-12a2 2 0 0 0 .06-2.765l-11-12a2 2 0 1 0-2.948 2.702l9.706 10.589-10.646 10.646Z"/></symbol><symbol id="arrow-to-bottom" viewBox="0 0 48 48"><rect style="fill: var(--opacity, #fff)" opacity=".3" x="22" y="6" width="4" height="28" rx="1"/><path d="M13.414 18.586a2 2 0 1 0-2.828 2.828l12 12a2 2 0 0 0 2.765.06l12-11a2 2 0 1 0-2.702-2.948L24.06 29.232 13.414 18.586Z"/><rect opacity=".3" x="6" y="38" width="36" height="4" rx="1.5"/></symbol><symbol id="arrow-to-left" viewBox="0 0 48 48"><rect style="fill: var(--opacity, #fff)" opacity=".3" width="4" height="28" rx="1" transform="matrix(0 -1 -1 0 42 26)"/><rect opacity=".3" x="6" y="6" width="4" height="36" rx="1.5"/><path d="M29.414 34.586a2 2 0 1 1-2.828 2.828l-12-12a2 2 0 0 1-.06-2.765l11-12a2 2 0 1 1 2.948 2.702L18.768 23.94l10.646 10.646Z"/></symbol><symbol id="arrow-to-right" viewBox="0 0 48 48"><rect style="fill: var(--opacity, #fff)" opacity=".3" x="6" y="26" width="4" height="28" rx="1" transform="rotate(-90 6 26)"/><rect opacity=".3" x="38" y="6" width="4" height="36" rx="1.5"/><path d="M18.586 34.586a2 2 0 1 0 2.828 2.828l12-12a2 2 0 0 0 .06-2.765l-11-12a2 2 0 1 0-2.948 2.702l9.706 10.589-10.646 10.646Z"/></symbol><symbol id="arrow-to-up" viewBox="0 0 48 48"><rect style="fill: var(--opacity, #fff)" opacity=".3" x="22" y="14" width="4" height="28" rx="1"/><path d="M13.414 29.414a2 2 0 1 1-2.828-2.828l12-12a2 2 0 0 1 2.765-.06l12 11a2 2 0 1 1-2.702 2.948L24.06 18.768 13.414 29.414Z"/><rect opacity=".3" x="6" y="6" width="36" height="4" rx="1.5"/></symbol><symbol id="arrow-up" viewBox="0 0 48 48"><rect style="fill: var(--opacity, #fff)" opacity=".3" x="22" y="10" width="4" height="28" rx="1"/><path d="M13.414 25.414a2 2 0 1 1-2.828-2.828l12-12a2 2 0 0 1 2.765-.06l12 11a2 2 0 1 1-2.702 2.948L24.06 14.768 13.414 25.414Z"/></symbol><symbol id="arrows-h" viewBox="0 0 48 48"><rect style="fill: var(--opacity, #fff)" opacity=".3" x="14" y="22" width="20" height="4" rx="1"/><path d="M30.586 13.414a2 2 0 1 1 2.828-2.828l12 12a2 2 0 0 1 .06 2.765l-11 12a2 2 0 1 1-2.948-2.702l9.706-10.589-10.646-10.646ZM17.414 34.586a2 2 0 1 1-2.828 2.828l-12-12a2 2 0 0 1-.06-2.766l11-12a2 2 0 0 1 2.948 2.703L6.768 23.94l10.646 10.646Z"/></symbol><symbol id="arrows-v" viewBox="0 0 48 48"><rect style="fill: var(--opacity, #fff)" opacity=".3" x="22" y="34" width="20" height="4" rx="1" transform="rotate(-90 22 34)"/><path d="M13.414 17.414a2 2 0 1 1-2.828-2.828l12-12a2 2 0 0 1 2.765-.06l12 11a2 2 0 1 1-2.702 2.948L24.06 6.768 13.414 17.414ZM34.586 30.586a2 2 0 1 1 2.828 2.828l-12 12a2 2 0 0 1-2.766.06l-12-11a2 2 0 0 1 2.703-2.948l10.589 9.706 10.646-10.646Z"/></symbol><symbol id="cancel" viewBox="0 0 24 24"><path d="M12 2C6.47 2 2 6.47 2 12s4.47 10 10 10 10-4.47 10-10S17.53 2 12 2zm5 13.59L15.59 17 12 13.41 8.41 17 7 15.59 10.59 12 7 8.41 8.41 7 12 10.59 15.59 7 17 8.41 13.41 12 17 15.59z"/></symbol><symbol id="check" viewBox="0 0 48 48"><path d="M35.476 12.705a2 2 0 0 1 3.048 2.59l-17 20a2 2 0 0 1-2.853.2l-9-8a2 2 0 0 1 2.658-2.99l7.471 6.642 15.676-18.442Z"/></symbol><symbol id="chevron_left" viewBox="0 0 24 24"><path d="M15.41 7.41 14 6l-6 6 6 6 1.41-1.41L10.83 12z"/></symbol><symbol id="chevron_right" viewBox="0 0 24 24"><path d="M10 6 8.59 7.41 13.17 12l-4.58 4.59L10 18l6-6z"/></symbol><symbol id="close" viewBox="0 0 48 48"><rect x="11.272" y="33.899" width="32" height="4" rx="1.5" transform="rotate(-45 11.272 33.9)"/><rect style="fill: var(--opacity, #fff)" opacity=".3" x="14.101" y="11.272" width="32" height="4" rx="1.5" transform="rotate(45 14.1 11.272)"/></symbol><symbol id="double-check" viewBox="0 0 48 48"><path style="fill: var(--opacity, #fff)" opacity=".3" d="M41.476 10.705a2 2 0 1 1 3.048 2.59l-17 20a2 2 0 0 1-2.853.2l-9-8a2 2 0 0 1 2.658-2.99l7.471 6.642 15.676-18.442Z"/><path d="M31.476 12.705a2 2 0 1 1 3.048 2.59l-17 20a2 2 0 0 1-2.853.2l-9-8a2 2 0 0 1 2.658-2.99l7.471 6.642 15.676-18.442Z"/></symbol><symbol id="down-2" viewBox="0 0 48 48"><rect style="fill: var(--opacity, #fff)" opacity=".3" x="22" y="8" width="4" height="20" rx="1"/><path d="M13.414 24.586a2 2 0 1 0-2.828 2.828l12 12a2 2 0 0 0 2.765.06l12-11a2 2 0 1 0-2.702-2.948L24.06 35.232 13.414 24.586Z"/></symbol><symbol id="down-left" viewBox="0 0 48 48"><rect style="fill: var(--opacity, #fff)" opacity=".3" x="16.222" y="35.606" width="4" height="28" rx="1" transform="rotate(-135 16.222 35.606)"/><path d="M31.778 32.192a2 2 0 1 1 0 4h-16.97a2 2 0 0 1-1.998-1.913l-.708-16.263a2 2 0 0 1 3.997-.174l.624 14.35h15.055Z"/></symbol><symbol id="down-right" viewBox="0 0 48 48"><rect style="fill: var(--opacity, #fff)" opacity=".3" x="34.607" y="32.778" width="4" height="28" rx="1" transform="rotate(135 34.607 32.778)"/><path d="M31.192 17.222a2 2 0 0 1 4 0v16.97a2 2 0 0 1-1.913 1.998l-16.263.708a2 2 0 0 1-.174-3.997l14.35-.624V17.222Z"/></symbol><symbol id="exchange" viewBox="0 0 48 48"><rect style="fill: var(--opacity, #fff)" opacity=".3" x="14" y="14" width="4" height="24" rx="1" transform="rotate(-90 14 14)"/><path d="M19.414 16.586a2 2 0 1 1-2.828 2.828l-6-6a2 2 0 0 1 0-2.828l6-6a2 2 0 1 1 2.828 2.828L14.828 12l4.586 4.586Z"/><rect opacity=".3" width="4" height="24" rx="1" transform="matrix(0 -1 -1 0 34 38)"/><path d="M28.586 40.586a2 2 0 1 0 2.828 2.828l6-6a2 2 0 0 0 0-2.828l-6-6a2 2 0 1 0-2.828 2.828L33.172 36l-4.586 4.586Z"/></symbol><symbol id="expand_less" viewBox="0 0 24 24"><path d="m12 8-6 6 1.41 1.41L12 10.83l4.59 4.58L18 14z"/></symbol><symbol id="expand_more" viewBox="0 0 24 24"><path d="M16.59 8.59 12 13.17 7.41 8.59 6 10l6 6 6-6z"/></symbol><symbol id="first_page" viewBox="0 0 24 24"><path d="M18.41 16.59 13.82 12l4.59-4.59L17 6l-6 6 6 6zM6 6h2v12H6z"/></symbol><symbol id="fullscreen_exit" viewBox="0 0 24 24"><path d="M5 16h3v3h2v-5H5zM8 8H5v2h5V5H8zM14 19h2v-3h3v-2h-5zM16 8V5h-2v5h5V8z"/></symbol><symbol id="fullscreen" viewBox="0 0 24 24"><path d="M7 14H5v5h5v-2H7zM5 10h2V7h3V5H5zM17 17h-3v2h5v-5h-2zM14 5v2h3v3h2V5z"/></symbol><symbol id="last_page" viewBox="0 0 24 24"><path d="M5.59 7.41 10.18 12l-4.59 4.59L7 18l6-6-6-6zM16 6h2v12h-2z"/></symbol><symbol id="left-2" viewBox="0 0 48 48"><rect style="fill: var(--opacity, #fff)" opacity=".3" width="4" height="20" rx="1" transform="matrix(0 -1 -1 0 40 26)"/><path d="M25.414 34.586a2 2 0 1 1-2.828 2.828l-12-12a2 2 0 0 1-.06-2.765l11-12a2 2 0 1 1 2.948 2.702L14.768 23.94l10.646 10.646Z"/></symbol><symbol id="left-3" viewBox="0 0 48 48"><path d="M27.414 28.586a2 2 0 1 1-2.828 2.828l-12-12a2 2 0 0 1-.06-2.765l11-12a2 2 0 0 1 2.948 2.702L16.768 17.94l10.646 10.646Z"/><path style="fill: var(--opacity, #fff)" opacity=".3" d="M23 16a2 2 0 1 0 0 4h13a2 2 0 0 1 2 2v20.083a2 2 0 1 0 4 0V22a6 6 0 0 0-6-6H23Z"/></symbol><symbol id="menu" viewBox="0 0 24 24"><path d="M3 18h18v-2H3zM3 13h18v-2H3zM3 6v2h18V6z"/></symbol><symbol id="minus" viewBox="0 0 48 48"><rect x="8" y="22" width="32" height="4" rx="1.5"/></symbol><symbol id="more_horiz" viewBox="0 0 24 24"><path d="M6 10c-1.1 0-2 .9-2 2s.9 2 2 2 2-.9 2-2-.9-2-2-2zM18 10c-1.1 0-2 .9-2 2s.9 2 2 2 2-.9 2-2-.9-2-2-2zM12 10c-1.1 0-2 .9-2 2s.9 2 2 2 2-.9 2-2-.9-2-2-2z"/></symbol><symbol id="more_vert" viewBox="0 0 24 24"><path d="M12 8c1.1 0 2-.9 2-2s-.9-2-2-2-2 .9-2 2 .9 2 2 2zM12 16c-1.1 0-2 .9-2 2s.9 2 2 2 2-.9 2-2-.9-2-2-2zM12 10c-1.1 0-2 .9-2 2s.9 2 2 2 2-.9 2-2-.9-2-2-2z"/></symbol><symbol id="plus" viewBox="0 0 48 48"><rect x="8" y="22" width="32" height="4" rx="1.5"/><rect style="fill: var(--opacity, #fff)" opacity=".3" x="26" y="8" width="32" height="4" rx="1.5" transform="rotate(90 26 8)"/></symbol><symbol id="refresh" viewBox="0 0 24 24"><path d="M17.65 6.35A7.958 7.958 0 0 0 12 4c-4.42 0-7.99 3.58-7.99 8s3.57 8 7.99 8c3.73 0 6.84-2.55 7.73-6h-2.08A5.99 5.99 0 0 1 12 18c-3.31 0-6-2.69-6-6s2.69-6 6-6c1.66 0 3.14.69 4.22 1.78L13 11h7V4l-2.35 2.35z"/></symbol><symbol id="right-2" viewBox="0 0 48 48"><rect style="fill: var(--opacity, #fff)" opacity=".3" x="8" y="26" width="4" height="18" rx="1" transform="rotate(-90 8 26)"/><path d="M22.586 34.586a2 2 0 1 0 2.828 2.828l12-12a2 2 0 0 0 .06-2.765l-11-12a2 2 0 1 0-2.948 2.702l9.706 10.589-10.646 10.646Z"/></symbol><symbol id="right-3" viewBox="0 0 48 48"><path d="M26.586 28.586a2 2 0 1 0 2.828 2.828l12-12a2 2 0 0 0 .06-2.765l-11-12a2 2 0 0 0-2.948 2.702l9.706 10.589-10.646 10.646Z"/><path style="fill: var(--opacity, #fff)" opacity=".3" d="M31 16a2 2 0 1 1 0 4H18a2 2 0 0 0-2 2v20.083a2 2 0 1 1-4 0V22a6 6 0 0 1 6-6h13Z"/></symbol><symbol id="route" viewBox="0 0 48 48"><path style="fill: var(--opacity, #fff)" opacity=".3" d="M16 14a2 2 0 1 1 0-4h16a8 8 0 1 1 0 16H16a4 4 0 0 0 0 8h18a2 2 0 1 1 0 4H16a8 8 0 1 1 0-16h16a4 4 0 0 0 0-8H16Z"/><path d="M19.414 16.586a2 2 0 1 1-2.828 2.828l-6-6a2 2 0 0 1 0-2.828l6-6a2 2 0 1 1 2.828 2.828L14.828 12l4.586 4.586ZM28.586 40.586a2 2 0 1 0 2.828 2.828l6-6a2 2 0 0 0 0-2.828l-6-6a2 2 0 1 0-2.828 2.828L33.172 36l-4.586 4.586Z"/></symbol><symbol id="sign-in" viewBox="0 0 48 48"><rect style="fill: var(--opacity, #fff)" opacity=".3" x="30" y="22" width="4" height="24" rx="1" transform="rotate(90 30 22)"/><path opacity=".3" d="M20.012 14a2 2 0 1 1-3.998 0v-2c0-4.418 3.58-8 7.996-8h11.994A7.998 7.998 0 0 1 44 12v24c0 4.418-3.58 8-7.996 8H23.997A7.998 7.998 0 0 1 16 36v-2a2 2 0 1 1 3.998 0v2a4 4 0 0 0 3.998 4h12.008a4 4 0 0 0 3.998-4V12a4 4 0 0 0-3.998-4H24.01a4 4 0 0 0-3.998 4v2Z"/><path d="M24.586 19.414a2 2 0 1 1 2.828-2.828l6 6a2 2 0 0 1 0 2.828l-6 6a2 2 0 1 1-2.828-2.828L29.172 24l-4.586-4.586Z"/></symbol><symbol id="sign-out" viewBox="0 0 48 48"><path style="fill: var(--opacity, #fff)" opacity=".3" d="M28.002 14A2 2 0 1 0 32 14v-2c0-4.418-3.58-8-7.997-8H12.01a7.998 7.998 0 0 0-7.996 8v24c0 4.418 3.58 8 7.996 8h12.007a7.998 7.998 0 0 0 7.997-8v-2a2 2 0 1 0-3.998 0v2a4 4 0 0 1-3.999 4H12.01a4 4 0 0 1-3.998-4V12a4 4 0 0 1 3.998-4h11.993a4 4 0 0 1 3.999 4v2Z"/><rect opacity=".3" x="40" y="22" width="4" height="24" rx="1" transform="rotate(90 40 22)"/><path d="M34.586 19.414a2 2 0 1 1 2.828-2.828l6 6a2 2 0 0 1 0 2.828l-6 6a2 2 0 1 1-2.828-2.828L39.172 24l-4.586-4.586Z"/></symbol><symbol id="subdirectory_arrow_left" viewBox="0 0 24 24"><path d="m11 9 1.42 1.42L8.83 14H18V4h2v12H8.83l3.59 3.58L11 21l-6-6 6-6z"/></symbol><symbol id="subdirectory_arrow_right" viewBox="0 0 24 24"><path d="m19 15-6 6-1.42-1.42L15.17 16H4V4h2v10h9.17l-3.59-3.58L13 9l6 6z"/></symbol><symbol id="up-2" viewBox="0 0 48 48"><rect style="fill: var(--opacity, #fff)" opacity=".3" x="22" y="20" width="4" height="20" rx="1"/><path d="M13.414 25.414a2 2 0 1 1-2.828-2.828l12-12a2 2 0 0 1 2.765-.06l12 11a2 2 0 1 1-2.702 2.948L24.06 14.768 13.414 25.414Z"/></symbol><symbol id="up-down" viewBox="0 0 48 48"><rect style="fill: var(--opacity, #fff)" opacity=".3" x="14" y="34" width="4" height="24" rx="1" transform="rotate(-180 14 34)"/><path d="M16.586 28.586a2 2 0 1 1 2.828 2.828l-6 6a2 2 0 0 1-2.828 0l-6-6a2 2 0 1 1 2.828-2.828L12 33.172l4.586-4.586Z"/><rect opacity=".3" width="4" height="24" rx="1" transform="matrix(-1 0 0 1 38 14)"/><path d="M40.586 19.414a2 2 0 1 0 2.828-2.828l-6-6a2 2 0 0 0-2.828 0l-6 6a2 2 0 1 0 2.828 2.828L36 14.828l4.586 4.586Z"/></symbol><symbol id="up-left" viewBox="0 0 48 48"><rect style="fill: var(--opacity, #fff)" opacity=".3" x="13.393" y="17.222" width="4" height="28" rx="1" transform="rotate(-45 13.393 17.222)"/><path d="M16.808 32.778a2 2 0 1 1-4 0v-16.97a2 2 0 0 1 1.913-1.998l16.263-.708a2 2 0 1 1 .174 3.997l-14.35.624v15.055Z"/></symbol><symbol id="up-right" viewBox="0 0 48 48"><rect style="fill: var(--opacity, #fff)" opacity=".3" x="31.778" y="14.394" width="4" height="28" rx="1" transform="rotate(45 31.778 14.394)"/><path d="M16.222 17.808a2 2 0 1 1 0-4h16.97a2 2 0 0 1 1.998 1.913l.708 16.263a2 2 0 0 1-3.997.174l-.623-14.35H16.221Z"/></symbol><symbol id="waiting" viewBox="0 0 48 48"><path style="fill: var(--opacity, #fff)" opacity=".3" fill-rule="evenodd" clip-rule="evenodd" d="M21 4.5A1.5 1.5 0 0 1 22.5 3h3A1.5 1.5 0 0 1 27 4.5v6a1.5 1.5 0 0 1-1.5 1.5h-3a1.5 1.5 0 0 1-1.5-1.5v-6Zm10.06 8.303a1.5 1.5 0 0 0 0 2.122l2.122 2.121a1.5 1.5 0 0 0 2.121 0l4.243-4.243a1.5 1.5 0 0 0 0-2.121l-2.121-2.121a1.5 1.5 0 0 0-2.122 0l-4.242 4.242ZM37.5 21a1.5 1.5 0 0 0-1.5 1.5v3a1.5 1.5 0 0 0 1.5 1.5h6a1.5 1.5 0 0 0 1.5-1.5v-3a1.5 1.5 0 0 0-1.5-1.5h-6Zm-6.44 12.182a1.5 1.5 0 0 0 0 2.121l4.243 4.243a1.5 1.5 0 0 0 2.122 0l2.12-2.121a1.5 1.5 0 0 0 0-2.122l-4.242-4.242a1.5 1.5 0 0 0-2.121 0l-2.121 2.121ZM4.5 21A1.5 1.5 0 0 0 3 22.5v3A1.5 1.5 0 0 0 4.5 27h6a1.5 1.5 0 0 0 1.5-1.5v-3a1.5 1.5 0 0 0-1.5-1.5h-6Zm18 15a1.5 1.5 0 0 0-1.5 1.5v6a1.5 1.5 0 0 0 1.5 1.5h3a1.5 1.5 0 0 0 1.5-1.5v-6a1.5 1.5 0 0 0-1.5-1.5h-3ZM8.56 12.803a1.5 1.5 0 0 1 0-2.121l2.122-2.121a1.5 1.5 0 0 1 2.121 0l4.243 4.242a1.5 1.5 0 0 1 0 2.122l-2.121 2.121a1.5 1.5 0 0 1-2.122 0l-4.242-4.243Zm0 24.622a1.5 1.5 0 0 1 0-2.122l4.243-4.242a1.5 1.5 0 0 1 2.122 0l2.12 2.121a1.5 1.5 0 0 1 0 2.121l-4.242 4.243a1.5 1.5 0 0 1-2.121 0l-2.121-2.121Z"/></symbol></svg>