<?xml version="1.0" encoding="UTF-8"?><!DOCTYPE svg PUBLIC "-//W3C//DTD SVG 1.1//EN" "http://www.w3.org/Graphics/SVG/1.1/DTD/svg11.dtd"><svg xmlns="http://www.w3.org/2000/svg" xmlns:xlink="http://www.w3.org/1999/xlink"><defs/><symbol id="angle-double-down" viewBox="0 0 48 48"><path d="M34.586 9.586a2 2 0 112.828 2.828l-12 12a2 2 0 01-2.766.06l-12-11a2 2 0 012.703-2.948l10.589 9.706L34.586 9.586z"/><path style="fill: var(--opacity, #fff)" opacity=".3" d="M34.586 23.586a2 2 0 112.828 2.828l-12 12a2 2 0 01-2.766.06l-12-11a2 2 0 012.703-2.948l10.589 9.706 10.646-10.646z"/></symbol><symbol id="angle-double-left" viewBox="0 0 48 48"><path d="M25.414 13.414a2 2 0 10-2.828-2.828l-12 12a2 2 0 00-.06 2.765l11 12a2 2 0 102.948-2.702L14.768 24.06l10.646-10.646z"/><path style="fill: var(--opacity, #fff)" opacity=".3" d="M39.414 13.414a2 2 0 10-2.828-2.828l-12 12a2 2 0 00-.06 2.765l11 12a2 2 0 102.948-2.702L28.768 24.06l10.646-10.646z"/></symbol><symbol id="angle-double-right" viewBox="0 0 48 48"><path d="M24.586 13.414a2 2 0 112.828-2.828l12 12a2 2 0 01.06 2.765l-11 12a2 2 0 11-2.948-2.702l9.706-10.589-10.646-10.646z"/><path style="fill: var(--opacity, #fff)" opacity=".3" d="M10.586 13.414a2 2 0 112.828-2.828l12 12a2 2 0 01.06 2.765l-11 12a2 2 0 11-2.948-2.702l9.706-10.589-10.646-10.646z"/></symbol><symbol id="angle-double-up" viewBox="0 0 48 48"><path d="M34.586 38.414a2 2 0 102.828-2.828l-12-12a2 2 0 00-2.766-.06l-12 11a2 2 0 002.703 2.948l10.589-9.706 10.646 10.646z"/><path style="fill: var(--opacity, #fff)" opacity=".3" d="M34.586 24.414a2 2 0 102.828-2.828l-12-12a2 2 0 00-2.766-.06l-12 11a2 2 0 002.703 2.948l10.589-9.706 10.646 10.646z"/></symbol><symbol id="angle-down" viewBox="0 0 48 48"><path d="M34.586 16.586a2 2 0 112.828 2.828l-12 12a2 2 0 01-2.766.06l-12-11a2 2 0 012.703-2.948l10.589 9.706 10.646-10.646z"/></symbol><symbol id="angle-left" viewBox="0 0 48 48"><path d="M31.414 13.414a2 2 0 10-2.828-2.828l-12 12a2 2 0 00-.06 2.765l11 12a2 2 0 102.948-2.702L20.768 24.06l10.646-10.646z"/></symbol><symbol id="angle-right" viewBox="0 0 48 48"><path d="M16.586 13.414a2 2 0 112.828-2.828l12 12a2 2 0 01.06 2.765l-11 12a2 2 0 11-2.948-2.702l9.706-10.589-10.646-10.646z"/></symbol><symbol id="angle-up" viewBox="0 0 48 48"><path d="M13.414 31.414a2 2 0 11-2.828-2.828l12-12a2 2 0 012.765-.06l12 11a2 2 0 11-2.702 2.948L24.06 20.768 13.414 31.414z"/></symbol><symbol id="arrow-down" viewBox="0 0 48 48"><rect style="fill: var(--opacity, #fff)" opacity=".3" x="22" y="10" width="4" height="28" rx="1" fill="#000"/><path d="M13.414 22.586a2 2 0 10-2.828 2.828l12 12a2 2 0 002.765.06l12-11a2 2 0 10-2.702-2.948L24.06 33.232 13.414 22.586z"/></symbol><symbol id="arrow-from-bottom" viewBox="0 0 48 48"><rect style="fill: var(--opacity, #fff)" opacity=".3" x="22" y="6" width="4" height="28" rx="1" fill="#000"/><path d="M13.414 21.414a2 2 0 11-2.828-2.828l12-12a2 2 0 012.765-.06l12 11a2 2 0 11-2.702 2.948L24.06 10.768 13.414 21.414z"/><rect opacity=".3" x="6" y="38" width="36" height="4" rx="1.5" fill="#000"/></symbol><symbol id="arrow-from-left" viewBox="0 0 48 48"><rect style="fill: var(--opacity, #fff)" opacity=".3" x="14" y="26" width="4" height="28" rx="1" transform="rotate(-90 14 26)" fill="#000"/><rect opacity=".3" x="6" y="6" width="4" height="36" rx="1.5" fill="#000"/><path d="M26.586 34.586a2 2 0 102.828 2.828l12-12a2 2 0 00.06-2.765l-11-12a2 2 0 10-2.948 2.702l9.706 10.589-10.646 10.646z"/></symbol><symbol id="arrow-from-right" viewBox="0 0 48 48"><rect style="fill: var(--opacity, #fff)" opacity=".3" width="4" height="28" rx="1" transform="matrix(0 -1 -1 0 34 26)" fill="#000"/><rect opacity=".3" x="38" y="6" width="4" height="36" rx="1.5" fill="#000"/><path d="M21.414 34.586a2 2 0 11-2.828 2.828l-12-12a2 2 0 01-.06-2.765l11-12a2 2 0 112.948 2.702L10.768 23.94l10.646 10.646z"/></symbol><symbol id="arrow-from-top" viewBox="0 0 48 48"><rect style="fill: var(--opacity, #fff)" opacity=".3" x="22" y="14" width="4" height="28" rx="1" fill="#000"/><path d="M13.414 26.586a2 2 0 10-2.828 2.828l12 12a2 2 0 002.765.06l12-11a2 2 0 10-2.702-2.948L24.06 37.232 13.414 26.586z"/><rect opacity=".3" x="6" y="6" width="36" height="4" rx="1.5" fill="#000"/></symbol><symbol id="arrow-left" viewBox="0 0 48 48"><rect style="fill: var(--opacity, #fff)" opacity=".3" width="4" height="28" rx="1" transform="matrix(0 -1 -1 0 38 26)" fill="#000"/><path d="M25.414 34.586a2 2 0 11-2.828 2.828l-12-12a2 2 0 01-.06-2.765l11-12a2 2 0 112.948 2.702L14.768 23.94l10.646 10.646z"/></symbol><symbol id="arrow-right" viewBox="0 0 48 48"><rect style="fill: var(--opacity, #fff)" opacity=".3" x="10" y="26" width="4" height="28" rx="1" transform="rotate(-90 10 26)" fill="#000"/><path d="M22.586 34.586a2 2 0 102.828 2.828l12-12a2 2 0 00.06-2.765l-11-12a2 2 0 10-2.948 2.702l9.706 10.589-10.646 10.646z"/></symbol><symbol id="arrow-to-bottom" viewBox="0 0 48 48"><rect style="fill: var(--opacity, #fff)" opacity=".3" x="22" y="6" width="4" height="28" rx="1" fill="#000"/><path d="M13.414 18.586a2 2 0 10-2.828 2.828l12 12a2 2 0 002.765.06l12-11a2 2 0 10-2.702-2.948L24.06 29.232 13.414 18.586z"/><rect opacity=".3" x="6" y="38" width="36" height="4" rx="1.5" fill="#000"/></symbol><symbol id="arrow-to-left" viewBox="0 0 48 48"><rect style="fill: var(--opacity, #fff)" opacity=".3" width="4" height="28" rx="1" transform="matrix(0 -1 -1 0 42 26)" fill="#000"/><rect opacity=".3" x="6" y="6" width="4" height="36" rx="1.5" fill="#000"/><path d="M29.414 34.586a2 2 0 11-2.828 2.828l-12-12a2 2 0 01-.06-2.765l11-12a2 2 0 112.948 2.702L18.768 23.94l10.646 10.646z"/></symbol><symbol id="arrow-to-right" viewBox="0 0 48 48"><rect style="fill: var(--opacity, #fff)" opacity=".3" x="6" y="26" width="4" height="28" rx="1" transform="rotate(-90 6 26)" fill="#000"/><rect opacity=".3" x="38" y="6" width="4" height="36" rx="1.5" fill="#000"/><path d="M18.586 34.586a2 2 0 102.828 2.828l12-12a2 2 0 00.06-2.765l-11-12a2 2 0 10-2.948 2.702l9.706 10.589-10.646 10.646z"/></symbol><symbol id="arrow-to-up" viewBox="0 0 48 48"><rect style="fill: var(--opacity, #fff)" opacity=".3" x="22" y="14" width="4" height="28" rx="1" fill="#000"/><path d="M13.414 29.414a2 2 0 11-2.828-2.828l12-12a2 2 0 012.765-.06l12 11a2 2 0 11-2.702 2.948L24.06 18.768 13.414 29.414z"/><rect opacity=".3" x="6" y="6" width="36" height="4" rx="1.5" fill="#000"/></symbol><symbol id="arrow-up" viewBox="0 0 48 48"><rect style="fill: var(--opacity, #fff)" opacity=".3" x="22" y="10" width="4" height="28" rx="1" fill="#000"/><path d="M13.414 25.414a2 2 0 11-2.828-2.828l12-12a2 2 0 012.765-.06l12 11a2 2 0 11-2.702 2.948L24.06 14.768 13.414 25.414z"/></symbol><symbol id="arrows-h" viewBox="0 0 48 48"><rect style="fill: var(--opacity, #fff)" opacity=".3" x="14" y="22" width="20" height="4" rx="1" fill="#000"/><path d="M30.586 13.414a2 2 0 112.828-2.828l12 12a2 2 0 01.06 2.765l-11 12a2 2 0 11-2.948-2.702l9.706-10.589-10.646-10.646zM17.414 34.586a2 2 0 11-2.828 2.828l-12-12a2 2 0 01-.06-2.766l11-12a2 2 0 012.948 2.703L6.768 23.94l10.646 10.646z"/></symbol><symbol id="arrows-v" viewBox="0 0 48 48"><rect style="fill: var(--opacity, #fff)" opacity=".3" x="22" y="34" width="20" height="4" rx="1" transform="rotate(-90 22 34)" fill="#000"/><path d="M13.414 17.414a2 2 0 11-2.828-2.828l12-12a2 2 0 012.765-.06l12 11a2 2 0 11-2.702 2.948L24.06 6.768 13.414 17.414zM34.586 30.586a2 2 0 112.828 2.828l-12 12a2 2 0 01-2.766.06l-12-11a2 2 0 012.703-2.948l10.589 9.706 10.646-10.646z"/></symbol><symbol id="check" viewBox="0 0 48 48"><path d="M35.476 12.705a2 2 0 013.048 2.59l-17 20a2 2 0 01-2.853.2l-9-8a2 2 0 012.658-2.99l7.471 6.642 15.676-18.442z"/></symbol><symbol id="close" viewBox="0 0 48 48"><rect x="11.272" y="33.899" width="32" height="4" rx="1.5" transform="rotate(-45 11.272 33.9)" fill="#000"/><rect style="fill: var(--opacity, #fff)" opacity=".3" x="14.101" y="11.272" width="32" height="4" rx="1.5" transform="rotate(45 14.1 11.272)" fill="#000"/></symbol><symbol id="double-check" viewBox="0 0 48 48"><path style="fill: var(--opacity, #fff)" opacity=".3" d="M41.476 10.705a2 2 0 113.048 2.59l-17 20a2 2 0 01-2.853.2l-9-8a2 2 0 012.658-2.99l7.471 6.642 15.676-18.442z"/><path d="M31.476 12.705a2 2 0 113.048 2.59l-17 20a2 2 0 01-2.853.2l-9-8a2 2 0 012.658-2.99l7.471 6.642 15.676-18.442z"/></symbol><symbol id="down-2" viewBox="0 0 48 48"><rect style="fill: var(--opacity, #fff)" opacity=".3" x="22" y="8" width="4" height="20" rx="1" fill="#000"/><path d="M13.414 24.586a2 2 0 10-2.828 2.828l12 12a2 2 0 002.765.06l12-11a2 2 0 10-2.702-2.948L24.06 35.232 13.414 24.586z"/></symbol><symbol id="down-left" viewBox="0 0 48 48"><rect style="fill: var(--opacity, #fff)" opacity=".3" x="16.222" y="35.606" width="4" height="28" rx="1" transform="rotate(-135 16.222 35.606)" fill="#000"/><path d="M31.778 32.192a2 2 0 110 4h-16.97a2 2 0 01-1.998-1.913l-.708-16.263a2 2 0 013.997-.174l.624 14.35h15.055z"/></symbol><symbol id="down-right" viewBox="0 0 48 48"><rect style="fill: var(--opacity, #fff)" opacity=".3" x="34.607" y="32.778" width="4" height="28" rx="1" transform="rotate(135 34.607 32.778)" fill="#000"/><path d="M31.192 17.222a2 2 0 014 0v16.97a2 2 0 01-1.913 1.998l-16.263.708a2 2 0 01-.174-3.997l14.35-.624V17.222z"/></symbol><symbol id="exchange" viewBox="0 0 48 48"><rect style="fill: var(--opacity, #fff)" opacity=".3" x="14" y="14" width="4" height="24" rx="1" transform="rotate(-90 14 14)" fill="#000"/><path d="M19.414 16.586a2 2 0 11-2.828 2.828l-6-6a2 2 0 010-2.828l6-6a2 2 0 112.828 2.828L14.828 12l4.586 4.586z"/><rect opacity=".3" width="4" height="24" rx="1" transform="matrix(0 -1 -1 0 34 38)" fill="#000"/><path d="M28.586 40.586a2 2 0 102.828 2.828l6-6a2 2 0 000-2.828l-6-6a2 2 0 10-2.828 2.828L33.172 36l-4.586 4.586z"/></symbol><symbol id="left-2" viewBox="0 0 48 48"><rect style="fill: var(--opacity, #fff)" opacity=".3" width="4" height="20" rx="1" transform="matrix(0 -1 -1 0 40 26)" fill="#000"/><path d="M25.414 34.586a2 2 0 11-2.828 2.828l-12-12a2 2 0 01-.06-2.765l11-12a2 2 0 112.948 2.702L14.768 23.94l10.646 10.646z"/></symbol><symbol id="left-3" viewBox="0 0 48 48"><path d="M27.414 28.586a2 2 0 11-2.828 2.828l-12-12a2 2 0 01-.06-2.765l11-12a2 2 0 012.948 2.702L16.768 17.94l10.646 10.646z"/><path style="fill: var(--opacity, #fff)" opacity=".3" d="M23 16a2 2 0 100 4h13a2 2 0 012 2v20.083a2 2 0 104 0V22a6 6 0 00-6-6H23z"/></symbol><symbol id="minus" viewBox="0 0 48 48"><rect x="8" y="22" width="32" height="4" rx="1.5" fill="#000"/></symbol><symbol id="plus" viewBox="0 0 48 48"><rect x="8" y="22" width="32" height="4" rx="1.5" fill="#000"/><rect style="fill: var(--opacity, #fff)" opacity=".3" x="26" y="8" width="32" height="4" rx="1.5" transform="rotate(90 26 8)" fill="#000"/></symbol><symbol id="right-2" viewBox="0 0 48 48"><rect style="fill: var(--opacity, #fff)" opacity=".3" x="8" y="26" width="4" height="18" rx="1" transform="rotate(-90 8 26)" fill="#000"/><path d="M22.586 34.586a2 2 0 102.828 2.828l12-12a2 2 0 00.06-2.765l-11-12a2 2 0 10-2.948 2.702l9.706 10.589-10.646 10.646z"/></symbol><symbol id="right-3" viewBox="0 0 48 48"><path d="M26.586 28.586a2 2 0 102.828 2.828l12-12a2 2 0 00.06-2.765l-11-12a2 2 0 00-2.948 2.702l9.706 10.589-10.646 10.646z"/><path style="fill: var(--opacity, #fff)" opacity=".3" d="M31 16a2 2 0 110 4H18a2 2 0 00-2 2v20.083a2 2 0 11-4 0V22a6 6 0 016-6h13z"/></symbol><symbol id="route" viewBox="0 0 48 48"><path style="fill: var(--opacity, #fff)" opacity=".3" d="M16 14a2 2 0 110-4h16a8 8 0 110 16H16a4 4 0 000 8h18a2 2 0 110 4H16a8 8 0 110-16h16a4 4 0 000-8H16z"/><path d="M19.414 16.586a2 2 0 11-2.828 2.828l-6-6a2 2 0 010-2.828l6-6a2 2 0 112.828 2.828L14.828 12l4.586 4.586zM28.586 40.586a2 2 0 102.828 2.828l6-6a2 2 0 000-2.828l-6-6a2 2 0 10-2.828 2.828L33.172 36l-4.586 4.586z"/></symbol><symbol id="sign-in" viewBox="0 0 48 48"><rect style="fill: var(--opacity, #fff)" opacity=".3" x="30" y="22" width="4" height="24" rx="1" transform="rotate(90 30 22)" fill="#000"/><path opacity=".3" d="M20.012 14a2 2 0 11-3.998 0v-2c0-4.418 3.58-8 7.996-8h11.994A7.998 7.998 0 0144 12v24c0 4.418-3.58 8-7.996 8H23.997A7.998 7.998 0 0116 36v-2a2 2 0 113.998 0v2a4 4 0 003.998 4h12.008a4 4 0 003.998-4V12a4 4 0 00-3.998-4H24.01a4 4 0 00-3.998 4v2z"/><path d="M24.586 19.414a2 2 0 112.828-2.828l6 6a2 2 0 010 2.828l-6 6a2 2 0 11-2.828-2.828L29.172 24l-4.586-4.586z"/></symbol><symbol id="sign-out" viewBox="0 0 48 48"><path style="fill: var(--opacity, #fff)" opacity=".3" d="M28.002 14A2 2 0 1032 14v-2c0-4.418-3.58-8-7.997-8H12.01a7.998 7.998 0 00-7.996 8v24c0 4.418 3.58 8 7.996 8h12.007a7.998 7.998 0 007.997-8v-2a2 2 0 10-3.998 0v2a4 4 0 01-3.999 4H12.01a4 4 0 01-3.998-4V12a4 4 0 013.998-4h11.993a4 4 0 013.999 4v2z"/><rect opacity=".3" x="40" y="22" width="4" height="24" rx="1" transform="rotate(90 40 22)" fill="#000"/><path d="M34.586 19.414a2 2 0 112.828-2.828l6 6a2 2 0 010 2.828l-6 6a2 2 0 11-2.828-2.828L39.172 24l-4.586-4.586z"/></symbol><symbol id="up-2" viewBox="0 0 48 48"><rect style="fill: var(--opacity, #fff)" opacity=".3" x="22" y="20" width="4" height="20" rx="1" fill="#000"/><path d="M13.414 25.414a2 2 0 11-2.828-2.828l12-12a2 2 0 012.765-.06l12 11a2 2 0 11-2.702 2.948L24.06 14.768 13.414 25.414z"/></symbol><symbol id="up-down" viewBox="0 0 48 48"><rect style="fill: var(--opacity, #fff)" opacity=".3" x="14" y="34" width="4" height="24" rx="1" transform="rotate(-180 14 34)" fill="#000"/><path d="M16.586 28.586a2 2 0 112.828 2.828l-6 6a2 2 0 01-2.828 0l-6-6a2 2 0 112.828-2.828L12 33.172l4.586-4.586z"/><rect opacity=".3" width="4" height="24" rx="1" transform="matrix(-1 0 0 1 38 14)" fill="#000"/><path d="M40.586 19.414a2 2 0 102.828-2.828l-6-6a2 2 0 00-2.828 0l-6 6a2 2 0 102.828 2.828L36 14.828l4.586 4.586z"/></symbol><symbol id="up-left" viewBox="0 0 48 48"><rect style="fill: var(--opacity, #fff)" opacity=".3" x="13.393" y="17.222" width="4" height="28" rx="1" transform="rotate(-45 13.393 17.222)" fill="#000"/><path d="M16.808 32.778a2 2 0 11-4 0v-16.97a2 2 0 011.913-1.998l16.263-.708a2 2 0 11.174 3.997l-14.35.624v15.055z"/></symbol><symbol id="up-right" viewBox="0 0 48 48"><rect style="fill: var(--opacity, #fff)" opacity=".3" x="31.778" y="14.394" width="4" height="28" rx="1" transform="rotate(45 31.778 14.394)" fill="#000"/><path d="M16.222 17.808a2 2 0 110-4h16.97a2 2 0 011.998 1.913l.708 16.263a2 2 0 01-3.997.174l-.623-14.35H16.221z"/></symbol><symbol id="waiting" viewBox="0 0 48 48"><path style="fill: var(--opacity, #fff)" opacity=".3" fill-rule="evenodd" clip-rule="evenodd" d="M21 4.5A1.5 1.5 0 0122.5 3h3A1.5 1.5 0 0127 4.5v6a1.5 1.5 0 01-1.5 1.5h-3a1.5 1.5 0 01-1.5-1.5v-6zm10.06 8.303a1.5 1.5 0 000 2.122l2.122 2.121a1.5 1.5 0 002.121 0l4.243-4.243a1.5 1.5 0 000-2.121l-2.121-2.121a1.5 1.5 0 00-2.122 0l-4.242 4.242zM37.5 21a1.5 1.5 0 00-1.5 1.5v3a1.5 1.5 0 001.5 1.5h6a1.5 1.5 0 001.5-1.5v-3a1.5 1.5 0 00-1.5-1.5h-6zm-6.44 12.182a1.5 1.5 0 000 2.121l4.243 4.243a1.5 1.5 0 002.122 0l2.12-2.121a1.5 1.5 0 000-2.122l-4.242-4.242a1.5 1.5 0 00-2.121 0l-2.121 2.121zM4.5 21A1.5 1.5 0 003 22.5v3A1.5 1.5 0 004.5 27h6a1.5 1.5 0 001.5-1.5v-3a1.5 1.5 0 00-1.5-1.5h-6zm18 15a1.5 1.5 0 00-1.5 1.5v6a1.5 1.5 0 001.5 1.5h3a1.5 1.5 0 001.5-1.5v-6a1.5 1.5 0 00-1.5-1.5h-3zM8.56 12.803a1.5 1.5 0 010-2.121l2.122-2.121a1.5 1.5 0 012.121 0l4.243 4.242a1.5 1.5 0 010 2.122l-2.121 2.121a1.5 1.5 0 01-2.122 0l-4.242-4.243zm0 24.622a1.5 1.5 0 010-2.122l4.243-4.242a1.5 1.5 0 012.122 0l2.12 2.121a1.5 1.5 0 010 2.121l-4.242 4.243a1.5 1.5 0 01-2.121 0l-2.121-2.121z"/></symbol></svg>