<?xml version="1.0" encoding="UTF-8"?><!DOCTYPE svg PUBLIC "-//W3C//DTD SVG 1.1//EN" "http://www.w3.org/Graphics/SVG/1.1/DTD/svg11.dtd"><svg xmlns="http://www.w3.org/2000/svg" xmlns:xlink="http://www.w3.org/1999/xlink"><defs/><symbol id="adb" viewBox="0 0 24 24"><path d="M5 16c0 3.87 3.13 7 7 7s7-3.13 7-7v-4H5v4zM15 9c-.55 0-1-.45-1-1s.45-1 1-1 1 .45 1 1-.45 1-1 1zM9 9c-.55 0-1-.45-1-1s.45-1 1-1 1 .45 1 1-.45 1-1 1zm7.12-4.63 2.1-2.1-.82-.83-2.3 2.31C14.16 3.28 13.12 3 12 3s-2.16.28-3.09.75L6.6 1.44l-.82.83 2.1 2.1C6.14 5.64 5 7.68 5 10v1h14v-1c0-2.32-1.14-4.36-2.88-5.63z"/></symbol><symbol id="airline_seat_angled" viewBox="0 0 24 24"><path d="m22.25 14.29-.69 1.89L9.2 11.71l2.08-5.66 8.56 3.09a4 4 0 0 1 2.41 5.15zM1.5 12.14 8 14.48V19h8v-1.63L20.52 19l.69-1.89-19.02-6.86-.69 1.89zM7.3 10.2a3.01 3.01 0 0 0 1.41-4A3.005 3.005 0 0 0 4.7 4.8a2.99 2.99 0 0 0-1.4 4 2.99 2.99 0 0 0 4 1.4z"/></symbol><symbol id="airline_seat_flat" viewBox="0 0 24 24"><path d="M22 11v2H9V7h9c2.21 0 4 1.79 4 4zM2 14v2h6v2h8v-2h6v-2H2zM7.14 12.1a3 3 0 0 0-.04-4.24 3 3 0 0 0-4.24.04 3 3 0 0 0 .04 4.24 3 3 0 0 0 4.24-.04z"/></symbol><symbol id="airline_seat_individual_suite" viewBox="0 0 24 24"><path d="M7 13c1.65 0 3-1.35 3-3S8.65 7 7 7s-3 1.35-3 3 1.35 3 3 3z"/><path d="M19 7h-8v7H3V7H1v10h22v-6c0-2.21-1.79-4-4-4z"/></symbol><symbol id="airline_seat_legroom_extra" viewBox="0 0 24 24"><path d="M4 12V3H2v9c0 2.76 2.24 5 5 5h6v-2H7c-1.66 0-3-1.34-3-3z"/><path d="M22.83 17.24c-.38-.72-1.29-.97-2.03-.63l-1.09.5-3.41-6.98a2.01 2.01 0 0 0-1.79-1.12L11 9V3H5v8c0 1.66 1.34 3 3 3h7l3.41 7 3.72-1.7c.77-.36 1.1-1.3.7-2.06z"/></symbol><symbol id="airline_seat_legroom_normal" viewBox="0 0 24 24"><path d="M5 12V3H3v9c0 2.76 2.24 5 5 5h6v-2H8c-1.66 0-3-1.34-3-3z"/><path d="M20.5 18H19v-7c0-1.1-.9-2-2-2h-5V3H6v8c0 1.65 1.35 3 3 3h7v7h4.5c.83 0 1.5-.67 1.5-1.5s-.67-1.5-1.5-1.5z"/></symbol><symbol id="airline_seat_legroom_reduced" viewBox="0 0 24 24"><path d="M19.97 19.2c.18.96-.55 1.8-1.47 1.8H14v-3l1-4H9c-1.65 0-3-1.35-3-3V3h6v6h5c1.1 0 2 .9 2 2l-2 7h1.44c.73 0 1.39.49 1.53 1.2z"/><path d="M5 12V3H3v9c0 2.76 2.24 5 5 5h4v-2H8c-1.66 0-3-1.34-3-3z"/></symbol><symbol id="airline_seat_recline_extra" viewBox="0 0 24 24"><path d="M5.35 5.64c-.9-.64-1.12-1.88-.49-2.79.63-.9 1.88-1.12 2.79-.49.9.64 1.12 1.88.49 2.79-.64.9-1.88 1.12-2.79.49zM16 19H8.93c-1.48 0-2.74-1.08-2.96-2.54L4 7H2l1.99 9.76A5.01 5.01 0 0 0 8.94 21H16v-2z"/><path d="M16.23 15h-4.88l-1.03-4.1c1.58.89 3.28 1.54 5.15 1.22V9.99c-1.63.31-3.44-.27-4.69-1.25L9.14 7.47c-.23-.18-.49-.3-.76-.38a2.21 2.21 0 0 0-.99-.06h-.02a2.268 2.268 0 0 0-1.84 2.61l1.35 5.92A3.008 3.008 0 0 0 9.83 18h6.85l3.82 3 1.5-1.5-5.77-4.5z"/></symbol><symbol id="airline_seat_recline_normal" viewBox="0 0 24 24"><path d="M7.59 5.41c-.78-.78-.78-2.05 0-2.83s2.05-.78 2.83 0 .78 2.05 0 2.83c-.79.79-2.05.79-2.83 0zM6 16V7H4v9c0 2.76 2.24 5 5 5h6v-2H9c-1.66 0-3-1.34-3-3z"/><path d="M20 20.07 14.93 15H11.5v-3.68c1.4 1.15 3.6 2.16 5.5 2.16v-2.16c-1.66.02-3.61-.87-4.67-2.04l-1.4-1.55c-.19-.21-.43-.38-.69-.5-.29-.14-.62-.23-.96-.23h-.03C8.01 7 7 8.01 7 9.25V15c0 1.66 1.34 3 3 3h5.07l3.5 3.5z"/></symbol><symbol id="bluetooth_audio" viewBox="0 0 24 24"><path d="m19.53 6.71-1.26 1.26c.63 1.21.98 2.57.98 4.02s-.36 2.82-.98 4.02l1.2 1.2a9.936 9.936 0 0 0 1.54-5.31c-.01-1.89-.55-3.67-1.48-5.19zm-5.29 5.3 2.32 2.32c.28-.72.44-1.51.44-2.33s-.16-1.59-.43-2.31z"/><path d="M12.88 16.29 11 18.17v-3.76zM11 5.83l1.88 1.88L11 9.59zm4.71 1.88L10 2H9v7.59L4.41 5 3 6.41 8.59 12 3 17.59 4.41 19 9 14.41V22h1l5.71-5.71-4.3-4.29z"/></symbol><symbol id="confirmation_number" viewBox="0 0 24 24"><path d="M22 10V6a2 2 0 0 0-2-2H4c-1.1 0-1.99.89-1.99 2v4c1.1 0 1.99.9 1.99 2s-.89 2-2 2v4c0 1.1.9 2 2 2h16c1.1 0 2-.9 2-2v-4c-1.1 0-2-.9-2-2s.9-2 2-2zm-9 7.5h-2v-2h2zm0-4.5h-2v-2h2zm0-4.5h-2v-2h2z"/></symbol><symbol id="disc_full" viewBox="0 0 24 24"><path d="M20 7v5h2V7zm0 9h2v-2h-2zM10 14c-1.1 0-2-.9-2-2s.9-2 2-2 2 .9 2 2-.9 2-2 2zm0-10c-4.42 0-8 3.58-8 8s3.58 8 8 8 8-3.58 8-8-3.58-8-8-8z"/></symbol><symbol id="do_not_disturb_alt" viewBox="0 0 24 24"><path d="M12 2C6.5 2 2 6.5 2 12s4.5 10 10 10 10-4.5 10-10S17.5 2 12 2zM4 12c0-4.4 3.6-8 8-8 1.8 0 3.5.6 4.9 1.7L5.7 16.9C4.6 15.5 4 13.8 4 12zm8 8c-1.8 0-3.5-.6-4.9-1.7L18.3 7.1C19.4 8.5 20 10.2 20 12c0 4.4-3.6 8-8 8z"/></symbol><symbol id="do_not_disturb_off" viewBox="0 0 24 24"><path d="M17 11v2h-1.46l4.68 4.68A9.92 9.92 0 0 0 22 12c0-5.52-4.48-10-10-10-2.11 0-4.07.66-5.68 1.78L13.54 11H17zM7 13v-2h1.46l2 2H7zM2.27 2.27 1 3.54l2.78 2.78A9.92 9.92 0 0 0 2 12c0 5.52 4.48 10 10 10 2.11 0 4.07-.66 5.68-1.78L20.46 23l1.27-1.27L11 11 2.27 2.27z"/></symbol><symbol id="do_not_disturb_on" viewBox="0 0 24 24"><path d="M12 2C6.48 2 2 6.48 2 12s4.48 10 10 10 10-4.48 10-10S17.52 2 12 2zm5 11H7v-2h10v2z"/></symbol><symbol id="do_not_disturb" viewBox="0 0 24 24"><path d="M12 2C6.48 2 2 6.48 2 12s4.48 10 10 10 10-4.48 10-10S17.52 2 12 2zm0 18c-4.42 0-8-3.58-8-8 0-1.85.63-3.55 1.69-4.9L16.9 18.31A7.902 7.902 0 0 1 12 20zm6.31-3.1L7.1 5.69A7.902 7.902 0 0 1 12 4c4.42 0 8 3.58 8 8 0 1.85-.63 3.55-1.69 4.9z"/></symbol><symbol id="drive_eta" viewBox="0 0 24 24"><path d="M18.92 5.01C18.72 4.42 18.16 4 17.5 4h-11c-.66 0-1.21.42-1.42 1.01L3 11v8c0 .55.45 1 1 1h1c.55 0 1-.45 1-1v-1h12v1c0 .55.45 1 1 1h1c.55 0 1-.45 1-1v-8l-2.08-5.99zM6.5 15c-.83 0-1.5-.67-1.5-1.5S5.67 12 6.5 12s1.5.67 1.5 1.5S7.33 15 6.5 15zm11 0c-.83 0-1.5-.67-1.5-1.5s.67-1.5 1.5-1.5 1.5.67 1.5 1.5-.67 1.5-1.5 1.5zM5 10l1.5-4.5h11L19 10H5z"/></symbol><symbol id="enhanced_encryption" viewBox="0 0 24 24"><path d="M18 8h-1V6c0-2.76-2.24-5-5-5S7 3.24 7 6v2H6c-1.1 0-2 .9-2 2v10c0 1.1.9 2 2 2h12c1.1 0 2-.9 2-2V10c0-1.1-.9-2-2-2zM8.9 6c0-1.71 1.39-3.1 3.1-3.1s3.1 1.39 3.1 3.1v2H8.9V6zM16 16h-3v3h-2v-3H8v-2h3v-3h2v3h3v2z"/></symbol><symbol id="event_available" viewBox="0 0 24 24"><path d="M16.53 11.06 15.47 10l-4.88 4.88-2.12-2.12-1.06 1.06L10.59 17l5.94-5.94z"/><path d="M19 19H5V8h14v11zm0-16h-1V1h-2v2H8V1H6v2H5c-1.11 0-1.99.9-1.99 2L3 19a2 2 0 0 0 2 2h14c1.1 0 2-.9 2-2V5c0-1.1-.9-2-2-2z"/></symbol><symbol id="event_busy" viewBox="0 0 24 24"><path d="m9.31 17 2.44-2.44L14.19 17l1.06-1.06-2.44-2.44 2.44-2.44L14.19 10l-2.44 2.44L9.31 10l-1.06 1.06 2.44 2.44-2.44 2.44L9.31 17z"/><path d="M19 19H5V8h14v11zm0-16h-1V1h-2v2H8V1H6v2H5c-1.11 0-1.99.9-1.99 2L3 19a2 2 0 0 0 2 2h14c1.1 0 2-.9 2-2V5c0-1.1-.9-2-2-2z"/></symbol><symbol id="event_note" viewBox="0 0 24 24"><path d="M19 19H5V8h14v11zm0-16h-1V1h-2v2H8V1H6v2H5c-1.11 0-1.99.9-1.99 2L3 19a2 2 0 0 0 2 2h14c1.1 0 2-.9 2-2V5c0-1.1-.9-2-2-2z"/><path d="M14 14H7v2h7v-2zm3-4H7v2h10v-2z"/></symbol><symbol id="folder_special" viewBox="0 0 24 24"><path d="M20 6h-8l-2-2H4c-1.1 0-2 .9-2 2v12c0 1.1.9 2 2 2h16c1.1 0 2-.9 2-2V8c0-1.1-.9-2-2-2zm-6.42 12L10 15.9 6.42 18l.95-4.07-3.16-2.74 4.16-.36L10 7l1.63 3.84 4.16.36-3.16 2.74.95 4.06z"/></symbol><symbol id="live_tv" viewBox="0 0 24 24"><path d="M21 20H3V8h18v12zm0-14h-7.59l3.29-3.29L16 2l-4 4-4-4-.71.71L10.59 6H3a2 2 0 0 0-2 2v12c0 1.1.9 2 2 2h18c1.1 0 2-.9 2-2V8a2 2 0 0 0-2-2z"/><path d="M9 10v8l7-4z"/></symbol><symbol id="mms" viewBox="0 0 24 24"><path d="M20 2H4c-1.1 0-1.99.9-1.99 2L2 22l4-4h14c1.1 0 2-.9 2-2V4c0-1.1-.9-2-2-2zM5 14l3.5-4.5 2.5 3.01L14.5 8l4.5 6H5z"/></symbol><symbol id="more" viewBox="0 0 24 24"><path d="M22 3H7c-.69 0-1.23.35-1.59.88L0 12l5.41 8.11c.36.53.97.89 1.66.89H22c1.1 0 2-.9 2-2V5c0-1.1-.9-2-2-2zM9 13.5c-.83 0-1.5-.67-1.5-1.5s.67-1.5 1.5-1.5 1.5.67 1.5 1.5-.67 1.5-1.5 1.5zm5 0c-.83 0-1.5-.67-1.5-1.5s.67-1.5 1.5-1.5 1.5.67 1.5 1.5-.67 1.5-1.5 1.5zm5 0c-.83 0-1.5-.67-1.5-1.5s.67-1.5 1.5-1.5 1.5.67 1.5 1.5-.67 1.5-1.5 1.5z"/></symbol><symbol id="network_check" viewBox="0 0 24 24"><path d="M15.9 5c-.17 0-.32.09-.41.23l-.07.15-5.18 11.65c-.16.29-.26.61-.26.96 0 1.11.9 2.01 2.01 2.01.96 0 1.77-.68 1.96-1.59l.01-.03L16.4 5.5c0-.28-.22-.5-.5-.5zM21 11l2-2a15.367 15.367 0 0 0-5.59-3.57l-.53 2.82c1.5.62 2.9 1.53 4.12 2.75zM1 9l2 2c2.88-2.88 6.79-4.08 10.53-3.62l1.19-2.68C9.89 3.84 4.74 5.27 1 9zM5 13l2 2a7.1 7.1 0 0 1 4.03-2l1.28-2.88c-2.63-.08-5.3.87-7.31 2.88zm12 2 2-2c-.8-.8-1.7-1.42-2.66-1.89l-.55 2.92c.42.27.83.59 1.21.97z"/></symbol><symbol id="network_locked" viewBox="0 0 24 24"><path d="M19.5 10c.17 0 .33.03.5.05V1L1 20h13v-3c0-.89.39-1.68 1-2.23v-.27c0-2.48 2.02-4.5 4.5-4.5z"/><path d="M21 16h-3v-1.5c0-.83.67-1.5 1.5-1.5s1.5.67 1.5 1.5V16zm1 0v-1.5a2.5 2.5 0 0 0-5 0V16c-.55 0-1 .45-1 1v4c0 .55.45 1 1 1h5c.55 0 1-.45 1-1v-4c0-.55-.45-1-1-1z"/></symbol><symbol id="no_encryption" viewBox="0 0 24 24"><path d="M21 21.78 4.22 5 3 6.22l2.04 2.04C4.42 8.6 4 9.25 4 10v10c0 1.1.9 2 2 2h12c.23 0 .45-.05.66-.12L19.78 23 21 21.78zM8.9 6c0-1.71 1.39-3.1 3.1-3.1 1.71 0 3.1 1.39 3.1 3.1v2H9.66L20 18.34V10c0-1.1-.9-2-2-2h-1V6c0-2.76-2.24-5-5-5-2.56 0-4.64 1.93-4.94 4.4L8.9 7.24V6z"/></symbol><symbol id="ondemand_video" viewBox="0 0 24 24"><path d="M21 17H3V5h18v12zm0-14H3c-1.11 0-2 .89-2 2v12a2 2 0 0 0 2 2h5v2h8v-2h5c1.1 0 1.99-.9 1.99-2L23 5a2 2 0 0 0-2-2z"/><path d="m16 11-7 4V7z"/></symbol><symbol id="personal_video" viewBox="0 0 24 24"><path d="M21 3H3c-1.11 0-2 .89-2 2v12a2 2 0 0 0 2 2h5v2h8v-2h5c1.1 0 1.99-.9 1.99-2L23 5a2 2 0 0 0-2-2zm0 14H3V5h18v12z"/></symbol><symbol id="phone_bluetooth_speaker" viewBox="0 0 24 24"><path d="m18 7.21.94.94-.94.94V7.21zm0-4.3.94.94-.94.94V2.91zM14.71 9.5 17 7.21V11h.5l2.85-2.85L18.21 6l2.15-2.15L17.5 1H17v3.79L14.71 2.5l-.71.71L16.79 6 14 8.79l.71.71zM20 15.5c-1.25 0-2.45-.2-3.57-.57a1.02 1.02 0 0 0-1.02.24l-2.2 2.2a15.045 15.045 0 0 1-6.59-6.59l2.2-2.21a.96.96 0 0 0 .25-1A11.36 11.36 0 0 1 8.5 4c0-.55-.45-1-1-1H4c-.55 0-1 .45-1 1 0 9.39 7.61 17 17 17 .55 0 1-.45 1-1v-3.5c0-.55-.45-1-1-1z"/></symbol><symbol id="phone_forwarded" viewBox="0 0 24 24"><path d="m18 11 5-5-5-5v3h-4v4h4v3zM20 15.5c-1.25 0-2.45-.2-3.57-.57a1.02 1.02 0 0 0-1.02.24l-2.2 2.2a15.045 15.045 0 0 1-6.59-6.59l2.2-2.21a.96.96 0 0 0 .25-1A11.36 11.36 0 0 1 8.5 4c0-.55-.45-1-1-1H4c-.55 0-1 .45-1 1 0 9.39 7.61 17 17 17 .55 0 1-.45 1-1v-3.5c0-.55-.45-1-1-1z"/></symbol><symbol id="phone_in_talk" viewBox="0 0 24 24"><path d="M20 15.5c-1.25 0-2.45-.2-3.57-.57a1.02 1.02 0 0 0-1.02.24l-2.2 2.2a15.045 15.045 0 0 1-6.59-6.59l2.2-2.21a.96.96 0 0 0 .25-1A11.36 11.36 0 0 1 8.5 4c0-.55-.45-1-1-1H4c-.55 0-1 .45-1 1 0 9.39 7.61 17 17 17 .55 0 1-.45 1-1v-3.5c0-.55-.45-1-1-1zM19 12h2a9 9 0 0 0-9-9v2c3.87 0 7 3.13 7 7z"/><path d="M15 12h2c0-2.76-2.24-5-5-5v2c1.66 0 3 1.34 3 3z"/></symbol><symbol id="phone_locked" viewBox="0 0 24 24"><path d="M20 15.5c-1.25 0-2.45-.2-3.57-.57a1.02 1.02 0 0 0-1.02.24l-2.2 2.2a15.045 15.045 0 0 1-6.59-6.59l2.2-2.21a.96.96 0 0 0 .25-1A11.36 11.36 0 0 1 8.5 4c0-.55-.45-1-1-1H4c-.55 0-1 .45-1 1 0 9.39 7.61 17 17 17 .55 0 1-.45 1-1v-3.5c0-.55-.45-1-1-1z"/><path d="M19.2 4h-3.4v-.5c0-.94.76-1.7 1.7-1.7s1.7.76 1.7 1.7V4zm.8 0v-.5a2.5 2.5 0 0 0-5 0V4c-.55 0-1 .45-1 1v4c0 .55.45 1 1 1h5c.55 0 1-.45 1-1V5c0-.55-.45-1-1-1z"/></symbol><symbol id="phone_missed" viewBox="0 0 24 24"><path d="M6.5 5.5 12 11l7-7-1-1-6 6-4.5-4.5H11V3H5v6h1.5zM23.71 16.67C20.66 13.78 16.54 12 12 12S3.34 13.78.29 16.67c-.18.18-.29.43-.29.71s.11.53.29.71l2.48 2.48c.18.18.43.29.71.29.27 0 .52-.11.7-.28.79-.74 1.69-1.36 2.66-1.85.33-.16.56-.5.56-.9v-3.1c1.45-.48 3-.73 4.6-.73s3.15.25 4.6.72v3.1c0 .39.23.74.56.9.98.49 1.87 1.12 2.67 1.85.18.18.43.28.7.28.28 0 .53-.11.71-.29l2.48-2.48c.18-.18.29-.43.29-.71s-.12-.52-.3-.7z"/></symbol><symbol id="phone_paused" viewBox="0 0 24 24"><path d="M17 3h-2v7h2V3z"/><path d="M20 15.5c-1.25 0-2.45-.2-3.57-.57a1.02 1.02 0 0 0-1.02.24l-2.2 2.2a15.045 15.045 0 0 1-6.59-6.59l2.2-2.21a.96.96 0 0 0 .25-1A11.36 11.36 0 0 1 8.5 4c0-.55-.45-1-1-1H4c-.55 0-1 .45-1 1 0 9.39 7.61 17 17 17 .55 0 1-.45 1-1v-3.5c0-.55-.45-1-1-1zM19 3v7h2V3h-2z"/></symbol><symbol id="power" viewBox="0 0 24 24"><path d="M16.01 7 16 3h-2v4h-4V3H8v4h-.01C7 6.99 6 7.99 6 8.99v5.49L9.5 18v3h5v-3l3.5-3.51v-5.5c0-1-1-2-1.99-1.99z"/></symbol><symbol id="priority_high" viewBox="0 0 24 24"><circle cx="12" cy="19" r="2"/><path d="M10 3h4v12h-4z"/></symbol><symbol id="sd_card" viewBox="0 0 24 24"><path d="M18 2h-8L4.02 8 4 20c0 1.1.9 2 2 2h12c1.1 0 2-.9 2-2V4c0-1.1-.9-2-2-2zm-6 6h-2V4h2v4zm3 0h-2V4h2v4zm3 0h-2V4h2v4z"/></symbol><symbol id="sim_card_alert" viewBox="0 0 24 24"><path d="M18 2h-8L4.02 8 4 20c0 1.1.9 2 2 2h12c1.1 0 2-.9 2-2V4c0-1.1-.9-2-2-2zm-5 15h-2v-2h2v2zm0-4h-2V8h2v5z"/></symbol><symbol id="sms_failed" viewBox="0 0 24 24"><path d="M20 2H4c-1.1 0-1.99.9-1.99 2L2 22l4-4h14c1.1 0 2-.9 2-2V4c0-1.1-.9-2-2-2zm-7 12h-2v-2h2v2zm0-4h-2V6h2v4z"/></symbol><symbol id="sms" viewBox="0 0 24 24"><path d="M20 2H4c-1.1 0-1.99.9-1.99 2L2 22l4-4h14c1.1 0 2-.9 2-2V4c0-1.1-.9-2-2-2zM9 11H7V9h2v2zm4 0h-2V9h2v2zm4 0h-2V9h2v2z"/></symbol><symbol id="sync_disabled" viewBox="0 0 24 24"><path d="M10 6.35V4.26c-.8.21-1.55.54-2.23.96l1.46 1.46c.25-.12.5-.24.77-.33zM2.86 5.41l2.36 2.36a7.925 7.925 0 0 0 1.14 9.87L4 20h6v-6l-2.24 2.24A6.003 6.003 0 0 1 6 12c0-1 .25-1.94.68-2.77l8.08 8.08c-.25.13-.5.25-.77.34v2.09c.8-.21 1.55-.54 2.23-.96l2.36 2.36 1.27-1.27L4.14 4.14 2.86 5.41zM20 4h-6v6l2.24-2.24A6.003 6.003 0 0 1 18 12c0 1-.25 1.94-.68 2.77l1.46 1.46a7.925 7.925 0 0 0-1.14-9.87L20 4z"/></symbol><symbol id="sync_problem" viewBox="0 0 24 24"><path d="M3 12c0 2.21.91 4.2 2.36 5.64L3 20h6v-6l-2.24 2.24A6.003 6.003 0 0 1 5 12a5.99 5.99 0 0 1 4-5.65V4.26C5.55 5.15 3 8.27 3 12zM21 4h-6v6l2.24-2.24A6.003 6.003 0 0 1 19 12a5.99 5.99 0 0 1-4 5.65v2.09c3.45-.89 6-4.01 6-7.74 0-2.21-.91-4.2-2.36-5.64L21 4zM11 13h2V7h-2v6zm0 4h2v-2h-2v2z"/></symbol><symbol id="sync" viewBox="0 0 24 24"><path d="M12 4V1L8 5l4 4V6c3.31 0 6 2.69 6 6 0 1.01-.25 1.97-.7 2.8l1.46 1.46A7.93 7.93 0 0 0 20 12c0-4.42-3.58-8-8-8zM12 18c-3.31 0-6-2.69-6-6 0-1.01.25-1.97.7-2.8L5.24 7.74A7.93 7.93 0 0 0 4 12c0 4.42 3.58 8 8 8v3l4-4-4-4v3z"/></symbol><symbol id="system_update" viewBox="0 0 24 24"><path d="M17 19H7V5h10v14zm0-17.99L7 1c-1.1 0-2 .9-2 2v18c0 1.1.9 2 2 2h10c1.1 0 2-.9 2-2V3c0-1.1-.9-1.99-2-1.99z"/><path d="M16 13h-3V8h-2v5H8l4 4 4-4z"/></symbol><symbol id="tap_and_play" viewBox="0 0 24 24"><path d="M2 16v2c2.76 0 5 2.24 5 5h2c0-3.87-3.13-7-7-7zM2 20v3h3c0-1.66-1.34-3-3-3z"/><path d="M2 12v2a9 9 0 0 1 9 9h2c0-6.08-4.92-11-11-11z"/><path d="M17 1.01 7 1c-1.1 0-2 .9-2 2v7.37c.69.16 1.36.37 2 .64V5h10v13h-3.03c.52 1.25.84 2.59.95 4H17c1.1 0 2-.9 2-2V3c0-1.1-.9-1.99-2-1.99z"/></symbol><symbol id="time_to_leave" viewBox="0 0 24 24"><path d="M18.92 5.01C18.72 4.42 18.16 4 17.5 4h-11c-.66 0-1.21.42-1.42 1.01L3 11v8c0 .55.45 1 1 1h1c.55 0 1-.45 1-1v-1h12v1c0 .55.45 1 1 1h1c.55 0 1-.45 1-1v-8l-2.08-5.99zM6.5 15c-.83 0-1.5-.67-1.5-1.5S5.67 12 6.5 12s1.5.67 1.5 1.5S7.33 15 6.5 15zm11 0c-.83 0-1.5-.67-1.5-1.5s.67-1.5 1.5-1.5 1.5.67 1.5 1.5-.67 1.5-1.5 1.5zM5 10l1.5-4.5h11L19 10H5z"/></symbol><symbol id="vibration" viewBox="0 0 24 24"><path d="M0 15h2V9H0zM3 17h2V7H3zM22 9v6h2V9zM19 17h2V7h-2zM16 19H8V5h8zm.5-16h-9C6.67 3 6 3.67 6 4.5v15c0 .83.67 1.5 1.5 1.5h9c.83 0 1.5-.67 1.5-1.5v-15c0-.83-.67-1.5-1.5-1.5z"/></symbol><symbol id="voice_chat" viewBox="0 0 24 24"><path d="M20 2H4c-1.1 0-1.99.9-1.99 2L2 22l4-4h14c1.1 0 2-.9 2-2V4c0-1.1-.9-2-2-2zm-2 12-4-3.2V14H6V6h8v3.2L18 6v8z"/></symbol><symbol id="vpn_lock" viewBox="0 0 24 24"><path d="M21.2 4h-3.4v-.5c0-.94.76-1.7 1.7-1.7s1.7.76 1.7 1.7V4zm.8 0v-.5a2.5 2.5 0 0 0-5 0V4c-.55 0-1 .45-1 1v4c0 .55.45 1 1 1h5c.55 0 1-.45 1-1V5c0-.55-.45-1-1-1z"/><path d="M10 20.93c-3.95-.49-7-3.85-7-7.93 0-.62.08-1.21.21-1.79L8 16v1c0 1.1.9 2 2 2v1.93zM18.92 12c.04.33.08.66.08 1 0 2.08-.8 3.97-2.1 5.39-.26-.81-1-1.39-1.9-1.39h-1v-3c0-.55-.45-1-1-1H7v-2h2c.55 0 1-.45 1-1V8h2c1.1 0 2-.9 2-2V3.46c-.95-.3-1.95-.46-3-.46C5.48 3 1 7.48 1 13s4.48 10 10 10 10-4.48 10-10c0-.34-.02-.67-.05-1h-2.03z"/></symbol><symbol id="wc" viewBox="0 0 24 24"><path d="M5.5 22v-7.5H4V9c0-1.1.9-2 2-2h3c1.1 0 2 .9 2 2v5.5H9.5V22zM18 22v-6h3l-2.54-7.63A2.01 2.01 0 0 0 16.56 7h-.12a2 2 0 0 0-1.9 1.37L12 16h3v6zM7.5 6c1.11 0 2-.89 2-2s-.89-2-2-2-2 .89-2 2 .89 2 2 2zM16.5 6c1.11 0 2-.89 2-2s-.89-2-2-2-2 .89-2 2 .89 2 2 2z"/></symbol><symbol id="wifi" viewBox="0 0 24 24"><path d="m1 9 2 2c4.97-4.97 13.03-4.97 18 0l2-2C16.93 2.93 7.08 2.93 1 9zM9 17l3 3 3-3a4.237 4.237 0 0 0-6 0z"/><path d="m5 13 2 2a7.074 7.074 0 0 1 10 0l2-2C15.14 9.14 8.87 9.14 5 13z"/></symbol></svg>