<?xml version="1.0" encoding="UTF-8"?><!DOCTYPE svg PUBLIC "-//W3C//DTD SVG 1.1//EN" "http://www.w3.org/Graphics/SVG/1.1/DTD/svg11.dtd"><svg xmlns="http://www.w3.org/2000/svg" xmlns:xlink="http://www.w3.org/1999/xlink"><defs/><symbol id="lock" viewBox="0 0 24 24"><path d="M5 12a1 1 0 0 0-1 1v7a1 1 0 0 0 1 1h14a1 1 0 0 0 1-1v-7a1 1 0 0 0-1-1H5Zm-3 1a3 3 0 0 1 3-3h14a3 3 0 0 1 3 3v7a3 3 0 0 1-3 3H5a3 3 0 0 1-3-3v-7Z"/><path d="M12 3a4 4 0 0 0-4 4v4a1 1 0 1 1-2 0V7a6 6 0 1 1 12 0v4a1 1 0 1 1-2 0V7a4 4 0 0 0-4-4Z"/></symbol></svg>