<?xml version="1.0" encoding="UTF-8"?><!DOCTYPE svg PUBLIC "-//W3C//DTD SVG 1.1//EN" "http://www.w3.org/Graphics/SVG/1.1/DTD/svg11.dtd"><svg xmlns="http://www.w3.org/2000/svg" xmlns:xlink="http://www.w3.org/1999/xlink"><defs/><symbol id="atm" viewBox="0 0 48 48"><rect style="fill: var(--opacity, #fff)" opacity=".3" x="4" y="8" width="40" height="10" rx="1"/><path fill-rule="evenodd" clip-rule="evenodd" d="M10 14v26a2 2 0 0 0 2 2h4V14h-6Zm12 0v28h14a2 2 0 0 0 2-2V14H22Z"/></symbol><symbol id="bag#1" viewBox="0 0 48 48"><path d="M9.083 19a1 1 0 0 1 1-1h27.835a1 1 0 0 1 1 1v21a2 2 0 0 1-2 2H11.083a2 2 0 0 1-2-2V19Z"/></symbol><symbol id="bag#2" viewBox="0 0 48 48"><path style="fill: var(--opacity, #fff)" opacity=".3" d="M8.242 9a1 1 0 0 1 1-1h29.516a1 1 0 0 1 1 1v31a2 2 0 0 1-2 2H10.242a2 2 0 0 1-2-2V9Z"/><path fill-rule="evenodd" clip-rule="evenodd" d="M14 14h4a6 6 0 0 0 12 0h4c0 5.523-4.477 10-10 10s-10-4.477-10-10Z"/></symbol><symbol id="barcode-read" viewBox="0 0 48 48"><path style="fill: var(--opacity, #fff)" opacity=".3" d="M8 8h16v32H8z"/><path fill-rule="evenodd" clip-rule="evenodd" d="M36 12h-6s-2-.343-2-2 2-2 2-2h10v10s0 2-2 2-2-2-2-2v-6ZM18 36h-6v-6s0-2-2-2-2 2-2 2v10h10s2-.343 2-2-2-2-2-2Zm18-6v6h-6s-2 0-2 2 2 2 2 2h10V30s-.343-2-2-2-2 2-2 2ZM12 18v-6h6s2 0 2-2-2-2-2-2H8v10s.343 2 2 2 2-2 2-2Z"/></symbol><symbol id="barcode-scan" viewBox="0 0 48 48"><path fill-rule="evenodd" clip-rule="evenodd" d="M10 30v10H6a2 2 0 0 1-2-2v-8h6Zm16 0v10h4V30h-4Zm4-12h-4v-8h4v8Zm2 12v10h4V30h-4Zm4-12h-4v-8h4v8Zm4 12v10h2a2 2 0 0 0 2-2v-8h-4Zm4-12h-4v-8h2a2 2 0 0 1 2 2v6Zm-34 0H4v-6a2 2 0 0 1 2-2h4v8Z"/><path style="fill: var(--opacity, #fff)" opacity=".3" fill-rule="evenodd" clip-rule="evenodd" d="M18 18v-8h-4v8h4Zm0 12h-4v10h4V30Z"/><rect opacity=".3" y="22" width="48" height="4" rx="1.5"/></symbol><symbol id="barcode" viewBox="0 0 48 48"><path fill-rule="evenodd" clip-rule="evenodd" d="M26 10h4v30h-4V10Zm-16 0v30H6a2 2 0 0 1-2-2V12a2 2 0 0 1 2-2h4Zm22 0h4v30h-4V10Zm8 0h2a2 2 0 0 1 2 2v26a2 2 0 0 1-2 2h-2V10Z"/><path style="fill: var(--opacity, #fff)" opacity=".3" fill-rule="evenodd" clip-rule="evenodd" d="M18 10v30h-4V10h4Z"/></symbol><symbol id="bitcoin" viewBox="0 0 48 48"><rect style="fill: var(--opacity, #fff)" opacity=".3" x="22" y="4" width="4" height="10" rx="1"/><rect opacity=".3" x="22" y="32" width="4" height="10" rx="1"/><path fill-rule="evenodd" clip-rule="evenodd" d="M35.75 28.172c0 1.47-.291 2.704-.874 3.705a6.936 6.936 0 0 1-2.318 2.413c-.963.608-2.058 1.045-3.287 1.31a17.819 17.819 0 0 1-3.781.4H14V9.096h11.49c1.039 0 2.103.108 3.192.323a9.439 9.439 0 0 1 2.964 1.102 6.273 6.273 0 0 1 2.166 2.109c.557.887.836 2.014.836 3.382 0 1.495-.405 2.73-1.216 3.705-.81.975-1.875 1.678-3.192 2.109.76.203 1.476.437 2.147.779a6.207 6.207 0 0 1 1.748 1.31 6.13 6.13 0 0 1 1.178 1.863c.291.71.437 1.507.437 2.394Zm-7.372-11.286c0-.912-.348-1.577-1.045-1.995-.697-.418-1.729-.627-3.097-.627h-3.192v5.548h3.496c1.216 0 2.16-.247 2.831-.741.671-.494 1.007-1.222 1.007-2.185Zm.874 10.678c0-1.115-.418-1.887-1.254-2.318-.836-.43-1.95-.646-3.344-.646h-3.61v6.156h3.648c.507 0 1.032-.044 1.577-.133a4.964 4.964 0 0 0 1.482-.475 2.848 2.848 0 0 0 1.083-.97c.279-.417.418-.955.418-1.614Z"/></symbol><symbol id="box#1" viewBox="0 0 48 48"><path style="fill: var(--opacity, #fff)" opacity=".3" d="M8 6h32v7H8z"/><path fill-rule="evenodd" clip-rule="evenodd" d="M10 10a2 2 0 0 0-2 2v28a2 2 0 0 0 2 2h28a2 2 0 0 0 2-2V12a2 2 0 0 0-2-2H10Zm7 8a1 1 0 0 0-1 1v2a1 1 0 0 0 1 1h14a1 1 0 0 0 1-1v-2a1 1 0 0 0-1-1H17Z"/></symbol><symbol id="box#2" viewBox="0 0 48 48"><path style="fill: var(--opacity, #fff)" opacity=".3" fill-rule="evenodd" clip-rule="evenodd" d="M40.812 13.472A2 2 0 0 1 42 15.3v17.523a2 2 0 0 1-1.029 1.749l-16 8.889a2 2 0 0 1-1.942 0l-16-8.89A2 2 0 0 1 6 32.824V15.3a2 2 0 0 1 1.188-1.828l16-7.11a2 2 0 0 1 1.624 0l16 7.11Z"/><path fill-rule="evenodd" clip-rule="evenodd" d="M29.934 8.449 15.2 16.634v9.177l4 2v-8.823l15.31-8.506-4.576-2.033Z"/></symbol><symbol id="box#3" viewBox="0 0 48 48"><path fill-rule="evenodd" clip-rule="evenodd" d="m8 19.35 13.76 7.944c.149.086.304.147.462.187v15.408l-13.24-7.836A2 2 0 0 1 8 33.332V19.349Zm32-.212v14.194a2 2 0 0 1-.981 1.72L25.778 42.89V27.346a1.78 1.78 0 0 0 .096-.052L40 19.138Z"/><path style="fill: var(--opacity, #fff)" opacity=".3" fill-rule="evenodd" clip-rule="evenodd" d="M8.432 15.493a2 2 0 0 1 .628-.523l14-7.457a2 2 0 0 1 1.88 0l14 7.457a2 2 0 0 1 .505.383l-15.35 8.862c-.1.058-.193.125-.278.198a1.795 1.795 0 0 0-.279-.198L8.432 15.493Z"/></symbol><symbol id="calculator" viewBox="0 0 48 48"><path style="fill: var(--opacity, #fff)" opacity=".3" d="M14 8h20v8H14z"/><path fill-rule="evenodd" clip-rule="evenodd" d="M12 4a2 2 0 0 0-2 2v36a2 2 0 0 0 2 2h24a2 2 0 0 0 2-2V6a2 2 0 0 0-2-2H12Zm6 18a2 2 0 1 1-4 0 2 2 0 0 1 4 0Zm-2 10a2 2 0 1 0 0-4 2 2 0 0 0 0 4Zm10-10a2 2 0 1 1-4 0 2 2 0 0 1 4 0Zm-2 10a2 2 0 1 0 0-4 2 2 0 0 0 0 4Zm10-10a2 2 0 1 1-4 0 2 2 0 0 1 4 0Zm-2 10a2 2 0 1 0 0-4 2 2 0 0 0 0 4Zm2 6a2 2 0 1 1-4 0 2 2 0 0 1 4 0Zm-20 0a2 2 0 0 1 2-2h8a2 2 0 1 1 0 4h-8a2 2 0 0 1-2-2ZM34 8H14v8h20V8Z"/></symbol><symbol id="cart#1" viewBox="0 0 48 48"><path style="fill: var(--opacity, #fff)" opacity=".3" fill-rule="evenodd" clip-rule="evenodd" d="m33.986 12.821 1.226-5.256a2.36 2.36 0 0 1 2.298-1.824h4.13a2.36 2.36 0 0 1 0 4.72h-2.257L36.29 23.688l-1.562 9.37a1 1 0 0 1-1.165.82L9.214 29.451a1 1 0 0 1-.782-.71L4.247 14.097a1 1 0 0 1 .962-1.275h28.777Z"/><path fill-rule="evenodd" clip-rule="evenodd" d="M16 39a3 3 0 1 1-6 0 3 3 0 0 1 6 0Zm18 0a3 3 0 1 1-6 0 3 3 0 0 1 6 0Z"/></symbol><symbol id="cart#2" viewBox="0 0 48 48"><path style="fill: var(--opacity, #fff)" opacity=".3" d="M24 9.124 15.537 19.28a2 2 0 0 1-3.073-2.56l10-12a2 2 0 0 1 3.073 0l10 12a2 2 0 0 1-3.073 2.56L24 9.124Z"/><path fill-rule="evenodd" clip-rule="evenodd" d="M5.561 18a1 1 0 0 0-1 1v20a3 3 0 0 0 3 3h32.877a3 3 0 0 0 3-3V19a1 1 0 0 0-1-1H5.561ZM23 24a1 1 0 0 0-1 1v10a1 1 0 0 0 1 1h2a1 1 0 0 0 1-1V25a1 1 0 0 0-1-1h-2Zm-10.744 1.756a1 1 0 0 1 .707-1.225l1.932-.517a1 1 0 0 1 1.225.707l2.588 9.66a1 1 0 0 1-.707 1.224l-1.932.518a1 1 0 0 1-1.224-.708l-2.589-9.659Zm20.849-1.742a1 1 0 0 0-1.225.707l-2.588 9.66a1 1 0 0 0 .707 1.224l1.932.518a1 1 0 0 0 1.224-.708l2.589-9.659a1 1 0 0 0-.708-1.225l-1.931-.517Z"/></symbol><symbol id="cart#3" viewBox="0 0 48 48"><path style="fill: var(--opacity, #fff)" opacity=".3" d="M24 9.124 15.537 19.28a2 2 0 0 1-3.073-2.56l10-12a2 2 0 0 1 3.073 0l10 12a2 2 0 0 1-3.073 2.56L24 9.124Z"/><path fill-rule="evenodd" clip-rule="evenodd" d="M7.998 18a1 1 0 0 0-1 1v20a3 3 0 0 0 3 3H38a3 3 0 0 0 3-3V19a1 1 0 0 0-1-1H7.998ZM28 30a4 4 0 1 1-8 0 4 4 0 0 1 8 0Z"/></symbol><symbol id="chart-bar#1" viewBox="0 0 48 48"><rect style="fill: var(--opacity, #fff)" opacity=".3" x="24" y="8" width="6" height="26" rx="1.5"/><rect opacity=".3" x="14" y="18" width="6" height="16" rx="1.5"/><path d="M10 38h30a2 2 0 1 1 0 4H8a2 2 0 0 1-2-2V8a2 2 0 1 1 4 0v30Z"/><rect opacity=".3" x="34" y="22" width="6" height="12" rx="1.5"/></symbol><symbol id="chart-bar#2" viewBox="0 0 48 48"><rect style="fill: var(--opacity, #fff)" opacity=".3" x="14" y="8" width="6" height="26" rx="1.5"/><rect opacity=".3" x="24" y="18" width="6" height="16" rx="1.5"/><path d="M10 38h30a2 2 0 1 1 0 4H8a2 2 0 0 1-2-2V8a2 2 0 1 1 4 0v30Z"/><rect opacity=".3" x="34" y="22" width="6" height="12" rx="1.5"/></symbol><symbol id="chart-bar#3" viewBox="0 0 48 48"><rect style="fill: var(--opacity, #fff)" opacity=".3" x="34" y="8" width="6" height="26" rx="1.5"/><rect opacity=".3" x="24" y="18" width="6" height="16" rx="1.5"/><path d="M10 38h30a2 2 0 1 1 0 4H8a2 2 0 0 1-2-2V8a2 2 0 1 1 4 0v30Z"/><rect opacity=".3" x="14" y="22" width="6" height="12" rx="1.5"/></symbol><symbol id="chart-line#1" viewBox="0 0 48 48"><path d="M10 38h30a2 2 0 1 1 0 4H8a2 2 0 0 1-2-2V8a2 2 0 1 1 4 0v30Z"/><path style="fill: var(--opacity, #fff)" opacity=".3" d="M17.46 29.368a2 2 0 0 1-2.92-2.736l7.5-8a2 2 0 0 1 2.758-.153l5.92 5.051 7.712-9.77a2 2 0 0 1 3.14 2.48l-9 11.4a2 2 0 0 1-2.868.282l-6.048-5.162-6.195 6.608Z"/></symbol><symbol id="chart-line#2" viewBox="0 0 48 48"><path d="M10 38h30a2 2 0 1 1 0 4H8a2 2 0 0 1-2-2V8a2 2 0 1 1 4 0v30Z"/><path style="fill: var(--opacity, #fff)" opacity=".3" d="M17.46 13.632a2 2 0 0 0-2.92 2.736l7.5 8a2 2 0 0 0 2.758.153l5.92-5.051 7.712 9.77a2 2 0 0 0 3.14-2.48l-9-11.4a2 2 0 0 0-2.868-.281l-6.048 5.16-6.195-6.607Z"/></symbol><symbol id="chart-pie" viewBox="0 0 48 48"><path style="fill: var(--opacity, #fff)" opacity=".3" fill-rule="evenodd" clip-rule="evenodd" d="M8.504 28C10.28 34.9 16.544 40 24 40c8.837 0 16-7.163 16-16 0-8.16-6.107-14.892-14-15.876V28H8.504Z"/><path fill-rule="evenodd" clip-rule="evenodd" d="M22 20V6C13.84 6 7.108 12.107 6.124 20H22Z"/></symbol><symbol id="credit-card" viewBox="0 0 48 48"><rect style="fill: var(--opacity, #fff)" opacity=".3" x="4" y="10" width="40" height="28" rx="2"/><path d="M4 16h40v6H4z"/><rect opacity=".3" x="32" y="28" width="8" height="4" rx="1"/></symbol><symbol id="dollar" viewBox="0 0 48 48"><rect style="fill: var(--opacity, #fff)" opacity=".3" x="23" y="4" width="4" height="8" rx="1"/><rect opacity=".3" x="23" y="32" width="4" height="10" rx="1"/><path fill-rule="evenodd" clip-rule="evenodd" d="M30.986 16.088c-.557-.71-1.286-1.273-2.185-1.69-.9-.419-1.767-.628-2.603-.628-.43 0-.868.038-1.311.114a3.384 3.384 0 0 0-1.197.437 2.958 2.958 0 0 0-.893.836c-.24.342-.361.78-.361 1.311 0 .456.095.836.285 1.14.19.304.469.57.836.798a7.45 7.45 0 0 0 1.311.627c.507.19 1.077.386 1.71.59.912.303 1.862.639 2.85 1.006s1.887.855 2.698 1.463a7.681 7.681 0 0 1 2.014 2.261c.532.9.798 2.02.798 3.363 0 1.546-.285 2.882-.855 4.01a7.995 7.995 0 0 1-2.299 2.792 9.852 9.852 0 0 1-3.306 1.634 13.9 13.9 0 0 1-3.838.532c-1.925 0-3.787-.336-5.586-1.007-1.799-.671-3.293-1.627-4.484-2.869l4.256-4.332c.659.81 1.526 1.488 2.603 2.033 1.077.545 2.147.817 3.211.817.481 0 .95-.05 1.406-.152a3.507 3.507 0 0 0 1.197-.494c.342-.228.614-.532.817-.912.203-.38.304-.836.304-1.368 0-.507-.127-.937-.38-1.292s-.614-.678-1.083-.969c-.469-.291-1.051-.557-1.748-.798-.697-.24-1.488-.5-2.375-.779a22.696 22.696 0 0 1-2.527-.988 8.458 8.458 0 0 1-2.204-1.463 6.774 6.774 0 0 1-1.558-2.166c-.393-.849-.589-1.88-.589-3.097 0-1.495.304-2.774.912-3.838a7.928 7.928 0 0 1 2.394-2.622 10.284 10.284 0 0 1 3.344-1.5 15.161 15.161 0 0 1 3.762-.476c1.52 0 3.072.279 4.655.836 1.583.557 2.97 1.38 4.161 2.47l-4.142 4.37Z"/></symbol><symbol id="door hanger" viewBox="0 0 49 49"><path style="fill: var(--opacity, #fff)" opacity=".3" fill-rule="evenodd" clip-rule="evenodd" d="M24.817 8.261c4.982-3.12 11.63-2.513 15.963 1.82 4.334 4.334 4.334 11.361 0 15.695L19.653 46.903c-.4.4-1.048.4-1.448 0L2.584 31.282a.884.884 0 0 1 0-1.25l19.173-19.174 4.484 4.484a6 6 0 1 0 2.828-2.828L24.818 8.26Z"/><rect opacity=".3" x="16.101" y="22.172" width="16" height="4" rx="1" transform="rotate(45 16.1 22.172)"/><rect opacity=".3" x="11.858" y="29.243" width="12" height="4" rx="1" transform="rotate(45 11.858 29.243)"/></symbol><symbol id="euro" viewBox="0 0 48 48"><path style="fill: var(--opacity, #fff)" opacity=".3" fill-rule="evenodd" clip-rule="evenodd" d="M8.809 22a.5.5 0 0 1-.447-.724l1.5-3a.5.5 0 0 1 .447-.276h20.882a.5.5 0 0 1 .447.724l-1.5 3a.5.5 0 0 1-.447.276H8.809Zm20.382 4a.5.5 0 0 1 .447.724l-1.5 3a.5.5 0 0 1-.447.276H8.809a.5.5 0 0 1-.447-.724l1.5-3a.5.5 0 0 1 .447-.276h18.882Z"/><path fill-rule="evenodd" clip-rule="evenodd" d="M34.738 15.236a6.776 6.776 0 0 0-3.066-2.33c-1.26-.49-2.492-.736-3.696-.736-1.54 0-2.94.28-4.2.84a9.844 9.844 0 0 0-3.255 2.31c-.91.98-1.61 2.128-2.1 3.444-.49 1.316-.735 2.744-.735 4.284 0 1.624.238 3.108.714 4.452.476 1.344 1.155 2.5 2.037 3.465a9.152 9.152 0 0 0 3.171 2.247c1.232.532 2.618.798 4.158.798 1.596 0 3.01-.315 4.242-.945 1.232-.63 2.226-1.463 2.982-2.499l4.242 2.982a13.591 13.591 0 0 1-4.83 3.843c-1.904.91-4.13 1.365-6.678 1.365-2.324 0-4.459-.385-6.405-1.155-1.946-.77-3.619-1.848-5.019-3.234s-2.492-3.038-3.276-4.956c-.784-1.918-1.176-4.039-1.176-6.363 0-2.38.413-4.529 1.239-6.447.826-1.918 1.96-3.549 3.402-4.893 1.442-1.344 3.143-2.38 5.103-3.108 1.96-.728 4.088-1.092 6.384-1.092.952 0 1.946.091 2.982.273a15.17 15.17 0 0 1 2.982.84 14.43 14.43 0 0 1 2.688 1.407 8.65 8.65 0 0 1 2.142 2.016l-4.032 3.192Z"/></symbol><symbol id="gift" viewBox="0 0 48 48"><path fill-rule="evenodd" clip-rule="evenodd" d="M6 13a1 1 0 0 1 1-1h34a1 1 0 0 1 1 1v4a1 1 0 0 1-1 1H7a1 1 0 0 1-1-1v-4Zm2 10a1 1 0 0 1 1-1h12a1 1 0 0 1 1 1v16a1 1 0 0 1-1 1H9a1 1 0 0 1-1-1V23Zm19-1a1 1 0 0 0-1 1v16a1 1 0 0 0 1 1h12a1 1 0 0 0 1-1V23a1 1 0 0 0-1-1H27Z"/><path style="fill: var(--opacity, #fff)" opacity=".3" d="M28.89 4.336a2 2 0 0 1 2.22 3.328L24 12.404l-7.11-4.74a2 2 0 1 1 2.22-3.328L24 7.596l4.89-3.26Z"/></symbol><symbol id="loader" viewBox="0 0 48 48"><path style="fill: var(--opacity, #fff)" opacity=".3" fill-rule="evenodd" clip-rule="evenodd" d="M9.5 8A1.5 1.5 0 0 0 8 9.5v1A1.5 1.5 0 0 0 9.5 12H14v22.5a1.5 1.5 0 0 0 1.5 1.5h.5v.5a1.5 1.5 0 0 0 1.5 1.5h19a1.5 1.5 0 0 0 1.5-1.5v-1a1.5 1.5 0 0 0-1.5-1.5H18V9.5A1.5 1.5 0 0 0 16.5 8h-7Z"/><rect opacity=".3" x="22" y="14" width="16" height="16" rx="1.5"/><path fill-rule="evenodd" clip-rule="evenodd" d="M16 42a6 6 0 1 0 0-12 6 6 0 0 0 0 12Z"/></symbol><symbol id="mc" viewBox="0 0 48 48"><path style="fill: var(--opacity, #fff)" opacity=".3" d="m21.645 16.739 3.82 2.907A7.18 7.18 0 0 1 31.2 16.8a7.2 7.2 0 0 1 0 14.4 7.167 7.167 0 0 1-5.285-2.31l-3.522 3.26A11.968 11.968 0 0 0 31.2 36c6.627 0 12-5.373 12-12s-5.373-12-12-12a11.981 11.981 0 0 0-9.555 4.739Z"/><path fill-rule="evenodd" clip-rule="evenodd" d="M16.8 36c-6.627 0-12-5.373-12-12s5.373-12 12-12 12 5.373 12 12-5.373 12-12 12Z"/></symbol><symbol id="money" viewBox="0 0 49 48"><path style="fill: var(--opacity, #fff)" opacity=".3" fill-rule="evenodd" clip-rule="evenodd" d="M7.787 7.232a1 1 0 0 0-1.224.708L.869 29.19a1 1 0 0 0 .707 1.225l38.637 10.352a1 1 0 0 0 1.224-.707l5.695-21.25a1 1 0 0 0-.708-1.225L7.787 7.232Zm23.94 18.838a8 8 0 1 1-15.454-4.14 8 8 0 0 1 15.454 4.14Z"/><path fill-rule="evenodd" clip-rule="evenodd" d="M4 12a1 1 0 0 0-1 1v22a1 1 0 0 0 1 1h40a1 1 0 0 0 1-1V13a1 1 0 0 0-1-1H4Zm28 12a8 8 0 1 1-16 0 8 8 0 0 1 16 0Zm-8 4a4 4 0 1 0 0-8 4 4 0 0 0 0 8Z"/></symbol><symbol id="pound" viewBox="0 0 48 48"><path fill-rule="evenodd" clip-rule="evenodd" d="M15.65 20.45c-1.25-1.5-1.95-3.65-1.95-5.7 0-5.65 4.6-10.65 11-10.65 6.021 0 10.627 4.527 11.026 10.238a.483.483 0 0 1-.489.512H30.65a.531.531 0 0 1-.519-.5c-.22-2.91-2.355-5.15-5.431-5.15-3.2 0-5.5 2.35-5.5 5.55 0 1.783.833 3.373 2.135 4.418.136.11.065 15.682.065 15.682h14.42a.5.5 0 0 1 .465.681l-1.611 4.15a.5.5 0 0 1-.466.32H12.1a.5.5 0 0 1-.5-.5v-4.15a.5.5 0 0 1 .5-.5h3.75v-9.9l-.2-4.5Z"/><path style="fill: var(--opacity, #fff)" opacity=".3" fill-rule="evenodd" clip-rule="evenodd" d="M8.809 24a.5.5 0 0 1-.447-.724l1.5-3a.5.5 0 0 1 .447-.276h20.882a.5.5 0 0 1 .447.724l-1.5 3a.5.5 0 0 1-.447.276H8.809Z"/></symbol><symbol id="rouble" viewBox="0 0 48 48"><path style="fill: var(--opacity, #fff)" opacity=".3" fill-rule="evenodd" clip-rule="evenodd" d="M10.809 34a.5.5 0 0 1-.447-.724l1.5-3a.5.5 0 0 1 .447-.276h20.882a.5.5 0 0 1 .447.724l-1.5 3a.5.5 0 0 1-.447.276H10.809Z"/><path fill-rule="evenodd" clip-rule="evenodd" d="M16 7.432h10.214c1.87 0 3.557.169 5.06.506 1.503.337 2.79.89 3.864 1.656a7.71 7.71 0 0 1 2.484 2.944c.583 1.196.874 2.637.874 4.324 0 1.81-.337 3.327-1.012 4.554a8.213 8.213 0 0 1-2.737 2.967c-1.15.751-2.492 1.296-4.025 1.633a22.652 22.652 0 0 1-4.876.506h-4.462V40H16V7.432Zm9.432 14.214c.95 0 1.855-.07 2.714-.207.859-.138 1.625-.384 2.3-.736a4.204 4.204 0 0 0 1.61-1.45c.399-.613.598-1.41.598-2.391 0-.95-.2-1.725-.598-2.323a4.133 4.133 0 0 0-1.587-1.403c-.66-.337-1.41-.56-2.254-.667a20.557 20.557 0 0 0-2.599-.161h-4.232v9.338h4.048Z"/></symbol><symbol id="safe" viewBox="0 0 48 48"><path style="fill: var(--opacity, #fff)" opacity=".3" fill-rule="evenodd" clip-rule="evenodd" d="M11.5 32a1.5 1.5 0 0 0-1.5 1.5v7a1.5 1.5 0 0 0 1.5 1.5h5a1.5 1.5 0 0 0 1.5-1.5v-7a1.5 1.5 0 0 0-1.5-1.5h-5Zm20 0a1.5 1.5 0 0 0-1.5 1.5v7a1.5 1.5 0 0 0 1.5 1.5h5a1.5 1.5 0 0 0 1.5-1.5v-7a1.5 1.5 0 0 0-1.5-1.5h-5Z"/><path fill-rule="evenodd" clip-rule="evenodd" d="M8 8a2 2 0 0 0-2 2v26a2 2 0 0 0 2 2h32a2 2 0 0 0 2-2V10a2 2 0 0 0-2-2H8Zm30 15a7 7 0 1 1-14 0 7 7 0 0 1 14 0Zm-7 3a3 3 0 1 0 0-6 3 3 0 0 0 0 6ZM13 16a1 1 0 0 0-1 1v6a1 1 0 0 0 1 1h2a1 1 0 0 0 1-1v-6a1 1 0 0 0-1-1h-2Z"/></symbol><symbol id="sale#1" viewBox="0 0 48 48"><path d="M36.472 11.21a3 3 0 0 0-4.241-.002L10.626 32.78a2 2 0 0 0-.002 2.83l1.78 1.78a2 2 0 0 0 2.83-.002l21.571-21.605a3 3 0 0 0-.001-4.24l-.332-.333Z"/><path style="fill: var(--opacity, #fff)" opacity=".3" fill-rule="evenodd" clip-rule="evenodd" d="M13.86 19.714a5.854 5.854 0 0 0 5.854-5.857A5.854 5.854 0 0 0 13.86 8 5.859 5.859 0 0 0 8 13.857a5.859 5.859 0 0 0 5.86 5.857ZM34.146 40A5.854 5.854 0 0 0 40 34.143a5.85 5.85 0 0 0-5.854-5.857 5.855 5.855 0 0 0-5.86 5.857A5.859 5.859 0 0 0 34.146 40Z"/></symbol><symbol id="sale#2" viewBox="0 0 48 48"><path style="fill: var(--opacity, #fff)" opacity=".3" fill-rule="evenodd" clip-rule="evenodd" d="m24 40.044-7.053 3.413-3.209-7.148-7.597-1.919 2.137-7.539-4.587-6.353 6.483-4.401.57-7.815 7.796.795L24 3.457l5.46 5.62 7.795-.795.57 7.815 6.483 4.401-4.586 6.353 2.137 7.539-7.597 1.919-3.209 7.148L24 40.044Z"/><path fill-rule="evenodd" clip-rule="evenodd" d="M28.178 17.205 16.722 29.403l2.695 2.696L30.874 19.9l-2.696-2.696Z"/><path opacity=".3" fill-rule="evenodd" clip-rule="evenodd" d="M21.709 18.35a3.438 3.438 0 1 1-6.873-.001 3.438 3.438 0 0 1 6.873.002ZM29.728 33.244a3.437 3.437 0 1 1 .001-6.875 3.437 3.437 0 0 1 0 6.875Z"/></symbol><symbol id="settings switch" viewBox="0 0 48 48"><path style="fill: var(--opacity, #fff)" opacity=".3" fill-rule="evenodd" clip-rule="evenodd" d="M8.25 14A2.25 2.25 0 0 0 6 16.25v1.5A2.25 2.25 0 0 0 8.25 20h11.5A2.25 2.25 0 0 0 22 17.75v-1.5A2.25 2.25 0 0 0 19.75 14H8.25Zm18 16A2.25 2.25 0 0 0 24 32.25v1.5A2.25 2.25 0 0 0 26.25 36h11.5A2.25 2.25 0 0 0 40 33.75v-1.5A2.25 2.25 0 0 0 37.75 30h-11.5Z"/><path fill-rule="evenodd" clip-rule="evenodd" d="M40 16a6 6 0 1 1-12 0 6 6 0 0 1 12 0ZM18 32a6 6 0 1 1-12 0 6 6 0 0 1 12 0Z"/></symbol><symbol id="sort#1" viewBox="0 0 48 48"><rect x="8" y="10" width="32" height="6" rx="1.5"/><path style="fill: var(--opacity, #fff)" opacity=".3" fill-rule="evenodd" clip-rule="evenodd" d="M13.5 22a1.5 1.5 0 0 0-1.5 1.5v3a1.5 1.5 0 0 0 1.5 1.5h21a1.5 1.5 0 0 0 1.5-1.5v-3a1.5 1.5 0 0 0-1.5-1.5h-21Zm6 12a1.5 1.5 0 0 0-1.5 1.5v3a1.5 1.5 0 0 0 1.5 1.5h9a1.5 1.5 0 0 0 1.5-1.5v-3a1.5 1.5 0 0 0-1.5-1.5h-9Z"/></symbol><symbol id="sort#2" viewBox="0 0 48 48"><path fill-rule="evenodd" clip-rule="evenodd" d="M8 14a2 2 0 0 1 2-2h2a2 2 0 0 1 2 2v24a2 2 0 0 1-2 2h-2a2 2 0 0 1-2-2V14Zm12 10a2 2 0 0 1 2-2h2a2 2 0 0 1 2 2v14a2 2 0 0 1-2 2h-2a2 2 0 0 1-2-2V24Zm14 6a2 2 0 0 0-2 2v6a2 2 0 0 0 2 2h2a2 2 0 0 0 2-2v-6a2 2 0 0 0-2-2h-2Z"/></symbol><symbol id="sort#3" viewBox="0 0 48 48"><path fill-rule="evenodd" clip-rule="evenodd" d="M34 14a2 2 0 0 1 2-2h2a2 2 0 0 1 2 2v24a2 2 0 0 1-2 2h-2a2 2 0 0 1-2-2V14ZM22 24a2 2 0 0 1 2-2h2a2 2 0 0 1 2 2v14a2 2 0 0 1-2 2h-2a2 2 0 0 1-2-2V24Zm-10 6a2 2 0 0 0-2 2v6a2 2 0 0 0 2 2h2a2 2 0 0 0 2-2v-6a2 2 0 0 0-2-2h-2Z"/></symbol><symbol id="tag" viewBox="0 0 48 48"><path style="fill: var(--opacity, #fff)" opacity=".3" fill-rule="evenodd" clip-rule="evenodd" d="M19.934 40.946 7.045 28.057a3.595 3.595 0 0 1 0-5.069l16.18-15.907a3.595 3.595 0 0 1 2.52-1.031h12.91a3.595 3.595 0 0 1 3.595 3.595v12.872c0 .964-.388 1.889-1.076 2.564L25.02 40.947a3.595 3.595 0 0 1-5.087 0Zm17.522-26.508a3.595 3.595 0 1 1-7.19 0 3.595 3.595 0 0 1 7.19 0Z"/></symbol><symbol id="ticket" viewBox="0 0 48 48"><path style="fill: var(--opacity, #fff)" opacity=".3" fill-rule="evenodd" clip-rule="evenodd" d="M12.272 22.172 4.494 29.95a1 1 0 0 0 0 1.414L8.1 34.97a5.002 5.002 0 0 1 6.93 6.93l3.606 3.606a1 1 0 0 0 1.414 0l7.778-7.778-3.535-3.536a1 1 0 0 1 0-1.414l1.414-1.414a1 1 0 0 1 1.414 0l3.536 3.535 14.85-14.849a1 1 0 0 0 0-1.414L41.9 15.03a5.002 5.002 0 0 1-6.93-6.93l-3.606-3.606a1 1 0 0 0-1.414 0L15.1 19.343l3.536 3.536a1 1 0 0 1 0 1.414l-1.414 1.414a1 1 0 0 1-1.414 0l-3.536-3.535Zm6.364 6.363a1 1 0 0 1 0-1.414l1.414-1.414a1 1 0 0 1 1.414 0l2.829 2.828a1 1 0 0 1 0 1.415l-1.414 1.414a1 1 0 0 1-1.415 0l-2.828-2.829Z"/></symbol><symbol id="wallet#1" viewBox="0 0 48 48"><rect style="fill: var(--opacity, #fff)" opacity=".3" x="4" y="4" width="20" height="24" rx="2"/><path fill-rule="evenodd" clip-rule="evenodd" d="M6 12a2 2 0 0 0-2 2v28a2 2 0 0 0 2 2h36a2 2 0 0 0 2-2V14a2 2 0 0 0-2-2H6Zm34 16a4 4 0 1 1-8 0 4 4 0 0 1 8 0Z"/></symbol><symbol id="wallet#2" viewBox="0 0 48 48"><path style="fill: var(--opacity, #fff)" opacity=".3" fill-rule="evenodd" clip-rule="evenodd" d="M41 28a3 3 0 1 0 0-6 3 3 0 0 0 0 6Z"/><rect opacity=".3" x="4.802" y="10.897" width="36" height="14" rx="1" transform="rotate(-15 4.802 10.897)"/><path fill-rule="evenodd" clip-rule="evenodd" d="M6 8a2 2 0 0 0-2 2v28a2 2 0 0 0 2 2h36a2 2 0 0 0 2-2v-6.674a7 7 0 1 1 0-12.653V10a2 2 0 0 0-2-2H6Z"/></symbol><symbol id="wallet#3" viewBox="0 0 48 48"><path style="fill: var(--opacity, #fff)" opacity=".3" fill-rule="evenodd" clip-rule="evenodd" d="M8 8h32a4 4 0 0 1 4 4v24a4 4 0 0 1-4 4H8a4 4 0 0 1-4-4V12a4 4 0 0 1 4-4Z"/><path fill-rule="evenodd" clip-rule="evenodd" d="M37 22H11a3 3 0 0 0-3 3v1h9.172a2 2 0 0 1 1.414.586l2 2a4.828 4.828 0 0 0 6.828 0l2-2A2 2 0 0 1 30.828 26H40v-1a3 3 0 0 0-3-3ZM11 12a3 3 0 0 0-3 3v1h32v-1a3 3 0 0 0-3-3H11Z"/></symbol></svg>