<?xml version="1.0" encoding="UTF-8"?><!DOCTYPE svg PUBLIC "-//W3C//DTD SVG 1.1//EN" "http://www.w3.org/Graphics/SVG/1.1/DTD/svg11.dtd"><svg xmlns="http://www.w3.org/2000/svg" xmlns:xlink="http://www.w3.org/1999/xlink"><defs/><symbol id="align-auto" viewBox="0 0 48 48"><path style="fill: var(--opacity, #fff)" opacity=".3" fill-rule="evenodd" clip-rule="evenodd" d="M19.235 10H5.5A1.5 1.5 0 0 0 4 11.5v1A1.5 1.5 0 0 0 5.5 14h11.97l1.765-4Zm-3.53 8H5.5A1.5 1.5 0 0 0 4 19.5v1A1.5 1.5 0 0 0 5.5 22h8.441l1.765-4Zm18.354 4-1.765-4H42.5a1.5 1.5 0 0 1 1.5 1.5v1a1.5 1.5 0 0 1-1.5 1.5h-8.441Zm-21.882 4H5.5A1.5 1.5 0 0 0 4 27.5v1A1.5 1.5 0 0 0 5.5 30h4.912l1.764-4Zm25.411 4-1.764-4H42.5a1.5 1.5 0 0 1 1.5 1.5v1a1.5 1.5 0 0 1-1.5 1.5h-4.912Zm-28.94 4H5.5A1.5 1.5 0 0 0 4 35.5v1A1.5 1.5 0 0 0 5.5 38h1.382l1.765-4Zm32.47 4-1.765-4H42.5a1.5 1.5 0 0 1 1.5 1.5v1a1.5 1.5 0 0 1-1.5 1.5h-1.382ZM30.529 14l-1.764-4H42.5a1.5 1.5 0 0 1 1.5 1.5v1a1.5 1.5 0 0 1-1.5 1.5H30.53Z"/><path fill-rule="evenodd" clip-rule="evenodd" d="M22.088 10.512h3.924L37 38h-5l-2.568-7.832H18.38L15 38h-5l12.088-27.488Zm5.76 15.768-3.924-10.368-3.996 10.368h7.92Z"/></symbol><symbol id="align-center" viewBox="0 0 48 48"><path style="fill: var(--opacity, #fff)" opacity=".3" fill-rule="evenodd" clip-rule="evenodd" d="M9.5 10A1.5 1.5 0 0 0 8 11.5v1A1.5 1.5 0 0 0 9.5 14h29a1.5 1.5 0 0 0 1.5-1.5v-1a1.5 1.5 0 0 0-1.5-1.5h-29Zm0 16A1.5 1.5 0 0 0 8 27.5v1A1.5 1.5 0 0 0 9.5 30h29a1.5 1.5 0 0 0 1.5-1.5v-1a1.5 1.5 0 0 0-1.5-1.5h-29Z"/><path fill-rule="evenodd" clip-rule="evenodd" d="M15.5 18a1.5 1.5 0 0 0-1.5 1.5v1a1.5 1.5 0 0 0 1.5 1.5h17a1.5 1.5 0 0 0 1.5-1.5v-1a1.5 1.5 0 0 0-1.5-1.5h-17Zm0 16a1.5 1.5 0 0 0-1.5 1.5v1a1.5 1.5 0 0 0 1.5 1.5h17a1.5 1.5 0 0 0 1.5-1.5v-1a1.5 1.5 0 0 0-1.5-1.5h-17Z"/></symbol><symbol id="align-justify" viewBox="0 0 48 48"><path style="fill: var(--opacity, #fff)" opacity=".3" fill-rule="evenodd" clip-rule="evenodd" d="M9.5 10A1.5 1.5 0 0 0 8 11.5v1A1.5 1.5 0 0 0 9.5 14h29a1.5 1.5 0 0 0 1.5-1.5v-1a1.5 1.5 0 0 0-1.5-1.5h-29Zm0 16A1.5 1.5 0 0 0 8 27.5v1A1.5 1.5 0 0 0 9.5 30h29a1.5 1.5 0 0 0 1.5-1.5v-1a1.5 1.5 0 0 0-1.5-1.5h-29Z"/><path fill-rule="evenodd" clip-rule="evenodd" d="M9.5 18A1.5 1.5 0 0 0 8 19.5v1A1.5 1.5 0 0 0 9.5 22h29a1.5 1.5 0 0 0 1.5-1.5v-1a1.5 1.5 0 0 0-1.5-1.5h-29Zm0 16A1.5 1.5 0 0 0 8 35.5v1A1.5 1.5 0 0 0 9.5 38h29a1.5 1.5 0 0 0 1.5-1.5v-1a1.5 1.5 0 0 0-1.5-1.5h-29Z"/></symbol><symbol id="align-left" viewBox="0 0 48 48"><rect style="fill: var(--opacity, #fff)" opacity=".3" x="8" y="10" width="32" height="4" rx="1.5"/><rect opacity=".3" x="8" y="26" width="32" height="4" rx="1.5"/><path fill-rule="evenodd" clip-rule="evenodd" d="M9.5 18A1.5 1.5 0 0 0 8 19.5v1A1.5 1.5 0 0 0 9.5 22h17a1.5 1.5 0 0 0 1.5-1.5v-1a1.5 1.5 0 0 0-1.5-1.5h-17Zm0 16A1.5 1.5 0 0 0 8 35.5v1A1.5 1.5 0 0 0 9.5 38h17a1.5 1.5 0 0 0 1.5-1.5v-1a1.5 1.5 0 0 0-1.5-1.5h-17Z"/></symbol><symbol id="align-right" viewBox="0 0 48 48"><path style="fill: var(--opacity, #fff)" opacity=".3" fill-rule="evenodd" clip-rule="evenodd" d="M9.5 10A1.5 1.5 0 0 0 8 11.5v1A1.5 1.5 0 0 0 9.5 14h29a1.5 1.5 0 0 0 1.5-1.5v-1a1.5 1.5 0 0 0-1.5-1.5h-29Zm0 16A1.5 1.5 0 0 0 8 27.5v1A1.5 1.5 0 0 0 9.5 30h29a1.5 1.5 0 0 0 1.5-1.5v-1a1.5 1.5 0 0 0-1.5-1.5h-29Z"/><path fill-rule="evenodd" clip-rule="evenodd" d="M21.5 18a1.5 1.5 0 0 0-1.5 1.5v1a1.5 1.5 0 0 0 1.5 1.5h17a1.5 1.5 0 0 0 1.5-1.5v-1a1.5 1.5 0 0 0-1.5-1.5h-17Zm0 16a1.5 1.5 0 0 0-1.5 1.5v1a1.5 1.5 0 0 0 1.5 1.5h17a1.5 1.5 0 0 0 1.5-1.5v-1a1.5 1.5 0 0 0-1.5-1.5h-17Z"/></symbol><symbol id="article" viewBox="0 0 48 48"><rect x="8" y="10" width="32" height="6" rx="1.5"/><path style="fill: var(--opacity, #fff)" opacity=".3" fill-rule="evenodd" clip-rule="evenodd" d="M9.5 20A1.5 1.5 0 0 0 8 21.5v3A1.5 1.5 0 0 0 9.5 26h17a1.5 1.5 0 0 0 1.5-1.5v-3a1.5 1.5 0 0 0-1.5-1.5h-17Zm0 10A1.5 1.5 0 0 0 8 31.5v3A1.5 1.5 0 0 0 9.5 36h29a1.5 1.5 0 0 0 1.5-1.5v-3a1.5 1.5 0 0 0-1.5-1.5h-29Z"/></symbol><symbol id="bold" viewBox="0 0 48 48"><path fill-rule="evenodd" clip-rule="evenodd" d="M14.68 38V9.6h10.68c4.64 0 8.44 3.8 8.44 8.44 0 2-.76 3.64-2 4.88 2.4 1.28 4 3.6 4 6.64 0 4.68-3.8 8.44-8.6 8.44H14.68Zm6.4-5.88h5.52c1.72 0 2.96-1.24 2.96-2.8 0-1.56-1.24-2.84-2.96-2.84h-5.52v5.64Zm0-11.04h3.56c1.72 0 2.96-1.24 2.96-2.8 0-1.56-1.24-2.84-2.96-2.84h-3.56v5.64Z"/></symbol><symbol id="bullet-list" viewBox="0 0 48 48"><path fill-rule="evenodd" clip-rule="evenodd" d="M18 11.5a1.5 1.5 0 0 1 1.5-1.5h21a1.5 1.5 0 0 1 1.5 1.5v3a1.5 1.5 0 0 1-1.5 1.5h-21a1.5 1.5 0 0 1-1.5-1.5v-3Zm0 10a1.5 1.5 0 0 1 1.5-1.5h21a1.5 1.5 0 0 1 1.5 1.5v3a1.5 1.5 0 0 1-1.5 1.5h-21a1.5 1.5 0 0 1-1.5-1.5v-3Zm1.5 8.5a1.5 1.5 0 0 0-1.5 1.5v3a1.5 1.5 0 0 0 1.5 1.5h21a1.5 1.5 0 0 0 1.5-1.5v-3a1.5 1.5 0 0 0-1.5-1.5h-21Z"/><path style="fill: var(--opacity, #fff)" opacity=".3" fill-rule="evenodd" clip-rule="evenodd" d="M11 16a3 3 0 1 0 0-6 3 3 0 0 0 0 6Zm0 10a3 3 0 1 0 0-6 3 3 0 0 0 0 6Zm3 7a3 3 0 1 1-6 0 3 3 0 0 1 6 0Z"/></symbol><symbol id="code" viewBox="0 0 48 48"><path fill-rule="evenodd" clip-rule="evenodd" d="M17.37 14.544a2 2 0 0 1 .086 2.827l-6.71 7.129 6.71 7.13a2 2 0 1 1-2.912 2.74l-8-8.5a2 2 0 0 1 0-2.74l8-8.5a2 2 0 0 1 2.827-.086Zm13.26 0a2 2 0 0 0-.086 2.827l6.71 7.129-6.71 7.13a2 2 0 1 0 2.912 2.74l8-8.5a2 2 0 0 0 0-2.74l-8-8.5a2 2 0 0 0-2.827-.086Z"/></symbol><symbol id="edit-text" viewBox="0 0 48 48"><path style="fill: var(--opacity, #fff)" opacity=".3" fill-rule="evenodd" clip-rule="evenodd" d="M10 38H6v4h4v-4Zm10 0h-4v4h4v-4Zm6 0h4v4h-4v-4Zm14 0h-4v4h4v-4Z"/><path fill-rule="evenodd" clip-rule="evenodd" d="M21.008 6.512h3.924L35.912 32h-5.184l-2.376-5.832H17.3L14.996 32H9.92L21.008 6.512Zm5.76 15.768-3.924-10.368-3.996 10.368h7.92Z"/></symbol><symbol id="filter" viewBox="0 0 48 48"><path fill-rule="evenodd" clip-rule="evenodd" d="M8.6 8.8A.5.5 0 0 1 9 8h30a.5.5 0 0 1 .4.8L28 24v17.191a.5.5 0 0 1-.724.447L20 38V24L8.6 8.8Z"/></symbol><symbol id="font" viewBox="0 0 48 48"><path fill-rule="evenodd" clip-rule="evenodd" d="M.36 38 14.2 9.28 28.04 38h-3.92l-3.52-7.44H7.8L4.28 38H.36ZM14.2 17.04 9.4 27.2H19l-4.8-10.16Z"/><path style="fill: var(--opacity, #fff)" opacity=".3" fill-rule="evenodd" clip-rule="evenodd" d="M42.68 36v2h3.44V18h-3.44v2c-1.68-1.52-3.92-2.32-6.36-2.32-5.88 0-10.2 4.52-10.2 10.32 0 5.8 4.32 10.32 10.2 10.32 2.44 0 4.68-.8 6.36-2.32Zm0-4.16c-1.16 1.88-3.4 3.24-6.28 3.24-3.92 0-6.72-3.12-6.72-7.08s2.8-7.08 6.72-7.08c2.88 0 5.12 1.36 6.28 3.24v7.68Z"/></symbol><symbol id="h1" viewBox="0 0 48 48"><path fill-rule="evenodd" clip-rule="evenodd" d="M9.268 38V11.02h3.458v11.514h14.896V11.02h3.458V38h-3.458V25.878H12.726V38H9.268Z"/><path style="fill: var(--opacity, #fff)" opacity=".3" fill-rule="evenodd" clip-rule="evenodd" d="M37.996 38V13.984l3.268-3.268V38h-3.268Z"/></symbol><symbol id="h2" viewBox="0 0 48 48"><path fill-rule="evenodd" clip-rule="evenodd" d="M3.268 38V11.02h3.458v11.514h14.896V11.02h3.458V38h-3.458V25.878H6.726V38H3.268Z"/><path style="fill: var(--opacity, #fff)" opacity=".3" fill-rule="evenodd" clip-rule="evenodd" d="M39.748 26.638 29.298 38h17.746v-3.04H36.138l6.232-6.916c3.268-3.534 4.674-6.042 4.674-9.234 0-4.56-3.61-8.094-8.208-8.094-4.598 0-8.17 3.534-8.17 8.094 0 4.294 3.23 7.828 7.828 7.942.456 0 .798-.038 1.254-.114Zm4.066-7.828c0 2.926-2.09 5.092-4.978 5.092-2.926 0-4.94-2.166-4.94-5.092 0-2.888 2.014-5.092 4.94-5.092 2.888 0 4.978 2.204 4.978 5.092Z"/></symbol><symbol id="itallic" viewBox="0 0 48 48"><path fill-rule="evenodd" clip-rule="evenodd" d="m20 38 6-28h4l-6 28h-4Z"/></symbol><symbol id="menu" viewBox="0 0 48 48"><rect x="8" y="10" width="32" height="6" rx="1.5"/><path style="fill: var(--opacity, #fff)" opacity=".3" fill-rule="evenodd" clip-rule="evenodd" d="M9.5 20A1.5 1.5 0 0 0 8 21.5v3A1.5 1.5 0 0 0 9.5 26h29a1.5 1.5 0 0 0 1.5-1.5v-3a1.5 1.5 0 0 0-1.5-1.5h-29Zm0 10A1.5 1.5 0 0 0 8 31.5v3A1.5 1.5 0 0 0 9.5 36h29a1.5 1.5 0 0 0 1.5-1.5v-3a1.5 1.5 0 0 0-1.5-1.5h-29Z"/></symbol><symbol id="paragraph" viewBox="0 0 48 48"><path fill-rule="evenodd" clip-rule="evenodd" d="M21.508 39.728V25.08c-5.208 0-9.45-4.242-9.45-9.45 0-5.208 4.242-9.45 9.45-9.45h11.13v33.548h-3.276V9.456h-4.536v30.272h-3.318Z"/></symbol><symbol id="quote#1" viewBox="0 0 48 48"><path fill-rule="evenodd" clip-rule="evenodd" d="m22 14-4 12h4v10H12V26l4-12h6Z"/><path style="fill: var(--opacity, #fff)" opacity=".3" fill-rule="evenodd" clip-rule="evenodd" d="m38 14-4 12h4v10H28V26l4-12h6Z"/></symbol><symbol id="quote#2" viewBox="0 0 48 48"><path fill-rule="evenodd" clip-rule="evenodd" d="m28 36 4-12h-4V14h10v10l-4 12h-6Z"/><path style="fill: var(--opacity, #fff)" opacity=".3" fill-rule="evenodd" clip-rule="evenodd" d="m12 36 4-12h-4V14h10v10l-4 12h-6Z"/></symbol><symbol id="redo" viewBox="0 0 48 48"><path d="M6.13 35.582c0-1.64-.352-8.115 4.756-13.252 3.437-3.457 8.582-4.057 14.734-4.33V7.693a.75.75 0 0 1 1.254-.555l16.14 14.642a.75.75 0 0 1 .005 1.106L26.88 37.834a.75.75 0 0 1-1.26-.55V27c-3.905.107-6.688.356-9.216 1.16-4.958 1.577-7.87 8.417-8.6 10.337a.775.775 0 0 1-.724.503h-.21a.748.748 0 0 1-.748-.75c.003-.913.009-1.997.009-2.668Z"/></symbol><symbol id="strikethrough" viewBox="0 0 48 48"><rect style="fill: var(--opacity, #fff)" opacity=".3" x="8" y="22" width="34" height="4" rx="1"/><path fill-rule="evenodd" clip-rule="evenodd" d="M24.12 38.32c-4.12 0-7.56-2-9.24-4.4l2.76-2.4c1.36 1.76 3.68 3.32 6.44 3.32 3.28 0 5.36-1.52 5.36-4 0-2.6-1.6-3.96-4.64-5.28l-2.6-1.12C17.88 22.6 16 19.96 16 16.4c0-4.32 4.08-7.12 8.28-7.12 3.32 0 6.04 1.32 7.96 3.64l-2.56 2.56c-1.48-1.76-3.04-2.72-5.52-2.72-2.4 0-4.52 1.36-4.52 3.72 0 2.08 1.2 3.48 4.2 4.8l2.6 1.12c3.84 1.68 6.68 4.04 6.68 8.04 0 4.64-3.44 7.88-9 7.88Z"/></symbol><symbol id="text-height" viewBox="0 0 48 48"><path style="fill: var(--opacity, #fff)" opacity=".3" fill-rule="evenodd" clip-rule="evenodd" d="M17 16v21a1 1 0 0 1-1 1h-4a1 1 0 0 1-1-1V16H3a1 1 0 0 1-1-1v-4a1 1 0 0 1 1-1h22a1 1 0 0 1 1 1v4a1 1 0 0 1-1 1h-8Z"/><path fill-rule="evenodd" clip-rule="evenodd" d="M40 9a1 1 0 0 0-1-1h-2a1 1 0 0 0-1 1v.172l-5.414 5.414a2 2 0 1 0 2.828 2.828L36 14.828v18.344l-2.586-2.586a2 2 0 1 0-2.828 2.828L36 38.828V39a1 1 0 0 0 1 1h2a1 1 0 0 0 1-1v-.172l5.414-5.414a2 2 0 1 0-2.828-2.828L40 33.172V14.828l2.586 2.586a2 2 0 1 0 2.828-2.828L40 9.172V9Z"/></symbol><symbol id="text-width" viewBox="0 0 48 48"><path style="fill: var(--opacity, #fff)" opacity=".3" fill-rule="evenodd" clip-rule="evenodd" d="M27 8v21a1 1 0 0 1-1 1h-4a1 1 0 0 1-1-1V8h-8a1 1 0 0 1-1-1V3a1 1 0 0 1 1-1h22a1 1 0 0 1 1 1v4a1 1 0 0 1-1 1h-8Z"/><path fill-rule="evenodd" clip-rule="evenodd" d="M15.414 45.414a2 2 0 0 0 0-2.828L12.828 40h22.344l-2.586 2.586a2 2 0 1 0 2.828 2.828l6-6a2 2 0 0 0 0-2.828l-6-6a2 2 0 1 0-2.828 2.828L35.172 36H12.828l2.586-2.586a2 2 0 1 0-2.828-2.828l-6 6a2 2 0 0 0 0 2.828l6 6a2 2 0 0 0 2.828 0Z"/></symbol><symbol id="text" viewBox="0 0 48 48"><path fill-rule="evenodd" clip-rule="evenodd" d="M27 16v21a1 1 0 0 1-1 1h-4a1 1 0 0 1-1-1V16h-8a1 1 0 0 1-1-1v-4a1 1 0 0 1 1-1h22a1 1 0 0 1 1 1v4a1 1 0 0 1-1 1h-8Z"/></symbol><symbol id="underline" viewBox="0 0 48 48"><path fill-rule="evenodd" clip-rule="evenodd" d="M24.24 38.32c-6.68 0-11.44-4.36-11.44-11.36V9.6h4.64v17.48c0 4.4 2.76 6.84 6.8 6.84S31 31.48 31 27.08V9.6h4.64v17.36c0 7-4.72 11.36-11.4 11.36Z"/><rect style="fill: var(--opacity, #fff)" opacity=".3" x="8" y="42" width="32" height="4" rx="1"/></symbol><symbol id="undo" viewBox="0 0 48 48"><path d="M42.89 35.582c0-1.64.352-8.115-4.756-13.252-3.437-3.457-8.582-4.057-14.734-4.33V7.693a.75.75 0 0 0-1.254-.555L6.006 21.78A.75.75 0 0 0 6 22.886l16.14 14.948a.75.75 0 0 0 1.26-.55V27c3.906.107 6.689.356 9.217 1.16 4.958 1.577 7.87 8.417 8.6 10.337.115.302.4.503.724.503h.209c.414 0 .75-.336.749-.75-.003-.913-.009-1.997-.009-2.668Z"/></symbol></svg>