<?xml version="1.0" encoding="UTF-8"?><!DOCTYPE svg PUBLIC "-//W3C//DTD SVG 1.1//EN" "http://www.w3.org/Graphics/SVG/1.1/DTD/svg11.dtd"><svg xmlns="http://www.w3.org/2000/svg" xmlns:xlink="http://www.w3.org/1999/xlink"><defs><style>.cls-1{fill:#383e3f}</style><style>.cls-3{fill:#fff}</style><style>.cls-5{fill:#d90000}.cls-7{fill:#9b0000}.cls-9{fill:#4c7794}</style></defs><symbol id="github" viewBox="0 0 32 32"><path fill-rule="evenodd" clip-rule="evenodd" fill="#000" d="M16 4.297c-6.63 0-12 5.373-12 12 0 5.303 3.438 9.8 8.205 11.385.6.113.82-.258.82-.577 0-.285-.01-1.04-.015-2.04-3.338.724-4.042-1.61-4.042-1.61C8.422 22.07 7.633 21.7 7.633 21.7c-1.087-.744.084-.729.084-.729 1.205.084 1.838 1.236 1.838 1.236 1.07 1.835 2.809 1.305 3.495.998.108-.776.417-1.305.76-1.605-2.665-.3-5.466-1.332-5.466-5.93 0-1.31.465-2.38 1.235-3.22-.135-.303-.54-1.523.105-3.176 0 0 1.005-.322 3.3 1.23.96-.267 1.98-.399 3-.405 1.02.006 2.04.138 3 .405 2.28-1.552 3.285-1.23 3.285-1.23.645 1.653.24 2.873.12 3.176.765.84 1.23 1.91 1.23 3.22 0 4.61-2.805 5.625-5.475 5.92.42.36.81 1.096.81 2.22 0 1.606-.015 2.896-.015 3.286 0 .315.21.69.825.57C24.565 26.092 28 21.592 28 16.297c0-6.627-5.373-12-12-12"/></symbol><symbol id="google" viewBox="0 0 833.5 844.3"><rect width="833.5" height="844.3" fill="#fff" rx="5%" ry="5%"/><path d="M683.5 428.4c0-18.5-1.5-37.1-4.7-55.3H422.1v104.8h147c-6.1 33.8-25.7 63.7-54.4 82.7v68h87.7c51.5-47.4 81.1-117.4 81.1-200.2z" fill="#4285f4"/><path d="M422.1 694.3c73.4 0 135.3-24.1 180.4-65.7l-87.7-68c-24.4 16.6-55.9 26-92.6 26-71 0-131.2-47.9-152.8-112.3h-90.5v70.1c46.2 91.9 140.3 149.9 243.2 149.9z" fill="#34a853"/><path d="M269.3 474.3c-11.4-33.8-11.4-70.4 0-104.2V300h-90.4c-38.6 76.9-38.6 167.5 0 244.4l90.4-70.1z" fill="#fbbc04"/><path d="M422.1 257.7c38.8-.6 76.3 14 104.4 40.8l77.7-77.7C555 174.6 489.7 149.2 422.1 150c-102.9 0-197 58-243.2 150l90.4 70.1c21.5-64.5 81.8-112.4 152.8-112.4z" fill="#ea4335"/></symbol><symbol id="graviteeio_am" viewBox="20 10 85 100"><path class="cls-1" d="M88.52 61.46a.26.26 0 00-.26-.28l-12.14-.47a1 1 0 00-1.06 1.17c.37 2.58 1.19 8.52 1.16 8.55A15.6 15.6 0 0156 73.21a13.77 13.77 0 01-4.46-4.47 15.61 15.61 0 0112.87-24.11 16.58 16.58 0 0110.35 3.78.6.6 0 001.06-.41v-7.56c-.07-1.32-.25-1.55-.8-1.82a24.85 24.85 0 00-19.67-.45A22.09 22.09 0 0042.82 50.7c-6.57 17 5.82 33.14 22 33.14a23.77 23.77 0 0023.7-22.38zM25.13 32.25a26.34 26.34 0 015.67-.55 46.37 46.37 0 016.74.53 76 76 0 018.92 1.89c.43-.27.87-.53 1.3-.78a77 77 0 00-10.06-2.2c-10.53-1.53-17.7.2-20.26 4.86-1.49 2.75-1.24 6.29.64 10.37a4 4 0 002.48 7 3.92 3.92 0 001.74-.33c.65.84 1.35 1.69 2.12 2.56 1.78 2 6.18 6.29 8.41 8.3l-.11-1.59c-2.22-2-5.7-5.43-7.48-7.44-.72-.82-1.38-1.62-2-2.41a4 4 0 00-2.38-7.12 4.06 4.06 0 00-1.84.39c-.2-.43-.38-.85-.53-1.27-1.2-3.18-1.23-5.87-.08-8s3.4-3.46 6.72-4.21zM101.14 66.44a56.32 56.32 0 00-5-5.06v1.44a41.47 41.47 0 014.21 4.35 35.08 35.08 0 016.75 10.41c1.2 3.18 1.23 5.87.08 8s-3.4 3.55-6.72 4.29a35 35 0 01-12.41 0 58.6 58.6 0 01-8.32-1.7l-1.4.7A62.43 62.43 0 0087.86 91a48.82 48.82 0 006.91.54c6.77 0 11.42-1.85 13.35-5.42 2.54-4.72.06-11.69-6.98-19.68z"/></symbol><symbol id="http" viewBox="0 0 373.71 200"><g id="Layer_2" data-name="Layer 2"><g id="Layer_1-2" data-name="Layer 1"><path d="M326 0H47.73L0 100l47.73 100H326l47.73-100zm-15.95 183.36H58.22L18.43 100l39.79-83.36h251.83L349.84 100z" fill="#008ec7"/><path fill="#005b9b" d="M349.84 100.01l-39.79 83.36H58.22l-39.79-83.36 39.79-83.37h251.83l39.79 83.37z"/><path class="cls-3" d="M128.05 71.89v59.53h-13.78V107h-27v24.41H73.46V71.89h13.77v23.47h27V71.89zM154.5 83.12h-19.05V71.89h51.87v11.23h-19v48.3H154.5zM207.9 83.12h-19.05V71.89h51.87v11.23h-19.05v48.3H207.9zM287.62 74.53a20.45 20.45 0 019 7.48 20.67 20.67 0 013.14 11.48 20.73 20.73 0 01-3.14 11.44 20.06 20.06 0 01-9 7.48 33.55 33.55 0 01-13.74 2.59h-12v16.42h-13.76V71.89h25.76a33.05 33.05 0 0113.74 2.64zm-5.06 26.57a9.33 9.33 0 003.23-7.61c0-3.34-1.08-5.91-3.23-7.69s-5.3-2.68-9.44-2.68h-11.23v20.66h11.23q6.21 0 9.44-2.68z"/></g></g></symbol><symbol id="jdbc" viewBox="0 0 288 288"><path d="M205.5 99c-1.04 0-2.067.054-3.084.144a34.508 34.508 0 00-44.271-22.222 38.995 38.995 0 00-70.1 13.105C87.7 90.017 87.352 90 87 90a39 39 0 000 78h118.5a34.5 34.5 0 000-69z" fill="#d3eef4"/><path d="M205.5 99c-1.04 0-2.067.054-3.084.144A34.5 34.5 0 00149 81.755a32.989 32.989 0 00-52.477 20.434A33 33 0 1093 168h112.5a34.5 34.5 0 000-69z" fill="#bde6ee"/><path d="M115 134.069c-19.33 0-35-2.7-35-6.035v65.173c0 3.333 15.67 6.034 35 6.034s35-2.7 35-6.034v-65.173c0 3.333-15.67 6.035-35 6.035z" fill="#f80000"/><path class="cls-5" d="M80 128.034v65.173c0 3.333 15.67 6.034 35 6.034v-65.172c-19.33 0-35-2.702-35-6.035zM145.172 131.1v65.171c3.067-.9 4.828-1.942 4.828-3.059v-65.178c0 1.117-1.76 2.166-4.828 3.066z"/><ellipse cx="115" cy="128.034" rx="35" ry="6.034" fill="#ba0000"/><path class="cls-7" d="M80 169.069c0 3.333 15.67 6.034 35 6.034s35-2.7 35-6.034v4.831c0 3.332-15.67 6.034-35 6.034s-35-2.7-35-6.034zM150 147.345c0 3.333-15.67 6.034-35 6.034s-35-2.7-35-6.034v4.827c0 3.333 15.67 6.035 35 6.035s35-2.7 35-6.035z"/><rect x="124" y="144" width="84" height="84" rx="8" ry="8" fill="#e8e9e9"/><path class="cls-9" d="M146.568 191.144q0 3.351-1.557 4.777a6.866 6.866 0 01-4.763 1.426 7.125 7.125 0 01-2.749-.455 4.08 4.08 0 01-1.7-1.294 4.858 4.858 0 01-.868-1.955 11.47 11.47 0 01-.235-2.353v-.911h3.881v.646a6.329 6.329 0 00.367 2.485 1.823 1.823 0 003.029 0 6.347 6.347 0 00.367-2.485v-14.993h4.233zM156.771 176.032a7.574 7.574 0 013.557.72 5.127 5.127 0 012.1 2.059 9.127 9.127 0 011.014 3.218 30.29 30.29 0 01.265 4.2 29.886 29.886 0 01-.338 4.808 9.176 9.176 0 01-1.162 3.366 5.1 5.1 0 01-2.2 1.97 8.271 8.271 0 01-3.5.646h-6.674v-20.987zm-.824 17.875a3.621 3.621 0 001.793-.383 2.606 2.606 0 001.073-1.263 7.384 7.384 0 00.53-2.323q.133-1.44.133-3.586 0-1.794-.119-3.147a7.763 7.763 0 00-.485-2.249 2.8 2.8 0 00-1.087-1.352 3.567 3.567 0 00-1.926-.456h-1.794v14.759zM173.881 176.032a10.21 10.21 0 012.4.265 4.894 4.894 0 011.9.882 4.061 4.061 0 011.235 1.646 6.423 6.423 0 01.441 2.529 5.242 5.242 0 01-.794 2.924 3.984 3.984 0 01-2.381 1.661V186a4.163 4.163 0 012.793 1.5 5.2 5.2 0 011.028 3.381 8.393 8.393 0 01-.323 2.351 4.78 4.78 0 01-1.1 1.956 5.511 5.511 0 01-2.028 1.337 8.377 8.377 0 01-3.1.5H166.8v-20.993zm-1.647 8.614a4.186 4.186 0 002.573-.632 2.546 2.546 0 00.808-2.131 2.634 2.634 0 00-.735-2.117 3.575 3.575 0 00-2.322-.618h-1.53v5.5zm.441 9.261a4.131 4.131 0 002.47-.677 2.89 2.89 0 00.941-2.5 3.987 3.987 0 00-.25-1.513 2.553 2.553 0 00-.677-.971 2.441 2.441 0 00-1.013-.514 5.343 5.343 0 00-1.294-.147h-1.824v6.321zM191.859 179.78a2.037 2.037 0 00-1.985-1.044 1.985 1.985 0 00-1.308.427 2.819 2.819 0 00-.808 1.382 11.76 11.76 0 00-.412 2.5q-.117 1.542-.117 3.777a36.684 36.684 0 00.161 3.852 8.526 8.526 0 00.5 2.278 2.076 2.076 0 00.852 1.088 2.45 2.45 0 001.192.279 2.83 2.83 0 001.043-.19 1.765 1.765 0 00.837-.765 4.954 4.954 0 00.559-1.617 14.674 14.674 0 00.206-2.749h4.233a18.891 18.891 0 01-.264 3.234 7.3 7.3 0 01-.985 2.675 4.886 4.886 0 01-2.028 1.794 7.689 7.689 0 01-3.4.647 7.98 7.98 0 01-3.792-.765 5.145 5.145 0 01-2.161-2.2 9.7 9.7 0 01-.971-3.439 44.16 44.16 0 010-8.8 9.74 9.74 0 01.971-3.455 5.427 5.427 0 012.161-2.249 7.618 7.618 0 013.792-.809 7.319 7.319 0 013.572.735 5.009 5.009 0 011.955 1.867 6.479 6.479 0 01.809 2.44 20.254 20.254 0 01.162 2.455H192.4a7.624 7.624 0 00-.541-3.348z"/></symbol><symbol id="linkedin" viewBox="0 0 32 24"><path d="M10.388 21.188H6.034V7.168h4.354v14.02zM8.208 5.255c-1.391 0-2.52-1.153-2.52-2.546a2.521 2.521 0 015.042 0c0 1.393-1.13 2.546-2.521 2.546zm18.475 15.933h-4.345v-6.825c0-1.627-.032-3.713-2.263-3.713-2.264 0-2.61 1.767-2.61 3.595v6.942h-4.35V7.168h4.176V9.08h.06c.582-1.102 2.002-2.264 4.12-2.264 4.406 0 5.216 2.901 5.216 6.67v7.702z"/></symbol><symbol id="microsoft" viewBox="0 0 23 23"><path fill="#f3f3f3" d="M0 0h23v23H0z"/><path fill="#f35325" d="M1 1h10v10H1z"/><path fill="#81bc06" d="M12 1h10v10H12z"/><path fill="#05a6f0" d="M1 12h10v10H1z"/><path fill="#ffba08" d="M12 12h10v10H12z"/></symbol><symbol id="mongodb" viewBox="0 0 216.56 448.5"><path d="M202.8 179.68c-23-101.47-71-128.49-83.18-147.59C113 21.7 106.25 5.91 106.25 5.91c-.66 9-1.83 14.7-9.51 21.54C81.36 41.16 16 94.42 10.51 209.72c-5.12 107.5 79 173.8 90.18 180.65 8.54 4.2 19 .08 24-3.77 40.54-27.84 96-102.07 78.06-206.92" fill="#10aa50"/><path d="M109.73 333.11c-2.11 26.62-3.63 42.11-9 57.29 0 0 3.54 25.33 6 52.17h8.77a488.62 488.62 0 019.57-56.2c-11.36-5.57-14.91-29.91-15.34-53.26z" fill="#b8c4c2"/><path d="M125.06 386.39c-11.48-5.3-14.8-30.13-15.31-53.28a1090.8 1090.8 0 002.45-114.71c-.6-20.07.3-185.92-4.94-210.2 2.12 4.75 7.24 15.91 12.36 23.88 12.23 19.11 60.19 46.13 83.17 147.61 17.91 104.58-37.22 178.68-77.73 206.7z" fill="#12924f"/></symbol><symbol id="oidc" viewBox="0 0 90 90"><g fill="#000"><path d="M41.928 15.65v63.5l11.289-5.313V10.135zM81.023 34.277l1.559 16.18-21.831-4.75"/><path d="M19.35 54.982c0-7.999 8.716-14.735 20.596-16.791v-7.17C21.775 33.217 8.061 43.109 8.061 54.982c0 12.301 14.72 22.475 33.867 24.168v-7.077C29.046 70.458 19.35 63.42 19.35 54.983m35.848-23.96v7.168c4.727.818 8.956 2.373 12.33 4.459l7.983-4.933c-5.44-3.363-12.461-5.745-20.313-6.694"/></g></symbol><symbol id="twitter" viewBox="0 0 400 400"><path d="M153.62 301.59c94.34 0 145.94-78.16 145.94-145.94 0-2.22 0-4.43-.15-6.63A104.36 104.36 0 00325 122.47a102.38 102.38 0 01-29.46 8.07 51.47 51.47 0 0022.55-28.37 102.79 102.79 0 01-32.57 12.45 51.34 51.34 0 00-87.41 46.78A145.62 145.62 0 0192.4 107.81a51.33 51.33 0 0015.88 68.47A50.91 50.91 0 0185 169.86v.65a51.31 51.31 0 0041.15 50.28 51.21 51.21 0 01-23.16.88 51.35 51.35 0 0047.92 35.62 102.92 102.92 0 01-63.7 22 104.41 104.41 0 01-12.21-.74 145.21 145.21 0 0078.62 23"/></symbol></svg>