<?xml version="1.0" encoding="UTF-8"?><!DOCTYPE svg PUBLIC "-//W3C//DTD SVG 1.1//EN" "http://www.w3.org/Graphics/SVG/1.1/DTD/svg11.dtd"><svg xmlns="http://www.w3.org/2000/svg" xmlns:xlink="http://www.w3.org/1999/xlink"><defs/><symbol id="angle grinder" viewBox="0 0 56 57"><path style="fill: var(--opacity, #fff)" opacity=".3" fill-rule="evenodd" clip-rule="evenodd" d="M37.556 18.444c4.296 4.296 4.296 11.26 0 15.556-4.295 4.296-11.26 4.296-15.556 0-4.296-4.296-4.296-11.26 0-15.556 4.296-4.296 11.26-4.296 15.556 0ZM26.95 29.05a4 4 0 1 0 5.657-5.657 4 4 0 0 0-5.657 5.657Zm4.242-1.414a2 2 0 1 0-2.828-2.828 2 2 0 0 0 2.828 2.828Z"/><rect opacity=".3" x="2.908" y="46.021" width="32" height="12" rx="4" transform="rotate(-45 2.908 46.02)"/><path fill-rule="evenodd" clip-rule="evenodd" d="M20.09 15.12c-4.665 6.631-4.636 15.163.496 20.294 5.131 5.132 13.663 5.16 20.294.495L20.09 15.12Zm25.272-4.427-.027-.027-.028-.028.055.055Z"/></symbol><symbol id="axe" viewBox="0 0 48 48"><path style="fill: var(--opacity, #fff)" opacity=".3" fill-rule="evenodd" clip-rule="evenodd" d="M31.192 6.908a1 1 0 0 0-1.414 0L26.95 9.737a1 1 0 0 0 0 1.414l4.242 4.242a1 1 0 0 0 1.415 0l2.828-2.828a1 1 0 0 0 0-1.414l-4.243-4.243ZM2.908 35.192a1 1 0 0 1 0-1.414l21.213-21.213a1 1 0 0 1 1.415 0l4.242 4.243a1 1 0 0 1 0 1.414L8.565 39.435a1 1 0 0 1-1.414 0l-4.243-4.243Zm27.577-3.535 12.728-12.728 2.829 2.828-12.728 12.728-2.829-2.828Z"/><path fill-rule="evenodd" clip-rule="evenodd" d="M41.799 17.515s-7.778-2.122-9.9-4.243l-8.485-8.485-7.07 7.07 8.484 8.486c2.829 2.829 4.243 9.9 4.243 9.9L41.8 17.514Z"/></symbol><symbol id="brush" viewBox="0 0 48 48"><path style="fill: var(--opacity, #fff)" opacity=".3" fill-rule="evenodd" clip-rule="evenodd" d="m32.115 10.231 4.243 4.243-4.95 9.192 9.193-4.95 3.535 3.536a1 1 0 0 1 0 1.414L33.53 34.273l-19.799-19.8L24.337 3.868a1 1 0 0 1 1.414 0l3.536 3.536-1.414 4.242 4.242-1.414Z"/><path fill-rule="evenodd" clip-rule="evenodd" d="m20.32 32.377-6.583 9.404a4 4 0 0 1-6.106.535L5.715 40.4a4 4 0 0 1 .562-6.124l9.444-6.498-6.233-6.233a2 2 0 0 1 0-2.829l2.828-2.828 19.8 19.799-2.829 2.828a2 2 0 0 1-2.828 0l-6.14-6.138ZM9.488 38.515a2 2 0 1 0 2.829-2.828 2 2 0 0 0-2.829 2.828Z"/></symbol><symbol id="compass" viewBox="0 0 48 48"><path style="fill: var(--opacity, #fff)" opacity=".3" fill-rule="evenodd" clip-rule="evenodd" d="M27 3a3 3 0 1 0-6 0v5h6V3Zm-8.064 25.216a13.465 13.465 0 0 1-4.781-3.608L9 36l1 10 8.936-17.784Zm15.187-2.977a13.438 13.438 0 0 1-4.95 3.28L38 46l1-10-4.877-10.76Z"/><path fill-rule="evenodd" clip-rule="evenodd" d="M14 16c0 5.523 4.477 10 10 10s10-4.477 10-10S29.523 6 24 6s-10 4.477-10 10Zm14 0a4 4 0 1 1-8 0 4 4 0 0 1 8 0Z"/></symbol><symbol id="hummer" viewBox="0 0 48 48"><path style="fill: var(--opacity, #fff)" opacity=".3" fill-rule="evenodd" clip-rule="evenodd" d="m36.85 25.293 5.656-5.657a1 1 0 0 1 1.414 0l1.414 1.414a1 1 0 0 1 0 1.414l-5.656 5.657a1 1 0 0 1-1.414 0l-1.415-1.414a1 1 0 0 1 0-1.414ZM6.443 35.899 26.243 16.1a2 2 0 0 1 2.828 0L31.9 18.93a2 2 0 0 1 0 2.828L12.1 41.557a2 2 0 0 1-2.828 0l-2.828-2.83a2 2 0 0 1 0-2.828Z"/><path d="M19.172 9.03c3.905-3.906 10.236-3.906 14.142 0l7.007 7.007a.09.09 0 0 1 0 .128l-6.654 6.653a.5.5 0 0 1-.707 0L19.172 9.03Z"/></symbol><symbol id="hummer#2" viewBox="0 0 48 48"><path style="fill: var(--opacity, #fff)" opacity=".3" fill-rule="evenodd" clip-rule="evenodd" d="m7.03 37.314 19.798-19.8a2 2 0 0 1 2.829 0l2.828 2.83a2 2 0 0 1 0 2.828L12.686 42.97a2 2 0 0 1-2.828 0l-2.829-2.829a2 2 0 0 1 0-2.828Z"/><path fill-rule="evenodd" clip-rule="evenodd" d="m19.757 13.272 7.071-7.071a2 2 0 0 1 2.829 0l14.142 14.142a2 2 0 0 1 0 2.829l-7.071 7.07a2 2 0 0 1-2.828 0L19.757 16.1a2 2 0 0 1 0-2.828Z"/><path opacity=".3" fill-rule="evenodd" clip-rule="evenodd" d="m34.607 9.737 1.414-1.415a1 1 0 0 1 1.414 0l4.243 4.243a1 1 0 0 1 0 1.414l-1.414 1.415a1 1 0 0 1-1.415 0l-4.242-4.243a1 1 0 0 1 0-1.414Z"/></symbol><symbol id="pantone" viewBox="0 0 48 48"><path style="fill: var(--opacity, #fff)" opacity=".3" fill-rule="evenodd" clip-rule="evenodd" d="M44 26.706a.706.706 0 0 0-.706-.706H16a8 8 0 1 0 0 16h27.294c.39 0 .706-.316.706-.706V26.706ZM18 34a4 4 0 1 1-8 0 4 4 0 0 1 8 0Z"/><path opacity=".3" fill-rule="evenodd" clip-rule="evenodd" d="M28.755 9.07a.706.706 0 0 0-.998 0l-19.3 19.3A8 8 0 1 0 19.77 39.685l19.3-19.3a.706.706 0 0 0 0-.998L28.754 9.071ZM18 34a4 4 0 1 1-8 0 4 4 0 0 1 8 0Z"/><path fill-rule="evenodd" clip-rule="evenodd" d="M6.706 6A.706.706 0 0 0 6 6.706V34a8 8 0 1 0 16 0V6.706A.706.706 0 0 0 21.294 6H6.706ZM18 34a4 4 0 1 1-8 0 4 4 0 0 1 8 0Z"/></symbol><symbol id="road-cone" viewBox="0 0 48 48"><path fill-rule="evenodd" clip-rule="evenodd" d="M12.123 8a2 2 0 0 1 2-2h19.755a2 2 0 0 1 2 2v4H12.123V8Zm0 10v6h23.755v-6H12.123Zm0 12h23.755v8H12.123v-8Z"/><rect style="fill: var(--opacity, #fff)" opacity=".3" x="6" y="40" width="36" height="4" rx="1"/></symbol><symbol id="roller" viewBox="0 0 48 48"><rect x="6" y="4" width="30" height="10" rx="1"/><rect x="18" y="24" width="8" height="20" rx="1"/><path style="fill: var(--opacity, #fff)" opacity=".3" d="M24 24h-4v-2a4 4 0 0 1 4-4h14v-7h-2V7h2a4 4 0 0 1 4 4v7a4 4 0 0 1-4 4H24v2Z"/></symbol><symbol id="roullette" viewBox="0 0 48 48"><path fill-rule="evenodd" clip-rule="evenodd" d="M12 10a6 6 0 0 0-6 6v24a2 2 0 0 0 2 2h24a6 6 0 0 0 6-6V18h5a1 1 0 0 0 1-1v-5h-2v2h-4v-2a2 2 0 0 0-2-2H12Zm18 16a8 8 0 1 1-16 0 8 8 0 0 1 16 0Z"/><path style="fill: var(--opacity, #fff)" opacity=".3" d="M22 7a1 1 0 0 1 1-1h8a1 1 0 0 1 1 1v3H22V7Z"/></symbol><symbol id="screwdriver" viewBox="0 0 48 48"><path style="fill: var(--opacity, #fff)" opacity=".3" fill-rule="evenodd" clip-rule="evenodd" d="m16.929 22.586-2.121-2.121a1 1 0 0 1 0-1.415l1.414-1.414a1 1 0 0 1 1.414 0l12.728 12.728a1 1 0 0 1 0 1.414l-1.414 1.415a1 1 0 0 1-1.415 0l-2.12-2.122L14.1 42.385a4 4 0 0 1-5.657 0l-2.829-2.828a4 4 0 0 1 0-5.657L16.93 22.586ZM9.15 36.02a1 1 0 1 0 1.414 1.414l8.485-8.485a1 1 0 0 0-1.414-1.414L9.151 36.02Z"/><path fill-rule="evenodd" clip-rule="evenodd" d="m33.9 11.272-.342-.342a1 1 0 0 1 .335-1.635l5.051-2.02a1 1 0 0 1 1.079.22l.481.482a1 1 0 0 1 .222 1.079l-2.02 5.05a1 1 0 0 1-1.636.337l-.342-.342-11.314 11.313-2.828-2.828L33.9 11.272Z"/></symbol><symbol id="shovel" viewBox="0 0 48 48"><path style="fill: var(--opacity, #fff)" opacity=".3" fill-rule="evenodd" clip-rule="evenodd" d="M11.833 2.226a.5.5 0 0 1 .853.354v7.278L26.828 24 24 26.828 9.858 12.686H2.58a.5.5 0 0 1-.354-.853l4.096-4.096 1.415-1.415 4.096-4.096Z"/><path fill-rule="evenodd" clip-rule="evenodd" d="m33.9 19.757 5.65 6.52a11.034 11.034 0 0 1 2.481 9.39l-.799 3.996a2 2 0 0 1-1.569 1.569l-3.996.8a11.034 11.034 0 0 1-9.39-2.482l-6.52-5.65L33.9 19.757Zm-6.81 12.29c-1.527-1.292-3.464.998-1.938 2.29l4.597 3.89c1.526 1.291 3.464-.999 1.937-2.29l-4.596-3.89Z"/></symbol><symbol id="spatula" viewBox="0 0 48 48"><path style="fill: var(--opacity, #fff)" opacity=".3" d="M28.01 2.02a.5.5 0 0 1 .707 0l16.264 16.262a.5.5 0 0 1 0 .708L31.899 32.07a5 5 0 0 1-7.07 0l-9.9-9.9a5 5 0 0 1 0-7.07L28.01 2.019Z"/><path fill-rule="evenodd" clip-rule="evenodd" d="m22.763 32.834-8.596-8.596-7.778 7.778a5 5 0 0 0 0 7.071l1.525 1.525a5 5 0 0 0 7.07 0l7.779-7.778Zm-9.533 5.013c-1.116 1.116-2.933 1.108-4.06-.018-1.125-1.126-1.134-2.944-.018-4.06 1.116-1.115 2.933-1.107 4.06.02 1.126 1.125 1.134 2.943.018 4.058Z"/></symbol><symbol id="swiss knife" viewBox="0 0 48 48"><path style="fill: var(--opacity, #fff)" opacity=".3" fill-rule="evenodd" clip-rule="evenodd" d="M31.569 28H40V4c-6.627 0-12 5.373-12 12v8.343L15.657 12a8 8 0 0 0 0 11.314l10.299 10.299L31.569 28Z"/><path fill-rule="evenodd" clip-rule="evenodd" d="M7 24a5 5 0 0 0-5 5v8a5 5 0 0 0 5 5h34a5 5 0 0 0 5-5v-8a5 5 0 0 0-5-5H7Zm35 9a3 3 0 1 1-6 0 3 3 0 0 1 6 0Z"/></symbol><symbol id="tools" viewBox="0 0 48 48"><path fill-rule="evenodd" clip-rule="evenodd" d="m31.9 7.615-5.85 5.85a4 4 0 0 0 0 5.657l2.828 2.829a4 4 0 0 0 5.657 0l5.85-5.85c1.083 3.989.074 8.41-3.036 11.52-3.658 3.659-9.132 4.41-13.581 2.268L13.515 40.142a4 4 0 1 1-5.657-5.657L18.11 24.232c-2.142-4.45-1.39-9.923 2.268-13.581 3.11-3.11 7.531-4.12 11.52-3.036Z"/><path style="fill: var(--opacity, #fff)" opacity=".3" fill-rule="evenodd" clip-rule="evenodd" d="m33.314 11.858 2.828 2.828a2 2 0 0 1 0 2.829l-2.76 2.759a2 2 0 0 1-2.828 0l-2.828-2.829a2 2 0 0 1 0-2.828l2.76-2.76a2 2 0 0 1 2.828 0Z"/></symbol></svg>