<?xml version="1.0" encoding="UTF-8"?><!DOCTYPE svg PUBLIC "-//W3C//DTD SVG 1.1//EN" "http://www.w3.org/Graphics/SVG/1.1/DTD/svg11.dtd"><svg xmlns="http://www.w3.org/2000/svg" xmlns:xlink="http://www.w3.org/1999/xlink"><defs/><symbol id="celcium" viewBox="0 0 48 48"><path fill-rule="evenodd" clip-rule="evenodd" d="M39.604 18.488a5.808 5.808 0 0 0-2.628-1.998c-1.08-.42-2.136-.63-3.168-.63-1.32 0-2.52.24-3.6.72a8.438 8.438 0 0 0-2.79 1.98 8.798 8.798 0 0 0-1.8 2.952c-.42 1.128-.63 2.352-.63 3.672 0 1.392.204 2.664.612 3.816.408 1.152.99 2.142 1.746 2.97a7.844 7.844 0 0 0 2.718 1.926c1.056.456 2.244.684 3.564.684 1.368 0 2.58-.27 3.636-.81s1.908-1.254 2.556-2.142l3.636 2.556a11.65 11.65 0 0 1-4.14 3.294c-1.632.78-3.54 1.17-5.724 1.17-1.992 0-3.822-.33-5.49-.99-1.668-.66-3.102-1.584-4.302-2.772-1.2-1.188-2.136-2.604-2.808-4.248-.672-1.644-1.008-3.462-1.008-5.454 0-2.04.354-3.882 1.062-5.526.708-1.644 1.68-3.042 2.916-4.194 1.236-1.152 2.694-2.04 4.374-2.664 1.68-.624 3.504-.936 5.472-.936.816 0 1.668.078 2.556.234.888.156 1.74.396 2.556.72a12.37 12.37 0 0 1 2.304 1.206 7.415 7.415 0 0 1 1.836 1.728l-3.456 2.736Z"/><path style="fill: var(--opacity, #fff)" opacity=".3" fill-rule="evenodd" clip-rule="evenodd" d="M5.89 15.608c-.3.696-.45 1.44-.45 2.232 0 .792.15 1.536.45 2.232a5.84 5.84 0 0 0 3.078 3.078c.696.3 1.44.45 2.232.45.792 0 1.536-.15 2.232-.45a5.84 5.84 0 0 0 3.078-3.078c.3-.696.45-1.44.45-2.232 0-.792-.15-1.536-.45-2.232a5.84 5.84 0 0 0-3.078-3.078c-.696-.3-1.44-.45-2.232-.45-.792 0-1.536.15-2.232.45a5.84 5.84 0 0 0-3.078 3.078Zm3.222 4.32a2.845 2.845 0 0 1-.864-2.088c0-.816.288-1.512.864-2.088a2.845 2.845 0 0 1 2.088-.864c.816 0 1.512.288 2.088.864.576.576.864 1.272.864 2.088 0 .816-.288 1.512-.864 2.088a2.845 2.845 0 0 1-2.088.864 2.845 2.845 0 0 1-2.088-.864Z"/></symbol><symbol id="cloud-fog" viewBox="0 0 48 48"><path fill-rule="evenodd" clip-rule="evenodd" d="M29.622 15C28.29 9.824 23.592 6 18 6 11.373 6 6 11.373 6 18c0 3.144 1.209 6.005 3.187 8.145A5.252 5.252 0 0 0 14.25 30h22.5c2.9 0 5.25-2.35 5.25-5.25v-4.5c0-2.9-2.35-5.25-5.25-5.25h-7.128Z"/><path style="fill: var(--opacity, #fff)" opacity=".3" fill-rule="evenodd" clip-rule="evenodd" d="M8 35a1 1 0 0 1 1-1h32a1 1 0 1 1 0 2H9a1 1 0 0 1-1-1Zm0 4a1 1 0 0 1 1-1h8a1 1 0 1 1 0 2H9a1 1 0 0 1-1-1Zm25 3a1 1 0 1 0 0 2h8a1 1 0 1 0 0-2h-8Zm-11-3a1 1 0 0 1 1-1h18a1 1 0 1 1 0 2H23a1 1 0 0 1-1-1ZM9 42a1 1 0 1 0 0 2h18a1 1 0 1 0 0-2H9Z"/></symbol><symbol id="cloud-sun" viewBox="0 0 48 48"><path style="fill: var(--opacity, #fff)" opacity=".3" fill-rule="evenodd" clip-rule="evenodd" d="M23 4.5A1.5 1.5 0 0 1 24.5 3h3A1.5 1.5 0 0 1 29 4.5v6a1.5 1.5 0 0 1-1.5 1.5h-3a1.5 1.5 0 0 1-1.5-1.5v-6Zm10.06 8.303a1.5 1.5 0 0 0 0 2.122l2.122 2.121a1.5 1.5 0 0 0 2.121 0l4.243-4.243a1.5 1.5 0 0 0 0-2.121l-2.121-2.121a1.5 1.5 0 0 0-2.122 0l-4.242 4.242ZM26 32a8 8 0 1 1 0-16 8 8 0 0 1 0 16Zm12-9.5a1.5 1.5 0 0 1 1.5-1.5h6a1.5 1.5 0 0 1 1.5 1.5v3a1.5 1.5 0 0 1-1.5 1.5h-6a1.5 1.5 0 0 1-1.5-1.5v-3ZM10.56 10.682a1.5 1.5 0 0 0 0 2.121l4.243 4.243a1.5 1.5 0 0 0 2.122 0l2.12-2.121a1.5 1.5 0 0 0 0-2.122l-4.242-4.242a1.5 1.5 0 0 0-2.121 0l-2.121 2.121Z"/><path fill-rule="evenodd" clip-rule="evenodd" d="M27.622 27c-1.332-5.176-6.03-9-11.622-9-6.627 0-12 5.373-12 12 0 3.144 1.209 6.005 3.187 8.145A5.252 5.252 0 0 0 12.25 42h22.5c2.9 0 5.25-2.35 5.25-5.25v-4.5c0-2.9-2.35-5.25-5.25-5.25h-7.128Z"/></symbol><symbol id="cloud-wind" viewBox="0 0 48 48"><path fill-rule="evenodd" clip-rule="evenodd" d="M29.622 9C28.29 3.824 23.592 0 18 0 11.373 0 6 5.373 6 12c0 3.144 1.209 6.005 3.187 8.145A5.252 5.252 0 0 0 14.25 24h22.5c2.9 0 5.25-2.35 5.25-5.25v-4.5C42 11.35 39.65 9 36.75 9h-7.128Z"/><path style="fill: var(--opacity, #fff)" opacity=".3" d="M8 28v4h27a3 3 0 0 1 3 3v1a2 2 0 1 1-4 0v-2h-4v2a6 6 0 0 0 12 0v-1a7 7 0 0 0-7-7H8Z"/><path opacity=".3" d="M8 34v4h13a3 3 0 0 1 3 3v1a2 2 0 1 1-4 0v-2h-4v2a6 6 0 0 0 12 0v-1a7 7 0 0 0-7-7H8Z"/></symbol><symbol id="cloud" viewBox="0 0 48 48"><path fill-rule="evenodd" clip-rule="evenodd" d="M29.622 21c-1.332-5.176-6.03-9-11.622-9-6.627 0-12 5.373-12 12 0 3.144 1.209 6.005 3.187 8.145A5.252 5.252 0 0 0 14.25 36h22.5c2.9 0 5.25-2.35 5.25-5.25v-4.5c0-2.9-2.35-5.25-5.25-5.25h-7.128Z"/></symbol><symbol id="cloud#2" viewBox="0 0 48 48"><path style="fill: var(--opacity, #fff)" opacity=".3" fill-rule="evenodd" clip-rule="evenodd" d="M32 30c5.523 0 10-4.477 10-10s-4.477-10-10-10-10 4.477-10 10 4.477 10 10 10Z"/><path fill-rule="evenodd" clip-rule="evenodd" d="M29.622 23c-1.332-5.176-6.03-9-11.622-9-6.627 0-12 5.373-12 12 0 3.144 1.209 6.005 3.187 8.145A5.252 5.252 0 0 0 14.25 38h22.5c2.9 0 5.25-2.35 5.25-5.25v-4.5c0-2.9-2.35-5.25-5.25-5.25h-7.128Z"/></symbol><symbol id="cloudy-night" viewBox="0 0 48 48"><path style="fill: var(--opacity, #fff)" opacity=".3" fill-rule="evenodd" clip-rule="evenodd" d="M32.457 6.41A9.953 9.953 0 0 0 33 11.555c1.968 5.129 7.702 7.704 12.837 5.783a9.996 9.996 0 0 1-6.295 7.773c-5.156 1.98-10.94-.596-12.92-5.752-1.979-5.156.597-10.94 5.753-12.92l.082-.03Z"/><path fill-rule="evenodd" clip-rule="evenodd" d="M29.622 23c-1.332-5.176-6.03-9-11.622-9-6.627 0-12 5.373-12 12 0 3.144 1.209 6.005 3.187 8.145A5.252 5.252 0 0 0 14.25 38h22.5c2.9 0 5.25-2.35 5.25-5.25v-4.5c0-2.9-2.35-5.25-5.25-5.25h-7.128Z"/></symbol><symbol id="cloudy" viewBox="0 0 48 48"><path style="fill: var(--opacity, #fff)" opacity=".3" fill-rule="evenodd" clip-rule="evenodd" d="M33.622 17C32.29 11.824 27.592 8 22 8c-6.627 0-12 5.373-12 12 0 3.144 1.209 6.005 3.187 8.145A5.252 5.252 0 0 0 18.25 32h22.5c2.9 0 5.25-2.35 5.25-5.25v-4.5c0-2.9-2.35-5.25-5.25-5.25h-7.128Z"/><path fill-rule="evenodd" clip-rule="evenodd" d="M25.622 25c-1.332-5.176-6.03-9-11.622-9-6.627 0-12 5.373-12 12 0 3.144 1.209 6.005 3.187 8.145A5.252 5.252 0 0 0 10.25 40h22.5c2.9 0 5.25-2.35 5.25-5.25v-4.5c0-2.9-2.35-5.25-5.25-5.25h-7.128Z"/></symbol><symbol id="day-rain" viewBox="0 0 48 48"><path style="fill: var(--opacity, #fff)" opacity=".3" fill-rule="evenodd" clip-rule="evenodd" d="M23.734 3.5a1.5 1.5 0 0 1 1.5-1.5h2.25a1.5 1.5 0 0 1 1.5 1.5v4.875a1.5 1.5 0 0 1-1.5 1.5h-2.25a1.5 1.5 0 0 1-1.5-1.5V3.5Zm8.936 6.945a1.5 1.5 0 0 0 0 2.122l1.59 1.59a1.5 1.5 0 0 0 2.122 0l3.447-3.447a1.5 1.5 0 0 0 0-2.12l-1.591-1.592a1.5 1.5 0 0 0-2.121 0l-3.447 3.447ZM20 19a7 7 0 1 0 14 0 7 7 0 0 0-14 0Zm-4 26a3 3 0 1 1-6 0c0-1.657 3-5 3-5s3 3.343 3 5Zm10 0a3 3 0 1 1-6 0c0-1.657 3-5 3-5s3 3.343 3 5Zm7 3a3 3 0 0 0 3-3c0-1.657-3-5-3-5s-3 3.343-3 5a3 3 0 0 0 3 3Zm3.859-28.75a1.5 1.5 0 0 1 1.5-1.5h4.875a1.5 1.5 0 0 1 1.5 1.5v2.25a1.5 1.5 0 0 1-1.5 1.5h-4.875a1.5 1.5 0 0 1-1.5-1.5v-2.25ZM12.982 8.59a1.5 1.5 0 0 0 0 2.12l3.447 3.448a1.5 1.5 0 0 0 2.122 0l1.59-1.591a1.5 1.5 0 0 0 0-2.122l-3.447-3.447a1.5 1.5 0 0 0-2.12 0L12.981 8.59Z"/><path fill-rule="evenodd" clip-rule="evenodd" d="M27.622 23c-1.332-5.176-6.03-9-11.622-9-6.627 0-12 5.373-12 12 0 3.144 1.209 6.005 3.187 8.145A5.252 5.252 0 0 0 12.25 38h22.5c2.9 0 5.25-2.35 5.25-5.25v-4.5c0-2.9-2.35-5.25-5.25-5.25h-7.128Z"/></symbol><symbol id="fahrenheit" viewBox="0 0 48 48"><path fill-rule="evenodd" clip-rule="evenodd" d="M23.208 12H40v4H28v7.456h10.976v3.816H28V38h-4.792V12Z"/><path style="fill: var(--opacity, #fff)" opacity=".3" fill-rule="evenodd" clip-rule="evenodd" d="M7.89 15.608c-.3.696-.45 1.44-.45 2.232 0 .792.15 1.536.45 2.232a5.84 5.84 0 0 0 3.078 3.078c.696.3 1.44.45 2.232.45.792 0 1.536-.15 2.232-.45a5.84 5.84 0 0 0 3.078-3.078c.3-.696.45-1.44.45-2.232 0-.792-.15-1.536-.45-2.232a5.84 5.84 0 0 0-3.078-3.078c-.696-.3-1.44-.45-2.232-.45-.792 0-1.536.15-2.232.45a5.84 5.84 0 0 0-3.078 3.078Zm3.222 4.32a2.845 2.845 0 0 1-.864-2.088c0-.816.288-1.512.864-2.088a2.845 2.845 0 0 1 2.088-.864c.816 0 1.512.288 2.088.864.576.576.864 1.272.864 2.088 0 .816-.288 1.512-.864 2.088a2.845 2.845 0 0 1-2.088.864 2.845 2.845 0 0 1-2.088-.864Z"/></symbol><symbol id="fog" viewBox="0 0 48 48"><rect style="fill: var(--opacity, #fff)" opacity=".3" x="4" y="10" width="40" height="4" rx="1"/><rect opacity=".3" x="4" y="34" width="40" height="4" rx="1"/><rect opacity=".3" x="4" y="18" width="10" height="4" rx="1"/><rect opacity=".3" x="32" y="26" width="12" height="4" rx="1"/><rect opacity=".3" x="18" y="18" width="26" height="4" rx="1"/><rect opacity=".3" x="4" y="26" width="24" height="4" rx="1"/></symbol><symbol id="moon" viewBox="0 0 48 48"><path fill-rule="evenodd" clip-rule="evenodd" d="M24.14 8A15.926 15.926 0 0 0 22 16c0 8.79 7.088 15.924 15.86 16-2.767 4.782-7.938 8-13.86 8-8.837 0-16-7.163-16-16S15.163 8 24 8h.14Z"/></symbol><symbol id="night-fog" viewBox="0 0 48 48"><path fill-rule="evenodd" clip-rule="evenodd" d="M25.762 6a10.95 10.95 0 0 0-1.471 5.5c0 6.043 4.872 10.948 10.903 11a10.996 10.996 0 0 1-9.528 5.5c-6.076 0-11-4.925-11-11s4.924-11 11-11h.096Z"/><path style="fill: var(--opacity, #fff)" opacity=".3" fill-rule="evenodd" clip-rule="evenodd" d="M4 33a1 1 0 0 1 1-1h38a1 1 0 1 1 0 2H5a1 1 0 0 1-1-1Zm0 4a1 1 0 0 1 1-1h10a1 1 0 1 1 0 2H5a1 1 0 0 1-1-1Zm25 3a1 1 0 1 0 0 2h14a1 1 0 1 0 0-2H29Zm-11-3a1 1 0 0 1 1-1h24a1 1 0 1 1 0 2H19a1 1 0 0 1-1-1ZM5 40a1 1 0 1 0 0 2h20a1 1 0 1 0 0-2H5Z"/></symbol><symbol id="night-rain" viewBox="0 0 48 48"><path style="fill: var(--opacity, #fff)" opacity=".3" fill-rule="evenodd" clip-rule="evenodd" d="M47.837 15.34a9.996 9.996 0 0 1-6.295 7.772c-5.156 1.979-10.94-.596-12.92-5.752-1.979-5.156.597-10.94 5.753-12.92l.082-.03A9.954 9.954 0 0 0 35 9.555c1.968 5.129 7.702 7.704 12.837 5.783ZM13 44a3 3 0 0 0 3-3c0-1.657-3-5-3-5s-3 3.343-3 5a3 3 0 0 0 3 3Zm10 0a3 3 0 0 0 3-3c0-1.657-3-5-3-5s-3 3.343-3 5a3 3 0 0 0 3 3Zm13-3a3 3 0 0 1-6 0c0-1.657 3-5 3-5s3 3.343 3 5Z"/><path fill-rule="evenodd" clip-rule="evenodd" d="M29.622 19c-1.332-5.176-6.03-9-11.622-9-6.627 0-12 5.373-12 12 0 3.144 1.209 6.005 3.187 8.145A5.252 5.252 0 0 0 14.25 34h22.5c2.9 0 5.25-2.35 5.25-5.25v-4.5c0-2.9-2.35-5.25-5.25-5.25h-7.128Z"/></symbol><symbol id="rain#1" viewBox="0 0 48 48"><path fill-rule="evenodd" clip-rule="evenodd" d="M29.622 15C28.29 9.824 23.592 6 18 6 11.373 6 6 11.373 6 18c0 3.144 1.209 6.005 3.187 8.145A5.252 5.252 0 0 0 14.25 30h22.5c2.9 0 5.25-2.35 5.25-5.25v-4.5c0-2.9-2.35-5.25-5.25-5.25h-7.128Z"/><path style="fill: var(--opacity, #fff)" opacity=".3" fill-rule="evenodd" clip-rule="evenodd" d="M31.621 32.687a1 1 0 0 1 1.225-.707l1.932.517a1 1 0 0 1 .707 1.225l-2.588 9.66a1 1 0 0 1-1.225.706l-1.932-.517a1 1 0 0 1-.707-1.225l2.588-9.66Zm-16 0a1 1 0 0 1 1.225-.707l1.932.517a1 1 0 0 1 .707 1.225l-2.588 9.66a1 1 0 0 1-1.225.706l-1.932-.517a1 1 0 0 1-.707-1.225l2.588-9.66Zm9.225-.707a1 1 0 0 0-1.225.707l-2.588 9.659a1 1 0 0 0 .707 1.225l1.932.517a1 1 0 0 0 1.225-.707l2.588-9.659a1 1 0 0 0-.707-1.225l-1.932-.517Z"/></symbol><symbol id="rain#2" viewBox="0 0 48 48"><path fill-rule="evenodd" clip-rule="evenodd" d="M29.622 15C28.29 9.824 23.592 6 18 6 11.373 6 6 11.373 6 18c0 3.144 1.209 6.005 3.187 8.145A5.252 5.252 0 0 0 14.25 30h22.5c2.9 0 5.25-2.35 5.25-5.25v-4.5c0-2.9-2.35-5.25-5.25-5.25h-7.128Z"/><path style="fill: var(--opacity, #fff)" opacity=".3" fill-rule="evenodd" clip-rule="evenodd" d="M13 42a3 3 0 0 0 3-3c0-1.657-3-5-3-5s-3 3.343-3 5a3 3 0 0 0 3 3Zm10 0a3 3 0 0 0 3-3c0-1.657-3-5-3-5s-3 3.343-3 5a3 3 0 0 0 3 3Zm13-3a3 3 0 1 1-6 0c0-1.657 3-5 3-5s3 3.343 3 5Z"/></symbol><symbol id="rain#5" viewBox="0 0 48 48"><path style="fill: var(--opacity, #fff)" opacity=".3" fill-rule="evenodd" clip-rule="evenodd" d="M13.23 21.5c0 2.485-2.066 4.5-4.615 4.5C6.066 26 4 23.985 4 21.5S8.615 14 8.615 14s4.616 5.015 4.616 7.5Zm30.77 0c0 2.485-2.066 4.5-4.615 4.5-2.55 0-4.616-2.015-4.616-4.5s4.616-7.5 4.616-7.5S44 19.015 44 21.5ZM16.615 40c2.55 0 4.616-2.015 4.616-4.5S16.615 28 16.615 28 12 33.015 12 35.5c0 2.485 2.066 4.5 4.615 4.5Zm20-4.5c0 2.485-2.066 4.5-4.615 4.5-2.549 0-4.615-2.015-4.615-4.5S32 28 32 28s4.615 5.015 4.615 7.5Z"/><path fill-rule="evenodd" clip-rule="evenodd" d="M24 26c2.549 0 4.615-2.015 4.615-4.5S24 14 24 14s-4.615 5.015-4.615 7.5c0 2.485 2.066 4.5 4.615 4.5Z"/></symbol><symbol id="rainbow" viewBox="0 0 48 48"><path style="fill: var(--opacity, #fff)" opacity=".3" fill-rule="evenodd" clip-rule="evenodd" d="M24 20c-6.99 0-12.883 5.156-13.859 12H14.2c.927-4.564 4.962-8 9.8-8 4.838 0 8.873 3.436 9.8 8h4.059C36.883 25.157 30.99 20 24 20Zm0 8a6.008 6.008 0 0 0-5.66 4h11.32A6.008 6.008 0 0 0 24 28Z"/><path fill-rule="evenodd" clip-rule="evenodd" d="M24 12c11.476 0 20.9 8.787 21.91 20h-4.02a18.011 18.011 0 0 0-.057-.462C40.633 22.762 33.106 16 24 16c-9.099 0-16.621 6.751-17.83 15.518-.022.16-.042.32-.06.482H2.09C3.1 20.787 12.524 12 24 12Z"/><path fill-rule="evenodd" clip-rule="evenodd" d="M24 12c11.476 0 20.9 8.787 21.91 20h-4.02a18.011 18.011 0 0 0-.057-.462C40.633 22.762 33.106 16 24 16c-9.099 0-16.621 6.751-17.83 15.518-.022.16-.042.32-.06.482H2.09C3.1 20.787 12.524 12 24 12Z"/></symbol><symbol id="snow" viewBox="0 0 48 48"><path style="fill: var(--opacity, #fff)" opacity=".3" fill-rule="evenodd" clip-rule="evenodd" d="M22 7a1 1 0 0 1 1-1h2a1 1 0 0 1 1 1v13.635l11.637-6.719a1 1 0 0 1 1.366.367l1 1.732a1 1 0 0 1-.366 1.366l-11.809 6.817 11.637 6.718a1 1 0 0 1 .366 1.366l-1 1.733a1 1 0 0 1-1.366.366L26 27.76V41a1 1 0 0 1-1 1h-2a1 1 0 0 1-1-1V27.563l-11.808 6.818a1 1 0 0 1-1.366-.366l-1-1.733a1 1 0 0 1 .366-1.365l11.636-6.719L8.02 17.381a1 1 0 0 1-.366-1.366l1-1.732a1 1 0 0 1 1.366-.367L22 20.834V7Z"/><path opacity=".3" fill-rule="evenodd" clip-rule="evenodd" d="M18.707 8.707a1 1 0 0 1 1.414 0l3.707 3.707 3.707-3.707a1 1 0 0 1 1.415 0l1.414 1.414a1 1 0 0 1 0 1.415l-4.243 4.242a1 1 0 0 1-1.414 0l-.879-.878-.878.878a1 1 0 0 1-1.415 0l-4.242-4.242a1 1 0 0 1 0-1.415l1.414-1.414Zm0 31.071a1 1 0 0 0 1.414 0l3.707-3.707 3.707 3.707a1 1 0 0 0 1.415 0l1.414-1.414a1 1 0 0 0 0-1.414l-4.243-4.243a1 1 0 0 0-1.414 0l-.879.879-.878-.879a1 1 0 0 0-1.415 0l-4.242 4.243a1 1 0 0 0 0 1.414l1.414 1.414Zm-6.48-4.557a1 1 0 0 0 .708 1.225l1.932.517a1 1 0 0 0 1.224-.707l1.553-5.795a1 1 0 0 0-.707-1.225l-1.2-.322.322-1.2a1 1 0 0 0-.707-1.225l-5.796-1.553a1 1 0 0 0-1.225.707l-.517 1.932A1 1 0 0 0 8.52 28.8l5.064 1.357-1.357 5.064Zm26.91-15.536a1 1 0 0 1 .706 1.225l-.517 1.932a1 1 0 0 1-1.225.707l-5.796-1.553a1 1 0 0 1-.707-1.225l.322-1.2-1.2-.322a1 1 0 0 1-.707-1.224l1.552-5.796a1 1 0 0 1 1.225-.707l1.932.518a1 1 0 0 1 .707 1.224l-1.357 5.064 5.064 1.357Zm0 9.115a1 1 0 0 0 .706-1.225l-.517-1.932a1 1 0 0 0-1.225-.707l-5.796 1.553a1 1 0 0 0-.707 1.225l.322 1.2-1.2.322a1 1 0 0 0-.708 1.225l1.553 5.795a1 1 0 0 0 1.225.707l1.932-.517a1 1 0 0 0 .707-1.225l-1.357-5.064 5.064-1.357Zm-26.91-15.536a1 1 0 0 1 .708-1.224l1.932-.518a1 1 0 0 1 1.224.707l1.553 5.796a1 1 0 0 1-.707 1.225l-1.2.321.322 1.2a1 1 0 0 1-.708 1.225L9.556 23.55a1 1 0 0 1-1.225-.707l-.517-1.932a1 1 0 0 1 .707-1.225l5.064-1.357-1.357-5.063Z"/></symbol><symbol id="snow#1" viewBox="0 0 48 48"><path fill-rule="evenodd" clip-rule="evenodd" d="M29.622 15C28.29 9.824 23.592 6 18 6 11.373 6 6 11.373 6 18c0 3.144 1.209 6.005 3.187 8.145A5.252 5.252 0 0 0 14.25 30h22.5c2.9 0 5.25-2.35 5.25-5.25v-4.5c0-2.9-2.35-5.25-5.25-5.25h-7.128Z"/><path style="fill: var(--opacity, #fff)" opacity=".3" fill-rule="evenodd" clip-rule="evenodd" d="M14.846 35.98a1 1 0 0 0-1.225.707l-.518 1.932a1 1 0 0 0 .707 1.224l1.932.518a1 1 0 0 0 1.225-.707l.518-1.932a1 1 0 0 0-.707-1.225l-1.932-.517Zm6.775.707a1 1 0 0 1 1.225-.707l1.932.517a1 1 0 0 1 .707 1.225l-.518 1.932a1 1 0 0 1-1.225.707l-1.931-.518a1 1 0 0 1-.708-1.224l.518-1.932Zm8 0a1 1 0 0 1 1.225-.707l1.932.517a1 1 0 0 1 .707 1.225l-.518 1.932a1 1 0 0 1-1.225.707l-1.931-.518a1 1 0 0 1-.708-1.224l.518-1.932Z"/></symbol><symbol id="snow#2" viewBox="0 0 48 48"><path fill-rule="evenodd" clip-rule="evenodd" d="M29.622 15C28.29 9.824 23.592 6 18 6 11.373 6 6 11.373 6 18c0 3.144 1.209 6.005 3.187 8.145A5.252 5.252 0 0 0 14.25 30h22.5c2.9 0 5.25-2.35 5.25-5.25v-4.5c0-2.9-2.35-5.25-5.25-5.25h-7.128Z"/><path style="fill: var(--opacity, #fff)" opacity=".3" fill-rule="evenodd" clip-rule="evenodd" d="M31.621 32.687a1 1 0 0 1 1.225-.707l1.932.517a1 1 0 0 1 .707 1.225l-.518 1.932a1 1 0 0 1-1.225.707l-1.931-.518a1 1 0 0 1-.708-1.224l.518-1.932Zm-16 0a1 1 0 0 1 1.225-.707l1.932.517a1 1 0 0 1 .707 1.225l-.518 1.932a1 1 0 0 1-1.225.707l-1.932-.518a1 1 0 0 1-.707-1.224l.518-1.932Zm9.225-.707a1 1 0 0 0-1.225.707l-.518 1.932a1 1 0 0 0 .707 1.224l1.932.518a1 1 0 0 0 1.225-.707l.518-1.932a1 1 0 0 0-.707-1.225l-1.932-.517Zm2.775 6.707a1 1 0 0 1 1.225-.707l1.932.517a1 1 0 0 1 .707 1.225l-.518 1.932a1 1 0 0 1-1.225.707l-1.931-.518a1 1 0 0 1-.708-1.224l.518-1.932Zm-6.775-.707a1 1 0 0 0-1.225.707l-.518 1.932a1 1 0 0 0 .707 1.224l1.932.518a1 1 0 0 0 1.225-.707l.518-1.932a1 1 0 0 0-.707-1.225l-1.932-.517Z"/></symbol><symbol id="snow#3" viewBox="0 0 48 49"><path style="fill: var(--opacity, #fff)" opacity=".3" fill-rule="evenodd" clip-rule="evenodd" d="M23 2.5A1.5 1.5 0 0 1 24.5 1h3A1.5 1.5 0 0 1 29 2.5v6a1.5 1.5 0 0 1-1.5 1.5h-3A1.5 1.5 0 0 1 23 8.5v-6Zm10.06 8.303a1.5 1.5 0 0 0 0 2.122l2.122 2.121a1.5 1.5 0 0 0 2.121 0l4.243-4.243a1.5 1.5 0 0 0 0-2.121l-2.121-2.121a1.5 1.5 0 0 0-2.122 0l-4.242 4.242ZM18 22a8 8 0 1 0 16 0 8 8 0 0 0-16 0Zm-4.379 22.687a1 1 0 0 1 1.225-.707l1.932.517a1 1 0 0 1 .707 1.225l-.518 1.932a1 1 0 0 1-1.225.707l-1.932-.518a1 1 0 0 1-.707-1.224l.518-1.932Zm9.225-.707a1 1 0 0 0-1.225.707l-.518 1.932a1 1 0 0 0 .707 1.224l1.932.518a1 1 0 0 0 1.225-.707l.518-1.932a1 1 0 0 0-.707-1.225l-1.932-.517Zm8 0a1 1 0 0 0-1.225.707l-.518 1.932a1 1 0 0 0 .707 1.224l1.932.518a1 1 0 0 0 1.225-.707l.518-1.932a1 1 0 0 0-.707-1.225l-1.932-.517ZM38 20.5a1.5 1.5 0 0 1 1.5-1.5h6a1.5 1.5 0 0 1 1.5 1.5v3a1.5 1.5 0 0 1-1.5 1.5h-6a1.5 1.5 0 0 1-1.5-1.5v-3ZM10.56 8.682a1.5 1.5 0 0 0 0 2.121l4.243 4.243a1.5 1.5 0 0 0 2.122 0l2.12-2.121a1.5 1.5 0 0 0 0-2.122l-4.242-4.242a1.5 1.5 0 0 0-2.121 0l-2.121 2.121Z"/><path fill-rule="evenodd" clip-rule="evenodd" d="M27.622 25c-1.332-5.176-6.03-9-11.622-9-6.627 0-12 5.373-12 12 0 3.144 1.209 6.005 3.187 8.145A5.252 5.252 0 0 0 12.25 40h22.5c2.9 0 5.25-2.35 5.25-5.25v-4.5c0-2.9-2.35-5.25-5.25-5.25h-7.128Z"/></symbol><symbol id="storm" viewBox="0 0 48 48"><rect x="16" y="4" width="28" height="4" rx="1"/><path style="fill: var(--opacity, #fff)" opacity=".3" fill-rule="evenodd" clip-rule="evenodd" d="M10 13a1 1 0 0 1 1-1h26a1 1 0 0 1 1 1v2a1 1 0 0 1-1 1H11a1 1 0 0 1-1-1v-2Zm4 8a1 1 0 0 1 1-1h16a1 1 0 0 1 1 1v2a1 1 0 0 1-1 1H15a1 1 0 0 1-1-1v-2Zm7 7a1 1 0 0 0-1 1v2a1 1 0 0 0 1 1h14a1 1 0 0 0 1-1v-2a1 1 0 0 0-1-1H21Zm1 9a1 1 0 0 1 1-1h8a1 1 0 0 1 1 1v2a1 1 0 0 1-1 1h-8a1 1 0 0 1-1-1v-2Zm-1 5a1 1 0 0 0-1 1v2a1 1 0 0 0 1 1h4a1 1 0 0 0 1-1v-2a1 1 0 0 0-1-1h-4Z"/></symbol><symbol id="sun-fog" viewBox="0 0 48 48"><path d="M16 28a8 8 0 1 1 16 0H16Z"/><path style="fill: var(--opacity, #fff)" opacity=".3" fill-rule="evenodd" clip-rule="evenodd" d="M22.5 5A1.5 1.5 0 0 0 21 6.5v6a1.5 1.5 0 0 0 1.5 1.5h3a1.5 1.5 0 0 0 1.5-1.5v-6A1.5 1.5 0 0 0 25.5 5h-3Zm8.56 9.803a1.5 1.5 0 0 0 0 2.122l2.122 2.121a1.5 1.5 0 0 0 2.121 0l4.243-4.243a1.5 1.5 0 0 0 0-2.121l-2.121-2.121a1.5 1.5 0 0 0-2.122 0l-4.242 4.242ZM37.5 22a1.5 1.5 0 0 0-1.5 1.5v3a1.5 1.5 0 0 0 1.5 1.5h6a1.5 1.5 0 0 0 1.5-1.5v-3a1.5 1.5 0 0 0-1.5-1.5h-6ZM3 23.5A1.5 1.5 0 0 1 4.5 22h6a1.5 1.5 0 0 1 1.5 1.5v3a1.5 1.5 0 0 1-1.5 1.5h-6A1.5 1.5 0 0 1 3 26.5v-3Zm5.56-8.697a1.5 1.5 0 0 1 0-2.121l2.122-2.121a1.5 1.5 0 0 1 2.121 0l4.243 4.242a1.5 1.5 0 0 1 0 2.122l-2.121 2.121a1.5 1.5 0 0 1-2.122 0l-4.242-4.243ZM5 32a1 1 0 1 0 0 2h38a1 1 0 1 0 0-2H5Zm-1 5a1 1 0 0 1 1-1h10a1 1 0 1 1 0 2H5a1 1 0 0 1-1-1Zm25 3a1 1 0 1 0 0 2h14a1 1 0 1 0 0-2H29Zm-11-3a1 1 0 0 1 1-1h24a1 1 0 1 1 0 2H19a1 1 0 0 1-1-1ZM5 40a1 1 0 1 0 0 2h20a1 1 0 1 0 0-2H5Z"/></symbol><symbol id="sun" viewBox="0 0 48 48"><path d="M24 30a6 6 0 1 1 0-12 6 6 0 0 1 0 12Z"/><path style="fill: var(--opacity, #fff)" opacity=".3" fill-rule="evenodd" clip-rule="evenodd" d="M21 4.5A1.5 1.5 0 0 1 22.5 3h3A1.5 1.5 0 0 1 27 4.5v6a1.5 1.5 0 0 1-1.5 1.5h-3a1.5 1.5 0 0 1-1.5-1.5v-6Zm10.06 8.303a1.5 1.5 0 0 0 0 2.122l2.122 2.121a1.5 1.5 0 0 0 2.121 0l4.243-4.243a1.5 1.5 0 0 0 0-2.121l-2.121-2.121a1.5 1.5 0 0 0-2.122 0l-4.242 4.242ZM37.5 21a1.5 1.5 0 0 0-1.5 1.5v3a1.5 1.5 0 0 0 1.5 1.5h6a1.5 1.5 0 0 0 1.5-1.5v-3a1.5 1.5 0 0 0-1.5-1.5h-6Zm-6.44 12.182a1.5 1.5 0 0 0 0 2.121l4.243 4.243a1.5 1.5 0 0 0 2.122 0l2.12-2.121a1.5 1.5 0 0 0 0-2.122l-4.242-4.242a1.5 1.5 0 0 0-2.121 0l-2.121 2.121ZM4.5 21A1.5 1.5 0 0 0 3 22.5v3A1.5 1.5 0 0 0 4.5 27h6a1.5 1.5 0 0 0 1.5-1.5v-3a1.5 1.5 0 0 0-1.5-1.5h-6Zm18 15a1.5 1.5 0 0 0-1.5 1.5v6a1.5 1.5 0 0 0 1.5 1.5h3a1.5 1.5 0 0 0 1.5-1.5v-6a1.5 1.5 0 0 0-1.5-1.5h-3ZM8.56 12.803a1.5 1.5 0 0 1 0-2.121l2.122-2.121a1.5 1.5 0 0 1 2.121 0l4.243 4.242a1.5 1.5 0 0 1 0 2.122l-2.121 2.121a1.5 1.5 0 0 1-2.122 0l-4.242-4.243Zm0 24.622a1.5 1.5 0 0 1 0-2.122l4.243-4.242a1.5 1.5 0 0 1 2.122 0l2.12 2.121a1.5 1.5 0 0 1 0 2.121l-4.242 4.243a1.5 1.5 0 0 1-2.121 0l-2.121-2.121Z"/></symbol><symbol id="sunset#1" viewBox="0 0 48 48"><path fill-rule="evenodd" clip-rule="evenodd" d="M24 24a8 8 0 0 0-8 8h16a8 8 0 0 0-8-8ZM7.5 36A1.5 1.5 0 0 0 6 37.5v1A1.5 1.5 0 0 0 7.5 40h33a1.5 1.5 0 0 0 1.5-1.5v-1a1.5 1.5 0 0 0-1.5-1.5h-33Z"/><path style="fill: var(--opacity, #fff)" opacity=".3" fill-rule="evenodd" clip-rule="evenodd" d="M21 10.5A1.5 1.5 0 0 1 22.5 9h3a1.5 1.5 0 0 1 1.5 1.5v6a1.5 1.5 0 0 1-1.5 1.5h-3a1.5 1.5 0 0 1-1.5-1.5v-6Zm10.06 10.425a1.5 1.5 0 0 1 0-2.122l4.243-4.242a1.5 1.5 0 0 1 2.122 0l2.12 2.121a1.5 1.5 0 0 1 0 2.121l-4.242 4.243a1.5 1.5 0 0 1-2.121 0l-2.121-2.121ZM36 27.5a1.5 1.5 0 0 1 1.5-1.5h6a1.5 1.5 0 0 1 1.5 1.5v3a1.5 1.5 0 0 1-1.5 1.5h-6a1.5 1.5 0 0 1-1.5-1.5v-3ZM4.5 26A1.5 1.5 0 0 0 3 27.5v3A1.5 1.5 0 0 0 4.5 32h6a1.5 1.5 0 0 0 1.5-1.5v-3a1.5 1.5 0 0 0-1.5-1.5h-6Zm4.06-9.318a1.5 1.5 0 0 0 0 2.121l4.243 4.243a1.5 1.5 0 0 0 2.122 0l2.12-2.121a1.5 1.5 0 0 0 0-2.122l-4.242-4.242a1.5 1.5 0 0 0-2.121 0l-2.121 2.121Z"/></symbol><symbol id="sunset#2" viewBox="0 0 48 48"><path fill-rule="evenodd" clip-rule="evenodd" d="M17.07 28A7.997 7.997 0 0 1 24 24a7.997 7.997 0 0 1 6.93 4H17.07ZM7.5 32A1.5 1.5 0 0 0 6 33.5v1A1.5 1.5 0 0 0 7.5 36h33a1.5 1.5 0 0 0 1.5-1.5v-1a1.5 1.5 0 0 0-1.5-1.5h-33Z"/><path style="fill: var(--opacity, #fff)" opacity=".3" fill-rule="evenodd" clip-rule="evenodd" d="M21 10.5A1.5 1.5 0 0 1 22.5 9h3a1.5 1.5 0 0 1 1.5 1.5v6a1.5 1.5 0 0 1-1.5 1.5h-3a1.5 1.5 0 0 1-1.5-1.5v-6Zm10.06 10.425a1.5 1.5 0 0 1 0-2.122l4.243-4.242a1.5 1.5 0 0 1 2.122 0l2.121 2.121a1.5 1.5 0 0 1 0 2.121l-4.243 4.243a1.5 1.5 0 0 1-2.121 0l-2.121-2.121Zm-22.5-4.243a1.5 1.5 0 0 0 0 2.121l4.243 4.243a1.5 1.5 0 0 0 2.122 0l2.121-2.121a1.5 1.5 0 0 0 0-2.122l-4.243-4.242a1.5 1.5 0 0 0-2.121 0l-2.121 2.121Z"/></symbol><symbol id="temperature-empty" viewBox="0 0 48 48"><path fill-rule="evenodd" clip-rule="evenodd" d="M24 44c6.627 0 12-5.373 12-12 0-4.442-2.413-8.32-6-10.395V10a6 6 0 0 0-12 0v11.605A11.995 11.995 0 0 0 12 32c0 6.627 5.373 12 12 12Zm2-20.087 1.997 1.155a8 8 0 1 1-7.994 0L22 23.913V10c0-.57.968-2.019 2-2 .966.018 2 1.466 2 2v13.913Z"/></symbol><symbol id="temperature-full" viewBox="0 0 48 48"><path d="M36 32c0 6.627-5.373 12-12 12s-12-5.373-12-12c0-4.442 2.413-8.32 6-10.395V10a6 6 0 0 1 12 0v11.605c3.587 2.075 6 5.953 6 10.395Z"/></symbol><symbol id="temperature-half" viewBox="0 0 48 48"><path fill-rule="evenodd" clip-rule="evenodd" d="M24 44c6.627 0 12-5.373 12-12 0-4.442-2.413-8.32-6-10.395V10a6 6 0 0 0-12 0v11.605A11.995 11.995 0 0 0 12 32c0 6.627 5.373 12 12 12ZM23 8a1 1 0 0 0-1 1v12a1 1 0 0 0 1 1h2a1 1 0 0 0 1-1V9a1 1 0 0 0-1-1h-2Z"/></symbol><symbol id="thunder-night" viewBox="0 0 48 48"><path style="fill: var(--opacity, #fff)" opacity=".3" fill-rule="evenodd" clip-rule="evenodd" d="M35 5.556a9.954 9.954 0 0 1-.543-5.147l-.082.031c-5.156 1.98-7.732 7.764-5.752 12.92 1.979 5.156 7.763 7.731 12.92 5.752a9.996 9.996 0 0 0 6.294-7.773C42.702 13.26 36.968 10.685 35 5.556ZM29.067 36l-8.89 12v-8h-4.444l8.89-12v8h4.444Z"/><path fill-rule="evenodd" clip-rule="evenodd" d="M29.622 15C28.29 9.824 23.592 6 18 6 11.373 6 6 11.373 6 18c0 3.144 1.209 6.005 3.187 8.145A5.252 5.252 0 0 0 14.25 30h22.5c2.9 0 5.25-2.35 5.25-5.25v-4.5c0-2.9-2.35-5.25-5.25-5.25h-7.128Z"/></symbol><symbol id="thunder" viewBox="0 0 48 48"><path style="fill: var(--opacity, #fff)" opacity=".3" fill-rule="evenodd" clip-rule="evenodd" d="m20.178 48 8.889-12h-4.445v-8l-8.889 12h4.445v8Z"/><path fill-rule="evenodd" clip-rule="evenodd" d="M29.622 15C28.29 9.824 23.592 6 18 6 11.373 6 6 11.373 6 18c0 3.144 1.209 6.005 3.187 8.145A5.252 5.252 0 0 0 14.25 30h22.5c2.9 0 5.25-2.35 5.25-5.25v-4.5c0-2.9-2.35-5.25-5.25-5.25h-7.128Z"/></symbol><symbol id="umbrella" viewBox="0 0 48 48"><path d="M6 15a9 9 0 0 1 9-9h16a9 9 0 0 1 9 9v9H6v-9Z"/><path style="fill: var(--opacity, #fff)" opacity=".3" d="M22 24h4v13.5a6.5 6.5 0 1 1-13 0V36h4v1.5a2.5 2.5 0 0 0 5 0V24Z"/></symbol><symbol id="windy" viewBox="0 0 48 48"><path d="M6 26v-4h29a3 3 0 0 0 3-3v-1a2 2 0 1 0-4 0v2h-4v-2a6 6 0 0 1 12 0v1a7 7 0 0 1-7 7H6Z"/><path style="fill: var(--opacity, #fff)" opacity=".3" fill-rule="evenodd" clip-rule="evenodd" d="M6 14v4h13a7 7 0 0 0 7-7v-1a6 6 0 0 0-12 0v2h4v-2a2 2 0 1 1 4 0v1a3 3 0 0 1-3 3H6Zm0 20v-4h13a7 7 0 0 1 7 7v1a6 6 0 0 1-12 0v-2h4v2a2 2 0 1 0 4 0v-1a3 3 0 0 0-3-3H6Z"/></symbol></svg>